<svg width="300" height="301" viewBox="0 0 300 301" fill="none" xmlns="http://www.w3.org/2000/svg">
<path d="M275.895 128.803V96.9062L247.734 113.08L275.895 128.803Z" fill="#F8F0DD"/>
<path d="M247.84 145.064L247.709 113.056L275.895 128.802L247.84 145.064Z" fill="#FFD97B"/>
<path d="M248.277 115.867L252.304 126.777L259.871 122.469L260.041 113.968L248.277 115.867Z" fill="#C78C61"/>
<path d="M254.568 122.148L253.184 122.872V125.299L254.568 124.556V122.148Z" fill="#FFE1B4" fill-opacity="0.7"/>
<path d="M252.304 109.543L260.041 113.997L252.304 118.16V126.777L244.737 122.469V113.851L252.304 109.543Z" fill="#E6A475"/>
<path d="M252.304 118.162V126.779L244.737 122.471V113.853L252.304 118.162Z" fill="#A06841"/>
<path d="M249.797 110.972L257.49 115.354L255.064 116.687L247.456 112.305H247.456" fill="#FFCC80"/>
<path d="M247.396 118.716L248.528 117.922L249.695 120.022L248.836 119.534V123.09L248.238 122.749V119.194L247.396 118.716Z" fill="#7D5133"/>
<path d="M254.892 118.345V119.039L258.276 117.112V116.418L254.892 118.345Z" fill="#A06841"/>
<path d="M254.892 120.072V120.766L258.276 118.839V118.146L254.892 120.072Z" fill="#A06841"/>
<path d="M257.088 120.991L261.115 131.901L268.682 127.593L268.852 119.092L257.088 120.991Z" fill="#C78C61"/>
<path d="M263.379 127.272L261.996 127.996V130.423L263.379 129.68V127.272Z" fill="#FFE1B4" fill-opacity="0.7"/>
<path d="M261.115 114.667L268.852 119.121L261.115 123.285V131.902L253.549 127.593V118.976L261.115 114.667Z" fill="#E6A475"/>
<path d="M261.115 123.284V131.901L253.548 127.593V118.975L261.115 123.284Z" fill="#A06841"/>
<path d="M258.609 116.096L266.302 120.478L263.876 121.811L256.268 117.429H256.267" fill="#FFCC80"/>
<path d="M256.208 123.84L257.339 123.046L258.507 125.146L257.647 124.658V128.214L257.049 127.873V124.318L256.208 123.84Z" fill="#7D5133"/>
<path d="M263.704 123.467V124.161L267.087 122.234V121.541L263.704 123.467Z" fill="#A06841"/>
<path d="M263.704 125.194V125.888L267.088 123.961V123.268L263.704 125.194Z" fill="#A06841"/>
<path d="M248.009 129.107L252.036 140.017L259.603 135.709L259.773 127.208L248.009 129.107Z" fill="#C78C61"/>
<path d="M254.3 135.389L252.917 136.113V138.54L254.3 137.796V135.389Z" fill="#FFE1B4" fill-opacity="0.7"/>
<path d="M252.036 122.784L259.773 127.237L252.036 131.401V140.018L244.469 135.71V127.092L252.036 122.784Z" fill="#E6A475"/>
<path d="M252.036 131.401V140.018L244.469 135.709V127.092L252.036 131.401Z" fill="#A06841"/>
<path d="M249.529 124.212L257.223 128.594L254.797 129.927L247.188 125.545H247.188" fill="#FFCC80"/>
<path d="M247.129 131.956L248.26 131.163L249.427 133.262L248.568 132.774V136.33L247.97 135.989V132.434L247.129 131.956Z" fill="#7D5133"/>
<path d="M254.625 131.583V132.277L258.008 130.35V129.656L254.625 131.583Z" fill="#A06841"/>
<path d="M254.625 133.311V134.004L258.008 132.078V131.384L254.625 133.311Z" fill="#A06841"/>
<path d="M217.837 120.439L147.602 79.1746L43.528 60.6411L217.957 162.454L217.837 120.439Z" fill="#D4DAE8"/>
<path d="M293.334 76.6586L171.005 5.12109L133.189 9.18891L255.52 80.7241L293.334 76.6586Z" fill="#2F873B"/>
<path d="M300 71.5516L177.668 0.0117188L133.177 4.80929L255.509 76.3492L300 71.5516Z" fill="#5B5E71"/>
<path d="M255.52 80.7198L133.188 9.18701L95.5077 48.9L217.839 120.438L255.52 80.7198Z" fill="#2F873B"/>
<path d="M211.164 123.066L88.8347 51.5264L90.1706 54.516L212.502 126.054L211.164 123.066Z" fill="#474958"/>
<path d="M255.508 76.3457L133.176 4.81055L88.8327 51.5316L211.164 123.069L255.508 76.3457Z" fill="#525566"/>
<path d="M129.002 171.951L6.67299 100.414L6.79018 142.431L129.122 213.966L129.002 171.951Z" fill="#D4DAE8"/>
<path d="M6.79005 142.433L129.122 213.971L6.79005 142.433Z" fill="#CAD0DD"/>
<path d="M204.501 128.171L82.1692 56.6333L44.3857 60.6799L166.717 132.217L204.501 128.171Z" fill="#2F873B"/>
<path d="M211.164 123.066L88.8349 51.5264L44.374 56.3051L166.706 127.84L211.164 123.066Z" fill="#5B5E71"/>
<path d="M166.718 132.217L44.3862 60.6768L6.67299 100.413L129 171.951L166.718 132.217Z" fill="#2F873B"/>
<path d="M166.718 132.218L129 171.953L129.12 213.97L204.616 170.189L204.499 128.172L166.718 132.218Z" fill="#CAD0DD"/>
<path d="M122.332 174.578L0.00012207 103.038L1.33606 106.028L123.67 177.565L122.332 174.578Z" fill="#474958"/>
<path d="M166.706 127.839L44.3743 56.3042L0.00012207 103.042L122.332 174.579L166.706 127.839Z" fill="#525566"/>
<path d="M255.508 76.3446L211.165 123.066L212.503 126.053L255.52 80.7208L298.682 76.0763L300 71.5518L255.508 76.3446Z" fill="#474B59"/>
<path d="M166.706 127.838L122.332 174.578L123.668 177.566L166.718 132.217L209.85 127.589L211.165 123.064L166.706 127.838Z" fill="#474B59"/>
<path d="M32.0763 133.554L28.6685 131.588V143.582L32.0763 142.229V133.554Z" fill="#CAD0DD"/>
<path d="M32.0767 133.556V142.231L47.7188 151.308L47.7962 142.629L32.0767 133.556ZM97.5961 171.555V180.23L113.313 189.3V180.628L97.5961 171.555Z" fill="#FFE99C"/>
<path d="M47.7185 151.308L32.0763 142.231L28.6685 143.585L47.688 154.625L47.7185 151.308Z" fill="#E4E8F4"/>
<path d="M64.8378 152.556V161.231L80.5549 170.301V161.629L64.8378 152.556Z" fill="#FFE99C"/>
<path d="M64.8377 152.554L61.4276 150.588V162.58L64.8377 161.229V152.554Z" fill="#CAD0DD"/>
<path d="M64.8377 161.23L61.4276 162.581L80.5525 173.622V170.303L64.8377 161.23Z" fill="#E4E8F4"/>
<path d="M97.5964 171.553L94.1863 169.585V181.579L97.5964 180.228V171.553Z" fill="#CAD0DD"/>
<path d="M97.5964 180.229L94.1863 181.581L113.314 192.621V189.302L97.5964 180.229Z" fill="#E4E8F4"/>
<path d="M183.46 182.477L155.032 198.972L154.903 166.903L183.62 150.468L183.46 182.477Z" fill="#5B5E71"/>
<path fill-rule="evenodd" clip-rule="evenodd" d="M217.837 120.442L255.52 80.7219L293.336 76.6611L293.453 118.679L217.954 162.46L217.837 120.442ZM275.895 128.803V96.9061L247.742 113.075L247.708 113.057L247.839 145.065L275.895 128.803Z" fill="#CAD0DD"/>
<path d="M183.62 146.818V136.373L181.612 136.849V146.105L183.62 146.818Z" fill="#D4DAE8"/>
<path d="M181.611 146.104L154.903 161.652V163.435L183.617 146.814L181.611 146.104Z" fill="#E4E8F4"/>
<path d="M181.611 136.847L169.2 139.695L154.903 152.989V161.654L181.611 146.103V136.847Z" fill="#FFE99C"/>
<path d="M275.895 93.0936V82.8506L273.925 83.3172V92.3964L275.895 93.0936Z" fill="#D4DAE8"/>
<path d="M273.925 92.397L247.727 107.649V109.395L275.895 93.0968L273.925 92.397Z" fill="#E4E8F4"/>
<path d="M273.925 83.3174L261.754 86.1114L247.727 99.1512V107.651L273.925 92.3967V83.3174Z" fill="#FFE99C"/>
<path d="M129.086 153.153L99.7849 136.048L99.7427 129.287L129.044 146.392L129.086 153.153Z" fill="#C8CCD8"/>
<path d="M141.551 139.112L129.051 146.396L99.7382 129.258L112.301 122.038L141.551 139.112Z" fill="#EAF0FD"/>
<path d="M141.579 139.124L141.593 141.643L129.087 153.154L129.045 146.393L141.579 139.124Z" fill="#B4BBC9"/>
<path d="M58.3078 111.834L29.0063 94.7345L28.9641 87.9736L58.2656 105.076L58.3078 111.834Z" fill="#C8CCD8"/>
<path d="M70.774 97.7952L58.2725 105.079L28.9616 87.9411L41.5241 80.7212L70.774 97.7952Z" fill="#EAF0FD"/>
<path d="M70.802 97.8042L70.816 100.325L58.3075 111.837L58.2653 105.074L70.802 97.8042Z" fill="#B4BBC9"/>
<path d="M215.978 96.8572L186.679 79.755L186.639 72.9941L215.939 90.0964L215.978 96.8572Z" fill="#C8CCD8"/>
<path d="M228.445 82.82L215.946 90.1011L186.632 72.9636L199.195 65.7437L228.445 82.82Z" fill="#EAF0FD"/>
<path d="M228.473 82.8306L228.487 85.3494L215.979 96.8608L215.939 90.0976L228.473 82.8306Z" fill="#B4BBC9"/>
<path d="M145.2 55.54L115.899 38.4401L115.859 31.6792L145.16 48.7838L145.2 55.54Z" fill="#C8CCD8"/>
<path d="M157.667 41.5027L145.168 48.7862L115.854 31.6486L128.417 24.4287L157.667 41.5027Z" fill="#EAF0FD"/>
<path d="M157.694 41.5093L157.708 44.0328L145.2 55.5418L145.16 48.781L157.694 41.5093Z" fill="#B4BBC9"/>
<path d="M244.9 292.922L239.888 289.997L239.907 297.086L244.92 300.011L244.9 292.922Z" fill="#EFAC41"/>
<path d="M283.419 270.73L278.407 267.803L239.888 289.997L244.9 292.922L283.419 270.73Z" fill="#FED57A"/>
<path d="M244.901 292.923L244.92 300.011L283.439 277.819L283.42 270.73L244.901 292.923Z" fill="#F9BB4A"/>
<path d="M256.018 287.989L256.03 292.342L255.965 292.381L252.214 290.193L256.018 287.989Z" fill="#EFAC41"/>
<path d="M249.471 291.646L252.215 290.195L255.963 292.383L249.484 296L249.471 291.646Z" fill="#FED57A"/>
<path d="M252.972 290.638L249.471 292.336V291.645L252.215 290.195L252.972 290.638Z" fill="#FAF7EA"/>
<path d="M278.536 274.932L278.547 279.287L278.482 279.325L274.732 277.138L278.536 274.932Z" fill="#EFAC41"/>
<path d="M260.847 285.188L274.733 277.137L278.48 279.323L260.86 289.543L260.847 285.188Z" fill="#FED57A"/>
<path d="M275.49 277.577L260.847 285.878V285.188L274.733 277.137L275.49 277.577Z" fill="#FAF7EA"/>
<path d="M229.216 283.766L224.203 280.841L224.223 287.93L229.235 290.855L229.216 283.766Z" fill="#EFAC41"/>
<path d="M267.734 261.575L262.722 258.648L224.203 280.842L229.216 283.767L267.734 261.575Z" fill="#FED57A"/>
<path d="M229.216 283.768L229.235 290.856L267.754 268.664L267.734 261.575L229.216 283.768Z" fill="#F9BB4A"/>
<path d="M240.333 278.833L240.345 283.186L240.279 283.226L236.529 281.038L240.333 278.833Z" fill="#EFAC41"/>
<path d="M233.786 282.491L236.531 281.04L240.278 283.228L233.799 286.844L233.786 282.491Z" fill="#FED57A"/>
<path d="M237.287 281.482L233.786 283.18V282.489L236.531 281.04L237.287 281.482Z" fill="white"/>
<path d="M262.851 265.776L262.862 270.131L262.797 270.169L259.046 267.982L262.851 265.776Z" fill="#EFAC41"/>
<path d="M245.161 276.032L259.048 267.981L262.795 270.167L245.174 280.387L245.161 276.032Z" fill="#FED57A"/>
<path d="M259.804 268.422L245.161 276.722V276.034L259.048 267.981L259.804 268.422Z" fill="white"/>
<path d="M213.53 274.612L208.518 271.687L208.537 278.775L213.55 281.7L213.53 274.612Z" fill="#EFAC41"/>
<path d="M252.049 252.419L247.037 249.493L208.518 271.687L213.53 274.613L252.049 252.419Z" fill="#FED57A"/>
<path d="M213.531 274.613L213.55 281.701L252.071 259.509L252.049 252.42L213.531 274.613Z" fill="#F9BB4A"/>
<path d="M224.648 269.678L224.659 274.032L224.594 274.071L220.844 271.883L224.648 269.678Z" fill="#EFAC41"/>
<path d="M218.101 273.335L220.846 271.884L224.593 274.072L218.114 277.689L218.101 273.335Z" fill="#FED57A"/>
<path d="M221.602 272.326L218.101 274.025V273.334L220.846 271.884L221.602 272.326Z" fill="white"/>
<path d="M247.166 256.621L247.177 260.976L247.112 261.014L243.361 258.827L247.166 256.621Z" fill="#EFAC41"/>
<path d="M229.478 266.877L243.363 258.826L247.11 261.012L229.49 271.232L229.478 266.877Z" fill="#FED57A"/>
<path d="M244.12 259.266L229.477 267.567V266.879L243.363 258.826L244.12 259.266Z" fill="white"/>
<path d="M241.662 251.084L241.667 252.655L277.996 273.872L277.991 272.302L241.662 251.084Z" fill="#474B59"/>
<path d="M277.991 272.301L277.996 273.873L283.075 270.925L283.071 269.356L277.991 272.301Z" fill="#525566"/>
<path d="M241.662 251.085L277.993 272.302L283.07 269.358L246.741 248.138L241.662 251.085Z" fill="#5B5E71"/>
<path d="M230.646 257.444L230.651 259.017L266.979 280.234L266.975 278.662L230.646 257.444Z" fill="#474B59"/>
<path d="M266.975 278.661L266.98 280.234L272.059 277.287L272.054 275.715L266.975 278.661Z" fill="#525566"/>
<path d="M230.646 257.444L266.976 278.662L272.054 275.717L235.725 254.499L230.646 257.444Z" fill="#5B5E71"/>
<path d="M219.629 263.805L219.634 265.377L255.963 286.595L255.958 285.023L219.629 263.805Z" fill="#474B59"/>
<path d="M255.96 285.026L255.963 286.597L261.042 283.65L261.038 282.08L255.96 285.026Z" fill="#525566"/>
<path d="M219.629 263.805L255.959 285.025L261.037 282.078L224.708 260.86L219.629 263.805Z" fill="#5B5E71"/>
<path d="M208.613 270.169L208.618 271.74L244.946 292.958L244.941 291.386L208.613 270.169Z" fill="#474B59"/>
<path d="M244.941 291.386L244.946 292.958L250.025 290.01L250.021 288.441L244.941 291.386Z" fill="#525566"/>
<path d="M208.613 270.169L244.943 291.387L250.021 288.442L213.692 267.223L208.613 270.169Z" fill="#5B5E71"/>
<path d="M247.211 233.617L233.282 241.19C232.978 241.378 232.89 241.66 232.893 242.068L232.919 242.578L247.625 250.531L262.296 242.705C262.296 242.705 262.312 242.626 262.312 242.35C262.312 242.35 262.298 241.987 262.221 241.818C262.136 241.626 261.954 241.454 261.836 241.35C261.524 241.077 261.212 240.835 260.68 240.519C253.062 235.977 248.052 233.636 248.052 233.636C247.729 233.51 247.462 233.465 247.211 233.617Z" fill="#DEA66C"/>
<path d="M233.112 259.334C233.924 259.9 235.406 260.644 236.904 261.5C240.386 263.488 244.787 265.905 246.976 266.854C247.273 266.983 247.449 267.045 247.655 267.056C247.807 267.065 248.058 266.958 248.058 266.958C248.058 266.958 247.649 251.415 247.625 250.528C247.601 249.66 247.257 249.373 246.952 249.165C246.477 248.844 245.446 248.342 245.446 248.342C245.446 248.342 241.836 246.45 238.231 244.456C236.517 243.507 235.069 242.535 233.513 241.735C233.227 241.592 232.89 241.772 232.89 242.11V258.951C232.89 259.112 232.984 259.247 233.112 259.334Z" fill="#B38251"/>
<path d="M261.909 259.432L248.087 266.948C247.866 267.069 247.601 266.9 247.601 266.636L247.625 250.532C247.625 250.377 247.58 250.037 247.535 249.901C247.409 249.507 247.682 249.349 247.804 249.285L261.514 241.838C261.877 241.641 262.312 241.92 262.312 242.351V258.739C262.312 259.029 262.157 259.296 261.909 259.432Z" fill="#966239"/>
<path opacity="0.5" d="M255.735 245.656C255.735 245.656 248.159 249.742 248.036 250.089C247.914 250.432 253.981 247.357 254.691 246.971C255.495 246.535 261.807 242.975 261.807 242.583C261.81 242.262 255.735 245.656 255.735 245.656Z" fill="#212121"/>
<g opacity="0.5">
<path d="M233.931 258.402C234.917 258.926 235.894 259.467 237.112 260.123V259.622C235.899 258.968 234.919 258.43 233.931 257.901V258.402Z" fill="#212121"/>
<path d="M236.007 258.63C236.285 258.779 236.424 258.855 236.686 258.996C236.689 258.123 236.689 257.686 236.691 256.813C236.429 256.672 236.293 256.599 236.018 256.45C236.012 257.323 236.01 257.756 236.007 258.63Z" fill="#212121"/>
<path d="M234.282 257.694C234.512 257.818 234.64 257.889 234.902 258.03L234.916 255.855C234.651 255.712 234.523 255.644 234.29 255.515C234.287 256.388 234.285 256.824 234.282 257.694Z" fill="#212121"/>
<path d="M235.571 256.471C236.204 256.812 236.541 256.995 237.099 257.293C236.821 256.761 236.669 256.491 236.365 255.944C236.052 256.158 235.889 256.263 235.571 256.471Z" fill="#212121"/>
<path d="M233.932 255.584C234.404 255.843 234.722 256.015 235.347 256.353C235.037 255.804 234.882 255.531 234.597 254.993C234.306 255.215 234.169 255.331 233.932 255.584Z" fill="#212121"/>
</g>
<g opacity="0.5">
<path d="M239.005 260.81C239.227 260.931 239.342 260.996 239.564 261.117C239.548 260.081 239.54 259.563 239.521 258.526C239.307 258.408 239.201 258.349 238.987 258.233C238.995 259.264 238.997 259.78 239.005 260.81Z" fill="#212121"/>
<path d="M238.191 260.628C239.003 261.078 239.633 261.416 240.413 261.856C240.407 261.56 240.191 261.202 239.897 261.036C239.438 260.78 239.176 260.639 238.712 260.383C238.413 260.222 238.191 260.338 238.191 260.628Z" fill="#212121"/>
<path d="M239.737 257.701L240.079 258.465C239.972 258.704 239.916 258.825 239.804 259.062C239.9 259.053 239.948 259.05 240.044 259.042C240.172 258.862 240.236 258.772 240.359 258.591C240.247 258.313 240.188 258.172 240.071 257.893C240.397 258.082 240.557 258.177 240.853 258.36C240.853 259.369 240.228 259.814 239.288 259.295C238.349 258.78 237.726 257.628 237.726 256.617C238.426 256.986 238.896 257.228 239.737 257.701Z" fill="#212121"/>
</g>
<path d="M257.412 243.939C257.278 243.835 242.941 235.936 242.941 235.936L238.492 238.36L253.193 246.356L253.201 246.364L257.503 244.041C257.503 244.041 257.495 244.018 257.471 243.99C257.452 243.973 257.42 243.948 257.412 243.939Z" fill="#FFE0B2"/>
<path d="M257.482 244.007C255.046 245.271 253.193 246.356 253.193 246.356C253.255 246.42 253.257 246.505 253.257 246.547C253.249 246.874 253.244 247.133 253.236 247.457C253.198 249.132 253.177 250.811 253.124 252.487C254.363 251.97 256.174 250.931 257.618 250.312C257.618 250.312 257.567 245.201 257.548 244.342C257.543 244.038 257.482 244.007 257.482 244.007Z" fill="#BF9F85"/>
<path d="M261.755 252.848L259.135 254.365V259.185L261.755 257.669V252.848Z" fill="#BF9F85"/>
<path d="M252.302 250.113L248.608 252.082V258.685L252.302 256.663V250.113Z" fill="#BF9F85"/>
<path d="M227.733 244.795L213.805 252.368C213.5 252.557 213.412 252.839 213.415 253.247L213.442 253.757L228.147 261.71L242.818 253.883C242.818 253.883 242.834 253.805 242.834 253.529C242.834 253.529 242.821 253.165 242.743 252.996C242.658 252.805 242.476 252.633 242.359 252.529C242.046 252.256 241.734 252.013 241.203 251.698C233.584 247.155 228.575 244.815 228.575 244.815C228.251 244.688 227.984 244.643 227.733 244.795Z" fill="#DEA66C"/>
<path d="M213.635 270.512C214.446 271.079 215.928 271.822 217.427 272.678C220.909 274.666 225.309 277.083 227.499 278.032C227.795 278.161 227.972 278.223 228.177 278.235C228.33 278.243 228.581 278.136 228.581 278.136C228.581 278.136 228.172 262.593 228.148 261.706C228.124 260.839 227.779 260.551 227.475 260.343C227 260.022 225.969 259.521 225.969 259.521C225.969 259.521 222.359 257.628 218.754 255.634C217.039 254.685 215.592 253.713 214.035 252.914C213.749 252.77 213.413 252.95 213.413 253.288V270.129C213.413 270.29 213.506 270.425 213.635 270.512Z" fill="#B38251"/>
<path d="M242.432 270.612L228.61 278.129C228.388 278.25 228.124 278.081 228.124 277.816L228.148 261.713C228.148 261.558 228.103 261.217 228.057 261.082C227.932 260.688 228.204 260.53 228.327 260.465L242.036 253.019C242.4 252.822 242.835 253.101 242.835 253.532V269.92C242.835 270.21 242.68 270.477 242.432 270.612Z" fill="#966239"/>
<path opacity="0.5" d="M236.257 256.834C236.257 256.834 228.682 260.921 228.559 261.267C228.436 261.611 234.503 258.535 235.213 258.149C236.017 257.713 242.33 254.153 242.33 253.762C242.333 253.441 236.257 256.834 236.257 256.834Z" fill="#212121"/>
<g opacity="0.5">
<path d="M214.454 269.581C215.439 270.105 216.417 270.645 217.634 271.302V270.8C216.422 270.147 215.442 269.609 214.454 269.08V269.581Z" fill="#212121"/>
<path d="M216.529 269.808C216.808 269.957 216.947 270.034 217.209 270.174C217.211 269.301 217.211 268.865 217.214 267.992C216.952 267.851 216.816 267.778 216.54 267.628C216.535 268.501 216.532 268.935 216.529 269.808Z" fill="#212121"/>
<path d="M214.804 268.875C215.034 268.999 215.163 269.069 215.425 269.21L215.438 267.036C215.173 266.892 215.045 266.825 214.812 266.695C214.81 267.568 214.807 268.005 214.804 268.875Z" fill="#212121"/>
<path d="M216.094 267.649C216.727 267.99 217.063 268.173 217.621 268.472C217.344 267.939 217.191 267.669 216.887 267.123C216.574 267.337 216.412 267.441 216.094 267.649Z" fill="#212121"/>
<path d="M214.454 266.762C214.927 267.021 215.245 267.193 215.869 267.531C215.56 266.982 215.405 266.709 215.119 266.171C214.828 266.393 214.692 266.509 214.454 266.762Z" fill="#212121"/>
</g>
<g opacity="0.5">
<path d="M219.528 271.989C219.75 272.11 219.865 272.175 220.087 272.296C220.071 271.26 220.063 270.741 220.044 269.705C219.83 269.587 219.723 269.528 219.509 269.412C219.517 270.443 219.52 270.958 219.528 271.989Z" fill="#212121"/>
<path d="M218.713 271.806C219.525 272.257 220.155 272.595 220.935 273.034C220.93 272.738 220.713 272.381 220.42 272.214C219.96 271.958 219.699 271.817 219.234 271.561C218.935 271.4 218.713 271.516 218.713 271.806Z" fill="#212121"/>
<path d="M220.259 268.881L220.601 269.644C220.494 269.883 220.438 270.004 220.326 270.241C220.422 270.232 220.47 270.23 220.567 270.221C220.695 270.041 220.759 269.951 220.882 269.771C220.77 269.492 220.711 269.351 220.593 269.072C220.919 269.261 221.079 269.357 221.376 269.54C221.376 270.548 220.751 270.993 219.811 270.475C218.871 269.959 218.249 268.807 218.249 267.796C218.948 268.165 219.418 268.408 220.259 268.881Z" fill="#212121"/>
</g>
<path d="M237.935 255.118C237.801 255.014 223.464 247.114 223.464 247.114L219.015 249.539L233.715 257.534L233.723 257.543L238.025 255.22C238.025 255.22 238.017 255.197 237.993 255.169C237.975 255.152 237.943 255.127 237.935 255.118Z" fill="#FFE0B2"/>
<path d="M238.004 255.185C235.569 256.449 233.716 257.533 233.716 257.533C233.777 257.598 233.78 257.683 233.78 257.725C233.772 258.052 233.766 258.311 233.758 258.635C233.721 260.31 233.7 261.989 233.646 263.664C234.885 263.148 236.696 262.109 238.14 261.49C238.14 261.49 238.09 256.379 238.071 255.52C238.066 255.216 238.004 255.185 238.004 255.185Z" fill="#BF9F85"/>
<path d="M242.278 264.025L239.657 265.542V270.363L242.278 268.846V264.025Z" fill="#BF9F85"/>
<path d="M232.825 261.292L229.13 263.261V269.863L232.825 267.842V261.292Z" fill="#BF9F85"/>
<path d="M264.833 244.329L250.905 251.902C250.6 252.091 250.512 252.372 250.515 252.781L250.542 253.29L265.247 261.244L279.918 253.417C279.918 253.417 279.934 253.338 279.934 253.062C279.934 253.062 279.921 252.699 279.843 252.53C279.758 252.338 279.576 252.167 279.459 252.062C279.146 251.789 278.834 251.547 278.303 251.232C270.684 246.689 265.675 244.349 265.675 244.349C265.351 244.222 265.084 244.177 264.833 244.329Z" fill="#DEA66C"/>
<path d="M250.735 270.049C251.546 270.615 253.028 271.359 254.527 272.215C258.009 274.203 262.409 276.619 264.599 277.569C264.895 277.698 265.072 277.76 265.277 277.771C265.43 277.78 265.681 277.673 265.681 277.673C265.681 277.673 265.272 262.13 265.248 261.243C265.224 260.375 264.879 260.088 264.575 259.879C264.1 259.558 263.069 259.057 263.069 259.057C263.069 259.057 259.459 257.165 255.854 255.171C254.139 254.222 252.692 253.25 251.135 252.45C250.849 252.307 250.513 252.487 250.513 252.825V269.666C250.513 269.827 250.606 269.962 250.735 270.049Z" fill="#B38251"/>
<path d="M279.532 270.147L265.71 277.664C265.488 277.785 265.224 277.616 265.224 277.351L265.248 261.248C265.248 261.093 265.203 260.752 265.157 260.617C265.032 260.222 265.304 260.065 265.427 260L279.136 252.554C279.5 252.357 279.935 252.635 279.935 253.066V269.454C279.935 269.744 279.78 270.012 279.532 270.147Z" fill="#966239"/>
<path opacity="0.5" d="M273.358 256.368C273.358 256.368 265.782 260.454 265.659 260.801C265.536 261.144 271.603 258.069 272.314 257.683C273.117 257.247 279.43 253.687 279.43 253.295C279.433 252.974 273.358 256.368 273.358 256.368Z" fill="#212121"/>
<g opacity="0.5">
<path d="M251.554 269.117C252.539 269.64 253.517 270.181 254.734 270.837V270.336C253.522 269.683 252.542 269.145 251.554 268.615V269.117Z" fill="#212121"/>
<path d="M253.629 269.344C253.907 269.493 254.046 269.569 254.308 269.71C254.311 268.837 254.311 268.4 254.313 267.527C254.051 267.387 253.915 267.313 253.64 267.164C253.634 268.037 253.632 268.471 253.629 269.344Z" fill="#212121"/>
<path d="M251.904 268.409C252.134 268.533 252.263 268.603 252.525 268.744L252.538 266.57C252.273 266.426 252.145 266.359 251.912 266.229C251.91 267.102 251.907 267.539 251.904 268.409Z" fill="#212121"/>
<path d="M253.194 267.183C253.826 267.524 254.163 267.707 254.721 268.005C254.443 267.473 254.291 267.203 253.987 266.656C253.674 266.87 253.511 266.974 253.194 267.183Z" fill="#212121"/>
<path d="M251.554 266.296C252.027 266.555 252.345 266.727 252.97 267.065C252.66 266.516 252.505 266.242 252.219 265.705C251.928 265.927 251.792 266.043 251.554 266.296Z" fill="#212121"/>
</g>
<g opacity="0.5">
<path d="M256.628 271.523C256.85 271.644 256.965 271.709 257.187 271.83C257.171 270.794 257.163 270.276 257.144 269.239C256.93 269.121 256.823 269.062 256.609 268.946C256.617 269.977 256.62 270.492 256.628 271.523Z" fill="#212121"/>
<path d="M255.813 271.34C256.625 271.79 257.255 272.128 258.035 272.568C258.03 272.272 257.814 271.914 257.52 271.748C257.06 271.492 256.799 271.351 256.334 271.095C256.035 270.934 255.813 271.05 255.813 271.34Z" fill="#212121"/>
<path d="M257.36 268.414L257.701 269.177C257.595 269.416 257.539 269.538 257.426 269.774C257.522 269.766 257.571 269.763 257.667 269.754C257.795 269.574 257.859 269.484 257.982 269.304C257.87 269.025 257.811 268.884 257.693 268.605C258.019 268.794 258.179 268.89 258.476 269.073C258.476 270.081 257.851 270.526 256.911 270.008C255.971 269.492 255.349 268.341 255.349 267.33C256.048 267.699 256.518 267.941 257.36 268.414Z" fill="#212121"/>
</g>
<path d="M275.034 254.651C274.901 254.547 260.564 246.647 260.564 246.647L256.115 249.072L270.815 257.068L270.823 257.076L275.125 254.753C275.125 254.753 275.117 254.73 275.093 254.702C275.074 254.685 275.042 254.66 275.034 254.651Z" fill="#FFE0B2"/>
<path d="M275.104 254.719C272.669 255.983 270.816 257.068 270.816 257.068C270.877 257.132 270.88 257.217 270.88 257.259C270.872 257.586 270.866 257.845 270.858 258.169C270.821 259.844 270.8 261.523 270.746 263.199C271.985 262.682 273.796 261.643 275.24 261.024C275.24 261.024 275.19 255.913 275.171 255.054C275.166 254.75 275.104 254.719 275.104 254.719Z" fill="#BF9F85"/>
<path d="M279.378 263.562L276.758 265.078V269.899L279.378 268.382V263.562Z" fill="#BF9F85"/>
<path d="M269.925 260.825L266.23 262.794V269.397L269.925 267.375V260.825Z" fill="#BF9F85"/>
<path d="M245.356 255.508L231.427 263.081C231.123 263.269 231.035 263.551 231.037 263.959L231.064 264.469L245.77 272.422L260.441 264.596C260.441 264.596 260.457 264.517 260.457 264.241C260.457 264.241 260.443 263.878 260.366 263.709C260.28 263.517 260.099 263.345 259.981 263.241C259.669 262.968 259.356 262.726 258.825 262.41C251.207 257.868 246.197 255.527 246.197 255.527C245.874 255.401 245.607 255.356 245.356 255.508Z" fill="#DEA66C"/>
<path d="M231.257 281.226C232.069 281.792 233.551 282.536 235.049 283.392C238.531 285.38 242.932 287.797 245.122 288.746C245.418 288.875 245.594 288.937 245.8 288.949C245.952 288.957 246.203 288.85 246.203 288.85C246.203 288.85 245.795 273.307 245.771 272.42C245.746 271.552 245.402 271.265 245.098 271.057C244.622 270.736 243.592 270.234 243.592 270.234C243.592 270.234 239.981 268.342 236.376 266.348C234.662 265.399 233.215 264.427 231.658 263.627C231.372 263.484 231.036 263.664 231.036 264.002V280.843C231.036 281.004 231.129 281.139 231.257 281.226Z" fill="#B38251"/>
<path d="M260.054 281.325L246.233 288.842C246.011 288.963 245.747 288.794 245.747 288.529L245.771 272.426C245.771 272.271 245.725 271.93 245.68 271.795C245.554 271.401 245.827 271.243 245.95 271.178L259.659 263.732C260.022 263.535 260.457 263.814 260.457 264.245V280.632C260.457 280.923 260.303 281.19 260.054 281.325Z" fill="#966239"/>
<path opacity="0.5" d="M253.88 267.549C253.88 267.549 246.304 271.635 246.181 271.982C246.059 272.325 252.126 269.25 252.836 268.864C253.64 268.428 259.952 264.868 259.952 264.477C259.955 264.155 253.88 267.549 253.88 267.549Z" fill="#212121"/>
<g opacity="0.5">
<path d="M232.076 280.295C233.062 280.819 234.039 281.36 235.257 282.016V281.515C234.044 280.861 233.064 280.323 232.076 279.794V280.295Z" fill="#212121"/>
<path d="M234.152 280.523C234.43 280.672 234.569 280.748 234.831 280.889C234.833 280.016 234.833 279.58 234.836 278.707C234.574 278.566 234.438 278.493 234.162 278.343C234.157 279.216 234.154 279.65 234.152 280.523Z" fill="#212121"/>
<path d="M232.427 279.588C232.657 279.712 232.785 279.782 233.047 279.923L233.061 277.749C232.796 277.605 232.667 277.538 232.435 277.408C232.432 278.281 232.429 278.718 232.427 279.588Z" fill="#212121"/>
<path d="M233.716 278.362C234.349 278.703 234.685 278.886 235.244 279.184C234.966 278.652 234.814 278.382 234.509 277.835C234.197 278.049 234.034 278.154 233.716 278.362Z" fill="#212121"/>
<path d="M232.076 277.475C232.549 277.734 232.867 277.906 233.492 278.244C233.182 277.694 233.027 277.421 232.741 276.883C232.45 277.106 232.314 277.221 232.076 277.475Z" fill="#212121"/>
</g>
<g opacity="0.5">
<path d="M237.151 282.701C237.373 282.822 237.488 282.887 237.71 283.008C237.693 281.972 237.685 281.453 237.667 280.417C237.453 280.299 237.346 280.239 237.132 280.124C237.14 281.155 237.143 281.67 237.151 282.701Z" fill="#212121"/>
<path d="M236.336 282.518C237.148 282.969 237.778 283.307 238.558 283.746C238.553 283.451 238.336 283.093 238.043 282.927C237.583 282.671 237.322 282.53 236.857 282.273C236.558 282.113 236.336 282.228 236.336 282.518Z" fill="#212121"/>
<path d="M237.882 279.593L238.224 280.356C238.117 280.595 238.061 280.716 237.949 280.953C238.045 280.944 238.093 280.942 238.189 280.933C238.318 280.753 238.382 280.663 238.505 280.483C238.392 280.204 238.334 280.063 238.216 279.784C238.542 279.973 238.702 280.069 238.999 280.252C238.999 281.26 238.374 281.705 237.434 281.187C236.494 280.671 235.872 279.519 235.872 278.508C236.571 278.877 237.041 279.119 237.882 279.593Z" fill="#212121"/>
</g>
<path d="M255.557 265.83C255.424 265.725 241.086 257.826 241.086 257.826L236.638 260.25L251.338 268.246L251.346 268.254L255.648 265.931C255.648 265.931 255.64 265.908 255.616 265.88C255.597 265.863 255.565 265.838 255.557 265.83Z" fill="#FFE0B2"/>
<path d="M255.627 265.897C253.191 267.161 251.338 268.246 251.338 268.246C251.4 268.311 251.402 268.395 251.402 268.437C251.394 268.764 251.389 269.023 251.381 269.347C251.343 271.023 251.322 272.701 251.269 274.377C252.508 273.86 254.319 272.821 255.763 272.203C255.763 272.203 255.712 267.091 255.693 266.232C255.688 265.928 255.627 265.897 255.627 265.897Z" fill="#BF9F85"/>
<path d="M259.901 274.74L257.28 276.257V281.078L259.901 279.561V274.74Z" fill="#BF9F85"/>
<path d="M250.447 272.004L246.753 273.974V280.576L250.447 278.555V272.004Z" fill="#BF9F85"/>
<path d="M37.581 247.184L32.5685 244.259L32.588 251.348L37.6006 254.273L37.581 247.184Z" fill="#EFAC41"/>
<path d="M76.0998 224.993L71.0873 222.066L32.5685 244.26L37.581 247.185L76.0998 224.993Z" fill="#FED57A"/>
<path d="M37.5815 247.185L37.6011 254.274L76.1199 232.082L76.1003 224.993L37.5815 247.185Z" fill="#F9BB4A"/>
<path d="M48.6991 242.252L48.7105 246.605L48.6453 246.645L44.8949 244.456L48.6991 242.252Z" fill="#EFAC41"/>
<path d="M42.1518 245.907L44.8962 244.456L48.6434 246.644L42.1649 250.26L42.1518 245.907Z" fill="#FED57A"/>
<path d="M45.6528 244.898L42.1518 246.596V245.905L44.8962 244.456L45.6528 244.898Z" fill="#FAF7EA"/>
<path d="M71.2166 229.192L71.228 233.547L71.1627 233.585L67.4123 231.399L71.2166 229.192Z" fill="#EFAC41"/>
<path d="M53.5271 239.451L67.4136 231.4L71.1607 233.586L53.5401 243.806L53.5271 239.451Z" fill="#FED57A"/>
<path d="M68.1702 231.84L53.5271 240.141V239.451L67.4136 231.4L68.1702 231.84Z" fill="#FAF7EA"/>
<path d="M21.8962 238.029L16.8836 235.104L16.9032 242.192L21.9158 245.118L21.8962 238.029Z" fill="#EFAC41"/>
<path d="M60.415 215.837L55.4025 212.91L16.8836 235.104L21.8962 238.029L60.415 215.837Z" fill="#FED57A"/>
<path d="M21.8964 238.03L21.916 245.118L60.4348 222.926L60.4153 215.837L21.8964 238.03Z" fill="#F9BB4A"/>
<path d="M33.0138 233.096L33.0252 237.449L32.96 237.489L29.2095 235.301L33.0138 233.096Z" fill="#EFAC41"/>
<path d="M26.4669 236.751L29.2112 235.3L32.9584 237.488L26.4799 241.104L26.4669 236.751Z" fill="#FED57A"/>
<path d="M29.9679 235.742L26.4669 237.44V236.749L29.2112 235.3L29.9679 235.742Z" fill="white"/>
<path d="M55.5315 220.037L55.5429 224.392L55.4777 224.429L51.7272 222.243L55.5315 220.037Z" fill="#EFAC41"/>
<path d="M37.842 230.296L51.7285 222.244L55.4757 224.431L37.8551 234.651L37.842 230.296Z" fill="#FED57A"/>
<path d="M52.4851 222.685L37.842 230.985V230.297L51.7285 222.244L52.4851 222.685Z" fill="white"/>
<path d="M6.21103 228.874L1.19846 225.949L1.21803 233.037L6.23059 235.962L6.21103 228.874Z" fill="#EFAC41"/>
<path d="M44.7298 206.682L39.7173 203.755L1.19846 225.949L6.21103 228.876L44.7298 206.682Z" fill="#FED57A"/>
<path d="M6.21138 228.875L6.23094 235.963L44.7514 213.771L44.7302 206.683L6.21138 228.875Z" fill="#F9BB4A"/>
<path d="M17.3287 223.941L17.3402 228.295L17.2749 228.334L13.5245 226.146L17.3287 223.941Z" fill="#EFAC41"/>
<path d="M10.7818 227.596L13.5262 226.145L17.2734 228.333L10.7949 231.949L10.7818 227.596Z" fill="#FED57A"/>
<path d="M14.2828 226.587L10.7818 228.285V227.594L13.5262 226.145L14.2828 226.587Z" fill="white"/>
<path d="M39.8464 210.881L39.8578 215.236L39.7926 215.274L36.0422 213.087L39.8464 210.881Z" fill="#EFAC41"/>
<path d="M22.159 221.14L36.0438 213.089L39.791 215.275L22.1704 225.495L22.159 221.14Z" fill="#FED57A"/>
<path d="M36.8003 213.529L22.1572 221.83V221.142L36.0437 213.089L36.8003 213.529Z" fill="white"/>
<path d="M34.3429 205.344L34.3478 206.914L70.6767 228.132L70.6718 226.562L34.3429 205.344Z" fill="#474B59"/>
<path d="M70.6718 226.563L70.6767 228.135L75.7561 225.187L75.7512 223.618L70.6718 226.563Z" fill="#525566"/>
<path d="M34.3429 205.344L70.6735 226.562L75.7512 223.617L39.4224 202.398L34.3429 205.344Z" fill="#5B5E71"/>
<path d="M23.3266 211.707L23.3314 213.279L59.6603 234.497L59.6554 232.925L23.3266 211.707Z" fill="#474B59"/>
<path d="M59.6554 232.924L59.6603 234.497L64.7398 231.55L64.7349 229.978L59.6554 232.924Z" fill="#525566"/>
<path d="M23.3266 211.707L59.6571 232.925L64.7349 229.98L28.406 208.762L23.3266 211.707Z" fill="#5B5E71"/>
<path d="M12.3095 218.068L12.3144 219.641L48.6433 240.858L48.6384 239.286L12.3095 218.068Z" fill="#474B59"/>
<path d="M48.6406 239.286L48.6438 240.856L53.7233 237.91L53.7184 236.339L48.6406 239.286Z" fill="#525566"/>
<path d="M12.3095 218.067L48.6401 239.287L53.7178 236.34L17.389 215.123L12.3095 218.067Z" fill="#5B5E71"/>
<path d="M1.29317 224.43L1.29807 226L37.6269 247.218L37.622 245.646L1.29317 224.43Z" fill="#474B59"/>
<path d="M37.6218 245.649L37.6267 247.221L42.7061 244.273L42.7012 242.704L37.6218 245.649Z" fill="#525566"/>
<path d="M1.29317 224.43L37.6237 245.648L42.7015 242.703L6.3726 221.484L1.29317 224.43Z" fill="#5B5E71"/>
<path d="M39.8919 187.876L25.9634 195.449C25.659 195.638 25.5709 195.92 25.5736 196.328L25.6003 196.838L40.3058 204.791L54.9767 196.964C54.9767 196.964 54.9927 196.886 54.9927 196.61C54.9927 196.61 54.9794 196.246 54.9019 196.077C54.8165 195.886 54.6349 195.714 54.5174 195.61C54.205 195.337 53.8925 195.094 53.3611 194.779C45.7426 190.236 40.7331 187.896 40.7331 187.896C40.41 187.769 40.1429 187.724 39.8919 187.876Z" fill="#DEA66C"/>
<path d="M25.793 213.596C26.6048 214.163 28.0868 214.906 29.5849 215.762C33.067 217.75 37.4677 220.167 39.6574 221.116C39.9538 221.245 40.13 221.307 40.3357 221.319C40.4879 221.327 40.7389 221.22 40.7389 221.22C40.7389 221.22 40.3303 205.677 40.3063 204.79C40.2823 203.923 39.9378 203.635 39.6334 203.427C39.158 203.106 38.1273 202.604 38.1273 202.604C38.1273 202.604 34.517 200.712 30.912 198.718C29.1977 197.769 27.7503 196.797 26.1935 195.998C25.9078 195.854 25.5714 196.034 25.5714 196.372V213.213C25.5714 213.374 25.6648 213.509 25.793 213.596Z" fill="#B38251"/>
<path d="M54.59 213.694L40.7683 221.211C40.5467 221.332 40.2823 221.163 40.2823 220.898L40.3064 204.795C40.3064 204.64 40.261 204.299 40.2156 204.164C40.0901 203.77 40.3625 203.612 40.4853 203.547L54.1948 196.101C54.558 195.904 54.9933 196.183 54.9933 196.614V213.002C54.9933 213.292 54.8384 213.559 54.59 213.694Z" fill="#966239"/>
<path opacity="0.5" d="M48.4158 199.919C48.4158 199.919 40.84 204.005 40.7172 204.352C40.5943 204.695 46.6613 201.62 47.3716 201.234C48.1754 200.797 54.4881 197.238 54.4881 196.846C54.4908 196.525 48.4158 199.919 48.4158 199.919Z" fill="#212121"/>
<g opacity="0.5">
<path d="M26.6121 212.664C27.5975 213.188 28.5748 213.729 29.7925 214.385V213.884C28.5802 213.23 27.6002 212.693 26.6121 212.163V212.664Z" fill="#212121"/>
<path d="M28.6874 212.892C28.9655 213.041 29.1046 213.118 29.3666 213.258C29.3693 212.385 29.3693 211.949 29.3719 211.076C29.1099 210.935 28.9735 210.862 28.6981 210.712C28.6928 211.585 28.6901 212.019 28.6874 212.892Z" fill="#212121"/>
<path d="M26.9621 211.957C27.192 212.081 27.3204 212.151 27.5824 212.292L27.5958 210.118C27.3311 209.974 27.2027 209.907 26.9701 209.777C26.9674 210.65 26.9647 211.087 26.9621 211.957Z" fill="#212121"/>
<path d="M28.2521 210.731C28.885 211.072 29.2215 211.255 29.7796 211.554C29.5018 211.021 29.3496 210.751 29.0452 210.205C28.7328 210.419 28.5699 210.523 28.2521 210.731Z" fill="#212121"/>
<path d="M26.6125 209.844C27.0852 210.103 27.403 210.275 28.0278 210.613C27.7181 210.064 27.5632 209.79 27.2775 209.252C26.9864 209.475 26.8502 209.59 26.6125 209.844Z" fill="#212121"/>
</g>
<g opacity="0.5">
<path d="M31.6859 215.073C31.9078 215.194 32.0228 215.259 32.2447 215.38C32.2287 214.344 32.2206 213.825 32.2019 212.789C31.988 212.671 31.8811 212.612 31.6671 212.496C31.6752 213.527 31.6778 214.042 31.6859 215.073Z" fill="#212121"/>
<path d="M30.8716 214.888C31.6834 215.339 32.3136 215.677 33.0933 216.116C33.088 215.82 32.8717 215.463 32.5779 215.296C32.1186 215.04 31.8569 214.899 31.3923 214.643C31.0932 214.483 30.8716 214.598 30.8716 214.888Z" fill="#212121"/>
<path d="M32.4177 211.962L32.7596 212.725C32.6527 212.965 32.5967 213.086 32.4845 213.322C32.5806 213.314 32.6287 213.311 32.7248 213.303C32.853 213.123 32.9171 213.032 33.0399 212.852C32.9278 212.573 32.869 212.433 32.7515 212.154C33.0773 212.342 33.2375 212.438 33.534 212.621C33.534 213.629 32.9091 214.074 31.9691 213.556C31.0292 213.041 30.407 211.889 30.407 210.878C31.1066 211.247 31.5766 211.489 32.4177 211.962Z" fill="#212121"/>
</g>
<path d="M50.0925 198.199C49.959 198.094 35.6219 190.195 35.6219 190.195L31.1731 192.62L45.8733 200.615L45.8814 200.624L50.1833 198.3C50.1833 198.3 50.1753 198.278 50.1512 198.249C50.1325 198.232 50.1005 198.207 50.0925 198.199Z" fill="#FFE0B2"/>
<path d="M50.1625 198.266C47.7271 199.531 45.8739 200.615 45.8739 200.615C45.9354 200.68 45.938 200.764 45.938 200.806C45.93 201.133 45.9247 201.392 45.9167 201.716C45.8793 203.392 45.8579 205.07 45.8045 206.746C47.0437 206.23 48.8546 205.19 50.2987 204.572C50.2987 204.572 50.248 199.46 50.2293 198.601C50.2239 198.297 50.1625 198.266 50.1625 198.266Z" fill="#BF9F85"/>
<path d="M54.4361 207.11L51.8157 208.627V213.448L54.4361 211.931V207.11Z" fill="#BF9F85"/>
<path d="M44.9829 204.374L41.2882 206.343V212.945L44.9829 210.924V204.374Z" fill="#BF9F85"/>
<path d="M20.4144 199.057L6.48586 206.63C6.18144 206.819 6.09332 207.1 6.09599 207.509L6.12269 208.018L20.8283 215.972L35.4991 208.145C35.4991 208.145 35.5151 208.066 35.5151 207.79C35.5151 207.79 35.5018 207.427 35.4243 207.258C35.3389 207.067 35.1573 206.895 35.0398 206.791C34.7274 206.517 34.415 206.275 33.8836 205.96C26.2651 201.417 21.2555 199.077 21.2555 199.077C20.9324 198.95 20.6654 198.905 20.4144 199.057Z" fill="#DEA66C"/>
<path d="M6.31542 224.775C7.1272 225.341 8.60924 226.085 10.1073 226.941C13.5894 228.929 17.9901 231.346 20.1798 232.295C20.4762 232.424 20.6525 232.486 20.8581 232.497C21.0103 232.506 21.2613 232.399 21.2613 232.399C21.2613 232.399 20.8528 216.856 20.8287 215.969C20.8047 215.101 20.4602 214.814 20.1558 214.606C19.6805 214.285 18.6497 213.783 18.6497 213.783C18.6497 213.783 15.0394 211.891 11.4345 209.897C9.7201 208.948 8.27278 207.976 6.71597 207.176C6.43024 207.033 6.09378 207.213 6.09378 207.551V224.392C6.09378 224.553 6.18724 224.688 6.31542 224.775Z" fill="#B38251"/>
<path d="M35.1125 224.873L21.2908 232.39C21.0691 232.511 20.8048 232.342 20.8048 232.077L20.8288 215.974C20.8288 215.819 20.7834 215.478 20.738 215.343C20.6125 214.949 20.8849 214.791 21.0077 214.726L34.7172 207.28C35.0804 207.083 35.5157 207.361 35.5157 207.792V224.18C35.5157 224.47 35.3608 224.738 35.1125 224.873Z" fill="#966239"/>
<path opacity="0.5" d="M28.9382 211.097C28.9382 211.097 21.3624 215.183 21.2396 215.53C21.1167 215.873 27.1838 212.798 27.8941 212.412C28.6978 211.976 35.0105 208.416 35.0105 208.024C35.0132 207.703 28.9382 211.097 28.9382 211.097Z" fill="#212121"/>
<g opacity="0.5">
<path d="M7.13458 223.843C8.11994 224.367 9.09728 224.908 10.315 225.564V225.063C9.10262 224.409 8.12261 223.871 7.13458 223.342V223.843Z" fill="#212121"/>
<path d="M9.20999 224.07C9.48808 224.22 9.62713 224.296 9.88918 224.437C9.89185 223.563 9.89185 223.127 9.89452 222.254C9.63248 222.113 9.4961 222.04 9.22069 221.891C9.21534 222.764 9.21267 223.197 9.20999 224.07Z" fill="#212121"/>
<path d="M7.48502 223.135C7.71498 223.259 7.84333 223.329 8.10537 223.47L8.11874 221.296C7.85402 221.152 7.72567 221.085 7.49304 220.955C7.49036 221.828 7.48769 222.265 7.48502 223.135Z" fill="#212121"/>
<path d="M8.77432 221.909C9.40719 222.25 9.74366 222.433 10.3018 222.731C10.024 222.199 9.87183 221.929 9.56741 221.382C9.25498 221.596 9.09209 221.701 8.77432 221.909Z" fill="#212121"/>
<path d="M7.13481 221.023C7.60746 221.282 7.92523 221.453 8.55009 221.791C8.24033 221.242 8.08545 220.969 7.79973 220.431C7.50866 220.654 7.37247 220.769 7.13481 221.023Z" fill="#212121"/>
</g>
<g opacity="0.5">
<path d="M12.2088 226.252C12.4307 226.373 12.5457 226.438 12.7677 226.559C12.7516 225.522 12.7436 225.004 12.7249 223.968C12.511 223.849 12.404 223.79 12.1901 223.675C12.1981 224.706 12.2008 225.221 12.2088 226.252Z" fill="#212121"/>
<path d="M11.394 226.067C12.2058 226.517 12.836 226.855 13.6158 227.295C13.6104 226.999 13.3941 226.641 13.1004 226.475C12.6411 226.219 12.3794 226.078 11.9147 225.822C11.6157 225.661 11.394 225.777 11.394 226.067Z" fill="#212121"/>
<path d="M12.9402 223.141L13.282 223.904C13.1752 224.144 13.1191 224.265 13.0069 224.501C13.1031 224.493 13.1511 224.49 13.2473 224.481C13.3754 224.301 13.4395 224.211 13.5624 224.031C13.4502 223.752 13.3915 223.611 13.274 223.332C13.5997 223.521 13.76 223.617 14.0564 223.8C14.0564 224.808 13.4315 225.253 12.4915 224.735C11.5516 224.22 10.9294 223.068 10.9294 222.057C11.629 222.426 12.099 222.668 12.9402 223.141Z" fill="#212121"/>
</g>
<path d="M30.6154 209.378C30.4819 209.274 16.1448 201.374 16.1448 201.374L11.696 203.799L26.3963 211.794L26.4043 211.803L30.7062 209.479C30.7062 209.479 30.6982 209.457 30.6742 209.429C30.6555 209.412 30.6234 209.386 30.6154 209.378Z" fill="#FFE0B2"/>
<path d="M30.6849 209.445C28.2496 210.71 26.3964 211.794 26.3964 211.794C26.4578 211.859 26.4605 211.943 26.4605 211.986C26.4524 212.312 26.4471 212.571 26.4391 212.895C26.4017 214.571 26.3803 216.249 26.3269 217.925C27.5661 217.409 29.3771 216.369 30.8211 215.751C30.8211 215.751 30.7704 210.639 30.7517 209.78C30.7463 209.476 30.6849 209.445 30.6849 209.445Z" fill="#BF9F85"/>
<path d="M34.9585 218.288L32.3381 219.804V224.625L34.9585 223.109V218.288Z" fill="#BF9F85"/>
<path d="M25.5058 215.552L21.8112 217.521V224.124L25.5058 222.102V215.552Z" fill="#BF9F85"/>
<path d="M57.5142 198.592L43.5857 206.165C43.2813 206.353 43.1932 206.635 43.1959 207.043L43.2226 207.553L57.9281 215.506L72.599 207.68C72.599 207.68 72.615 207.601 72.615 207.325C72.615 207.325 72.6017 206.962 72.5242 206.793C72.4388 206.601 72.2572 206.429 72.1397 206.325C71.8273 206.052 71.5148 205.81 70.9834 205.494C63.365 200.952 58.3554 198.611 58.3554 198.611C58.0323 198.485 57.7652 198.44 57.5142 198.592Z" fill="#DEA66C"/>
<path d="M43.4155 224.309C44.2272 224.875 45.7093 225.618 47.2073 226.475C50.6895 228.463 55.0902 230.879 57.2799 231.828C57.5763 231.958 57.7525 232.02 57.9581 232.031C58.1103 232.04 58.3614 231.932 58.3614 231.932C58.3614 231.932 57.9528 216.389 57.9288 215.502C57.9047 214.635 57.5603 214.348 57.2558 214.139C56.7805 213.818 55.7498 213.317 55.7498 213.317C55.7498 213.317 52.1395 211.424 48.5345 209.43C46.8201 208.481 45.3728 207.51 43.816 206.71C43.5303 206.566 43.1938 206.747 43.1938 207.084V223.926C43.1938 224.086 43.2873 224.222 43.4155 224.309Z" fill="#B38251"/>
<path d="M72.2126 224.407L58.3909 231.923C58.1693 232.045 57.9049 231.876 57.9049 231.611L57.929 215.507C57.929 215.352 57.8836 215.012 57.8382 214.876C57.7127 214.482 57.985 214.325 58.1079 214.26L71.8174 206.813C72.1806 206.616 72.6158 206.895 72.6158 207.326V223.714C72.6158 224.004 72.461 224.272 72.2126 224.407Z" fill="#966239"/>
<path opacity="0.5" d="M66.0383 210.631C66.0383 210.631 58.4626 214.718 58.3397 215.064C58.2169 215.407 64.2839 212.332 64.9942 211.946C65.798 211.51 72.1107 207.95 72.1107 207.559C72.1134 207.237 66.0383 210.631 66.0383 210.631Z" fill="#212121"/>
<g opacity="0.5">
<path d="M44.2347 223.377C45.2201 223.901 46.1974 224.441 47.4151 225.098V224.596C46.2028 223.943 45.2228 223.405 44.2347 222.875V223.377Z" fill="#212121"/>
<path d="M46.3096 223.606C46.5877 223.755 46.7268 223.831 46.9888 223.972C46.9915 223.099 46.9915 222.662 46.9942 221.789C46.7321 221.648 46.5958 221.575 46.3203 221.426C46.315 222.299 46.3123 222.733 46.3096 223.606Z" fill="#212121"/>
<path d="M44.585 222.67C44.815 222.793 44.9433 222.864 45.2054 223.005L45.2188 220.831C44.954 220.687 44.8257 220.619 44.5931 220.49C44.5904 221.363 44.5877 221.799 44.585 222.67Z" fill="#212121"/>
<path d="M45.8744 221.446C46.5072 221.786 46.8437 221.969 47.4018 222.268C47.1241 221.736 46.9719 221.465 46.6675 220.919C46.355 221.133 46.1921 221.237 45.8744 221.446Z" fill="#212121"/>
<path d="M44.235 220.559C44.7076 220.818 45.0254 220.99 45.6503 221.328C45.3405 220.779 45.1856 220.506 44.8999 219.968C44.6088 220.19 44.4726 220.306 44.235 220.559Z" fill="#212121"/>
</g>
<g opacity="0.5">
<path d="M49.3087 225.786C49.5307 225.907 49.6456 225.972 49.8676 226.093C49.8515 225.056 49.8435 224.538 49.8248 223.502C49.6109 223.384 49.5039 223.324 49.29 223.209C49.298 224.24 49.3007 224.755 49.3087 225.786Z" fill="#212121"/>
<path d="M48.4943 225.603C49.3061 226.054 49.9363 226.391 50.716 226.831C50.7107 226.535 50.4944 226.177 50.2007 226.011C49.7414 225.755 49.4797 225.614 49.015 225.358C48.7159 225.197 48.4943 225.313 48.4943 225.603Z" fill="#212121"/>
<path d="M50.0403 222.677L50.3821 223.44C50.2753 223.679 50.2193 223.8 50.1071 224.037C50.2032 224.028 50.2513 224.026 50.3474 224.017C50.4756 223.837 50.5397 223.747 50.6625 223.566C50.5504 223.288 50.4916 223.147 50.3741 222.868C50.6999 223.057 50.8601 223.153 51.1565 223.336C51.1565 224.344 50.5317 224.789 49.5917 224.271C48.6518 223.755 48.0296 222.603 48.0296 221.592C48.7292 221.961 49.1992 222.203 50.0403 222.677Z" fill="#212121"/>
</g>
<path d="M67.7155 208.913C67.5819 208.809 53.2449 200.909 53.2449 200.909L48.7961 203.334L63.4963 211.329L63.5043 211.338L67.8062 209.014C67.8062 209.014 67.7982 208.992 67.7742 208.964C67.7555 208.947 67.7235 208.921 67.7155 208.913Z" fill="#FFE0B2"/>
<path d="M67.7851 208.981C65.3497 210.246 63.4965 211.33 63.4965 211.33C63.5579 211.395 63.5606 211.479 63.5606 211.522C63.5526 211.848 63.5473 212.108 63.5393 212.431C63.5019 214.107 63.4805 215.786 63.4271 217.461C64.6663 216.945 66.4772 215.906 67.9213 215.287C67.9213 215.287 67.8705 210.176 67.8519 209.317C67.8465 209.012 67.7851 208.981 67.7851 208.981Z" fill="#BF9F85"/>
<path d="M72.0588 217.822L69.4384 219.339V224.16L72.0588 222.643V217.822Z" fill="#BF9F85"/>
<path d="M62.606 215.085L58.9113 217.055V223.657L62.606 221.636V215.085Z" fill="#BF9F85"/>
<path d="M38.0366 209.77L24.1081 217.343C23.8037 217.532 23.7156 217.813 23.7182 218.222L23.7449 218.731L38.4505 226.684L53.1214 218.858C53.1214 218.858 53.1374 218.779 53.1374 218.503C53.1374 218.503 53.124 218.14 53.0466 217.971C52.9611 217.779 52.7796 217.608 52.6621 217.503C52.3496 217.23 52.0372 216.988 51.5058 216.673C43.8873 212.13 38.8778 209.79 38.8778 209.79C38.5547 209.663 38.2876 209.618 38.0366 209.77Z" fill="#DEA66C"/>
<path d="M23.9379 235.487C24.7497 236.053 26.2317 236.797 27.7298 237.653C31.2119 239.641 35.6126 242.057 37.8023 243.007C38.0987 243.136 38.2749 243.198 38.4805 243.209C38.6328 243.218 38.8838 243.111 38.8838 243.111C38.8838 243.111 38.4752 227.568 38.4512 226.681C38.4271 225.813 38.0827 225.526 37.7782 225.317C37.3029 224.996 36.2722 224.495 36.2722 224.495C36.2722 224.495 32.6619 222.603 29.0569 220.609C27.3426 219.66 25.8952 218.688 24.3384 217.888C24.0527 217.745 23.7162 217.925 23.7162 218.263V235.104C23.7162 235.265 23.8097 235.4 23.9379 235.487Z" fill="#B38251"/>
<path d="M52.735 235.588L38.9134 243.105C38.6917 243.226 38.4274 243.057 38.4274 242.792L38.4514 226.688C38.4514 226.534 38.406 226.193 38.3606 226.058C38.2351 225.663 38.5075 225.506 38.6303 225.441L52.3398 217.995C52.703 217.798 53.1383 218.076 53.1383 218.507V234.895C53.1383 235.185 52.9834 235.453 52.735 235.588Z" fill="#966239"/>
<path opacity="0.5" d="M46.5608 221.809C46.5608 221.809 38.985 225.896 38.8622 226.242C38.7393 226.586 44.8063 223.51 45.5167 223.125C46.3204 222.688 52.6331 219.128 52.6331 218.737C52.6358 218.416 46.5608 221.809 46.5608 221.809Z" fill="#212121"/>
<g opacity="0.5">
<path d="M24.7572 234.555C25.7426 235.079 26.7199 235.62 27.9376 236.276V235.775C26.7252 235.122 25.7452 234.584 24.7572 234.054V234.555Z" fill="#212121"/>
<path d="M26.8322 234.784C27.1103 234.933 27.2494 235.009 27.5114 235.15C27.5141 234.277 27.5141 233.84 27.5168 232.967C27.2547 232.826 27.1183 232.753 26.8429 232.604C26.8376 233.477 26.8349 233.911 26.8322 234.784Z" fill="#212121"/>
<path d="M25.1075 233.85C25.3375 233.974 25.4658 234.045 25.7278 234.185L25.7412 232.011C25.4765 231.868 25.3481 231.8 25.1155 231.67C25.1128 232.543 25.1102 232.98 25.1075 233.85Z" fill="#212121"/>
<path d="M26.3968 232.624C27.0297 232.965 27.3661 233.148 27.9242 233.447C27.6465 232.914 27.4943 232.644 27.1899 232.098C26.8775 232.312 26.7146 232.416 26.3968 232.624Z" fill="#212121"/>
<path d="M24.7573 231.737C25.2299 231.997 25.5477 232.168 26.1725 232.506C25.8628 231.957 25.7079 231.684 25.4222 231.146C25.1311 231.368 24.9949 231.484 24.7573 231.737Z" fill="#212121"/>
</g>
<g opacity="0.5">
<path d="M29.8316 236.964C30.0535 237.085 30.1685 237.15 30.3904 237.271C30.3744 236.235 30.3664 235.716 30.3476 234.68C30.1337 234.562 30.0268 234.503 29.8129 234.387C29.8209 235.418 29.8235 235.933 29.8316 236.964Z" fill="#212121"/>
<path d="M29.017 236.781C29.8288 237.232 30.459 237.57 31.2388 238.009C31.2334 237.713 31.0171 237.356 30.7234 237.189C30.2641 236.933 30.0024 236.792 29.5378 236.536C29.2387 236.376 29.017 236.491 29.017 236.781Z" fill="#212121"/>
<path d="M30.5633 233.855L30.9051 234.618C30.7982 234.858 30.7422 234.979 30.63 235.216C30.7261 235.207 30.7742 235.204 30.8703 235.196C30.9985 235.016 31.0626 234.925 31.1854 234.745C31.0733 234.466 31.0145 234.326 30.897 234.047C31.2228 234.235 31.3831 234.331 31.6795 234.514C31.6795 235.522 31.0546 235.967 30.1146 235.449C29.1747 234.934 28.5525 233.782 28.5525 232.771C29.2521 233.14 29.7221 233.382 30.5633 233.855Z" fill="#212121"/>
</g>
<path d="M48.238 220.092C48.1045 219.988 33.7674 212.088 33.7674 212.088L29.3186 214.513L44.0189 222.509L44.0269 222.517L48.3288 220.194C48.3288 220.194 48.3208 220.171 48.2967 220.143C48.2781 220.126 48.246 220.101 48.238 220.092Z" fill="#FFE0B2"/>
<path d="M48.3075 220.16C45.8722 221.424 44.0189 222.508 44.0189 222.508C44.0804 222.573 44.083 222.658 44.083 222.7C44.075 223.027 44.0697 223.286 44.0617 223.61C44.0243 225.285 44.0029 226.964 43.9495 228.639C45.1887 228.123 46.9996 227.084 48.4437 226.465C48.4437 226.465 48.393 221.354 48.3743 220.495C48.3689 220.191 48.3075 220.16 48.3075 220.16Z" fill="#BF9F85"/>
<path d="M52.5816 229L49.9612 230.517V235.338L52.5816 233.821V229Z" fill="#BF9F85"/>
<path d="M43.1284 226.267L39.4338 228.236V234.839L43.1284 232.817V226.267Z" fill="#BF9F85"/>
<path d="M140.642 282.091L135.629 279.166L135.649 286.254L140.661 289.179L140.642 282.091Z" fill="#EFAC41"/>
<path d="M179.161 259.898L174.148 256.971L135.629 279.165L140.642 282.09L179.161 259.898Z" fill="#FED57A"/>
<path d="M140.642 282.091L140.662 289.179L179.18 266.987L179.161 259.898L140.642 282.091Z" fill="#F9BB4A"/>
<path d="M151.76 277.157L151.771 281.511L151.706 281.55L147.955 279.362L151.76 277.157Z" fill="#EFAC41"/>
<path d="M145.212 280.812L147.957 279.361L151.704 281.549L145.225 285.165L145.212 280.812Z" fill="#FED57A"/>
<path d="M148.713 279.803L145.212 281.501V280.81L147.957 279.361L148.713 279.803Z" fill="#FAF7EA"/>
<path d="M174.277 264.098L174.288 268.453L174.223 268.491L170.472 266.304L174.277 264.098Z" fill="#EFAC41"/>
<path d="M156.588 274.357L170.474 266.305L174.221 268.492L156.601 278.712L156.588 274.357Z" fill="#FED57A"/>
<path d="M171.231 266.746L156.588 275.046V274.357L170.474 266.305L171.231 266.746Z" fill="#FAF7EA"/>
<path d="M124.957 272.935L119.944 270.01L119.964 277.098L124.976 280.023L124.957 272.935Z" fill="#EFAC41"/>
<path d="M163.476 250.743L158.463 247.816L119.944 270.01L124.957 272.935L163.476 250.743Z" fill="#FED57A"/>
<path d="M124.957 272.936L124.977 280.025L163.495 257.833L163.476 250.744L124.957 272.936Z" fill="#F9BB4A"/>
<path d="M136.074 268.001L136.086 272.355L136.021 272.394L132.27 270.206L136.074 268.001Z" fill="#EFAC41"/>
<path d="M129.527 271.657L132.272 270.206L136.019 272.394L129.541 276.01L129.527 271.657Z" fill="#FED57A"/>
<path d="M133.028 270.648L129.527 272.347V271.656L132.272 270.206L133.028 270.648Z" fill="white"/>
<path d="M158.592 254.942L158.603 259.297L158.538 259.335L154.787 257.149L158.592 254.942Z" fill="#EFAC41"/>
<path d="M140.903 265.201L154.789 257.149L158.536 259.336L140.916 269.556L140.903 265.201Z" fill="#FED57A"/>
<path d="M155.546 257.59L140.903 265.89V265.203L154.789 257.149L155.546 257.59Z" fill="white"/>
<path d="M109.272 263.78L104.259 260.855L104.279 267.943L109.291 270.869L109.272 263.78Z" fill="#EFAC41"/>
<path d="M147.79 241.588L142.778 238.661L104.259 260.855L109.272 263.782L147.79 241.588Z" fill="#FED57A"/>
<path d="M109.272 263.781L109.291 270.87L147.812 248.677L147.79 241.589L109.272 263.781Z" fill="#F9BB4A"/>
<path d="M120.389 258.847L120.4 263.2L120.335 263.239L116.585 261.051L120.389 258.847Z" fill="#EFAC41"/>
<path d="M113.842 262.501L116.587 261.05L120.334 263.238L113.855 266.855L113.842 262.501Z" fill="#FED57A"/>
<path d="M117.343 261.492L113.842 263.191V262.5L116.587 261.05L117.343 261.492Z" fill="white"/>
<path d="M142.907 245.788L142.918 250.143L142.853 250.18L139.102 247.994L142.907 245.788Z" fill="#EFAC41"/>
<path d="M125.219 256.046L139.104 247.995L142.851 250.181L125.231 260.401L125.219 256.046Z" fill="#FED57A"/>
<path d="M139.861 248.435L125.218 256.736V256.048L139.104 247.995L139.861 248.435Z" fill="white"/>
<path d="M137.403 240.25L137.408 241.821L173.737 263.038L173.732 261.468L137.403 240.25Z" fill="#474B59"/>
<path d="M173.732 261.469L173.737 263.041L178.816 260.093L178.811 258.524L173.732 261.469Z" fill="#525566"/>
<path d="M137.403 240.251L173.734 261.468L178.811 258.524L142.483 237.304L137.403 240.251Z" fill="#5B5E71"/>
<path d="M126.387 246.612L126.392 248.185L162.72 269.402L162.715 267.83L126.387 246.612Z" fill="#474B59"/>
<path d="M162.716 267.83L162.721 269.402L167.8 266.456L167.795 264.883L162.716 267.83Z" fill="#525566"/>
<path d="M126.387 246.612L162.717 267.83L167.795 264.885L131.466 243.667L126.387 246.612Z" fill="#5B5E71"/>
<path d="M115.37 252.974L115.375 254.546L151.704 275.764L151.699 274.192L115.37 252.974Z" fill="#474B59"/>
<path d="M151.701 274.192L151.704 275.763L156.783 272.816L156.779 271.246L151.701 274.192Z" fill="#525566"/>
<path d="M115.37 252.974L151.701 274.194L156.779 271.247L120.45 250.029L115.37 252.974Z" fill="#5B5E71"/>
<path d="M104.353 259.335L104.358 260.906L140.687 282.123L140.682 280.551L104.353 259.335Z" fill="#474B59"/>
<path d="M140.682 280.554L140.687 282.126L145.767 279.178L145.762 277.609L140.682 280.554Z" fill="#525566"/>
<path d="M104.353 259.336L140.684 280.553L145.762 277.609L109.433 256.389L104.353 259.336Z" fill="#5B5E71"/>
<path d="M142.952 222.783L129.024 230.356C128.719 230.544 128.631 230.826 128.634 231.234L128.661 231.744L143.366 239.697L158.037 231.871C158.037 231.871 158.053 231.792 158.053 231.516C158.053 231.516 158.04 231.153 157.962 230.984C157.877 230.792 157.695 230.62 157.578 230.516C157.265 230.243 156.953 230.001 156.421 229.685C148.803 225.143 143.793 222.802 143.793 222.802C143.47 222.676 143.203 222.631 142.952 222.783Z" fill="#DEA66C"/>
<path d="M128.853 248.502C129.665 249.068 131.147 249.812 132.645 250.668C136.127 252.656 140.528 255.073 142.718 256.022C143.014 256.151 143.19 256.213 143.396 256.224C143.548 256.233 143.799 256.126 143.799 256.126C143.799 256.126 143.391 240.583 143.367 239.696C143.343 238.828 142.998 238.541 142.694 238.333C142.218 238.012 141.188 237.51 141.188 237.51C141.188 237.51 137.577 235.618 133.972 233.624C132.258 232.675 130.811 231.703 129.254 230.903C128.968 230.76 128.632 230.94 128.632 231.278V248.119C128.632 248.28 128.725 248.415 128.853 248.502Z" fill="#B38251"/>
<path d="M157.65 248.6L143.829 256.117C143.607 256.238 143.343 256.069 143.343 255.804L143.367 239.701C143.367 239.546 143.321 239.205 143.276 239.07C143.15 238.676 143.423 238.518 143.546 238.453L157.255 231.007C157.618 230.81 158.054 231.089 158.054 231.519V247.907C158.054 248.197 157.899 248.465 157.65 248.6Z" fill="#966239"/>
<path opacity="0.5" d="M151.476 234.824C151.476 234.824 143.9 238.911 143.777 239.257C143.655 239.601 149.722 236.525 150.432 236.14C151.236 235.703 157.548 232.143 157.548 231.752C157.551 231.431 151.476 234.824 151.476 234.824Z" fill="#212121"/>
<g opacity="0.5">
<path d="M129.672 247.572C130.658 248.095 131.635 248.636 132.853 249.292V248.791C131.641 248.138 130.661 247.6 129.672 247.07V247.572Z" fill="#212121"/>
<path d="M131.748 247.799C132.026 247.948 132.165 248.024 132.427 248.165C132.43 247.292 132.43 246.855 132.432 245.982C132.17 245.842 132.034 245.768 131.759 245.619C131.753 246.492 131.751 246.926 131.748 247.799Z" fill="#212121"/>
<path d="M130.023 246.863C130.253 246.987 130.381 247.058 130.643 247.199L130.657 245.024C130.392 244.881 130.264 244.813 130.031 244.684C130.028 245.557 130.026 245.993 130.023 246.863Z" fill="#212121"/>
<path d="M131.312 245.638C131.945 245.979 132.282 246.162 132.84 246.46C132.562 245.928 132.41 245.658 132.106 245.111C131.793 245.325 131.63 245.43 131.312 245.638Z" fill="#212121"/>
<path d="M129.673 244.751C130.146 245.01 130.463 245.181 131.088 245.519C130.778 244.97 130.623 244.697 130.338 244.159C130.047 244.382 129.911 244.497 129.673 244.751Z" fill="#212121"/>
</g>
<g opacity="0.5">
<path d="M134.747 249.977C134.969 250.098 135.084 250.163 135.306 250.284C135.29 249.247 135.282 248.729 135.263 247.693C135.049 247.575 134.942 247.515 134.728 247.4C134.736 248.431 134.739 248.946 134.747 249.977Z" fill="#212121"/>
<path d="M133.932 249.794C134.744 250.245 135.374 250.583 136.154 251.022C136.148 250.727 135.932 250.369 135.638 250.203C135.179 249.946 134.917 249.806 134.453 249.549C134.154 249.389 133.932 249.504 133.932 249.794Z" fill="#212121"/>
<path d="M135.478 246.868L135.82 247.632C135.713 247.871 135.657 247.992 135.545 248.229C135.641 248.22 135.689 248.217 135.786 248.209C135.914 248.029 135.978 247.939 136.101 247.758C135.988 247.48 135.93 247.339 135.812 247.06C136.138 247.249 136.298 247.344 136.595 247.527C136.595 248.536 135.97 248.981 135.03 248.462C134.09 247.947 133.468 246.795 133.468 245.784C134.167 246.153 134.637 246.395 135.478 246.868Z" fill="#212121"/>
</g>
<path d="M153.153 233.105C153.02 233.001 138.683 225.102 138.683 225.102L134.234 227.526L148.934 235.522L148.942 235.53L153.244 233.207C153.244 233.207 153.236 233.184 153.212 233.156C153.193 233.139 153.161 233.114 153.153 233.105Z" fill="#FFE0B2"/>
<path d="M153.223 233.173C150.787 234.437 148.934 235.522 148.934 235.522C148.996 235.586 148.998 235.671 148.998 235.713C148.99 236.04 148.985 236.299 148.977 236.623C148.94 238.298 148.918 239.977 148.865 241.653C150.104 241.136 151.915 240.097 153.359 239.478C153.359 239.478 153.308 234.367 153.29 233.508C153.284 233.204 153.223 233.173 153.223 233.173Z" fill="#BF9F85"/>
<path d="M157.497 242.016L154.876 243.533V248.354L157.497 246.837V242.016Z" fill="#BF9F85"/>
<path d="M148.044 239.28L144.349 241.249V247.852L148.044 245.83V239.28Z" fill="#BF9F85"/>
<path d="M123.475 233.961L109.546 241.534C109.242 241.722 109.154 242.004 109.156 242.412L109.183 242.922L123.888 250.875L138.559 243.049C138.559 243.049 138.575 242.97 138.575 242.694C138.575 242.694 138.562 242.331 138.485 242.162C138.399 241.97 138.217 241.799 138.1 241.694C137.788 241.421 137.475 241.179 136.944 240.864C129.325 236.321 124.316 233.981 124.316 233.981C123.993 233.854 123.726 233.809 123.475 233.961Z" fill="#DEA66C"/>
<path d="M109.376 259.681C110.188 260.247 111.67 260.99 113.168 261.847C116.65 263.835 121.05 266.251 123.24 267.2C123.537 267.33 123.713 267.392 123.918 267.403C124.071 267.412 124.322 267.305 124.322 267.305C124.322 267.305 123.913 251.762 123.889 250.874C123.865 250.007 123.521 249.72 123.216 249.511C122.741 249.19 121.71 248.689 121.71 248.689C121.71 248.689 118.1 246.796 114.495 244.803C112.78 243.853 111.333 242.882 109.776 242.082C109.491 241.938 109.154 242.119 109.154 242.457V259.298C109.154 259.458 109.248 259.594 109.376 259.681Z" fill="#B38251"/>
<path d="M138.173 259.779L124.351 267.296C124.129 267.417 123.865 267.248 123.865 266.983L123.889 250.88C123.889 250.725 123.844 250.384 123.798 250.249C123.673 249.855 123.945 249.697 124.068 249.632L137.778 242.186C138.141 241.989 138.576 242.268 138.576 242.699V259.087C138.576 259.377 138.421 259.644 138.173 259.779Z" fill="#966239"/>
<path opacity="0.5" d="M131.999 246.003C131.999 246.003 124.423 250.09 124.3 250.436C124.178 250.78 130.245 247.704 130.955 247.318C131.759 246.882 138.071 243.322 138.071 242.931C138.074 242.61 131.999 246.003 131.999 246.003Z" fill="#212121"/>
<g opacity="0.5">
<path d="M110.195 258.749C111.181 259.273 112.158 259.813 113.376 260.47V259.968C112.163 259.315 111.183 258.777 110.195 258.248V258.749Z" fill="#212121"/>
<path d="M112.27 258.977C112.548 259.126 112.687 259.202 112.949 259.343C112.952 258.47 112.952 258.033 112.955 257.16C112.693 257.019 112.556 256.946 112.281 256.797C112.276 257.67 112.273 258.104 112.27 258.977Z" fill="#212121"/>
<path d="M110.545 258.041C110.775 258.165 110.904 258.235 111.166 258.376L111.179 256.202C110.914 256.058 110.786 255.991 110.553 255.861C110.551 256.734 110.548 257.171 110.545 258.041Z" fill="#212121"/>
<path d="M111.835 256.816C112.467 257.156 112.804 257.34 113.362 257.638C113.084 257.106 112.932 256.835 112.628 256.289C112.315 256.503 112.152 256.607 111.835 256.816Z" fill="#212121"/>
<path d="M110.196 255.928C110.668 256.187 110.986 256.359 111.611 256.697C111.301 256.148 111.146 255.875 110.86 255.337C110.569 255.559 110.433 255.675 110.196 255.928Z" fill="#212121"/>
</g>
<g opacity="0.5">
<path d="M115.269 261.157C115.491 261.278 115.606 261.343 115.828 261.464C115.812 260.428 115.804 259.909 115.785 258.873C115.571 258.755 115.465 258.696 115.251 258.58C115.259 259.611 115.261 260.126 115.269 261.157Z" fill="#212121"/>
<path d="M114.455 260.972C115.267 261.423 115.897 261.761 116.677 262.2C116.671 261.904 116.455 261.547 116.161 261.38C115.702 261.124 115.44 260.983 114.976 260.727C114.677 260.567 114.455 260.682 114.455 260.972Z" fill="#212121"/>
<path d="M116.001 258.046L116.343 258.809C116.236 259.049 116.18 259.17 116.068 259.406C116.164 259.398 116.212 259.395 116.308 259.387C116.436 259.206 116.5 259.116 116.623 258.936C116.511 258.657 116.452 258.516 116.335 258.238C116.661 258.426 116.821 258.522 117.117 258.705C117.117 259.713 116.492 260.158 115.552 259.64C114.612 259.125 113.99 257.973 113.99 256.962C114.69 257.331 115.16 257.573 116.001 258.046Z" fill="#212121"/>
</g>
<path d="M133.676 244.284C133.542 244.179 119.205 236.28 119.205 236.28L114.756 238.705L129.457 246.7L129.465 246.708L133.767 244.385C133.767 244.385 133.759 244.363 133.734 244.334C133.716 244.317 133.684 244.292 133.676 244.284Z" fill="#FFE0B2"/>
<path d="M133.745 244.351C131.31 245.616 129.457 246.7 129.457 246.7C129.518 246.765 129.521 246.849 129.521 246.891C129.513 247.218 129.507 247.477 129.499 247.801C129.462 249.477 129.441 251.155 129.387 252.831C130.626 252.315 132.437 251.275 133.881 250.657C133.881 250.657 133.831 245.545 133.812 244.686C133.807 244.382 133.745 244.351 133.745 244.351Z" fill="#BF9F85"/>
<path d="M138.019 253.194L135.399 254.711V259.532L138.019 258.015V253.194Z" fill="#BF9F85"/>
<path d="M128.566 250.458L124.871 252.427V259.03L128.566 257.008V250.458Z" fill="#BF9F85"/>
<path d="M160.575 233.497L146.646 241.07C146.342 241.259 146.253 241.541 146.256 241.949L146.283 242.459L160.988 250.412L175.659 242.586C175.659 242.586 175.675 242.507 175.675 242.231C175.675 242.231 175.662 241.867 175.584 241.698C175.499 241.507 175.317 241.335 175.2 241.231C174.888 240.958 174.575 240.716 174.044 240.4C166.425 235.857 161.416 233.517 161.416 233.517C161.093 233.39 160.826 233.345 160.575 233.497Z" fill="#DEA66C"/>
<path d="M146.476 259.215C147.288 259.781 148.77 260.525 150.268 261.381C153.75 263.369 158.15 265.785 160.34 266.735C160.637 266.864 160.813 266.926 161.018 266.937C161.171 266.946 161.422 266.839 161.422 266.839C161.422 266.839 161.013 251.296 160.989 250.409C160.965 249.541 160.621 249.254 160.316 249.046C159.841 248.724 158.81 248.223 158.81 248.223C158.81 248.223 155.2 246.331 151.595 244.337C149.88 243.388 148.433 242.416 146.876 241.616C146.591 241.473 146.254 241.653 146.254 241.991V258.832C146.254 258.993 146.348 259.128 146.476 259.215Z" fill="#B38251"/>
<path d="M175.273 259.314L161.451 266.83C161.23 266.951 160.965 266.782 160.965 266.518L160.989 250.414C160.989 250.259 160.944 249.918 160.898 249.783C160.773 249.389 161.045 249.231 161.168 249.166L174.878 241.72C175.241 241.523 175.676 241.802 175.676 242.233V258.621C175.676 258.911 175.521 259.178 175.273 259.314Z" fill="#966239"/>
<path opacity="0.5" d="M169.099 245.537C169.099 245.537 161.523 249.623 161.4 249.97C161.278 250.313 167.345 247.238 168.055 246.852C168.859 246.416 175.171 242.856 175.171 242.464C175.174 242.143 169.099 245.537 169.099 245.537Z" fill="#212121"/>
<g opacity="0.5">
<path d="M147.295 258.283C148.28 258.806 149.258 259.347 150.475 260.003V259.502C149.263 258.849 148.283 258.311 147.295 257.781V258.283Z" fill="#212121"/>
<path d="M149.37 258.511C149.648 258.66 149.787 258.736 150.049 258.877C150.052 258.004 150.052 257.567 150.055 256.694C149.793 256.554 149.656 256.48 149.381 256.331C149.375 257.204 149.373 257.638 149.37 258.511Z" fill="#212121"/>
<path d="M147.645 257.575C147.875 257.699 148.004 257.769 148.266 257.91L148.279 255.736C148.014 255.592 147.886 255.525 147.653 255.395C147.651 256.268 147.648 256.705 147.645 257.575Z" fill="#212121"/>
<path d="M148.935 256.349C149.568 256.69 149.904 256.873 150.462 257.171C150.184 256.639 150.032 256.369 149.728 255.822C149.415 256.036 149.252 256.141 148.935 256.349Z" fill="#212121"/>
<path d="M147.295 255.462C147.768 255.721 148.086 255.893 148.711 256.231C148.401 255.682 148.246 255.409 147.96 254.871C147.669 255.093 147.533 255.209 147.295 255.462Z" fill="#212121"/>
</g>
<g opacity="0.5">
<path d="M152.369 260.691C152.591 260.812 152.706 260.877 152.928 260.998C152.912 259.962 152.904 259.444 152.886 258.407C152.672 258.289 152.565 258.23 152.351 258.114C152.359 259.145 152.361 259.66 152.369 260.691Z" fill="#212121"/>
<path d="M151.555 260.506C152.367 260.956 152.997 261.294 153.777 261.734C153.771 261.438 153.555 261.08 153.261 260.914C152.802 260.658 152.54 260.517 152.076 260.261C151.777 260.1 151.555 260.216 151.555 260.506Z" fill="#212121"/>
<path d="M153.101 257.58L153.443 258.343C153.336 258.582 153.28 258.704 153.168 258.94C153.264 258.932 153.312 258.929 153.408 258.92C153.536 258.74 153.6 258.65 153.723 258.47C153.611 258.191 153.552 258.05 153.435 257.771C153.761 257.96 153.921 258.056 154.217 258.239C154.217 259.247 153.592 259.692 152.652 259.174C151.712 258.659 151.09 257.507 151.09 256.496C151.79 256.865 152.26 257.107 153.101 257.58Z" fill="#212121"/>
</g>
<path d="M170.776 243.817C170.642 243.713 156.305 235.813 156.305 235.813L151.857 238.238L166.557 246.234L166.565 246.242L170.867 243.919C170.867 243.919 170.859 243.896 170.835 243.868C170.816 243.851 170.784 243.826 170.776 243.817Z" fill="#FFE0B2"/>
<path d="M170.845 243.887C168.41 245.152 166.557 246.236 166.557 246.236C166.618 246.301 166.621 246.385 166.621 246.427C166.613 246.754 166.608 247.013 166.6 247.337C166.562 249.013 166.541 250.691 166.487 252.367C167.727 251.851 169.538 250.811 170.982 250.193C170.982 250.193 170.931 245.081 170.912 244.222C170.907 243.918 170.845 243.887 170.845 243.887Z" fill="#BF9F85"/>
<path d="M175.119 252.728L172.499 254.244V259.065L175.119 257.548V252.728Z" fill="#BF9F85"/>
<path d="M165.666 249.992L161.972 251.961V258.564L165.666 256.542V249.992Z" fill="#BF9F85"/>
<path d="M141.097 244.677L127.168 252.25C126.864 252.438 126.776 252.72 126.778 253.128L126.805 253.638L141.511 261.591L156.182 253.765C156.182 253.765 156.198 253.686 156.198 253.41C156.198 253.41 156.184 253.047 156.107 252.878C156.021 252.686 155.84 252.514 155.722 252.41C155.41 252.137 155.097 251.895 154.566 251.579C146.947 247.037 141.938 244.696 141.938 244.696C141.615 244.57 141.348 244.525 141.097 244.677Z" fill="#DEA66C"/>
<path d="M126.998 270.392C127.81 270.958 129.292 271.702 130.79 272.558C134.272 274.546 138.673 276.963 140.863 277.912C141.159 278.041 141.335 278.103 141.541 278.115C141.693 278.123 141.944 278.016 141.944 278.016C141.944 278.016 141.536 262.473 141.511 261.586C141.487 260.718 141.143 260.431 140.839 260.223C140.363 259.902 139.332 259.4 139.332 259.4C139.332 259.4 135.722 257.508 132.117 255.514C130.403 254.565 128.956 253.593 127.399 252.793C127.113 252.65 126.777 252.83 126.777 253.168V270.009C126.777 270.17 126.87 270.305 126.998 270.392Z" fill="#B38251"/>
<path d="M155.796 270.491L141.974 278.008C141.752 278.129 141.488 277.96 141.488 277.695L141.512 261.592C141.512 261.437 141.467 261.096 141.421 260.961C141.296 260.567 141.568 260.409 141.691 260.344L155.401 252.898C155.764 252.701 156.199 252.98 156.199 253.411V269.798C156.199 270.089 156.044 270.356 155.796 270.491Z" fill="#966239"/>
<path opacity="0.5" d="M149.622 256.715C149.622 256.715 142.046 260.801 141.923 261.148C141.8 261.491 147.867 258.416 148.577 258.03C149.381 257.594 155.694 254.034 155.694 253.643C155.697 253.321 149.622 256.715 149.622 256.715Z" fill="#212121"/>
<g opacity="0.5">
<path d="M127.818 269.461C128.803 269.985 129.781 270.526 130.998 271.182V270.681C129.786 270.027 128.806 269.489 127.818 268.96V269.461Z" fill="#212121"/>
<path d="M129.892 269.689C130.171 269.838 130.31 269.914 130.572 270.055C130.574 269.182 130.574 268.746 130.577 267.873C130.315 267.732 130.179 267.659 129.903 267.509C129.898 268.382 129.895 268.816 129.892 269.689Z" fill="#212121"/>
<path d="M128.168 268.754C128.398 268.878 128.526 268.948 128.788 269.089L128.801 266.915C128.537 266.771 128.408 266.704 128.176 266.574C128.173 267.447 128.17 267.884 128.168 268.754Z" fill="#212121"/>
<path d="M129.457 267.531C130.09 267.871 130.426 268.054 130.984 268.353C130.707 267.821 130.555 267.55 130.25 267.004C129.938 267.218 129.775 267.322 129.457 267.531Z" fill="#212121"/>
<path d="M127.818 266.642C128.291 266.901 128.609 267.073 129.233 267.411C128.924 266.862 128.769 266.589 128.483 266.051C128.192 266.273 128.056 266.389 127.818 266.642Z" fill="#212121"/>
</g>
<g opacity="0.5">
<path d="M132.892 271.869C133.114 271.99 133.229 272.055 133.451 272.176C133.435 271.14 133.427 270.622 133.408 269.585C133.194 269.467 133.087 269.408 132.873 269.292C132.881 270.323 132.884 270.839 132.892 271.869Z" fill="#212121"/>
<path d="M132.078 271.687C132.889 272.138 133.519 272.475 134.299 272.915C134.294 272.619 134.078 272.261 133.784 272.095C133.325 271.839 133.063 271.698 132.598 271.442C132.299 271.281 132.078 271.397 132.078 271.687Z" fill="#212121"/>
<path d="M133.624 268.761L133.965 269.524C133.859 269.763 133.802 269.884 133.69 270.121C133.786 270.112 133.835 270.11 133.931 270.101C134.059 269.921 134.123 269.831 134.246 269.65C134.134 269.372 134.075 269.231 133.957 268.952C134.283 269.141 134.443 269.236 134.74 269.42C134.74 270.428 134.115 270.873 133.175 270.355C132.235 269.839 131.613 268.687 131.613 267.676C132.312 268.045 132.782 268.287 133.624 268.761Z" fill="#212121"/>
</g>
<path d="M151.298 254.998C151.165 254.894 136.828 246.995 136.828 246.995L132.379 249.419L147.079 257.415L147.087 257.423L151.389 255.1C151.389 255.1 151.381 255.077 151.357 255.049C151.338 255.032 151.306 255.007 151.298 254.998Z" fill="#FFE0B2"/>
<path d="M151.368 255.065C148.933 256.33 147.08 257.414 147.08 257.414C147.141 257.479 147.144 257.563 147.144 257.606C147.136 257.932 147.13 258.191 147.122 258.515C147.085 260.191 147.064 261.87 147.01 263.545C148.249 263.029 150.06 261.99 151.504 261.371C151.504 261.371 151.454 256.26 151.435 255.401C151.43 255.096 151.368 255.065 151.368 255.065Z" fill="#BF9F85"/>
<path d="M155.642 263.907L153.021 265.424V270.245L155.642 268.728V263.907Z" fill="#BF9F85"/>
<path d="M146.189 261.17L142.494 263.139V269.742L146.189 267.72V261.17Z" fill="#BF9F85"/>
<path d="M249.694 215.891L244.681 212.966L244.701 220.054L249.713 222.979L249.694 215.891Z" fill="#EFAC41"/>
<path d="M288.213 193.696L283.2 190.77L244.681 212.963L249.694 215.889L288.213 193.696Z" fill="#FED57A"/>
<path d="M249.694 215.889L249.714 222.978L288.233 200.785L288.213 193.697L249.694 215.889Z" fill="#F9BB4A"/>
<path d="M260.812 210.955L260.823 215.308L260.758 215.348L257.008 213.16L260.812 210.955Z" fill="#EFAC41"/>
<path d="M254.264 214.613L257.009 213.162L260.756 215.35L254.277 218.966L254.264 214.613Z" fill="#FED57A"/>
<path d="M257.765 213.604L254.264 215.302V214.611L257.009 213.162L257.765 213.604Z" fill="#FAF7EA"/>
<path d="M283.329 197.898L283.341 202.253L283.275 202.291L279.525 200.105L283.329 197.898Z" fill="#EFAC41"/>
<path d="M265.64 208.157L279.526 200.105L283.274 202.292L265.653 212.512L265.64 208.157Z" fill="#FED57A"/>
<path d="M280.283 200.546L265.64 208.846V208.157L279.526 200.105L280.283 200.546Z" fill="#FAF7EA"/>
<path d="M234.009 206.735L228.996 203.81L229.016 210.898L234.028 213.823L234.009 206.735Z" fill="#EFAC41"/>
<path d="M272.528 184.541L267.515 181.614L228.996 203.808L234.009 206.733L272.528 184.541Z" fill="#FED57A"/>
<path d="M234.009 206.734L234.029 213.822L272.547 191.63L272.528 184.542L234.009 206.734Z" fill="#F9BB4A"/>
<path d="M245.127 201.8L245.138 206.153L245.073 206.192L241.322 204.004L245.127 201.8Z" fill="#EFAC41"/>
<path d="M238.58 205.457L241.324 204.006L245.071 206.194L238.593 209.811L238.58 205.457Z" fill="#FED57A"/>
<path d="M242.081 204.449L238.58 206.147V205.456L241.324 204.006L242.081 204.449Z" fill="white"/>
<path d="M267.644 188.743L267.656 193.098L267.59 193.135L263.84 190.949L267.644 188.743Z" fill="#EFAC41"/>
<path d="M249.955 199.001L263.841 190.95L267.589 193.136L249.968 203.356L249.955 199.001Z" fill="#FED57A"/>
<path d="M264.598 191.39L249.955 199.691V199.003L263.841 190.95L264.598 191.39Z" fill="white"/>
<path d="M218.324 197.579L213.311 194.654L213.331 201.743L218.343 204.668L218.324 197.579Z" fill="#EFAC41"/>
<path d="M256.843 175.385L251.83 172.458L213.311 194.652L218.324 197.579L256.843 175.385Z" fill="#FED57A"/>
<path d="M218.324 197.579L218.344 204.667L256.864 182.475L256.843 175.386L218.324 197.579Z" fill="#F9BB4A"/>
<path d="M229.441 192.645L229.453 196.998L229.388 197.037L225.637 194.849L229.441 192.645Z" fill="#EFAC41"/>
<path d="M222.895 196.302L225.639 194.851L229.386 197.039L222.908 200.655L222.895 196.302Z" fill="#FED57A"/>
<path d="M226.396 195.293L222.895 196.991V196.3L225.639 194.851L226.396 195.293Z" fill="white"/>
<path d="M251.959 179.587L251.97 183.942L251.905 183.98L248.155 181.794L251.959 179.587Z" fill="#EFAC41"/>
<path d="M234.272 189.846L248.156 181.794L251.904 183.981L234.283 194.201L234.272 189.846Z" fill="#FED57A"/>
<path d="M248.913 182.235L234.27 190.535V189.848L248.156 181.794L248.913 182.235Z" fill="white"/>
<path d="M246.455 174.05L246.46 175.62L282.789 196.838L282.784 195.268L246.455 174.05Z" fill="#474B59"/>
<path d="M282.785 195.267L282.789 196.839L287.869 193.891L287.864 192.322L282.785 195.267Z" fill="#525566"/>
<path d="M246.455 174.05L282.786 195.268L287.864 192.323L251.535 171.104L246.455 174.05Z" fill="#5B5E71"/>
<path d="M235.439 180.411L235.444 181.983L271.772 203.201L271.768 201.629L235.439 180.411Z" fill="#474B59"/>
<path d="M271.768 201.63L271.773 203.202L276.852 200.256L276.847 198.684L271.768 201.63Z" fill="#525566"/>
<path d="M235.439 180.41L271.769 201.628L276.847 198.683L240.518 177.465L235.439 180.41Z" fill="#5B5E71"/>
<path d="M224.422 186.774L224.427 188.346L260.756 209.564L260.751 207.992L224.422 186.774Z" fill="#474B59"/>
<path d="M260.753 207.992L260.756 209.563L265.836 206.617L265.831 205.046L260.753 207.992Z" fill="#525566"/>
<path d="M224.422 186.773L260.753 207.993L265.831 205.046L229.502 183.829L224.422 186.773Z" fill="#5B5E71"/>
<path d="M213.406 193.136L213.411 194.706L249.74 215.924L249.735 214.352L213.406 193.136Z" fill="#474B59"/>
<path d="M249.735 214.352L249.739 215.924L254.819 212.976L254.814 211.407L249.735 214.352Z" fill="#525566"/>
<path d="M213.406 193.136L249.737 214.354L254.814 211.409L218.485 190.189L213.406 193.136Z" fill="#5B5E71"/>
<path d="M252.004 156.582L238.076 164.155C237.771 164.344 237.683 164.626 237.686 165.034L237.712 165.544L252.418 173.497L267.089 165.671C267.089 165.671 267.105 165.592 267.105 165.316C267.105 165.316 267.091 164.952 267.014 164.783C266.929 164.592 266.747 164.42 266.63 164.316C266.317 164.043 266.005 163.801 265.473 163.485C257.855 158.942 252.845 156.602 252.845 156.602C252.522 156.475 252.255 156.43 252.004 156.582Z" fill="#DEA66C"/>
<path d="M237.905 182.3C238.717 182.866 240.199 183.61 241.697 184.466C245.179 186.454 249.58 188.87 251.77 189.819C252.066 189.949 252.242 190.011 252.448 190.022C252.6 190.031 252.851 189.924 252.851 189.924C252.851 189.924 252.443 174.381 252.419 173.494C252.394 172.626 252.05 172.339 251.746 172.13C251.27 171.809 250.24 171.308 250.24 171.308C250.24 171.308 246.629 169.416 243.024 167.422C241.31 166.473 239.863 165.501 238.306 164.701C238.02 164.557 237.684 164.738 237.684 165.076V181.917C237.684 182.078 237.777 182.213 237.905 182.3Z" fill="#B38251"/>
<path d="M266.703 182.4L252.881 189.917C252.659 190.038 252.395 189.869 252.395 189.604L252.419 173.501C252.419 173.346 252.374 173.005 252.328 172.87C252.203 172.476 252.475 172.318 252.598 172.253L266.307 164.807C266.671 164.61 267.106 164.889 267.106 165.32V181.708C267.106 181.998 266.951 182.265 266.703 182.4Z" fill="#966239"/>
<path opacity="0.5" d="M260.528 168.622C260.528 168.622 252.953 172.708 252.83 173.055C252.707 173.398 258.774 170.323 259.484 169.937C260.288 169.5 266.601 165.941 266.601 165.549C266.603 165.228 260.528 168.622 260.528 168.622Z" fill="#212121"/>
<g opacity="0.5">
<path d="M238.725 181.368C239.71 181.892 240.688 182.433 241.905 183.089V182.588C240.693 181.935 239.713 181.397 238.725 180.867V181.368Z" fill="#212121"/>
<path d="M240.8 181.596C241.078 181.745 241.217 181.821 241.479 181.962C241.482 181.089 241.482 180.652 241.484 179.779C241.222 179.639 241.086 179.565 240.811 179.416C240.805 180.289 240.803 180.723 240.8 181.596Z" fill="#212121"/>
<path d="M239.075 180.663C239.305 180.787 239.433 180.858 239.695 180.998L239.709 178.824C239.444 178.681 239.316 178.613 239.083 178.483C239.08 179.356 239.078 179.793 239.075 180.663Z" fill="#212121"/>
<path d="M240.365 179.437C240.998 179.778 241.334 179.961 241.892 180.26C241.615 179.727 241.462 179.457 241.158 178.911C240.846 179.125 240.683 179.229 240.365 179.437Z" fill="#212121"/>
<path d="M238.725 178.55C239.198 178.809 239.516 178.981 240.141 179.319C239.831 178.77 239.676 178.497 239.39 177.959C239.099 178.181 238.963 178.297 238.725 178.55Z" fill="#212121"/>
</g>
<g opacity="0.5">
<path d="M243.799 183.777C244.021 183.898 244.136 183.962 244.358 184.084C244.342 183.047 244.334 182.529 244.315 181.493C244.101 181.374 243.994 181.315 243.78 181.2C243.788 182.23 243.791 182.746 243.799 183.777Z" fill="#212121"/>
<path d="M242.984 183.594C243.796 184.045 244.426 184.383 245.206 184.822C245.201 184.526 244.984 184.169 244.691 184.002C244.231 183.746 243.97 183.605 243.505 183.349C243.206 183.189 242.984 183.304 242.984 183.594Z" fill="#212121"/>
<path d="M244.531 180.668L244.872 181.431C244.766 181.671 244.71 181.792 244.597 182.029C244.694 182.02 244.742 182.017 244.838 182.009C244.966 181.829 245.03 181.738 245.153 181.558C245.041 181.279 244.982 181.139 244.864 180.86C245.19 181.048 245.35 181.144 245.647 181.327C245.647 182.335 245.022 182.78 244.082 182.262C243.142 181.747 242.52 180.595 242.52 179.584C243.219 179.953 243.689 180.195 244.531 180.668Z" fill="#212121"/>
</g>
<path d="M262.205 166.905C262.072 166.801 247.735 158.901 247.735 158.901L243.286 161.326L257.986 169.322L257.994 169.33L262.296 167.007C262.296 167.007 262.288 166.984 262.264 166.956C262.245 166.939 262.213 166.914 262.205 166.905Z" fill="#FFE0B2"/>
<path d="M262.275 166.973C259.84 168.237 257.986 169.321 257.986 169.321C258.048 169.386 258.05 169.471 258.05 169.513C258.042 169.84 258.037 170.099 258.029 170.423C257.992 172.098 257.97 173.777 257.917 175.452C259.156 174.936 260.967 173.897 262.411 173.278C262.411 173.278 262.36 168.167 262.342 167.308C262.336 167.004 262.275 166.973 262.275 166.973Z" fill="#BF9F85"/>
<path d="M266.549 175.813L263.929 177.33V182.151L266.549 180.634V175.813Z" fill="#BF9F85"/>
<path d="M257.096 173.08L253.401 175.049V181.651L257.096 179.63V173.08Z" fill="#BF9F85"/>
<path d="M232.527 167.762L218.598 175.335C218.294 175.523 218.206 175.805 218.208 176.213L218.235 176.723L232.941 184.676L247.611 176.85C247.611 176.85 247.628 176.771 247.628 176.495C247.628 176.495 247.614 176.132 247.537 175.963C247.451 175.771 247.27 175.599 247.152 175.495C246.84 175.222 246.527 174.98 245.996 174.664C238.377 170.122 233.368 167.781 233.368 167.781C233.045 167.655 232.778 167.61 232.527 167.762Z" fill="#DEA66C"/>
<path d="M218.428 193.481C219.24 194.047 220.722 194.79 222.22 195.646C225.702 197.635 230.103 200.051 232.292 201C232.589 201.13 232.765 201.192 232.971 201.203C233.123 201.211 233.374 201.104 233.374 201.104C233.374 201.104 232.965 185.561 232.941 184.674C232.917 183.807 232.573 183.52 232.268 183.311C231.793 182.99 230.762 182.489 230.762 182.489C230.762 182.489 227.152 180.596 223.547 178.602C221.833 177.653 220.385 176.682 218.828 175.882C218.543 175.738 218.206 175.918 218.206 176.256V193.098C218.206 193.258 218.3 193.393 218.428 193.481Z" fill="#B38251"/>
<path d="M247.225 193.579L233.403 201.096C233.182 201.217 232.917 201.048 232.917 200.783L232.941 184.68C232.941 184.525 232.896 184.184 232.851 184.049C232.725 183.655 232.997 183.497 233.12 183.432L246.83 175.986C247.193 175.789 247.628 176.068 247.628 176.498V192.886C247.628 193.176 247.473 193.444 247.225 193.579Z" fill="#966239"/>
<path opacity="0.5" d="M241.051 179.801C241.051 179.801 233.475 183.887 233.352 184.233C233.229 184.577 239.296 181.502 240.007 181.116C240.81 180.679 247.123 177.119 247.123 176.728C247.126 176.407 241.051 179.801 241.051 179.801Z" fill="#212121"/>
<g opacity="0.5">
<path d="M219.247 192.55C220.233 193.073 221.21 193.614 222.428 194.27V193.769C221.215 193.116 220.235 192.578 219.247 192.048V192.55Z" fill="#212121"/>
<path d="M221.323 192.777C221.601 192.926 221.74 193.002 222.002 193.143C222.004 192.27 222.004 191.834 222.007 190.96C221.745 190.82 221.609 190.746 221.333 190.597C221.328 191.47 221.325 191.904 221.323 192.777Z" fill="#212121"/>
<path d="M219.598 191.842C219.828 191.966 219.956 192.036 220.218 192.177L220.231 190.003C219.967 189.859 219.838 189.792 219.606 189.662C219.603 190.535 219.6 190.972 219.598 191.842Z" fill="#212121"/>
<path d="M220.887 190.616C221.52 190.957 221.856 191.14 222.414 191.438C222.137 190.906 221.984 190.636 221.68 190.089C221.368 190.303 221.205 190.408 220.887 190.616Z" fill="#212121"/>
<path d="M219.248 189.729C219.72 189.988 220.038 190.16 220.663 190.497C220.353 189.948 220.198 189.675 219.912 189.137C219.621 189.36 219.485 189.475 219.248 189.729Z" fill="#212121"/>
</g>
<g opacity="0.5">
<path d="M224.321 194.955C224.543 195.076 224.658 195.141 224.88 195.262C224.864 194.226 224.856 193.708 224.838 192.671C224.624 192.553 224.517 192.494 224.303 192.378C224.311 193.409 224.313 193.925 224.321 194.955Z" fill="#212121"/>
<path d="M223.507 194.772C224.318 195.223 224.949 195.561 225.728 196C225.723 195.705 225.507 195.347 225.213 195.181C224.754 194.924 224.492 194.784 224.027 194.527C223.728 194.367 223.507 194.482 223.507 194.772Z" fill="#212121"/>
<path d="M225.053 191.847L225.395 192.61C225.288 192.85 225.232 192.971 225.12 193.207C225.216 193.199 225.264 193.196 225.36 193.188C225.488 193.007 225.552 192.917 225.675 192.737C225.563 192.458 225.504 192.317 225.387 192.038C225.712 192.227 225.873 192.323 226.169 192.506C226.169 193.514 225.544 193.959 224.604 193.441C223.664 192.926 223.042 191.774 223.042 190.763C223.742 191.132 224.212 191.374 225.053 191.847Z" fill="#212121"/>
</g>
<path d="M242.728 178.084C242.594 177.98 228.257 170.08 228.257 170.08L223.809 172.505L238.509 180.5L238.517 180.509L242.819 178.185C242.819 178.185 242.811 178.163 242.787 178.135C242.768 178.118 242.736 178.092 242.728 178.084Z" fill="#FFE0B2"/>
<path d="M242.797 178.151C240.362 179.415 238.509 180.5 238.509 180.5C238.57 180.564 238.573 180.649 238.573 180.691C238.565 181.018 238.56 181.277 238.552 181.601C238.514 183.277 238.493 184.955 238.439 186.631C239.679 186.114 241.49 185.075 242.934 184.457C242.934 184.457 242.883 179.345 242.864 178.486C242.859 178.182 242.797 178.151 242.797 178.151Z" fill="#BF9F85"/>
<path d="M247.071 186.994L244.451 188.511V193.332L247.071 191.815V186.994Z" fill="#BF9F85"/>
<path d="M237.618 184.258L233.924 186.227V192.83L237.618 190.808V184.258Z" fill="#BF9F85"/>
<path d="M269.627 167.295L255.698 174.868C255.394 175.056 255.306 175.338 255.308 175.746L255.335 176.256L270.041 184.209L284.711 176.383C284.711 176.383 284.727 176.304 284.727 176.028C284.727 176.028 284.714 175.665 284.637 175.496C284.551 175.304 284.37 175.133 284.252 175.028C283.94 174.755 283.627 174.513 283.096 174.198C275.477 169.655 270.468 167.315 270.468 167.315C270.145 167.188 269.878 167.143 269.627 167.295Z" fill="#DEA66C"/>
<path d="M255.528 193.015C256.34 193.581 257.822 194.324 259.32 195.181C262.802 197.169 267.203 199.585 269.392 200.534C269.689 200.664 269.865 200.726 270.071 200.737C270.223 200.746 270.474 200.639 270.474 200.639C270.474 200.639 270.065 185.096 270.041 184.208C270.017 183.341 269.673 183.054 269.368 182.845C268.893 182.524 267.862 182.023 267.862 182.023C267.862 182.023 264.252 180.13 260.647 178.136C258.933 177.187 257.485 176.216 255.929 175.416C255.643 175.272 255.306 175.453 255.306 175.791V192.632C255.306 192.792 255.4 192.928 255.528 193.015Z" fill="#B38251"/>
<path d="M284.325 193.113L270.503 200.63C270.281 200.751 270.017 200.582 270.017 200.317L270.041 184.214C270.041 184.059 269.996 183.718 269.95 183.583C269.825 183.189 270.097 183.031 270.22 182.966L283.93 175.52C284.293 175.323 284.728 175.602 284.728 176.033V192.421C284.728 192.711 284.573 192.978 284.325 193.113Z" fill="#966239"/>
<path opacity="0.5" d="M278.151 179.337C278.151 179.337 270.575 183.423 270.452 183.769C270.329 184.113 276.396 181.038 277.107 180.652C277.91 180.215 284.223 176.656 284.223 176.264C284.226 175.943 278.151 179.337 278.151 179.337Z" fill="#212121"/>
<g opacity="0.5">
<path d="M256.347 192.083C257.333 192.607 258.31 193.147 259.528 193.804V193.302C258.315 192.649 257.335 192.111 256.347 191.582V192.083Z" fill="#212121"/>
<path d="M258.422 192.311C258.7 192.46 258.839 192.536 259.101 192.677C259.104 191.804 259.104 191.367 259.107 190.494C258.845 190.353 258.708 190.28 258.433 190.131C258.427 191.004 258.425 191.438 258.422 192.311Z" fill="#212121"/>
<path d="M256.697 191.375C256.927 191.499 257.056 191.569 257.318 191.71L257.331 189.536C257.066 189.392 256.938 189.325 256.705 189.195C256.703 190.068 256.7 190.505 256.697 191.375Z" fill="#212121"/>
<path d="M257.987 190.149C258.62 190.49 258.956 190.673 259.514 190.972C259.236 190.439 259.084 190.169 258.78 189.623C258.467 189.837 258.305 189.941 257.987 190.149Z" fill="#212121"/>
<path d="M256.347 189.262C256.82 189.521 257.138 189.693 257.763 190.031C257.453 189.482 257.298 189.209 257.012 188.671C256.721 188.893 256.585 189.009 256.347 189.262Z" fill="#212121"/>
</g>
<g opacity="0.5">
<path d="M261.421 194.491C261.643 194.613 261.758 194.677 261.98 194.798C261.964 193.762 261.956 193.244 261.937 192.207C261.724 192.089 261.617 192.03 261.403 191.915C261.411 192.945 261.413 193.461 261.421 194.491Z" fill="#212121"/>
<path d="M260.607 194.306C261.419 194.757 262.049 195.095 262.829 195.534C262.823 195.238 262.607 194.881 262.313 194.714C261.854 194.458 261.592 194.317 261.128 194.061C260.828 193.9 260.607 194.016 260.607 194.306Z" fill="#212121"/>
<path d="M262.153 191.38L262.495 192.143C262.388 192.383 262.332 192.504 262.22 192.74C262.316 192.732 262.364 192.729 262.46 192.721C262.588 192.54 262.652 192.45 262.775 192.27C262.663 191.991 262.604 191.85 262.487 191.572C262.812 191.76 262.973 191.856 263.269 192.039C263.269 193.047 262.644 193.492 261.704 192.974C260.764 192.459 260.142 191.307 260.142 190.296C260.842 190.665 261.312 190.907 262.153 191.38Z" fill="#212121"/>
</g>
<path d="M279.828 177.617C279.694 177.513 265.357 169.613 265.357 169.613L260.908 172.038L275.609 180.034L275.617 180.042L279.919 177.719C279.919 177.719 279.911 177.696 279.887 177.668C279.868 177.651 279.836 177.626 279.828 177.617Z" fill="#FFE0B2"/>
<path d="M279.897 177.685C277.462 178.95 275.609 180.034 275.609 180.034C275.67 180.099 275.673 180.183 275.673 180.225C275.665 180.552 275.659 180.811 275.651 181.135C275.614 182.811 275.593 184.489 275.539 186.165C276.778 185.649 278.589 184.609 280.033 183.991C280.033 183.991 279.983 178.879 279.964 178.02C279.959 177.716 279.897 177.685 279.897 177.685Z" fill="#BF9F85"/>
<path d="M284.171 186.528L281.551 188.045V192.866L284.171 191.349V186.528Z" fill="#BF9F85"/>
<path d="M274.718 183.792L271.023 185.761V192.364L274.718 190.342V183.792Z" fill="#BF9F85"/>
<path d="M250.149 178.476L236.221 186.049C235.916 186.238 235.828 186.52 235.831 186.928L235.857 187.438L250.563 195.391L265.234 187.565C265.234 187.565 265.25 187.486 265.25 187.21C265.25 187.21 265.237 186.846 265.159 186.677C265.074 186.486 264.892 186.314 264.775 186.21C264.462 185.937 264.15 185.695 263.618 185.379C256 180.836 250.99 178.496 250.99 178.496C250.667 178.369 250.4 178.324 250.149 178.476Z" fill="#DEA66C"/>
<path d="M236.051 204.193C236.862 204.759 238.344 205.502 239.842 206.358C243.325 208.347 247.725 210.763 249.915 211.712C250.211 211.842 250.388 211.904 250.593 211.915C250.745 211.923 250.996 211.816 250.996 211.816C250.996 211.816 250.588 196.273 250.564 195.386C250.54 194.519 250.195 194.231 249.891 194.023C249.416 193.702 248.385 193.201 248.385 193.201C248.385 193.201 244.775 191.308 241.17 189.314C239.455 188.365 238.008 187.394 236.451 186.594C236.165 186.45 235.829 186.63 235.829 186.968V203.81C235.829 203.97 235.922 204.105 236.051 204.193Z" fill="#B38251"/>
<path d="M264.847 204.292L251.026 211.808C250.804 211.929 250.54 211.76 250.54 211.496L250.564 195.392C250.564 195.237 250.518 194.896 250.473 194.761C250.347 194.367 250.62 194.209 250.743 194.144L264.452 186.698C264.815 186.501 265.251 186.78 265.251 187.211V203.599C265.251 203.889 265.096 204.156 264.847 204.292Z" fill="#966239"/>
<path opacity="0.5" d="M258.673 190.515C258.673 190.515 251.097 194.602 250.975 194.948C250.852 195.292 256.919 192.216 257.629 191.831C258.433 191.394 264.745 187.834 264.745 187.443C264.748 187.122 258.673 190.515 258.673 190.515Z" fill="#212121"/>
<g opacity="0.5">
<path d="M236.87 203.262C237.855 203.785 238.832 204.326 240.05 204.982V204.481C238.838 203.828 237.858 203.29 236.87 202.76V203.262Z" fill="#212121"/>
<path d="M238.945 203.489C239.223 203.639 239.362 203.715 239.624 203.855C239.627 202.982 239.627 202.546 239.629 201.673C239.367 201.532 239.231 201.459 238.955 201.31C238.95 202.183 238.947 202.616 238.945 203.489Z" fill="#212121"/>
<path d="M237.22 202.554C237.45 202.678 237.578 202.749 237.84 202.889L237.854 200.715C237.589 200.572 237.461 200.504 237.228 200.375C237.225 201.248 237.223 201.684 237.22 202.554Z" fill="#212121"/>
<path d="M238.509 201.328C239.142 201.669 239.479 201.852 240.037 202.151C239.759 201.618 239.607 201.348 239.303 200.802C238.99 201.016 238.827 201.12 238.509 201.328Z" fill="#212121"/>
<path d="M236.87 200.441C237.342 200.7 237.66 200.872 238.285 201.21C237.975 200.661 237.82 200.388 237.535 199.85C237.244 200.072 237.107 200.188 236.87 200.441Z" fill="#212121"/>
</g>
<g opacity="0.5">
<path d="M241.944 205.67C242.166 205.791 242.281 205.856 242.503 205.977C242.487 204.94 242.479 204.422 242.46 203.386C242.246 203.267 242.139 203.208 241.925 203.093C241.933 204.124 241.936 204.639 241.944 205.67Z" fill="#212121"/>
<path d="M241.129 205.485C241.941 205.936 242.571 206.274 243.351 206.713C243.346 206.417 243.129 206.06 242.836 205.894C242.376 205.637 242.115 205.497 241.65 205.24C241.351 205.08 241.129 205.195 241.129 205.485Z" fill="#212121"/>
<path d="M242.675 202.559L243.017 203.322C242.91 203.561 242.854 203.683 242.742 203.919C242.838 203.911 242.886 203.908 242.982 203.899C243.111 203.719 243.175 203.629 243.297 203.449C243.185 203.17 243.127 203.029 243.009 202.75C243.335 202.939 243.495 203.035 243.791 203.218C243.791 204.226 243.167 204.671 242.227 204.153C241.287 203.638 240.664 202.486 240.664 201.475C241.364 201.844 241.834 202.086 242.675 202.559Z" fill="#212121"/>
</g>
<path d="M260.35 188.796C260.217 188.692 245.88 180.792 245.88 180.792L241.431 183.217L256.131 191.212L256.139 191.221L260.441 188.897C260.441 188.897 260.433 188.875 260.409 188.847C260.39 188.83 260.358 188.804 260.35 188.796Z" fill="#FFE0B2"/>
<path d="M260.42 188.863C257.984 190.128 256.131 191.212 256.131 191.212C256.193 191.277 256.195 191.361 256.195 191.404C256.187 191.73 256.182 191.989 256.174 192.313C256.137 193.989 256.115 195.667 256.062 197.343C257.301 196.827 259.112 195.787 260.556 195.169C260.556 195.169 260.505 190.057 260.487 189.198C260.481 188.894 260.42 188.863 260.42 188.863Z" fill="#BF9F85"/>
<path d="M264.694 197.707L262.073 199.224V204.045L264.694 202.528V197.707Z" fill="#BF9F85"/>
<path d="M255.241 194.971L251.546 196.94V203.543L255.241 201.521V194.971Z" fill="#BF9F85"/>
</svg>
