<svg width="284" height="314" viewBox="0 0 284 314" fill="none" xmlns="http://www.w3.org/2000/svg">
<path d="M3.05539 104.04L3.3406 216.052L75.7645 176.951L75.4741 64.9395L3.05539 104.04Z" fill="#4562EF"/>
<path d="M74.3957 168.125L74.1882 67.9053L4.84467 107.949V168.125H74.3957Z" fill="#E4E8F4"/>
<path d="M75.5313 168.125L75.3291 68.5693L4.84467 109.272V168.125H75.5313Z" fill="#D4DAE8"/>
<path d="M76.6723 168.125L76.47 69.2432L4.83954 110.599V168.125H76.6723Z" fill="#E4E8F4"/>
<path d="M77.8079 168.125L77.6109 69.9072L4.83954 111.922V168.125H77.8079Z" fill="#D4DAE8"/>
<path d="M78.9488 168.125L78.7517 70.5762L4.83954 113.244V168.125H78.9488Z" fill="#E4E8F4"/>
<path d="M80.0897 168.125L79.8926 71.2397L4.83954 114.572V168.125H80.0897Z" fill="#D4DAE8"/>
<path d="M81.2302 168.125L81.0331 71.9087L5.80896 115.334L5.9023 168.125H81.2302Z" fill="#E4E8F4"/>
<path d="M82.366 168.125L82.1637 72.5728L6.94992 116.003L7.04326 168.12L82.366 168.125Z" fill="#D4DAE8"/>
<path d="M83.5018 168.125L83.3099 73.2363L8.09091 116.667L8.18426 168.125H83.5018Z" fill="#E4E8F4"/>
<path d="M84.6425 168.125L84.4507 73.9004L9.23166 117.336L9.31982 168.125H84.6425Z" fill="#E4E8F4"/>
<path d="M19.0535 114.515L19.3336 226.516L88.0134 184.066L87.7333 72.0645L19.0535 114.515Z" fill="#4562EF"/>
<path d="M0.991364 104.019L1.27139 216.02L19.3333 226.516L19.0584 114.514L0.991364 104.019Z" fill="#576CFB"/>
<path d="M3.53257 171.884L3.26291 107.955L16.7977 115.821L17.0673 179.751L3.53257 171.884Z" fill="white"/>
<path d="M0.991364 104.019L19.0584 114.515L87.7331 72.0645L86.727 71.4785L18.9807 113.296L3.06047 104.045L75.474 64.9393L74.4628 64.3481L0.991364 104.019Z" fill="#748BFD"/>
<path d="M25.3127 116.978L25.5928 228.979L98.053 189.9L97.7729 77.8984L25.3127 116.978Z" fill="#E5A03C"/>
<path d="M96.2948 181.012L96.0874 80.7974L26.7386 120.836V181.012H96.2948Z" fill="#E4E8F4"/>
<path d="M97.4305 181.011L97.2231 81.4609L26.7386 122.159V181.011H97.4305Z" fill="#D4DAE8"/>
<path d="M98.5713 181.011L98.3639 82.1299L26.7438 123.486V181.011H98.5713Z" fill="#E4E8F4"/>
<path d="M99.7071 181.012L99.51 82.7939L26.7386 124.809V181.012H99.7071Z" fill="#D4DAE8"/>
<path d="M100.848 181.012L100.651 83.4629L26.7386 126.131V181.006L100.848 181.012Z" fill="#E4E8F4"/>
<path d="M101.989 181.011L101.787 84.1265L26.7386 127.458V181.011H101.989Z" fill="#D4DAE8"/>
<path d="M103.124 181.011L102.927 84.7954L27.7136 128.221L27.8069 181.011H103.124Z" fill="#E4E8F4"/>
<path d="M104.265 181.012L104.068 85.4595L28.8546 128.89L28.9479 181.007L104.265 181.012Z" fill="#D4DAE8"/>
<path d="M105.401 181.011L105.209 86.1226L29.99 129.553L30.0782 181.011H105.401Z" fill="#E4E8F4"/>
<path d="M106.537 181.012L106.35 86.792L31.131 130.222L31.2191 181.012H106.537Z" fill="#E4E8F4"/>
<path d="M41.3105 127.448L41.5905 239.449L110.307 197.019L110.027 85.0181L41.3105 127.448Z" fill="#E5A03C"/>
<path d="M23.2538 116.952L23.5287 228.954L41.5906 239.449L41.3106 127.448L23.2538 116.952Z" fill="#F9BB4A"/>
<path d="M25.7846 184.823L25.515 120.883L39.0549 128.75L39.3194 192.69L25.7846 184.823Z" fill="white"/>
<path d="M23.2538 116.952L41.3106 127.448L110.027 85.0182L109.021 84.4322L41.2743 126.255L25.3126 116.973L97.7728 77.9034L96.7667 77.3174L23.2538 116.952Z" fill="#F9BB4A"/>
<path d="M47.606 129.932L47.8861 241.934L120.346 202.854L120.066 90.8525L47.606 129.932Z" fill="#E63044"/>
<path d="M118.588 194.028L118.381 93.8135L49.032 133.852V194.028H118.588Z" fill="#E4E8F4"/>
<path d="M119.729 194.028L119.522 94.4775L49.032 135.175V194.028H119.729Z" fill="#D4DAE8"/>
<path d="M120.865 194.028L120.662 95.1465L49.032 136.503V194.028H120.865Z" fill="#E4E8F4"/>
<path d="M122.006 194.028L121.803 95.8101L49.032 137.825V194.028H122.006Z" fill="#D4DAE8"/>
<path d="M123.141 194.028L122.944 96.479L49.0269 139.147V194.028H123.141Z" fill="#E4E8F4"/>
<path d="M124.282 194.028L124.085 97.1426L49.0269 140.475V194.028H124.282Z" fill="#D4DAE8"/>
<path d="M125.418 194.028L125.226 97.8115L50.0071 141.237L50.0952 194.028H125.418Z" fill="#E4E8F4"/>
<path d="M126.559 194.028L126.367 98.4756L51.1425 141.906L51.2359 194.023L126.559 194.028Z" fill="#D4DAE8"/>
<path d="M127.695 194.028L127.503 99.1392L52.2837 142.57L52.3771 194.028H127.695Z" fill="#E4E8F4"/>
<path d="M128.835 194.027L128.644 99.8027L53.4245 143.238L53.5127 194.027H128.835Z" fill="#E4E8F4"/>
<path d="M63.604 140.407L63.884 252.409L132.605 209.979L132.325 97.9775L63.604 140.407Z" fill="#E63044"/>
<path d="M45.5423 129.911L45.8223 241.913L63.8842 252.408L63.6042 140.407L45.5423 129.911Z" fill="#ED435C"/>
<path d="M48.0781 197.777L47.8136 133.842L61.3484 141.709L61.618 205.643L48.0781 197.777Z" fill="white"/>
<path d="M45.5423 129.912L63.6042 140.407L132.325 97.9726L131.314 97.3866L63.573 139.204L47.6062 129.927L120.072 90.8526L119.066 90.2666L45.5423 129.912Z" fill="#F25574"/>
<path d="M54.7002 208.874C58.0398 210.803 60.7519 215.496 60.7416 219.339C60.7312 223.192 58.0035 224.748 54.6587 222.814C51.3035 220.879 48.5914 216.186 48.607 212.333C48.6173 208.496 51.345 206.94 54.7002 208.874Z" fill="#898989"/>
<path d="M54.7002 208.874C58.0398 210.803 60.7519 215.496 60.7416 219.339C60.7312 223.192 58.0035 224.748 54.6587 222.814C51.3035 220.879 48.5914 216.186 48.607 212.333C48.6173 208.496 51.345 206.94 54.7002 208.874Z" fill="#363A44"/>
<path d="M57.3759 222.606C56.5958 222.569 55.8384 222.332 55.1771 221.916C52.1694 220.179 49.6336 215.792 49.644 212.333C49.6543 210.295 50.5203 209.082 51.9723 209.082C52.6309 209.082 53.3932 209.32 54.1815 209.776C57.184 211.508 59.7095 215.885 59.7043 219.334C59.6939 221.382 58.8279 222.606 57.3759 222.606Z" fill="#E63044"/>
<path d="M32.4482 200.157C35.7878 202.087 38.4947 206.78 38.4843 210.617C38.474 214.475 35.7463 216.026 32.4067 214.097C29.0515 212.162 26.3394 207.469 26.3549 203.616C26.3653 199.774 29.093 198.223 32.4482 200.157Z" fill="#898989"/>
<path d="M32.4482 200.157C35.7878 202.087 38.4947 206.78 38.4843 210.617C38.474 214.475 35.7463 216.026 32.4067 214.097C29.0515 212.162 26.3394 207.469 26.3549 203.616C26.3653 199.774 29.093 198.223 32.4482 200.157Z" fill="#363A44"/>
<path d="M35.1188 213.889C34.3405 213.851 33.585 213.614 32.9253 213.199C29.9175 211.462 27.3817 207.075 27.3921 203.616C27.3973 201.578 28.2685 200.359 29.7205 200.359C30.3739 200.359 31.1414 200.603 31.9296 201.054C34.927 202.791 37.4576 207.168 37.4472 210.617C37.442 212.665 36.5656 213.884 35.1136 213.884L35.1188 213.889Z" fill="#E5A03C"/>
<path d="M10.1912 191.44C13.5308 193.369 16.2429 198.062 16.2325 201.899C16.2222 205.752 13.4945 207.308 10.1497 205.379C6.79451 203.445 4.08756 198.752 4.09793 194.893C4.1083 191.056 6.836 189.5 10.1912 191.44Z" fill="#898989"/>
<path d="M10.1912 191.44C13.5308 193.369 16.2429 198.062 16.2325 201.899C16.2222 205.752 13.4945 207.308 10.1497 205.379C6.79451 203.445 4.08756 198.752 4.09793 194.893C4.1083 191.056 6.836 189.5 10.1912 191.44Z" fill="#363A44"/>
<path d="M12.8617 205.172C12.0833 205.134 11.3278 204.897 10.6681 204.482C7.66038 202.745 5.12974 198.352 5.13493 194.899C5.1453 192.861 6.0165 191.642 7.46851 191.642C8.12191 191.642 8.88421 191.881 9.67244 192.337C12.675 194.069 15.2004 198.451 15.1952 201.899C15.1849 203.948 14.3137 205.166 12.8617 205.166V205.172Z" fill="#3C5DD6"/>
<path d="M71.6419 180.26C71.3013 180.481 71.0184 180.781 70.8164 181.133C70.6145 181.486 70.4992 181.881 70.4803 182.287C70.4803 183.024 70.9989 183.324 71.6523 182.951L82.6823 176.583C83.0209 176.363 83.3029 176.066 83.5056 175.716C83.7083 175.367 83.8259 174.974 83.8491 174.571C83.8491 173.819 83.3202 173.518 82.6719 173.892L71.6419 180.26Z" fill="#F76D8E"/>
<path d="M82.6719 173.378C83.5638 172.864 84.2898 173.279 84.295 174.311C84.295 175.333 83.569 176.593 82.6874 177.106L71.6522 183.474C70.7551 183.993 70.0291 183.573 70.0291 182.551C70.0291 181.514 70.7447 180.27 71.6367 179.751L82.6719 173.378ZM71.6522 182.951L82.6823 176.583C83.0208 176.362 83.3029 176.065 83.5055 175.716C83.7082 175.366 83.8259 174.974 83.8491 174.57C83.8491 173.819 83.3201 173.518 82.6719 173.891L71.6418 180.259C71.3013 180.481 71.0184 180.78 70.8164 181.133C70.6144 181.485 70.4992 181.881 70.4802 182.287C70.4802 183.023 70.9988 183.324 71.6522 182.951Z" fill="#363A44"/>
<path d="M71.7249 210.243C71.3847 210.466 71.1023 210.767 70.9012 211.12C70.7001 211.474 70.5861 211.87 70.5685 212.276C70.5685 213.012 71.0871 213.313 71.7353 212.94L82.7654 206.572C83.1049 206.352 83.3879 206.055 83.5915 205.706C83.7951 205.356 83.9136 204.964 83.9373 204.56C83.9373 203.808 83.4032 203.507 82.7602 203.88L71.7249 210.243Z" fill="#F76D8E"/>
<path d="M82.755 203.368C83.647 202.854 84.3782 203.269 84.3782 204.301C84.3782 205.323 83.6573 206.583 82.7706 207.096L71.7353 213.464C70.8382 213.983 70.1174 213.563 70.1122 212.536C70.1122 211.509 70.8278 210.254 71.725 209.736L82.755 203.368ZM71.7405 212.94L82.7706 206.572C83.1101 206.352 83.3931 206.056 83.5967 205.706C83.8003 205.357 83.9188 204.964 83.9426 204.56C83.9426 203.808 83.4084 203.508 82.7654 203.881L71.7302 210.249C71.3906 210.471 71.1087 210.771 70.9076 211.123C70.7065 211.476 70.5921 211.871 70.5737 212.277C70.5737 213.013 71.0923 213.314 71.7405 212.94Z" fill="#363A44"/>
<path d="M155.749 313.269L82.6304 270.782L108.44 196.056L181.553 238.542L155.749 313.269Z" fill="#E4E8F4"/>
<path d="M177.778 249.469L104.67 206.982L108.445 196.056L181.559 238.542L177.778 249.469Z" fill="#37617B"/>
<path d="M181.553 238.542L207.695 283.279L155.749 313.268L181.553 238.542Z" fill="#BAC1CE"/>
<path d="M123.9 230.948L109.73 273.865L101.989 269.44L113.554 234.366L106.912 230.551L109.526 222.606L123.9 230.948ZM148.314 274.253C149.829 284.663 141.423 293.06 129.165 285.984C121.258 281.421 116.732 273.052 119.494 264.655C120.861 260.517 123.521 257.875 127.872 257.422C126.948 255.75 126.385 253.903 126.218 252.001C126.051 250.098 126.284 248.181 126.902 246.374C129.211 239.345 135.825 236.887 143.797 241.497C148.545 244.24 152.166 248.406 153.201 253.847C153.709 256.267 153.552 258.854 152.748 261.293C151.621 264.729 149.45 267.334 145.912 267.842C147.206 269.939 148.019 271.971 148.314 274.253ZM136.804 279.666C140.038 278.585 141.146 274.003 139.76 270.659C138.904 268.789 137.461 267.248 135.65 266.272C131.585 263.925 128.555 265.385 127.401 268.886C126.255 272.387 127.512 276.322 131.576 278.659C133.544 279.795 135.262 280.128 136.804 279.675V279.666ZM137.174 248.166C135.918 248.554 135.049 249.617 134.495 251.307C133.387 254.679 134.818 257.755 137.867 259.519C140.998 261.32 143.723 260.738 144.859 257.302C146.042 253.699 144.435 250.577 141.386 248.813C139.853 247.935 138.458 247.686 137.174 248.166Z" fill="#FFC701"/>
<path d="M9.14882 249.369C6.9397 248.389 0.747941 242.887 0.488654 239.615C0.229368 236.255 9.97854 239.143 13.9871 240.984C17.9957 242.825 9.14882 249.369 9.14882 249.369Z" fill="#4C7891"/>
<path d="M85.5188 282.371C84.9483 282.024 84.0408 282.024 83.1333 282.594C81.1939 283.735 79.6019 286.354 79.6019 288.522C79.6019 289.657 80.053 290.337 80.6234 290.684L9.08113 249.349C8.39661 248.892 8.05435 248.208 8.05435 247.186C8.05435 245.024 9.64637 242.286 11.4717 241.264C12.4933 240.694 13.2919 240.58 13.9765 240.917L85.5188 282.371Z" fill="#30596D"/>
<path d="M83.0971 282.611C81.2043 283.7 79.6071 286.381 79.6175 288.553C79.6175 290.721 81.2251 291.556 83.1179 290.462C85.0055 289.373 86.5301 286.733 86.5249 284.566C86.5145 282.393 84.9899 281.522 83.0971 282.611Z" fill="#37617B"/>
<path d="M83.2477 284.363C82.0757 285.042 81.0853 286.701 81.0904 288.05C81.0904 289.398 82.0861 289.917 83.2632 289.237C84.4352 288.563 85.379 286.924 85.3738 285.576C85.3687 284.228 84.4197 283.689 83.2477 284.363ZM52.9993 263.449C52.4237 263.106 51.5007 263.106 50.5828 263.677C48.6278 264.828 47.0202 267.473 47.0202 269.661C47.0202 270.802 47.4817 271.497 48.0573 271.844L45.5786 270.522C44.8889 270.06 44.5414 269.371 44.5414 268.339C44.5414 266.156 46.1542 263.392 47.9951 262.36C49.0323 261.789 49.8309 261.67 50.5206 262.012L52.9993 263.449Z" fill="#4C7891"/>
<path d="M90.8603 291.348C90.7423 291.548 90.5859 291.722 90.4001 291.86C90.2143 291.999 90.0028 292.099 89.7779 292.155C89.553 292.211 89.3193 292.222 89.0902 292.187C88.8612 292.151 88.6414 292.071 88.4437 291.95L82.6098 288.486C82.5838 288.486 82.5838 288.455 82.5579 288.455C82.3194 288.351 82.1638 288.066 82.1638 287.672C82.1638 286.878 82.7394 285.909 83.4239 285.514C83.8388 285.224 84.347 285.437 84.347 285.437L90.2276 288.932C90.4307 289.046 90.6088 289.2 90.7512 289.385C90.8936 289.569 90.9974 289.78 91.0564 290.006C91.1155 290.231 91.1285 290.466 91.0948 290.697C91.0611 290.928 90.9813 291.149 90.8603 291.348ZM81.6245 276.082C81.9421 276.282 82.2065 276.557 82.3952 276.882C82.5839 277.207 82.6913 277.573 82.7083 277.948L82.6979 281.397C82.6979 282.061 82.2105 282.336 81.6089 281.993C81.302 281.791 81.0465 281.519 80.8629 281.201C80.6792 280.882 80.5725 280.525 80.551 280.158L80.5562 277.933L73.654 273.95C72.7258 273.411 71.839 273.323 71.1752 273.696C70.107 274.282 68.6757 274.147 67.1667 273.276L53.4763 265.373C53.162 265.169 52.9004 264.894 52.713 264.569C52.5255 264.245 52.4175 263.88 52.3977 263.506C52.3977 262.832 52.8852 262.557 53.4867 262.905L67.177 270.808C68.1053 271.347 68.992 271.435 69.6506 271.062C70.7189 270.476 72.1502 270.611 73.6592 271.482L81.6245 276.082Z" fill="#30596D"/>
<path d="M283.266 195.616L267.222 204.993L267.389 145.761L283.433 136.383L283.266 195.616ZM195.722 1.69962C198.27 0.223462 201.801 0.425463 205.698 2.67854L234.537 19.3319L218.493 28.7055L189.654 12.0521C185.758 9.79905 182.227 9.59317 179.682 11.0771L195.722 1.69962Z" fill="#A0A8AA"/>
<path d="M283.165 230.057C283.157 234.482 281.595 237.586 279.078 239.05L263.035 248.428C265.552 246.963 267.113 243.851 267.121 239.431L267.222 204.994L283.266 195.616L283.165 230.057ZM283.433 136.383L267.389 145.761L267.533 95.2375L283.577 85.86L283.433 136.383ZM267.323 38.2579L251.28 47.6354L218.494 28.7056L234.537 19.332L267.323 38.2579Z" fill="#8D9799"/>
<path d="M269.666 39.6097C277.411 44.077 283.666 54.9151 283.639 63.8147L283.576 85.86L267.533 95.2374L267.595 73.1844C267.622 64.2925 261.364 53.4506 253.622 48.9832L251.284 47.6353L267.323 38.2578L269.666 39.6097Z" fill="#7E8A8C"/>
<path d="M189.65 12.0522C181.912 7.581 175.615 11.1743 175.588 20.0662L175.122 186.312C175.094 195.208 181.349 206.046 189.091 210.514L253.059 247.449C260.805 251.916 267.098 248.326 267.121 239.435L267.595 73.1884C267.622 64.2926 261.364 53.4545 253.622 48.9872L189.65 12.0522Z" fill="#494846"/>
<path d="M216.318 212.817C216.318 214.837 217.756 217.285 219.465 218.295C221.213 219.305 222.65 218.489 222.689 216.469C222.689 214.488 221.252 212.041 219.504 210.992C217.756 209.982 216.318 210.836 216.318 212.817ZM189.437 200.969L195.807 204.621L195.846 197.318L189.476 193.627L189.437 200.969ZM249.765 232.124L243.2 224.549V232.085L249.765 232.124Z" fill="#CCCECE"/>
<path d="M213.719 35.2244C213.036 34.8282 212.476 35.1468 212.476 35.9315C212.489 36.3624 212.614 36.7826 212.838 37.1512C213.045 37.5277 213.346 37.8447 213.712 38.0719L239.797 53.1325C240.484 53.5288 241.04 53.2102 241.04 52.4255C241.04 52.0293 240.904 51.5981 240.683 51.2097C240.476 50.831 240.175 50.5124 239.808 50.2851L213.719 35.2244ZM203.25 29.3509C202.648 29.0013 202.159 29.281 202.155 29.9724C202.174 30.3506 202.283 30.7188 202.472 31.0469C202.661 31.375 202.925 31.6538 203.243 31.8604C203.849 32.21 204.338 31.9264 204.338 31.2388C204.338 30.5396 203.856 29.7005 203.25 29.3509Z" fill="#CCCECE"/>
<path d="M179.919 179.371L262.312 226.918L262.739 74.214V74.1752L210.53 44.0305L180.385 26.6663V26.6274H180.346L179.919 179.371Z" fill="white"/>
<path d="M180.393 26.6272V26.6661L210.538 44.0303L180.393 26.6272ZM200.294 9.62815C202.881 8.15976 207.146 8.15976 209.734 9.62815C212.037 10.9567 212.317 12.9845 210.569 14.4528C210.359 14.2392 210.079 14.0333 209.73 13.8235C207.146 12.3551 202.881 12.3551 200.294 13.8235L199.455 14.4528C197.777 12.9845 198.056 10.9567 200.294 9.62815Z" fill="white"/>
<path d="M209.73 13.8239C210.079 14.0337 210.359 14.2396 210.569 14.4533C210.359 14.6591 210.079 14.8689 209.73 15.0787C207.076 16.617 202.881 16.617 200.294 15.0787C200.014 14.9388 199.734 14.7291 199.455 14.5232V14.4533L200.294 13.8239C202.881 12.3556 207.146 12.3556 209.733 13.8239H209.73Z" fill="#434240"/>
<path d="M182.689 111.156L189.953 106.934C185.179 100.913 182.207 95.6374 180.494 91.0303L173.23 95.2529C174.939 99.86 177.911 105.131 182.689 111.156Z" fill="#FFE073"/>
<path d="M124.921 21.0802C131.33 17.3588 141.341 18.361 152.579 24.8483C161.409 29.9449 169.439 37.5588 175.576 45.969L168.312 50.1916C162.174 41.7814 154.141 34.1675 145.311 29.0709C134.073 22.5836 124.062 21.5814 117.653 25.3028L124.921 21.0802Z" fill="#FFE073"/>
<path d="M180.129 80.5773C180.156 71.196 175.565 60.1364 168.312 50.1918L175.576 45.9692C182.833 55.9139 187.425 66.9734 187.397 76.3547C187.378 83.3354 184.81 88.3116 180.494 91.0308L173.23 95.2534C177.542 92.5342 180.11 87.5619 180.129 80.5773Z" fill="#FFD53F"/>
<path d="M110.307 40.2703C110.256 57.5608 125.857 80.6315 145.14 91.7649C151.122 95.1989 156.728 97.1179 161.65 97.5724C165.298 101.31 169.443 104.528 173.968 107.136C177.099 108.954 179.647 110.042 181.185 110.621H181.213C182.094 110.974 182.627 111.126 182.7 111.149C177.907 105.143 174.951 99.8682 173.237 95.2494C177.549 92.5224 180.102 87.55 180.129 80.581C180.179 63.2673 164.579 40.1965 145.319 29.0632C135.122 23.1819 125.934 21.8184 119.544 24.3706C113.814 26.6625 110.334 32.1165 110.307 40.2703Z" fill="#FFC701"/>
<path d="M214.531 92.2114L211.886 91.854L209.788 103.547L213.968 105.959L210.588 108.523L212.966 116.179L218.847 119.606L215.001 95.1792C214.574 93.3768 214.535 92.2697 214.531 92.2114Z" fill="#006CB5"/>
<path d="M227.175 116.727L225.066 116.937L226.134 123.781L227.649 124.659L231.456 105.578L229.475 115.484L227.175 116.727Z" fill="#E9E8E6"/>
<path d="M222.837 107.637L222.961 107.738L222.969 107.723L222.837 107.637Z" fill="#204D70"/>
<path d="M222.833 107.633L222.969 107.723L222.837 107.637L222.833 107.633Z" fill="#204D70"/>
<path d="M223.703 108.154L223.621 108.123L227.175 116.727L229.475 115.484L231.456 105.59C230.555 107.998 228.92 108.853 227.311 108.985C226.169 109.102 224.938 108.802 223.703 108.154Z" fill="white"/>
<path d="M232.113 98.1316C230.52 100.28 227.801 102.086 223.411 100.245C223.4 100.245 223.233 100.167 222.922 99.9884C221.524 99.1843 217.445 96.298 214.539 88.8784L214.531 92.2114C214.531 92.2697 214.574 93.3768 214.997 95.1793C215.633 97.8742 216.724 100.441 218.222 102.77C219.581 104.871 221.189 106.55 222.833 107.637L222.969 107.723C223.209 107.875 223.455 108.018 223.707 108.15C224.938 108.803 226.17 109.106 227.312 108.985C228.92 108.853 230.555 107.999 231.457 105.59C231.822 104.548 232.04 103.46 232.101 102.358L232.113 98.1316Z" fill="#E7BAA3"/>
<path d="M218.221 102.766C216.396 99.9302 215.467 97.176 215.001 95.1909L217.076 108.321L219.364 112.217L222.98 107.754L222.833 107.637C221.189 106.55 219.581 104.871 218.225 102.77L218.221 102.766Z" fill="white"/>
<path d="M221.477 114.851L220.366 120.46L226.138 123.789L225.059 116.933L227.168 116.739L223.613 108.134C223.532 108.08 223.446 107.995 223.365 107.967C223.252 107.886 223.112 107.8 222.976 107.719L219.364 112.217L221.477 114.851Z" fill="#F25A5A"/>
<path d="M196.336 97.2187C196.141 104.425 196.297 106.456 196.308 106.561L212.966 116.18L210.588 108.519L213.968 105.959L209.784 103.547L211.882 91.8541L214.531 92.2114L202.201 90.51C201.918 90.4867 196.53 90.0749 196.336 97.2187Z" fill="#3F9AE0"/>
<path d="M232.101 102.358C232.008 103.655 231.779 104.716 231.46 105.582L227.654 124.656L233.543 128.094L235.943 123.16L232.587 116.712L236.798 119.139L234.739 105.05L232.101 102.358Z" fill="#006CB5"/>
<path d="M217.771 67.4393C217.546 67.5675 213.257 70.0148 213.533 75.0221L211.101 70.9743C206.875 72.9826 212.243 81.3851 212.523 81.8279C213.059 84.5433 213.758 86.8779 214.543 88.8824C217.441 96.302 221.527 99.1844 222.922 99.9924C223.233 100.171 223.4 100.241 223.411 100.245C227.801 102.086 230.52 100.284 232.113 98.1317C233.585 96.1544 234.079 93.9984 234.106 93.8858C239.063 90.4285 235.263 84.8074 235.061 84.5083L233.341 86.0583C233.372 85.7747 233.939 80.3867 231.996 77.8928L231.608 80.6781C231.445 80.4528 228.298 76.1564 225.381 74.4704C225.012 74.2607 224.647 74.0898 224.301 73.9849C223.951 73.8839 223.602 73.7246 223.26 73.5265C220.436 71.8949 217.907 67.6607 217.771 67.4393Z" fill="#F9D5B4"/>
<path d="M222.184 58.015C220.16 56.8496 217.787 55.9833 215.215 56.0028C211.272 56.0843 210.301 60.0622 210.282 63.9002C210.27 67.5012 211.058 70.8032 211.097 70.9741L213.533 75.0219C213.257 70.0107 217.546 67.5673 217.771 67.4391C217.907 67.6644 220.436 71.8947 223.26 73.5263C223.606 73.7244 223.951 73.8837 224.301 73.9847C224.651 74.0896 225.012 74.2566 225.381 74.4702C228.298 76.1562 231.445 80.4526 231.612 80.6779L232 77.8926C233.943 80.3865 233.372 85.7745 233.341 86.0581L235.061 84.5081C235.607 82.625 235.893 80.6765 235.912 78.7161C235.955 69.0939 229.223 64.1449 228.866 63.8847C228.733 63.706 226.224 60.3535 222.184 58.0189V58.015Z" fill="#2D2C2B"/>
<path d="M217.076 108.321L215.001 95.1909L218.839 119.571L220.354 120.445L221.465 114.851L219.364 112.217L217.076 108.321Z" fill="#E9E8E6"/>
<path d="M232.101 102.358L234.743 105.05L236.798 119.139L232.587 116.708L235.943 123.156L233.554 128.066L250.184 137.669C250.196 137.572 250.394 135.75 250.211 128.323C250.087 120.996 244.687 115.181 244.404 114.874L232.101 102.358Z" fill="#3F9AE0"/>
<path d="M188.687 134.457L186.033 135.995C186.706 135.607 187.634 135.665 188.652 136.251L191.301 134.713C190.283 134.123 189.359 134.068 188.687 134.457Z" fill="#E9E8E6"/>
<path d="M249.228 171.225L251.878 169.687L191.301 134.713L188.652 136.252L249.228 171.225Z" fill="#D6D4D2"/>
<path d="M251.855 179.906L254.504 178.364C255.156 177.984 255.56 177.183 255.564 176.041C255.572 173.695 253.921 170.863 251.878 169.686L249.229 171.224C251.268 172.405 252.919 175.237 252.915 177.583C252.911 178.722 252.507 179.526 251.855 179.906Z" fill="#E9E8E6"/>
<path d="M188.652 136.251C186.632 135.086 184.973 136.007 184.965 138.349C184.957 140.668 186.608 143.5 188.628 144.665L249.205 179.643C251.245 180.82 252.907 179.899 252.915 177.584C252.923 175.237 251.268 172.406 249.228 171.225L188.652 136.251Z" fill="#C4C2C0"/>
<path d="M188.745 115.492L186.092 117.034C186.764 116.646 187.685 116.696 188.702 117.279L191.352 115.741C190.338 115.158 189.409 115.103 188.745 115.492Z" fill="#E9E8E6"/>
<path d="M249.279 152.256L251.932 150.714L191.352 115.741L188.702 117.279L249.279 152.256Z" fill="#D6D4D2"/>
<path d="M251.909 160.942L254.562 159.4C255.211 159.023 255.611 158.223 255.615 157.069C255.623 154.754 253.972 151.895 251.932 150.714L249.279 152.256C251.323 153.433 252.97 156.296 252.97 158.611C252.962 159.761 252.562 160.565 251.909 160.942Z" fill="#E9E8E6"/>
<path d="M188.702 117.279C186.682 116.113 185.024 117.065 185.016 119.38C185.012 121.727 186.663 124.531 188.679 125.697L249.256 160.67C251.299 161.847 252.958 160.958 252.966 158.611C252.973 156.292 251.322 153.433 249.279 152.256L188.702 117.279Z" fill="#C4C2C0"/>
<path d="M144.86 79.5029C143.945 78.8927 143.196 78.0435 142.614 76.9552C142.032 75.8669 141.74 74.7561 141.74 73.6227C141.74 72.4894 142.032 71.7669 142.614 71.4552C143.196 71.1435 143.945 71.2927 144.86 71.9029C145.776 72.513 146.525 73.3623 147.107 74.4505C147.689 75.5388 147.981 76.6496 147.981 77.783C147.981 78.9163 147.689 79.6388 147.107 79.9505C146.525 80.2623 145.776 80.113 144.86 79.5029ZM143.654 67.2985C143.072 66.9102 142.766 66.3402 142.739 65.5884L142.531 61.2497C142.503 60.8645 142.475 60.546 142.448 60.2942C142.448 60.0609 142.448 59.8776 142.448 59.7442C142.448 59.1442 142.725 58.8791 143.28 58.9489L144.403 58.9978C146.15 59.096 147.384 58.8854 148.105 58.3662C148.827 57.8136 149.187 56.8706 149.187 55.5373C149.187 52.6706 147.759 50.2851 144.902 48.3806C143.571 47.4931 142.045 46.9261 140.326 46.6797C139.688 46.5878 139.286 46.4864 139.119 46.3754C138.676 46.0796 138.454 45.5983 138.454 44.9317V42.7317C138.454 42.2317 138.509 41.9353 138.62 41.8426C138.731 41.7166 139.022 41.6774 139.494 41.725C141.629 41.9821 143.751 42.8133 145.859 44.2185C148.383 45.9011 150.366 47.9731 151.808 50.4346C153.25 52.8961 153.971 55.4602 153.971 58.1268C153.971 60.3602 153.403 61.9311 152.266 62.8397C151.129 63.7483 149.298 64.0946 146.774 63.8787V68.2787C146.774 69.012 146.469 69.1753 145.859 68.7685L143.654 67.2985Z" fill="white"/>
</svg>
