<svg width="582" height="326" viewBox="0 0 582 326" fill="none" xmlns="http://www.w3.org/2000/svg">
<path d="M339.309 282.373C339.337 289.834 333.993 298.96 327.439 302.705L321.457 306.089L318.072 304.147L324.054 300.754C330.617 297.009 335.953 287.883 335.924 280.422C335.924 276.723 334.574 274.116 332.436 272.886L335.821 274.828C337.959 276.076 339.309 278.684 339.309 282.373Z" fill="#5B5E71"/>
<path d="M338.25 270.741C335.465 269.132 331.593 269.363 327.336 271.786L321.372 275.179L317.987 273.256L323.951 269.844C328.208 267.431 332.071 267.191 334.865 268.799L338.25 270.741Z" fill="#5B5E71"/>
<path d="M327.336 271.786C335.793 266.969 342.704 270.843 342.732 280.44C342.76 290.019 335.887 301.752 327.439 306.57L321.466 309.972L321.457 306.117L327.43 302.714C333.993 298.979 339.338 289.853 339.319 282.4C339.3 274.939 333.927 271.925 327.355 275.66L321.382 279.063L321.372 275.198L327.336 271.786Z" fill="#3F434F"/>
<path d="M325.441 268.91L325.413 278.84V278.887L325.32 311.359C325.32 307.975 323.06 304.609 318.54 302.067C309.548 296.926 294.912 296.926 285.976 302.067C281.841 304.434 279.61 307.494 279.319 310.601V310.675C279.291 310.86 279.291 311.072 279.291 311.285L279.413 268.79C279.413 265.452 281.644 262.105 286.098 259.544C295.043 254.422 309.68 254.422 318.662 259.544C323.2 262.133 325.46 265.517 325.441 268.91Z" fill="#45EF9D"/>
<path d="M325.423 278.84V278.887L325.329 311.359C325.329 307.975 323.069 304.609 318.55 302.066C309.558 296.926 294.921 296.926 285.986 302.066C281.851 304.433 279.619 307.494 279.328 310.601L279.422 279.46C279.422 276.122 281.654 272.775 286.108 270.214C295.053 265.091 309.689 265.091 318.672 270.214C322.872 272.609 325.132 275.687 325.423 278.84Z" fill="#E5A03C"/>
<path d="M327.861 268.929L327.739 311.433C327.73 315.131 325.273 318.82 320.36 321.631C310.477 327.29 294.331 327.29 284.382 321.631C279.375 318.783 276.872 315.03 276.881 311.285L277.003 268.781C276.994 272.525 279.488 276.27 284.504 279.127C294.453 284.786 310.599 284.786 320.482 279.127C325.395 276.316 327.851 272.627 327.861 268.929Z" fill="#45EF9D"/>
<path d="M320.369 258.582C330.317 264.241 330.383 273.459 320.491 279.127C310.608 284.786 294.462 284.786 284.514 279.127C274.556 273.459 274.518 264.241 284.392 258.582C294.284 252.915 310.411 252.905 320.369 258.582ZM286.201 278.156C295.212 283.288 309.821 283.279 318.766 278.147C327.711 273.016 327.683 264.676 318.672 259.544C309.661 254.412 295.043 254.412 286.089 259.544C277.144 264.676 277.191 273.034 286.201 278.156Z" fill="#74FDBB"/>
<path d="M6.4643 237.464C7.00148 237.133 7.77368 237.2 8.61302 237.663L104.439 293.427L246.518 211.988L158.543 160.826C157.704 160.33 149.086 155.733 148.549 156.031L6.4643 237.464Z" fill="#E4E8F4"/>
<path d="M104.439 293.427C104.853 293.68 105.199 294.03 105.444 294.446C105.69 294.861 105.829 295.33 105.849 295.81C105.849 296.241 105.681 296.539 105.446 296.671L247.531 215.271C247.766 215.106 247.9 214.808 247.9 214.41C247.918 213.927 247.776 213.451 247.497 213.053C247.266 212.627 246.931 212.263 246.524 211.994L104.439 293.427Z" fill="#CAD0DD"/>
<path d="M8.66912 237.62C6.99601 236.665 5.64184 237.432 5.63625 239.275C5.63065 241.157 6.97923 243.425 8.62995 244.368L104.517 296.551C105.267 296.954 105.871 296.617 105.871 295.762C105.871 295.326 105.726 294.824 105.468 294.41C105.232 293.987 104.894 293.627 104.484 293.362L8.66912 237.62Z" fill="#BAC1CE"/>
<path d="M143.301 166.897C142.685 167.25 142.713 167.796 143.295 168.133L146.205 169.799C146.537 169.973 146.908 170.064 147.285 170.064C147.661 170.064 148.032 169.973 148.365 169.799L154.637 166.229C155.253 165.876 155.258 165.346 154.643 164.993L151.733 163.327C151.399 163.156 151.029 163.067 150.653 163.067C150.277 163.067 149.907 163.156 149.573 163.327L143.301 166.897ZM149.215 170.285C148.6 170.638 148.628 171.184 149.21 171.521L155.471 175.107C155.805 175.278 156.175 175.366 156.551 175.366C156.927 175.366 157.297 175.278 157.631 175.107L163.904 171.537C164.519 171.184 164.491 170.638 163.909 170.301L157.648 166.715C157.313 166.546 156.943 166.458 156.568 166.458C156.192 166.458 155.822 166.546 155.488 166.715L149.215 170.285ZM105.216 188.582C104.629 188.913 104.629 189.481 105.211 189.818L108.121 191.484C108.454 191.655 108.825 191.743 109.201 191.743C109.576 191.743 109.947 191.655 110.281 191.484L116.587 187.898C117.174 187.567 117.174 187.031 116.564 186.678L113.655 185.012C113.326 184.844 112.961 184.754 112.591 184.751C112.22 184.749 111.854 184.832 111.523 184.995L105.216 188.582ZM114.746 183.152C114.13 183.505 114.158 184.052 114.74 184.388L117.65 186.055C117.983 186.229 118.353 186.32 118.73 186.32C119.106 186.32 119.477 186.229 119.81 186.055L126.083 182.485C126.698 182.132 126.704 181.602 126.088 181.249L123.179 179.582C122.845 179.412 122.474 179.323 122.099 179.323C121.723 179.323 121.352 179.412 121.019 179.582L114.746 183.152ZM121.623 185.994C121.007 186.347 121.035 186.893 121.617 187.23L127.879 190.817C128.213 190.987 128.583 191.076 128.959 191.076C129.335 191.076 129.705 190.987 130.039 190.817L136.312 187.247C136.927 186.893 136.899 186.347 136.317 186.011L130.056 182.424C129.721 182.255 129.351 182.168 128.976 182.168C128.6 182.168 128.23 182.255 127.896 182.424L121.623 185.994ZM95.687 194.006C95.0995 194.337 95.0995 194.905 95.6814 195.242L98.5912 196.908C98.9255 197.077 99.2956 197.165 99.6711 197.165C100.047 197.165 100.417 197.077 100.751 196.908L107.057 193.322C107.645 192.991 107.679 192.439 107.063 192.086L104.153 190.419C103.818 190.253 103.448 190.167 103.073 190.167C102.698 190.167 102.328 190.253 101.993 190.419L95.687 194.006ZM84.8315 206.94C84.2439 207.271 84.2439 207.839 84.8258 208.176L91.0874 211.763C91.4225 211.929 91.7923 212.015 92.1674 212.015C92.5424 212.015 92.9122 211.929 93.2473 211.763L99.5536 208.176C100.141 207.845 100.141 207.276 99.5592 206.94L93.2977 203.353C92.9618 203.19 92.5923 203.105 92.2177 203.105C91.8432 203.105 91.4736 203.19 91.1378 203.353L84.8315 206.94ZM67.1324 210.262C66.5448 210.598 66.5448 211.161 67.1268 211.498L70.0365 213.164C70.3703 213.334 70.7407 213.423 71.1165 213.423C71.4923 213.423 71.8626 213.334 72.1964 213.164L78.5028 209.577C79.0903 209.246 79.1239 208.695 78.5084 208.341L75.5986 206.675C75.2635 206.509 74.8937 206.423 74.5186 206.423C74.1436 206.423 73.7738 206.509 73.4387 206.675L67.1324 210.262ZM75.6266 212.182C75.039 212.518 75.067 213.065 75.649 213.401L81.9105 216.988C82.2394 217.156 82.604 217.245 82.9745 217.248C83.345 217.251 83.7109 217.168 84.0425 217.005L90.3488 213.418C90.9643 213.065 90.9363 212.518 90.3544 212.182L84.0928 208.595C83.7585 208.427 83.3884 208.339 83.0129 208.339C82.6374 208.339 82.2672 208.427 81.9329 208.595L75.6266 212.182ZM153.641 178.048C153.054 178.385 153.054 178.948 153.636 179.284L159.897 182.871C160.233 183.036 160.602 183.121 160.977 183.121C161.352 183.121 161.722 183.036 162.057 182.871L172.907 176.696C173.523 176.343 173.495 175.797 172.913 175.46L166.651 171.874C166.317 171.703 165.947 171.615 165.571 171.615C165.195 171.615 164.825 171.703 164.491 171.874L153.641 178.048ZM144.61 183.191C144.022 183.528 144.022 184.09 144.604 184.427L150.866 188.014C151.201 188.178 151.571 188.264 151.946 188.264C152.321 188.264 152.69 188.178 153.026 188.014L159.332 184.427C159.92 184.096 159.92 183.528 159.338 183.191L153.076 179.604C152.741 179.438 152.371 179.352 151.996 179.352C151.621 179.352 151.251 179.438 150.916 179.604L144.61 183.191ZM135.612 188.312C135.025 188.648 135.025 189.211 135.606 189.548L141.868 193.134C142.204 193.299 142.573 193.385 142.948 193.385C143.323 193.385 143.692 193.299 144.028 193.134L150.301 189.564C150.916 189.211 150.888 188.665 150.306 188.328L144.045 184.741C143.711 184.571 143.341 184.482 142.965 184.482C142.589 184.482 142.219 184.571 141.885 184.741L135.612 188.312ZM151.353 189.63C150.765 189.961 150.793 190.513 151.375 190.85L157.637 194.436C157.962 194.602 158.323 194.688 158.689 194.688C159.055 194.688 159.415 194.602 159.741 194.436L166.047 190.85C166.634 190.519 166.668 189.967 166.08 189.63L159.819 186.044C159.483 185.879 159.114 185.793 158.739 185.793C158.364 185.793 157.994 185.879 157.659 186.044L151.353 189.63ZM112.418 191.23C111.831 191.562 111.831 192.13 112.412 192.467L118.674 196.053C119.009 196.219 119.379 196.306 119.754 196.306C120.129 196.306 120.499 196.219 120.834 196.053L127.14 192.467C127.728 192.13 127.728 191.567 127.146 191.23L120.884 187.644C120.549 187.479 120.179 187.393 119.804 187.393C119.43 187.393 119.06 187.479 118.724 187.644L112.418 191.23ZM165.308 191.97C164.721 192.306 164.749 192.853 165.331 193.189L171.564 196.759C171.892 196.932 172.257 197.024 172.628 197.027C172.999 197.03 173.366 196.944 173.696 196.776L190.522 187.197C191.11 186.866 191.143 186.314 190.528 185.961L184.294 182.391C183.959 182.225 183.589 182.138 183.214 182.138C182.839 182.138 182.47 182.225 182.134 182.391L165.308 191.97ZM126.407 193.554C125.82 193.885 125.82 194.453 126.402 194.79L132.663 198.376C132.999 198.541 133.368 198.627 133.743 198.627C134.118 198.627 134.488 198.541 134.823 198.376L141.129 194.79C141.717 194.453 141.717 193.89 141.135 193.554L134.873 189.967C134.538 189.801 134.168 189.714 133.793 189.714C133.418 189.714 133.049 189.801 132.714 189.967L126.407 193.554ZM142.355 194.756C141.767 195.087 141.767 195.656 142.349 195.992L148.611 199.579C148.942 199.742 149.308 199.826 149.679 199.823C150.049 199.82 150.414 199.731 150.743 199.562L157.049 195.976C157.637 195.645 157.67 195.093 157.083 194.756L150.821 191.17C150.486 191.005 150.116 190.919 149.741 190.919C149.366 190.919 148.997 191.005 148.661 191.17L142.355 194.756ZM103.213 196.472C102.626 196.804 102.654 197.355 103.236 197.692L109.497 201.279C109.826 201.447 110.191 201.536 110.561 201.539C110.932 201.542 111.298 201.458 111.629 201.295L117.935 197.708C118.523 197.377 118.523 196.809 117.941 196.472L111.679 192.886C111.344 192.721 110.974 192.635 110.599 192.635C110.225 192.635 109.855 192.721 109.52 192.886L103.213 196.472ZM155.521 197.206C154.906 197.56 154.934 198.106 155.516 198.442L161.777 202.029C162.111 202.199 162.482 202.288 162.857 202.288C163.233 202.288 163.604 202.199 163.937 202.029L170.21 198.459C170.798 198.128 170.798 197.56 170.216 197.223L163.954 193.636C163.619 193.472 163.249 193.386 162.874 193.386C162.499 193.386 162.13 193.472 161.794 193.636L155.521 197.206ZM117.23 198.779C116.615 199.132 116.643 199.678 117.225 200.015L123.486 203.602C123.821 203.77 124.191 203.858 124.566 203.858C124.942 203.858 125.312 203.77 125.646 203.602L131.919 200.032C132.506 199.7 132.506 199.132 131.925 198.796L125.663 195.209C125.328 195.043 124.958 194.956 124.583 194.956C124.208 194.956 123.838 195.043 123.503 195.209L117.23 198.779ZM133.144 199.998C132.557 200.329 132.557 200.898 133.139 201.234L139.4 204.821C139.732 204.984 140.098 205.068 140.468 205.065C140.839 205.062 141.203 204.973 141.532 204.804L147.839 201.218C148.426 200.887 148.46 200.335 147.872 199.998L141.611 196.412C141.275 196.247 140.905 196.161 140.531 196.161C140.156 196.161 139.786 196.247 139.451 196.412L133.144 199.998ZM167.099 201.532C166.511 201.863 166.478 202.415 167.093 202.768L174.11 206.791C174.445 206.957 174.815 207.043 175.19 207.043C175.565 207.043 175.935 206.957 176.27 206.791L182.543 203.221C183.158 202.868 183.13 202.321 182.548 201.985L175.532 197.962C175.199 197.788 174.828 197.697 174.452 197.697C174.075 197.697 173.704 197.788 173.372 197.962L167.099 201.532ZM146.311 202.448C145.695 202.801 145.723 203.348 146.305 203.684L152.567 207.271C152.901 207.441 153.271 207.53 153.647 207.53C154.023 207.53 154.393 207.441 154.727 207.271L161 203.701C161.615 203.348 161.587 202.801 161.005 202.465L154.744 198.878C154.409 198.71 154.039 198.622 153.664 198.622C153.288 198.622 152.918 198.71 152.584 198.878L146.311 202.448ZM108.02 204.021C107.404 204.374 107.432 204.92 108.014 205.257L114.276 208.844C114.61 209.012 114.98 209.1 115.356 209.1C115.731 209.1 116.101 209.012 116.436 208.844L122.708 205.273C123.324 204.92 123.296 204.374 122.714 204.037L116.453 200.451C116.119 200.281 115.748 200.192 115.373 200.192C114.997 200.192 114.626 200.281 114.293 200.451L108.02 204.021ZM123.973 205.224C123.358 205.577 123.386 206.123 123.967 206.46L130.229 210.046C130.559 210.214 130.926 210.3 131.297 210.297C131.668 210.294 132.034 210.203 132.361 210.03L138.634 206.46C139.249 206.107 139.255 205.577 138.667 205.24L132.406 201.654C132.071 201.485 131.701 201.397 131.326 201.397C130.95 201.397 130.58 201.485 130.246 201.654L123.973 205.224ZM137.106 207.69C136.519 208.021 136.519 208.59 137.101 208.926L143.362 212.513C143.697 212.679 144.067 212.765 144.442 212.765C144.817 212.765 145.187 212.679 145.522 212.513L151.828 208.926C152.416 208.59 152.416 208.027 151.834 207.69L145.572 204.104C145.237 203.939 144.867 203.853 144.492 203.853C144.118 203.853 143.748 203.939 143.412 204.104L137.106 207.69ZM155.924 207.895C155.337 208.231 155.337 208.761 155.947 209.114L162.964 213.136C163.293 213.305 163.657 213.394 164.028 213.397C164.398 213.4 164.764 213.316 165.096 213.153L173.394 208.43C173.982 208.099 173.982 207.53 173.4 207.194L166.383 203.171C166.049 203.001 165.678 202.912 165.303 202.912C164.927 202.912 164.556 203.001 164.223 203.171L155.924 207.895ZM98.815 209.263C98.2275 209.594 98.2275 210.162 98.8094 210.499L105.071 214.086C105.406 214.25 105.776 214.336 106.151 214.336C106.526 214.336 106.895 214.25 107.231 214.086L113.537 210.499C114.125 210.168 114.125 209.6 113.543 209.263L107.281 205.676C106.946 205.51 106.576 205.424 106.201 205.424C105.826 205.424 105.456 205.51 105.121 205.676L98.815 209.263ZM114.763 210.46C114.175 210.797 114.175 211.36 114.757 211.696L121.019 215.283C121.35 215.446 121.716 215.53 122.087 215.527C122.457 215.524 122.822 215.435 123.151 215.266L129.457 211.68C130.044 211.343 130.078 210.797 129.49 210.46L123.229 206.874C122.893 206.709 122.524 206.623 122.149 206.623C121.774 206.623 121.404 206.709 121.069 206.874L114.763 210.46ZM127.901 212.932C127.314 213.269 127.314 213.832 127.896 214.168L134.157 217.755C134.492 217.921 134.862 218.007 135.237 218.007C135.612 218.007 135.982 217.921 136.317 217.755L142.623 214.168C143.211 213.832 143.211 213.269 142.629 212.932L136.367 209.346C136.032 209.181 135.662 209.095 135.288 209.095C134.913 209.095 134.543 209.181 134.208 209.346L127.901 212.932ZM57.603 215.686C57.0154 216.017 57.0154 216.585 57.5974 216.922L60.5071 218.588C60.8409 218.758 61.2112 218.847 61.5871 218.847C61.9629 218.847 62.3332 218.758 62.667 218.588L68.9733 215.002C69.5609 214.665 69.5945 214.119 68.9789 213.766L66.0692 212.099C65.7341 211.933 65.3643 211.847 64.9892 211.847C64.6142 211.847 64.2444 211.933 63.9093 212.099L57.603 215.686ZM89.6101 214.505C89.0226 214.842 89.0506 215.388 89.6325 215.724L95.8941 219.311C96.2233 219.478 96.5878 219.567 96.958 219.569C97.3283 219.572 97.6941 219.489 98.026 219.328L104.332 215.741C104.948 215.388 104.92 214.842 104.338 214.505L98.0764 210.918C97.7426 210.748 97.3722 210.659 96.9964 210.659C96.6206 210.659 96.2502 210.748 95.9165 210.918L89.6101 214.505ZM105.586 215.686C104.97 216.039 104.998 216.585 105.58 216.922L111.842 220.508C112.172 220.676 112.538 220.762 112.91 220.759C113.281 220.756 113.646 220.665 113.974 220.492L120.246 216.922C120.834 216.585 120.868 216.039 120.28 215.702L114.018 212.116C113.683 211.951 113.313 211.865 112.938 211.865C112.564 211.865 112.194 211.951 111.858 212.116L105.586 215.686ZM66.4497 217.407C65.8342 217.76 65.8621 218.307 66.4441 218.643L72.7056 222.23C73.0394 222.4 73.4098 222.489 73.7856 222.489C74.1614 222.489 74.5318 222.4 74.8656 222.23L81.1383 218.66C81.7538 218.307 81.7259 217.76 81.1439 217.424L74.8824 213.837C74.548 213.669 74.1779 213.581 73.8024 213.581C73.4269 213.581 73.0568 213.669 72.7224 213.837L66.4497 217.407ZM118.724 218.158C118.109 218.511 118.137 219.057 118.719 219.394L124.98 222.98C125.314 223.151 125.684 223.24 126.06 223.24C126.436 223.24 126.806 223.151 127.14 222.98L133.413 219.41C134.028 219.057 134.001 218.511 133.419 218.174L127.157 214.588C126.823 214.419 126.453 214.331 126.077 214.331C125.702 214.331 125.331 214.419 124.997 214.588L118.724 218.158ZM48.1015 221.093C47.486 221.446 47.514 221.993 48.0959 222.329L51.0057 223.996C51.3383 224.17 51.7091 224.261 52.0856 224.261C52.4622 224.261 52.833 224.17 53.1656 223.996L59.4383 220.426C60.0539 220.072 60.0594 219.543 59.4439 219.19L56.5342 217.523C56.2004 217.353 55.8301 217.264 55.4542 217.264C55.0784 217.264 54.7081 217.353 54.3743 217.523L48.1015 221.093ZM80.4332 219.725C79.8457 220.056 79.8457 220.624 80.4277 220.961L86.6892 224.547C87.0247 224.712 87.3944 224.798 87.7692 224.798C88.144 224.798 88.5136 224.712 88.8491 224.547L95.1219 220.977C95.7374 220.624 95.7094 220.078 95.1275 219.741L88.8659 216.155C88.5321 215.984 88.1618 215.896 87.786 215.896C87.4101 215.896 87.0398 215.984 86.706 216.155L80.4332 219.725ZM96.3809 220.928C95.7654 221.281 95.7933 221.827 96.3753 222.164L102.637 225.75C102.967 225.918 103.334 226.004 103.705 226.001C104.076 225.998 104.441 225.907 104.769 225.734L111.042 222.164C111.657 221.811 111.663 221.281 111.075 220.944L104.814 217.358C104.479 217.189 104.109 217.101 103.734 217.101C103.358 217.101 102.988 217.189 102.654 217.358L96.3809 220.928ZM57.2392 222.649C56.6517 222.98 56.6517 223.549 57.2336 223.885L63.4952 227.472C63.8303 227.638 64.2001 227.724 64.5751 227.724C64.9502 227.724 65.32 227.638 65.6551 227.472L71.9614 223.885C72.549 223.549 72.549 222.986 71.967 222.649L65.7055 219.063C65.37 218.898 65.0003 218.812 64.6255 218.812C64.2507 218.812 63.8811 218.898 63.5456 219.063L57.2392 222.649ZM109.52 223.4C108.932 223.736 108.932 224.299 109.514 224.636L115.775 228.222C116.111 228.388 116.48 228.475 116.855 228.475C117.23 228.475 117.6 228.388 117.935 228.222L124.242 224.636C124.829 224.299 124.801 223.753 124.219 223.416L117.958 219.83C117.628 219.663 117.264 219.574 116.894 219.571C116.524 219.568 116.158 219.651 115.826 219.813L109.52 223.4ZM38.5777 226.523C37.9902 226.859 37.9902 227.422 38.5721 227.759L41.4819 229.425C41.8157 229.596 42.186 229.684 42.5618 229.684C42.9377 229.684 43.308 229.596 43.6418 229.425L49.9481 225.839C50.5356 225.502 50.5356 224.972 49.9257 224.619L47.016 222.953C46.6871 222.785 46.3225 222.695 45.952 222.692C45.5815 222.69 45.2156 222.773 44.884 222.936L38.5777 226.523ZM71.2284 224.967C70.6408 225.303 70.6408 225.866 71.2228 226.203L77.4843 229.789C77.8198 229.954 78.1895 230.04 78.5643 230.04C78.9391 230.04 79.3088 229.954 79.6443 229.789L85.9506 226.203C86.5381 225.866 86.5381 225.303 85.9562 224.967L79.6946 221.38C79.3595 221.214 78.9897 221.128 78.6147 221.128C78.2397 221.128 77.8698 221.214 77.5347 221.38L71.2284 224.967ZM87.176 226.17C86.5885 226.501 86.5885 227.069 87.1704 227.406L93.432 230.992C93.7635 231.156 94.1295 231.239 94.5 231.236C94.8705 231.233 95.235 231.144 95.5639 230.976L101.87 227.389C102.458 227.053 102.491 226.506 101.904 226.17L95.6423 222.583C95.3068 222.418 94.9371 222.333 94.5623 222.333C94.1875 222.333 93.8178 222.418 93.4823 222.583L87.176 226.17ZM48.0624 227.869C47.4468 228.222 47.4748 228.769 48.0568 229.105L54.3183 232.692C54.6521 232.862 55.0224 232.951 55.3983 232.951C55.7741 232.951 56.1444 232.862 56.4782 232.692L62.751 229.122C63.3385 228.785 63.3385 228.222 62.7566 227.886L56.495 224.299C56.1595 224.134 55.7899 224.049 55.4151 224.049C55.0403 224.049 54.6706 224.134 54.3351 224.299L48.0624 227.869ZM100.309 228.642C99.7215 228.973 99.7495 229.525 100.331 229.861L106.593 233.448C106.922 233.616 107.286 233.705 107.657 233.708C108.027 233.711 108.393 233.628 108.725 233.464L115.031 229.878C115.619 229.547 115.619 228.978 115.037 228.642L108.775 225.055C108.44 224.89 108.07 224.805 107.695 224.805C107.321 224.805 106.951 224.89 106.615 225.055L100.309 228.642ZM29.0483 231.947C28.4608 232.284 28.4608 232.846 29.0427 233.183L31.9525 234.849C32.2862 235.02 32.6566 235.109 33.0324 235.109C33.4082 235.109 33.7786 235.02 34.1124 234.849L40.4187 231.263C41.0062 230.926 41.0398 230.38 40.4243 230.027L37.5145 228.36C37.1794 228.194 36.8096 228.108 36.4346 228.108C36.0596 228.108 35.6897 228.194 35.3546 228.36L29.0483 231.947ZM62.0515 230.192C61.436 230.545 61.464 231.092 62.0459 231.428L68.3075 235.015C68.6418 235.183 69.0119 235.271 69.3874 235.271C69.7629 235.271 70.133 235.183 70.4674 235.015L76.7401 231.445C77.3277 231.114 77.3277 230.545 76.7457 230.209L70.4842 226.622C70.149 226.456 69.7792 226.37 69.4042 226.37C69.0292 226.37 68.6594 226.456 68.3243 226.622L62.0515 230.192ZM77.9712 231.412C77.3836 231.748 77.3836 232.311 77.9656 232.648L84.2271 236.234C84.5586 236.397 84.9246 236.481 85.2951 236.478C85.6656 236.475 86.0302 236.386 86.3591 236.218L92.6654 232.631C93.2529 232.3 93.2865 231.748 92.6989 231.412L86.4374 227.825C86.1015 227.662 85.732 227.577 85.3574 227.577C84.9829 227.577 84.6133 227.662 84.2775 227.825L77.9712 231.412ZM39.0366 233.012C38.449 233.348 38.449 233.911 39.031 234.248L45.2925 237.835C45.6276 238.001 45.9975 238.087 46.3725 238.087C46.7475 238.087 47.1173 238.001 47.4524 237.835L53.7587 234.248C54.3463 233.917 54.3463 233.348 53.7643 233.012L47.5028 229.425C47.1673 229.261 46.7976 229.175 46.4228 229.175C46.048 229.175 45.6784 229.261 45.3429 229.425L39.0366 233.012ZM110.012 234.033C109.424 234.369 109.391 234.916 110.006 235.269L117.023 239.291C117.358 239.457 117.728 239.544 118.103 239.544C118.478 239.544 118.848 239.457 119.183 239.291L162.018 214.902C162.606 214.566 162.606 214.003 162.024 213.666L155.007 209.644C154.673 209.473 154.302 209.384 153.927 209.384C153.551 209.384 153.181 209.473 152.847 209.644L110.012 234.033ZM52.8466 235.434C52.2311 235.787 52.2591 236.334 52.841 236.67L59.1026 240.257C59.4369 240.425 59.8071 240.513 60.1826 240.513C60.558 240.513 60.9282 240.425 61.2625 240.257L67.5688 236.67C68.1564 236.334 68.1284 235.787 67.5465 235.451L61.2849 231.864C60.956 231.696 60.5914 231.607 60.2209 231.604C59.8504 231.601 59.4845 231.684 59.153 231.848L52.8466 235.434ZM68.7943 236.637C68.1788 236.99 68.2067 237.537 68.7887 237.873L75.0502 241.46C75.3804 241.627 75.7469 241.713 76.1183 241.711C76.4896 241.708 76.8547 241.616 77.1822 241.443L83.4549 237.873C84.0704 237.52 84.076 236.99 83.4885 236.654L77.2269 233.067C76.8926 232.899 76.5225 232.811 76.147 232.811C75.7715 232.811 75.4013 232.899 75.067 233.067L68.7943 236.637ZM81.9273 239.104C81.3398 239.44 81.3398 240.003 81.9217 240.34L88.1833 243.926C88.5184 244.092 88.8882 244.179 89.2632 244.179C89.6382 244.179 90.008 244.092 90.3432 243.926L96.6495 240.34C97.237 240.009 97.237 239.44 96.6551 239.104L90.3935 235.517C90.058 235.352 89.6884 235.267 89.3136 235.267C88.9388 235.267 88.5691 235.352 88.2336 235.517L81.9273 239.104ZM43.6362 240.676C43.0486 241.013 43.0486 241.576 43.6306 241.912L49.8921 245.499C50.2276 245.664 50.5973 245.749 50.9721 245.749C51.3469 245.749 51.7166 245.664 52.0521 245.499L58.3584 241.912C58.9459 241.581 58.9459 241.013 58.364 240.676L52.1024 237.09C51.7673 236.924 51.3975 236.837 51.0225 236.837C50.6474 236.837 50.2776 236.924 49.9425 237.09L43.6362 240.676ZM25.4279 240.759C24.8404 241.096 24.8683 241.642 25.4503 241.978L31.7118 245.565C32.0407 245.733 32.4053 245.823 32.7758 245.825C33.1463 245.828 33.5122 245.745 33.8438 245.582L44.7217 239.391C45.3093 239.06 45.3093 238.491 44.7273 238.155L38.4658 234.568C38.1299 234.404 37.7604 234.319 37.3858 234.319C37.0113 234.319 36.6417 234.404 36.3059 234.568L25.4279 240.759ZM98.7535 240.439C98.1659 240.776 98.1323 241.322 98.7479 241.675L105.765 245.698C106.1 245.862 106.47 245.948 106.845 245.948C107.22 245.948 107.589 245.862 107.925 245.698L116.195 240.991C116.811 240.638 116.783 240.091 116.201 239.755L109.184 235.732C108.851 235.558 108.48 235.467 108.104 235.467C107.727 235.467 107.356 235.558 107.024 235.732L98.7535 240.439ZM59.5838 241.879C58.9963 242.21 58.9963 242.779 59.5782 243.115L65.8398 246.702C66.1713 246.865 66.5373 246.948 66.9078 246.946C67.2783 246.943 67.6428 246.854 67.9717 246.685L74.278 243.099C74.8656 242.768 74.8992 242.216 74.3116 241.879L68.0501 238.293C67.7142 238.129 67.3447 238.044 66.9701 238.044C66.5955 238.044 66.226 238.129 65.8901 238.293L59.5838 241.879ZM72.7504 244.329C72.1349 244.682 72.1629 245.228 72.7448 245.565L79.0064 249.152C79.3402 249.322 79.7105 249.411 80.0863 249.411C80.4621 249.411 80.8325 249.322 81.1663 249.152L87.439 245.582C88.0546 245.228 88.0266 244.682 87.4446 244.346L81.1831 240.759C80.8487 240.59 80.4786 240.503 80.1031 240.503C79.7276 240.503 79.3575 240.59 79.0231 240.759L72.7504 244.329ZM34.4313 245.918C33.8438 246.255 33.8718 246.801 34.4537 247.138L40.7152 250.724C41.0445 250.891 41.409 250.98 41.7792 250.983C42.1495 250.986 42.5153 250.903 42.8472 250.741L49.1535 247.154C49.769 246.801 49.7411 246.255 49.1591 245.918L42.8976 242.332C42.5638 242.161 42.1934 242.072 41.8176 242.072C41.4418 242.072 41.0714 242.161 40.7376 242.332L34.4313 245.918ZM89.1065 245.935C88.491 246.288 88.4854 246.818 89.1009 247.171L96.1179 251.193C96.4517 251.364 96.822 251.453 97.1979 251.453C97.5737 251.453 97.944 251.364 98.2778 251.193L104.73 247.518C105.317 247.187 105.317 246.619 104.735 246.282L97.7183 242.26C97.3845 242.09 97.0141 242.001 96.6383 242.001C96.2625 242.001 95.8921 242.09 95.5583 242.26L89.1065 245.935ZM43.5802 250.989C42.9927 251.32 42.9927 251.889 43.5746 252.225L49.8362 255.812C50.1677 255.975 50.5337 256.058 50.9042 256.056C51.2747 256.053 51.6393 255.964 51.9681 255.795L64.9836 248.385C65.5992 248.032 65.6048 247.502 65.0172 247.165L58.7557 243.579C58.4213 243.41 58.0512 243.322 57.6757 243.322C57.3002 243.322 56.9301 243.41 56.5957 243.579L43.5802 250.989ZM83.9249 253.478C83.3094 253.831 83.3038 254.361 83.9194 254.714L86.9186 256.435C87.2524 256.606 87.6228 256.695 87.9986 256.695C88.3744 256.695 88.7448 256.606 89.0786 256.435L95.5304 252.76C96.1459 252.407 96.1179 251.861 95.5359 251.524L92.5367 249.803C92.204 249.629 91.8332 249.538 91.4567 249.538C91.0802 249.538 90.7094 249.629 90.3767 249.803L83.9249 253.478ZM52.5781 256.148C51.9905 256.485 51.9905 257.048 52.5725 257.384L58.806 260.954C59.1398 261.125 59.5102 261.214 59.886 261.214C60.2618 261.214 60.6321 261.125 60.9659 260.954L78.5307 250.956C79.1183 250.619 79.1519 250.073 78.5363 249.72L72.3028 246.15C71.9673 245.985 71.5976 245.9 71.2228 245.9C70.848 245.9 70.4783 245.985 70.1428 246.15L52.5781 256.148ZM70.6968 256.413C70.1093 256.744 70.0757 257.296 70.6912 257.649L77.7082 261.672C78.0433 261.838 78.4131 261.924 78.7881 261.924C79.1631 261.924 79.533 261.838 79.8681 261.672L86.3479 257.98C86.9354 257.649 86.9354 257.081 86.3535 256.744L79.3365 252.722C79.0027 252.551 78.6324 252.463 78.2565 252.463C77.8807 252.463 77.5104 252.551 77.1766 252.722L70.6968 256.413ZM65.4201 264.011C64.8046 264.365 64.799 264.894 65.4145 265.247L68.4138 266.969C68.7476 267.139 69.1179 267.228 69.4937 267.228C69.8696 267.228 70.2399 267.139 70.5737 266.969L77.0255 263.294C77.641 262.941 77.613 262.395 77.0311 262.058L74.0318 260.336C73.6992 260.163 73.3284 260.072 72.9519 260.072C72.5753 260.072 72.2045 260.163 71.8719 260.336L65.4201 264.011ZM160.474 184.438C159.886 184.769 159.886 185.337 160.468 185.674L166.73 189.261C167.061 189.424 167.427 189.507 167.798 189.504C168.168 189.502 168.533 189.412 168.861 189.244L181.877 181.834C182.493 181.48 182.498 180.951 181.911 180.614L175.649 177.027C175.315 176.859 174.945 176.771 174.569 176.771C174.194 176.771 173.823 176.859 173.489 177.027L160.474 184.438ZM124.247 177.745C123.66 178.076 123.688 178.628 124.27 178.964L127.179 180.631C127.507 180.803 127.872 180.895 128.243 180.898C128.615 180.901 128.981 180.815 129.311 180.647L135.618 177.061C136.205 176.729 136.239 176.178 135.623 175.825L132.714 174.158C132.378 173.992 132.009 173.906 131.634 173.906C131.259 173.906 130.889 173.992 130.554 174.158L124.247 177.745ZM133.771 172.321C133.184 172.652 133.184 173.22 133.766 173.557L136.675 175.223C137.009 175.393 137.379 175.482 137.755 175.482C138.131 175.482 138.501 175.393 138.835 175.223L145.141 171.636C145.729 171.3 145.763 170.754 145.147 170.4L142.237 168.734C141.902 168.568 141.532 168.482 141.157 168.482C140.782 168.482 140.413 168.568 140.077 168.734L133.771 172.321ZM130.8 180.769C130.212 181.1 130.212 181.668 130.794 182.005L137.056 185.591C137.391 185.757 137.761 185.844 138.136 185.844C138.511 185.844 138.881 185.757 139.216 185.591L145.522 182.005C146.11 181.674 146.11 181.105 145.528 180.769L139.266 177.182C138.93 177.018 138.561 176.933 138.186 176.933C137.812 176.933 137.442 177.018 137.106 177.182L130.8 180.769ZM140.01 175.527C139.423 175.858 139.423 176.426 140.005 176.763L146.266 180.349C146.601 180.515 146.971 180.602 147.346 180.602C147.721 180.602 148.091 180.515 148.426 180.349L154.732 176.763C155.32 176.432 155.32 175.863 154.738 175.527L148.476 171.94C148.141 171.775 147.771 171.69 147.397 171.69C147.022 171.69 146.652 171.775 146.317 171.94L140.01 175.527ZM185.419 191.098C184.832 191.429 184.798 191.981 185.413 192.334L192.43 196.357C192.766 196.521 193.136 196.607 193.51 196.607C193.885 196.607 194.255 196.521 194.59 196.357L200.897 192.77C201.484 192.439 201.456 191.887 200.874 191.551L193.857 187.528C193.53 187.355 193.165 187.264 192.793 187.261C192.422 187.258 192.056 187.344 191.725 187.511L185.419 191.098ZM176.242 196.323C175.655 196.66 175.621 197.206 176.237 197.559L183.254 201.582C183.589 201.748 183.958 201.834 184.333 201.834C184.709 201.834 185.078 201.748 185.413 201.582L191.72 197.995C192.307 197.664 192.307 197.096 191.725 196.759L184.708 192.737C184.375 192.567 184.004 192.478 183.628 192.478C183.253 192.478 182.882 192.567 182.548 192.737L176.242 196.323ZM76.6618 204.838C76.0463 205.191 76.0742 205.737 76.6562 206.074L79.5659 207.74C79.8986 207.914 80.2694 208.005 80.6459 208.005C81.0224 208.005 81.3932 207.914 81.7259 207.74L87.9986 204.17C88.6141 203.817 88.6197 203.287 88.0042 202.934L85.0944 201.268C84.7606 201.097 84.3903 201.008 84.0145 201.008C83.6386 201.008 83.2683 201.097 82.9345 201.268L76.6618 204.838ZM86.1912 199.414C85.5757 199.767 85.6036 200.313 86.1856 200.65L89.0953 202.316C89.428 202.49 89.7988 202.581 90.1753 202.581C90.5518 202.581 90.9226 202.49 91.2553 202.316L97.528 198.746C98.1156 198.409 98.1491 197.863 97.5336 197.51L94.6239 195.843C94.2887 195.677 93.9189 195.591 93.5439 195.591C93.1689 195.591 92.799 195.677 92.4639 195.843L86.1912 199.414ZM94.0363 201.698C93.4208 202.051 93.4488 202.597 94.0307 202.934L100.292 206.521C100.626 206.691 100.996 206.78 101.372 206.78C101.748 206.78 102.118 206.691 102.452 206.521L108.725 202.95C109.34 202.597 109.312 202.051 108.731 201.714L102.469 198.128C102.135 197.959 101.764 197.871 101.389 197.871C101.014 197.871 100.643 197.959 100.309 198.128L94.0363 201.698ZM19.5189 237.371C18.9313 237.708 18.9593 238.254 19.5413 238.59L22.451 240.257C22.7785 240.43 23.1436 240.521 23.5149 240.524C23.8863 240.527 24.2528 240.441 24.583 240.273L30.8893 236.687C31.5048 236.334 31.5104 235.804 30.8949 235.451L27.9851 233.784C27.6513 233.614 27.281 233.525 26.9052 233.525C26.5293 233.525 26.159 233.614 25.8252 233.784L19.5189 237.371ZM91.1322 233.867C90.5166 234.22 90.5446 234.767 91.1266 235.103L97.3881 238.69C97.7219 238.86 98.0922 238.949 98.4681 238.949C98.8439 238.949 99.2142 238.86 99.548 238.69L105.821 235.12C106.436 234.767 106.408 234.22 105.826 233.884L99.5648 230.297C99.2305 230.129 98.8604 230.041 98.4849 230.041C98.1094 230.041 97.7392 230.129 97.4049 230.297L91.1322 233.867Z" fill="#5B5E71"/>
<path d="M122.591 243.988C122.003 244.319 121.97 244.87 122.585 245.224L148.594 259.851C148.929 260.017 149.299 260.104 149.674 260.104C150.049 260.104 150.419 260.017 150.754 259.851L193.589 235.462C194.176 235.131 194.176 234.563 193.594 234.226L167.586 219.599C167.252 219.428 166.881 219.339 166.506 219.339C166.13 219.339 165.76 219.428 165.426 219.599L122.591 243.988Z" fill="#BAC1CE"/>
<path d="M8.76393 126.301C8.18347 126.674 7.70051 127.177 7.35434 127.768C7.00817 128.36 6.8086 129.024 6.77188 129.706L7.05166 226.285C7.05725 227.532 7.95816 228.04 9.0605 227.411L143.776 150.712C144.361 150.344 144.847 149.842 145.193 149.25C145.54 148.657 145.737 147.991 145.768 147.308L145.488 50.7284C145.483 49.4593 144.604 48.9627 143.479 49.6028L8.76393 126.301Z" fill="#6EBA6E"/>
<path d="M0.560792 130.33L0.85737 226.926C0.85737 228.681 1.47849 229.911 2.4913 230.496L5.04291 231.959C4.03569 231.374 3.38099 230.143 3.38099 228.355L3.11242 131.792C3.11242 128.222 5.63606 123.946 8.75284 122.158L143.468 45.4762C145.041 44.5657 146.468 44.483 147.508 45.0679L144.957 43.6001C143.95 43.0152 142.523 43.1035 140.917 44.0084L6.20121 120.69C3.08443 122.484 0.560792 126.76 0.560792 130.33Z" fill="#5B5E71"/>
<path d="M8.75288 122.164C5.6417 123.935 3.10127 128.228 3.11246 131.798L3.39224 228.377C3.40343 231.942 5.95505 233.338 9.06624 231.567L143.782 154.868C146.932 153.075 149.433 148.804 149.422 145.234L149.142 48.6543C149.131 45.0898 146.619 43.6717 143.468 45.465L8.75288 122.164ZM7.04621 226.291L6.76643 129.712C6.8027 129.03 7.00208 128.366 7.34829 127.774C7.6945 127.182 8.17771 126.68 8.75848 126.307L143.474 49.6089C144.599 48.9688 145.483 49.4655 145.488 50.7346L145.768 147.314C145.738 147.998 145.541 148.664 145.194 149.256C144.847 149.849 144.361 150.351 143.776 150.719L9.06065 227.417C7.95271 228.046 7.0518 227.539 7.04621 226.291Z" fill="#474B59"/>
<path d="M119.636 166.82C120.028 166.593 120.571 166.627 121.164 166.969C121.788 167.368 122.307 167.907 122.68 168.542C123.052 169.176 123.267 169.889 123.307 170.621C123.301 171.289 123.061 171.758 122.68 171.979L138.298 163.029C138.684 162.803 138.924 162.339 138.924 161.666C138.886 160.934 138.673 160.221 138.301 159.586C137.93 158.951 137.411 158.412 136.787 158.013C136.188 157.677 135.651 157.643 135.259 157.87L119.636 166.82Z" fill="#CAD0DD"/>
<path d="M121.169 166.969C121.793 167.367 122.312 167.906 122.684 168.541C123.056 169.176 123.269 169.889 123.307 170.622C123.301 171.968 122.345 172.509 121.153 171.83C120.529 171.431 120.009 170.892 119.637 170.257C119.264 169.622 119.049 168.909 119.01 168.177C119.021 166.836 119.983 166.296 121.169 166.969Z" fill="#B2B2B2"/>
<path d="M23.8442 222.247C24.2359 222.021 24.7787 222.054 25.3718 222.396C25.9958 222.795 26.5152 223.334 26.8877 223.969C27.2601 224.604 27.4751 225.316 27.515 226.049C27.5094 226.716 27.2687 227.185 26.8882 227.406L42.5057 218.456C42.8918 218.23 43.1324 217.766 43.1324 217.093C43.0945 216.361 42.881 215.648 42.5094 215.013C42.1378 214.378 41.6188 213.839 40.9949 213.44C40.3962 213.104 39.859 213.071 39.4673 213.297L23.8442 222.247Z" fill="#CAD0DD"/>
<path d="M25.3774 222.395C26.0012 222.794 26.5202 223.333 26.8918 223.968C27.2634 224.603 27.477 225.316 27.5149 226.048C27.5093 227.395 26.5524 227.935 25.3606 227.257C24.1743 226.584 23.2174 224.95 23.2174 223.604C23.2174 222.258 24.1911 221.717 25.3774 222.395Z" fill="#BAC1CE"/>
<path d="M63.3609 139.396C63.3777 145.554 65.5208 149.885 69.0405 151.977C71.7656 153.66 75.3188 153.947 79.3141 152.606C80.7836 152.131 82.1964 151.5 83.5276 150.724C84.8706 149.952 86.2136 149.058 87.5006 148.02C91.4735 144.853 95.0155 140.593 97.7574 135.87C101.35 129.696 103.549 122.804 103.532 116.541C103.499 103.96 94.4951 98.8947 83.4045 105.213C72.3083 111.514 63.3217 126.832 63.3609 139.396Z" fill="#9AD898"/>
<path d="M79.4651 121.275C78.2732 122.379 77.6129 129.105 77.2995 129.287C77.1932 129.221 77.0309 128.824 76.8575 128.2C76.6664 128.565 76.5594 128.966 76.5441 129.376C76.4322 130.579 76.3203 132.162 77.0533 131.743C77.1515 131.682 77.2434 131.612 77.3275 131.533C77.3611 131.627 77.9878 133.393 79.2748 134.651C80.2876 135.639 81.6809 136.262 83.4548 135.33C85.1223 134.303 86.4484 132.284 87.4333 130.27C88.8266 127.422 89.4925 124.724 89.5316 124.586C89.6287 124.571 89.7218 124.537 89.8059 124.487C90.5389 124.068 90.4214 122.611 90.3151 121.535C90.2255 120.746 89.9849 120.674 89.8338 120.713C89.7499 121.071 89.6883 121.275 89.6883 121.287C89.8003 119.984 89.2519 117.937 88.7091 117.198C87.6067 118.71 86.4317 119.697 85.3013 120.343C82.2125 122.098 79.6049 121.32 79.4651 121.275Z" fill="#F6CBB8"/>
<path d="M87.4501 133.354L87.4445 134.976C87.4501 136.719 86.2022 138.855 84.6634 139.732L82.0783 141.205C80.5395 142.083 79.2916 141.371 79.286 139.622L79.2804 138.005L79.3084 152.616C80.7738 152.136 82.1842 151.505 83.5163 150.735C84.911 149.936 86.2394 149.03 87.4893 148.026L87.4501 133.354Z" fill="white"/>
<path d="M79.2752 134.645L79.2864 138L79.2919 139.616C79.2975 141.36 80.5398 142.077 82.0842 141.2L84.6694 139.727C86.2082 138.849 87.456 136.72 87.4504 134.97L87.4448 133.354L87.4336 130.264C86.4488 132.278 85.1226 134.297 83.4551 135.324C81.6813 136.256 80.2824 135.633 79.2752 134.645Z" fill="#E7BAA3"/>
<path d="M88.7036 117.198C88.8116 117.345 88.9088 117.5 88.9946 117.661C88.8659 117.319 88.7708 117.126 88.7652 117.115L88.7036 117.198Z" fill="#D4DAE8"/>
<path d="M80.517 115.101C80.3771 115.189 77.68 116.85 76.6448 120.635C75.8894 123.388 76.4042 126.567 76.8574 128.2C76.9335 128.583 77.0754 128.951 77.2771 129.287C77.6185 129.11 78.2788 122.379 79.4706 121.275C79.6105 121.314 82.2181 122.097 85.2957 120.343C86.645 119.544 87.8067 118.472 88.7035 117.197L88.765 117.115C88.9609 117.666 89.8338 119.52 89.6827 121.286C89.737 121.096 89.7855 120.905 89.8282 120.712C90.1136 119.476 90.6396 116.568 89.6659 115.062C89.7219 114.996 90.7515 113.743 90.2143 111.321C90.1975 111.337 89.9009 111.646 89.4477 111.9C88.9665 112.171 88.3342 112.369 87.769 112.016C83.8352 109.527 76.4769 120.309 80.517 115.101Z" fill="#6F4D42"/>
<path d="M87.4669 133.364L87.5116 148.003C91.4789 144.869 95.0266 140.592 97.7461 135.864C97.4215 133.954 96.9627 132.365 96.364 132.271C95.3008 132.045 91.2439 132.277 87.4669 133.364ZM69.0683 152.003C71.7878 153.637 75.3411 153.957 79.3028 152.594L79.258 137.999C75.4754 141.227 71.4185 145.636 70.3609 147.048C69.807 147.777 69.3481 149.824 69.0683 152.003Z" fill="#E73832"/>
<path d="M66.2705 174.324C65.8463 174.601 65.4932 174.972 65.2388 175.406C64.9844 175.841 64.8357 176.328 64.8045 176.829L64.8157 181.298C64.8157 182.198 65.4983 182.579 66.2929 182.132L106.235 159.392C106.661 159.118 107.016 158.748 107.271 158.313C107.526 157.877 107.673 157.389 107.701 156.887L107.69 152.418C107.69 151.518 107.035 151.121 106.212 151.59L66.2705 174.324ZM66.2425 163.68C65.8156 163.954 65.4603 164.324 65.2056 164.759C64.9508 165.195 64.8038 165.683 64.7765 166.185L64.7877 170.621C64.7877 171.554 65.4704 171.902 66.2649 171.449L106.207 148.71C106.637 148.438 106.994 148.069 107.249 147.633C107.504 147.197 107.65 146.708 107.673 146.205L107.662 141.768C107.662 140.836 107.007 140.472 106.184 140.941L66.2425 163.68Z" fill="white"/>
<path d="M458.05 118.403L522.26 141.116L557.599 166.184C557.599 166.184 581.373 179.654 581.373 218.884C581.373 218.884 581.753 223.938 581.432 253.242C581.354 260.054 578.051 266.578 572.205 270.201C562.149 276.446 542.39 282.46 506.456 273.602C446.572 258.844 420.625 219.48 418.628 210.121C416.64 200.773 412.148 110.524 458.05 118.403Z" fill="#373F51"/>
<path d="M458.05 118.402L522.259 141.106L530.746 147.13C536.027 156.45 541.415 154.702 514.63 182.286C485.293 212.494 460.115 254.328 460.115 254.328C444.847 194.431 446.377 161.245 458.05 118.402Z" fill="white"/>
<path d="M522.269 119.604V141.106C522.269 141.106 511.922 156.931 481.23 160.87C478.404 161.235 464.958 161.898 463.048 159.804C458.664 154.952 461.051 143.729 463.058 120.17V105.787L522.269 119.604Z" fill="#F7C9A4"/>
<path d="M481.23 158.728C475.578 159.285 471.194 162.831 469.781 166.203L475.208 175.292L470.697 178.78C463.123 195.817 456.932 213.42 452.184 231.423L460.115 254.328L474.965 234.113L482.37 181.749L480.099 176.34L489.395 171.66C487.329 166.664 485.76 160.698 481.23 158.728Z" fill="#FFC701"/>
<path d="M468.729 172.149C468.729 172.149 472.207 161.427 481.229 158.727C481.229 158.727 462.844 138.022 467.9 124.417L458.137 132.016C458.137 132.016 452.603 149.782 468.729 172.149Z" fill="#E3E7F0"/>
<path d="M469.538 123.427C469.538 123.427 459.94 108.823 442.597 139.933L449.612 151.137L438.261 150.723C438.261 150.723 424.786 189.54 460.116 254.327C460.116 254.327 432.502 158.304 469.547 123.417L469.538 123.427Z" fill="#4C5671"/>
<path d="M454.445 69.6038C454.445 69.6038 443.045 130.519 471.486 141.357C499.927 152.185 532.032 124.158 538.19 94.6232C544.348 65.088 475.413 44.2962 454.445 69.6038Z" fill="#F9D5B4"/>
<path d="M522.269 141.106C527.823 143.153 529.606 155.519 524.647 159.65C512.117 170.123 486.18 176.339 486.18 176.339C484.942 167.586 481.23 158.728 481.23 158.728C516.501 149.158 522.269 141.116 522.269 141.116V141.106Z" fill="#E3E7F0"/>
<path d="M460.115 254.328C460.115 254.328 480.577 204.846 506.007 178.866C531.438 152.876 527.336 148.284 522.269 141.106C522.22 139.348 544.553 146.208 534.254 176.339C532.18 182.391 528.908 187.975 524.627 192.769L514.435 183.977L519.141 199.821C519.141 199.821 496.098 211.668 460.115 254.328Z" fill="#4C5671"/>
<path d="M505.9 36.1191C505.9 36.1191 541.542 37.2336 539.915 80.518C539.428 93.854 538.015 101.742 531.272 113.31C528.573 117.922 524.968 122.63 520.379 126.81C520.379 126.81 532.169 97.8702 524.354 90.2413C516.676 82.7471 515.254 99.4939 516.17 103.923H511.834C511.542 101.166 512.808 96.256 509.905 93.3255C505.452 88.8193 502.714 83.1122 503.776 78.6156C503.776 78.6156 490.642 86.6191 476.144 80.3258C461.655 74.0421 455.273 76.3289 453.928 67.3741C452.564 58.4194 447.926 33.8324 505.9 36.1191Z" fill="#885E4B"/>
<path d="M257.237 143.732L250.377 139.795L253.796 117.032L260.663 120.97L257.237 143.732Z" fill="#9AD898"/>
<path d="M316.657 40.6517C309.548 36.6194 298.827 37.5785 286.951 44.4006C265.732 56.4029 248.683 82.035 248.683 102.015C248.786 110.464 251.799 116.415 257.156 119.488L250.245 115.55C244.984 112.477 241.867 106.526 241.867 98.0769C241.772 78.0972 258.909 52.4651 280.032 40.4628C292.02 33.6479 302.725 32.6889 309.739 36.7139L316.657 40.6517Z" fill="#9AD898"/>
<path d="M286.907 44.349C307.978 32.354 325.248 38.4641 325.307 58.4075C325.366 78.1328 308.192 103.859 287.113 115.854C281.83 118.862 276.724 120.918 272.245 121.427L257.237 143.732L260.663 120.969C253.243 118.768 248.742 112.229 248.712 102.007C248.653 82.0779 265.769 56.3804 286.907 44.349Z" fill="#6EBA6E"/>
<path d="M266.734 86.7781C270.108 84.8528 272.834 86.3858 272.849 90.2073C272.849 94.0071 270.152 98.6569 266.77 100.575C263.425 102.486 260.67 100.938 260.655 97.1457C260.655 93.3169 263.381 88.6816 266.734 86.7781ZM285.433 76.1344C288.815 74.2018 291.533 75.7348 291.548 79.5636C291.555 83.3561 288.851 88.0059 285.477 89.9312C282.125 91.8348 279.377 90.2945 279.362 86.4947C279.354 82.6732 282.088 78.0379 285.433 76.1344ZM304.14 65.4761C307.492 63.5726 310.24 65.0838 310.255 68.9126C310.255 72.7051 307.529 77.3767 304.176 79.2803C300.802 81.2056 298.083 79.6435 298.069 75.8438C298.061 72.0222 300.765 67.4014 304.14 65.4761Z" fill="white"/>
<path d="M365.476 2.53741C358.418 -1.50211 347.705 -0.521293 335.769 6.27179C314.697 18.2741 297.516 44.0007 297.575 63.9367C297.597 72.459 300.839 78.4456 306.21 81.5188L313.069 85.4494C307.698 82.3689 304.464 76.3895 304.434 67.8673C304.375 47.9312 321.557 22.2047 342.629 10.2096C354.564 3.40925 365.277 2.42843 372.343 6.47522L365.476 2.53741Z" fill="#FFE073"/>
<path d="M342.629 10.21C363.7 -1.79234 380.97 4.32506 381.029 24.2611C381.059 34.4762 376.609 46.1152 369.167 56.7735L372.778 75.5326L357.688 70.3597C353.304 74.8159 348.304 78.6389 342.835 81.7154C321.763 93.7104 304.493 87.593 304.434 67.8677C304.375 47.9316 321.557 22.205 342.629 10.21Z" fill="#FFC701"/>
<path d="M325.749 50.924C329.124 48.9987 331.85 50.5244 331.865 54.3533C331.865 58.1458 329.168 62.7956 325.786 64.7209C322.441 66.6244 319.686 65.0842 319.671 61.2844C319.671 57.4628 322.397 52.8275 325.749 50.9168V50.924ZM344.456 40.2731C347.83 38.3477 350.549 39.8807 350.564 43.7023C350.571 47.4948 347.867 52.1519 344.493 54.0699C341.14 55.9807 338.392 54.4332 338.378 50.6407C338.378 46.8119 341.104 42.1766 344.456 40.2731ZM363.155 29.6221C366.508 27.7113 369.256 29.2298 369.271 33.0513C369.271 36.8511 366.544 41.5154 363.2 43.4189C359.818 45.3443 357.099 43.7822 357.084 39.9897C357.077 36.1609 359.781 31.5401 363.155 29.6221Z" fill="white"/>
</svg>
