<svg width="50" height="51" viewBox="0 0 50 51" fill="none" xmlns="http://www.w3.org/2000/svg">
<path d="M24.9999 0.0117188C38.8078 0.0117188 50 11.2055 50 25.0118C50 38.8197 38.8078 50.0117 24.9999 50.0117C11.192 50.0117 0 38.8195 0 25.0118C0 11.2055 11.1922 0.0117188 24.9999 0.0117188Z" fill="#916834"/>
<path d="M38 29.6074C38 26.381 36.149 23.5016 33.3769 22.1009C33.2909 28.2871 28.2754 33.3026 22.0892 33.3886C23.4899 36.1607 26.3693 38.0117 29.5957 38.0117C31.1085 38.0117 32.5795 37.6088 33.872 36.8433L37.9633 37.975L36.8316 33.8838C37.5971 32.5912 38 31.1201 38 29.6074Z" fill="white"/>
<path d="M31.8555 21.9395C31.8555 16.4652 27.402 12.0117 21.9277 12.0117C16.4535 12.0117 12 16.4652 12 21.9395C12 23.7236 12.4749 25.4606 13.3767 26.9856L12.0365 31.8305L16.8815 30.4906C18.4066 31.3923 20.1436 31.8672 21.9277 31.8672C27.402 31.8672 31.8555 27.4137 31.8555 21.9395ZM20.4043 19.6289H18.8809C18.8809 17.9488 20.2476 16.582 21.9277 16.582C23.6079 16.582 24.9746 17.9488 24.9746 19.6289C24.9746 20.4817 24.6136 21.3013 23.9838 21.8773L22.6895 23.062V24.25H21.166V22.3912L22.9552 20.7535C23.275 20.4609 23.4512 20.0616 23.4512 19.6289C23.4512 18.7888 22.7678 18.1055 21.9277 18.1055C21.0877 18.1055 20.4043 18.7888 20.4043 19.6289ZM21.166 25.7734H22.6895V27.2969H21.166V25.7734Z" fill="white"/>
</svg>
