<svg width="314" height="266" viewBox="0 0 314 266" fill="none" xmlns="http://www.w3.org/2000/svg">
<path d="M27.4921 76.6653L57.6024 145.364C57.8294 145.882 58.4406 146.109 58.9506 145.864L114.809 119.081C115.156 118.915 115.377 118.564 115.377 118.179V64.9549C115.377 64.345 114.835 63.8771 114.232 63.9655L27.4921 76.6653Z" fill="#C78C61"/>
<path d="M75.1791 116.752L64.6921 121.373V136.866L75.1791 132.122V116.752Z" fill="#FFE1B4" fill-opacity="0.7"/>
<path d="M57.1483 36.7118C57.6977 36.4484 58.3372 36.4498 58.8855 36.7156L114.747 63.7958C115.509 64.1655 115.495 65.2567 114.723 65.6065L58.0178 91.3032V146.311L0.658798 118.809V63.7978L57.1483 36.7118Z" fill="#E6A475"/>
<path d="M58.0178 91.3033V146.312L0.658817 118.809V63.7979L58.0178 91.3033Z" fill="#A06841"/>
<path d="M39.0151 45.4072L97.3313 73.3792L78.9415 81.89L21.2698 53.9157H21.267" fill="#FFCC80"/>
<path d="M20.8167 94.8525L29.3931 89.7847L38.2429 103.185L31.7276 100.07V122.772L27.1938 120.598V97.9018L20.8167 94.8525Z" fill="#7D5133"/>
<path d="M77.6385 92.4702V96.899L103.288 84.5972V80.1711L77.6385 92.4702Z" fill="#A06841"/>
<path d="M77.6385 103.497V107.926L103.288 95.6265V91.2004L77.6385 103.497Z" fill="#A06841"/>
<path d="M36.1848 34.9741L57.6097 83.8566C57.8368 84.3747 58.448 84.6015 58.958 84.3569L98.4963 65.3988C98.8432 65.2325 99.064 64.8819 99.064 64.4971V26.9249C99.064 26.3149 98.5226 25.8471 97.9191 25.9354L36.1848 34.9741Z" fill="#C78C61"/>
<path d="M70.3034 63.6553L62.8003 66.9614V78.0465L70.3034 74.6524V63.6553Z" fill="#FFE1B4" fill-opacity="0.7"/>
<path d="M57.1555 6.50723C57.7049 6.24381 58.3444 6.24518 58.8927 6.51096L98.0669 25.5018C98.8295 25.8715 98.8154 26.9627 98.0435 27.3125L58.025 45.4473V84.8043L16.9861 65.1267V25.7679L57.1555 6.50723Z" fill="#E6AB75"/>
<path d="M58.0249 45.4472V84.8042L16.986 65.1267V25.7678L58.0249 45.4472Z" fill="#A07441"/>
<path d="M44.4291 12.6099L86.1528 32.6231L72.9954 38.7124L31.7328 18.6974H31.7308" fill="#FDD498"/>
<path d="M31.4085 47.9868L37.5447 44.3608L43.8765 53.9486L39.2149 51.7197V67.9626L35.9711 66.4067V50.1685L31.4085 47.9868Z" fill="#7D5133"/>
<path d="M72.0631 46.2823V49.451L90.4146 40.6494V37.4827L72.0631 46.2823Z" fill="#A06841"/>
<path d="M72.0631 54.1718V57.3405L90.4146 48.5407V45.374L72.0631 54.1718Z" fill="#A06841"/>
<path d="M236.367 30.5569L224.198 36.194L199.232 47.7499C194.862 49.7751 190.48 51.7898 186.11 53.8149C183.181 55.172 176.94 56.8736 175.987 60.1618C175.778 60.903 175.859 61.6755 175.952 62.4375C176.37 65.9033 176.266 68.9828 178.776 71.7282C181.147 74.3171 185.134 77.7828 189.248 77.7828C198.674 80.5491 207.67 84.3385 216.934 87.491C225.209 90.3096 235.635 94.6939 244.084 90.4348C245.107 89.9233 245.944 89.2239 246.978 88.7646C248.361 88.1487 249.803 87.6685 251.174 87.0108C255.068 85.1631 258.496 82.6265 262.181 80.4761C268.387 76.8433 275.245 74.2962 281.928 71.4881C285.287 70.0788 288.622 68.5965 291.795 66.8741C293.38 66.0211 294.916 65.0979 296.398 64.1078C297.537 63.3457 299.548 62.2914 299.943 60.9656C300.001 60.7882 300.024 60.6107 300.024 60.4228C300.013 59.6921 299.548 59.024 298.932 58.5542C296.886 56.9884 293.98 56.1741 291.575 55.2242C288.436 53.9924 285.484 52.2282 282.497 50.7146C276.198 47.5202 269.852 44.4094 263.459 41.3926C258.727 39.1568 253.969 36.9645 249.187 34.816C246.734 33.7199 244.282 32.6343 241.818 31.5486C240.237 30.8597 238.18 29.7218 236.367 30.5569Z" fill="#E6A475"/>
<path d="M176.445 123.547C177.347 124.466 178.567 125.134 179.762 125.74C185.729 128.758 191.849 131.504 197.968 134.303C201.028 135.712 204.099 137.112 207.159 138.521C210.171 139.91 213.196 141.289 216.209 142.677L224.333 146.405C226.466 147.387 228.6 148.369 230.733 149.34C232.023 149.935 233.312 150.53 234.614 151.115C236.267 151.877 237.415 152.619 239.326 152.003C240.921 151.491 241.014 149.757 241.378 148.421C242.386 144.755 242.808 140.975 242.984 137.206C243.23 132.214 243.042 127.202 242.867 122.21C242.656 116.216 243.078 110.212 242.796 104.187C242.714 102.537 242.667 100.876 242.609 99.2369C242.562 97.7854 241.565 96.4592 240.616 95.3314C239.455 93.9635 238.142 92.5224 238.06 90.8098C237.908 88.0008 234.766 87.1863 232.398 86.2569C228.823 84.8472 225.376 83.1138 221.894 81.5265C209.541 75.8943 197.293 70.0805 185.155 64.0877C183.689 63.3671 175.624 57.8117 175.589 61.9469C175.401 80.5449 175.202 99.1325 174.862 117.73C174.827 119.401 174.827 121.166 175.741 122.618C175.941 122.983 176.175 123.275 176.445 123.547Z" fill="#A06841"/>
<path d="M299.97 124.037C298.739 125.159 296.958 125.961 294.696 127.018C289.857 129.284 285.005 131.56 280.166 133.825C270.311 138.441 260.467 143.057 250.612 147.663C248.468 148.667 241.12 153.048 238.706 152.097C236.855 151.371 237.98 143.015 237.98 141.177V117.572V105.38C237.98 100.956 238.437 96.2654 237.664 91.9057C237.429 90.5807 237.171 89.3519 238.05 88.1765C239.456 86.3172 242.843 85.3234 244.999 84.3083C247.612 83.0795 250.226 81.8506 252.85 80.6218C259.483 77.5016 266.104 74.3921 272.736 71.2719L288.556 63.8348C291.38 62.5098 294.497 60.4368 297.532 59.614C300.227 58.8874 300.743 61.0673 300.907 63.1189C301.376 69.2631 301.294 75.4927 301.446 81.6476C301.751 93.8932 301.938 106.128 302.032 118.374C302.055 121.163 301.352 122.787 299.97 124.037Z" fill="#C78C61"/>
<path d="M292.038 74.1045C292.038 73.3656 291.265 72.8819 290.6 73.2054L276.419 80.1123C276.075 80.2798 275.857 80.6288 275.857 81.0114V103.834C275.857 104.573 276.63 105.056 277.295 104.733L291.476 97.826C291.82 97.6585 292.038 97.3095 292.038 96.927V74.1045Z" fill="#FCE8B2" fill-opacity="0.7"/>
<path d="M268.411 79.2499C271.869 77.6627 298.972 64.7558 298.984 63.3357C298.984 62.1661 272.889 74.4777 272.889 74.4777C272.889 74.4777 240.346 89.306 239.83 90.5591C239.303 91.8122 265.351 80.6597 268.411 79.2499Z" fill="#A06841"/>
<path d="M280.708 133.681C280.708 130.924 280.497 125.17 280.497 125.17C280.497 125.17 278.07 127.008 276.546 127.52C275.351 127.917 274.049 128.126 273.006 128.783C271.927 129.473 271.224 130.569 270.122 131.237C267.402 132.898 263.698 132.24 263.698 132.24V141.492L280.708 133.681Z" fill="#FFCC80"/>
<path d="M178.426 121.103C182.658 123.004 186.855 124.967 192.095 127.348V125.531C186.89 123.16 182.681 121.208 178.426 119.286V121.103Z" fill="#7D5133"/>
<path d="M187.335 121.918C188.519 122.461 189.117 122.732 190.254 123.254C190.266 120.09 190.266 118.503 190.277 115.339C189.164 114.827 188.566 114.566 187.382 114.023C187.358 117.177 187.347 118.764 187.335 121.918Z" fill="#7D5133"/>
<path d="M179.926 118.535C180.923 118.984 181.462 119.234 182.587 119.746L182.646 111.851C181.509 111.329 180.97 111.079 179.961 110.619C179.95 113.794 179.938 115.37 179.926 118.535Z" fill="#7D5133"/>
<path d="M185.459 114.086C188.167 115.328 189.633 115.986 192.013 117.072C190.817 115.151 190.172 114.159 188.847 112.175C187.534 112.958 186.831 113.334 185.459 114.086Z" fill="#7D5133"/>
<path d="M178.426 110.87C180.454 111.81 181.814 112.426 184.51 113.658C183.174 111.663 182.517 110.671 181.286 108.729C180.032 109.533 179.446 109.951 178.426 110.87Z" fill="#7D5133"/>
<path d="M200.16 129.385C201.121 129.823 201.602 130.053 202.563 130.502L202.388 121.104C201.473 120.676 201.004 120.456 200.102 120.039C200.113 123.777 200.125 125.646 200.16 129.385Z" fill="#7D5133"/>
<path d="M196.667 128.726C200.148 130.366 202.868 131.588 206.209 133.185C206.186 132.11 205.26 130.815 203.994 130.22C202.024 129.29 200.899 128.779 198.894 127.849C197.616 127.243 196.667 127.672 196.667 128.726Z" fill="#7D5133"/>
<path d="M203.302 118.107C203.888 119.213 204.193 119.767 204.767 120.874C204.298 121.74 204.064 122.179 203.583 123.046C204.005 123.014 204.205 123.004 204.615 122.973C205.166 122.315 205.435 121.991 205.963 121.333C205.482 120.32 205.224 119.819 204.732 118.796C206.139 119.474 206.819 119.83 208.097 120.498C208.097 124.163 205.412 125.761 201.379 123.892C197.347 122.022 194.674 117.835 194.674 114.18C197.675 115.517 199.691 116.384 203.302 118.107Z" fill="#7D5133"/>
<path d="M278.723 69.0006C278.146 68.6216 216.172 39.8918 216.172 39.8918L196.941 48.7105L260.485 77.7885L260.52 77.8192L279.116 69.3693C279.116 69.3693 279.081 69.2874 278.977 69.1849C278.896 69.1235 278.758 69.0313 278.723 69.0006Z" fill="#FCE8B2"/>
<path d="M279.023 69.2463C268.496 73.8451 260.485 77.7884 260.485 77.7884C260.751 78.024 260.762 78.3313 260.762 78.4849C260.728 79.673 260.704 80.6153 260.67 81.7932C260.508 87.8874 260.416 87.2096 260.185 93.3038C260.958 92.8941 261.893 93.7954 262.598 93.3038C263.683 92.5458 265.991 94.0513 266.337 93.9489C266.799 93.8157 267.296 93.9181 267.769 93.8977C269.847 93.7952 274.498 91.9741 275.491 91.8C276.449 91.6361 279.612 87.3345 279.612 87.3345C279.612 87.3345 279.393 73.5891 279.312 70.4652C279.289 69.359 279.023 69.2463 279.023 69.2463Z" fill="#FFCC80"/>
<path d="M223.465 86.5068L177.137 64.0422L175.319 30.8103L221.647 53.2749L223.465 86.5068Z" fill="#89664C"/>
<path d="M221.647 53.275L223.465 86.507L267.067 59.1236L265.249 25.8917L221.647 53.275Z" fill="#CD8852"/>
<path d="M175.319 30.8104L221.647 53.275L265.249 25.8916L218.921 3.42708L175.319 30.8104Z" fill="#EEBB87"/>
<path d="M247.395 37.0241L201.208 14.5518L193.032 19.6862L239.36 42.1507L247.395 37.0241Z" fill="#FFE0B2"/>
<path d="M229.661 11.6936L219.372 6.52751L211.337 11.6542L221.619 16.6904L229.661 11.6936Z" fill="#FFE0B2"/>
<path d="M247.262 37.1616L239.634 42.0057L240.287 53.9484L247.915 49.1044L247.262 37.1616Z" fill="#BF9F85"/>
<path d="M263.347 29.7716L255.579 34.6233L256.233 46.5661L264 41.7144L263.347 29.7716Z" fill="#BF9F85" fill-opacity="0.7"/>
<path d="M235.499 59.1575L225.006 65.7206L225.9 82.077L236.386 75.384L235.499 59.1575Z" fill="white"/>
<path d="M241.452 75.2372L249.079 70.3932L248.426 58.4505L240.799 63.2945L241.452 75.2372Z" fill="#D3976E"/>
<path d="M155.007 9.18478L70.9684 47.6271C69.1316 48.5849 68.6 50.0145 68.6161 52.0875L68.7772 54.6751L157.504 95.0474L246.021 55.3184C246.021 55.3184 246.118 54.9181 246.118 53.5171C246.118 53.5171 246.037 51.6729 245.57 50.8151C245.054 49.843 243.959 48.9709 243.25 48.442C241.365 47.0552 239.48 45.8258 236.273 44.2246C190.307 21.1649 160.082 9.28485 160.082 9.28485C158.132 8.64153 156.521 8.41279 155.007 9.18478Z" fill="#DEA66C"/>
<path d="M69.9369 139.737C74.8348 142.611 83.7767 146.385 92.8154 150.731C113.825 160.824 140.377 173.09 153.588 177.908C155.377 178.565 156.44 178.88 157.681 178.937C158.599 178.98 160.114 178.437 160.114 178.437C160.114 178.437 157.648 99.5364 157.503 95.0331C157.358 90.6299 155.28 89.1717 153.443 88.1137C150.575 86.484 144.356 83.9393 144.356 83.9393C144.356 83.9393 122.573 74.3323 100.823 64.2106C90.4792 59.3928 81.7467 54.4606 72.3536 50.4005C70.6297 49.6714 68.5996 50.5864 68.5996 52.3019V137.793C68.5996 138.608 69.1635 139.294 69.9369 139.737Z" fill="#B38251"/>
<path d="M243.684 140.238L160.291 178.394C158.953 179.009 157.358 178.151 157.358 176.807L157.503 95.0618C157.503 94.2755 157.229 92.5456 156.956 91.8594C156.198 89.858 157.842 89.0574 158.583 88.7286L241.3 50.9296C243.491 49.9289 246.117 51.3442 246.117 53.5315V136.721C246.117 138.193 245.183 139.551 243.684 140.238Z" fill="#966239"/>
<path opacity="0.5" d="M206.435 70.3008C206.435 70.3008 160.726 91.0445 159.985 92.8029C159.244 94.5471 195.849 78.9357 200.135 76.9771C204.984 74.7612 243.072 56.6909 243.072 54.7037C243.088 53.074 206.435 70.3008 206.435 70.3008Z" fill="#212121"/>
<g opacity="0.5">
<path d="M74.8831 135.005C80.8282 137.664 86.7251 140.409 94.072 143.74V141.195C86.7573 137.878 80.8444 135.148 74.8831 132.46V135.005Z" fill="#212121"/>
<path d="M87.4019 136.163C89.0775 136.921 89.9153 137.307 91.4942 138.022C91.5103 133.59 91.5103 131.374 91.5264 126.942C89.9475 126.227 89.1258 125.856 87.4663 125.098C87.4341 129.53 87.418 131.731 87.4019 136.163Z" fill="#212121"/>
<path d="M76.9937 131.417C78.3793 132.046 79.1526 132.403 80.7315 133.118L80.8121 122.081C79.2171 121.352 78.4437 121.009 77.042 120.352C77.0259 124.783 77.0098 126.999 76.9937 131.417Z" fill="#212121"/>
<path d="M84.7756 125.198C88.5941 126.928 90.6241 127.857 93.9915 129.372C92.3159 126.67 91.3975 125.298 89.5608 122.524C87.6757 123.611 86.6929 124.14 84.7756 125.198Z" fill="#212121"/>
<path d="M74.8831 120.695C77.7348 122.01 79.6521 122.882 83.4222 124.597C81.5533 121.81 80.6188 120.423 78.8948 117.692C77.1387 118.822 76.317 119.408 74.8831 120.695Z" fill="#212121"/>
</g>
<g opacity="0.5">
<path d="M105.495 147.228C106.833 147.843 107.525 148.172 108.863 148.787C108.766 143.526 108.718 140.895 108.605 135.634C107.316 135.034 106.671 134.734 105.383 134.147C105.431 139.38 105.447 141.996 105.495 147.228Z" fill="#212121"/>
<path d="M100.581 146.299C105.479 148.586 109.282 150.302 113.986 152.532C113.954 151.031 112.649 149.215 110.877 148.372C108.105 147.071 106.526 146.356 103.723 145.055C101.919 144.24 100.581 144.827 100.581 146.299Z" fill="#212121"/>
<path d="M109.91 131.445L111.972 135.32C111.328 136.535 110.989 137.15 110.313 138.35C110.893 138.308 111.183 138.293 111.763 138.25C112.536 137.335 112.923 136.878 113.664 135.963C112.987 134.548 112.633 133.833 111.924 132.418C113.889 133.375 114.856 133.861 116.645 134.791C116.645 139.909 112.874 142.168 107.203 139.537C101.532 136.921 97.7778 131.074 97.7778 125.941C101.999 127.814 104.835 129.044 109.91 131.445Z" fill="#212121"/>
</g>
<path d="M216.553 61.5801C215.747 61.0511 129.244 20.9504 129.244 20.9504L102.402 33.2594L191.096 73.8461L191.145 73.889L217.1 62.0947C217.1 62.0947 217.052 61.9803 216.907 61.8374C216.794 61.7516 216.601 61.6229 216.553 61.5801Z" fill="#FFE0B2"/>
<path d="M216.971 61.9231C202.278 68.3421 191.096 73.8461 191.096 73.8461C191.467 74.1749 191.483 74.6038 191.483 74.8182C191.434 76.4766 191.402 77.7918 191.354 79.4359C191.128 87.9421 190.999 96.4626 190.677 104.969C191.757 104.397 193.062 105.655 194.045 104.969C195.559 103.911 198.781 99.2503 199.265 99.1073C199.909 98.9215 200.602 99.0645 201.263 99.0359C204.163 98.8929 210.656 93.6462 212.041 93.4032C213.379 93.1744 217.793 93.9321 217.793 93.9321C217.793 93.9321 217.487 67.9847 217.374 63.6243C217.342 62.0804 216.971 61.9231 216.971 61.9231Z" fill="#BF9F85"/>
<path d="M242.76 110.009C242.76 108.531 241.212 107.564 239.884 108.211L228.074 113.963C227.386 114.298 226.949 114.996 226.949 115.761V135.784C226.949 137.262 228.497 138.229 229.825 137.582L241.635 131.83C242.323 131.495 242.76 130.797 242.76 130.032V110.009Z" fill="#BF9F85"/>
<path d="M185.723 96.0108C185.723 94.5607 184.228 93.5926 182.905 94.1859L164.613 102.388C163.894 102.711 163.431 103.425 163.431 104.213V133.312C163.431 134.771 164.943 135.739 166.268 135.129L184.56 126.708C185.269 126.382 185.723 125.672 185.723 124.892V96.0108Z" fill="#BF9F85"/>
<path d="M236.181 142.233L262.407 202.069C262.634 202.587 263.245 202.814 263.755 202.569L312.315 179.286C312.662 179.119 312.882 178.769 312.882 178.384V132.16C312.882 131.55 312.341 131.082 311.737 131.171L236.181 142.233Z" fill="#C78C61"/>
<path d="M277.8 177.219L268.647 181.252V194.773L277.8 190.633V177.219Z" fill="#FFE1B4" fill-opacity="0.7"/>
<path d="M261.953 107.417C262.502 107.153 263.142 107.155 263.69 107.421L312.088 130.883C312.851 131.253 312.837 132.344 312.065 132.694L262.823 155.008V203.017L212.763 179.014V131.003L261.953 107.417Z" fill="#E6A475"/>
<path d="M262.823 155.008V203.016L212.763 179.013V131.003L262.823 155.008Z" fill="#A06841"/>
<path d="M246.238 114.953L297.133 139.365L281.084 146.793L230.751 122.378H230.748" fill="#FFCC80"/>
<path d="M230.355 158.106L237.84 153.683L245.564 165.378L239.878 162.659V182.473L235.921 180.575V160.767L230.355 158.106Z" fill="#7D5133"/>
<path d="M279.946 156.027V159.892L302.332 149.156V145.293L279.946 156.027Z" fill="#A06841"/>
<path d="M279.946 165.65V169.516L302.332 158.781V154.919L279.946 165.65Z" fill="#A06841"/>
<path d="M66.6294 241.193L5.60718 204.579V155.762L66.6294 192.375V241.193Z" fill="#B38251"/>
<path d="M66.6294 192.375V241.193L127.652 204.579V155.762L66.6294 192.375Z" fill="#CD8852"/>
<path d="M5.60718 155.762L66.6294 192.375L127.652 155.762L66.6294 119.148L5.60718 155.762Z" fill="#EEBB87"/>
<path d="M102.671 170.636L41.8391 134.022L30.3975 140.887L91.4197 177.501L102.671 170.636Z" fill="#FFE0B2"/>
<path d="M80.55 132.116L67.0107 123.725L55.7598 130.59L69.2991 138.79L80.55 132.116Z" fill="#FFE0B2"/>
<path d="M102.48 170.826L91.801 177.31V194.854L102.48 188.37V170.826Z" fill="#BF9F85"/>
<path d="M124.791 161.292L113.922 167.775V185.319L124.791 178.836V161.292Z" fill="#BF9F85"/>
<path d="M84.9362 202.101L70.2527 210.873V234.9L84.9362 225.937V202.101Z" fill="#BF9F85"/>
<path d="M91.801 226.128L102.48 219.644V202.1L91.801 208.584V226.128Z" fill="#BF9F85"/>
<path d="M180.69 139.452L168.13 145.27L142.363 157.197C137.852 159.287 133.33 161.366 128.82 163.457C125.797 164.857 119.355 166.613 118.371 170.007C118.155 170.772 118.239 171.569 118.335 172.356C118.767 175.933 118.659 179.111 121.25 181.945C123.697 184.617 127.812 188.194 132.058 188.194C141.787 191.049 151.072 194.96 160.633 198.214C169.174 201.123 179.934 205.648 188.655 201.252C189.71 200.724 190.574 200.002 191.642 199.528C193.069 198.893 194.557 198.397 195.972 197.718C199.991 195.811 203.53 193.193 207.332 190.974C213.738 187.224 220.816 184.595 227.713 181.697C231.18 180.243 234.623 178.713 237.898 176.935C239.533 176.055 241.118 175.102 242.648 174.08C243.824 173.293 245.899 172.205 246.307 170.837C246.367 170.654 246.391 170.47 246.391 170.277C246.379 169.522 245.899 168.833 245.263 168.348C243.152 166.732 240.153 165.891 237.67 164.911C234.431 163.64 231.384 161.819 228.301 160.257C221.799 156.96 215.25 153.749 208.652 150.635C203.767 148.328 198.857 146.065 193.921 143.848C191.39 142.716 188.859 141.596 186.316 140.475C184.684 139.764 182.561 138.59 180.69 139.452Z" fill="#E6A475"/>
<path d="M118.844 235.427C119.775 236.376 121.034 237.065 122.268 237.69C128.426 240.805 134.742 243.64 141.058 246.528C144.216 247.983 147.386 249.427 150.544 250.882C153.653 252.316 156.775 253.738 159.884 255.172L168.269 259.02C170.471 260.033 172.673 261.046 174.875 262.048C176.206 262.662 177.537 263.277 178.88 263.88C180.586 264.667 181.772 265.432 183.744 264.796C185.39 264.268 185.486 262.479 185.861 261.1C186.902 257.317 187.338 253.415 187.519 249.524C187.773 244.373 187.58 239.199 187.398 234.048C187.18 227.861 187.616 221.664 187.325 215.445C187.241 213.742 187.192 212.029 187.132 210.337C187.083 208.839 186.055 207.47 185.075 206.306C183.877 204.894 182.522 203.407 182.437 201.639C182.28 198.74 179.037 197.899 176.593 196.94C172.903 195.485 169.346 193.696 165.752 192.058C153.002 186.245 140.361 180.244 127.834 174.059C126.321 173.315 117.997 167.582 117.961 171.85C117.767 191.045 117.561 210.229 117.21 229.424C117.174 231.148 117.174 232.97 118.118 234.468C118.324 234.845 118.566 235.147 118.844 235.427Z" fill="#A06841"/>
<path d="M246.334 235.933C245.064 237.091 243.226 237.918 240.892 239.01C235.897 241.348 230.89 243.697 225.895 246.035C215.723 250.799 205.564 255.564 195.392 260.317C193.179 261.354 185.596 265.876 183.104 264.894C181.193 264.144 182.354 255.52 182.354 253.623V229.261V216.677C182.354 212.111 182.826 207.27 182.028 202.77C181.786 201.402 181.52 200.134 182.427 198.921C183.878 197.002 187.374 195.976 189.599 194.929C192.296 193.66 194.993 192.392 197.702 191.124C204.548 187.903 211.381 184.694 218.227 181.474L234.554 173.798C237.469 172.43 240.686 170.291 243.819 169.442C246.6 168.692 247.132 170.941 247.302 173.059C247.786 179.4 247.701 185.83 247.858 192.183C248.173 204.821 248.366 217.449 248.463 230.088C248.487 232.966 247.761 234.643 246.334 235.933Z" fill="#C78C61"/>
<path d="M238.148 184.346C238.148 183.607 237.375 183.124 236.71 183.447L222.009 190.607C221.665 190.775 221.447 191.124 221.447 191.506V215.133C221.447 215.872 222.221 216.355 222.885 216.032L237.586 208.872C237.93 208.704 238.148 208.355 238.148 207.973V184.346Z" fill="#FCE8B2" fill-opacity="0.7"/>
<path d="M213.762 189.708C217.331 188.07 245.305 174.749 245.317 173.283C245.317 172.076 218.384 184.783 218.384 184.783C218.384 184.783 184.797 200.087 184.264 201.38C183.72 202.674 210.604 191.163 213.762 189.708Z" fill="#A06841"/>
<path d="M226.454 245.887C226.454 243.041 226.237 237.103 226.237 237.103C226.237 237.103 223.732 239 222.159 239.528C220.925 239.937 219.582 240.153 218.505 240.832C217.392 241.543 216.666 242.675 215.529 243.365C212.722 245.078 208.898 244.399 208.898 244.399V253.948L226.454 245.887Z" fill="#FFCC80"/>
<path d="M120.888 232.905C125.256 234.867 129.588 236.893 134.996 239.35V237.475C129.624 235.029 125.28 233.013 120.888 231.03V232.905Z" fill="#7D5133"/>
<path d="M130.084 233.746C131.306 234.307 131.923 234.587 133.096 235.126C133.109 231.86 133.109 230.222 133.121 226.956C131.971 226.428 131.354 226.159 130.132 225.598C130.108 228.853 130.096 230.491 130.084 233.746Z" fill="#7D5133"/>
<path d="M122.437 230.254C123.465 230.717 124.022 230.976 125.184 231.504L125.244 223.356C124.07 222.817 123.514 222.559 122.473 222.084C122.461 225.361 122.449 226.988 122.437 230.254Z" fill="#7D5133"/>
<path d="M128.148 225.663C130.943 226.945 132.455 227.624 134.911 228.745C133.677 226.762 133.012 225.738 131.645 223.69C130.29 224.499 129.564 224.887 128.148 225.663Z" fill="#7D5133"/>
<path d="M120.888 222.343C122.982 223.313 124.385 223.949 127.168 225.221C125.789 223.162 125.111 222.138 123.841 220.134C122.546 220.964 121.941 221.395 120.888 222.343Z" fill="#7D5133"/>
<path d="M143.321 241.452C144.313 241.905 144.809 242.142 145.801 242.605L145.619 232.905C144.676 232.464 144.192 232.237 143.26 231.806C143.272 235.665 143.284 237.594 143.321 241.452Z" fill="#7D5133"/>
<path d="M139.715 240.773C143.308 242.465 146.115 243.726 149.564 245.375C149.539 244.265 148.584 242.929 147.277 242.314C145.244 241.355 144.083 240.827 142.014 239.868C140.695 239.243 139.715 239.685 139.715 240.773Z" fill="#7D5133"/>
<path d="M146.563 229.812C147.168 230.955 147.483 231.526 148.075 232.668C147.591 233.563 147.349 234.015 146.853 234.91C147.289 234.878 147.495 234.867 147.918 234.835C148.487 234.156 148.765 233.821 149.31 233.142C148.813 232.097 148.547 231.58 148.039 230.523C149.491 231.224 150.193 231.59 151.512 232.28C151.512 236.063 148.741 237.712 144.579 235.783C140.417 233.854 137.658 229.532 137.658 225.76C140.755 227.139 142.836 228.034 146.563 229.812Z" fill="#7D5133"/>
<path d="M224.406 179.13C223.81 178.739 159.846 149.086 159.846 149.086L139.998 158.188L205.582 188.2L205.618 188.231L224.811 179.51C224.811 179.51 224.775 179.426 224.668 179.32C224.585 179.257 224.442 179.161 224.406 179.13Z" fill="#FCE8B2"/>
<path d="M224.715 179.383C213.85 184.13 205.582 188.2 205.582 188.2C205.856 188.443 205.868 188.76 205.868 188.918C205.832 190.145 205.809 191.117 205.773 192.333C205.606 198.623 205.511 197.923 205.272 204.213C206.071 203.79 207.036 204.72 207.762 204.213C208.882 203.431 211.265 204.985 211.622 204.879C212.099 204.741 212.611 204.847 213.1 204.826C215.244 204.72 220.045 202.841 221.07 202.661C222.059 202.492 225.323 198.052 225.323 198.052C225.323 198.052 225.097 183.865 225.013 180.641C224.989 179.5 224.715 179.383 224.715 179.383Z" fill="#FFCC80"/>
</svg>
