<svg width="241" height="217" viewBox="0 0 241 217" fill="none" xmlns="http://www.w3.org/2000/svg">
<path d="M102.246 1.17692L27.5123 35.3631C25.879 36.2149 25.4062 37.4862 25.4205 39.3296L25.5638 41.6307L104.467 77.5332L183.184 42.2028C183.184 42.2028 183.27 41.8469 183.27 40.601C183.27 40.601 183.198 38.9609 182.783 38.1981C182.324 37.3336 181.35 36.5581 180.719 36.0877C179.043 34.8545 177.367 33.7612 174.516 32.3373C133.638 11.8307 106.759 1.26591 106.759 1.26591C105.026 0.693813 103.593 0.4904 102.246 1.17692Z" fill="#DEA66C"/>
<path d="M26.595 117.275C30.9506 119.831 38.9025 123.187 46.9404 127.052C65.6239 136.027 89.2361 146.935 100.985 151.22C102.575 151.805 103.521 152.084 104.624 152.135C105.441 152.173 106.788 151.69 106.788 151.69C106.788 151.69 104.596 81.5253 104.467 77.5206C104.338 73.6049 102.489 72.3081 100.856 71.3674C98.3056 69.918 92.7751 67.6551 92.7751 67.6551C92.7751 67.6551 73.4039 59.1117 54.0614 50.1107C44.8629 45.8263 37.0972 41.4402 28.7441 37.8296C27.2111 37.1812 25.4058 37.9949 25.4058 39.5205V115.546C25.4058 116.271 25.9072 116.881 26.595 117.275Z" fill="#B38251"/>
<path d="M181.106 117.72L106.945 151.652C105.756 152.199 104.338 151.436 104.338 150.241L104.467 77.5461C104.467 76.8469 104.223 75.3086 103.979 74.6983C103.306 72.9185 104.767 72.2065 105.427 71.9141L178.985 38.3001C180.934 37.4102 183.269 38.6688 183.269 40.6139V114.593C183.269 115.902 182.438 117.11 181.106 117.72Z" fill="#966239"/>
<path opacity="0.5" d="M147.98 55.5263C147.98 55.5263 107.332 73.9733 106.673 75.5371C106.014 77.0881 138.567 63.2051 142.378 61.4634C146.691 59.4928 180.562 43.4232 180.562 41.656C180.576 40.2067 147.98 55.5263 147.98 55.5263Z" fill="#212121"/>
<g opacity="0.5">
<path d="M30.9938 113.067C36.2807 115.432 41.5247 117.873 48.0582 120.835V118.572C41.5534 115.623 36.2951 113.194 30.9938 110.804V113.067Z" fill="#212121"/>
<path d="M42.1265 114.097C43.6166 114.771 44.3616 115.114 45.7657 115.75C45.7801 111.809 45.7801 109.838 45.7944 105.897C44.3903 105.261 43.6595 104.931 42.1838 104.257C42.1551 108.198 42.1408 110.156 42.1265 114.097Z" fill="#212121"/>
<path d="M32.8706 109.876C34.1028 110.436 34.7905 110.753 36.1947 111.389L36.2663 101.574C34.8478 100.926 34.1601 100.621 32.9136 100.036C32.8993 103.977 32.8849 105.948 32.8706 109.876Z" fill="#212121"/>
<path d="M39.791 104.346C43.1867 105.884 44.992 106.711 47.9865 108.058C46.4964 105.655 45.6797 104.435 44.0464 101.969C42.37 102.935 41.496 103.405 39.791 104.346Z" fill="#212121"/>
<path d="M30.9938 100.341C33.5298 101.511 35.2348 102.286 38.5875 103.812C36.9255 101.333 36.0945 100.099 34.5614 97.6711C32.9997 98.6755 32.2689 99.1967 30.9938 100.341Z" fill="#212121"/>
</g>
<g opacity="0.5">
<path d="M58.2165 123.937C59.4057 124.484 60.0218 124.776 61.211 125.323C61.1251 120.644 61.0821 118.305 60.9818 113.627C59.8355 113.093 59.2624 112.826 58.1162 112.304C58.1592 116.958 58.1735 119.284 58.2165 123.937Z" fill="#212121"/>
<path d="M53.8466 123.11C58.2022 125.145 61.5836 126.67 65.7673 128.653C65.7386 127.319 64.5781 125.704 63.002 124.954C60.5376 123.797 59.1335 123.161 56.6405 122.004C55.0358 121.28 53.8466 121.801 53.8466 123.11Z" fill="#212121"/>
<path d="M62.1423 109.901L63.9763 113.347C63.4032 114.427 63.1023 114.974 62.5005 116.042C63.0163 116.004 63.2742 115.991 63.79 115.953C64.4778 115.139 64.8216 114.733 65.4807 113.919C64.879 112.66 64.5637 112.025 63.9333 110.766C65.6813 111.618 66.541 112.05 68.1314 112.876C68.1314 117.428 64.7787 119.436 59.7353 117.097C54.6919 114.771 51.3535 109.571 51.3535 105.007C55.1074 106.672 57.6291 107.766 62.1423 109.901Z" fill="#212121"/>
</g>
<path d="M156.978 47.7712C156.262 47.3008 79.3357 11.6399 79.3357 11.6399L55.4656 22.5861L134.34 58.6792L134.383 58.7173L157.465 48.2289C157.465 48.2289 157.422 48.1271 157.293 48C157.193 47.9237 157.021 47.8093 156.978 47.7712Z" fill="#FFE0B2"/>
<path d="M157.35 48.0762C144.284 53.7845 134.34 58.6791 134.34 58.6791C134.67 58.9715 134.684 59.3529 134.684 59.5436C134.641 61.0183 134.612 62.188 134.569 63.65C134.369 71.2144 134.254 78.7916 133.968 86.356C134.927 85.8475 136.088 86.9662 136.962 86.356C138.309 85.4152 141.174 81.2707 141.604 81.1435C142.177 80.9783 142.793 81.1054 143.381 81.08C145.96 80.9528 151.734 76.287 152.966 76.0709C154.155 75.8675 158.081 76.5413 158.081 76.5413C158.081 76.5413 157.809 53.4666 157.709 49.5891C157.68 48.216 157.35 48.0762 157.35 48.0762Z" fill="#BF9F85"/>
<path d="M180.283 91.1926C180.283 89.7149 178.736 88.7475 177.408 89.3945L167.348 94.2939C166.66 94.6289 166.224 95.3269 166.224 96.092V113.406C166.224 114.883 167.771 115.851 169.099 115.204L179.159 110.304C179.847 109.969 180.283 109.271 180.283 108.506V91.1926Z" fill="#BF9F85"/>
<path d="M129.562 78.7318C129.562 77.2816 128.067 76.3135 126.744 76.9069L110.92 84.0026C110.201 84.325 109.738 85.0395 109.738 85.8275V111.216C109.738 112.674 111.249 113.642 112.575 113.032L128.398 105.748C129.108 105.421 129.562 104.712 129.562 103.931V78.7318Z" fill="#BF9F85"/>
<path d="M165.929 130.171L191.212 187.855C191.439 188.373 192.05 188.6 192.56 188.355L239.347 165.921C239.694 165.755 239.915 165.404 239.915 165.02V120.495C239.915 119.885 239.373 119.418 238.77 119.506L165.929 130.171Z" fill="#C78C61"/>
<path d="M206.074 163.918L197.246 167.808V180.851L206.074 176.857V163.918Z" fill="#FFE1B4" fill-opacity="0.7"/>
<path d="M190.758 96.602C191.307 96.3385 191.947 96.3399 192.495 96.6057L239.081 119.19C239.843 119.559 239.829 120.65 239.057 121L191.627 142.494V188.802L143.34 165.649V119.338L190.758 96.602Z" fill="#E6A475"/>
<path d="M191.627 142.494V188.803L143.34 165.649V119.338L191.627 142.494Z" fill="#A06841"/>
<path d="M175.63 103.856L224.723 127.404L209.242 134.569L160.691 111.019H160.689" fill="#FFCC80"/>
<path d="M160.309 145.482L167.529 141.215L174.98 152.497L169.495 149.874V168.986L165.678 167.155V148.049L160.309 145.482Z" fill="#7D5133"/>
<path d="M208.145 143.476V147.204L229.738 136.848V133.122L208.145 143.476Z" fill="#A06841"/>
<path d="M208.145 152.759V156.487L229.738 146.133V142.407L208.145 152.759Z" fill="#A06841"/>
<path d="M53.7827 110.536L43.2093 115.434L21.5174 125.475C17.7203 127.235 13.9131 128.985 10.1159 130.745C7.57108 131.924 2.14808 133.402 1.31999 136.259C1.13821 136.903 1.20891 137.575 1.28969 138.237C1.65325 141.248 1.56236 143.924 3.74368 146.309C5.80381 148.559 9.26766 151.57 12.8426 151.57C21.0326 153.973 28.849 157.266 36.8977 160.005C44.0879 162.454 53.1464 166.264 60.4882 162.563C61.3769 162.118 62.104 161.511 63.0028 161.112C64.2045 160.577 65.4567 160.159 66.6484 159.588C70.0314 157.982 73.0106 155.778 76.2118 153.91C81.6045 150.754 87.5628 148.54 93.3695 146.101C96.288 144.876 99.1864 143.588 101.943 142.092C103.32 141.35 104.655 140.548 105.942 139.688C106.932 139.026 108.679 138.11 109.022 136.958C109.073 136.804 109.093 136.649 109.093 136.486C109.083 135.851 108.679 135.271 108.144 134.863C106.367 133.502 103.842 132.795 101.751 131.969C99.0248 130.899 96.4597 129.366 93.8643 128.051C88.3909 125.275 82.877 122.573 77.3227 119.951C73.2107 118.009 69.0768 116.104 64.9215 114.237C62.7907 113.285 60.6599 112.341 58.519 111.398C57.1455 110.799 55.3581 109.811 53.7827 110.536Z" fill="#E6A475"/>
<path d="M1.71777 191.334C2.50207 192.132 3.56139 192.713 4.60033 193.239C9.78488 195.861 15.1018 198.247 20.4188 200.679C23.0773 201.904 25.7459 203.12 28.4044 204.345C31.0221 205.551 33.6501 206.749 36.2678 207.956L43.3265 211.195C45.1803 212.048 47.0341 212.901 48.8879 213.744C50.0084 214.262 51.1288 214.779 52.2594 215.287C53.6956 215.949 54.6938 216.593 56.3541 216.058C57.7393 215.613 57.8208 214.107 58.1366 212.946C59.0125 209.761 59.3792 206.477 59.532 203.201C59.7459 198.864 59.583 194.509 59.4302 190.172C59.2468 184.964 59.6135 179.747 59.369 174.512C59.2977 173.078 59.257 171.636 59.2061 170.211C59.1653 168.95 58.2995 167.798 57.4745 166.818C56.4661 165.629 55.3253 164.377 55.254 162.889C55.1216 160.448 52.3918 159.741 50.3343 158.933C47.2276 157.708 44.233 156.202 41.2079 154.823C30.4742 149.929 19.832 144.878 9.28577 139.671C8.01256 139.045 1.00477 134.218 0.97421 137.811C0.811238 153.97 0.638081 170.121 0.342695 186.28C0.312138 187.732 0.312138 189.265 1.10663 190.526C1.27978 190.844 1.4835 191.098 1.71777 191.334Z" fill="#A06841"/>
<path d="M109.046 191.759C107.977 192.734 106.429 193.43 104.464 194.349C100.259 196.318 96.0436 198.295 91.8386 200.264C83.2758 204.274 74.7231 208.285 66.1603 212.287C64.297 213.16 57.9131 216.966 55.8156 216.14C54.2069 215.509 55.1844 208.248 55.1844 206.651V186.142V175.548C55.1844 171.705 55.5815 167.629 54.9095 163.841C54.7058 162.69 54.4818 161.622 55.2455 160.601C56.4673 158.985 59.4098 158.122 61.2832 157.24C63.5538 156.172 65.8243 155.104 68.105 154.036C73.8678 151.325 79.6205 148.624 85.3834 145.913L99.1287 139.451C101.583 138.299 104.291 136.498 106.928 135.783C109.27 135.152 109.718 137.046 109.86 138.829C110.268 144.167 110.196 149.58 110.329 154.928C110.593 165.568 110.756 176.198 110.838 186.838C110.858 189.262 110.247 190.673 109.046 191.759Z" fill="#C78C61"/>
<path d="M102.154 148.584C102.154 147.845 101.381 147.361 100.716 147.685L88.6567 153.558C88.3128 153.726 88.0946 154.075 88.0946 154.457V173.996C88.0946 174.734 88.8682 175.218 89.5325 174.895L101.592 169.021C101.936 168.854 102.154 168.505 102.154 168.122V148.584Z" fill="#FCE8B2" fill-opacity="0.7"/>
<path d="M81.6249 152.845C84.6296 151.466 108.179 140.251 108.189 139.018C108.189 138.001 85.5158 148.699 85.5158 148.699C85.5158 148.699 57.2402 161.583 56.792 162.671C56.3337 163.76 78.9664 154.07 81.6249 152.845Z" fill="#A06841"/>
<path d="M92.3099 200.139C92.3099 197.743 92.1266 192.744 92.1266 192.744C92.1266 192.744 90.0181 194.341 88.694 194.785C87.655 195.13 86.5244 195.312 85.6179 195.883C84.6808 196.482 84.0696 197.435 83.1122 198.015C80.7491 199.458 77.5304 198.886 77.5304 198.886V206.925L92.3099 200.139Z" fill="#FFCC80"/>
<path d="M3.43896 189.21C7.11602 190.861 10.7625 192.567 15.3155 194.636V193.057C10.7931 190.998 7.13639 189.301 3.43896 187.631V189.21Z" fill="#7D5133"/>
<path d="M11.1801 189.918C12.2088 190.39 12.7283 190.626 13.7163 191.08C13.7265 188.33 13.7265 186.951 13.7367 184.202C12.769 183.757 12.2496 183.531 11.2208 183.059C11.2004 185.799 11.1902 187.178 11.1801 189.918Z" fill="#7D5133"/>
<path d="M4.74268 186.978C5.60846 187.368 6.07701 187.586 7.05484 188.031L7.10577 181.171C6.11775 180.718 5.64921 180.5 4.77323 180.101C4.76305 182.859 4.75286 184.229 4.74268 186.978Z" fill="#7D5133"/>
<path d="M9.55042 183.113C11.9033 184.193 13.1765 184.765 15.2442 185.708C14.2053 184.039 13.6451 183.177 12.4941 181.453C11.3533 182.133 10.7421 182.46 9.55042 183.113Z" fill="#7D5133"/>
<path d="M3.43909 180.319C5.20122 181.135 6.38276 181.67 8.72548 182.741C7.56431 181.008 6.99391 180.146 5.92441 178.458C4.83453 179.157 4.32525 179.52 3.43909 180.319Z" fill="#7D5133"/>
<path d="M22.3234 196.405C23.1586 196.786 23.5762 196.986 24.4115 197.376L24.2587 189.21C23.4642 188.838 23.0568 188.648 22.2725 188.285C22.2826 191.533 22.2928 193.157 22.3234 196.405Z" fill="#7D5133"/>
<path d="M19.288 195.834C22.3131 197.258 24.6762 198.32 27.5792 199.708C27.5588 198.773 26.7541 197.648 25.654 197.131C23.9428 196.324 22.965 195.879 21.2233 195.072C20.113 194.545 19.288 194.917 19.288 195.834Z" fill="#7D5133"/>
<path d="M25.0532 186.606C25.5625 187.568 25.8273 188.049 26.3264 189.01C25.919 189.764 25.7153 190.145 25.2977 190.898C25.6644 190.87 25.8375 190.861 26.194 190.834C26.6728 190.263 26.907 189.981 27.3654 189.41C26.9478 188.53 26.7237 188.094 26.2959 187.205C27.5182 187.795 28.1089 188.103 29.2192 188.684C29.2192 191.869 26.8867 193.257 23.3828 191.633C19.8789 190.009 17.5565 186.37 17.5565 183.195C20.1641 184.356 21.916 185.109 25.0532 186.606Z" fill="#7D5133"/>
<path d="M90.5853 143.939C90.0839 143.61 36.2357 118.647 36.2357 118.647L19.5266 126.31L74.7388 151.575L74.7689 151.601L90.9263 144.259C90.9263 144.259 90.8962 144.188 90.806 144.099C90.7358 144.046 90.6154 143.966 90.5853 143.939Z" fill="#FCE8B2"/>
<path d="M90.8459 144.153C81.699 148.149 74.7386 151.575 74.7386 151.575C74.9692 151.78 74.9793 152.047 74.9793 152.18C74.9492 153.213 74.9291 154.031 74.899 155.055C74.7586 160.35 74.6784 165.654 74.4778 170.949C75.1498 170.593 75.9621 171.376 76.5739 170.949C77.5167 170.29 79.5226 167.389 79.8235 167.3C80.2247 167.185 80.6559 167.274 81.0671 167.256C82.8724 167.167 86.9143 163.901 87.7768 163.749C88.6093 163.607 91.3574 164.079 91.3574 164.079C91.3574 164.079 91.1668 147.926 91.0966 145.212C91.0765 144.251 90.8459 144.153 90.8459 144.153Z" fill="#FFCC80"/>
</svg>
