<svg width="50" height="50" viewBox="0 0 50 50" fill="none" xmlns="http://www.w3.org/2000/svg">
<rect x="1" y="1" width="48" height="48" stroke="#433601" stroke-width="2"/>
<path fill-rule="evenodd" clip-rule="evenodd" d="M28.2 11.6643V39.625C28.2 40.056 28.0288 40.4693 27.7241 40.774C27.4193 41.0788 27.006 41.25 26.575 41.25H11.625C11.194 41.25 10.7807 41.0788 10.476 40.774C10.1712 40.4693 10 40.056 10 39.625V13.625C10 10.9327 12.1827 8.75 14.875 8.75H29.37C28.6179 9.53361 28.1985 10.5781 28.2 11.6643ZM23.9542 36.0142C24.1447 36.2102 24.4576 36.375 24.95 36.375C25.1224 36.375 25.2877 36.4435 25.4096 36.5654C25.5315 36.6873 25.6 36.8526 25.6 37.025C25.6 37.1974 25.5315 37.3627 25.4096 37.4846C25.2877 37.6065 25.1224 37.675 24.95 37.675C24.1424 37.675 23.4804 37.3929 23.0208 36.9191C22.5687 36.4527 22.35 35.8387 22.35 35.2375C22.35 34.6362 22.5687 34.0223 23.0208 33.5563C23.4804 33.0818 24.1424 32.8 24.95 32.8C25.1224 32.8 25.2877 32.8685 25.4096 32.9904C25.5315 33.1123 25.6 33.2776 25.6 33.45C25.6 33.6224 25.5315 33.7877 25.4096 33.9096C25.2877 34.0315 25.1224 34.1 24.95 34.1C24.4576 34.1 24.1447 34.2648 23.9542 34.4611C23.7563 34.6652 23.65 34.9453 23.65 35.2375C23.65 35.5297 23.7563 35.8101 23.9542 36.0142ZM24.95 29.55C24.4576 29.55 24.1447 29.3852 23.9542 29.1889C23.7563 28.9848 23.65 28.7047 23.65 28.4125C23.65 28.1203 23.7563 27.8402 23.9542 27.6361C24.1447 27.4398 24.4576 27.275 24.95 27.275C25.1224 27.275 25.2877 27.2065 25.4096 27.0846C25.5315 26.9627 25.6 26.7974 25.6 26.625C25.6 26.4526 25.5315 26.2873 25.4096 26.1654C25.2877 26.0435 25.1224 25.975 24.95 25.975C24.1424 25.975 23.4804 26.2571 23.0208 26.7309C22.5687 27.1973 22.35 27.8112 22.35 28.4125C22.35 29.0138 22.5687 29.6277 23.0208 30.0937C23.4804 30.5682 24.1424 30.85 24.95 30.85C25.1224 30.85 25.2877 30.7815 25.4096 30.6596C25.5315 30.5377 25.6 30.3724 25.6 30.2C25.6 30.0276 25.5315 29.8623 25.4096 29.7404C25.2877 29.6185 25.1224 29.55 24.95 29.55ZM23.9542 22.3639C24.1447 22.5602 24.4576 22.725 24.95 22.725C25.1224 22.725 25.2877 22.7935 25.4096 22.9154C25.5315 23.0373 25.6 23.2026 25.6 23.375C25.6 23.5474 25.5315 23.7127 25.4096 23.8346C25.2877 23.9565 25.1224 24.025 24.95 24.025C24.1424 24.025 23.4804 23.7429 23.0208 23.2687C22.5687 22.803 22.35 22.1891 22.35 21.5875C22.35 20.9859 22.5687 20.3723 23.0208 19.9059C23.4804 19.4321 24.1424 19.15 24.95 19.15C25.1224 19.15 25.2877 19.2185 25.4096 19.3404C25.5315 19.4623 25.6 19.6276 25.6 19.8C25.6 19.9724 25.5315 20.1377 25.4096 20.2596C25.2877 20.3815 25.1224 20.45 24.95 20.45C24.4576 20.45 24.1447 20.6148 23.9542 20.8111C23.7563 21.0152 23.65 21.2953 23.65 21.5875C23.65 21.8797 23.7563 22.1598 23.9542 22.3639ZM24.95 15.9C24.4576 15.9 24.1447 15.7352 23.9542 15.5389C23.7563 15.3348 23.65 15.0547 23.65 14.7625C23.65 14.4703 23.7563 14.1902 23.9542 13.9861C24.1447 13.7898 24.4576 13.625 24.95 13.625C25.1224 13.625 25.2877 13.5565 25.4096 13.4346C25.5315 13.3127 25.6 13.1474 25.6 12.975C25.6 12.8026 25.5315 12.6373 25.4096 12.5154C25.2877 12.3935 25.1224 12.325 24.95 12.325C24.1424 12.325 23.4804 12.6071 23.0208 13.0809C22.5687 13.5473 22.35 14.1612 22.35 14.7625C22.35 15.3637 22.5687 15.9777 23.0208 16.4437C23.4804 16.9182 24.1424 17.2 24.95 17.2C25.1224 17.2 25.2877 17.1315 25.4096 17.0096C25.5315 16.8877 25.6 16.7224 25.6 16.55C25.6 16.3776 25.5315 16.2123 25.4096 16.0904C25.2877 15.9685 25.1224 15.9 24.95 15.9ZM18.9167 36.0139C19.1072 36.2102 19.4201 36.375 19.9125 36.375C20.0849 36.375 20.2502 36.4435 20.3721 36.5654C20.494 36.6873 20.5625 36.8526 20.5625 37.025C20.5625 37.1974 20.494 37.3627 20.3721 37.4846C20.2502 37.6065 20.0849 37.675 19.9125 37.675C19.1049 37.675 18.4429 37.3929 17.9833 36.9191C17.5312 36.4527 17.3125 35.8387 17.3125 35.2375C17.3125 34.6362 17.5312 34.0223 17.9833 33.5563C18.4429 33.0818 19.1049 32.8 19.9125 32.8C20.0849 32.8 20.2502 32.8685 20.3721 32.9904C20.494 33.1123 20.5625 33.2776 20.5625 33.45C20.5625 33.6224 20.494 33.7877 20.3721 33.9096C20.2502 34.0315 20.0849 34.1 19.9125 34.1C19.4201 34.1 19.1072 34.2648 18.9167 34.4611C18.7188 34.6652 18.6125 34.9453 18.6125 35.2375C18.6125 35.5297 18.7188 35.8098 18.9167 36.0139ZM19.9125 29.55C19.4201 29.55 19.1072 29.3852 18.9167 29.1889C18.7188 28.9848 18.6125 28.7047 18.6125 28.4125C18.6125 28.1203 18.7188 27.8402 18.9167 27.6361C19.1072 27.4398 19.4201 27.275 19.9125 27.275C20.0849 27.275 20.2502 27.2065 20.3721 27.0846C20.494 26.9627 20.5625 26.7974 20.5625 26.625C20.5625 26.4526 20.494 26.2873 20.3721 26.1654C20.2502 26.0435 20.0849 25.975 19.9125 25.975C19.1049 25.975 18.4429 26.2571 17.9833 26.7309C17.5312 27.1973 17.3125 27.8112 17.3125 28.4125C17.3125 29.0138 17.5312 29.6277 17.9833 30.0937C18.4429 30.5682 19.1049 30.85 19.9125 30.85C20.0849 30.85 20.2502 30.7815 20.3721 30.6596C20.494 30.5377 20.5625 30.3724 20.5625 30.2C20.5625 30.0276 20.494 29.8623 20.3721 29.7404C20.2502 29.6185 20.0849 29.55 19.9125 29.55ZM18.9167 22.3639C19.1072 22.5602 19.4201 22.725 19.9125 22.725C20.0849 22.725 20.2502 22.7935 20.3721 22.9154C20.494 23.0373 20.5625 23.2026 20.5625 23.375C20.5625 23.5474 20.494 23.7127 20.3721 23.8346C20.2502 23.9565 20.0849 24.025 19.9125 24.025C19.1049 24.025 18.4429 23.7429 17.9833 23.2687C17.5312 22.803 17.3125 22.1891 17.3125 21.5875C17.3125 20.9859 17.5312 20.3723 17.9833 19.9059C18.4429 19.4321 19.1049 19.15 19.9125 19.15C20.0849 19.15 20.2502 19.2185 20.3721 19.3404C20.494 19.4623 20.5625 19.6276 20.5625 19.8C20.5625 19.9724 20.494 20.1377 20.3721 20.2596C20.2502 20.3815 20.0849 20.45 19.9125 20.45C19.4201 20.45 19.1072 20.6148 18.9167 20.8111C18.7188 21.0152 18.6125 21.2953 18.6125 21.5875C18.6125 21.8797 18.7188 22.1598 18.9167 22.3639ZM19.9125 15.9C19.4201 15.9 19.1072 15.7352 18.9167 15.5389C18.7188 15.3348 18.6125 15.0547 18.6125 14.7625C18.6125 14.4703 18.7188 14.1902 18.9167 13.9861C19.1072 13.7898 19.4201 13.625 19.9125 13.625C20.0849 13.625 20.2502 13.5565 20.3721 13.4346C20.494 13.3127 20.5625 13.1474 20.5625 12.975C20.5625 12.8026 20.494 12.6373 20.3721 12.5154C20.2502 12.3935 20.0849 12.325 19.9125 12.325C19.1049 12.325 18.4429 12.6071 17.9833 13.0809C17.5312 13.5473 17.3125 14.1612 17.3125 14.7625C17.3125 15.3637 17.5312 15.9777 17.9833 16.4437C18.4429 16.9182 19.1049 17.2 19.9125 17.2C20.0849 17.2 20.2502 17.1315 20.3721 17.0096C20.494 16.8877 20.5625 16.7224 20.5625 16.55C20.5625 16.3776 20.494 16.2123 20.3721 16.0904C20.2502 15.9685 20.0849 15.9 19.9125 15.9ZM13.8792 36.0139C14.0697 36.2102 14.3826 36.375 14.875 36.375C15.0474 36.375 15.2127 36.4435 15.3346 36.5654C15.4565 36.6873 15.525 36.8526 15.525 37.025C15.525 37.1974 15.4565 37.3627 15.3346 37.4846C15.2127 37.6065 15.0474 37.675 14.875 37.675C14.0674 37.675 13.4053 37.3929 12.9458 36.9191C12.4937 36.4527 12.275 35.8387 12.275 35.2375C12.275 34.6362 12.4937 34.0223 12.9458 33.5563C13.4053 33.0818 14.0674 32.8 14.875 32.8C15.0474 32.8 15.2127 32.8685 15.3346 32.9904C15.4565 33.1123 15.525 33.2776 15.525 33.45C15.525 33.6224 15.4565 33.7877 15.3346 33.9096C15.2127 34.0315 15.0474 34.1 14.875 34.1C14.3826 34.1 14.0697 34.2648 13.8792 34.4611C13.6813 34.6652 13.575 34.9453 13.575 35.2375C13.575 35.5297 13.6813 35.8098 13.8792 36.0139ZM14.875 29.55C14.3826 29.55 14.0697 29.3852 13.8792 29.1889C13.6813 28.9848 13.575 28.7047 13.575 28.4125C13.575 28.1203 13.6813 27.8402 13.8792 27.6361C14.0697 27.4398 14.3826 27.275 14.875 27.275C15.0474 27.275 15.2127 27.2065 15.3346 27.0846C15.4565 26.9627 15.525 26.7974 15.525 26.625C15.525 26.4526 15.4565 26.2873 15.3346 26.1654C15.2127 26.0435 15.0474 25.975 14.875 25.975C14.0674 25.975 13.4053 26.2571 12.9458 26.7309C12.4937 27.1973 12.275 27.8112 12.275 28.4125C12.275 29.0138 12.4937 29.6277 12.9458 30.0937C13.4053 30.5682 14.0674 30.85 14.875 30.85C15.0474 30.85 15.2127 30.7815 15.3346 30.6596C15.4565 30.5377 15.525 30.3724 15.525 30.2C15.525 30.0276 15.4565 29.8623 15.3346 29.7404C15.2127 29.6185 15.0474 29.55 14.875 29.55ZM13.8792 22.3639C14.0697 22.5602 14.3826 22.725 14.875 22.725C15.0474 22.725 15.2127 22.7935 15.3346 22.9154C15.4565 23.0373 15.525 23.2026 15.525 23.375C15.525 23.5474 15.4565 23.7127 15.3346 23.8346C15.2127 23.9565 15.0474 24.025 14.875 24.025C14.0674 24.025 13.4053 23.7429 12.9458 23.2687C12.4937 22.803 12.275 22.1891 12.275 21.5875C12.275 20.9859 12.4937 20.3723 12.9458 19.9059C13.4053 19.4321 14.0674 19.15 14.875 19.15C15.0474 19.15 15.2127 19.2185 15.3346 19.3404C15.4565 19.4623 15.525 19.6276 15.525 19.8C15.525 19.9724 15.4565 20.1377 15.3346 20.2596C15.2127 20.3815 15.0474 20.45 14.875 20.45C14.3826 20.45 14.0697 20.6148 13.8792 20.8111C13.6813 21.0152 13.575 21.2953 13.575 21.5875C13.575 21.8797 13.6813 22.1598 13.8792 22.3639ZM14.875 15.9C14.3826 15.9 14.0697 15.7352 13.8792 15.5389C13.6813 15.3348 13.575 15.0547 13.575 14.7625C13.575 14.4703 13.6813 14.1902 13.8792 13.9861C14.0697 13.7898 14.3826 13.625 14.875 13.625C15.0474 13.625 15.2127 13.5565 15.3346 13.4346C15.4565 13.3127 15.525 13.1474 15.525 12.975C15.525 12.8026 15.4565 12.6373 15.3346 12.5154C15.2127 12.3935 15.0474 12.325 14.875 12.325C14.0674 12.325 13.4053 12.6071 12.9458 13.0809C12.4937 13.5473 12.275 14.1612 12.275 14.7625C12.275 15.3637 12.4937 15.9777 12.9458 16.4437C13.4053 16.9182 14.0674 17.2 14.875 17.2C15.0474 17.2 15.2127 17.1315 15.3346 17.0096C15.4565 16.8877 15.525 16.7224 15.525 16.55C15.525 16.3776 15.4565 16.2123 15.3346 16.0904C15.2127 15.9685 15.0474 15.9 14.875 15.9Z" fill="#433601"/>
<path d="M36.6507 14.925H38.9257C39.3567 14.925 39.77 15.0962 40.0748 15.401C40.3795 15.7057 40.5507 16.119 40.5507 16.55V32.15C40.5507 32.6672 40.3453 33.1632 39.9796 33.5289C39.6139 33.8946 39.1179 34.1 38.6007 34.1C38.0836 34.1 37.5876 33.8946 37.2219 33.5289C36.8562 33.1632 36.6507 32.6672 36.6507 32.15V14.925ZM29.5007 34.1H36.0007C35.5779 33.5379 35.3497 32.8534 35.3507 32.15V11.675C35.3507 10.0656 34.0247 8.75 32.415 8.75C31.6421 8.75 30.9008 9.05704 30.3543 9.60357C29.8078 10.1501 29.5007 10.8914 29.5007 11.6643V34.1Z" fill="#433601"/>
</svg>
