<svg width="50" height="50" viewBox="0 0 50 50" fill="none" xmlns="http://www.w3.org/2000/svg">
<rect x="1" y="1" width="48" height="48" stroke="#433601" stroke-width="2"/>
<path d="M32.0834 13.9571L18.4938 21.8051L22.9041 24.3509L36.4937 16.5041L32.0834 13.9571ZM27.6539 11.4005L23.2045 8.83063C23.113 8.77781 23.0092 8.75 22.9035 8.75C22.7979 8.75 22.6941 8.77781 22.6026 8.83063L9.31396 16.5035L14.0667 19.2479L27.6539 11.4005ZM14.7071 24.4177L16.7292 25.5853V22.1746L14.7071 21.0071V24.4177ZM33.4255 24.3985C34.6762 24.3986 35.913 24.6604 37.0564 25.167V17.57L23.5054 25.3963V40.996L26.5356 39.2459C25.1549 37.6211 24.3972 35.5582 24.3979 33.4261C24.3979 28.4482 28.4477 24.3985 33.4255 24.3985ZM17.2914 21.1094L30.8791 13.2626L28.8581 12.095L15.2698 19.9424L17.2914 21.1094Z" fill="#433601"/>
<path fill-rule="evenodd" clip-rule="evenodd" d="M17.8517 26.929C17.9045 26.8375 17.9323 26.7337 17.9323 26.6281V22.8702L22.3017 25.3937V40.9965L9.05092 33.3458C8.95943 33.293 8.88346 33.2171 8.83064 33.1256C8.77781 33.0341 8.75 32.9303 8.75 32.8247V17.5674L13.5033 20.313V24.7654C13.5032 24.8711 13.531 24.9751 13.5838 25.0667C13.6367 25.1583 13.7127 25.2343 13.8043 25.2872L17.0295 27.1493C17.121 27.2021 17.2248 27.2299 17.3304 27.2299C17.4361 27.2299 17.5399 27.2021 17.6314 27.1493C17.7229 27.0965 17.7988 27.0205 17.8517 26.929ZM21.2965 36.6463C21.4506 36.605 21.5821 36.5041 21.6619 36.3659C21.7417 36.2277 21.7633 36.0634 21.722 35.9092C21.6807 35.755 21.5798 35.6236 21.4416 35.5438L17.254 33.1256C17.1159 33.047 16.9522 33.0263 16.7989 33.0679C16.6455 33.1096 16.5148 33.2102 16.4353 33.3478C16.3559 33.4855 16.3341 33.649 16.3747 33.8026C16.4153 33.9562 16.5151 34.0876 16.6522 34.168L20.8398 36.5862C20.978 36.666 21.1423 36.6876 21.2965 36.6463ZM21.2965 34.2389C21.4506 34.1976 21.5821 34.0968 21.6619 33.9585C21.7417 33.8203 21.7633 33.656 21.722 33.5018C21.6807 33.3477 21.5798 33.2162 21.4416 33.1364L17.254 30.7182C17.1159 30.6397 16.9522 30.6189 16.7989 30.6606C16.6455 30.7022 16.5148 30.8028 16.4353 30.9405C16.3559 31.0781 16.3341 31.2416 16.3747 31.3952C16.4153 31.5489 16.5151 31.6802 16.6522 31.7606L20.8398 34.1788C20.978 34.2586 21.1423 34.2802 21.2965 34.2389ZM25.6015 33.4265C25.6015 29.1125 29.1115 25.6026 33.4255 25.6026C37.7395 25.6026 41.2494 29.1125 41.2494 33.4265C41.2494 37.7405 37.7395 41.2504 33.4255 41.2504C29.1115 41.2504 25.6015 37.7405 25.6015 33.4265ZM31.4902 37.7123C32.1163 37.9039 32.7716 37.9998 33.4562 37.9998C34.2576 37.9998 34.9213 37.8831 35.4472 37.6498C35.9732 37.4081 36.3614 37.0914 36.6118 36.6998C36.8706 36.2998 37 35.8664 37 35.3998C37 34.9414 36.904 34.5623 36.712 34.2623C36.5283 33.9623 36.2821 33.7248 35.9732 33.5498C35.6726 33.3748 35.3345 33.2331 34.9589 33.1248C34.5915 33.0164 34.22 32.9206 33.8444 32.8373C33.4687 32.7456 33.1264 32.6539 32.8175 32.5623C32.517 32.4706 32.2707 32.3456 32.0787 32.1873C31.8951 32.0206 31.8032 31.8039 31.8032 31.5373C31.8032 31.3123 31.8658 31.1123 31.9911 30.9373C32.1246 30.7623 32.3292 30.6206 32.6047 30.5123C32.8885 30.4039 33.2558 30.3498 33.7066 30.3498C34.0906 30.3498 34.4914 30.4081 34.9088 30.5248C35.3262 30.6331 35.7311 30.8039 36.1234 31.0373L36.6369 29.7748C36.2528 29.5248 35.802 29.3331 35.2844 29.1998C34.7668 29.0664 34.2451 28.9998 33.7191 28.9998C32.9177 28.9998 32.254 29.1206 31.7281 29.3623C31.2105 29.5956 30.8223 29.9123 30.5635 30.3123C30.3131 30.7039 30.1878 31.1373 30.1878 31.6123C30.1878 32.0789 30.2838 32.4623 30.4758 32.7623C30.6679 33.0623 30.9141 33.3039 31.2147 33.4873C31.5236 33.6623 31.8617 33.8081 32.229 33.9248C32.6047 34.0331 32.9761 34.1289 33.3435 34.2123C33.7191 34.2956 34.0572 34.3873 34.3578 34.4873C34.6667 34.5789 34.9171 34.7081 35.1091 34.8748C35.3011 35.0331 35.3971 35.2456 35.3971 35.5123C35.3971 35.7289 35.3304 35.9248 35.1968 36.0998C35.0632 36.2664 34.8545 36.3998 34.5707 36.4998C34.2868 36.5998 33.9153 36.6498 33.4562 36.6498C32.9135 36.6498 32.3834 36.5581 31.8658 36.3748C31.3482 36.1914 30.9141 35.9623 30.5635 35.6873L30 36.9498C30.3673 37.2581 30.864 37.5123 31.4902 37.7123Z" fill="#433601"/>
</svg>
