<svg width="50" height="50" viewBox="0 0 50 50" fill="none" xmlns="http://www.w3.org/2000/svg">
<rect x="1" y="1" width="48" height="48" stroke="#433601" stroke-width="2"/>
<path d="M32.0834 13.9571L18.4938 21.8051L22.9041 24.3509L36.4937 16.5041L32.0834 13.9571ZM27.6539 11.4005L23.2045 8.83063C23.113 8.77781 23.0092 8.75 22.9035 8.75C22.7979 8.75 22.6941 8.77781 22.6026 8.83063L9.31396 16.5035L14.0667 19.2479L27.6539 11.4005ZM14.7071 24.4177L16.7292 25.5853V22.1746L14.7071 21.0071V24.4177ZM33.4255 24.3985C34.6762 24.3986 35.913 24.6604 37.0564 25.167V17.57L23.5054 25.3963V40.996L26.5356 39.2459C25.1549 37.6211 24.3972 35.5582 24.3979 33.4261C24.3979 28.4482 28.4477 24.3985 33.4255 24.3985ZM17.2914 21.1094L30.8791 13.2626L28.8581 12.095L15.2698 19.9424L17.2914 21.1094Z" fill="#433601"/>
<path fill-rule="evenodd" clip-rule="evenodd" d="M17.8517 26.929C17.9045 26.8375 17.9323 26.7337 17.9323 26.6281V22.8702L22.3017 25.3937V40.9965L9.05092 33.3458C8.95943 33.293 8.88346 33.2171 8.83064 33.1256C8.77781 33.0341 8.75 32.9303 8.75 32.8247V17.5674L13.5033 20.313V24.7654C13.5032 24.8711 13.531 24.9751 13.5838 25.0667C13.6367 25.1583 13.7127 25.2343 13.8043 25.2872L17.0295 27.1493C17.121 27.2021 17.2248 27.2299 17.3304 27.2299C17.4361 27.2299 17.5399 27.2021 17.6314 27.1493C17.7229 27.0965 17.7988 27.0205 17.8517 26.929ZM21.2965 36.6463C21.4506 36.605 21.5821 36.5041 21.6619 36.3659C21.7417 36.2277 21.7633 36.0634 21.722 35.9092C21.6807 35.755 21.5798 35.6236 21.4416 35.5438L17.254 33.1256C17.1159 33.047 16.9522 33.0263 16.7989 33.0679C16.6455 33.1096 16.5148 33.2102 16.4353 33.3478C16.3559 33.4855 16.3341 33.649 16.3747 33.8026C16.4153 33.9562 16.5151 34.0876 16.6522 34.168L20.8398 36.5862C20.978 36.666 21.1423 36.6876 21.2965 36.6463ZM21.2965 34.2389C21.4506 34.1976 21.5821 34.0968 21.6619 33.9585C21.7417 33.8203 21.7633 33.656 21.722 33.5018C21.6807 33.3477 21.5798 33.2162 21.4416 33.1364L17.254 30.7182C17.1159 30.6397 16.9522 30.6189 16.7989 30.6606C16.6455 30.7022 16.5148 30.8028 16.4353 30.9405C16.3559 31.0781 16.3341 31.2416 16.3747 31.3952C16.4153 31.5489 16.5151 31.6802 16.6522 31.7606L20.8398 34.1788C20.978 34.2586 21.1423 34.2802 21.2965 34.2389ZM25.6015 33.4265C25.6015 29.1125 29.1115 25.6026 33.4255 25.6026C37.7395 25.6026 41.2494 29.1125 41.2494 33.4265C41.2494 37.7405 37.7395 41.2504 33.4255 41.2504C29.1115 41.2504 25.6015 37.7405 25.6015 33.4265ZM31 28.9998V36.9998H37V35.7426H32.5726V28.9998H31Z" fill="#433601"/>
</svg>
