<svg width="50" height="50" viewBox="0 0 50 50" fill="none" xmlns="http://www.w3.org/2000/svg">
<rect x="1" y="1" width="48" height="48" stroke="#433601" stroke-width="2"/>
<path fill-rule="evenodd" clip-rule="evenodd" d="M14.3191 22.604C14.3191 22.0517 14.7668 21.604 15.3191 21.604H34.6593C35.2116 21.604 35.6593 22.0517 35.6593 22.604V40.3795C35.6595 40.4939 35.6371 40.6072 35.5934 40.7129C35.5496 40.8186 35.4855 40.9147 35.4046 40.9955C35.3237 41.0764 35.2277 41.1406 35.122 41.1843C35.0162 41.228 34.9029 41.2504 34.7885 41.2503H15.1899C15.0755 41.2504 14.9622 41.228 14.8565 41.1843C14.7507 41.1406 14.6547 41.0764 14.5738 40.9955C14.4929 40.9147 14.4288 40.8186 14.3851 40.7129C14.3414 40.6072 14.3189 40.4939 14.3191 40.3795V22.604ZM18.5 25C17.9477 25 17.5 25.4477 17.5 26V34C17.5 34.5523 17.9477 35 18.5 35H31.5C32.0523 35 32.5 34.5523 32.5 34V26C32.5 25.4477 32.0523 25 31.5 25H18.5Z" fill="#433601"/>
<path fill-rule="evenodd" clip-rule="evenodd" d="M18.75 26.75C18.75 26.4739 18.9739 26.25 19.25 26.25H30.75C31.0261 26.25 31.25 26.4739 31.25 26.75V33.25C31.25 33.5261 31.0261 33.75 30.75 33.75H19.25C18.9739 33.75 18.75 33.5261 18.75 33.25V26.75ZM20 28C20 27.7239 20.2239 27.5 20.5 27.5H24.5C24.7761 27.5 25 27.7239 25 28V28.25C25 28.5261 24.7761 28.75 24.5 28.75H20.5C20.2239 28.75 20 28.5261 20 28.25V28ZM20.5 30C20.2239 30 20 30.2239 20 30.5V30.75C20 31.0261 20.2239 31.25 20.5 31.25H28.25C28.5261 31.25 28.75 31.0261 28.75 30.75V30.5C28.75 30.2239 28.5261 30 28.25 30H20.5Z" fill="#433601"/>
<path d="M25.6096 8.9993C25.4427 8.83932 25.2204 8.75 24.9893 8.75C24.7581 8.75 24.5358 8.83932 24.369 8.9993L21.0983 12.3182L22.3383 13.5402L24.1188 11.7348V19.111H25.8603V11.7348L27.6402 13.5408L28.8808 12.3188L25.6096 8.9993Z" fill="#433601"/>
</svg>
