<svg width="35" height="35" viewBox="0 0 35 35" fill="none" xmlns="http://www.w3.org/2000/svg">
<rect x="0.0415039" width="34" height="35" rx="17" fill="#916834" fill-opacity="0.9"/>
<path d="M9.5415 11.875C9.15088 11.901 8.94255 12.1094 8.9165 12.5V13.3594L15.6743 18.9062C16.091 19.2188 16.5467 19.375 17.0415 19.375C17.5623 19.375 18.0311 19.2188 18.4478 18.9062L25.1665 13.3594V12.5C25.1405 12.1094 24.9321 11.901 24.5415 11.875H9.5415ZM8.9165 15.7812V22.5C8.94255 22.8906 9.15088 23.099 9.5415 23.125H24.5415C24.9321 23.099 25.1405 22.8906 25.1665 22.5V15.7812L19.6196 20.3516C18.8384 20.9505 17.979 21.25 17.0415 21.25C16.104 21.25 15.2446 20.9505 14.4634 20.3516L8.9165 15.7812ZM7.0415 12.5C7.06755 11.7969 7.31494 11.2109 7.78369 10.7422C8.25244 10.2734 8.83838 10.026 9.5415 10H24.5415C25.2446 10.026 25.8306 10.2734 26.2993 10.7422C26.7681 11.2109 27.0155 11.7969 27.0415 12.5V22.5C27.0155 23.2031 26.7681 23.7891 26.2993 24.2578C25.8306 24.7266 25.2446 24.974 24.5415 25H9.5415C8.83838 24.974 8.25244 24.7266 7.78369 24.2578C7.31494 23.7891 7.06755 23.2031 7.0415 22.5V12.5Z" fill="white"/>
</svg>
