<svg width="50" height="50" viewBox="0 0 50 50" fill="none" xmlns="http://www.w3.org/2000/svg">
<rect x="1" y="1" width="48" height="48" stroke="#433601" stroke-width="2"/>
<path d="M16.9611 14.9129C19.2689 14.9129 21.7476 14.2748 21.7476 12.873C21.6849 10.1441 12.2316 10.1476 12.1689 12.873C12.1689 14.2748 14.6534 14.9129 16.9611 14.9129ZM16.9611 11.9784C19.3031 11.9784 20.5396 12.6337 20.6136 12.8673C20.5396 13.118 19.3031 13.7733 16.9611 13.7733C14.642 13.7733 13.4111 13.1294 13.3086 12.873C13.4111 12.6166 14.642 11.9784 16.9611 11.9784Z" fill="#433601"/>
<path d="M38.3805 15.8019H25.1682V12.8292C24.9288 7.38856 8.98078 7.39255 8.75 12.8275C8.79381 13.0782 8.79381 13.3346 8.75 13.5853V37.8938C8.75 40.0762 12.978 41.25 16.9554 41.25H38.3805C38.9848 41.2492 39.5641 41.0089 39.9914 40.5816C40.4187 40.1543 40.6591 39.575 40.6598 38.9707V18.0812C40.6599 17.7819 40.601 17.4854 40.4865 17.2089C40.3719 16.9323 40.2041 16.681 39.9924 16.4693C39.7807 16.2577 39.5294 16.0898 39.2529 15.9753C38.9763 15.8608 38.6799 15.8019 38.3805 15.8019ZM23.0752 33.9278L28.8703 21.3861C28.9373 21.2545 29.0528 21.1539 29.1924 21.1055C29.332 21.0572 29.4849 21.0647 29.619 21.1266C29.7532 21.1886 29.8581 21.3 29.9119 21.4376C29.9656 21.5753 29.964 21.7283 29.9073 21.8648L24.1123 34.4065C24.0488 34.544 23.9333 34.6507 23.7912 34.703C23.6491 34.7554 23.492 34.7492 23.3544 34.6857C23.2169 34.6222 23.1102 34.5067 23.0579 34.3646C23.0055 34.2225 23.0118 34.0654 23.0752 33.9278ZM18.3856 34.4065C18.3222 34.544 18.2066 34.6507 18.0645 34.703C17.9224 34.7554 17.7653 34.7492 17.6278 34.6857C17.4902 34.6222 17.3836 34.5067 17.3312 34.3646C17.2788 34.2225 17.2851 34.0654 17.3486 33.9278L23.1493 21.3861C23.215 21.253 23.3302 21.1509 23.4702 21.1016C23.6102 21.0522 23.764 21.0596 23.8986 21.1221C24.0333 21.1846 24.1381 21.2972 24.1908 21.436C24.2435 21.5748 24.2399 21.7287 24.1807 21.8648L18.3856 34.4065ZM35.634 21.8648L29.839 34.4065C29.7755 34.544 29.66 34.6507 29.5179 34.703C29.3757 34.7554 29.2186 34.7492 29.0811 34.6857C28.9436 34.6222 28.8369 34.5067 28.7845 34.3646C28.7322 34.2225 28.7384 34.0654 28.8019 33.9278L34.5969 21.3861C34.664 21.2545 34.7794 21.1539 34.919 21.1055C35.0586 21.0572 35.2116 21.0647 35.3457 21.1266C35.4799 21.1886 35.5848 21.3 35.6386 21.4376C35.6923 21.5753 35.6907 21.7283 35.634 21.8648ZM22.6821 15.8019C23.166 15.5759 23.6186 15.288 24.0285 14.9455V15.8019H22.6821ZM16.9611 9.85872C21.1264 9.85872 24.0268 11.4257 24.0268 12.8275C24.0268 14.2349 21.1264 15.8019 16.9611 15.8019C12.7957 15.8019 9.88964 14.2349 9.88964 12.8275C9.88964 11.4257 12.7957 9.85872 16.9611 9.85872Z" fill="#433601"/>
</svg>
