<svg width="50" height="50" viewBox="0 0 50 50" fill="none" xmlns="http://www.w3.org/2000/svg">
<rect x="1" y="1" width="48" height="48" stroke="#433601" stroke-width="2"/>
<path d="M35.3181 17.9074L37.3 16.7922V19.475L35.3181 20.5902V17.9074ZM40.6265 14.0966L31.3608 8.75L28.4103 10.4578L37.676 15.7598L40.6265 14.0966ZM34.9358 17.2956L36.9495 16.1613L27.6966 10.8657C27.3078 11.0887 26.0779 11.8025 25.7083 12.0191L25.8485 12.0956L34.9358 17.2956ZM25.4917 12.7201L24.9819 12.4397L22.0951 14.1029C23.5799 14.9505 29.9397 18.5828 31.2843 19.3539L34.2093 17.7034L25.4917 12.7201ZM21.7574 14.7275V18.3471H25.7147C26.2564 18.3471 26.7024 18.7931 26.7024 19.3348V28.2436L30.9275 30.6843V19.9721C29.8314 19.3476 23.0064 15.4475 21.7574 14.7275ZM38.0137 16.3907V19.6853C38.0137 19.8127 37.9436 19.9338 37.8289 19.9976L35.127 21.5142C34.8975 21.648 34.5853 21.4696 34.5917 21.202V18.3088L31.6348 19.9721V30.7735L35.1652 28.7343L35.1206 26.2299L34.9613 26.4593C34.6936 26.8417 34.1137 26.4466 34.3686 26.0578L35.1588 24.8917L35.1779 24.8725C35.3118 24.7069 35.5475 24.7005 35.7005 24.8343L36.4971 25.5162C36.8539 25.8221 36.3887 26.3637 36.0319 26.0578L35.8216 25.8794L35.8662 28.3201L37.9436 27.1221L37.899 24.675L37.7397 24.9044C37.4784 25.2931 36.8858 24.8917 37.1471 24.5029L37.9373 23.3368L37.9564 23.3176C38.0902 23.1456 38.326 23.1392 38.4853 23.2794L39.2819 23.9613C39.6387 24.2672 39.1735 24.8088 38.8167 24.5029L38.6064 24.3245L38.651 26.7078L40.9578 25.376V14.7211L38.0137 16.3907ZM25.9887 19.3348V40.976C25.9887 41.1289 25.8676 41.25 25.7147 41.25H10.2676C10.1211 41.25 10 41.1289 10 40.976V19.3348C10 19.1819 10.1211 19.0608 10.2676 19.0608H25.7147C25.8613 19.0608 25.9887 19.1819 25.9887 19.3348ZM12.2495 31.0476C12.2495 31.8314 12.8868 32.4686 13.6706 32.4686H22.3181C23.102 32.4686 23.7392 31.8314 23.7392 31.0476V22.3936C23.7392 21.6162 23.102 20.9789 22.3181 20.9789H13.6706C12.8868 20.9789 12.2495 21.6162 12.2495 22.3936V31.0476ZM19.3039 33.0995H17.7299C17.5324 33.0995 17.373 33.2588 17.373 33.4564V34.5971C17.373 34.7946 17.5324 34.9539 17.7299 34.9539H19.3039C19.5015 34.9539 19.6608 34.7946 19.6608 34.5971V33.4564C19.6608 33.2588 19.5078 33.0995 19.3039 33.0995ZM24.6059 39.4083C24.6059 39.2108 24.4466 39.0515 24.249 39.0515H11.7397C11.5422 39.0515 11.3828 39.2108 11.3828 39.4083C11.3828 39.6059 11.5422 39.7652 11.7397 39.7652H24.249C24.4466 39.7652 24.6059 39.5995 24.6059 39.4083ZM24.6059 37.7897C24.6059 37.5922 24.4466 37.4328 24.249 37.4328H11.7397C11.5422 37.4328 11.3828 37.5922 11.3828 37.7897C11.3828 37.9873 11.5422 38.1466 11.7397 38.1466H24.249C24.4466 38.1466 24.6059 37.9873 24.6059 37.7897ZM24.6059 36.1711C24.6059 35.9735 24.4466 35.8142 24.249 35.8142H17.3221C17.1245 35.8142 16.9652 35.9735 16.9652 36.1711C16.9652 36.3686 17.1245 36.5279 17.3221 36.5279H24.249C24.4466 36.5343 24.6059 36.3686 24.6059 36.1711ZM24.6059 33.4564C24.6059 33.2588 24.4466 33.0995 24.249 33.0995H20.8588C20.6613 33.0995 20.502 33.2588 20.502 33.4564V34.5971C20.502 34.7946 20.6613 34.9539 20.8588 34.9539H24.249C24.4466 34.9539 24.6059 34.7946 24.6059 34.5971V33.4564ZM12.9632 31.0476V22.3936C12.9632 22.0049 13.2755 21.6926 13.6706 21.6926H22.3181C22.7069 21.6926 23.0255 22.0049 23.0255 22.3936V31.0476C23.0255 31.4363 22.7132 31.7549 22.3181 31.7549H13.6706C13.2755 31.7549 12.9632 31.4363 12.9632 31.0476ZM15.5951 24.9936C15.5951 26.0706 16.3343 27.0137 17.3475 27.3005C17.424 28.0971 17.4176 28.9064 17.3412 29.7093C16.5255 29.8176 16.0412 30.1299 16.0412 30.5696C16.0412 30.7672 16.2005 30.9265 16.398 30.9265H19.5716C19.7691 30.9265 19.9284 30.7672 19.9284 30.5696C19.9284 30.1299 19.4441 29.8176 18.6284 29.7093C18.552 28.9064 18.5456 28.1034 18.6221 27.3005C19.6417 27.0201 20.3745 26.077 20.3745 24.9936V22.8716C20.3745 22.674 20.2152 22.5147 20.0176 22.5147H17.4814C17.2583 22.5083 17.0863 22.7314 17.1309 22.9417L16.7358 22.6039C16.602 22.4574 16.1113 22.5338 15.9392 22.5211C15.7417 22.5211 15.5824 22.6804 15.5824 22.8779V24.9936H15.5951ZM17.7363 26.6569C18.7304 26.8225 19.6799 26.0069 19.6672 24.9936V23.2284H18.2078C18.3672 23.3941 18.4245 23.6618 18.227 23.8211L17.8064 24.1779L18.1441 25.223C18.2779 25.6054 17.7363 25.873 17.5132 25.5353L16.5 24.076C16.3407 23.8529 16.5 23.6426 16.6657 23.4833L16.3789 23.2348H16.3088V25C16.3152 25.8221 16.927 26.5358 17.7363 26.6569ZM21.2157 34.2402H23.8922V33.8132H21.2157V34.2402ZM18.0868 34.2402H18.9471V33.8132H18.0868V34.2402Z" fill="#433601"/>
</svg>
