<svg width="50" height="50" viewBox="0 0 50 50" fill="none" xmlns="http://www.w3.org/2000/svg">
<rect x="1" y="1" width="48" height="48" stroke="#433601" stroke-width="2"/>
<path d="M40.2392 24.4219L26.3321 10.5148C25.3698 9.55252 24.0382 9 22.6764 9H11.9546C10.3258 9 9 10.325 9 11.9546V22.6756C9 24.0555 9.53812 25.3547 10.5148 26.332L24.4219 40.2391C25.2356 41.0521 26.3176 41.5 27.4659 41.5C28.6142 41.5 29.6962 41.052 30.5099 40.2391L40.2391 30.5099C41.0528 29.6977 41.5 28.6164 41.5 27.4659C41.5 26.3155 41.0529 25.2341 40.2392 24.4219ZM16.9981 18.0429L15.4313 19.61C15.3628 19.6787 15.2814 19.7332 15.1918 19.7703C15.1022 19.8074 15.0061 19.8265 14.9091 19.8264C14.8121 19.8265 14.716 19.8074 14.6264 19.7703C14.5367 19.7332 14.4553 19.6787 14.3868 19.61C14.0983 19.3214 14.0983 18.854 14.3868 18.5655L16.475 16.477C16.475 16.477 16.4754 16.4763 16.4757 16.4759C16.4761 16.4755 16.4764 16.4755 16.4764 16.4755L18.5647 14.3869C18.8416 14.11 19.3321 14.11 19.6091 14.3869L21.6981 16.4759C21.9866 16.7645 21.9866 17.2319 21.6981 17.5204C21.4095 17.8089 20.9421 17.8089 20.6536 17.5204L19.0869 15.9537L18.0425 16.9983L19.0869 18.0433C19.3755 18.3319 19.3755 18.7993 19.0869 19.0878C19.0184 19.1565 18.937 19.211 18.8474 19.2481C18.7577 19.2852 18.6617 19.3043 18.5647 19.3042C18.4676 19.3043 18.3716 19.2852 18.2819 19.2481C18.1923 19.211 18.1109 19.1565 18.0424 19.0878L16.9981 18.0429ZM21.176 26.094C21.079 26.0941 20.9829 26.075 20.8932 26.0379C20.8036 26.0007 20.7222 25.9462 20.6537 25.8776C20.3652 25.589 20.3652 25.1209 20.6537 24.8331L21.6996 23.7879C21.9867 23.5001 21.9867 23.0312 21.6996 22.7427L21.1759 22.2212L19.6092 23.7879C19.3206 24.0764 18.8532 24.0764 18.5647 23.7879C18.2762 23.4993 18.2762 23.0319 18.5647 22.7434L20.6349 20.6747C20.6407 20.6675 20.6465 20.661 20.6537 20.6544C20.6595 20.6479 20.6667 20.6414 20.6739 20.635L22.7441 18.5655C23.0327 18.277 23.5001 18.277 23.7886 18.5655L24.8331 19.61C25.6972 20.4741 25.6972 21.8793 24.8331 22.7434C24.4435 23.1329 23.9343 23.3601 23.3875 23.389C23.3586 23.9149 23.1437 24.4321 22.7441 24.8324L21.6982 25.8776C21.6297 25.9463 21.5483 26.0008 21.4587 26.0379C21.369 26.075 21.273 26.0941 21.176 26.094ZM25.8776 29.011C26.1661 29.2995 26.1661 29.767 25.8776 30.0554C25.8091 30.1241 25.7277 30.1786 25.6381 30.2158C25.5484 30.2529 25.4523 30.272 25.3553 30.2718C25.2583 30.2719 25.1622 30.2529 25.0726 30.2157C24.983 30.1786 24.9016 30.1241 24.8331 30.0554L22.7441 27.9665C22.4555 27.6779 22.4555 27.2105 22.7441 26.922L26.922 22.7434C27.0605 22.6049 27.248 22.527 27.4442 22.527C27.6405 22.527 27.828 22.6049 27.9665 22.7434L30.0555 24.833C30.344 25.1216 30.344 25.589 30.0555 25.8775C29.7669 26.166 29.2995 26.166 29.011 25.8775L27.4443 24.3101L26.3996 25.355L27.4443 26.3997C27.7329 26.6883 27.7329 27.1557 27.4443 27.4442C27.3758 27.5129 27.2944 27.5674 27.2048 27.6045C27.1151 27.6417 27.0191 27.6607 26.922 27.6606C26.825 27.6607 26.729 27.6416 26.6393 27.6045C26.5497 27.5674 26.4683 27.5129 26.3998 27.4442L25.3552 26.3996L24.3108 27.4442L25.8776 29.011ZM34.2335 30.0554C33.9449 30.344 33.4775 30.344 33.189 30.0554L31.6223 28.4887L30.5778 29.5332L31.6223 30.5776C31.9108 30.8662 31.9108 31.3336 31.6223 31.6221C31.478 31.7663 31.289 31.8385 31.1 31.8385C30.911 31.8385 30.7221 31.7663 30.5778 31.6221L29.5333 30.5776L28.4888 31.6221L30.0556 33.1895C30.3441 33.4781 30.3441 33.9455 30.0556 34.234C29.9871 34.3027 29.9056 34.3571 29.816 34.3943C29.7264 34.4314 29.6303 34.4505 29.5333 34.4504C29.4363 34.4505 29.3402 34.4314 29.2506 34.3943C29.1609 34.3571 29.0795 34.3026 29.011 34.234L26.922 32.1443C26.6335 31.8557 26.6335 31.3883 26.922 31.0998L31.0999 26.9219C31.3885 26.6334 31.8559 26.6334 32.1444 26.9219L34.2334 29.0109C34.522 29.2995 34.522 29.767 34.2335 30.0554Z" fill="#433601"/>
<path d="M23.265 21.9153H23.2664C23.464 21.9153 23.6487 21.8381 23.7887 21.6989C24.0772 21.4111 24.0772 20.9422 23.7887 20.6544L23.2664 20.1322L22.222 21.1766L22.7442 21.6981C22.8122 21.7671 22.8933 21.8219 22.9827 21.8592C23.0721 21.8965 23.1681 21.9155 23.265 21.9153Z" fill="#433601"/>
</svg>
