<svg width="41" height="39" viewBox="0 0 41 39" fill="none" xmlns="http://www.w3.org/2000/svg">
<rect x="0.125" width="40" height="39" rx="19.5" fill="#916834" fill-opacity="0.9"/>
<path d="M28.25 19.5C28.25 20.9844 27.8854 22.3385 27.1562 23.5625C26.4531 24.7865 25.4635 25.776 24.1875 26.5312C22.9115 27.2604 21.5573 27.625 20.125 27.625C18.6927 27.625 17.3385 27.2604 16.0625 26.5312C14.7865 25.776 13.7969 24.7865 13.0938 23.5625C12.3646 22.3385 12 20.9844 12 19.5C12 18.0156 12.3646 16.6615 13.0938 15.4375C13.7969 14.2135 14.7865 13.224 16.0625 12.4688C17.3385 11.7396 18.6927 11.375 20.125 11.375C21.5573 11.375 22.9115 11.7396 24.1875 12.4688C25.4635 13.224 26.4531 14.2135 27.1562 15.4375C27.8854 16.6615 28.25 18.0156 28.25 19.5ZM10.125 19.5C10.151 21.3229 10.5938 22.9896 11.4531 24.5C12.3385 26.0104 13.5625 27.2344 15.125 28.1719C16.7135 29.0573 18.3802 29.5 20.125 29.5C21.8698 29.5 23.5365 29.0573 25.125 28.1719C26.6875 27.2344 27.9115 26.0104 28.7969 24.5C29.6562 22.9896 30.099 21.3229 30.125 19.5C30.099 17.6771 29.6562 16.0104 28.7969 14.5C27.9115 12.9896 26.6875 11.7656 25.125 10.8281C23.5365 9.94271 21.8698 9.5 20.125 9.5C18.3802 9.5 16.7135 9.94271 15.125 10.8281C13.5625 11.7656 12.3385 12.9896 11.4531 14.5C10.5938 16.0104 10.151 17.6771 10.125 19.5ZM19.1875 14.1875V19.5C19.1875 19.8385 19.3307 20.099 19.6172 20.2812L23.3672 22.7812C23.862 23.0677 24.2917 22.9766 24.6562 22.5078C24.9427 22.013 24.8516 21.5833 24.3828 21.2188L21.0625 18.9922V14.1875C21.0104 13.6146 20.6979 13.3021 20.125 13.25C19.5521 13.3021 19.2396 13.6146 19.1875 14.1875Z" fill="white"/>
</svg>
