<svg width="300" height="301" viewBox="0 0 300 301" fill="none" xmlns="http://www.w3.org/2000/svg">
<path d="M15.6072 44.0686L32.9464 83.6552C33.1734 84.1735 33.7849 84.4003 34.295 84.1556L66.1559 68.8687C66.5027 68.7023 66.7233 68.3517 66.7233 67.9671V37.7368C66.7233 37.1268 66.1819 36.6589 65.5784 36.7473L15.6072 44.0686Z" fill="#C78C61"/>
<path d="M43.3432 67.3989L37.2437 70.0883V79.1056L43.3432 76.3447V67.3989Z" fill="#FFE1B4" fill-opacity="0.7"/>
<path d="M32.4921 20.9892C33.0417 20.7255 33.6816 20.7268 34.2301 20.9929L65.5556 36.1888C66.3179 36.5586 66.3038 37.6494 65.5322 37.9992L33.362 52.5871V84.6024L0.000427246 68.5955V36.5787L32.4921 20.9892Z" fill="#E6A475"/>
<path d="M33.3618 52.588V84.6033L0.000263214 68.5964V36.5796L33.3618 52.588Z" fill="#A06841"/>
<path d="M22.3094 25.875L56.2277 42.155L45.5317 47.1083L11.9882 30.827H11.9866" fill="#FFCC80"/>
<path d="M11.7245 54.6529L16.7128 51.7034L21.8601 59.5026L18.0706 57.6895V70.9024L15.4336 69.6368V56.4276L11.7245 54.6529Z" fill="#7D5133"/>
<path d="M44.7738 53.2673V55.8449L59.6922 48.6851V46.1091L44.7738 53.2673Z" fill="#A06841"/>
<path d="M44.7738 59.6838V62.2614L59.6922 55.1031V52.5271L44.7738 59.6838Z" fill="#A06841"/>
<path d="M20.6629 19.8042L32.9505 47.8576C33.1775 48.3759 33.7889 48.6028 34.2991 48.358L56.6677 37.6255C57.0145 37.4591 57.2352 37.1086 57.2352 36.7239V15.6032C57.2352 14.9932 56.6937 14.5254 56.0902 14.6138L20.6629 19.8042Z" fill="#C78C61"/>
<path d="M40.5073 36.4958L36.1433 38.42V44.8717L40.5073 42.8963V36.4958Z" fill="#FFE1B4" fill-opacity="0.7"/>
<path d="M32.4958 3.40983C33.0454 3.14611 33.6854 3.14748 34.2339 3.41356L55.8538 13.9013C56.6161 14.2711 56.6019 15.3619 55.8303 15.7118L33.3657 25.8986V48.8047L9.49637 37.3522V14.445L32.4958 3.40983Z" fill="#E6AB75"/>
<path d="M33.3658 25.8997V48.8058L9.49649 37.3533V14.446L33.3658 25.8997Z" fill="#A07441"/>
<path d="M25.4581 6.78784L49.7258 18.4357L42.073 21.9797L18.0736 10.3309H18.0724" fill="#FDD498"/>
<path d="M17.885 27.3769L21.454 25.2666L25.1368 30.8468L22.4255 29.5495V39.003L20.5388 38.0975V28.6467L17.885 27.3769Z" fill="#7D5133"/>
<path d="M41.5309 26.3864V28.2309L52.2046 23.1075V21.2642L41.5309 26.3864Z" fill="#A06841"/>
<path d="M41.5308 30.9781V32.8226L52.2046 27.7003V25.8569L41.5308 30.9781Z" fill="#A06841"/>
<path d="M137.095 17.2333L130.017 20.5141L115.496 27.2397C112.955 28.4184 110.406 29.591 107.864 30.7696C106.161 31.5595 102.531 32.5498 101.976 34.4636C101.855 34.895 101.902 35.3446 101.956 35.7881C102.199 37.8052 102.138 39.5975 103.599 41.1953C104.978 42.7021 107.296 44.7192 109.689 44.7192C115.172 46.3292 120.404 48.5346 125.792 50.3694C130.605 52.0099 136.669 54.5616 141.584 52.0828C142.178 51.7851 142.665 51.378 143.267 51.1107C144.071 50.7522 144.91 50.4727 145.707 50.09C147.972 49.0146 149.966 47.5382 152.109 46.2867C155.719 44.1724 159.707 42.6899 163.594 41.0556C165.548 40.2354 167.488 39.3727 169.334 38.3702C170.255 37.8738 171.149 37.3364 172.011 36.7602C172.673 36.3166 173.843 35.703 174.072 34.9314C174.106 34.8281 174.12 34.7248 174.12 34.6155C174.113 34.1902 173.843 33.8014 173.484 33.528C172.295 32.6166 170.605 32.1427 169.205 31.5898C167.38 30.8729 165.663 29.8462 163.926 28.9652C160.262 27.1061 156.571 25.2955 152.853 23.5397C150.1 22.2385 147.333 20.9625 144.551 19.7121C143.125 19.0742 141.698 18.4423 140.265 17.8104C139.346 17.4095 138.149 16.7472 137.095 17.2333Z" fill="#E6A475"/>
<path d="M102.242 71.3541C102.767 71.8889 103.476 72.2779 104.172 72.6304C107.642 74.3868 111.201 75.9852 114.76 77.614C116.54 78.4345 118.326 79.2489 120.106 80.0694C121.858 80.8777 123.617 81.68 125.37 82.4883L130.095 84.658C131.336 85.2293 132.577 85.8006 133.818 86.3658C134.568 86.7122 135.318 87.0586 136.075 87.399C137.036 87.8426 137.704 88.2741 138.816 87.9156C139.743 87.6178 139.797 86.6089 140.009 85.831C140.595 83.6977 140.841 81.4976 140.943 79.3036C141.086 76.3985 140.977 73.4813 140.875 70.5762C140.752 67.0876 140.997 63.593 140.834 60.0862C140.786 59.126 140.759 58.1597 140.725 57.2055C140.697 56.3607 140.118 55.5888 139.566 54.9324C138.891 54.1363 138.127 53.2976 138.079 52.3008C137.991 50.666 136.163 50.1919 134.786 49.651C132.706 48.8305 130.702 47.8217 128.677 46.8979C121.492 43.6199 114.368 40.2362 107.308 36.7483C106.456 36.3289 101.765 33.0956 101.744 35.5024C101.635 46.3266 101.519 57.1447 101.321 67.9689C101.301 68.9413 101.301 69.9684 101.833 70.8132C101.949 71.0259 102.085 71.1961 102.242 71.3541Z" fill="#A06841"/>
<path d="M174.088 71.6398C173.372 72.2928 172.336 72.7592 171.021 73.3749C168.206 74.6933 165.384 76.018 162.569 77.3364C156.837 80.0231 151.112 82.7097 145.38 85.3902C144.133 85.9748 139.86 88.5246 138.456 87.9711C137.379 87.5482 138.033 82.6849 138.033 81.6152V67.8772V60.7812C138.033 58.2065 138.299 55.4764 137.849 52.939C137.713 52.1678 137.563 51.4526 138.074 50.7685C138.892 49.6864 140.861 49.108 142.116 48.5172C143.635 47.802 145.155 47.0868 146.682 46.3716C150.54 44.5556 154.391 42.7459 158.248 40.9299L167.449 36.6014C169.092 35.8303 170.905 34.6238 172.67 34.1449C174.238 33.722 174.538 34.9907 174.633 36.1848C174.906 39.7607 174.858 43.3865 174.947 46.9687C175.124 54.0957 175.233 61.2166 175.287 68.3437C175.301 69.9668 174.892 70.9121 174.088 71.6398Z" fill="#C78C61"/>
<path d="M169.474 43.2475C169.474 42.5086 168.701 42.0248 168.036 42.3486L160.625 45.9607C160.281 46.1282 160.063 46.4771 160.063 46.8596V59.2124C160.063 59.9513 160.837 60.435 161.501 60.1113L168.913 56.4992C169.256 56.3317 169.474 55.9827 169.474 55.6003V43.2475Z" fill="#FCE8B2" fill-opacity="0.7"/>
<path d="M155.732 45.573C157.744 44.6492 173.508 37.1373 173.514 36.3107C173.514 35.63 158.337 42.7955 158.337 42.7955C158.337 42.7955 139.409 51.4257 139.109 52.155C138.802 52.8843 153.953 46.3935 155.732 45.573Z" fill="#A06841"/>
<path d="M162.885 77.2526C162.885 75.6481 162.762 72.2993 162.762 72.2993C162.762 72.2993 161.351 73.369 160.464 73.6668C159.769 73.8977 159.012 74.0193 158.405 74.4022C157.778 74.8033 157.369 75.4414 156.728 75.8304C155.146 76.7967 152.991 76.4138 152.991 76.4138V81.7986L162.885 77.2526Z" fill="#FFCC80"/>
<path d="M103.394 69.9317C105.856 71.038 108.297 72.1807 111.345 73.5667V72.509C108.317 71.1292 105.869 69.9925 103.394 68.874V69.9317Z" fill="#7D5133"/>
<path d="M108.576 70.4064C109.265 70.7225 109.612 70.8805 110.274 71.1845C110.281 69.3427 110.281 68.4187 110.287 66.5769C109.64 66.2791 109.292 66.1271 108.603 65.811C108.59 67.6468 108.583 68.5707 108.576 70.4064Z" fill="#7D5133"/>
<path d="M104.267 68.4374C104.847 68.6987 105.161 68.8446 105.815 69.1425L105.849 64.5471C105.188 64.2432 104.874 64.0973 104.288 63.8298C104.281 65.6777 104.274 66.5956 104.267 68.4374Z" fill="#7D5133"/>
<path d="M107.486 65.8475C109.061 66.5708 109.913 66.9538 111.297 67.5859C110.602 66.4675 110.227 65.89 109.456 64.7351C108.692 65.191 108.283 65.4098 107.486 65.8475Z" fill="#7D5133"/>
<path d="M103.394 63.9753C104.574 64.5224 105.365 64.8811 106.933 65.5983C106.156 64.4373 105.774 63.8599 105.058 62.7292C104.329 63.1973 103.988 63.4404 103.394 63.9753Z" fill="#7D5133"/>
<path d="M116.036 74.7528C116.595 75.0081 116.875 75.1418 117.435 75.4032L117.332 69.9325C116.8 69.6833 116.527 69.5556 116.002 69.3125C116.009 71.4886 116.015 72.5767 116.036 74.7528Z" fill="#7D5133"/>
<path d="M114.004 74.3683C116.029 75.3227 117.611 76.0339 119.554 76.9639C119.54 76.3378 119.002 75.584 118.265 75.2376C117.12 74.6966 116.465 74.3987 115.299 73.8577C114.556 73.5052 114.004 73.7544 114.004 74.3683Z" fill="#7D5133"/>
<path d="M117.863 68.1879C118.204 68.8322 118.381 69.1544 118.716 69.7987C118.443 70.3032 118.306 70.5585 118.027 71.063C118.272 71.0448 118.388 71.0387 118.627 71.0205C118.947 70.6375 119.104 70.4491 119.411 70.0661C119.132 69.4765 118.982 69.1848 118.695 68.5891C119.513 68.9842 119.909 69.1908 120.652 69.5799C120.652 71.7134 119.091 72.6434 116.745 71.5554C114.4 70.4673 112.845 68.0298 112.845 65.9023C114.59 66.6804 115.763 67.1849 117.863 68.1879Z" fill="#7D5133"/>
<path d="M161.73 39.6078C161.394 39.3873 125.348 22.6663 125.348 22.6663L114.163 27.7988L151.122 44.7225L151.142 44.7404L161.958 39.8224C161.958 39.8224 161.938 39.7747 161.878 39.7151C161.831 39.6793 161.75 39.6257 161.73 39.6078Z" fill="#FCE8B2"/>
<path d="M161.905 39.7515C155.782 42.428 151.122 44.7231 151.122 44.7231C151.277 44.8602 151.283 45.039 151.283 45.1284C151.263 45.8199 151.25 46.3683 151.23 47.0539C151.136 50.6007 151.082 50.2062 150.948 53.7531C151.398 53.5147 151.941 54.0392 152.351 53.7531C152.982 53.312 154.325 54.1882 154.526 54.1286C154.795 54.0511 155.083 54.1107 155.359 54.0988C156.567 54.0392 159.273 52.9792 159.85 52.8779C160.407 52.7825 162.247 50.2789 162.247 50.2789C162.247 50.2789 162.119 42.279 162.072 40.4608C162.059 39.817 161.905 39.7515 161.905 39.7515Z" fill="#FFCC80"/>
<path d="M129.591 49.7958L102.645 36.7212L101.588 17.3799L128.533 30.4545L129.591 49.7958Z" fill="#89664C"/>
<path d="M128.533 30.4552L129.59 49.7965L154.95 33.8591L153.893 14.5178L128.533 30.4552Z" fill="#CD8852"/>
<path d="M101.587 17.3807L128.533 30.4553L153.893 14.518L126.947 1.44336L101.587 17.3807Z" fill="#EEBB87"/>
<path d="M143.509 20.9972L116.645 7.91814L111.89 10.9064L138.836 23.981L143.509 20.9972Z" fill="#FFE0B2"/>
<path d="M133.194 6.25501L127.21 3.24781L122.537 6.23201L128.517 9.16365L133.194 6.25501Z" fill="#FFE0B2"/>
<path d="M143.431 21.0767L138.995 23.8959L139.375 30.8467L143.811 28.0274L143.431 21.0767Z" fill="#BF9F85"/>
<path d="M152.787 16.7773L148.269 19.601L148.649 26.5518L153.167 23.728L152.787 16.7773Z" fill="#BF9F85" fill-opacity="0.7"/>
<path d="M136.589 33.8792L130.486 37.699L131.007 47.2186L137.105 43.3232L136.589 33.8792Z" fill="white"/>
<path d="M140.052 43.2378L144.488 40.4186L144.108 33.4678L139.672 36.287L140.052 43.2378Z" fill="#D3976E"/>
<path d="M89.7728 4.79438L40.8938 27.1682C39.8256 27.7256 39.5163 28.5577 39.5257 29.7642L39.6194 31.2702L91.2253 54.7672L142.709 31.6446C142.709 31.6446 142.766 31.4116 142.766 30.5962C142.766 30.5962 142.719 29.5229 142.447 29.0236C142.147 28.4578 141.51 27.9503 141.097 27.6424C140.001 26.8353 138.905 26.1198 137.04 25.1879C110.305 11.7669 92.7246 4.85262 92.7246 4.85262C91.5907 4.4782 90.6536 4.34507 89.7728 4.79438Z" fill="#DEA66C"/>
<path d="M40.2943 80.7767C43.143 82.4492 48.3439 84.6458 53.601 87.1752C65.8208 93.0495 81.2641 100.188 88.9483 102.992C89.9884 103.375 90.6069 103.558 91.3285 103.592C91.8626 103.616 92.7435 103.3 92.7435 103.3C92.7435 103.3 91.3098 57.3795 91.2254 54.7586C91.1411 52.1959 89.9322 51.3472 88.8639 50.7315C87.1959 49.7829 83.5787 48.3019 83.5787 48.3019C83.5787 48.3019 70.9092 42.7105 58.2584 36.8196C52.2422 34.0156 47.1632 31.145 41.6999 28.782C40.6972 28.3577 39.5165 28.8902 39.5165 29.8886V79.6452C39.5165 80.1194 39.8445 80.5188 40.2943 80.7767Z" fill="#B38251"/>
<path d="M141.351 81.068L92.8467 103.275C92.0689 103.633 91.1412 103.134 91.1412 102.352L91.2255 54.7752C91.2255 54.3176 91.0662 53.3108 90.9069 52.9114C90.4665 51.7466 91.4223 51.2806 91.8534 51.0893L139.964 29.0899C141.238 28.5075 142.766 29.3312 142.766 30.6042V79.0211C142.766 79.8781 142.222 80.6686 141.351 81.068Z" fill="#966239"/>
<path opacity="0.5" d="M119.685 40.3656C119.685 40.3656 93.0996 52.4386 92.6686 53.462C92.2375 54.4771 113.528 45.3911 116.021 44.2512C118.842 42.9615 140.995 32.4445 140.995 31.2879C141.004 30.3394 119.685 40.3656 119.685 40.3656Z" fill="#212121"/>
<g opacity="0.5">
<path d="M43.1709 78.0235C46.6288 79.5714 50.0585 81.1691 54.3317 83.1081V81.6268C50.0773 79.6962 46.6381 78.1067 43.1709 76.5422V78.0235Z" fill="#212121"/>
<path d="M50.4521 78.6979C51.4267 79.1389 51.914 79.3636 52.8323 79.7797C52.8417 77.2 52.8417 75.9101 52.8511 73.3303C51.9327 72.9143 51.4548 72.6979 50.4896 72.2568C50.4708 74.8366 50.4615 76.1181 50.4521 78.6979Z" fill="#212121"/>
<path d="M44.3987 75.9359C45.2046 76.3021 45.6544 76.5101 46.5728 76.9262L46.6196 70.5018C45.6919 70.0774 45.2421 69.8777 44.4268 69.4949C44.4175 72.0746 44.4081 73.3645 44.3987 75.9359Z" fill="#212121"/>
<path d="M48.9249 72.3142C51.1459 73.3212 52.3266 73.8621 54.2851 74.7442C53.3105 73.1714 52.7764 72.3725 51.7081 70.7581C50.6117 71.3905 50.0401 71.6984 48.9249 72.3142Z" fill="#212121"/>
<path d="M43.1709 69.6936C44.8295 70.4592 45.9447 70.9668 48.1375 71.9655C47.0505 70.3427 46.5069 69.5355 45.5043 67.946C44.4828 68.6035 44.0049 68.9447 43.1709 69.6936Z" fill="#212121"/>
</g>
<g opacity="0.5">
<path d="M60.9761 85.1369C61.7539 85.4947 62.1569 85.6861 62.9347 86.0439C62.8784 82.9819 62.8503 81.451 62.7847 78.389C62.035 78.0396 61.6602 77.8648 60.9105 77.5237C60.9386 80.569 60.948 82.0916 60.9761 85.1369Z" fill="#212121"/>
<path d="M58.1177 84.5957C60.9664 85.9272 63.178 86.9258 65.9143 88.224C65.8956 87.3502 65.1365 86.2933 64.1057 85.8023C62.4939 85.0451 61.5755 84.629 59.945 83.8717C58.8954 83.3973 58.1177 83.7385 58.1177 84.5957Z" fill="#212121"/>
<path d="M63.5438 75.9512L64.7433 78.206C64.3685 78.9133 64.1717 79.2711 63.7781 79.97C64.1154 79.945 64.2841 79.9367 64.6215 79.9117C65.0713 79.3792 65.2962 79.113 65.7272 78.5805C65.3337 77.7567 65.1275 77.3407 64.7152 76.517C65.8584 77.0745 66.4207 77.3573 67.4609 77.8982C67.4609 80.8769 65.2681 82.1916 61.9695 80.6606C58.6709 79.1379 56.4875 75.7349 56.4875 72.7478C58.9427 73.8378 60.592 74.5533 63.5438 75.9512Z" fill="#212121"/>
</g>
<path d="M125.57 35.2889C125.102 34.9811 74.7889 11.6421 74.7889 11.6421L59.1769 18.806L110.764 42.4279L110.792 42.4529L125.889 35.5884C125.889 35.5884 125.861 35.5219 125.776 35.4387C125.711 35.3888 125.598 35.3139 125.57 35.2889Z" fill="#FFE0B2"/>
<path d="M125.814 35.4888C117.267 39.2247 110.764 42.4281 110.764 42.4281C110.979 42.6194 110.989 42.869 110.989 42.9938C110.961 43.959 110.942 44.7245 110.914 45.6814C110.782 50.6321 110.708 55.5911 110.52 60.5418C111.148 60.2089 111.907 60.9411 112.479 60.5418C113.359 59.926 115.234 57.2136 115.515 57.1304C115.89 57.0222 116.293 57.1054 116.677 57.0888C118.364 57.0056 122.14 53.9519 122.946 53.8105C123.724 53.6774 126.291 54.1183 126.291 54.1183C126.291 54.1183 126.113 39.0167 126.048 36.4789C126.029 35.5803 125.814 35.4888 125.814 35.4888Z" fill="#BF9F85"/>
<path d="M140.813 64.8131C140.813 63.3352 139.265 62.3678 137.936 63.0153L132.741 65.5474C132.053 65.8825 131.617 66.5803 131.617 67.3452V77.1386C131.617 78.6165 133.165 79.5839 134.493 78.9365L139.689 76.4044C140.376 76.0693 140.813 75.3714 140.813 74.6065V64.8131Z" fill="#BF9F85"/>
<path d="M107.639 56.6196C107.639 55.1692 106.143 54.2011 104.82 54.7949L95.8543 58.8178C95.1356 59.1404 94.6731 59.8548 94.6731 60.6426V75.7315C94.6731 77.1904 96.1848 78.1584 97.5099 77.548L106.475 73.418C107.185 73.0913 107.639 72.3821 107.639 71.6014V56.6196Z" fill="#BF9F85"/>
<path d="M136.986 82.2291L152.066 116.658C152.293 117.176 152.905 117.403 153.415 117.158L181.03 103.908C181.377 103.742 181.598 103.391 181.598 103.006V76.8503C181.598 76.2403 181.056 75.7724 180.453 75.8609L136.986 82.2291Z" fill="#C78C61"/>
<path d="M161.193 102.592L155.87 104.939V112.809L161.193 110.4V102.592Z" fill="#FFE1B4" fill-opacity="0.7"/>
<path d="M151.612 62.1415C152.162 61.8778 152.802 61.8792 153.35 62.1453L180.335 75.2354C181.097 75.6052 181.083 76.696 180.311 77.0459L152.482 89.6654V117.607L123.366 103.637V75.6941L151.612 62.1415Z" fill="#E6A475"/>
<path d="M152.482 89.6644V117.606L123.366 103.636V75.6931L152.482 89.6644Z" fill="#A06841"/>
<path d="M142.836 66.3525L172.438 80.5608L163.103 84.8839L133.828 70.6744H133.827" fill="#FFCC80"/>
<path d="M133.598 91.4675L137.952 88.8933L142.444 95.7001L139.137 94.1177V105.649L136.835 104.545V93.0164L133.598 91.4675Z" fill="#7D5133"/>
<path d="M162.442 90.2578V92.5074L175.462 86.2587V84.0105L162.442 90.2578Z" fill="#A06841"/>
<path d="M162.442 95.8578V98.1074L175.462 91.86V89.6118L162.442 95.8578Z" fill="#A06841"/>
<path d="M38.3705 139.824L2.87827 118.515V90.1025L38.3705 111.412V139.824Z" fill="#B38251"/>
<path d="M38.3707 111.412V139.824L73.863 118.515V90.1025L38.3707 111.412Z" fill="#CD8852"/>
<path d="M2.87828 90.103L38.3705 111.412L73.8627 90.103L38.3705 68.7937L2.87828 90.103Z" fill="#EEBB87"/>
<path d="M59.3329 98.7602L23.9516 77.4509L17.2968 81.4464L52.789 102.756L59.3329 98.7602Z" fill="#FFE0B2"/>
<path d="M46.4674 76.3411L38.5926 71.4578L32.0487 75.4533L39.9235 80.2257L46.4674 76.3411Z" fill="#FFE0B2"/>
<path d="M59.2222 98.8716L53.0111 102.645V112.856L59.2222 109.082V98.8716Z" fill="#BF9F85"/>
<path d="M72.199 93.3218L65.8769 97.0953V107.306L72.199 103.532V93.3218Z" fill="#BF9F85"/>
<path d="M49.0181 117.073L40.4778 122.178V136.163L49.0181 130.946V117.073Z" fill="#BF9F85"/>
<path d="M53.0111 131.057L59.2222 127.284V117.073L53.0111 120.847V131.057Z" fill="#BF9F85"/>
<path d="M104.711 80.6103L97.4062 83.9965L82.4194 90.9381C79.796 92.1546 77.1657 93.3648 74.5423 94.5813C72.784 95.3965 69.0373 96.4186 68.4652 98.3938C68.3396 98.839 68.3885 99.3031 68.4443 99.7608C68.6955 101.843 68.6327 103.693 70.1397 105.342C71.5631 106.897 73.9562 108.979 76.4261 108.979C82.0845 110.64 87.4848 112.917 93.0456 114.81C98.0133 116.503 104.272 119.137 109.344 116.579C109.958 116.271 110.46 115.851 111.081 115.575C111.912 115.205 112.777 114.917 113.6 114.522C115.937 113.412 117.996 111.888 120.207 110.596C123.933 108.414 128.05 106.884 132.062 105.197C134.078 104.351 136.08 103.46 137.985 102.426C138.936 101.913 139.858 101.359 140.748 100.764C141.432 100.306 142.639 99.673 142.876 98.8767C142.911 98.7701 142.925 98.6635 142.925 98.5506C142.918 98.1117 142.639 97.7103 142.269 97.4282C141.041 96.4876 139.297 95.9985 137.853 95.4278C135.969 94.6879 134.197 93.6282 132.403 92.7189C128.622 90.8001 124.812 88.9315 120.975 87.1192C118.134 85.7762 115.278 84.4593 112.407 83.1688C110.935 82.5103 109.463 81.8582 107.984 81.2061C107.035 80.7922 105.8 80.1087 104.711 80.6103Z" fill="#E6A475"/>
<path d="M68.74 136.468C69.2818 137.02 70.0137 137.422 70.7315 137.786C74.3135 139.598 77.9869 141.248 81.6603 142.929C83.4971 143.776 85.3408 144.616 87.1775 145.463C88.9861 146.298 90.8017 147.126 92.6103 147.96L97.4871 150.199C98.7679 150.789 100.049 151.378 101.329 151.962C102.104 152.319 102.878 152.677 103.659 153.028C104.651 153.486 105.341 153.931 106.488 153.561C107.445 153.254 107.501 152.213 107.719 151.41C108.324 149.208 108.578 146.937 108.683 144.673C108.831 141.675 108.719 138.664 108.613 135.665C108.486 132.065 108.74 128.458 108.571 124.839C108.522 123.848 108.493 122.85 108.458 121.865C108.43 120.993 107.832 120.197 107.262 119.519C106.565 118.698 105.777 117.832 105.728 116.803C105.636 115.116 103.75 114.627 102.329 114.068C100.182 113.222 98.1134 112.18 96.0234 111.227C88.6075 107.844 81.2549 104.351 73.9686 100.751C73.089 100.319 68.2473 96.9815 68.2262 99.4655C68.1136 110.637 67.994 121.803 67.7899 132.974C67.7688 133.978 67.7688 135.038 68.3177 135.91C68.4374 136.13 68.5781 136.305 68.74 136.468Z" fill="#A06841"/>
<path d="M142.892 136.764C142.154 137.438 141.084 137.919 139.727 138.555C136.821 139.915 133.909 141.283 131.004 142.643C125.088 145.416 119.179 148.189 113.263 150.956C111.976 151.559 107.565 154.191 106.116 153.62C105.004 153.183 105.68 148.164 105.68 147.06V132.881V125.557C105.68 122.899 105.954 120.082 105.49 117.463C105.349 116.667 105.194 115.929 105.722 115.223C106.566 114.106 108.599 113.509 109.893 112.899C111.462 112.161 113.031 111.423 114.607 110.685C118.588 108.81 122.563 106.942 126.544 105.068L136.041 100.601C137.736 99.8048 139.607 98.5595 141.429 98.0653C143.047 97.6288 143.356 98.9382 143.455 100.171C143.736 103.861 143.687 107.604 143.779 111.301C143.961 118.657 144.074 126.006 144.13 133.362C144.144 135.037 143.722 136.013 142.892 136.764Z" fill="#C78C61"/>
<path d="M138.131 107.409C138.131 106.67 137.357 106.186 136.693 106.51L128.979 110.269C128.635 110.437 128.417 110.786 128.417 111.168V123.989C128.417 124.728 129.191 125.211 129.855 124.888L137.569 121.128C137.913 120.961 138.131 120.612 138.131 120.229V107.409Z" fill="#FCE8B2" fill-opacity="0.7"/>
<path d="M123.947 109.86C126.023 108.907 142.293 101.154 142.3 100.3C142.3 99.5979 126.635 106.993 126.635 106.993C126.635 106.993 107.1 115.901 106.79 116.653C106.473 117.406 122.11 110.707 123.947 109.86Z" fill="#A06841"/>
<path d="M131.329 142.556C131.329 140.9 131.203 137.444 131.203 137.444C131.203 137.444 129.746 138.548 128.831 138.855C128.113 139.094 127.332 139.219 126.706 139.614C126.059 140.028 125.636 140.687 124.975 141.088C123.342 142.086 121.118 141.69 121.118 141.69V147.248L131.329 142.556Z" fill="#FFCC80"/>
<path d="M69.929 135.002C72.4695 136.144 74.9888 137.323 78.1345 138.754V137.662C75.0099 136.238 72.4836 135.065 69.929 133.91V135.002Z" fill="#7D5133"/>
<path d="M75.2776 135.491C75.9884 135.818 76.3473 135.981 77.0299 136.294C77.037 134.394 77.037 133.44 77.044 131.539C76.3755 131.232 76.0166 131.075 75.3058 130.749C75.2917 132.643 75.2847 133.597 75.2776 135.491Z" fill="#7D5133"/>
<path d="M70.8299 133.459C71.428 133.729 71.7518 133.879 72.4273 134.187L72.4625 129.444C71.7799 129.13 71.4562 128.979 70.851 128.703C70.844 130.611 70.8369 131.558 70.8299 133.459Z" fill="#7D5133"/>
<path d="M74.1518 130.786C75.7774 131.532 76.657 131.928 78.0856 132.58C77.3678 131.426 76.9807 130.83 76.1855 129.638C75.3974 130.108 74.9751 130.334 74.1518 130.786Z" fill="#7D5133"/>
<path d="M69.929 128.854C71.1465 129.419 71.9628 129.789 73.5814 130.529C72.7791 129.331 72.385 128.735 71.6461 127.568C70.8931 128.051 70.5413 128.302 69.929 128.854Z" fill="#7D5133"/>
<path d="M82.9763 139.977C83.5538 140.24 83.8426 140.378 84.4201 140.648L84.3145 135.001C83.7651 134.744 83.4834 134.613 82.9411 134.362C82.9481 136.608 82.9552 137.731 82.9763 139.977Z" fill="#7D5133"/>
<path d="M80.8794 139.58C82.9695 140.565 84.6021 141.299 86.6077 142.259C86.5936 141.613 86.0377 140.835 85.2777 140.477C84.0954 139.919 83.4198 139.611 82.2165 139.053C81.4494 138.689 80.8794 138.946 80.8794 139.58Z" fill="#7D5133"/>
<path d="M84.8623 133.202C85.2141 133.867 85.3971 134.2 85.7419 134.865C85.4604 135.386 85.3197 135.649 85.0312 136.17C85.2845 136.151 85.4041 136.145 85.6505 136.126C85.9812 135.731 86.1431 135.536 86.4597 135.141C86.1712 134.532 86.0164 134.231 85.7208 133.616C86.5653 134.024 86.9735 134.238 87.7405 134.639C87.7405 136.841 86.129 137.801 83.7082 136.678C81.2874 135.555 79.6829 133.039 79.6829 130.844C81.4844 131.647 82.6948 132.167 84.8623 133.202Z" fill="#7D5133"/>
<path d="M130.138 103.703C129.791 103.476 92.5879 86.2178 92.5879 86.2178L81.0437 91.5151L119.189 108.982L119.21 109.001L130.373 103.925C130.373 103.925 130.352 103.875 130.29 103.814C130.242 103.777 130.158 103.722 130.138 103.703Z" fill="#FCE8B2"/>
<path d="M130.318 103.852C123.998 106.615 119.189 108.983 119.189 108.983C119.349 109.125 119.356 109.309 119.356 109.402C119.335 110.115 119.321 110.681 119.3 111.389C119.203 115.05 119.148 114.642 119.009 118.303C119.474 118.057 120.035 118.599 120.458 118.303C121.109 117.848 122.495 118.752 122.703 118.691C122.98 118.611 123.278 118.672 123.562 118.66C124.809 118.598 127.602 117.504 128.198 117.4C128.773 117.301 130.671 114.717 130.671 114.717C130.671 114.717 130.54 106.461 130.491 104.584C130.477 103.92 130.318 103.852 130.318 103.852Z" fill="#FFCC80"/>
<path d="M295.106 227.668L291.596 232.174L284.118 241.87L282.972 243.398L276.562 230.951L277.25 230.8H277.326L289.306 228.737V228.662L295.106 227.668Z" fill="#FFE5AB"/>
<path d="M300 195.736L299.946 202.4C299.946 203.548 299.237 204.641 297.707 205.517L158.724 286.392C155.719 288.144 150.86 288.144 147.8 286.392L45.4074 227.21C43.8775 226.337 43.1683 225.187 43.1683 224.039V217.375C43.1683 218.522 43.9318 219.67 45.4617 220.545L147.8 279.67C150.86 281.422 155.719 281.422 158.724 279.67L297.761 198.849C299.237 197.973 300 196.826 300 195.736Z" fill="#F3D848"/>
<path d="M297.707 192.529C300.74 194.28 300.755 197.101 297.743 198.852L158.731 279.688C155.716 281.443 150.851 281.44 147.819 279.688L45.45 220.551C42.4172 218.8 42.4021 215.98 45.4137 214.228L184.423 133.389C187.435 131.634 192.299 131.634 195.335 133.389L297.707 192.529Z" fill="#F9EA60"/>
<path d="M260.025 156.452L259.971 159.565C259.971 158.309 259.205 157.107 257.566 156.177C254.455 154.375 249.539 154.32 246.319 155.906L245.827 156.177C244.68 156.836 243.914 157.654 243.588 158.53C243.421 158.89 243.328 159.28 243.316 159.677V156.561C243.316 156.177 243.422 155.797 243.588 155.413C243.968 154.538 244.68 153.719 245.827 153.064L246.319 152.792C249.539 151.207 254.455 151.261 257.566 153.064C259.205 153.991 260.025 155.196 260.025 156.452Z" fill="#5C6A71"/>
<path d="M266.613 158.25L266.604 161.369C266.598 163.471 265.487 165.575 263.278 167.378L263.287 164.259C265.496 162.456 266.607 160.354 266.613 158.25Z" fill="#5E6970"/>
<path d="M263.894 179.466L263.885 182.585L211.932 152.57L211.941 149.454L263.894 179.466Z" fill="#F9BB4A"/>
<path d="M267.741 173.386L267.732 176.505C267.723 178.957 266.483 181.074 263.885 182.584L263.894 179.465C266.489 177.955 267.735 175.841 267.741 173.386Z" fill="#5E6970"/>
<path d="M263.287 164.259C268.81 170.341 269.401 176.265 263.894 179.466L211.942 149.451C217.485 146.229 227.772 146.591 238.253 149.795C245.257 146.854 254.956 147.198 261.302 150.864C267.645 154.53 268.303 160.167 263.287 164.259ZM253.504 161.137C255.031 160.934 256.455 160.512 257.599 159.847L258.049 159.545C260.783 157.673 260.662 154.832 257.56 153.038C254.458 151.244 249.554 151.184 246.334 152.775L245.812 153.038C244.668 153.702 243.944 154.53 243.603 155.414C242.879 156.967 243.654 158.7 245.746 159.908C247.84 161.116 250.797 161.538 253.504 161.137Z" fill="#83939C"/>
<path d="M290.609 194.878L290.588 197.37L182.099 260.459L182.117 257.971L290.609 194.878Z" fill="#BAC1CE"/>
<path d="M182.115 257.971L182.097 260.459L124.197 260.499L124.218 258.01L182.115 257.971Z" fill="#CAD0DD"/>
<path d="M124.217 258.013L124.196 260.498L52.5505 218.969L52.5686 216.62L124.217 258.013Z" fill="#D4DAE8"/>
<path d="M290.609 194.878L182.115 257.971L124.218 258.01L52.5658 216.617L189.946 136.726L290.609 194.878Z" fill="white"/>
<path d="M182.109 257.961L124.212 258L153.1 241.202L182.109 257.961ZM272.853 196.502L267.796 199.443L182.127 149.95L187.184 147.009L272.853 196.502ZM249.228 210.241L244.17 213.179L158.504 163.687L163.562 160.746L249.228 210.241ZM225.603 223.977L220.545 226.919L134.879 177.426L139.937 174.485L225.603 223.977ZM237.414 217.108L232.359 220.049L146.69 170.557L151.748 167.615L237.414 217.108ZM201.977 237.717L196.886 240.676L111.22 191.184L116.311 188.225L201.977 237.717ZM213.791 230.847L208.734 233.788L123.068 184.296L128.122 181.355L213.791 230.847ZM190.166 244.584L185.075 247.546L99.4062 198.054L104.5 195.094L190.166 244.584ZM261.042 203.371L255.982 206.312L170.316 156.82L175.373 153.879L261.042 203.371Z" fill="#D4DAE8"/>
<path d="M142.918 235.32L120.819 248.171L98.5398 235.298L120.638 222.447L142.918 235.32Z" fill="#ABFC85"/>
<path d="M113.248 218.178L91.1467 231.03L68.9034 218.178L91.0019 205.326L113.248 218.178Z" fill="#989898"/>
<path d="M284.423 240.191C284.423 241.719 283.889 242.863 282.975 243.398L186.137 299.675C187.052 299.138 187.664 298.072 187.664 296.468C187.664 293.259 185.374 289.366 182.625 287.763C181.559 287.153 180.271 287.111 179.435 287.262L275.877 231.18C276.791 230.646 278.089 230.721 279.462 231.485C282.208 233.089 284.423 236.984 284.423 240.191Z" fill="#FFD337"/>
<path d="M200.462 288.982C200.462 290.51 199.928 291.658 199.014 292.192L186.137 299.675C187.052 299.138 187.664 298.072 187.664 296.468C187.664 293.258 185.374 289.366 182.625 287.763C181.559 287.153 180.271 287.11 179.435 287.261L191.916 279.975C192.83 279.44 194.128 279.516 195.501 280.28C198.247 281.88 200.462 285.776 200.462 288.982Z" fill="#FFE5AB"/>
<path d="M182.634 287.781C185.41 289.388 187.643 293.259 187.637 296.451C187.628 299.642 185.38 300.926 182.601 299.319C179.873 297.746 177.591 293.845 177.6 290.653C177.609 287.461 179.906 286.202 182.634 287.781Z" fill="#EFCA45"/>
<path d="M289.306 228.662L295.106 227.668L291.596 232.174C290.679 231.259 289.915 230.036 289.306 228.738V228.662Z" fill="#474B59"/>
</svg>
