<svg width="51" height="51" viewBox="0 0 51 51" fill="none" xmlns="http://www.w3.org/2000/svg">
<path d="M25.6666 0.0117188C39.4745 0.0117188 50.6667 11.2055 50.6667 25.0118C50.6667 38.8197 39.4745 50.0117 25.6666 50.0117C11.8587 50.0117 0.666687 38.8195 0.666687 25.0118C0.666687 11.2055 11.8589 0.0117188 25.6666 0.0117188Z" fill="#916834"/>
<path fill-rule="evenodd" clip-rule="evenodd" d="M27.3091 12.5736L28.9605 13.8248C29.4121 14.1669 29.8875 14.3421 30.4508 14.3738L32.5102 14.4898C33.7434 14.5592 34.745 15.4098 35.0267 16.6271L35.4972 18.6599C35.6258 19.2159 35.8788 19.6593 36.2902 20.0501L37.7942 21.4789C38.6948 22.3345 38.9218 23.6378 38.3646 24.7535L37.4341 26.6168C37.1796 27.1264 37.0918 27.6307 37.1587 28.1977L37.4036 30.2708C37.5501 31.5121 36.8964 32.6582 35.7611 33.1504L33.8649 33.9723C33.3463 34.1971 32.9588 34.5263 32.65 35.0041L31.521 36.7515C30.845 37.7978 29.6164 38.2504 28.4342 37.8887L26.4597 37.2847C25.9197 37.1195 25.4138 37.1195 24.8738 37.2847L22.8993 37.8887C21.7171 38.2504 20.4884 37.7978 19.8124 36.7515L18.6834 35.0041C18.3746 34.5263 17.9871 34.1971 17.4686 33.9723L15.5723 33.1503C14.437 32.6581 13.7832 31.512 13.9298 30.2707L14.1747 28.1975C14.2416 27.6306 14.1537 27.1263 13.8993 26.6167L12.9687 24.7534C12.4116 23.6377 12.6386 22.3344 13.5392 21.4788L15.0432 20.05C15.4546 19.6592 15.7075 19.2158 15.8361 18.6598L16.3066 16.627C16.5883 15.4098 17.5899 14.5591 18.8231 14.4897L20.8826 14.3737C21.4458 14.342 21.9212 14.1668 22.3729 13.8247L24.0242 12.5735C25.0129 11.8244 26.3204 11.8244 27.3091 12.5736ZM24.6133 25.7277L22.8212 23.9138C22.3567 23.4437 21.6033 23.4437 21.1389 23.9138C20.6744 24.384 20.6744 25.1465 21.1389 25.6167L23.7747 28.2846C24.2392 28.7546 24.9926 28.7547 25.457 28.2846C27.0457 26.6764 28.6164 25.0502 30.1978 23.4347C30.659 22.9637 30.6575 22.2035 30.1927 21.7357C29.7278 21.2677 28.9747 21.2691 28.5131 21.741L24.6133 25.7277ZM25.6666 16.0449C23.2204 16.0449 21.0057 17.0486 19.4026 18.6712C17.7994 20.294 16.8079 22.5356 16.8079 25.0117C16.8079 27.4877 17.7994 29.7295 19.4026 31.3521C21.0057 32.9748 23.2204 33.9785 25.6666 33.9785C28.1129 33.9785 30.3276 32.9748 31.9307 31.3521C33.5338 29.7295 34.5254 27.4877 34.5254 25.0117C34.5254 22.5356 33.5338 20.2939 31.9307 18.6712C30.3276 17.0486 28.1129 16.0449 25.6666 16.0449ZM31.3179 19.2915C29.8717 17.8276 27.8736 16.9221 25.6666 16.9221C23.4597 16.9221 21.4616 17.8276 20.0154 19.2915C18.5691 20.7554 17.6745 22.7778 17.6745 25.0117C17.6745 27.2456 18.5691 29.268 20.0154 30.7319C21.4616 32.1958 23.4597 33.1012 25.6666 33.1012C27.8736 33.1012 29.8717 32.1958 31.3179 30.7319C32.7642 29.268 33.6587 27.2456 33.6587 25.0117C33.6587 22.7778 32.7642 20.7554 31.3179 19.2915Z" fill="white"/>
</svg>
