<svg width="50" height="50" viewBox="0 0 50 50" fill="none" xmlns="http://www.w3.org/2000/svg">
<rect x="1" y="1" width="48" height="48" stroke="#433601" stroke-width="2"/>
<path d="M32.0834 13.9571L18.4938 21.8051L22.9041 24.3509L36.4937 16.5041L32.0834 13.9571ZM27.6539 11.4005L23.2045 8.83063C23.113 8.77781 23.0092 8.75 22.9035 8.75C22.7979 8.75 22.6941 8.77781 22.6026 8.83063L9.31396 16.5035L14.0667 19.2479L27.6539 11.4005ZM14.7071 24.4177L16.7292 25.5853V22.1746L14.7071 21.0071V24.4177ZM33.4255 24.3985C34.6762 24.3986 35.913 24.6604 37.0564 25.167V17.57L23.5054 25.3963V40.996L26.5356 39.2459C25.1549 37.6211 24.3972 35.5582 24.3979 33.4261C24.3979 28.4482 28.4477 24.3985 33.4255 24.3985ZM17.2914 21.1094L30.8791 13.2626L28.8581 12.095L15.2698 19.9424L17.2914 21.1094Z" fill="#433601"/>
<path d="M17.9323 26.6283C17.9323 26.734 17.9045 26.8378 17.8517 26.9293C17.7988 27.0207 17.7229 27.0967 17.6314 27.1495C17.5399 27.2024 17.4361 27.2302 17.3304 27.2302C17.2248 27.2302 17.121 27.2024 17.0295 27.1495L13.8043 25.2874C13.7127 25.2346 13.6367 25.1585 13.5838 25.0669C13.531 24.9753 13.5032 24.8714 13.5033 24.7656V20.3132L8.75 17.5676V32.8249C8.75 32.9305 8.77781 33.0343 8.83064 33.1258C8.88346 33.2173 8.95943 33.2933 9.05092 33.3461L22.3017 40.9967V25.394L17.9323 22.8704V26.6283ZM21.6619 36.3661C21.5821 36.5044 21.4506 36.6052 21.2965 36.6465C21.1423 36.6878 20.978 36.6662 20.8398 36.5864L16.6522 34.1682C16.5151 34.0878 16.4153 33.9565 16.3747 33.8028C16.3341 33.6492 16.3559 33.4857 16.4353 33.3481C16.5148 33.2104 16.6455 33.1098 16.7989 33.0682C16.9522 33.0266 17.1159 33.0473 17.254 33.1258L21.4416 35.544C21.5798 35.6238 21.6807 35.7553 21.722 35.9095C21.7633 36.0636 21.7417 36.2279 21.6619 36.3661ZM21.6619 33.9588C21.5821 34.097 21.4506 34.1979 21.2965 34.2392C21.1423 34.2805 20.978 34.2588 20.8398 34.179L16.6522 31.7608C16.5151 31.6805 16.4153 31.5491 16.3747 31.3955C16.3341 31.2418 16.3559 31.0784 16.4353 30.9407C16.5148 30.8031 16.6455 30.7025 16.7989 30.6608C16.9522 30.6192 17.1159 30.6399 17.254 30.7185L21.4416 33.1367C21.5798 33.2165 21.6807 33.3479 21.722 33.5021C21.7633 33.6563 21.7417 33.8205 21.6619 33.9588ZM33.4255 25.6028C29.1115 25.6028 25.6015 29.1127 25.6015 33.4267C25.6015 37.7407 29.1115 41.2507 33.4255 41.2507C37.7395 41.2507 41.2494 37.7407 41.2494 33.4267C41.2494 29.1127 37.7395 25.6028 33.4255 25.6028ZM37.9742 30.4994L33.1896 37.057C33.0967 37.1847 32.9573 37.2707 32.8016 37.2965C32.6459 37.3222 32.4863 37.2858 32.3572 37.1949L28.7263 34.6413C28.6603 34.5964 28.6038 34.5388 28.5603 34.4719C28.5167 34.405 28.4869 34.3301 28.4725 34.2516C28.4582 34.173 28.4596 34.0924 28.4767 34.0145C28.4938 33.9365 28.5263 33.8627 28.5722 33.7974C28.6181 33.732 28.6766 33.6765 28.7441 33.634C28.8117 33.5915 28.8871 33.5629 28.9658 33.5498C29.0446 33.5367 29.1252 33.5394 29.2029 33.5577C29.2806 33.5761 29.3538 33.6097 29.4184 33.6566L32.566 35.8702L37.0016 29.7898C37.0482 29.726 37.1069 29.6719 37.1744 29.6307C37.2419 29.5896 37.3168 29.5621 37.3949 29.5499C37.473 29.5377 37.5528 29.541 37.6296 29.5596C37.7064 29.5782 37.7788 29.6117 37.8427 29.6583C37.9066 29.7049 37.9606 29.7636 38.0018 29.8311C38.0429 29.8986 38.0704 29.9735 38.0826 30.0516C38.0948 30.1297 38.0916 30.2095 38.0729 30.2863C38.0543 30.3631 38.0208 30.4355 37.9742 30.4994Z" fill="#433601"/>
</svg>
