<svg width="30" height="30" viewBox="0 0 30 30" fill="none" xmlns="http://www.w3.org/2000/svg">
<path d="M15 30C23.2843 30 30 23.2843 30 15C30 6.71573 23.2843 0 15 0C6.71573 0 0 6.71573 0 15C0 23.2843 6.71573 30 15 30Z" fill="#916834"/>
<path d="M15 7.62165C17.4031 7.62165 17.6878 7.6308 18.6368 7.67407C19.5143 7.71412 19.9908 7.86075 20.308 7.98397C20.7281 8.14725 21.0278 8.34225 21.3428 8.65718C21.6578 8.97218 21.8527 9.27195 22.016 9.69203C22.1392 10.0092 22.2859 10.4858 22.3259 11.3632C22.3692 12.3122 22.3784 12.5969 22.3784 14.9999C22.3784 17.4031 22.3692 17.6877 22.3259 18.6368C22.2859 19.5143 22.1392 19.9907 22.016 20.3079C21.8527 20.728 21.6578 21.0278 21.3428 21.3428C21.0278 21.6577 20.7281 21.8527 20.308 22.0159C19.9908 22.1392 19.5143 22.2858 18.6368 22.3258C17.6879 22.3691 17.4033 22.3783 15 22.3783C12.5967 22.3783 12.3122 22.3691 11.3632 22.3258C10.4857 22.2858 10.0092 22.1392 9.69203 22.0159C9.27195 21.8527 8.97218 21.6577 8.65725 21.3428C8.34233 21.0278 8.14725 20.728 7.98398 20.3079C7.86075 19.9907 7.71412 19.5143 7.67407 18.6368C7.6308 17.6877 7.62165 17.4031 7.62165 14.9999C7.62165 12.5969 7.6308 12.3122 7.67407 11.3632C7.71412 10.4858 7.86075 10.0092 7.98398 9.69203C8.14725 9.27195 8.34225 8.97218 8.65725 8.65725C8.97218 8.34225 9.27195 8.14725 9.69203 7.98397C10.0092 7.86075 10.4857 7.71412 11.3632 7.67407C12.3122 7.6308 12.5969 7.62165 15 7.62165ZM15 6C12.5558 6 12.2492 6.01035 11.2893 6.05415C10.3314 6.09787 9.6771 6.24998 9.10462 6.4725C8.5128 6.70245 8.0109 7.01017 7.51058 7.51058C7.01018 8.0109 6.70245 8.5128 6.4725 9.10462C6.24998 9.6771 6.09787 10.3313 6.05415 11.2893C6.01035 12.2492 6 12.5558 6 14.9999C6 17.4443 6.01035 17.7507 6.05415 18.7106C6.09787 19.6686 6.24998 20.3228 6.4725 20.8953C6.70245 21.4871 7.01018 21.989 7.51058 22.4894C8.0109 22.9897 8.5128 23.2975 9.10462 23.5274C9.6771 23.75 10.3314 23.9021 11.2893 23.9458C12.2492 23.9896 12.5558 23.9999 15 23.9999C17.4443 23.9999 17.7508 23.9896 18.7107 23.9458C19.6686 23.9021 20.3229 23.75 20.8954 23.5274C21.4872 23.2975 21.9891 22.9897 22.4894 22.4894C22.9898 21.989 23.2976 21.4871 23.5275 20.8953C23.75 20.3228 23.9021 19.6686 23.9459 18.7106C23.9897 17.7507 24 17.4443 24 14.9999C24 12.5558 23.9897 12.2492 23.9459 11.2893C23.9021 10.3313 23.75 9.6771 23.5275 9.10462C23.2976 8.5128 22.9898 8.0109 22.4894 7.51058C21.9891 7.01017 21.4872 6.70245 20.8954 6.4725C20.3229 6.24998 19.6686 6.09787 18.7107 6.05415C17.7508 6.01035 17.4443 6 15 6Z" fill="white"/>
<path d="M15.0044 10.3825C12.4519 10.3825 10.3828 12.4516 10.3828 15.0041C10.3828 17.5565 12.4519 19.6256 15.0044 19.6256C17.5569 19.6256 19.626 17.5565 19.626 15.0041C19.626 12.4516 17.5569 10.3825 15.0044 10.3825ZM15.0044 18.0041C13.3476 18.0041 12.0044 16.6609 12.0044 15.0041C12.0044 13.3472 13.3476 12.0041 15.0044 12.0041C16.6613 12.0041 18.0044 13.3472 18.0044 15.0041C18.0044 16.6609 16.6613 18.0041 15.0044 18.0041Z" fill="white"/>
<path d="M20.888 10.1972C20.888 10.7936 20.4045 11.2772 19.808 11.2772C19.2116 11.2772 18.728 10.7936 18.728 10.1972C18.728 9.60076 19.2116 9.11716 19.808 9.11716C20.4045 9.11716 20.888 9.60076 20.888 10.1972Z" fill="white"/>
</svg>
