<svg width="288" height="244" viewBox="0 0 288 244" fill="none" xmlns="http://www.w3.org/2000/svg">
<path d="M225.868 9.19721L214.754 14.3457L191.952 24.9002C187.961 26.7498 183.959 28.5899 179.967 30.4396C177.292 31.679 171.592 33.2331 170.721 36.2364C170.53 36.9134 170.604 37.6189 170.689 38.3149C171.071 41.4803 170.976 44.2929 173.269 46.8004C175.434 49.1649 179.075 52.3303 182.833 52.3303C191.442 54.8569 199.659 58.3178 208.119 61.1972C215.677 63.7714 225.199 67.7758 232.917 63.8859C233.851 63.4187 234.615 62.7799 235.56 62.3604C236.823 61.7979 238.14 61.3593 239.392 60.7586C242.948 59.071 246.08 56.7542 249.445 54.7901C255.114 51.4722 261.377 49.1459 267.481 46.5811C270.549 45.294 273.595 43.9401 276.493 42.367C277.94 41.5879 279.343 40.7447 280.697 39.8404C281.737 39.1444 283.574 38.1814 283.935 36.9706C283.988 36.8085 284.009 36.6464 284.009 36.4748C283.998 35.8074 283.574 35.1972 283.011 34.7682C281.143 33.338 278.489 32.5943 276.292 31.7267C273.425 30.6017 270.729 28.9904 268.001 27.6079C262.247 24.6904 256.451 21.8492 250.613 19.0938C246.29 17.0518 241.945 15.0495 237.577 13.0872C235.337 12.0861 233.097 11.0945 230.847 10.103C229.403 9.47371 227.524 8.43447 225.868 9.19721Z" fill="#E6A475"/>
<path d="M171.139 94.1283C171.964 94.9676 173.077 95.578 174.169 96.1311C179.619 98.8875 185.208 101.396 190.797 103.952C193.592 105.239 196.397 106.517 199.191 107.805C201.943 109.073 204.705 110.332 207.457 111.601L214.877 115.006C216.826 115.902 218.774 116.799 220.723 117.686C221.901 118.229 223.079 118.773 224.267 119.307C225.777 120.003 226.826 120.681 228.571 120.118C230.027 119.651 230.113 118.067 230.445 116.847C231.366 113.499 231.751 110.046 231.912 106.603C232.137 102.044 231.965 97.4664 231.805 92.9075C231.612 87.433 231.997 81.9489 231.74 76.4458C231.665 74.9389 231.623 73.4225 231.569 71.9251C231.526 70.5994 230.616 69.3881 229.749 68.3581C228.689 67.1087 227.49 65.7925 227.415 64.2284C227.276 61.6628 224.406 60.9189 222.243 60.07C218.978 58.7825 215.83 57.1992 212.65 55.7495C201.367 50.6054 190.18 45.2955 179.094 39.822C177.756 39.1639 170.39 34.09 170.358 37.8668C170.186 54.853 170.004 71.8297 169.694 88.8159C169.662 90.3419 169.662 91.9537 170.497 93.2794C170.679 93.6133 170.893 93.8803 171.139 94.1283Z" fill="#A06841"/>
<path d="M283.959 94.5759C282.835 95.6007 281.208 96.3326 279.143 97.2988C274.723 99.3678 270.292 101.447 265.871 103.516C256.87 107.732 247.88 111.948 238.879 116.154C236.921 117.072 230.21 121.073 228.005 120.204C226.314 119.541 227.342 111.909 227.342 110.23V88.6714V77.5358C227.342 73.4954 227.759 69.211 227.053 65.2291C226.839 64.0189 226.603 62.8966 227.406 61.823C228.69 60.1249 231.783 59.2173 233.753 58.2901C236.139 57.1678 238.526 56.0454 240.923 54.9231C246.981 52.0733 253.028 49.2333 259.086 46.3835L273.535 39.5909C276.114 38.3807 278.961 36.4874 281.733 35.7359C284.194 35.0723 284.665 37.0632 284.815 38.937C285.243 44.5487 285.168 50.2385 285.308 55.86C285.586 67.0444 285.757 78.219 285.843 89.4034C285.864 91.9506 285.222 93.434 283.959 94.5759Z" fill="#C78C61"/>
<path d="M276.715 49.1093C276.715 48.3705 275.941 47.8868 275.277 48.2103L262.498 54.4342C262.154 54.6017 261.936 54.9507 261.936 55.3332V75.9851C261.936 76.7239 262.709 77.2077 263.374 76.8842L276.153 70.6602C276.497 70.4928 276.715 70.1437 276.715 69.7612V49.1093Z" fill="#FCE8B2" fill-opacity="0.7"/>
<path d="M255.135 53.6704C258.294 52.2207 283.048 40.4324 283.059 39.1353C283.059 38.0671 259.225 49.3117 259.225 49.3117C259.225 49.3117 229.503 62.8549 229.032 63.9994C228.55 65.1439 252.341 54.9579 255.135 53.6704Z" fill="#A06841"/>
<path d="M266.367 103.384C266.367 100.866 266.174 95.6111 266.174 95.6111C266.174 95.6111 263.958 97.2897 262.566 97.757C261.473 98.1194 260.285 98.3102 259.332 98.911C258.347 99.5405 257.705 100.542 256.698 101.152C254.214 102.669 250.831 102.068 250.831 102.068V110.518L266.367 103.384Z" fill="#FFCC80"/>
<path d="M172.949 91.8966C176.814 93.6324 180.647 95.4254 185.433 97.6V95.9405C180.679 93.7755 176.835 91.992 172.949 90.2371V91.8966Z" fill="#7D5133"/>
<path d="M181.086 92.6405C182.167 93.1364 182.713 93.3844 183.752 93.8613C183.763 90.9714 183.763 89.5217 183.773 86.6319C182.756 86.1646 182.21 85.9261 181.129 85.4302C181.107 88.3105 181.097 89.7602 181.086 92.6405Z" fill="#7D5133"/>
<path d="M174.319 89.5504C175.229 89.9606 175.722 90.1894 176.75 90.6568L176.803 83.4465C175.765 82.9696 175.272 82.7407 174.351 82.321C174.341 85.2204 174.33 86.6606 174.319 89.5504Z" fill="#7D5133"/>
<path d="M179.373 85.4875C181.846 86.6225 183.184 87.2234 185.358 88.2153C184.266 86.4604 183.677 85.5543 182.467 83.7422C181.268 84.4575 180.626 84.8008 179.373 85.4875Z" fill="#7D5133"/>
<path d="M172.949 82.5499C174.801 83.4083 176.043 83.971 178.506 85.0964C177.285 83.2748 176.685 82.3687 175.561 80.5947C174.416 81.3291 173.88 81.7106 172.949 82.5499Z" fill="#7D5133"/>
<path d="M192.799 99.4598C193.677 99.8604 194.116 100.07 194.994 100.48L194.833 91.8966C193.998 91.5056 193.57 91.3053 192.746 90.9238C192.756 94.3382 192.767 96.0454 192.799 99.4598Z" fill="#7D5133"/>
<path d="M189.609 98.8589C192.789 100.356 195.273 101.472 198.324 102.931C198.303 101.949 197.457 100.766 196.3 100.223C194.502 99.3739 193.474 98.9066 191.643 98.0578C190.476 97.5046 189.609 97.8956 189.609 98.8589Z" fill="#7D5133"/>
<path d="M195.669 89.1593C196.204 90.1703 196.482 90.6758 197.007 91.6868C196.579 92.4784 196.365 92.8789 195.926 93.6705C196.311 93.6419 196.493 93.6324 196.868 93.6038C197.371 93.0029 197.617 92.7073 198.099 92.1064C197.66 91.1813 197.425 90.7235 196.975 89.7888C198.26 90.4087 198.881 90.733 200.048 91.3434C200.048 94.691 197.596 96.1503 193.913 94.4431C190.23 92.7359 187.788 88.9114 187.788 85.5732C190.529 86.794 192.371 87.5856 195.669 89.1593Z" fill="#7D5133"/>
<path d="M264.554 44.3092C264.027 43.9631 207.423 17.7231 207.423 17.7231L189.859 25.7775L247.896 52.3355L247.928 52.3636L264.912 44.646C264.912 44.646 264.881 44.5711 264.786 44.4776C264.712 44.4215 264.585 44.3373 264.554 44.3092Z" fill="#FCE8B2"/>
<path d="M264.828 44.5337C255.213 48.734 247.896 52.3355 247.896 52.3355C248.139 52.5507 248.149 52.8313 248.149 52.9716C248.118 54.0568 248.097 54.9174 248.065 55.9932C247.918 61.5592 247.833 60.9402 247.622 66.5062C248.329 66.132 249.183 66.9552 249.826 66.5062C250.817 65.814 252.925 67.189 253.242 67.0954C253.663 66.9738 254.117 67.0674 254.549 67.0486C256.447 66.9551 260.695 65.2918 261.602 65.1327C262.477 64.9831 265.366 61.0542 265.366 61.0542C265.366 61.0542 265.165 48.5001 265.091 45.6469C265.07 44.6366 264.828 44.5337 264.828 44.5337Z" fill="#FFCC80"/>
<path d="M25.1767 51.775L52.3647 113.807C52.5918 114.325 53.203 114.551 53.713 114.307L104.081 90.1563C104.427 89.99 104.648 89.6394 104.648 89.2546V41.2965C104.648 40.6865 104.107 40.2187 103.503 40.307L25.1767 51.775Z" fill="#C78C61"/>
<path d="M68.2985 88.0244L58.8154 92.2029V106.213L68.2985 101.923V88.0244Z" fill="#FFE1B4" fill-opacity="0.7"/>
<path d="M51.9105 15.6862C52.4599 15.4228 53.0994 15.4241 53.6477 15.6899L103.895 40.0485C104.657 40.4182 104.643 41.5094 103.871 41.8592L52.78 65.0117V114.754L0.911896 89.8841V40.1393L51.9105 15.6862Z" fill="#E6A475"/>
<path d="M52.78 65.0118V114.754L0.911903 89.8841V40.1394L52.78 65.0118Z" fill="#A06841"/>
<path d="M35.5964 23.5093L88.3301 48.8036L71.7007 56.4996L19.5498 31.2032H19.5473" fill="#FFCC80"/>
<path d="M19.1402 68.2214L26.8956 63.6387L34.8982 75.7564L29.0066 72.9393V93.4684L24.9068 91.502V70.9788L19.1402 68.2214Z" fill="#7D5133"/>
<path d="M70.5225 66.067V70.0719L93.7166 58.9476V54.9453L70.5225 66.067Z" fill="#A06841"/>
<path d="M70.5225 76.0383V80.0432L93.7166 68.9213V64.9189L70.5225 76.0383Z" fill="#A06841"/>
<path d="M126.319 1.05392L42.2806 39.4962C40.4439 40.4541 39.9122 41.8837 39.9283 43.9566L40.0894 46.5442L128.816 86.9165L217.333 47.1875C217.333 47.1875 217.43 46.7873 217.43 45.3862C217.43 45.3862 217.349 43.542 216.882 42.6843C216.367 41.7121 215.271 40.8401 214.562 40.3111C212.677 38.9244 210.792 37.6949 207.586 36.0937C161.619 13.0341 131.394 1.15399 131.394 1.15399C129.444 0.510667 127.833 0.281929 126.319 1.05392Z" fill="#DEA66C"/>
<path d="M41.2491 131.606C46.1471 134.48 55.089 138.254 64.1276 142.6C85.1371 152.693 111.689 164.959 124.901 169.777C126.689 170.435 127.752 170.749 128.993 170.806C129.911 170.849 131.426 170.306 131.426 170.306C131.426 170.306 128.961 91.4055 128.816 86.9022C128.671 82.499 126.592 81.0408 124.756 79.9829C121.888 78.3531 115.669 75.8084 115.669 75.8084C115.669 75.8084 93.8857 66.2014 72.1351 56.0798C61.7914 51.262 53.0589 46.3298 43.6659 42.2697C41.9419 41.5406 39.9119 42.4555 39.9119 44.1711V129.662C39.9119 130.477 40.4758 131.163 41.2491 131.606Z" fill="#B38251"/>
<path d="M214.997 132.107L131.603 170.263C130.266 170.878 128.671 170.02 128.671 168.676L128.816 86.9309C128.816 86.1446 128.542 84.4148 128.268 83.7285C127.511 81.7271 129.154 80.9265 129.895 80.5977L212.612 42.7987C214.803 41.798 217.429 43.2133 217.429 45.4006V128.59C217.429 130.062 216.495 131.42 214.997 132.107Z" fill="#966239"/>
<path opacity="0.5" d="M177.747 62.1699C177.747 62.1699 132.038 82.9136 131.297 84.6721C130.556 86.4162 167.161 70.8048 171.447 68.8462C176.297 66.6303 214.385 48.56 214.385 46.5729C214.401 44.9431 177.747 62.1699 177.747 62.1699Z" fill="#212121"/>
<g opacity="0.5">
<path d="M46.1953 126.874C52.1405 129.533 58.0373 132.278 65.3842 135.609V133.064C58.0696 129.748 52.1566 127.017 46.1953 124.329V126.874Z" fill="#212121"/>
<path d="M58.7141 128.032C60.3897 128.79 61.2275 129.176 62.8065 129.891C62.8226 125.459 62.8226 123.243 62.8387 118.811C61.2597 118.096 60.4381 117.725 58.7786 116.967C58.7463 121.399 58.7302 123.6 58.7141 128.032Z" fill="#212121"/>
<path d="M48.3059 123.286C49.6915 123.915 50.4649 124.272 52.0438 124.987L52.1244 113.951C50.5293 113.221 49.756 112.878 48.3542 112.221C48.3381 116.653 48.322 118.868 48.3059 123.286Z" fill="#212121"/>
<path d="M56.0879 117.067C59.9063 118.797 61.9364 119.726 65.3037 121.241C63.6281 118.539 62.7098 117.167 60.873 114.394C58.988 115.48 58.0052 116.009 56.0879 117.067Z" fill="#212121"/>
<path d="M46.1953 112.564C49.0471 113.879 50.9643 114.751 54.7345 116.467C52.8655 113.679 51.931 112.292 50.2071 109.562C48.4509 110.691 47.6292 111.277 46.1953 112.564Z" fill="#212121"/>
</g>
<g opacity="0.5">
<path d="M76.8076 139.098C78.1449 139.712 78.8377 140.041 80.1749 140.656C80.0783 135.395 80.0299 132.764 79.9171 127.503C78.6282 126.903 77.9838 126.603 76.6948 126.017C76.7432 131.249 76.7593 133.865 76.8076 139.098Z" fill="#212121"/>
<path d="M71.8936 138.168C76.7915 140.456 80.5938 142.171 85.2984 144.401C85.2662 142.9 83.9612 141.085 82.1889 140.241C79.4177 138.94 77.8387 138.225 75.0353 136.924C73.2308 136.11 71.8936 136.696 71.8936 138.168Z" fill="#212121"/>
<path d="M81.2221 123.315L83.2844 127.189C82.6399 128.404 82.3016 129.019 81.6249 130.22C82.2049 130.177 82.4949 130.162 83.075 130.12C83.8483 129.205 84.235 128.747 84.9761 127.832C84.2994 126.417 83.945 125.702 83.2361 124.287C85.2017 125.245 86.1684 125.731 87.9568 126.66C87.9568 131.778 84.1867 134.037 78.5154 131.406C72.8441 128.79 69.0901 122.943 69.0901 117.811C73.3113 119.683 76.147 120.913 81.2221 123.315Z" fill="#212121"/>
</g>
<path d="M187.865 53.4492C187.059 52.9202 100.556 12.8196 100.556 12.8196L73.7141 25.1286L162.409 65.7153L162.457 65.7582L188.413 53.9639C188.413 53.9639 188.364 53.8495 188.219 53.7065C188.107 53.6207 187.913 53.4921 187.865 53.4492Z" fill="#FFE0B2"/>
<path d="M188.284 53.7922C173.59 60.2112 162.408 65.7152 162.408 65.7152C162.779 66.044 162.795 66.4729 162.795 66.6874C162.747 68.3457 162.715 69.6609 162.666 71.305C162.441 79.8112 162.312 88.3317 161.99 96.8379C163.069 96.266 164.374 97.5241 165.357 96.8379C166.871 95.78 170.094 91.1194 170.577 90.9765C171.221 90.7906 171.914 90.9336 172.575 90.905C175.475 90.762 181.968 85.5154 183.353 85.2723C184.691 85.0436 189.105 85.8013 189.105 85.8013C189.105 85.8013 188.799 59.8538 188.686 55.4935C188.654 53.9495 188.284 53.7922 188.284 53.7922Z" fill="#BF9F85"/>
<path d="M214.072 101.878C214.072 100.4 212.525 99.433 211.196 100.08L199.386 105.832C198.698 106.167 198.262 106.865 198.262 107.63V127.653C198.262 129.131 199.809 130.098 201.137 129.451L212.948 123.699C213.635 123.364 214.072 122.666 214.072 121.901V101.878Z" fill="#BF9F85"/>
<path d="M157.036 87.88C157.036 86.4298 155.54 85.4617 154.217 86.0551L135.925 94.2575C135.206 94.5799 134.744 95.2945 134.744 96.0824V125.181C134.744 126.64 136.255 127.608 137.58 126.998L155.872 118.577C156.581 118.251 157.036 117.541 157.036 116.761V87.88Z" fill="#BF9F85"/>
<path d="M209.262 135.854L235.488 195.69C235.715 196.208 236.326 196.435 236.836 196.19L285.395 172.906C285.742 172.74 285.963 172.39 285.963 172.005V125.781C285.963 125.171 285.422 124.703 284.818 124.791L209.262 135.854Z" fill="#C78C61"/>
<path d="M250.88 170.84L241.728 174.872V188.394L250.88 184.254V170.84Z" fill="#FFE1B4" fill-opacity="0.7"/>
<path d="M235.034 101.038C235.583 100.774 236.223 100.776 236.771 101.041L285.169 124.504C285.931 124.873 285.917 125.965 285.145 126.314L235.903 148.629V196.637L185.843 172.634V124.624L235.034 101.038Z" fill="#E6A475"/>
<path d="M235.903 148.629V196.637L185.843 172.634V124.624L235.903 148.629Z" fill="#A06841"/>
<path d="M219.319 108.573L270.214 132.986L254.164 140.414L203.831 115.999H203.829" fill="#FFCC80"/>
<path d="M203.436 151.727L210.921 147.304L218.645 158.999L212.958 156.28V176.093L209.001 174.196V154.388L203.436 151.727Z" fill="#7D5133"/>
<path d="M253.027 149.648V153.513L275.412 142.776V138.914L253.027 149.648Z" fill="#A06841"/>
<path d="M253.027 159.271V163.137L275.412 152.402V148.54L253.027 159.271Z" fill="#A06841"/>
<path d="M82.4256 243.434L18.8433 205.285V154.419L82.4256 192.568V243.434Z" fill="#B38251"/>
<path d="M82.4255 192.568V243.434L146.008 205.285V154.419L82.4255 192.568Z" fill="#CD8852"/>
<path d="M18.8433 154.419L82.4256 192.568L146.008 154.419L82.4256 116.269L18.8433 154.419Z" fill="#EEBB87"/>
<path d="M119.979 169.917L56.5953 131.768L44.6736 138.921L108.256 177.07L119.979 169.917Z" fill="#FFE0B2"/>
<path d="M96.9304 129.781L82.8231 121.038L71.1001 128.191L85.2074 136.735L96.9304 129.781Z" fill="#FFE0B2"/>
<path d="M119.78 170.115L108.653 176.871V195.151L119.78 188.395V170.115Z" fill="#BF9F85"/>
<path d="M143.028 160.181L131.702 166.937V185.216L143.028 178.461V160.181Z" fill="#BF9F85"/>
<path d="M101.5 202.702L86.2007 211.842V236.877L101.5 227.539V202.702Z" fill="#BF9F85"/>
<path d="M108.653 227.737L119.78 220.981V202.701L108.653 209.457V227.737Z" fill="#BF9F85"/>
</svg>
