<svg width="358" height="250" viewBox="0 0 358 250" fill="none" xmlns="http://www.w3.org/2000/svg">
<path d="M106.424 58.2178V69.0798C106.424 70.5451 107.42 72.0124 109.306 73.1123L259.573 160.421C263.451 162.674 269.734 162.674 273.662 160.421L354.847 113.545C356.837 112.392 357.832 110.925 357.832 109.407L357.779 98.5448C357.779 100.012 356.837 101.53 354.847 102.683L273.611 149.563C269.683 151.814 263.397 151.814 259.522 149.563L109.306 62.2503C107.367 61.0973 106.424 59.6831 106.424 58.2178Z" fill="#474B59"/>
<path d="M109.372 54.0853C105.452 56.35 105.43 59.9916 109.294 62.2367L259.532 149.546C263.427 151.808 269.716 151.808 273.635 149.546L354.835 102.666C358.755 100.401 358.775 96.7595 354.88 94.4948L204.646 7.18796C200.781 4.94287 194.491 4.94287 190.571 7.20563L109.372 54.0853Z" fill="#5B5E71"/>
<path d="M143.027 40.7853L144.642 41.7241L169.116 27.5937L167.501 26.6567L143.027 40.7853Z" fill="#474B59"/>
<path d="M118.681 61.9889L252.498 140.154C256.165 142.303 262.083 142.303 265.75 140.154L337.978 98.4641C341.643 96.3683 341.643 92.9113 338.029 90.8155L204.212 12.6501C200.545 10.5032 194.627 10.5032 190.959 12.597L170.952 24.1721L173.676 25.7434C175.456 26.7393 175.405 28.4147 173.676 29.4617L147.802 44.3896C146.073 45.3855 143.192 45.3855 141.412 44.3366L138.688 42.7652L118.732 54.3422C115.067 56.4361 115.067 59.842 118.681 61.9889Z" fill="white"/>
<path d="M143.656 85.8545C142.556 85.2221 141.678 85.7229 141.674 86.982C141.67 88.2744 142.544 89.7888 143.64 90.4194L154.85 96.8934C155.973 97.5416 156.853 97.0407 156.857 95.7482C156.861 94.4911 155.987 92.9748 154.863 92.3266L143.656 85.8545Z" fill="#E4E8F4"/>
<path d="M143.135 85.1889L142.233 85.7055C142.62 85.4895 143.092 85.5327 143.65 85.8332L154.853 92.3151C155.971 92.9593 156.871 94.5051 156.871 95.7504C156.871 96.3927 156.657 96.8229 156.27 97.037L157.173 96.5224C157.558 96.3063 157.772 95.8781 157.772 95.2339C157.772 93.9473 156.914 92.4447 155.755 91.8004L144.551 85.3186C143.993 85.018 143.52 84.9748 143.135 85.1889ZM121.028 73.4705C121.415 73.2544 121.93 73.2996 122.487 73.6433L133.691 80.082C134.764 80.7263 135.665 82.2289 135.624 83.5154C135.624 84.1597 135.408 84.5879 135.064 84.8039L135.968 84.2874C136.309 84.0733 136.567 83.5999 136.567 82.9576C136.567 81.7123 135.665 80.2097 134.593 79.5674L123.389 73.0855C122.831 72.785 122.316 72.7418 121.93 72.9559L121.028 73.4705Z" fill="#CAD0DD"/>
<path d="M122.468 73.6235C121.372 72.991 120.464 73.4761 120.46 74.7352C120.456 76.0276 121.358 77.5558 122.456 78.1902L133.666 84.6623C134.762 85.2948 135.642 84.7919 135.644 83.5034C135.647 82.2424 134.773 80.728 133.679 80.0955L122.468 73.6235Z" fill="#E4E8F4"/>
<path d="M303.296 122.252C301.961 123.024 301.919 124.279 303.247 125.053C304.577 125.825 306.743 125.805 308.079 125.033L318.313 119.125C319.65 118.353 319.658 117.117 318.328 116.344C317 115.572 314.867 115.572 313.53 116.344L303.296 122.252Z" fill="#474B59"/>
<path d="M266.517 28.855L266.379 62.7846L201.407 101.106L201.545 67.1785L266.517 28.855Z" fill="#EFAC41"/>
<path d="M222.261 68.5752L222.216 82.8392L209.301 90.3425L209.347 76.0824L222.261 68.5752Z" fill="#E4E8F4"/>
<path d="M201.545 67.181L201.407 101.109L161.88 78.2866L162.017 44.3589L201.545 67.181Z" fill="#F9BB4A"/>
<path d="M266.524 28.8831L201.544 67.2047L184.277 57.2089L179.278 54.3804L179.178 54.3313L162.011 44.3865L226.993 6.06494L244.258 16.0097L244.309 16.0608L249.259 18.8873L266.524 28.8831Z" fill="#FED57A"/>
<path d="M249.257 18.8863L184.277 57.2079L179.278 54.3795L179.178 54.3304L244.26 16.0088L244.309 16.0599L249.257 18.8863Z" fill="#5B5E71"/>
<path d="M184.277 57.2087L184.23 70.2647L179.178 67.3773L179.225 54.3232L184.277 57.2087Z" fill="#474B59"/>
<path d="M250.29 56.7724L251.649 59.3612L250.807 59.8483L248.949 60.9129L250.29 56.7724ZM250.807 59.8483L250.822 64.969L249.805 65.5563L249.791 60.4356L250.807 59.8483ZM255.857 62.5177L255.861 63.6157L248.841 67.6678L248.839 66.5718L255.857 62.5177ZM263.317 49.2515L263.329 52.899C263.331 54.052 262.665 55.3896 261.781 56.0692L261.791 59.3573C262.411 59.0725 262.879 59.098 262.879 59.4417L260.143 61.0229C260.143 60.6792 260.608 60.1135 261.227 59.6833L261.217 56.3953C260.814 56.5563 260.465 56.5171 260.192 56.3462C259.872 56.1065 259.661 55.6587 259.657 55.0184L259.648 51.3708L263.317 49.2515ZM254.875 57.5011L254.888 62.6218L253.871 63.2091L253.857 58.0865L254.875 57.5011ZM254.362 54.4212L255.717 57.014L254.875 57.5011L253.022 58.5618L254.362 54.4212Z" fill="#3F434F"/>
<path d="M176.497 73.8976L175.285 76.2016L176.035 76.6337L177.689 77.5844L176.497 73.8976ZM176.035 76.6337L176.022 81.1927L176.927 81.7151L176.941 77.1582L176.035 76.6337ZM171.541 79.0124L171.539 79.9866L177.785 83.5929L177.787 82.6187L171.541 79.0124ZM164.902 67.2056L164.892 70.4524C164.89 71.4777 165.482 72.668 166.269 73.271L166.262 76.1977C165.71 75.9423 165.293 75.9679 165.293 76.2743L167.729 77.6807C167.729 77.3742 167.314 76.8714 166.762 76.4884L166.772 73.5617C167.132 73.7051 167.44 73.6698 167.684 73.5185C167.97 73.3044 168.157 72.9077 168.159 72.338L168.169 69.0912L164.902 67.2056ZM172.417 74.5458L172.404 79.1027L173.307 79.6252L173.321 75.0683L172.417 74.5458ZM172.871 71.8057L171.667 74.1137L172.417 74.5458L174.065 75.4906L172.871 71.8057Z" fill="#4C7891"/>
<path d="M263.721 53.5566L263.796 78.8477L273.757 84.6244L276.721 86.3647L286.681 92.1414L286.606 66.8504L276.758 61.111L273.794 59.406L263.721 53.5566Z" fill="#F9BB4A"/>
<path d="M286.577 66.8661L286.669 92.1258L309.696 78.8222L309.619 53.5842V53.5449H309.58L299.592 59.3354L297.323 60.6593L296.641 61.0384L286.577 66.8661Z" fill="#EFAC41"/>
<path d="M263.708 53.5799L286.591 66.8736L296.647 61.0497L299.56 59.4018L299.619 59.3743L309.619 53.5799L286.736 40.2842L263.708 53.5799Z" fill="#FED57A"/>
<path d="M299.631 47.7546L276.748 61.0503L273.835 59.4023L273.776 59.3748L296.718 46.0791L296.748 46.1086L299.631 47.7546Z" fill="#E4E8F4"/>
<path d="M273.756 66.0018L276.72 67.744L276.758 61.1109V61.0362L276.09 60.667L273.794 59.3706V59.406L273.756 66.0018Z" fill="#CAD0DD"/>
<path d="M289.832 81.3953L290.58 82.8233L290.116 83.0904L289.091 83.6777L289.832 81.3953ZM290.116 83.0904L290.124 85.913L289.565 86.2371L289.557 83.4145L290.116 83.0904ZM292.9 84.5636L292.902 85.1666L289.032 87.3999V86.7969L292.9 84.5636ZM299.971 75.7109L299.977 77.7223C299.977 78.3567 299.611 79.0953 299.124 79.4685L299.128 81.2814C299.47 81.1243 299.727 81.138 299.729 81.3286L298.221 82.1987C298.221 82.0082 298.476 81.6978 298.818 81.4602L298.812 79.6472C298.59 79.7375 298.4 79.7159 298.248 79.6217C298.071 79.4881 297.954 79.2426 297.954 78.889L297.948 76.8777L299.971 75.7109ZM292.358 81.796L292.365 84.6186L291.806 84.9427L291.798 82.1201L292.358 81.796Z" fill="#3F434F"/>
<path d="M292.077 80.0992L292.823 81.5291L292.358 81.7963L291.336 82.3816L292.077 80.0992ZM295.858 84.1317C295.754 84.0747 295.691 83.9549 295.691 83.8056L295.675 77.7677C295.682 77.6225 295.724 77.4811 295.796 77.3551C295.868 77.2291 295.97 77.1221 296.092 77.0429L301.338 74.0141C301.466 73.9434 301.593 73.9336 301.697 73.9905C301.8 74.0495 301.859 74.1712 301.859 74.3244L301.878 80.3624C301.878 80.6276 301.696 80.9517 301.472 81.0813L296.223 84.1101C296.158 84.1495 296.083 84.1712 296.007 84.1729C295.955 84.1737 295.903 84.1582 295.858 84.1317ZM301.45 74.2066L296.204 77.2354C296.116 77.2952 296.043 77.3738 295.989 77.4656C295.936 77.5574 295.904 77.6599 295.895 77.7657L295.913 83.8056C295.913 83.8724 295.933 83.9235 295.966 83.9431C296.001 83.9569 296.052 83.953 296.111 83.9176L301.358 80.8888C301.444 80.8294 301.516 80.7512 301.568 80.66C301.619 80.5688 301.65 80.467 301.656 80.3624L301.639 74.3244C301.639 74.2557 301.619 74.2027 301.586 74.183C301.574 74.1769 301.561 74.1735 301.548 74.1732C301.513 74.1755 301.479 74.187 301.45 74.2066Z" fill="#3F434F"/>
<path d="M288.044 88.6418C287.94 88.5828 287.883 88.463 287.883 88.3157L287.865 82.2758C287.872 82.1308 287.913 81.9896 287.986 81.8638C288.058 81.7381 288.16 81.6315 288.282 81.5529L293.528 78.5222C293.656 78.4495 293.784 78.4397 293.888 78.5025C293.992 78.5615 294.051 78.6813 294.051 78.8325L294.068 84.8724C294.063 85.0162 294.023 85.1565 293.952 85.2816C293.881 85.4067 293.78 85.5129 293.66 85.5913L288.411 88.6201C288.347 88.6589 288.274 88.6799 288.199 88.681C288.144 88.6823 288.092 88.6687 288.044 88.6418ZM293.642 78.7147L288.394 81.7454C288.306 81.8052 288.233 81.8839 288.18 81.9757C288.127 82.0675 288.095 82.1701 288.087 82.2758L288.103 88.3157C288.103 88.3805 288.123 88.4296 288.156 88.4493C288.19 88.465 288.245 88.461 288.301 88.4296L293.546 85.3989C293.633 85.3398 293.705 85.2617 293.758 85.1705C293.81 85.0793 293.841 84.9774 293.848 84.8724L293.829 78.8325C293.829 78.7638 293.809 78.7127 293.778 78.6931C293.765 78.6869 293.752 78.6836 293.738 78.6832C293.704 78.6854 293.672 78.6962 293.642 78.7147Z" fill="#3F434F"/>
<path d="M210.627 67.8408L210.743 106.85L226.105 115.76L230.674 118.443L246.038 127.352L245.924 88.3432L230.733 79.4925L226.162 76.8644L210.627 67.8408Z" fill="#F9BB4A"/>
<path d="M245.877 88.3688L246.02 127.327L281.533 106.809L281.415 67.8841V67.8252H281.356L265.951 76.7545L262.451 78.7972L261.4 79.3806L245.877 88.3688Z" fill="#EFAC41"/>
<path d="M210.606 67.8779L245.898 88.3802L261.412 79.3999L265.902 76.8582L265.994 76.813L281.417 67.8759L246.124 47.3735L210.606 67.8779Z" fill="#FED57A"/>
<path d="M266.01 58.8955L230.717 79.3978L226.227 76.8561L226.136 76.811L261.52 56.3066L261.565 56.3538L266.01 58.8955Z" fill="#E4E8F4"/>
<path d="M226.105 87.0396L230.674 89.7247L230.733 79.4932V79.3793L229.703 78.8096L226.162 76.8081V76.867L226.105 87.0396Z" fill="#CAD0DD"/>
<path d="M250.895 110.778L252.054 112.978L251.335 113.391L249.756 114.298L250.895 110.778ZM251.335 113.391L251.349 117.745L250.485 118.244L250.471 113.892L251.335 113.391ZM255.629 115.663L255.633 116.594L249.666 120.04L249.662 119.107L255.629 115.663ZM266.534 102.01L266.542 105.114C266.546 106.092 265.98 107.229 265.228 107.805L265.236 110.602C265.762 110.358 266.159 110.382 266.161 110.674L263.835 112.018C263.835 111.723 264.228 111.244 264.757 110.879L264.749 108.084C264.405 108.221 264.108 108.186 263.877 108.04C263.602 107.838 263.425 107.457 263.423 106.913L263.415 103.811L266.534 102.01ZM254.792 111.395L254.806 115.75L253.942 116.249L253.928 111.896L254.792 111.395ZM254.358 108.779L255.509 110.983L254.792 111.395L253.219 112.299L254.358 108.779Z" fill="#3F434F"/>
<path d="M260.192 115C260.031 114.912 259.936 114.727 259.936 114.495L259.911 105.181C259.922 104.958 259.985 104.74 260.097 104.546C260.208 104.352 260.364 104.187 260.551 104.065L268.644 99.3943C268.84 99.2843 269.036 99.2686 269.196 99.359C269.355 99.4513 269.447 99.6379 269.447 99.8716L269.474 109.186C269.463 109.407 269.401 109.622 269.292 109.814C269.183 110.007 269.03 110.171 268.846 110.294L260.753 114.965C260.654 115.025 260.54 115.059 260.423 115.063C260.342 115.064 260.262 115.042 260.192 115ZM268.816 99.6909L260.724 104.362C260.589 104.454 260.476 104.576 260.394 104.718C260.312 104.859 260.263 105.018 260.251 105.181L260.276 114.495C260.278 114.599 260.309 114.674 260.359 114.705C260.412 114.727 260.49 114.721 260.583 114.668L268.675 109.997C268.808 109.905 268.919 109.785 268.998 109.644C269.078 109.504 269.124 109.347 269.135 109.186L269.107 99.8716C269.107 99.7656 269.076 99.685 269.027 99.6556C269.009 99.6457 268.988 99.6403 268.968 99.6398C268.914 99.6433 268.862 99.6609 268.816 99.6909ZM248.139 121.953C247.98 121.861 247.89 121.678 247.89 121.45L247.866 112.136C247.876 111.913 247.939 111.695 248.051 111.5C248.162 111.306 248.318 111.142 248.507 111.02L256.599 106.346C256.796 106.234 256.99 106.22 257.151 106.314C257.314 106.407 257.402 106.593 257.402 106.825L257.43 116.141C257.43 116.558 257.155 117.045 256.801 117.249L248.709 121.92C248.609 121.98 248.495 122.013 248.379 122.014C248.295 122.015 248.212 121.994 248.139 121.953ZM256.772 106.642L248.679 111.317C248.544 111.409 248.431 111.531 248.349 111.673C248.267 111.814 248.218 111.973 248.206 112.136L248.232 121.45C248.232 121.551 248.261 121.627 248.31 121.657C248.365 121.682 248.448 121.674 248.538 121.623L256.627 116.952C256.76 116.861 256.871 116.74 256.952 116.6C257.032 116.459 257.079 116.303 257.09 116.141L257.063 106.825C257.063 106.719 257.031 106.64 256.982 106.609C256.963 106.6 256.942 106.595 256.921 106.595C256.868 106.598 256.817 106.614 256.772 106.642Z" fill="#3F434F"/>
<path d="M204.878 12.0952L225.435 24.0435L246.128 12.0952L225.571 0.148926L204.878 12.0952Z" fill="#FED57A"/>
<path d="M204.878 12.0942L204.943 34.9242L225.5 46.8704L225.435 24.0425L204.878 12.0942Z" fill="#EFAC41"/>
<path d="M225.435 24.0425L225.5 46.8704L246.193 34.9242L246.128 12.0942L225.435 24.0425Z" fill="#F9BB4A"/>
<path d="M240.275 28.4449L240.247 26.1016L231.355 31.236L231.383 33.5793L240.275 28.4449Z" fill="#4C7891"/>
<path d="M237.539 17.0483V24.0409L235.806 23.3141L234.032 25.9324V19.0774L237.539 17.0483Z" fill="#F34858"/>
<path d="M216.973 5.11182L237.539 17.0483L234.033 19.0773L213.467 7.14084L216.973 5.11182Z" fill="#F9607F"/>
<path d="M179.349 26.3403L199.907 38.2866L220.599 26.3403L200.042 14.394L179.349 26.3403Z" fill="#FED57A"/>
<path d="M179.349 26.3408L179.414 49.1707L199.971 61.117L199.907 38.2871L179.349 26.3408Z" fill="#EFAC41"/>
<path d="M199.906 38.2871L199.971 61.117L220.664 49.1707L220.599 26.3408L199.906 38.2871Z" fill="#F9BB4A"/>
<path d="M214.746 42.6909L214.719 40.3477L205.827 45.4821L205.854 47.8254L214.746 42.6909Z" fill="#4C7891"/>
<path d="M212.01 31.2944V38.287L210.277 37.5602L208.504 40.1785V33.3235L212.01 31.2944Z" fill="#F34858"/>
<path d="M191.445 19.3579L212.01 31.2944L208.504 33.3234L187.938 21.3869L191.445 19.3579Z" fill="#F9607F"/>
<path d="M55.5638 120.234L55.8198 126.221C55.8643 130.577 58.7131 134.937 64.4078 138.258C75.9282 144.946 94.6539 144.946 106.263 138.258C112.086 134.892 114.979 130.494 114.979 126.045L114.676 120.147C114.676 124.504 111.741 128.905 105.96 132.23C94.3952 138.918 75.6694 138.918 64.1463 132.23C58.4098 128.908 55.5638 124.593 55.5638 120.234Z" fill="#4F4D4D"/>
<path d="M64.2937 108.017C52.6954 114.713 52.637 125.561 64.1295 132.24C75.6526 138.936 94.3811 138.936 105.979 132.24C117.553 125.561 117.608 114.713 106.088 108.017C94.5926 101.335 75.864 101.335 64.2937 108.017Z" fill="#686868"/>
<path d="M82.9776 100.253L67.7489 91.4038L67.8268 119.6L83.0555 128.449L82.9776 100.253Z" fill="#787677"/>
<path d="M79.1691 67.0026L63.9404 58.1558L50.4309 81.5525L65.6597 90.4049L79.1691 67.0026Z" fill="#E8E8E8"/>
<path d="M79.1691 67.0024L65.6597 90.4047L82.9777 100.253L83.0556 128.449L102.215 117.387L102.11 80.0779L79.1691 67.0024Z" fill="#B0AFB0"/>
<path d="M0.546567 80.4083C1.79847 89.2941 5.23426 95.8012 10.0889 99.4902C13.0434 101.006 16.1119 102.233 19.3252 103.087C25.9213 104.963 32.8354 105.446 39.6283 104.506C67.109 100.756 86.3438 75.4313 82.5881 47.9534C81.5563 40.3663 78.7937 33.118 74.5139 26.7688C70.2342 20.4196 64.5519 15.1395 57.9061 11.3365C54.5686 9.36153 50.9989 7.80843 47.2788 6.71282C41.3782 6.26492 34.5956 8.56286 27.6851 13.9377C9.57698 27.9785 -2.62215 57.7906 0.546567 80.4083Z" fill="#BFBFBF"/>
<path d="M0.546567 80.4083C1.79847 89.2941 5.23426 95.8012 10.0889 99.4902C12.7333 101.595 15.9536 102.849 19.3252 103.087C25.2814 103.646 32.1391 101.337 39.122 95.9153C57.2746 81.8717 69.4682 52.0569 66.3022 29.4391C65.1477 21.2878 62.1904 15.1423 57.9061 11.3365C54.9794 8.56286 51.3211 7.02441 47.2788 6.71282C41.3782 6.26492 34.5956 8.56286 27.6851 13.9377C9.57698 27.9785 -2.62215 57.7906 0.546567 80.4083Z" fill="#E8E8E8"/>
<path d="M22.8668 61.0928C27.4293 49.7143 34.5513 39.3374 43.0921 32.7162C47.5433 29.2665 52.0502 27.1522 56.1675 26.5958C57.7519 26.3701 59.3624 26.4039 60.9359 26.696C58.4933 16.0297 52.2199 10.4156 43.6874 11.5785C39.57 12.1349 35.0632 14.2492 30.612 17.6989C22.0712 24.3201 14.9492 34.697 10.3867 46.0755C5.87987 57.2035 3.82118 69.3053 5.26783 79.7378C6.75342 90.3373 11.5274 96.8945 18.3906 98.1798C18.1402 97.0837 17.9176 95.9542 17.7507 94.7579C16.3041 84.3254 18.3628 72.2236 22.8696 61.0956L22.8668 61.0928Z" fill="#BFBFBF"/>
<path d="M23.1563 98.264C25.6322 97.9301 28.2752 96.9564 30.9459 95.5376C32.6986 94.5917 34.4512 93.5067 36.2039 92.1435C53.1464 79.0403 64.5248 51.1923 61.5759 30.1047C61.4089 28.9112 61.1864 27.7845 60.936 26.6967C59.3634 26.4047 57.7538 26.3708 56.1704 26.5965C52.053 27.1529 47.5462 29.2673 43.0949 32.717C34.5542 39.3382 27.4322 49.7151 22.8697 61.0935C18.3628 72.2216 16.3042 84.3233 17.7508 94.7559C17.9177 95.9549 18.1403 97.0844 18.3907 98.1777C19.8846 98.4559 21.4759 98.4977 23.1563 98.264ZM12.963 50.8863C13.1688 52.5472 14.4152 53.0841 15.745 52.0826C17.0748 51.0838 17.9845 48.9278 17.7758 47.2697C17.5728 45.6116 16.3292 45.0775 14.9938 46.079C13.6696 47.0749 12.7571 49.231 12.963 50.8863Z" fill="#929393"/>
<path d="M44.3939 57.7158C47.8686 57.7436 44.5552 66.6322 41.7482 64.4594C44.2381 64.4789 46.2578 59.1625 44.3939 57.7158Z" fill="#BFBFBF"/>
<path d="M13.6248 52.5302L41.3531 64.3594C44.0127 65.4527 46.7613 58.6228 44.2102 57.5434L16.4874 45.7227C16.9882 45.9369 17.3527 46.4877 17.4556 47.314C17.6615 48.9693 16.7517 51.1253 15.4219 52.1269C14.7598 52.6248 14.1255 52.7417 13.6248 52.5302Z" fill="#787677"/>
<path d="M12.8348 55.7129C16.9956 55.7129 20.3685 52.3399 20.3685 48.1792C20.3685 44.0185 16.9956 40.6455 12.8348 40.6455C8.6741 40.6455 5.30115 44.0185 5.30115 48.1792C5.30115 52.3399 8.6741 55.7129 12.8348 55.7129Z" fill="#EF5A5A"/>
<path d="M9.61327 53.8631C9.28669 53.2945 9.03337 52.687 8.85934 52.0548C8.29421 50.0984 8.39371 48.0099 9.14226 46.1161C9.89082 44.2223 11.2462 42.6301 12.9962 41.5889C12.5706 41.6238 12.1495 41.7002 11.7387 41.817C10.878 42.063 10.0742 42.4763 9.37333 43.0332C8.67246 43.5902 8.08827 44.2798 7.65418 45.0627C7.22009 45.8457 6.94461 46.7065 6.8435 47.596C6.7424 48.4854 6.81764 49.3861 7.06494 50.2465C7.50172 51.7599 8.41144 53.0035 9.61327 53.8631Z" fill="#DD454D"/>
<path d="M92.0777 85.2331C89.4209 86.7688 87.2732 90.5022 87.2815 93.5569C87.2899 96.5948 89.4515 97.8412 92.1111 96.3083C94.7707 94.7754 96.9156 91.0391 96.9073 87.9984C96.8989 84.9437 94.7373 83.6974 92.0777 85.2331Z" fill="#686868"/>
<path d="M74.4395 186.334C72.1486 187.655 72.1354 189.803 74.4108 191.127L165.093 243.823C167.37 245.144 171.06 245.136 173.351 243.812L246.212 201.751C248.503 200.429 248.532 198.29 246.256 196.966L155.572 144.266C153.295 142.944 149.59 142.944 147.299 144.266L74.4395 186.334Z" fill="#4C7891"/>
<path d="M81.9352 188.957L168.634 239.345L238.274 199.116L151.574 148.729L81.9352 188.957Z" fill="white"/>
<path d="M166.493 232.776L227.176 197.74L160.98 159.271L100.295 194.308L166.493 232.776ZM178.73 223.664L166.504 230.721L155.678 224.43L154.782 224.948L153.013 223.921L153.911 223.404L142.592 216.826L141.695 217.344L139.929 216.318L140.825 215.798L129.521 209.229L128.624 209.749L126.858 208.72L127.754 208.203L116.434 201.625L115.538 202.143L113.771 201.117L114.668 200.599L103.844 194.308L116.069 187.248L115.177 186.731L116.956 185.704L117.848 186.222L131.516 178.329L130.624 177.812L132.404 176.785L133.296 177.303L160.969 161.324L171.795 167.615L172.692 167.098L174.458 168.124L173.562 168.644L184.882 175.221L185.778 174.704L187.545 175.73L186.648 176.248L197.951 182.816L198.849 182.299L200.616 183.325L199.719 183.843L211.037 190.422L211.936 189.905L213.702 190.931L212.806 191.449L223.63 197.74L195.957 213.718L196.847 214.236L195.069 215.263L194.177 214.745L180.512 222.633L181.404 223.153L179.624 224.179L178.73 223.664Z" fill="#D4DAE8"/>
<path d="M72.7144 188.74L72.7386 193.799C72.7386 194.678 73.3157 195.531 74.4457 196.185L165.125 248.89C167.41 250.22 171.099 250.196 173.383 248.865L246.241 206.8C247.395 206.148 247.972 205.269 247.972 204.39L247.946 199.333C247.946 200.209 247.368 201.088 246.214 201.742L173.355 243.806C171.046 245.136 167.357 245.136 165.097 243.83L74.4215 191.125C73.2915 190.473 72.7144 189.619 72.7144 188.74Z" fill="#4C7891"/>
<path d="M133.296 177.301L144.12 183.594L171.795 167.615L160.969 161.324L133.296 177.301ZM145.887 184.62L157.209 191.198L184.882 175.221L173.56 168.644L145.887 184.62ZM117.848 186.222L128.673 192.513L142.343 184.62L131.516 178.329L117.848 186.222ZM158.973 192.226L170.278 198.795L197.951 182.816L186.648 176.248L158.973 192.226ZM144.109 185.649L155.429 192.226L141.759 200.116L130.441 193.539L144.109 185.649ZM145.125 195.297L145.147 188.775L142.638 188.766L142.609 193.834L139.431 193.845L139.44 195.297H145.125ZM116.069 187.248L126.895 193.539L114.67 200.599L103.844 194.308L116.069 187.248ZM117.37 197.046L117.408 190.515H114.917L114.873 195.592H111.709L111.701 197.037L117.37 197.046Z" fill="white"/>
<path d="M114.668 200.599L113.771 201.116L115.538 202.143L116.434 201.625L128.662 194.566L126.895 193.539L114.668 200.599Z" fill="#D4DAE8"/>
<path d="M172.044 199.821L183.364 206.398L211.037 190.422L199.717 183.842L172.044 199.821ZM116.434 201.625L127.756 208.202L139.981 201.143L128.662 194.565L116.434 201.625Z" fill="white"/>
<path d="M127.756 208.205L126.858 208.72L128.624 209.749L129.521 209.229L141.748 202.172L139.982 201.143L127.756 208.205Z" fill="#D4DAE8"/>
<path d="M168.78 203.957L168.767 209.036H165.573L165.579 210.49H171.267L171.286 203.968L168.78 203.957Z" fill="#D9DADF"/>
<path d="M185.131 207.425L195.957 213.718L223.63 197.739L212.806 191.448L185.131 207.425ZM170.267 200.847L181.584 207.425L167.916 215.317L156.597 208.74L170.267 200.847Z" fill="white"/>
<path d="M140.882 205.604L140.838 210.683H137.675L137.666 212.126L143.336 212.135L143.374 205.604H140.882Z" fill="#D9DADF"/>
<path d="M141.748 202.169L153.052 208.74L140.825 215.798L129.521 209.229L141.748 202.169Z" fill="white"/>
<path d="M140.825 215.798L139.928 216.318L141.695 217.344L142.592 216.826L154.817 209.767L153.052 208.74L140.825 215.798Z" fill="#D4DAE8"/>
<path d="M169.683 216.344L180.509 222.635L194.177 214.745L183.353 208.454L169.683 216.344ZM142.591 216.827L153.911 223.404L166.136 216.344L154.819 209.767L142.591 216.827Z" fill="white"/>
<path d="M157.196 193.252L155.429 192.226L141.759 200.116L143.528 201.145L157.196 193.252ZM172.692 167.097L171.795 167.615L144.12 183.593L145.887 184.62L173.562 168.643L174.458 168.124L172.692 167.097ZM185.778 174.701L184.882 175.221L157.207 191.197L158.973 192.226L186.648 176.247L187.545 175.73L185.778 174.701ZM211.936 189.904L211.037 190.422L183.364 206.398L185.131 207.425L212.806 191.448L213.702 190.931L211.936 189.904Z" fill="#D4DAE8"/>
<path d="M143.528 201.145L154.83 207.714L168.498 199.821L157.196 193.253L143.528 201.145Z" fill="white"/>
<path d="M170.267 200.847L168.498 199.821L154.83 207.713L156.597 208.74L170.267 200.847Z" fill="#D4DAE8"/>
<path d="M115.179 186.729L116.069 187.248L126.895 193.539L128.662 194.566L139.982 201.143L141.748 202.172L153.052 208.74L154.819 209.767L166.137 216.344L167.905 217.373L178.73 223.664L179.622 224.182L181.402 223.155L180.509 222.635L169.683 216.344L167.916 215.318L156.597 208.74L154.83 207.714L143.528 201.143L141.759 200.117L130.442 193.539L128.673 192.513L117.849 186.222L116.956 185.702L115.179 186.729Z" fill="#D4DAE8"/>
<path d="M153.912 223.403L153.013 223.921L154.782 224.948L155.678 224.43L167.903 217.372L166.137 216.344L153.912 223.403Z" fill="#D4DAE8"/>
<path d="M167.906 217.373L178.73 223.664L166.505 230.721L155.678 224.43L167.906 217.373ZM169.302 227.225L169.355 220.703L166.848 220.692L166.804 225.772H163.639L163.648 227.225H169.302Z" fill="white"/>
<path d="M198.849 182.298L197.951 182.816L170.278 198.795L172.044 199.821L199.717 183.842L200.616 183.325L198.849 182.298ZM144.109 185.649L142.343 184.62L128.673 192.512L130.441 193.539L144.109 185.649ZM183.353 208.454L181.584 207.425L167.916 215.317L169.683 216.344L183.353 208.454Z" fill="#D4DAE8"/>
<path d="M130.624 177.812L131.516 178.329L142.343 184.62L144.109 185.647L155.429 192.226L157.196 193.253L168.498 199.821L170.267 200.848L181.584 207.425L183.353 208.454L194.177 214.745L195.069 215.262L196.847 214.236L195.957 213.718L185.131 207.425L183.364 206.399L172.044 199.821L170.278 198.795L158.973 192.226L157.207 191.198L145.887 184.62L144.12 183.594L133.296 177.303L132.404 176.785L130.624 177.812Z" fill="#D4DAE8"/>
<path d="M99.3168 161.402L99.3234 163.794C99.319 162.223 100.365 160.644 102.453 159.437C106.579 157.058 113.196 157.036 117.256 159.393L117.251 157.001C113.19 154.642 106.573 154.661 102.449 157.045C100.356 158.25 99.3124 159.829 99.3168 161.402ZM93.4553 161.386L93.4619 163.781C93.4685 166.188 95.0435 168.589 98.1868 170.415L98.1802 168.021C95.0369 166.195 93.4619 163.794 93.4553 161.386Z" fill="#75CA75"/>
<path d="M99.7023 176.336L99.7089 178.731L135.785 157.902L135.779 155.507L99.7023 176.336Z" fill="#6EBA6E"/>
<path d="M91.7659 171.723L91.7725 174.118L99.7089 178.73L99.7023 176.336L91.7659 171.723Z" fill="#75CA75"/>
<path d="M127.822 150.923L121.419 154.624C115.075 150.923 104.678 150.923 98.275 154.624C91.8738 158.324 91.8738 164.316 98.1582 168.016L91.7549 171.717L99.6847 176.358L135.75 155.505L127.822 150.923ZM102.328 165.609C98.275 163.259 98.3344 159.441 102.447 157.032C106.617 154.683 113.196 154.624 117.249 156.974L102.328 165.609Z" fill="#9AD898"/>
<path d="M116.949 197.764H113.315V196.59H115.782L115.819 189.545L116.996 189.552L116.949 197.764Z" fill="#F9607F"/>
<path d="M156.905 203.196H153.275V202.02H155.735L155.775 194.978L156.951 194.984L156.905 203.196Z" fill="#576CFB"/>
<path d="M167.656 227.805H164.026V226.631H166.487L166.526 219.586L167.703 219.591L167.656 227.805Z" fill="#6EBA6E"/>
</svg>
