<svg width="595" height="357" viewBox="0 0 595 357" fill="none" xmlns="http://www.w3.org/2000/svg">
<path d="M171.712 81.8418L171.535 133.26L52.0836 196.787L52.2607 145.368L171.712 81.8418Z" fill="#CD8852"/>
<path d="M97.2088 128.135V136.266L97.1645 137.092V145.037L57.9491 165.915V162.919L58.0023 160.789V153.953L58.0553 151.783V149.013L97.2088 128.135Z" fill="#BF9F85" fill-opacity="0.7"/>
<path d="M169.385 110.856V118.988L169.341 119.814V127.758L130.126 148.637V145.64L130.179 143.51V136.675L130.232 134.505V131.735L169.385 110.856Z" fill="#BF9F85" fill-opacity="0.7"/>
<path d="M52.2508 145.368L52.0738 196.795L0.877991 169.737L1.05493 118.311L52.2508 145.368Z" fill="#B38251"/>
<path d="M171.719 81.8737L52.2502 145.4L29.8907 133.543L23.4138 130.199L23.281 130.134L1.04544 118.342L120.514 54.8159L142.874 66.6076L142.944 66.6643L149.351 70.0172L171.719 81.8737Z" fill="#EEBB87"/>
<path d="M149.352 70.0265L29.892 133.545L23.4151 130.2L23.2823 130.135L142.875 66.6089L142.946 66.6656L149.352 70.0265Z" fill="#FFE0B2"/>
<path d="M29.892 133.543L29.83 153.004L23.2823 149.579L23.3443 130.125L29.892 133.543Z" fill="#BF9F85"/>
<path d="M171.712 27.0293L171.535 78.456L52.0836 141.982L52.2607 90.5555L171.712 27.0293Z" fill="#CD8852"/>
<path d="M97.2088 73.3286V81.4516L97.1645 82.2858V90.2306L57.9491 111.109V108.113L58.0023 105.983V99.1473L58.0553 96.9768V94.2071L97.2088 73.3286Z" fill="#BF9F85" fill-opacity="0.7"/>
<path d="M166.869 60.1855V68.3085L166.825 69.1427V77.0876L127.61 97.966V94.9695L127.663 92.8395V86.0042L127.716 83.8337V81.064L166.869 60.1855Z" fill="#BF9F85" fill-opacity="0.7"/>
<path d="M52.2508 90.5631L52.0738 141.99L0.877991 114.924L1.05493 63.5054L52.2508 90.5631Z" fill="#B38251"/>
<path d="M171.719 27.0619L52.2502 90.5962L29.8907 78.7397L23.4138 75.3868L23.281 75.3302L1.04544 63.5384L120.514 0.012207L142.874 11.8039L142.944 11.8606L149.351 15.2135L171.719 27.0619Z" fill="#EEBB87"/>
<path d="M149.352 15.2123L29.892 78.7385L23.4151 75.3857L23.2823 75.329L142.875 11.8027L142.946 11.8594L149.352 15.2123Z" fill="#FFE0B2"/>
<path d="M29.892 78.7404L29.83 98.1935L23.2823 94.7759L23.3443 75.3228L29.892 78.7404Z" fill="#BF9F85"/>
<path d="M63.5775 119.306L65.3471 122.376L64.2499 122.951L61.8433 124.214L63.5775 119.306Z" fill="#3F434F"/>
<path d="M64.249 122.95L64.2668 129.024L62.9572 129.72L62.9307 123.646L64.249 122.95ZM70.7968 126.116V127.412L61.7008 132.223V130.927L70.7968 126.116ZM80.459 110.389L80.4678 114.713C80.4427 115.433 80.2516 116.14 79.907 116.788C79.5624 117.436 79.072 118.009 78.4682 118.471L78.477 122.367C79.2734 122.027 79.8928 122.059 79.8928 122.472L76.3446 124.335C76.3446 123.93 76.9463 123.266 77.7514 122.755L77.7338 118.852C77.2117 119.046 76.7604 118.998 76.4065 118.795C75.9906 118.512 75.7164 117.985 75.7164 117.224L75.6987 112.899L80.459 110.389ZM69.5226 120.164L69.5403 126.238L68.2131 126.934L68.2043 120.86L69.5226 120.164ZM68.859 116.511L70.6109 119.589L69.5226 120.164L67.1159 121.427L68.859 116.511Z" fill="#3F434F"/>
<path d="M130.126 10.038L119.131 4.90674L109.995 9.10508L120.99 14.1198L130.126 10.038Z" fill="#FFE0B2"/>
<path d="M548.743 141.336L548.641 156.358C548.641 158.385 547.232 160.412 544.313 161.979L272.286 306.652C266.448 309.785 256.882 309.691 250.941 306.559L86.2381 219.571C83.2169 218.001 81.7064 215.884 81.7064 213.86L81.8085 198.838C81.8085 200.866 83.3191 202.983 86.3366 204.549L251.044 291.537C256.882 294.669 266.448 294.763 272.286 291.63L544.313 146.957C547.232 145.391 548.641 143.364 548.743 141.336Z" fill="#474B59"/>
<path d="M544.24 135.579C550.155 138.705 550.188 143.801 544.313 146.924L272.33 291.597C266.456 294.72 256.907 294.686 250.996 291.564L86.3149 204.532C80.3346 201.373 80.3054 196.347 86.1799 193.221L358.163 48.5579C364.037 45.4353 373.582 45.3986 379.563 48.5579L544.24 135.579Z" fill="#5B5E71"/>
<path d="M193.664 234.692C198.484 237.24 198.641 241.385 193.846 243.933C188.994 246.511 181.112 246.478 176.296 243.933C171.407 241.352 171.447 237.24 176.303 234.659C181.091 232.111 188.782 232.111 193.664 234.692ZM257.721 274.093C259.648 275.112 259.724 276.779 257.809 277.797C255.893 278.816 252.689 278.816 250.759 277.797L211.937 257.282C209.945 256.226 209.996 254.563 211.911 253.541C213.827 252.519 216.903 252.526 218.895 253.578L257.721 274.093ZM158.023 221.411C159.954 222.429 160.03 224.096 158.111 225.114C156.192 226.133 152.992 226.133 151.065 225.114L112.243 204.599C110.247 203.543 110.302 201.88 112.217 200.858C114.133 199.843 117.209 199.843 119.201 200.892L158.023 221.411ZM482.183 111.763C483.533 112.475 483.54 113.63 482.198 114.345C480.921 115.023 478.742 115.023 477.392 114.312L419.863 83.9075C418.513 83.1961 418.506 82.0406 419.783 81.3627C421.125 80.648 423.304 80.648 424.654 81.3627L482.183 111.763Z" fill="#474B59"/>
<path d="M519.732 144.843L279.693 272.461L122.167 189.284L362.202 61.5757L519.732 144.843Z" fill="white"/>
<path d="M190.249 208.192C191.694 207.875 193.171 207.541 194.722 207.724L195.463 207.598C197.856 206.996 200.217 206.719 202.476 207.203L203.607 207.317C204.745 207.19 205.588 207.284 206.208 207.611C206.408 207.717 206.589 207.851 206.745 208.008C208.153 207.671 209.386 207.39 210.547 206.923C209.627 207.068 208.691 207.1 207.763 207.016L208.602 206.642C210.043 206.412 212.178 206.586 212.871 206.96C211.886 206.886 211.076 207.016 210.758 207.41C211.426 207.731 212.291 207.928 212.798 208.199C212.945 208.267 213.07 208.368 213.163 208.493C213.32 208.83 213.644 209.087 214.053 209.304C214.484 209.531 215.009 209.711 215.534 209.895C216.045 210.092 216.556 210.273 216.987 210.496C217.204 210.608 217.405 210.745 217.585 210.904L218.57 211.091C219.774 211.241 221.044 211.391 222.347 211.445C223.262 211.445 224.317 211.298 225.2 211.278C226.116 211.241 227.068 211.221 227.845 211.258C228.761 211.298 229.432 211.425 230.279 211.465L231.337 211.538C232.289 211.972 233.453 212.213 234.971 211.932L236.102 212.156C237.157 212.193 238.182 212.25 239.375 212.063L238.353 211.896L230.874 211.221C230.599 211.212 230.329 211.155 230.078 211.054C229.83 210.92 229.834 210.71 230.731 210.399C234.395 210.513 238.065 210.586 241.729 210.773C242.484 210.79 243.217 210.984 244.064 211.451C244.71 211.792 245.425 211.866 246.424 211.689C248.358 211.298 250.157 210.94 252.058 210.493C252.583 210.399 253.255 210.159 253.569 209.875C254.762 209.054 256.17 208.793 257.79 208.639C258.637 208.529 259.553 208.379 260.326 208.082C262.121 207.39 263.07 207.334 264.591 207.875L265.963 207.895L266.985 207.761C268.328 207.951 269.309 207.277 270.473 207.073L270.466 206.065C272.002 206.025 273.385 206.308 274.242 206.766C274.61 206.933 274.908 207.205 275.092 207.541C275.45 208.436 275.775 209.314 276.234 210.119C276.303 210.22 276.402 210.302 276.519 210.353C276.778 210.486 277.154 210.607 277.439 210.753L278.004 211.128C278.034 211.297 278.104 211.458 278.209 211.6C278.315 211.742 278.453 211.861 278.613 211.949C278.989 212.149 279.555 212.216 280.372 212.116C283.05 211.819 285.028 212.306 287.038 212.847C288.56 213.278 290.074 213.595 292.117 212.961C294.139 212.343 295.321 212.373 296.737 213.128C297.722 213.689 298.503 214.25 299.389 214.831C300.539 215.606 301.546 216.428 302.772 217.072C303.886 217.596 304.868 218.327 305.654 219.219C306.683 220.288 308.029 221.293 309.339 222.249L310.646 222.492L311.211 222.79C311.671 223.144 312.167 223.481 312.663 223.892C313.196 224.359 314.116 224.77 312.532 225.498C313.506 225.281 314.145 225.281 314.572 225.508C314.732 225.591 314.864 225.708 315.214 225.986C315.736 226.019 316.1 226.092 316.312 226.206C316.721 226.423 316.586 226.774 315.962 227.201C317.232 227.425 318.468 227.555 319.632 227.799C320.654 228.039 321.676 227.946 322.872 227.572C323.967 227.255 324.989 227.051 324.733 226.283L325.365 225.799L326.102 225.221C325.397 225.368 325.116 225.591 324.591 225.762L323.321 225.986C322.157 225.742 321.132 225.461 320.074 225.124L319.964 224.696C320.067 224.115 320.136 223.518 320.344 222.96C320.431 222.703 320.373 222.546 320.209 222.459C319.99 222.342 319.589 222.352 319.107 222.415C318.26 222.526 317.414 222.603 316.392 222.696C316.637 222.452 316.706 222.342 316.885 222.249C318.038 221.106 317.965 220.545 316.586 219.744C316.338 219.61 316.265 219.203 316.582 218.996C317.155 218.485 317.009 218.184 316.575 217.954C316.338 217.839 316.09 217.744 315.834 217.67L315.09 217.389C316.567 216.788 318.082 216.321 317.688 215.295C317.556 214.861 317.377 214.487 316.94 214.257C316.531 214.04 315.896 213.943 314.86 214.023C316.089 213.482 317.005 213.108 318.056 212.587C317.831 212.538 317.614 212.463 317.41 212.363C316.965 212.129 316.951 211.812 317.418 211.428L317.622 210.753C317.863 209.578 316.94 208.753 315.495 207.998C314.867 207.664 314.955 207.203 315.414 206.679C316.009 205.988 316.673 205.333 317.129 204.642C317.476 204.231 317.334 203.784 317.155 203.39C317.045 202.889 316.586 202.454 316.513 201.97C316.476 201.473 316.498 200.948 315.549 200.494C315.002 200.361 314.557 200.194 314.199 200.006C313.068 199.409 312.813 198.557 313.101 197.522L313.13 196.643C313.13 196.209 312.89 195.842 312.444 195.608C312.046 195.416 311.599 195.323 311.149 195.338C308.577 195.354 306.004 195.712 303.72 196.74C302.492 197.29 301.173 197.649 299.816 197.802C298.612 197.953 297.24 198.046 296.47 198.944C296.211 198.557 295.846 198.237 295.412 198.016C294.657 197.619 293.65 197.415 292.479 197.355C291.986 197.355 291.103 197.448 290.789 197.655C288.647 198.981 285.827 199.205 283.185 199.632L282.55 199.559C281.281 199.148 280.752 199.242 279.945 200.16C279.248 201.018 277.767 201.205 276.537 201.633C275.939 201.8 275.304 201.913 274.742 202.067C275.165 202.287 275.519 202.551 276.121 202.902L275.454 203.149L273.509 202.12C272.881 203.356 271.794 204.492 272.79 205.577C270.499 205.634 270.462 205.614 269.306 206.829C268.922 207.26 268.357 207.334 267.653 207.297C266.64 207.299 265.647 207.042 264.785 206.556C264.394 206.352 264.026 206.121 263.314 205.741C262.409 205.26 261.979 205.387 260.808 206.215L260.421 206.492C259.997 206.645 259.586 206.827 259.191 207.036L258.483 206.475C257.776 205.801 257.097 205.073 256.426 204.381C254.703 205.26 254.528 205.65 255.24 206.362L255.63 207.016C254.893 207.634 254.335 208.419 252.959 208.549C251.493 208.706 249.931 208.94 248.694 208.269C247.537 207.463 246.307 206.75 245.016 206.138C243.958 205.577 243.812 204.979 245.18 204.174C245.917 203.707 246.902 203.336 247.92 202.869C248.088 201.356 248.194 201.299 251.328 200.681C251.772 200.574 252.189 200.39 252.558 200.14C253.047 199.766 253.507 199.746 253.93 199.973L254.78 200.344C255.948 200.778 257.181 200.795 258.48 200.29C257.385 199.97 256.291 199.689 255.269 199.335L254.138 198.888C253.215 198.14 253.032 197.225 253.591 196.176C253.882 195.488 253.722 195.007 253.051 194.653C252.705 194.483 252.337 194.355 251.956 194.272L250.686 194.045C250.867 193.793 251.03 193.531 251.175 193.26C251.452 192.292 252.011 191.243 252.003 190.308C251.963 189.47 252.346 188.705 253.186 187.844L254.459 188.144C254.846 187.937 255.371 187.767 255.444 187.58C256.104 186.778 256.666 185.993 257.188 185.225C257.349 184.968 257.298 184.758 257.046 184.624C256.77 184.505 256.467 184.448 256.163 184.457L255.849 184.891C255.36 186.01 254.623 186.254 252.715 185.957L251.835 185.673C251.733 185.587 251.62 185.512 251.5 185.449C250.682 185.015 249.624 185.225 248.026 185.673C249.048 185.132 249.96 184.607 250.945 184.123C251.894 183.619 252.945 183.171 253.926 182.54C253.087 182.096 253.138 181.595 254.061 180.964C254.379 180.76 254.408 180.329 254.233 180.122L252.926 180.069C251.693 180.273 250.464 180.59 249.23 180.87C248.417 181.057 247.771 181.127 247.271 180.864C247.095 180.759 246.931 180.638 246.782 180.503C246.35 180.304 245.863 180.231 245.385 180.293C243.87 180.46 242.674 180.46 241.718 179.959C241.44 180.553 241.265 181.094 240.988 181.655C240.674 182.236 239.901 182.387 238.981 182.159L237.963 181.648C237.554 181.431 237.003 181.492 236.336 181.695C235.474 181.886 234.605 182.048 233.731 182.179C232.355 182.387 230.494 183.489 230.111 184.29L230.677 184.404C231.494 184.487 232.267 184.581 232.738 184.828C233.125 185.032 233.307 185.339 233.154 185.823L234.281 186.047C235.518 185.913 236.372 185.973 236.839 186.22C237.35 186.488 237.405 186.975 237.007 187.673C236.792 188.041 236.806 188.258 237.091 188.408C237.226 188.478 237.419 188.535 237.682 188.592C237.95 188.639 238.208 188.723 238.448 188.842C239.069 189.169 239.204 189.71 238.784 190.438C237.62 190.161 236.42 189.971 235.573 189.523C234.617 189.056 233.982 189.169 232.683 189.637C231.625 190.084 230.253 190.365 228.987 190.589C227.648 190.776 226.415 190.983 225.258 191.597L224.032 191.587C223.463 191.287 222.66 191.377 221.803 191.637L221.026 191.561C220.84 191.518 220.661 191.454 220.493 191.37C219.935 191.073 219.902 190.622 220.066 190.084C220.238 189.243 220.511 188.381 220.789 187.526C221.122 186.6 221.591 185.719 222.182 184.908C222.609 185.319 223.175 185.73 223.638 186.124L224.273 186.384L224.835 185.937C224.831 185.335 225.426 184.981 226.517 184.741C226.765 184.684 227.01 184.477 227.429 184.253L226.481 184.273C225.849 184.394 225.227 184.55 224.616 184.741C223.879 184.941 223.215 184.975 222.606 184.607C222.496 184.44 222.777 184.066 223.022 183.786C223.408 183.285 223.97 182.797 224.565 182.183C223.543 182.35 222.981 182.497 222.485 182.533L221.183 182.367C221.018 182.291 220.856 182.211 220.697 182.126C220.38 181.959 220.073 181.782 219.767 181.618C220.223 181.338 220.927 180.964 221.453 180.536C222.748 179.321 223.452 179.134 225.674 179.414L226.944 179.451C227.929 179.167 228.484 179.1 228.874 179.304C229.038 179.396 229.176 179.524 229.275 179.675C229.542 180.052 229.823 180.329 230.202 180.53C230.669 180.777 231.29 180.91 232.242 180.984C231.362 181.301 230.622 181.545 229.954 181.825C228.83 182.273 228.655 182.594 229.575 183.188C230.104 182.834 230.596 182.533 231.085 182.159C231.786 181.638 232.49 181.375 233.585 181.582C234.008 181.695 234.924 181.582 235.38 181.375C236.646 180.817 237.806 180.162 238.966 179.545C237.799 179.638 236.5 179.845 235.194 179.788L238.003 178.292C236.894 177.948 235.248 178.656 233.917 177.918L238.072 177.434C237.963 176.706 237.817 176.031 237.708 175.34L235.453 176.011C234.577 176.292 233.658 176.515 232.884 176.779C232.497 176.946 232.045 177.227 231.654 177.394C231.187 177.551 230.76 177.604 230.545 177.494C230.421 177.427 230.37 177.307 230.421 177.113C230.563 176.729 230.472 176.412 230.078 176.205C229.853 176.096 229.608 176.025 229.356 175.994C228.403 175.861 227.63 176.235 226.893 176.592C226.119 176.926 225.346 177.227 224.642 177.561C223.368 177.077 223.368 177.077 222.069 177.694C221.438 177.955 220.767 178.162 220.062 178.462C220.033 178.112 219.924 177.895 219.723 177.788C219.431 177.631 218.942 177.721 218.227 178.012C217.84 178.179 217.527 178.386 217.209 178.556C216.403 179.057 215.666 179.638 214.75 180.012C212.185 180.964 211.378 181.956 212.444 183.302C212.484 183.485 212.561 183.602 212.688 183.669C212.907 183.786 213.272 183.742 213.856 183.602C215.016 183.282 216.286 183.058 217.483 182.871L218.65 183.115C218.97 183.446 219.179 183.854 219.252 184.29C219.289 184.571 218.975 184.851 218.8 185.132L217.242 184.778C216.932 184.611 216.717 184.404 216.045 184.384L216.366 184.818C216.476 184.985 216.512 185.115 216.549 185.469C215.509 185.262 214.378 185.232 213.83 184.928C213.735 184.836 213.626 184.757 213.506 184.694C212.958 184.4 212.302 184.544 211.572 184.778C210.722 185.012 210.032 185.195 209.353 184.835C208.784 184.46 209.667 184.18 210.05 183.863C210.82 183.312 210.988 182.951 210.474 182.68C210.249 182.573 210.01 182.492 209.762 182.44C210.145 182.159 210.532 181.919 210.955 181.618C212.604 180.667 214.221 179.695 215.764 178.723C216.082 178.516 215.972 178.162 216.111 177.825C215.585 177.881 214.951 177.808 214.385 177.958C213.929 178.088 213.579 178.386 213.192 178.626C212.561 179.077 212.068 179.488 211.506 179.939C210.63 180.553 209.539 180.984 208.095 181.191C208.445 180.854 208.868 180.59 209.324 180.309C209.85 179.955 210.448 179.601 211.079 179.227C212.101 178.686 212.977 178.068 214.137 177.601C215.607 177.006 215.998 176.699 215.275 176.322C215.099 176.233 214.916 176.155 214.728 176.088L214.797 175.827C215.564 175.079 216.268 174.331 216.085 173.6L216.826 173.547C217.461 173.506 218.096 173.323 218.796 173.209C218.45 173.583 218.238 173.921 218.311 174.331L219.471 173.937C220.42 173.436 221.263 172.909 222.142 172.444C223.514 171.713 224.744 170.985 226.218 170.35C228.046 169.602 229.95 169.676 231.713 169.676C232.297 169.676 232.698 169.769 232.975 169.916C233.336 170.11 233.501 170.391 233.807 170.845C234.063 170.978 234.424 170.912 234.891 170.725C235.383 170.461 235.876 170.09 236.474 169.956L237.956 170.07C237.711 170.314 237.536 170.517 237.219 170.725L236.307 171.058C235.92 171.302 235.394 171.807 235.65 171.947C236.08 172.177 236.722 172.341 237.335 172.461C237.441 172.518 238.211 172.07 238.459 171.79C238.773 171.509 238.879 171.189 239.123 170.871L239.722 170.855C239.689 171.209 239.762 171.583 239.729 171.94C239.671 172.454 239.718 172.782 240.09 172.975C240.349 173.116 240.773 173.186 241.429 173.209C243.932 173.266 245.666 174.368 248.979 173.994C249.613 174.255 250.142 174.088 250.595 173.693C251.23 173.172 252.105 172.742 253.375 172.778C252.733 171.62 252.27 170.481 251.452 169.415C251.095 168.854 251.128 168.5 252.219 168.069C253.379 167.639 253.693 167.134 253.901 166.463C254.131 165.638 254.574 164.876 255.192 164.239C255.995 163.21 257.119 162.238 258.1 161.23C258.345 160.986 258.626 160.649 258.41 160.539C257.564 160.091 258.374 159.737 259.111 159.27C258.086 158.835 257.06 158.408 256.141 158.071L256.137 157.286C256.163 156.758 256.426 156.184 255.422 155.716C255.099 155.658 254.786 155.56 254.492 155.426C254.032 155.185 254.039 154.828 254.919 154.183C253.368 154.447 252.244 154.671 251.044 154.858C251.668 153.065 252.259 151.398 252.846 149.735C251.087 150.072 247.574 152.129 247.052 153.268C246.738 153.923 246.632 153.98 245.611 154.07C245.782 153.342 245.99 152.634 246.195 151.849C243.768 152.54 241.553 153.195 239.054 153.96C237.193 154.988 235.296 155.96 233.471 157.005C232.942 157.286 232.661 157.733 232.311 158.107C231.855 158.428 231.472 158.855 230.837 159.083C229.961 159.4 228.133 160.632 228.44 161.313C228.746 161.474 229.516 161.527 230.147 161.811C228.633 162.051 227.228 162.238 225.784 162.479L226.068 162.88C226.513 163.117 226.564 163.431 226.003 163.865C225.371 164.276 224.773 164.666 223.715 164.666L223.116 164.686C221.96 165.341 220.726 165.956 219.745 166.891C215.491 168.183 212.929 170.297 209.875 172.217C209.032 172.778 208.332 173.339 207.489 173.901C206.927 174.234 206.223 174.575 205.628 174.892C205.099 175.173 204.533 175.433 204.008 175.751C203.658 176.051 203.38 176.425 203.027 176.723C202.395 177.17 201.764 177.584 201.096 178.048L202.191 178.629C199.097 179.264 199.097 179.264 198.608 179.975C199.119 180.076 199.918 180.055 200.264 180.256C200.348 180.423 200.469 180.54 200.622 180.623C200.983 180.814 201.534 180.79 202.279 180.683L203.545 180.536C204.887 180.683 205.588 180.122 206.252 179.581L206.953 178.947C207.182 178.998 207.403 179.076 207.609 179.18C208.211 179.498 208.303 179.972 207.952 180.48C207.463 181.151 206.584 181.468 205.42 181.415C203.585 181.338 201.859 181.805 200.239 182.33L199.225 182.757C199.261 183.452 198.101 183.545 197.364 183.859C196.623 184.143 195.78 184.404 195.003 184.704L194.233 185.225L195.255 185.132C197.083 184.46 198.947 183.806 200.812 183.078C202.023 182.617 203.099 182.584 203.804 182.954C204.104 183.11 204.342 183.35 204.482 183.639C203.599 183.806 202.581 184.2 201.946 184.123C200.925 184.03 200.502 184.29 199.903 184.607C199.235 184.965 198.604 185.262 198.006 185.656C197.725 185.88 197.48 186.311 197.623 186.384C198.083 186.518 198.648 186.928 199.458 186.461C200.37 185.9 201.461 185.432 202.87 185.168C203.151 185.135 203.464 184.851 203.818 184.668L204.767 184.233C205.997 183.879 207.088 183.489 206.942 182.554C207.682 182.721 208.109 182.834 208.74 182.984L206.175 184.347C206.708 184.554 207.168 184.721 207.624 184.928C206.467 185.583 205.581 185.339 204.522 185.038C203.858 185.766 203.158 186.404 202.282 187.209C203.162 187.039 203.621 186.908 204.289 186.741C203.796 187.262 203.413 187.616 203.063 187.99C205.88 187.543 207.952 186.852 208.193 185.225C208.404 185.254 208.607 185.315 208.795 185.406C209.149 185.593 209.193 185.863 209.218 186.14C209.218 186.397 209.204 186.668 209.857 186.925C209.51 187.486 209.197 187.954 208.985 188.405C208.875 188.638 208.93 188.775 209.08 188.855C209.445 189.049 210.36 188.932 210.86 189.169C209.452 189.804 208.116 190.405 206.781 191.04L206.288 191.15C205.477 191.11 204.666 191.065 203.855 191.016C204.559 190.796 205.3 190.625 205.898 190.382C207.164 189.974 207.653 189.413 207.226 189.002C207.089 188.831 206.917 188.686 206.719 188.575C206.234 188.318 205.599 188.358 204.581 188.685C203.103 189.169 201.698 189.283 200.319 188.966L199.542 188.852C198.695 188.852 198.061 188.966 198.137 189.563L197.681 190.141C197.045 190.579 196.348 190.937 195.609 191.207C194.795 190.889 193.952 191.04 193.109 191.45C192.686 191.674 192.124 191.751 191.453 191.654" fill="#E4E8F4"/>
<path d="M191.934 195.525C192.533 195.244 193.481 195.188 194.259 195.151L194.999 195.431C194.543 195.672 194.014 195.916 193.525 196.179C192.927 196.497 191.978 196.814 191.766 197.115M191.453 191.654C191.909 191.451 192.474 191.263 192.927 191.056C193.492 190.833 194.091 190.666 194.405 190.385C195.109 189.861 195.492 189.316 196.229 188.816C197.947 187.637 198.017 187.673 196.638 186.758C194.248 187.657 193.613 187.693 192.27 187.096" fill="#E4E8F4"/>
<path d="M429.918 143.273C428.999 142.789 428.572 142.228 428.495 141.516C428.495 140.995 428.598 140.414 428.065 140.134C427.408 139.733 426.766 139.309 426.065 138.938C425.256 138.493 424.366 138.183 423.438 138.023C421.424 137.629 418.815 137.779 416.385 137.873C415.152 137.93 414.269 137.836 413.528 137.445C413.343 137.336 413.156 137.23 412.966 137.128C412.018 136.627 411.722 136.731 410.069 137.255C409.084 136.995 408.128 136.754 407.282 136.49L406.756 136.844L409.515 138.304C410.325 138.735 410.19 139.556 409.274 139.74C408.216 139.967 407.161 140.154 406.107 140.341C405.399 140.464 404.954 140.451 404.68 140.308C404.461 140.191 404.352 139.997 404.304 139.723L403.841 139.105C403.421 139.256 402.929 139.369 402.506 139.519L401.768 140.02C400.747 140.678 399.732 141.293 400.229 141.967L399.594 141.707C399.028 141.593 398.393 141.63 397.759 141.557C398.003 141.236 398.215 140.975 398.353 140.752L397.547 141.069L396.876 141.276L396.135 141.032C396.452 140.752 396.835 140.431 397.328 140.247C398.171 139.837 398.733 139.426 398.167 138.938L392.311 138.043C392.767 137.836 393.223 137.706 393.752 137.536C394.92 138.043 395.445 137.873 396.989 136.417C396.321 136.621 395.65 136.864 394.945 137.088V136.527L394.482 135.986C394.165 136.193 393.884 136.34 393.606 136.604C393.325 136.864 393.044 137.165 392.658 137.405C392.333 137.621 391.978 137.798 391.603 137.93L390.067 140.134L389.396 140.191C388.199 140.191 378.187 140.08 375.509 140.491C374.596 140.454 373.677 140.378 372.725 140.398C372.276 140.384 371.842 140.368 371.623 140.251C371.477 140.174 371.426 140.057 371.524 139.873C371.871 139.239 371.692 138.507 373.276 138.117L373.907 137.629C374.396 137.182 374.888 136.661 375.308 136.21C375.622 135.819 376.111 135.368 376.286 134.941C376.669 133.872 376.943 132.827 377.22 131.781C377.406 131.043 377.169 130.439 376.381 130.021C376.118 129.887 375.839 129.782 375.549 129.707C373.941 129.31 372.316 128.973 370.678 128.699C370.462 128.676 370.252 128.62 370.057 128.532C369.795 128.398 369.838 128.195 370.076 127.894C370.459 127.39 370.561 126.885 370.842 126.398L370.313 126.304C369.401 126.939 368.591 127.593 367.715 128.211C367.215 128.532 366.766 128.632 366.511 128.499C366.456 128.467 366.409 128.424 366.374 128.374C366.338 128.324 366.315 128.267 366.307 128.208C366.018 127.5 366.226 126.789 367.171 126.021C368.375 126.395 369.007 126.061 369.601 125.479C370.065 125.045 370.751 124.858 371.185 125.162C371.221 125.373 371.316 125.506 371.466 125.586C371.805 125.767 372.407 125.653 373.093 125.5C373.567 125.379 373.91 125.353 374.115 125.459C374.253 125.536 374.326 125.677 374.326 125.894C374.294 126.171 374.436 126.471 374.582 126.919C375.917 126.358 376.549 125.797 376.472 125.199C376.494 125.025 376.311 124.872 376.067 124.741C375.846 124.631 375.614 124.54 375.374 124.471C374.246 124.21 372.944 124.08 371.812 123.816L371.101 123.068C371.345 122.414 371.798 121.762 372.185 121.145L372.991 120.714C374.505 120.62 374.575 120.096 374.534 119.555C374.523 117.798 374.126 116.172 372.393 114.809C371.918 114.529 371.765 114.008 371.043 113.687C370.338 113.614 369.182 114.081 368.197 114.305C367.317 114.515 366.722 114.556 366.409 114.392C366.223 114.292 366.135 114.115 366.146 113.858C366.102 112.715 366.31 111.557 366.474 110.418C366.609 108.922 368.89 107.409 372.871 106.494C374.666 106.1 375.574 105.278 375.184 104.363C374.942 103.931 374.852 103.441 374.928 102.96C375.031 102.306 375.556 102.175 376.545 102.436C377.428 102.716 378.063 102.529 378.515 102.025C378.938 101.614 379.289 101.167 379.847 100.569L380.029 101.037C379.577 102.586 379.022 104.193 378.716 105.709C378.67 105.921 378.698 106.14 378.794 106.338C378.89 106.535 379.05 106.7 379.252 106.811C380.558 107.389 382.007 107.856 383.74 108.437C384.017 107.95 384.295 107.539 384.328 107.185C384.554 105.425 383.729 103.989 381.306 102.716C380.894 102.507 380.503 102.263 380.139 101.988L383.477 100.212L384.145 99.9346C385.415 100.045 385.411 99.5973 385.55 99.1464C385.685 98.5853 385.681 97.9876 385.926 97.4098C386.134 96.625 387.009 96.0071 388.348 95.5229L389.151 94.9418L388.093 94.6813C387.531 94.6446 386.933 94.7013 386.192 94.7548C387.21 93.9867 388.155 93.262 389.177 92.6074C389.596 92.3436 390.333 92.1398 390.899 92.0263C392.271 91.709 393.468 91.335 394.062 90.5702C394.256 90.303 394.208 90.0893 393.986 89.9691C393.803 89.8722 393.5 89.8355 393.106 89.8789C391.136 90.1027 389.126 90.1962 387.294 90.6069C383.667 91.4853 380.113 92.5105 376.563 93.5425L375.859 94.2138L376.567 94.6613L377.311 94.8683C376.216 95.2991 375.231 95.5964 374.319 95.9337C372.597 96.5515 370.521 96.9022 369.328 97.9876L368.835 98.1011C367.142 98.2146 365.843 98.7924 364.541 99.4837C363.701 100.008 362.607 100.285 361.304 100.456C360.461 100.569 359.582 100.997 358.739 101.371C358.247 101.594 357.929 101.988 357.546 102.383C355.959 102.216 354.481 102.7 353.073 103.151C352.087 103.408 351.912 103.765 352.27 104.176C352.587 104.603 352.733 105.054 352.981 105.445C351.467 105.839 350.026 106.156 348.968 106.681C347.494 107.349 348.873 107.97 348.771 108.735C347.643 108.771 346.691 108.755 345.6 108.811C343.907 108.922 342.075 108.845 340.638 109.8C339.408 110.601 338 111.052 336.347 111.52C335.219 111.837 334.124 112.244 333.074 112.735C332.162 113.146 331.352 113.35 330.326 113.183C330.575 112.829 330.994 112.455 331.166 112.138L330.812 111.503C329.827 111.353 326.411 112.305 326.025 112.922C325.572 113.5 325.043 113.671 324.054 113.671L323.179 113.838C322.285 114.038 321.61 114.045 321.208 113.838C320.953 113.701 320.811 113.47 320.811 113.146C319.716 113.39 318.661 113.65 317.571 113.894C317.753 114.248 317.965 114.549 318.213 115.013C317.436 114.712 317.009 114.379 316.516 114.415C315.494 114.399 314.403 114.566 313.451 114.773C312.846 114.916 312.29 115.199 311.838 115.594C311.452 115.985 311.382 116.436 311.28 116.83L311.532 117.408L312.729 117.107C313.783 116.623 314.732 116.118 315.68 115.611C316.52 115.167 317.392 114.876 318.249 115.334C319.129 114.976 319.939 114.586 321.03 114.081C320.194 116.062 319.183 117.798 316.195 119.124C315.702 119.351 315.283 119.575 314.892 119.819C313.98 120.453 312.995 121.088 313.601 121.856C313.747 122.116 313.608 122.527 313.291 122.808C312.802 123.255 312.097 123.629 311.466 124.003C310.729 124.508 310.273 124.938 311.087 125.369L311.335 125.837C311.131 126.658 309.091 127.667 307.467 127.781C306.982 128.899 308.43 129.404 309.671 130.135C308.27 130.055 307.263 129.844 306.551 129.467C306.259 129.313 306.019 129.133 305.654 128.799C305.369 128.649 304.884 128.549 304.512 128.415C304.129 128.732 303.527 129.05 303.424 129.293C303.265 129.944 303.245 130.616 303.366 131.274C303.388 131.738 303.439 131.988 303.673 132.112C303.946 132.259 304.461 132.239 305.453 132.189L307.077 132.302C306.654 132.453 306.3 132.636 305.88 132.75C302.888 133.478 299.823 134.283 296.798 134.954C295.634 135.258 294.569 135.181 293.923 134.841C293.416 134.573 293.168 134.143 293.336 133.608C293.715 132.246 294.73 130.956 296.521 129.741C296.977 129.424 297.397 129.086 297.747 128.749C297.959 128.488 297.919 128.208 297.528 127.964C297.181 128.191 296.758 128.415 296.408 128.676C295.671 129.257 295.003 129.761 294.339 130.302C293.427 131.087 292.478 131.852 291.603 132.656C290.727 133.571 290.486 134.527 291.194 135.348L291.519 136.076C291.577 136.403 291.65 136.6 291.818 136.687C292.051 136.811 292.475 136.721 293.317 136.47C295.437 135.923 297.549 135.35 299.652 134.75C299.827 134.817 299.973 134.877 300.093 134.941C300.779 135.305 300.619 135.662 299.874 136.059C298.677 136.694 297.517 137.349 296.288 137.89C294.565 138.658 293.653 139.666 294.084 140.638C294.299 141.086 293.843 141.366 292.821 141.496L292.745 140.638L292.216 140.358C291.544 140.561 290.84 140.785 290.457 141.066L290.884 141.74L291.307 142.041L291.241 142.899C289.661 143.701 290.409 144.729 288.968 145.608C289.672 145.644 289.953 145.684 290.38 145.721C289.399 146.422 288.122 146.656 287.279 146.205C286.607 145.851 286.009 145.795 285.024 146.055L284.177 146.169C284.597 145.835 285.126 145.664 285.619 145.477C286.604 145.103 287.589 144.806 288.501 144.392C289.559 143.944 289.304 143.363 288.866 142.939C288.581 142.789 287.709 142.812 287.115 142.916C285.604 143.233 284.057 143.647 282.579 144.058C280.678 144.505 278.741 144.973 276.803 145.441C275.782 145.644 275.012 145.908 274.519 146.429C273.892 147.104 273.118 147.775 272.56 148.486C271.721 149.608 270.739 150.804 271.699 151.833L271.772 152.354C271.67 153.008 271.816 153.643 271.571 154.297C271.261 155.366 270.812 156.468 270.217 157.53C269.933 158.024 270.236 159.016 271.111 159.457C271.921 159.701 272.56 160.035 273.374 160.279L274.465 160.112C275.059 159.42 275.479 158.742 275.931 158.168C276.989 158.392 278.121 158.689 279.357 158.896C279.814 158.953 280.554 158.822 281.083 158.689L281.361 158.018L281.532 157.473L281.634 156.745C281.452 156.278 281.065 155.81 281.025 155.309C281.04 155.039 280.977 154.858 280.791 154.758C280.576 154.645 280.197 154.638 279.576 154.725C278.628 154.842 277.876 154.761 277.424 154.524C277.051 154.327 276.887 154.023 276.997 153.623C277.201 152.577 278.077 151.512 277.646 150.43C278.139 150.169 278.522 149.812 279.018 149.702C279.46 149.602 279.788 149.628 279.996 149.735C280.182 149.835 280.27 150.002 280.251 150.203C280.194 150.803 280.057 151.394 279.843 151.963C279.748 152.297 279.77 152.574 280.098 152.748C280.244 152.824 280.448 152.881 280.729 152.915C281.539 152.971 282.386 152.971 283.163 153.008C283.973 153.065 284.466 152.804 284.71 152.374L285.513 150.971C286.425 150.821 287.235 150.727 288.363 150.58C286.925 151.646 285.699 152.634 284.433 153.606C285.068 153.756 285.637 153.943 286.341 154.13C284.528 154.985 284.068 155.413 285.071 155.94C285.469 156.151 286.093 156.375 286.958 156.652C284.812 157.493 284.364 159.083 281.722 159.701L281.229 159.961C280.171 160.736 279.821 160.963 279.314 160.696C279.027 160.52 278.76 160.317 278.518 160.092L277.949 159.604L276.643 159.25C277.219 159.794 277.216 160.552 278.077 161.007C278.317 161.128 278.575 161.217 278.843 161.27V161.791C277.617 162.523 277.019 163.288 277.486 164.092L277.38 164.41C276.541 165.007 276.223 165.585 276.792 166.146L276.409 166.687C276.198 166.951 276.059 167.212 275.884 167.419C275.672 167.679 275.428 167.92 275.183 168.204C274.972 168.464 274.833 168.688 274.589 168.968L275.928 168.895C276.807 168.728 277.617 168.481 278.464 168.407C279.066 168.379 279.666 168.51 280.189 168.785C280.591 168.995 280.835 169.262 280.726 169.493C280.587 169.793 279.671 170.054 279.073 170.294C278.051 170.725 276.964 171.042 276.154 171.473C275.318 171.917 275.231 172.405 275.727 172.669C275.918 172.76 276.126 172.816 276.34 172.836C276.745 172.902 277.07 172.983 277.311 173.109C277.548 173.233 277.701 173.41 277.756 173.661C277.84 173.868 278.073 174.065 278.38 174.228C278.985 174.549 279.868 174.726 280.405 174.539C281.455 174.232 282.477 173.85 283.462 173.397C284.309 173.063 284.834 172.595 284.477 172.108C283.802 170.932 284.148 169.696 284.984 168.391L285.228 167.996C284.524 167.996 283.995 167.976 283.499 167.976C283.922 167.642 284.411 167.455 284.976 167.309C286.035 166.968 286.947 166.634 286.553 165.939C286.341 165.605 286.797 165.362 287.538 165.382L288.771 165.435C290.114 165.772 291.486 165.418 292.967 165.154C293.566 165.024 294.376 164.894 294.937 164.967L295.93 165.569C295.966 165.772 295.437 166.053 295.091 166.317L294.562 166.818C295.091 166.724 295.795 166.687 296.112 166.484C296.999 165.903 296.616 165.034 295.288 164.333C295.707 164.186 296.131 164.032 296.554 163.698C295.423 163.849 294.262 164.052 293.135 164.166C291.727 164.353 290.249 164.727 289.187 164.203C288.968 164.129 288.585 164.086 288.403 163.989C288.257 163.912 288.238 163.805 288.512 163.622C289.005 163.251 289.815 162.857 290.482 163.214C291.686 163.772 292.956 163.438 294.397 163.047C294.959 162.893 295.419 162.727 295.981 162.69L297.181 162.877C297.291 163.044 297.437 163.177 297.619 163.271C297.988 163.468 298.513 163.531 299.196 163.491L300.254 163.568L301.593 163.829C301.699 163.511 301.837 163.251 301.939 162.67C302.009 162.466 301.99 162.316 301.841 162.236C301.688 162.155 301.407 162.149 300.951 162.222C300.385 162.296 299.856 162.279 299.363 162.316C299.604 161.588 300.414 161.194 301.399 160.82C302.104 160.559 302.735 160.148 302.833 159.694C302.578 159.554 301.921 159.384 301.6 159.213C301.326 159.113 301.016 159.006 300.772 158.879C300.621 158.81 300.491 158.706 300.396 158.579C300.156 158.178 300.032 157.727 300.038 157.27C300.071 156.916 300.21 156.391 300.491 156.278C301.228 156.037 302.038 156.054 302.852 156.037L304.224 155.944C304.716 155.757 304.961 155.363 304.924 154.972C304.21 155.214 303.464 155.372 302.706 155.439C303.724 154.598 304.738 153.756 305.756 152.878C305.971 153.252 305.902 153.589 305.938 153.943C305.957 154.267 306.03 154.471 306.238 154.581C306.471 154.705 306.872 154.705 307.566 154.615C308.339 154.504 309.186 154.314 309.926 154.334L311.371 154.768C311.517 154.915 311.094 155.403 310.744 155.586C310.011 155.94 309.231 156.203 308.423 156.371C306.592 156.745 305.431 157.4 304.767 158.315C304.136 158.989 303.578 159.624 303.016 160.295L302.844 160.84C303.866 161.043 304.891 161.324 305.982 161.417L307.427 160.916C307.493 160.315 308.091 160.259 308.905 160.165C309.996 160.108 310.558 159.848 310.693 159.287L310.871 158.933C311.609 159.026 312.316 159.14 312.988 159.12C313.473 159.093 313.794 159.113 313.969 159.203C314.159 159.303 314.174 159.49 314.046 159.791C313.874 160.148 313.911 160.616 314.44 160.883C314.987 161.174 314.673 161.367 314.093 161.641C313.145 162.035 312.123 162.426 311.422 162.914C309.525 164.149 307.31 164.951 304.599 165.492C304.037 165.569 303.297 165.886 303.264 166.093L304.359 166.904C304.906 167.195 304.764 167.412 303.629 167.699C302.009 168.073 300.283 168.427 298.594 168.761C297.276 169.035 296.167 169.075 295.401 168.668C295.149 168.522 294.914 168.353 294.7 168.163C294.16 167.873 293.365 167.996 292.599 168.501C292.106 168.801 291.614 169.175 291.052 169.359C288.837 170.164 287.363 171.136 286.418 172.425C285.965 173.193 285.265 173.901 283.608 174.295L283.192 174.93C283.09 175.471 282.984 175.975 283.061 176.536C283.127 176.917 283.254 177.394 284.152 177.838C284.918 178.242 285.159 178.707 284.736 179.358C283.966 180.517 284.254 181.562 284.79 182.554L285.039 183.245C285.024 183.633 285.236 183.92 285.622 184.124C286.004 184.304 286.418 184.418 286.845 184.461C287.56 184.568 288.151 184.751 288.633 185.005C289.081 185.239 289.435 185.54 289.709 185.9C289.891 186.107 290.172 186.361 290.523 186.545C290.782 186.682 291.077 186.779 291.406 186.799C293.204 186.892 294.934 187.022 296.452 187.453L297.229 187.487C298.812 187.356 300.4 187.263 301.983 187.096C303.253 186.946 304.519 186.648 304.866 185.9C305.355 185.079 306.409 184.444 307.391 183.77C307.883 183.509 308.233 183.209 308.376 182.871C308.861 182.09 309.952 181.696 311.36 181.509C312.24 181.375 313.404 181.545 313.966 180.797L314.458 180.687C315.421 180.533 316.385 180.694 316.99 181.014C317.271 181.161 317.476 181.345 317.567 181.549C317.753 181.949 318.001 182.257 318.362 182.447C318.749 182.654 319.274 182.724 320.004 182.647C321.518 182.554 322.858 182.594 323.956 183.022L325.364 183.285C326.736 183.419 327.86 183.693 328.677 184.127C329.462 184.538 329.965 185.095 330.137 185.807C330.326 186.348 330.699 186.775 331.301 187.096C331.866 187.396 332.632 187.597 333.643 187.697C335.65 187.937 337.452 188.332 339.007 188.966C340.138 189.45 341.55 189.824 343.031 189.975C344.659 190.058 345.998 190.295 347.676 191.234C348.249 191.534 348.756 191.417 349.595 190.91C350.858 190.122 352.051 189.3 353.208 188.462L353.631 187.901C354.43 186.124 354.525 184.461 352.332 183.265C351.803 182.911 351.905 182.594 352.398 182.143C352.606 181.883 352.675 181.545 352.565 181.342C352.437 181.16 352.262 181.011 352.055 180.908C351.661 180.697 351.106 180.574 350.413 180.537L349.245 179.996C349.23 179.304 349.37 178.616 349.657 177.975C350.278 176.833 349.584 175.581 348.213 174.856C347.787 174.632 347.327 174.468 346.848 174.368C345.436 174.108 344.272 173.677 342.966 173.323C342.604 173.242 342.256 173.117 341.929 172.953C340.784 172.345 340.904 171.416 341.324 170.371C341.743 169.436 342.163 168.464 341.98 167.622C341.827 166.126 341.254 164.707 340.755 163.288C340.682 162.954 340.149 162.67 339.901 162.352C339.302 162.67 338.708 162.987 338.284 163.324C337.372 163.959 336.639 164.65 335.69 165.305L334.457 165.512C333.081 165.418 331.706 165.325 330.261 165.268L329.06 165.194C327.998 165.087 326.939 164.95 325.886 164.784C324.018 164.426 322.215 164.036 320.347 163.682C319.534 163.511 318.793 163.304 317.946 163.194C317.092 163.067 316.233 162.974 315.37 162.914C315.721 162.69 315.969 162.596 316.25 162.596C318.366 162.63 320.482 162.706 322.631 162.763L323.408 162.987L324.89 163.324C327.641 163.548 330.498 163.642 332.654 164.56C333.183 164.837 333.785 164.744 334.271 164.183C334.658 163.755 335.292 163.304 335.639 162.857C336.253 162.212 336.791 161.511 337.244 160.763C337.737 160.055 337.978 159.25 338.467 158.539C339.167 157.53 339.021 156.635 338.241 155.85L336.617 155.476L334.924 155.663C333.796 155.773 333.059 156.017 332.851 156.729C332.643 157.286 331.939 157.811 330.498 157.831L329.932 157.941L328.874 157.831C328.763 157.693 328.621 157.578 328.458 157.493C328.002 157.253 327.356 157.193 326.579 157.249L325.101 157.286L324.288 156.859C324.288 156.672 324.744 156.428 325.164 156.241C326.185 155.85 327.101 156.037 328.053 156.127C330.133 156.408 330.699 156.261 332.14 155.192L333.125 154.785C335.697 154.802 337.595 154.053 339.069 152.821C339.769 152.223 340.401 151.662 341.915 151.906L343.36 151.739C343.925 151.626 344.491 151.552 345.016 151.459L344.805 151.719C345.301 151.869 345.797 152.203 346.359 152.093C346.713 152.056 347.132 151.569 347.658 151.215C347.804 151.302 347.953 151.382 348.107 151.465C351.08 153.035 355.452 153.676 360.016 154.317C360.308 153.596 360.323 153.058 359.44 152.597L359.049 151.869C359.575 151.358 359.378 151.075 358.943 150.844C358.743 150.737 358.487 150.644 358.228 150.543C357.877 150.438 357.535 150.306 357.207 150.149C356.594 149.822 356.761 149.508 357.371 148.637C358.071 147.514 358.593 146.372 357.882 145.33C359.111 145.01 359.921 144.542 359.845 143.868C362.304 143.904 364.668 144.031 366.445 144.97C367.248 143.834 367.773 143.667 369.539 144.075C370.718 144.379 371.999 144.646 372.922 145.137C373.305 145.337 373.622 145.574 374.049 146.005C374.381 146.182 374.958 146.306 375.439 146.262C376.753 146.159 377.577 146.336 378.285 146.71C378.471 146.81 378.65 146.923 378.869 147.07C379.289 147.291 380.34 147.304 381.193 147.251C381.722 147.234 382.354 146.86 382.81 146.653C380.796 145.815 378.256 145.851 376.001 145.587C374.553 145.42 373.458 144.692 372.221 144.225L372.535 143.944C373.133 143.964 373.841 143.888 374.578 143.908L387.341 144.392C386.612 144.809 386.582 145.37 387.093 145.638C387.314 145.744 387.559 145.798 387.808 145.795C389.045 145.851 390.348 146.095 391.651 145.514L393.457 146.803L392.683 147.104C392.3 147.905 390.961 148.019 389.976 148.316C389.096 148.523 388.535 148.86 388.932 149.391C389.272 149.572 389.979 149.421 390.509 149.231C392.833 148.296 395.117 147.307 397.368 146.412L397.821 145.681C398.674 146.73 398.258 147.812 396.854 148.971C396.259 149.475 395.591 149.942 395.029 150.43C394.584 150.784 394.58 151.071 395.354 151.418C396.025 151.626 396.591 151.923 397.189 152.13C398.072 152.41 398.955 152.801 399.981 152.898C401.283 153.068 402.462 153.265 403.305 153.709C403.56 153.843 403.783 154 404.18 154.344C404.605 154.544 405.085 154.625 405.56 154.578C406.016 154.521 406.614 154.053 406.822 153.756C407.453 153.008 407.979 152.28 409.314 151.719L409.77 151.252C409.832 150.166 411.343 149.365 412.642 148.486C414.083 147.531 414.466 147.478 416.48 147.608C417.148 147.625 417.962 147.571 418.633 147.551C418.737 147.171 418.805 146.783 418.834 146.392C420.351 146.599 421.971 146.823 423.595 147.01C425.606 147.251 426.806 146.877 427.255 145.888C427.996 145.795 428.663 145.774 429.192 145.608C430.283 145.177 430.663 143.667 429.918 143.273ZM307.051 114.632L307.062 114.489C307.052 114.504 307.043 114.52 307.033 114.535L307.044 114.642V114.659L307.048 114.692L307.051 114.632Z" fill="#E4E8F4"/>
<path d="M288.249 239.491C290.796 240.837 290.793 243.021 288.246 244.374C285.714 245.72 281.598 245.73 279.051 244.384C276.486 243.031 276.493 240.847 279.022 239.501C281.569 238.146 285.684 238.136 288.253 239.491H288.249Z" fill="#FFC701"/>
<path d="M427.288 134.653C429.835 135.999 429.827 138.179 427.281 139.535C424.752 140.881 420.636 140.891 418.086 139.545C415.524 138.19 415.528 136.005 418.057 134.663C420.607 133.307 424.723 133.294 427.288 134.653Z" fill="#4C7891"/>
<path d="M315.648 153.345C318.195 154.691 318.191 156.875 315.644 158.231C313.112 159.576 308.996 159.583 306.449 158.241C303.884 156.885 303.892 154.701 306.42 153.355C308.967 151.999 313.079 151.992 315.648 153.345Z" fill="#BAC1CE"/>
<path d="M328.13 208.379C330.677 209.725 330.669 211.906 328.123 213.262C325.594 214.608 321.478 214.618 318.928 213.272C316.366 211.916 316.37 209.732 318.899 208.389C321.449 207.033 325.565 207.023 328.13 208.379Z" fill="#75CA75"/>
<path d="M345.786 179.03C348.333 180.376 348.326 182.557 345.779 183.913C343.247 185.258 339.131 185.268 336.584 183.923C334.023 182.567 334.026 180.383 336.555 179.04C339.105 177.684 343.221 177.674 345.786 179.03Z" fill="#F9BB4A"/>
<path d="M326.415 136.414C328.962 137.759 328.958 139.94 326.408 141.296C323.879 142.642 319.764 142.652 317.213 141.306C314.652 139.95 314.655 137.766 317.184 136.424C319.735 135.068 323.85 135.054 326.415 136.414Z" fill="#FFC701"/>
<path d="M339.27 107.031C341.817 108.377 341.809 110.558 339.263 111.914C336.734 113.259 332.618 113.269 330.068 111.924C327.506 110.568 327.51 108.384 330.039 107.041C332.589 105.685 336.705 105.675 339.27 107.031Z" fill="#EA74FD"/>
<path d="M381.372 88.834C383.919 90.1766 383.912 92.3607 381.365 93.7166C378.837 95.0625 374.721 95.0725 372.17 93.7266C369.609 92.3707 369.613 90.1866 372.141 88.8407C374.692 87.4882 378.807 87.4815 381.372 88.834Z" fill="#FED57A"/>
<path d="M379.599 138.107C382.146 139.453 382.142 141.637 379.596 142.989C377.063 144.335 372.948 144.345 370.401 142.999C367.836 141.647 367.843 139.463 370.372 138.117C372.922 136.761 377.034 136.751 379.599 138.107Z" fill="#75CA75"/>
<path d="M401.207 188.114C403.753 189.46 403.75 191.641 401.199 192.997C398.671 194.343 394.555 194.353 392.004 193.007C389.443 191.651 389.45 189.467 391.979 188.124C394.526 186.769 398.638 186.759 401.207 188.114Z" fill="#9AD898"/>
<path d="M257.056 196.677C259.603 198.023 259.596 200.204 257.049 201.56C254.521 202.906 250.405 202.916 247.854 201.57C245.293 200.214 245.297 198.03 247.825 196.687C250.376 195.332 254.491 195.322 257.056 196.677Z" fill="#EA74FD"/>
<path d="M210.579 189.157C213.13 190.499 213.122 192.684 210.579 194.036C208.047 195.382 203.931 195.392 201.384 194.046C198.819 192.694 198.823 190.509 201.352 189.164C203.902 187.808 208.018 187.798 210.583 189.154L210.579 189.157Z" fill="#9AD898"/>
<path d="M237.27 148.102C239.816 149.448 239.813 151.632 237.262 152.985C234.734 154.331 230.618 154.341 228.067 152.995C225.506 151.642 225.51 149.458 228.038 148.112C230.589 146.756 234.705 146.746 237.27 148.102Z" fill="#EA74FD"/>
<path d="M283.645 242.701H283.568C283.347 242.682 283.142 242.584 283 242.427C282.858 242.271 282.789 242.069 282.809 241.866C282.809 241.866 282.919 240.751 283.163 238.827C283.214 238.406 283.557 238.089 284.086 238.152C284.196 238.163 284.302 238.194 284.399 238.242C284.495 238.291 284.58 238.357 284.649 238.436C284.717 238.514 284.768 238.605 284.798 238.702C284.828 238.799 284.837 238.901 284.823 239.001C284.583 240.894 284.477 242 284.477 242.006C284.457 242.196 284.361 242.372 284.207 242.5C284.053 242.629 283.853 242.7 283.645 242.701ZM284.86 233.54C284.823 233.54 284.783 233.54 284.743 233.534C284.635 233.52 284.531 233.486 284.436 233.436C284.342 233.385 284.26 233.317 284.194 233.237C284.128 233.157 284.08 233.066 284.053 232.969C284.026 232.872 284.02 232.771 284.035 232.672C284.327 230.809 284.674 228.731 285.093 226.524C285.166 226.106 285.586 225.806 286.053 225.899C286.513 225.969 286.816 226.367 286.735 226.781C286.356 228.811 286.007 230.847 285.688 232.886C285.661 233.069 285.562 233.236 285.409 233.357C285.257 233.478 285.062 233.541 284.86 233.54ZM287.14 221.317C287.017 221.317 286.895 221.292 286.783 221.243C286.672 221.195 286.573 221.124 286.495 221.037C286.416 220.949 286.36 220.847 286.33 220.737C286.299 220.628 286.296 220.513 286.319 220.402C286.757 218.415 287.239 216.375 287.772 214.321C287.795 214.222 287.84 214.129 287.904 214.046C287.968 213.964 288.049 213.894 288.143 213.841C288.237 213.788 288.342 213.753 288.451 213.738C288.56 213.723 288.672 213.728 288.779 213.753C289.227 213.846 289.508 214.261 289.399 214.671C288.874 216.709 288.392 218.732 287.961 220.703C287.923 220.876 287.821 221.032 287.671 221.145C287.521 221.257 287.334 221.318 287.14 221.317ZM290.286 209.261C290.156 209.262 290.028 209.235 289.912 209.182C289.796 209.129 289.695 209.053 289.617 208.958C289.539 208.863 289.486 208.753 289.463 208.637C289.44 208.52 289.447 208.4 289.483 208.286C290.129 206.192 290.818 204.192 291.526 202.331C291.601 202.141 291.754 201.984 291.953 201.895C292.152 201.807 292.382 201.793 292.592 201.857C292.801 201.925 292.972 202.065 293.069 202.248C293.165 202.43 293.178 202.641 293.106 202.832C292.374 204.771 291.702 206.729 291.092 208.703C291.043 208.864 290.938 209.005 290.793 209.106C290.648 209.207 290.468 209.261 290.286 209.261ZM323.285 200.344C323.077 200.344 322.876 200.272 322.723 200.144C322.569 200.015 322.473 199.839 322.453 199.65C322.257 197.635 321.887 195.637 321.347 193.675C321.292 193.478 321.323 193.27 321.436 193.094C321.548 192.919 321.731 192.792 321.946 192.74C322.052 192.714 322.164 192.708 322.273 192.722C322.383 192.736 322.488 192.769 322.584 192.821C322.679 192.872 322.762 192.941 322.827 193.022C322.893 193.104 322.941 193.196 322.967 193.294C323.493 195.138 323.879 197.228 324.117 199.506C324.137 199.708 324.069 199.91 323.927 200.066C323.786 200.223 323.582 200.322 323.361 200.341L323.285 200.344ZM294.788 197.576C294.649 197.576 294.511 197.545 294.389 197.484C294.266 197.423 294.162 197.336 294.086 197.229C294.009 197.122 293.964 196.999 293.953 196.872C293.941 196.745 293.965 196.617 294.022 196.5C294.948 194.578 296.015 192.715 297.215 190.923C297.271 190.837 297.346 190.762 297.435 190.703C297.524 190.643 297.625 190.601 297.732 190.578C297.839 190.555 297.95 190.552 298.059 190.569C298.167 190.585 298.271 190.622 298.364 190.676C298.758 190.9 298.875 191.371 298.634 191.728C297.572 193.298 296.536 195.111 295.554 197.122C295.489 197.257 295.381 197.372 295.245 197.453C295.109 197.534 294.95 197.576 294.788 197.576ZM319.599 188.555C319.458 188.556 319.319 188.524 319.195 188.461C319.071 188.399 318.966 188.308 318.892 188.198C317.64 186.391 316.097 185.136 314.298 184.474C314.093 184.398 313.929 184.25 313.843 184.064C313.757 183.877 313.755 183.667 313.838 183.479C313.877 183.385 313.937 183.299 314.014 183.226C314.09 183.153 314.182 183.095 314.283 183.056C314.385 183.016 314.494 182.996 314.604 182.995C314.715 182.995 314.824 183.016 314.925 183.055C317.053 183.84 318.862 185.293 320.304 187.38C320.384 187.496 320.429 187.629 320.434 187.766C320.439 187.904 320.403 188.04 320.331 188.16C320.258 188.28 320.152 188.38 320.022 188.45C319.893 188.519 319.749 188.556 319.599 188.555ZM302.133 187.276C301.966 187.275 301.803 187.228 301.665 187.141C301.527 187.054 301.421 186.932 301.36 186.789C301.299 186.647 301.285 186.491 301.322 186.341C301.358 186.192 301.442 186.056 301.564 185.95C303.534 184.281 305.632 183.232 307.807 182.835C308.024 182.797 308.249 182.839 308.433 182.951C308.617 183.064 308.746 183.238 308.792 183.436C308.814 183.534 308.814 183.636 308.793 183.735C308.772 183.834 308.729 183.928 308.668 184.011C308.607 184.095 308.529 184.167 308.437 184.223C308.346 184.279 308.243 184.318 308.135 184.337C306.267 184.678 304.435 185.596 302.702 187.073C302.542 187.206 302.337 187.273 302.133 187.273V187.276ZM323.518 209.695H323.489C323.268 209.687 323.06 209.599 322.91 209.451C322.76 209.302 322.679 209.106 322.686 208.904C322.723 207.849 322.748 206.833 322.748 205.865C322.768 205.674 322.864 205.497 323.019 205.368C323.173 205.24 323.375 205.168 323.584 205.168C323.793 205.168 323.994 205.24 324.149 205.368C324.304 205.497 324.4 205.674 324.419 205.865C324.419 206.85 324.398 207.882 324.357 208.957C324.348 209.155 324.255 209.342 324.099 209.479C323.943 209.616 323.735 209.696 323.518 209.695ZM252.412 197.452C252.197 197.452 251.99 197.375 251.835 197.239C251.679 197.103 251.587 196.918 251.576 196.721C251.483 194.731 251.171 192.755 250.646 190.823C250.619 190.726 250.614 190.624 250.63 190.525C250.646 190.426 250.684 190.33 250.74 190.244C250.797 190.158 250.872 190.084 250.96 190.024C251.048 189.965 251.149 189.922 251.255 189.898C251.708 189.758 252.156 190.045 252.266 190.452C252.478 191.22 252.656 191.999 252.802 192.79C253.324 190.913 253.933 189.016 254.623 187.146C254.698 186.957 254.85 186.801 255.047 186.712C255.244 186.623 255.472 186.607 255.681 186.668C255.891 186.733 256.065 186.871 256.164 187.053C256.263 187.234 256.28 187.444 256.21 187.637C255.503 189.557 254.879 191.503 254.338 193.468C254.229 193.879 253.798 194.153 253.324 194.026C253.195 193.997 253.076 193.94 252.977 193.859C253.112 194.78 253.2 195.712 253.251 196.651C253.261 196.854 253.182 197.052 253.033 197.203C252.883 197.353 252.674 197.443 252.452 197.452H252.412ZM205.975 190.593C205.845 190.593 205.717 190.565 205.601 190.512C205.485 190.459 205.384 190.382 205.306 190.287C205.228 190.192 205.175 190.082 205.152 189.965C205.129 189.848 205.136 189.728 205.172 189.614C205.208 189.507 206.011 187.016 207.77 183.803C207.871 183.623 208.046 183.487 208.255 183.422C208.465 183.358 208.694 183.371 208.894 183.459C209.092 183.551 209.242 183.71 209.312 183.903C209.381 184.096 209.365 184.306 209.266 184.488C208.276 186.276 207.444 188.133 206.777 190.042C206.726 190.2 206.62 190.34 206.476 190.439C206.331 190.538 206.155 190.592 205.975 190.593ZM396.142 188.215C395.925 188.215 395.716 188.138 395.559 187.999C395.402 187.861 395.311 187.672 395.303 187.473C395.24 185.466 395.043 183.464 394.712 181.479C394.695 181.379 394.7 181.277 394.726 181.179C394.752 181.081 394.798 180.989 394.864 180.908C394.929 180.827 395.011 180.758 395.105 180.706C395.199 180.653 395.304 180.619 395.413 180.604C395.887 180.564 396.296 180.824 396.365 181.245C396.704 183.249 396.909 185.333 396.978 187.427C396.984 187.629 396.902 187.826 396.75 187.973C396.599 188.121 396.389 188.208 396.168 188.215H396.142ZM249.161 185.66C249.004 185.66 248.85 185.62 248.717 185.544C248.584 185.468 248.477 185.358 248.409 185.229C247.45 183.441 246.296 181.746 244.965 180.17C244.85 180.007 244.805 179.811 244.841 179.621C244.877 179.43 244.99 179.259 245.158 179.141C245.326 179.023 245.536 178.968 245.746 178.986C245.957 179.004 246.152 179.094 246.293 179.238C247.701 180.908 248.92 182.698 249.913 184.561C249.974 184.678 250.003 184.807 249.995 184.936C249.988 185.066 249.944 185.191 249.869 185.301C249.794 185.411 249.689 185.501 249.566 185.564C249.442 185.627 249.302 185.66 249.161 185.66ZM257.794 182.42C257.656 182.42 257.52 182.388 257.399 182.328C257.277 182.268 257.174 182.181 257.098 182.076C257.022 181.971 256.975 181.85 256.962 181.724C256.949 181.598 256.97 181.472 257.024 181.355C257.921 179.432 258.896 177.548 259.932 175.765C260.151 175.394 260.662 175.257 261.063 175.447C261.472 175.648 261.625 176.109 261.41 176.483C260.395 178.229 259.439 180.073 258.564 181.956C258.499 182.095 258.392 182.213 258.255 182.296C258.118 182.379 257.958 182.42 257.794 182.42ZM341.178 182.237H341.105C340.892 182.22 340.694 182.129 340.552 181.983C340.41 181.838 340.333 181.647 340.339 181.452L340.35 180.797C340.35 180.604 340.426 180.43 340.554 180.296C340.751 179.348 341.094 177.822 341.63 175.932C341.651 175.827 341.694 175.728 341.759 175.64C341.823 175.552 341.906 175.477 342.004 175.42C342.101 175.363 342.21 175.325 342.324 175.308C342.438 175.291 342.555 175.297 342.667 175.323C342.779 175.35 342.884 175.397 342.975 175.462C343.066 175.528 343.141 175.61 343.196 175.703C343.25 175.796 343.284 175.898 343.293 176.004C343.302 176.109 343.288 176.215 343.25 176.316C342.746 178.054 342.33 179.812 342.003 181.586C341.972 181.766 341.873 181.931 341.721 182.05C341.57 182.17 341.378 182.236 341.178 182.237ZM211.988 179.672C211.833 179.672 211.682 179.632 211.55 179.558C211.419 179.484 211.312 179.378 211.242 179.251C211.173 179.125 211.143 178.984 211.156 178.843C211.169 178.702 211.225 178.567 211.316 178.453C212.765 176.646 214.345 175.093 216.001 173.844C216.086 173.78 216.183 173.732 216.288 173.703C216.393 173.673 216.503 173.663 216.613 173.672C216.722 173.682 216.828 173.711 216.925 173.758C217.022 173.805 217.108 173.869 217.178 173.946C217.248 174.024 217.301 174.113 217.333 174.209C217.365 174.305 217.376 174.406 217.366 174.506C217.356 174.606 217.324 174.703 217.273 174.792C217.221 174.88 217.151 174.959 217.067 175.023C215.512 176.192 214.035 177.655 212.663 179.361C212.585 179.458 212.483 179.537 212.366 179.59C212.248 179.644 212.119 179.672 211.988 179.672ZM394.088 176.165C393.723 176.165 393.395 175.948 393.285 175.618C392.661 173.695 391.888 171.816 390.972 169.994C390.926 169.903 390.899 169.804 390.895 169.704C390.89 169.604 390.907 169.504 390.945 169.41C390.983 169.315 391.042 169.229 391.116 169.156C391.191 169.082 391.281 169.023 391.381 168.982C391.48 168.939 391.588 168.914 391.698 168.91C391.808 168.905 391.918 168.921 392.021 168.956C392.124 168.991 392.219 169.044 392.3 169.113C392.38 169.181 392.445 169.264 392.49 169.356C393.435 171.219 394.241 173.18 394.887 175.18C394.926 175.295 394.934 175.416 394.912 175.534C394.889 175.652 394.837 175.763 394.759 175.859C394.681 175.955 394.579 176.033 394.462 176.086C394.345 176.139 394.219 176.166 394.088 176.165ZM241.042 176.022C240.841 176.021 240.647 175.955 240.495 175.835C239.006 174.652 237.952 174.055 237.941 174.048C236.999 173.584 236.031 173.167 235.04 172.799C234.835 172.723 234.671 172.575 234.585 172.389C234.499 172.202 234.497 171.992 234.581 171.804C234.664 171.616 234.825 171.466 235.029 171.387C235.233 171.308 235.463 171.307 235.668 171.383C236.686 171.757 237.729 172.211 238.777 172.726C238.864 172.772 239.984 173.407 241.593 174.679C241.724 174.78 241.817 174.916 241.861 175.068C241.904 175.22 241.895 175.38 241.835 175.527C241.775 175.673 241.668 175.8 241.526 175.888C241.385 175.977 241.214 176.024 241.042 176.022ZM340.773 175.467C340.57 175.468 340.375 175.401 340.222 175.279C340.069 175.158 339.969 174.99 339.941 174.806C339.638 172.762 339.164 170.799 338.525 168.982C338.458 168.788 338.477 168.577 338.579 168.396C338.681 168.215 338.857 168.079 339.069 168.017C339.281 167.958 339.51 167.977 339.706 168.071C339.903 168.164 340.051 168.325 340.12 168.518C340.784 170.421 341.287 172.468 341.601 174.596C341.617 174.696 341.61 174.798 341.583 174.895C341.555 174.993 341.507 175.085 341.44 175.166C341.374 175.246 341.291 175.314 341.196 175.365C341.101 175.417 340.995 175.45 340.886 175.464L340.773 175.467ZM222.299 172.174C222.101 172.175 221.908 172.111 221.757 171.994C221.605 171.877 221.504 171.714 221.472 171.535C221.439 171.356 221.477 171.172 221.579 171.016C221.682 170.86 221.841 170.743 222.029 170.685C224.246 169.983 226.598 169.71 228.936 169.883C229.046 169.89 229.153 169.916 229.251 169.96C229.35 170.005 229.438 170.067 229.51 170.143C229.582 170.218 229.638 170.307 229.672 170.402C229.707 170.497 229.721 170.598 229.713 170.698C229.684 171.119 229.315 171.497 228.823 171.41C228.416 171.385 228.008 171.371 227.601 171.37H227.575C225.86 171.37 224.174 171.627 222.573 172.131C222.485 172.16 222.392 172.175 222.299 172.174ZM264.066 171.613C263.914 171.615 263.765 171.579 263.634 171.508C263.504 171.438 263.397 171.336 263.324 171.214C263.252 171.092 263.218 170.954 263.225 170.816C263.232 170.677 263.281 170.543 263.365 170.428C264.603 168.696 265.939 167.025 267.368 165.422C267.437 165.344 267.523 165.279 267.62 165.232C267.716 165.184 267.823 165.154 267.932 165.144C268.041 165.134 268.151 165.144 268.257 165.173C268.362 165.202 268.46 165.25 268.545 165.313C268.63 165.377 268.7 165.455 268.752 165.544C268.804 165.632 268.837 165.729 268.848 165.829C268.859 165.929 268.848 166.03 268.816 166.126C268.785 166.223 268.733 166.312 268.663 166.39C267.295 167.923 265.981 169.563 264.763 171.266C264.687 171.372 264.584 171.46 264.462 171.52C264.341 171.581 264.204 171.613 264.066 171.613ZM344.422 171.029C344.288 171.029 344.155 170.999 344.037 170.942C343.918 170.885 343.815 170.803 343.738 170.703C343.661 170.602 343.611 170.487 343.593 170.365C343.575 170.243 343.589 170.119 343.634 170.004C344.433 167.977 345.323 166.05 346.283 164.276C346.33 164.185 346.398 164.103 346.48 164.035C346.563 163.968 346.66 163.916 346.764 163.883C346.869 163.85 346.98 163.837 347.091 163.843C347.201 163.85 347.309 163.877 347.408 163.922C347.508 163.967 347.596 164.03 347.668 164.106C347.741 164.183 347.796 164.272 347.83 164.369C347.865 164.465 347.878 164.567 347.869 164.668C347.86 164.769 347.829 164.867 347.779 164.957C346.809 166.768 345.951 168.626 345.21 170.525C345.15 170.672 345.043 170.799 344.902 170.888C344.761 170.978 344.593 171.029 344.422 171.029ZM388.484 165.091C388.345 165.091 388.209 165.06 388.088 165C387.966 164.94 387.863 164.853 387.787 164.747C386.583 163.072 385.244 161.483 383.781 159.991C383.632 159.841 383.556 159.643 383.567 159.44C383.579 159.238 383.678 159.048 383.843 158.913C384.007 158.777 384.224 158.707 384.445 158.718C384.666 158.728 384.873 158.819 385.021 158.97C386.528 160.496 387.925 162.159 389.181 163.906C389.262 164.021 389.308 164.154 389.315 164.291C389.321 164.428 389.287 164.564 389.216 164.685C389.145 164.807 389.04 164.908 388.912 164.979C388.784 165.051 388.634 165.089 388.484 165.091ZM336.646 163.929C336.499 163.929 336.353 163.894 336.226 163.826C336.098 163.758 335.992 163.659 335.92 163.541C334.846 161.822 333.558 160.221 332.082 158.772C331.996 158.701 331.927 158.614 331.88 158.517C331.833 158.42 331.808 158.315 331.807 158.209C331.806 158.103 331.829 157.998 331.875 157.901C331.921 157.803 331.989 157.715 332.073 157.643C332.158 157.57 332.258 157.515 332.368 157.479C332.477 157.444 332.593 157.43 332.709 157.438C332.825 157.446 332.937 157.476 333.04 157.526C333.142 157.575 333.232 157.644 333.304 157.727C334.862 159.263 336.234 160.963 337.372 162.783C337.445 162.9 337.484 163.032 337.483 163.166C337.483 163.3 337.444 163.432 337.37 163.548C337.297 163.664 337.191 163.76 337.064 163.827C336.937 163.894 336.793 163.929 336.646 163.929ZM272.531 162.159C272.365 162.158 272.203 162.112 272.065 162.027C271.927 161.941 271.821 161.821 271.758 161.68C271.695 161.539 271.68 161.384 271.714 161.235C271.747 161.086 271.829 160.95 271.947 160.843C273.596 159.38 275.333 158.021 277.11 156.805C277.198 156.745 277.298 156.702 277.404 156.677C277.511 156.652 277.621 156.647 277.73 156.661C277.839 156.676 277.943 156.71 278.037 156.761C278.132 156.812 278.214 156.88 278.28 156.961C278.345 157.041 278.393 157.133 278.42 157.23C278.447 157.327 278.453 157.429 278.437 157.528C278.421 157.627 278.384 157.723 278.328 157.809C278.272 157.896 278.198 157.971 278.11 158.031C276.395 159.207 274.709 160.522 273.111 161.942C272.956 162.081 272.748 162.159 272.531 162.159ZM350.453 160.122C350.277 160.12 350.107 160.069 349.964 159.975C349.786 159.855 349.666 159.676 349.63 159.476C349.595 159.276 349.646 159.071 349.774 158.906C351.105 157.188 352.661 155.625 354.408 154.254C354.492 154.189 354.589 154.14 354.694 154.109C354.798 154.079 354.909 154.067 355.018 154.076C355.127 154.084 355.234 154.112 355.332 154.158C355.429 154.204 355.516 154.267 355.587 154.344C355.658 154.421 355.711 154.51 355.745 154.605C355.778 154.701 355.791 154.802 355.782 154.902C355.772 155.002 355.742 155.1 355.692 155.189C355.641 155.279 355.572 155.358 355.488 155.423C353.956 156.602 352.493 158.074 351.132 159.801C351.054 159.899 350.952 159.979 350.834 160.034C350.716 160.089 350.586 160.122 350.453 160.122ZM379.552 156.027C379.362 156.028 379.178 155.969 379.03 155.86C377.249 154.551 376.038 153.92 376.027 153.913C375.198 153.558 374.352 153.237 373.491 152.951C373.294 152.875 373.136 152.732 373.05 152.552C372.964 152.372 372.957 152.168 373.03 151.984C373.103 151.799 373.25 151.647 373.442 151.558C373.633 151.47 373.855 151.452 374.06 151.509C374.951 151.806 375.863 152.153 376.797 152.554C376.903 152.607 378.18 153.272 380.073 154.665C380.207 154.765 380.303 154.9 380.35 155.051C380.397 155.203 380.391 155.364 380.334 155.513C380.277 155.662 380.171 155.791 380.031 155.883C379.891 155.975 379.724 156.025 379.552 156.027ZM327.63 155.039C327.461 155.038 327.296 154.992 327.156 154.905C325.355 153.782 323.442 152.819 321.442 152.026C321.258 151.934 321.119 151.783 321.051 151.601C320.983 151.42 320.992 151.222 321.076 151.046C321.159 150.87 321.312 150.729 321.503 150.651C321.695 150.573 321.911 150.563 322.11 150.624C324.255 151.479 326.273 152.494 328.105 153.643C328.25 153.736 328.359 153.87 328.416 154.023C328.473 154.177 328.475 154.344 328.423 154.499C328.37 154.654 328.265 154.79 328.122 154.887C327.98 154.984 327.808 155.037 327.63 155.039ZM283.207 154.848C283.022 154.849 282.842 154.793 282.695 154.689C282.549 154.586 282.444 154.441 282.397 154.277C282.35 154.113 282.364 153.939 282.437 153.783C282.51 153.628 282.637 153.498 282.798 153.416C284.772 152.407 286.838 151.512 288.928 150.757C289.031 150.718 289.141 150.699 289.252 150.699C289.363 150.699 289.472 150.72 289.575 150.76C289.677 150.799 289.769 150.857 289.847 150.93C289.924 151.003 289.985 151.089 290.026 151.183C290.066 151.278 290.086 151.379 290.084 151.48C290.081 151.582 290.057 151.682 290.012 151.775C289.967 151.867 289.902 151.951 289.821 152.021C289.74 152.09 289.645 152.144 289.541 152.18C287.52 152.911 285.528 153.776 283.612 154.752C283.489 154.816 283.349 154.849 283.207 154.848ZM360.688 152.554C360.491 152.552 360.302 152.487 360.153 152.37C360.004 152.253 359.904 152.092 359.871 151.915C359.838 151.738 359.874 151.556 359.973 151.401C360.071 151.245 360.226 151.126 360.41 151.065C362.623 150.367 364.962 150.068 367.299 150.186C367.521 150.197 367.728 150.287 367.877 150.437C368.026 150.587 368.105 150.785 368.095 150.988C368.073 151.412 367.748 151.743 367.219 151.719C365.098 151.608 362.974 151.877 360.965 152.511C360.876 152.538 360.782 152.553 360.688 152.554ZM295.595 150.377C295.395 150.371 295.203 150.3 295.056 150.176C294.908 150.053 294.813 149.885 294.788 149.704C294.764 149.522 294.811 149.338 294.921 149.185C295.031 149.032 295.198 148.921 295.39 148.87C297.581 148.371 299.802 147.991 302.042 147.735C302.26 147.715 302.479 147.772 302.653 147.895C302.827 148.018 302.942 148.197 302.976 148.396C303.003 148.597 302.942 148.8 302.807 148.96C302.671 149.12 302.473 149.225 302.253 149.251C300.046 149.505 297.875 149.876 295.795 150.353C295.729 150.37 295.663 150.378 295.595 150.377ZM315.44 150.123C315.37 150.123 315.3 150.115 315.232 150.099C313.105 149.603 310.94 149.252 308.755 149.051C308.535 149.03 308.333 148.931 308.192 148.775C308.051 148.619 307.983 148.418 308.004 148.216C308.048 147.792 308.416 147.458 308.916 147.528C310.448 147.661 312.86 147.962 315.644 148.617C315.839 148.665 316.007 148.776 316.12 148.929C316.232 149.082 316.28 149.266 316.255 149.449C316.23 149.632 316.134 149.801 315.984 149.924C315.834 150.047 315.641 150.12 315.44 150.123Z" fill="#4C7891"/>
<path d="M311.102 154.247C310.981 154.248 310.861 154.224 310.752 154.178C310.642 154.132 310.544 154.065 310.465 153.981C310.387 153.897 310.329 153.799 310.296 153.693C310.262 153.586 310.255 153.475 310.273 153.366C310.627 151.302 311.032 149.264 311.477 147.304C311.527 147.108 311.658 146.938 311.844 146.829C312.029 146.721 312.253 146.684 312.468 146.725C312.683 146.767 312.872 146.884 312.994 147.052C313.116 147.219 313.161 147.424 313.119 147.621C312.664 149.604 312.266 151.597 311.926 153.599C311.895 153.779 311.795 153.943 311.644 154.062C311.493 154.181 311.301 154.246 311.102 154.247ZM313.86 142.285C313.731 142.285 313.604 142.258 313.489 142.205C313.373 142.153 313.272 142.077 313.194 141.983C313.116 141.89 313.063 141.781 313.039 141.665C313.014 141.549 313.019 141.43 313.054 141.316C313.663 139.286 314.331 137.299 315.049 135.425C315.126 135.235 315.281 135.08 315.48 134.993C315.68 134.905 315.909 134.893 316.119 134.957C316.327 135.026 316.498 135.166 316.593 135.349C316.689 135.531 316.702 135.741 316.629 135.933C315.899 137.839 315.244 139.77 314.666 141.72C314.619 141.882 314.514 142.025 314.369 142.128C314.224 142.23 314.047 142.286 313.864 142.288L313.86 142.285ZM374.162 140.06C373.946 140.061 373.738 139.984 373.582 139.847C373.425 139.71 373.333 139.524 373.323 139.326C373.229 137.31 373.001 135.301 372.641 133.311C372.606 133.11 372.66 132.905 372.789 132.741C372.919 132.576 373.115 132.465 373.334 132.433C373.443 132.415 373.555 132.417 373.662 132.439C373.77 132.462 373.872 132.504 373.962 132.563C374.051 132.622 374.127 132.697 374.184 132.784C374.241 132.871 374.278 132.967 374.294 133.067L374.348 133.361C374.706 132.042 375.166 130.763 375.709 129.537C375.806 129.366 375.968 129.234 376.165 129.168C376.363 129.101 376.58 129.105 376.774 129.178C376.969 129.251 377.126 129.388 377.215 129.562C377.305 129.736 377.319 129.935 377.256 130.118C376.443 131.958 375.849 133.873 375.487 135.829C375.458 135.99 375.373 136.137 375.246 136.251C375.119 136.364 374.955 136.438 374.779 136.46C374.899 137.579 374.965 138.538 374.998 139.266C375.006 139.468 374.926 139.666 374.776 139.814C374.625 139.963 374.417 140.052 374.195 140.06H374.162ZM422.676 136.166C422.472 136.165 422.275 136.096 422.123 135.972C421.97 135.848 421.872 135.677 421.848 135.492C421.848 135.462 421.508 132.934 420.304 129.681C420.269 129.586 420.254 129.485 420.261 129.385C420.269 129.284 420.298 129.186 420.346 129.096C420.395 129.006 420.463 128.926 420.546 128.86C420.629 128.794 420.725 128.744 420.83 128.712C420.933 128.679 421.043 128.664 421.152 128.67C421.262 128.676 421.369 128.702 421.467 128.746C421.566 128.79 421.654 128.852 421.726 128.927C421.798 129.003 421.853 129.091 421.888 129.187C422.642 131.176 423.185 133.227 423.508 135.311C423.521 135.411 423.513 135.512 423.483 135.609C423.453 135.705 423.403 135.796 423.335 135.874C423.268 135.953 423.184 136.019 423.088 136.068C422.992 136.117 422.887 136.148 422.778 136.16L422.676 136.166ZM318.322 130.763C318.182 130.764 318.043 130.733 317.92 130.672C317.796 130.611 317.691 130.522 317.615 130.414C317.539 130.306 317.494 130.182 317.484 130.054C317.475 129.926 317.501 129.797 317.56 129.681C318.49 127.798 319.532 125.963 320.679 124.184C320.734 124.097 320.808 124.021 320.895 123.96C320.983 123.899 321.083 123.855 321.189 123.83C321.295 123.805 321.406 123.8 321.515 123.815C321.623 123.83 321.728 123.864 321.821 123.917C322.219 124.13 322.351 124.598 322.113 124.962C321 126.695 319.989 128.482 319.085 130.315C319.018 130.449 318.91 130.562 318.775 130.641C318.64 130.721 318.483 130.763 318.322 130.763ZM371.988 127.978C371.808 127.977 371.633 127.923 371.49 127.824C371.346 127.726 371.24 127.587 371.189 127.43C370.532 125.413 369.729 123.533 368.817 121.846C368.742 121.668 368.742 121.47 368.818 121.292C368.894 121.114 369.039 120.968 369.226 120.883C369.413 120.797 369.628 120.779 369.829 120.831C370.03 120.883 370.203 121.002 370.313 121.165C371.273 122.931 372.108 124.892 372.79 126.992C372.829 127.107 372.837 127.228 372.815 127.346C372.793 127.464 372.74 127.575 372.662 127.671C372.584 127.767 372.482 127.845 372.365 127.898C372.248 127.952 372.119 127.979 371.988 127.978ZM379.716 125.252C379.563 125.252 379.413 125.212 379.282 125.139C379.152 125.066 379.045 124.961 378.975 124.837C378.905 124.712 378.873 124.573 378.883 124.433C378.894 124.293 378.946 124.158 379.033 124.044C380.351 122.364 381.901 120.797 383.638 119.385C383.805 119.26 384.018 119.199 384.233 119.215C384.448 119.231 384.647 119.322 384.79 119.469C384.934 119.617 385.009 119.809 385.001 120.006C384.993 120.203 384.902 120.39 384.747 120.527C383.105 121.863 381.639 123.346 380.394 124.935C380.317 125.034 380.215 125.114 380.097 125.169C379.979 125.224 379.848 125.253 379.716 125.252ZM418.374 124.608C418.226 124.608 418.081 124.573 417.953 124.506C417.825 124.438 417.718 124.341 417.644 124.224C416.581 122.504 415.271 120.922 413.747 119.522C413.658 119.454 413.584 119.369 413.532 119.274C413.48 119.179 413.45 119.075 413.444 118.968C413.438 118.862 413.457 118.756 413.498 118.656C413.54 118.556 413.603 118.466 413.685 118.39C413.767 118.314 413.865 118.255 413.973 118.216C414.082 118.176 414.198 118.158 414.314 118.162C414.43 118.166 414.545 118.192 414.649 118.239C414.754 118.286 414.847 118.352 414.922 118.433C416.48 119.846 417.885 121.535 419.096 123.459C419.169 123.575 419.207 123.707 419.207 123.841C419.206 123.975 419.168 124.107 419.095 124.223C419.022 124.339 418.917 124.436 418.79 124.503C418.664 124.571 418.52 124.607 418.374 124.608ZM325.178 120.3C325.021 120.299 324.868 120.257 324.736 120.18C324.603 120.103 324.497 119.994 324.429 119.865C324.361 119.735 324.334 119.591 324.351 119.449C324.368 119.306 324.428 119.17 324.525 119.057C326.01 117.358 327.597 115.835 329.236 114.532C329.406 114.421 329.615 114.372 329.822 114.395C330.03 114.417 330.22 114.51 330.357 114.654C330.494 114.799 330.567 114.985 330.562 115.176C330.557 115.367 330.474 115.549 330.33 115.688C328.692 117.003 327.187 118.451 325.831 120.013C325.753 120.102 325.653 120.174 325.54 120.224C325.427 120.274 325.304 120.3 325.178 120.3ZM389.622 117.147C389.475 117.147 389.331 117.112 389.203 117.046C389.076 116.979 388.97 116.882 388.896 116.766C388.785 116.59 388.755 116.381 388.812 116.184C388.87 115.987 389.01 115.82 389.202 115.718C391.946 114.272 393.946 113.681 394.026 113.657C394.646 113.534 395.172 113.447 395.683 113.373C396.164 113.327 396.569 113.594 396.642 114.008C396.677 114.209 396.623 114.414 396.492 114.579C396.362 114.744 396.165 114.854 395.945 114.886C395.46 114.953 394.964 115.033 394.46 115.133C394.471 115.133 392.585 115.704 390.038 117.047C389.911 117.113 389.768 117.148 389.622 117.147ZM365.96 117.13C365.838 117.13 365.717 117.106 365.606 117.059C365.495 117.011 365.397 116.942 365.318 116.857C363.955 115.34 362.347 114.022 360.549 112.949C360.389 112.83 360.283 112.66 360.251 112.474C360.219 112.287 360.263 112.096 360.375 111.938C360.487 111.779 360.659 111.664 360.858 111.614C361.057 111.564 361.269 111.583 361.454 111.667C363.344 112.779 365.077 114.195 366.602 115.875C366.743 116.031 366.811 116.233 366.791 116.435C366.77 116.637 366.663 116.823 366.493 116.953C366.343 117.068 366.155 117.13 365.96 117.13ZM408.895 116.249C408.772 116.248 408.651 116.223 408.541 116.175C406.599 115.357 404.521 114.845 402.393 114.662C402.172 114.641 401.97 114.541 401.83 114.384C401.69 114.227 401.623 114.026 401.645 113.824C401.692 113.407 402.061 113.056 402.564 113.14C404.943 113.357 407.198 113.914 409.245 114.789C409.415 114.865 409.552 114.99 409.634 115.145C409.717 115.301 409.739 115.477 409.699 115.646C409.658 115.814 409.557 115.966 409.411 116.075C409.265 116.184 409.083 116.246 408.895 116.249ZM335.289 112.428C335.099 112.431 334.914 112.375 334.764 112.269C334.614 112.163 334.509 112.013 334.464 111.845C334.42 111.676 334.44 111.499 334.521 111.342C334.602 111.185 334.739 111.058 334.909 110.982C337.281 109.88 338.835 109.636 338.901 109.623C339.74 109.423 340.627 109.239 341.492 109.082C341.6 109.061 341.711 109.06 341.819 109.079C341.928 109.098 342.031 109.137 342.122 109.193C342.214 109.249 342.293 109.321 342.354 109.405C342.415 109.489 342.456 109.584 342.477 109.683C342.499 109.782 342.499 109.884 342.477 109.983C342.455 110.083 342.412 110.177 342.35 110.261C342.289 110.345 342.209 110.416 342.117 110.472C342.025 110.528 341.921 110.566 341.813 110.585C340.952 110.739 340.097 110.917 339.248 111.119C339.164 111.136 337.785 111.363 335.668 112.345C335.551 112.4 335.421 112.428 335.289 112.428ZM354.908 110.645C354.838 110.644 354.768 110.637 354.7 110.621C352.694 110.16 350.632 109.931 348.563 109.94H348.297C348.088 109.922 347.895 109.834 347.754 109.693C347.614 109.551 347.536 109.367 347.536 109.175C347.536 108.984 347.614 108.8 347.754 108.658C347.895 108.517 348.088 108.428 348.297 108.411H348.563C350.884 108.411 353.087 108.658 355.12 109.139C355.312 109.189 355.479 109.302 355.589 109.455C355.699 109.608 355.746 109.793 355.72 109.975C355.695 110.157 355.599 110.325 355.45 110.448C355.301 110.571 355.109 110.64 354.908 110.645ZM232.661 150.557C232.52 150.557 232.381 150.523 232.257 150.461C232.133 150.398 232.029 150.308 231.953 150.198C231.878 150.088 231.834 149.963 231.826 149.834C231.817 149.704 231.845 149.575 231.906 149.458C231.957 149.368 233.085 147.234 235.336 144.061C235.393 143.973 235.47 143.896 235.56 143.835C235.651 143.775 235.754 143.731 235.864 143.708C235.973 143.684 236.087 143.681 236.198 143.699C236.308 143.717 236.414 143.755 236.508 143.811C236.603 143.867 236.684 143.94 236.747 144.025C236.809 144.11 236.853 144.206 236.874 144.307C236.895 144.408 236.894 144.512 236.871 144.613C236.847 144.714 236.802 144.809 236.737 144.893C234.548 147.979 233.427 150.103 233.417 150.123C233.348 150.253 233.241 150.363 233.107 150.44C232.974 150.517 232.819 150.557 232.661 150.557ZM239.922 140.244C239.765 140.245 239.611 140.205 239.478 140.13C239.344 140.054 239.237 139.945 239.168 139.816C239.1 139.687 239.072 139.542 239.089 139.399C239.107 139.256 239.168 139.121 239.265 139.008C240.652 137.372 242.122 135.779 243.637 134.283C243.789 134.136 243.997 134.05 244.218 134.042C244.439 134.034 244.654 134.105 244.819 134.239C244.981 134.377 245.077 134.569 245.086 134.771C245.095 134.974 245.016 135.172 244.866 135.321C243.381 136.788 241.94 138.344 240.579 139.947C240.502 140.039 240.402 140.114 240.288 140.165C240.174 140.217 240.049 140.244 239.922 140.244ZM320.231 139.623C320.063 139.623 319.9 139.577 319.762 139.491C319.623 139.405 319.516 139.284 319.453 139.142C319.08 138.288 318.657 137.453 318.187 136.641C318.136 136.552 318.104 136.455 318.093 136.354C318.083 136.254 318.094 136.153 318.126 136.057C318.159 135.961 318.211 135.872 318.281 135.794C318.351 135.717 318.437 135.652 318.534 135.605C318.631 135.558 318.737 135.529 318.847 135.519C318.956 135.51 319.066 135.52 319.171 135.55C319.276 135.579 319.374 135.627 319.459 135.691C319.543 135.755 319.614 135.834 319.665 135.923C320.165 136.788 320.614 137.679 321.008 138.571C321.058 138.687 321.077 138.813 321.062 138.938C321.048 139.062 321 139.181 320.923 139.285C320.847 139.389 320.743 139.474 320.623 139.533C320.502 139.592 320.367 139.623 320.231 139.623ZM315.181 131.989C315.059 131.989 314.938 131.965 314.827 131.918C314.716 131.871 314.618 131.803 314.539 131.718C313.131 130.193 311.573 128.791 309.883 127.53C309.798 127.467 309.727 127.389 309.675 127.3C309.623 127.212 309.591 127.115 309.58 127.015C309.569 126.915 309.58 126.814 309.612 126.718C309.644 126.622 309.696 126.532 309.766 126.455C309.907 126.299 310.11 126.2 310.33 126.18C310.549 126.16 310.769 126.22 310.941 126.348C312.751 127.7 314.389 129.177 315.819 130.729C315.921 130.841 315.986 130.977 316.006 131.121C316.027 131.265 316.002 131.412 315.935 131.544C315.868 131.676 315.762 131.787 315.628 131.866C315.495 131.945 315.34 131.987 315.181 131.989ZM249.029 131.281C248.859 131.282 248.693 131.236 248.552 131.148C248.411 131.06 248.304 130.935 248.243 130.79C248.183 130.644 248.173 130.485 248.214 130.334C248.255 130.183 248.346 130.047 248.475 129.945C250.204 128.542 251.992 127.24 253.784 126.074C253.965 125.976 254.18 125.944 254.385 125.985C254.591 126.025 254.773 126.135 254.894 126.292C255.016 126.449 255.069 126.642 255.042 126.833C255.015 127.024 254.911 127.199 254.751 127.323C253.007 128.459 251.27 129.724 249.588 131.087C249.436 131.212 249.234 131.282 249.029 131.281ZM259.939 124.234C259.789 124.233 259.642 124.196 259.513 124.125C259.384 124.055 259.278 123.954 259.206 123.833C259.101 123.654 259.078 123.444 259.143 123.249C259.207 123.054 259.353 122.891 259.549 122.794C261.546 121.811 263.614 120.952 265.737 120.223C265.941 120.169 266.159 120.187 266.349 120.274C266.538 120.361 266.685 120.51 266.759 120.692C266.833 120.874 266.829 121.075 266.747 121.255C266.666 121.434 266.514 121.578 266.321 121.659C264.299 122.347 262.289 123.185 260.337 124.144C260.215 124.202 260.076 124.233 259.939 124.234ZM304.906 124.227C304.76 124.228 304.617 124.193 304.49 124.127C302.301 122.978 300.783 122.437 300.768 122.43C300.02 122.173 299.272 121.93 298.532 121.702C298.322 121.638 298.148 121.499 298.049 121.318C297.95 121.137 297.933 120.927 298.003 120.734C298.149 120.333 298.63 120.129 299.061 120.25C299.823 120.483 300.59 120.734 301.359 121.001C301.432 121.024 303.012 121.589 305.318 122.798C305.478 122.881 305.604 123.011 305.675 123.166C305.747 123.322 305.76 123.495 305.713 123.658C305.666 123.821 305.561 123.965 305.415 124.068C305.269 124.171 305.09 124.227 304.906 124.227ZM292.354 120.119C292.295 120.119 292.237 120.112 292.179 120.099C289.99 119.679 287.801 119.381 285.67 119.224C285.56 119.217 285.453 119.189 285.355 119.144C285.257 119.098 285.17 119.035 285.099 118.958C285.027 118.882 284.974 118.793 284.94 118.697C284.907 118.601 284.894 118.5 284.904 118.4C284.94 117.975 285.345 117.631 285.805 117.698C288.005 117.858 290.264 118.166 292.526 118.603C292.728 118.642 292.906 118.749 293.028 118.901C293.149 119.054 293.205 119.242 293.183 119.43C293.162 119.618 293.066 119.792 292.913 119.919C292.759 120.045 292.561 120.119 292.354 120.119ZM272.44 119.999C272.248 119.999 272.063 119.939 271.914 119.829C271.765 119.719 271.662 119.566 271.622 119.395C271.599 119.296 271.597 119.195 271.616 119.096C271.636 118.997 271.677 118.902 271.736 118.818C271.796 118.734 271.874 118.661 271.964 118.604C272.055 118.547 272.157 118.507 272.265 118.486C274.472 118.052 276.738 117.768 279 117.638C279.547 117.678 279.861 117.939 279.89 118.356C279.904 118.559 279.83 118.759 279.682 118.912C279.535 119.065 279.328 119.158 279.106 119.171C276.924 119.288 274.738 119.565 272.615 119.979C272.557 119.992 272.499 119.998 272.44 119.999ZM333.286 110.241L333.154 110.231C332.935 110.198 332.74 110.087 332.61 109.923C332.48 109.758 332.426 109.553 332.461 109.352C332.483 109.252 332.906 106.881 333.862 103.271C333.919 103.076 334.056 102.908 334.244 102.802C334.432 102.697 334.657 102.661 334.873 102.703C335.089 102.751 335.276 102.875 335.392 103.048C335.508 103.222 335.545 103.43 335.493 103.628C334.959 105.603 334.499 107.593 334.114 109.596C334.082 109.776 333.982 109.939 333.831 110.057C333.68 110.175 333.484 110.24 333.286 110.241ZM336.431 98.2882C336.3 98.2886 336.172 98.2609 336.055 98.2075C335.938 98.1541 335.837 98.0764 335.759 97.9806C335.68 97.8848 335.628 97.7737 335.605 97.656C335.583 97.5383 335.591 97.4174 335.628 97.303C336.296 95.2792 337.018 93.3054 337.777 91.4386C337.815 91.344 337.872 91.2572 337.947 91.1832C338.021 91.1092 338.111 91.0495 338.211 91.0076C338.31 90.9656 338.418 90.9423 338.528 90.9388C338.638 90.9354 338.747 90.9521 338.85 90.9877C339.058 91.0584 339.228 91.2018 339.321 91.3864C339.414 91.5711 339.423 91.782 339.346 91.9729C338.598 93.8097 337.887 95.7501 337.23 97.7438C337.121 98.0778 336.792 98.2882 336.431 98.2882ZM376.352 91.1547H376.341C376.119 91.1512 375.909 91.0678 375.754 90.9227C375.6 90.7776 375.514 90.5825 375.516 90.3799L375.52 89.8055C375.52 87.8518 375.418 86.0183 375.224 84.3619C375.201 84.1595 375.266 83.9569 375.405 83.7985C375.545 83.6401 375.747 83.5388 375.969 83.5169C376.465 83.5003 376.844 83.7808 376.888 84.1982C377.089 85.9115 377.191 87.7984 377.194 89.8055L377.191 90.4033C377.187 90.6044 377.097 90.796 376.94 90.9366C376.783 91.0773 376.571 91.1556 376.352 91.1547ZM341.141 86.8132C341.001 86.8129 340.862 86.7801 340.739 86.7179C340.615 86.6557 340.511 86.5661 340.435 86.4573C340.36 86.3485 340.315 86.2241 340.306 86.0954C340.297 85.9667 340.323 85.838 340.382 85.7211C341.404 83.7374 342.491 81.8972 343.604 80.2508C343.729 80.0956 343.914 79.9891 344.12 79.9526C344.327 79.916 344.542 79.9519 344.721 80.0533C344.9 80.1547 345.031 80.314 345.088 80.4997C345.145 80.6854 345.123 80.8838 345.027 81.0556C343.873 82.7715 342.83 84.5479 341.904 86.3757C341.836 86.5075 341.729 86.6189 341.594 86.697C341.46 86.775 341.304 86.8165 341.145 86.8165L341.141 86.8132ZM374.761 79.0552C374.582 79.0552 374.408 79.0027 374.264 78.9053C374.12 78.8079 374.014 78.6708 373.962 78.5142C373.247 76.4302 372.283 74.6936 371.083 73.3678C370.952 73.2097 370.892 73.0111 370.917 72.8139C370.943 72.6166 371.05 72.4359 371.218 72.3097C371.385 72.1835 371.6 72.1217 371.816 72.1371C372.033 72.1526 372.234 72.2442 372.378 72.3926C373.71 73.8754 374.779 75.7823 375.556 78.06C375.597 78.1745 375.607 78.2961 375.586 78.4149C375.565 78.5337 375.514 78.6462 375.436 78.7433C375.358 78.8404 375.257 78.9193 375.139 78.9735C375.022 79.0277 374.892 79.0557 374.761 79.0552ZM348.297 76.5004C348.135 76.5001 347.977 76.4571 347.842 76.3766C347.707 76.2961 347.6 76.1814 347.535 76.0465C347.469 75.9116 347.448 75.7622 347.473 75.6164C347.498 75.4706 347.569 75.3345 347.676 75.2246C349.351 73.5214 351.121 72.1488 352.941 71.1336C353.132 71.0305 353.359 70.9998 353.573 71.0478C353.788 71.0959 353.974 71.2189 354.091 71.3907C354.205 71.5645 354.24 71.7726 354.187 71.9697C354.135 72.1668 353.999 72.3369 353.81 72.4427C351.988 73.4886 350.342 74.7698 348.921 76.2466C348.842 76.3264 348.747 76.3903 348.64 76.4341C348.533 76.4778 348.414 76.5004 348.297 76.5004ZM359.6 70.5191C359.382 70.528 359.168 70.458 359.005 70.3242C358.842 70.1904 358.743 70.0034 358.729 69.8035C358.715 69.6035 358.788 69.4066 358.931 69.255C359.074 69.1034 359.276 69.0093 359.495 68.9929C359.823 68.9595 360.151 68.9294 360.48 68.9094C360.837 68.8158 362.001 68.542 363.559 68.542C364.544 68.542 365.511 68.6522 366.431 68.8659C366.876 68.9661 367.15 69.3836 367.033 69.7944C367.008 69.8929 366.962 69.9858 366.897 70.0675C366.832 70.1493 366.75 70.2181 366.655 70.2699C366.56 70.3218 366.455 70.3555 366.346 70.369C366.236 70.3825 366.125 70.3756 366.018 70.3487C365.214 70.1657 364.388 70.0737 363.559 70.0749C361.994 70.0749 360.896 70.3922 360.888 70.3955C360.819 70.4165 360.746 70.43 360.673 70.4356C360.314 70.4504 359.957 70.4782 359.6 70.5191Z" fill="#4C7891"/>
<path d="M490.626 184.558C490.323 184.397 489.841 184.437 489.363 184.674L476.75 191.364C475.746 191.881 474.922 193.157 474.922 194.233C474.922 194.75 475.141 195.108 475.443 195.268L473.313 194.152C472.962 193.952 472.747 193.595 472.747 193.077C472.747 192.042 473.572 190.729 474.571 190.212L487.189 183.562C487.71 183.282 488.145 183.242 488.495 183.442L490.626 184.558Z" fill="#CAD0DD"/>
<path d="M489.349 184.688C490.348 184.16 491.158 184.581 491.162 185.633C491.166 186.685 490.359 187.984 489.36 188.515L476.75 195.178C475.75 195.705 474.914 195.271 474.911 194.219C474.911 193.167 475.739 191.882 476.739 191.351L489.349 184.688Z" fill="#D4DAE8"/>
<path d="M510.986 173.844C510.635 173.644 510.201 173.687 509.679 173.924L497.066 180.614C496.062 181.131 495.238 182.407 495.238 183.483C495.238 184 495.457 184.358 495.803 184.558L493.629 183.402C493.322 183.242 493.107 182.845 493.107 182.327C493.107 181.292 493.932 179.976 494.931 179.458L507.549 172.812C508.027 172.532 508.505 172.492 508.811 172.692L510.986 173.844Z" fill="#CAD0DD"/>
<path d="M509.68 173.944C510.68 173.413 511.49 173.837 511.493 174.886C511.493 175.938 510.69 177.24 509.694 177.768L497.084 184.434C496.085 184.961 495.245 184.524 495.245 183.475C495.245 182.427 496.07 181.138 497.07 180.603L509.68 173.944Z" fill="#D4DAE8"/>
<path d="M516.793 263.801L543.957 320.648L595 298.199L594.962 253.657L516.793 263.801Z" fill="#C78C61"/>
<path d="M559.229 296.521L549.897 300.293V312.939L559.229 309.067V296.521Z" fill="#FFE1B4" fill-opacity="0.7"/>
<path d="M543.146 231.206C543.663 230.979 544.252 230.981 544.767 231.211L594.962 253.656L543.958 275.748V320.648L492.915 298.199V253.298L543.146 231.206Z" fill="#E6A475"/>
<path d="M543.958 275.749V320.648L492.915 298.199V253.298L543.958 275.749Z" fill="#A06841"/>
<path d="M526.892 238.379L577.631 261.158L560.454 268.568L511.101 245.324H511.098" fill="#FFCC80"/>
<path d="M510.853 278.65L518.485 274.513L526.36 285.451L520.562 282.908V301.439L516.528 299.664V281.139L510.853 278.65Z" fill="#7D5133"/>
<path d="M561.418 276.703V280.318L584.243 270.277V266.665L561.418 276.703Z" fill="#A06841"/>
<path d="M561.418 285.705V289.32L584.243 279.281V275.668L561.418 285.705Z" fill="#A06841"/>
<path d="M523.488 228.486L543.942 271.29L582.375 254.387L582.837 221.244L523.488 228.486Z" fill="#C78C61"/>
<path d="M555.441 253.123L548.414 255.963V265.485L555.441 262.57V253.123Z" fill="#FFE1B4" fill-opacity="0.7"/>
<path d="M543.126 204.032C543.646 203.804 544.238 203.807 544.755 204.04L582.838 221.244L543.942 237.481V271.288L505.509 254.385V220.576L543.126 204.032Z" fill="#E6AB75"/>
<path d="M543.942 237.484V271.291L505.509 254.388V220.579L543.942 237.484Z" fill="#A07441"/>
<path d="M531.209 209.274L570.284 226.466L557.962 231.696L519.319 214.504H519.317" fill="#FDD498"/>
<path d="M519.016 239.664L524.763 236.55L530.693 244.786L526.327 242.871V256.823L523.289 255.487V241.538L519.016 239.664Z" fill="#7D5133"/>
<path d="M557.089 238.2V240.922L574.276 233.36V230.64L557.089 238.2Z" fill="#A06841"/>
<path d="M557.089 244.976V247.698L574.275 240.138V237.417L557.089 244.976Z" fill="#A06841"/>
<path d="M529.147 200.964L544.254 232.581L572.643 220.096L572.734 195.312L529.147 200.964Z" fill="#C78C61"/>
<path d="M552.751 219.16L547.559 221.258V228.291L552.751 226.138V219.16Z" fill="#FFE1B4" fill-opacity="0.7"/>
<path d="M544.254 182.638L572.734 195.314L544.254 207.609V232.581L515.866 220.096V195.123L544.254 182.638Z" fill="#E6AB75"/>
<path d="M544.256 207.607V232.579L515.867 220.093V195.121L544.256 207.607Z" fill="#A07441"/>
<path d="M534.85 186.775L563.64 199.017L553.537 203.648L526.067 190.637" fill="#FDD498"/>
<path d="M525.844 209.219L530.088 206.918L534.468 213.002L531.244 211.588V221.894L529 220.906V210.603L525.844 209.219Z" fill="#7D5133"/>
<path d="M553.966 208.136V210.147L566.661 204.562V202.552L553.966 208.136Z" fill="#A06841"/>
<path d="M553.966 213.142V215.153L566.661 209.569V207.559L553.966 213.142Z" fill="#A06841"/>
<path d="M433.211 299.164L460.375 356.011L511.418 333.562L511.38 289.02L433.211 299.164Z" fill="#C78C61"/>
<path d="M475.647 331.885L466.315 335.657V348.303L475.647 344.431V331.885Z" fill="#FFE1B4" fill-opacity="0.7"/>
<path d="M459.564 266.571C460.081 266.344 460.67 266.345 461.185 266.576L511.38 289.021L460.375 311.113V356.012L409.333 333.564V288.662L459.564 266.571Z" fill="#E6A475"/>
<path d="M460.375 311.112V356.011L409.333 333.562V288.661L460.375 311.112Z" fill="#A06841"/>
<path d="M443.31 273.744L494.048 296.524L476.872 303.933L427.519 280.689H427.516" fill="#FFCC80"/>
<path d="M427.271 314.012L434.903 309.875L442.778 320.813L436.98 318.271V336.801L432.945 335.026V316.501L427.271 314.012Z" fill="#7D5133"/>
<path d="M477.836 312.066V315.681L500.66 305.64V302.027L477.836 312.066Z" fill="#A06841"/>
<path d="M477.835 321.067V324.682L500.66 314.643V311.03L477.835 321.067Z" fill="#A06841"/>
<path d="M439.907 263.85L460.36 306.653L498.793 289.751L499.256 256.607L439.907 263.85Z" fill="#C78C61"/>
<path d="M471.86 288.486L464.833 291.326V300.848L471.86 297.932V288.486Z" fill="#FFE1B4" fill-opacity="0.7"/>
<path d="M459.545 239.397C460.064 239.168 460.656 239.171 461.173 239.405L499.257 256.608L460.361 272.845V306.652L421.928 289.749V255.94L459.545 239.397Z" fill="#E6AB75"/>
<path d="M460.361 272.848V306.655L421.928 289.753V255.944L460.361 272.848Z" fill="#A07441"/>
<path d="M447.628 244.639L486.702 261.83L474.38 267.061L435.738 249.868H435.736" fill="#FDD498"/>
<path d="M435.435 275.029L441.181 271.915L447.111 280.15L442.746 278.236V292.188L439.708 290.852V276.903L435.435 275.029Z" fill="#7D5133"/>
<path d="M473.508 273.564V276.286L490.694 268.724V266.004L473.508 273.564Z" fill="#A06841"/>
<path d="M473.508 280.34V283.062L490.694 275.502V272.782L473.508 280.34Z" fill="#A06841"/>
<path d="M445.564 236.328L460.672 267.945L489.061 255.46L489.151 230.677L445.564 236.328Z" fill="#C78C61"/>
<path d="M469.168 254.524L463.976 256.622V263.656L469.168 261.502V254.524Z" fill="#FFE1B4" fill-opacity="0.7"/>
<path d="M460.672 218.001L489.151 230.678L460.672 242.973V267.945L432.284 255.46V230.487L460.672 218.001Z" fill="#E6AB75"/>
<path d="M460.673 242.971V267.943L432.285 255.458V230.485L460.673 242.971Z" fill="#A07441"/>
<path d="M451.267 222.14L480.058 234.382L469.954 239.013L442.485 226.002" fill="#FDD498"/>
<path d="M442.262 244.583L446.506 242.282L450.886 248.366L447.662 246.951V257.257L445.418 256.27V245.967L442.262 244.583Z" fill="#7D5133"/>
<path d="M470.384 243.5V245.511L483.078 239.926V237.916L470.384 243.5Z" fill="#A06841"/>
<path d="M470.384 248.507V250.518L483.078 244.933V242.924L470.384 248.507Z" fill="#A06841"/>
</svg>
