<svg width="595" height="357" viewBox="0 0 595 357" fill="none" xmlns="http://www.w3.org/2000/svg">
<path d="M433.261 259.801L350.015 354.143L190.7 324.253L273.946 229.91L433.261 259.801Z" fill="#CAD0DD"/>
<path d="M451.108 283.941L294.783 356.012L172.853 300.168L329.179 228.098L451.108 283.941Z" fill="#E4E8F4"/>
<path d="M243.839 303.259V305.862H242.893L242.873 304.305V303.706L242.51 303.714L233.773 303.874L232.263 303.897L232.253 303.778L232.223 303.155L232.022 299.697L231.991 299.106L231.981 298.89L231.941 298.236L231.76 294.985L231.73 294.402H211.527V293.684L211.497 289.891V289.667L212.373 289.691V289.907L212.443 293.676V293.971H232.656L232.686 294.554L232.918 298.675L232.948 299.33L233.179 303.338V303.466L234.246 303.442L241.615 303.299L242.943 303.275L243.839 303.259Z" fill="#ED435C"/>
<path d="M228.901 305.918H228.055V305.711L232.253 303.778V303.898L233.773 303.874L238.162 305.878L242.691 303.794L242.51 303.714H242.872V304.305L239.46 305.878L236.873 305.886L232.907 304.073L228.901 305.918ZM282.875 305.519L281.164 306.301L227.794 281.865L229.505 281.075L282.875 305.519Z" fill="#CAD0DD"/>
<path d="M264.072 308.937L262.401 309.112L259.049 310.67L257.156 309.799L256.069 309.919L258.394 311.013L256.502 311.883L258.032 311.764L259.049 311.3L259.773 311.652L260.941 311.532L259.703 310.957L264.072 308.937ZM264.072 308.937L262.401 309.112L259.049 310.67L257.156 309.799L256.069 309.919L258.394 311.013L256.502 311.883L258.032 311.764L259.049 311.3L259.773 311.652L260.941 311.532L259.703 310.957L264.072 308.937ZM264.072 308.937L262.401 309.112L259.049 310.67L257.156 309.799L256.069 309.919L258.394 311.013L256.502 311.883L258.032 311.764L259.049 311.3L259.773 311.652L260.941 311.532L259.703 310.957L264.072 308.937ZM264.072 308.937L262.401 309.112L259.049 310.67L257.156 309.799L256.069 309.919L258.394 311.013L256.502 311.883L258.032 311.764L259.049 311.3L259.773 311.652L260.941 311.532L259.703 310.957L264.072 308.937ZM264.072 308.937L262.401 309.112L259.049 310.67L257.156 309.799L256.069 309.919L258.394 311.013L256.502 311.883L258.032 311.764L259.049 311.3L259.773 311.652L260.941 311.532L259.703 310.957L264.072 308.937ZM275.356 308.593L274.701 308.242L270.121 306.166L269.457 305.87L264.877 303.794L264.223 303.45L259.633 301.374L258.978 301.079L254.388 299.002L253.734 298.651L249.144 296.575L248.489 296.287L243.98 294.211L243.326 293.916L238.736 291.783L238.081 291.496L233.421 289.356L232.766 289.068L228.257 286.992L227.602 286.696L222.358 284.277L217.114 286.696L216.459 286.984L211.94 289.06L211.285 289.412L206.705 291.488L206.122 291.783L201.531 293.916L200.877 294.203L196.217 296.343H197.525L201.531 294.491L205.608 296.343H207.219L207.138 297.094L211.366 299.002L207.138 300.967L206.997 301.023H208.155L211.94 299.29L215.876 301.079H217.184L212.604 299.002L217.184 296.862L221.774 299.002L217.255 301.079H218.493L222.429 299.29L226.505 301.135H228.116V301.885L232.253 303.802L232.183 303.163L228.327 301.366L232.042 299.689L231.971 299.114L227.673 301.079L223.083 299.002L227.602 296.926L231.971 298.883V298.244L228.327 296.575L231.75 295.018V294.379L227.673 296.287L223.596 294.379H221.261L217.184 296.287L213.107 294.379H211.507V293.684L207.36 291.783L211.507 289.867V289.707H212.383V289.931L216.53 291.783L212.453 293.684V293.971H213.107L217.184 292.135L221.261 293.971H223.445L227.602 292.071L231.75 293.971H232.625L232.696 294.554L232.837 294.491L237.427 296.575L232.917 298.651L232.988 299.346L237.427 301.366L233.199 303.331V303.45H234.226L238.081 301.646L241.645 303.323L242.953 303.267L238.736 301.358L243.326 299.282L247.916 301.358L243.829 303.275V304.313L247.181 305.862L248.57 305.806L244.05 303.786L248.57 301.646L253.08 303.786L248.64 305.806H249.446V306.038L253.734 304.073L258.394 306.15L253.804 308.234L249.436 306.213L249.365 306.852L253.15 308.585L249.224 310.366L251.036 310.142L253.804 308.865L255.334 309.623L256.432 309.448L254.459 308.585L258.978 306.445L263.568 308.521H263.86L264.072 308.921L264.293 308.873L268.803 310.949L269.105 310.893L269.246 311.292L269.457 311.236L274.047 313.377L269.538 315.453L264.947 313.321L269.246 311.292L267.786 311.412L264.293 313.025L261.746 311.875L260.579 311.987L263.639 313.377L259.049 315.453L254.539 313.377L256.935 312.275L255.405 312.394L253.885 313.089L252.788 312.57L251.62 312.626L253.231 313.377L248.64 315.453L244.05 313.377L244.413 313.201L242.963 313.321V312.858L238.806 310.941L242.963 309.04L242.883 308.058L239.098 306.325H237.205L232.917 308.29L228.69 306.325H227.16V305.639L223.153 303.802L227.16 301.941V301.598H226.656L222.499 303.506L218.211 301.542L216.308 301.486L212.02 303.45L207.652 301.486L205.971 301.43L201.602 303.45L197.022 301.374L201.602 299.29L205.971 301.31L206.051 300.735L202.266 299.002L206.263 297.15V296.806H205.679L201.602 298.715L197.374 296.75H196.217V296.351L195.713 296.575L190.469 299.002L195.703 301.366L196.368 301.654L200.948 303.794L201.602 304.081L206.192 306.158L206.846 306.453L211.436 308.593L212.091 308.881L216.681 310.957L217.335 311.244L221.915 313.385L222.569 313.672L227.089 315.748L227.743 316.044L232.334 318.176L232.988 318.464L237.648 320.54L238.232 320.891L242.812 322.967L243.467 323.263L248.711 325.683L253.945 323.263L254.61 322.967L259.119 320.891L259.773 320.548L264.364 318.471L264.947 318.176L269.538 316.1L270.192 315.748L274.701 313.672L275.356 313.385L280.6 310.957L275.356 308.593ZM222.358 294.491L226.938 296.575L222.429 298.651L217.838 296.575L222.358 294.491ZM212.02 294.491L216.53 296.575L211.94 298.715L207.43 296.575L212.02 294.491ZM211.366 294.203L206.776 296.279L202.186 294.203L206.705 292.071L211.366 294.203ZM191.778 298.994L196.368 296.862L200.948 299.002L196.368 301.079L191.778 298.994ZM253.885 313.672L258.394 315.748L253.885 317.889L249.295 315.812L253.885 313.672ZM253.231 318.176L248.711 320.252L244.121 318.176L248.64 316.1L253.231 318.176ZM243.396 313.672L247.986 315.812L243.467 317.889L238.887 315.748L243.396 313.672ZM242.742 313.385L238.232 315.461L233.642 313.329L238.152 311.252L242.742 313.385ZM238.152 306.453L242.742 308.593L238.152 310.67L233.572 308.593L238.152 306.453ZM237.497 310.957L232.988 313.033L228.398 310.957L232.917 308.881L237.497 310.957ZM227.673 306.453L232.253 308.593L227.743 310.67L223.153 308.593L227.673 306.453ZM227.019 306.166L222.499 308.242L217.989 306.166L222.499 304.089L227.019 306.166ZM217.245 301.646L221.835 303.786L217.325 305.862L212.665 303.786L217.245 301.646ZM202.246 303.786L206.766 301.646L211.426 303.786L206.836 305.862L202.246 303.786ZM207.491 306.158L212.081 304.081L216.671 306.158L212.081 308.29L207.491 306.158ZM217.255 310.662L212.735 308.585L217.325 306.445L221.835 308.585L217.255 310.662ZM217.909 310.949L222.489 308.873L227.079 310.949L222.559 313.089L217.909 310.949ZM223.224 313.377L227.733 311.236L232.323 313.313L227.733 315.453L223.224 313.377ZM228.388 315.74L232.978 313.664L237.558 315.74L232.978 317.881L228.388 315.74ZM233.622 318.168L238.222 316.036L242.802 318.168L238.222 320.244L233.622 318.168ZM238.876 320.54L243.456 318.464L248.047 320.54L243.456 322.672L238.876 320.54ZM248.701 325.044L244.111 322.967L248.701 320.827L253.291 322.959L248.701 325.044ZM253.935 322.672L249.355 320.54L253.875 318.464L258.455 320.54L253.935 322.672ZM259.109 320.244L254.529 318.168L259.039 316.036L263.699 318.168L259.109 320.244ZM264.283 317.881L259.693 315.74L264.213 313.664L268.873 315.804L264.283 317.881ZM222.348 284.9L226.928 286.976L222.348 289.116L217.758 286.976L222.348 284.9ZM212.584 289.348L217.104 287.271L221.694 289.404L217.174 291.48L212.584 289.348ZM222.418 293.852L217.828 291.775L222.348 289.699L226.928 291.775L222.418 293.852ZM223.002 289.404L227.592 287.264L232.172 289.348L227.592 291.488L223.002 289.404ZM228.237 291.775L232.827 289.699L237.417 291.775L232.827 293.908L228.237 291.775ZM233.481 294.195L238.071 292.063L242.661 294.195L238.071 296.271L233.481 294.195ZM238.142 301.071L233.562 298.994L238.071 296.918L242.661 298.994L238.142 301.071ZM238.725 296.567L243.316 294.491L247.825 296.567L243.316 298.707L238.725 296.567ZM243.96 298.994L248.489 296.854L253.14 298.994L248.56 301.071L243.96 298.994ZM249.214 301.358L253.724 299.282L258.314 301.358L253.724 303.434L249.214 301.358ZM254.378 303.786L258.968 301.646L263.558 303.786L258.968 305.862L254.378 303.786ZM259.623 306.158L264.213 304.081L268.793 306.158L264.283 308.29L259.623 306.158ZM264.857 308.585L269.447 306.445L274.037 308.585L269.447 310.662L264.857 308.585ZM274.691 313.089L270.111 310.949L274.691 308.873L279.281 310.949L274.691 313.089ZM259.039 310.662L257.146 309.791L256.059 309.911L258.384 311.005L256.492 311.875L258.022 311.756L259.039 311.292L259.763 311.644L260.931 311.524L259.693 310.949L264.062 308.929L262.391 309.104L259.039 310.662ZM264.072 308.937L262.391 309.104L259.039 310.662L257.146 309.791L256.059 309.911L258.384 311.005L256.492 311.875L258.022 311.756L259.039 311.292L259.763 311.644L260.931 311.524L259.693 310.949L264.072 308.937ZM264.072 308.937L262.391 309.104L259.039 310.662L257.146 309.791L256.059 309.911L258.384 311.005L256.492 311.875L258.022 311.756L259.039 311.292L259.763 311.644L260.931 311.524L259.693 310.949L264.072 308.937ZM264.072 308.937L262.391 309.104L259.039 310.662L257.146 309.791L256.059 309.911L258.384 311.005L256.492 311.875L258.022 311.756L259.039 311.292L259.763 311.644L260.931 311.524L259.693 310.949L264.072 308.937ZM264.072 308.937L262.391 309.104L259.039 310.662L257.146 309.791L256.059 309.911L258.384 311.005L256.492 311.875L258.022 311.756L259.039 311.292L259.763 311.644L260.931 311.524L259.693 310.949L264.072 308.937Z" fill="#CAD0DD"/>
<path d="M263.85 308.512L264.082 308.928L262.421 309.135L257.186 309.798L256.089 309.934L249.768 310.732L248.107 310.948L248.147 310.453L248.479 306.508L248.489 306.284H247.654L243.839 306.3H242.913L239.108 306.308L237.215 306.316L228.71 306.34H227.139L227.149 305.63L227.2 301.924V301.581H226.656L218.191 301.525L216.318 301.509L207.661 301.461L205.98 301.453V301.285L206.021 300.71L206.252 297.141L206.272 296.789H205.719L197.384 296.75H196.267L196.216 296.342H197.505L205.618 296.358H207.198L207.168 297.069L206.997 300.982L208.185 301.03L215.916 301.078L217.224 301.086L218.523 301.094L226.525 301.142L228.126 301.15V301.868L228.065 305.702V305.925H228.911L236.883 305.885L239.47 305.877L242.903 305.861H243.849L247.171 305.845H248.55L249.476 305.837L249.456 306.061L249.435 306.245L249.395 306.859L249.134 310.389L251.046 310.15L255.374 309.599L256.452 309.463L263.568 308.552L263.85 308.512Z" fill="#6EBA6E"/>
<path d="M247.966 310.965L243.849 309.08V308.042L247.654 306.285H248.489L248.479 306.509L244.01 308.561L248.147 310.454L248.107 310.949L249.767 310.733L249.264 310.973L251.982 312.211L250.875 312.29L248.62 311.268L245.52 312.698L243.969 312.809L247.966 310.965Z" fill="#CAD0DD"/>
<path d="M269.095 310.925L269.236 311.325L267.796 311.437L261.756 311.892L260.569 311.988L256.945 312.259L255.395 312.371L252.778 312.571L251.66 312.65L244.413 313.209L242.983 313.313V312.882L242.933 309.065L242.923 308.059L242.903 306.302H243.839V308.043L243.849 309.081V312.818H243.97L245.52 312.698L250.865 312.299L251.972 312.211L256.482 311.876L258.032 311.756L259.784 311.628L260.971 311.532L268.783 310.949L269.095 310.925Z" fill="#ED435C"/>
<path d="M345.506 325.211L343.794 326.002L237.578 277.353L239.289 276.555L345.506 325.211ZM340.614 327.471L338.902 328.254L232.686 279.605L234.397 278.823L340.614 327.471Z" fill="#CAD0DD"/>
<path d="M269.014 326.208L262.089 329.403L261.253 329.019L268.179 325.825L269.014 326.208ZM278.547 324.34L264.837 330.664L264.001 330.281L277.711 323.956L278.547 324.34ZM297.068 320.89L270.363 333.188L269.487 332.789L296.172 320.491L297.068 320.89Z" fill="#F9BB4A"/>
<path d="M288.492 335.137L281.566 338.332L280.691 337.924L287.616 334.73L288.492 335.137ZM298.024 333.261L284.314 339.585L283.429 339.178L297.149 332.854L298.024 333.261Z" fill="#8FACFC"/>
<path d="M286.207 313.385L253.955 328.23L297.058 347.979L329.31 333.141L286.207 313.385ZM296.977 346.765L256.643 328.286L286.277 314.599L326.682 333.077L296.977 346.765Z" fill="#CAD0DD"/>
<path d="M290.485 321.402L267.625 331.943L266.739 331.536L289.599 320.995L290.485 321.402ZM292.186 325.658L273.111 334.45L272.275 334.067L291.34 325.283L292.186 325.658ZM288.784 329.747L275.849 335.704L275.013 335.321L287.948 329.364L288.784 329.747Z" fill="#F9BB4A"/>
<path d="M309.912 330.298L287.062 340.839L286.217 340.455L309.077 329.914L309.912 330.298ZM316.495 329.786L289.8 342.092L288.965 341.709L315.65 329.411L316.495 329.786ZM311.664 334.578L292.589 343.37L291.703 342.971L310.778 334.179L311.664 334.578ZM308.261 338.667L295.326 344.632L294.451 344.225L307.376 338.259L308.261 338.667Z" fill="#8FACFC"/>
<path d="M362.94 296.031C356.216 298.554 347.952 300.095 339.315 300.455L339.244 290.688C342.193 290.464 345.093 289.938 347.871 289.123L362.94 296.031Z" fill="#DDAF9B"/>
<path d="M379.277 281.794C378.522 286.242 374.627 290.45 368.164 293.772L353.196 286.913C355.753 285.443 357.464 283.695 358.078 281.818L379.277 281.794Z" fill="#ED435C"/>
<path d="M332.229 259.801L332.299 269.527C320.572 270.102 311.603 274.622 311.644 280.148C311.714 283.023 314.14 285.714 318.549 287.735C322.334 289.46 327.206 290.546 332.44 290.785L332.51 300.504C321.629 300.216 311.503 298.124 303.732 294.562C295.337 290.713 290.646 285.595 290.606 280.156C290.525 269.376 308.986 260.432 332.229 259.809V259.801Z" fill="#FFC701"/>
<path d="M371.496 268.584C375.966 271.539 378.603 274.909 379.247 278.518H358.108C357.736 277.48 357.102 276.522 356.196 275.635L371.496 268.584Z" fill="#75CA75"/>
<path d="M366.926 266.014L352.049 272.866L351.525 272.578C347.691 270.915 343.459 269.909 339.104 269.623L339.034 259.857C349.341 260.312 358.994 262.38 366.343 265.75L366.926 266.014Z" fill="#EA74FD"/>
<path d="M0.210736 159.006L9.58759 163.808L10.5099 121.748L0.074585 116.402L0.210736 159.006Z" fill="#C4C2C0"/>
<path d="M5.5778 85.1674C2.48146 86.7827 0 90.6839 0 93.8946L0.0746635 116.401L10.5056 121.747L10.9975 99.3475C10.9975 96.1329 13.4746 92.2396 16.5709 90.6244L41.7369 77.4959L30.9107 71.9517L5.5778 85.1674Z" fill="#D6D4D2"/>
<path d="M0.298655 186.461L8.99475 190.918L9.58767 163.812L0.210815 159.01L0.298655 186.461Z" fill="#E9E8E6"/>
<path d="M30.9062 71.953L41.7368 77.4972L84.2555 55.3123L73.4293 49.772L30.9062 71.953Z" fill="#C4C2C0"/>
<path d="M73.4293 49.7717L84.2555 55.3159L122.466 35.3772L111.644 29.8369L73.4293 49.7717Z" fill="#D6D4D2"/>
<path d="M149.468 11.8347C148.457 11.2949 147.034 11.3783 145.475 12.1839L111.644 29.8367L122.47 35.377L156.468 17.6409C158.028 16.8114 157.154 15.7478 158.164 16.2915L149.468 11.8347Z" fill="#E9E8E6"/>
<path d="M160.074 112.095L8.99018 190.921L8.68713 98.3478C8.68713 95.1332 11.173 91.2399 14.2649 89.6167L154.171 16.6285C157.263 15.0093 159.775 16.3031 159.802 19.5256L160.074 112.095Z" fill="#494846"/>
<path d="M8.99915 190.914L9.04307 199.705L97.6071 246.158C100.681 247.778 105.658 247.778 108.754 246.158L248.66 173.178C250.219 172.368 251.001 171.293 251.001 170.233L250.957 161.522C250.957 162.578 250.175 163.637 248.612 164.443L8.99915 190.914Z" fill="#B2B0AF"/>
<path d="M250.948 161.522C250.948 162.578 250.171 163.637 248.607 164.447L42.5978 187.203V217.302L97.6072 246.158C100.682 247.778 105.658 247.778 108.754 246.158L248.656 173.174C250.215 172.368 250.997 171.293 250.997 170.237L250.948 161.522Z" fill="#C4C2C0"/>
<path d="M250.949 161.522C250.949 162.578 250.171 163.637 248.608 164.447L80.4172 183.024V237.141L97.6074 246.158C100.682 247.778 105.658 247.778 108.754 246.158L248.656 173.174C250.215 172.368 250.997 171.293 250.997 170.237L250.949 161.522Z" fill="#D6D4D2"/>
<path d="M250.948 161.522C250.948 162.578 250.171 163.637 248.607 164.447L137.368 176.734V231.236L248.66 173.174C250.219 172.368 251.001 171.293 251.001 170.237L250.948 161.522Z" fill="#C4C2C0"/>
<path d="M250.948 161.522C250.948 162.578 250.171 163.637 248.607 164.447L217.35 167.9V189.509L248.656 173.178C250.215 172.368 250.997 171.293 250.997 170.233L250.948 161.522Z" fill="#B2B0AF"/>
<path d="M9.00781 190.91L97.5762 237.415C100.646 239.026 105.636 239.026 108.727 237.415L248.616 164.431C251.721 162.811 251.739 160.2 248.669 158.585L160.105 112.083L9.00781 190.91Z" fill="#E9E8E6"/>
<path d="M145.602 133.201C145.352 133.332 145.352 133.558 145.602 133.689L152.037 137.067C152.18 137.13 152.338 137.163 152.498 137.163C152.658 137.163 152.816 137.13 152.959 137.067L159.424 133.697C159.687 133.558 159.674 133.34 159.424 133.213L152.99 129.832C152.846 129.765 152.688 129.73 152.526 129.73C152.365 129.73 152.206 129.765 152.063 129.832L145.602 133.201ZM134.293 139.103C134.025 139.241 134.038 139.46 134.293 139.587L140.723 142.968C140.867 143.036 141.026 143.071 141.189 143.071C141.351 143.071 141.51 143.036 141.654 142.968L148.11 139.595C148.365 139.468 148.365 139.241 148.115 139.11L141.68 135.733C141.536 135.669 141.378 135.635 141.217 135.635C141.056 135.635 140.898 135.669 140.754 135.733L134.293 139.103ZM122.962 145.012C122.716 145.143 122.712 145.369 122.962 145.5L129.396 148.877C129.54 148.942 129.699 148.975 129.859 148.975C130.02 148.975 130.179 148.942 130.323 148.877L136.801 145.5C137.056 145.369 137.038 145.155 136.788 145.024L130.354 141.642C130.213 141.577 130.058 141.542 129.9 141.541C129.742 141.539 129.586 141.572 129.444 141.635L122.962 145.012ZM152.094 141.896C151.826 142.035 151.826 142.242 152.094 142.381L158.506 145.754C158.65 145.822 158.81 145.857 158.972 145.857C159.134 145.857 159.293 145.822 159.437 145.754L170.944 139.745C171.208 139.607 171.194 139.392 170.944 139.261L164.532 135.888C164.389 135.818 164.229 135.782 164.066 135.782C163.904 135.782 163.744 135.818 163.601 135.888L152.094 141.896ZM140.604 147.889C140.354 148.02 140.336 148.234 140.604 148.373L147.017 151.747C147.161 151.812 147.321 151.846 147.482 151.846C147.644 151.846 147.803 151.812 147.948 151.747L154.408 148.373C154.676 148.234 154.659 148.016 154.408 147.889L147.996 144.516C147.853 144.446 147.693 144.41 147.531 144.41C147.368 144.41 147.208 144.446 147.065 144.516L140.604 147.889ZM129.045 153.918C128.794 154.049 128.777 154.267 129.045 154.406L135.457 157.775C135.602 157.84 135.761 157.874 135.923 157.874C136.084 157.874 136.243 157.84 136.388 157.775L142.866 154.394C143.117 154.267 143.099 154.049 142.849 153.918L136.436 150.548C136.296 150.48 136.14 150.443 135.981 150.442C135.821 150.44 135.664 150.474 135.523 150.54L129.045 153.918ZM117.485 159.95C117.235 160.081 117.213 160.295 117.485 160.434L123.897 163.808C124.042 163.873 124.201 163.906 124.363 163.906C124.524 163.906 124.684 163.873 124.828 163.808L131.307 160.426C131.557 160.295 131.557 160.069 131.307 159.942L124.894 156.569C124.75 156.501 124.591 156.466 124.429 156.466C124.267 156.466 124.107 156.501 123.963 156.569L117.485 159.95ZM105.921 165.979C105.675 166.113 105.658 166.328 105.921 166.467L112.338 169.84C112.482 169.905 112.642 169.939 112.803 169.939C112.965 169.939 113.124 169.905 113.269 169.84L119.747 166.459C119.997 166.328 119.997 166.102 119.747 165.971L113.33 162.605C113.187 162.538 113.028 162.503 112.867 162.503C112.706 162.503 112.547 162.538 112.404 162.605L105.921 165.979ZM94.3833 172.003C94.1154 172.142 94.111 172.348 94.3789 172.487L100.796 175.861C100.939 175.927 101.098 175.962 101.259 175.962C101.42 175.962 101.579 175.927 101.722 175.861L108.183 172.487C108.433 172.36 108.438 172.134 108.187 172.003L101.771 168.63C101.627 168.563 101.468 168.528 101.307 168.528C101.146 168.528 100.987 168.563 100.844 168.63L94.3833 172.003ZM82.8193 178.035C82.5557 178.174 82.5557 178.381 82.8193 178.52L89.2359 181.893C89.3792 181.96 89.5381 181.995 89.6993 181.995C89.8605 181.995 90.0194 181.96 90.1626 181.893L96.6232 178.52C96.8736 178.389 96.878 178.162 96.6232 178.035L90.2109 174.662C90.0671 174.595 89.9075 174.559 89.7454 174.559C89.5833 174.559 89.4237 174.595 89.2799 174.662L82.8193 178.035ZM71.2596 184.068C70.9961 184.207 70.9917 184.413 71.2596 184.552L77.6763 187.925C77.8195 187.992 77.9784 188.027 78.1396 188.027C78.3008 188.027 78.4597 187.992 78.603 187.925L85.0636 184.552C85.3315 184.413 85.3139 184.195 85.0636 184.068L78.6513 180.694C78.5082 180.625 78.3482 180.589 78.1857 180.589C78.0233 180.589 77.8633 180.625 77.7202 180.694L71.2596 184.068ZM111.653 150.913C111.389 151.052 111.402 151.271 111.653 151.398L118.087 154.779C118.23 154.846 118.389 154.881 118.55 154.881C118.711 154.881 118.87 154.846 119.013 154.779L125.474 151.405C125.742 151.267 125.729 151.052 125.478 150.921L119.044 147.544C118.9 147.476 118.741 147.441 118.579 147.441C118.417 147.441 118.257 147.476 118.113 147.544L111.653 150.913ZM100.326 156.823C100.075 156.954 100.075 157.18 100.326 157.307L106.76 160.688C106.904 160.753 107.063 160.786 107.223 160.786C107.384 160.786 107.543 160.753 107.687 160.688L114.165 157.307C114.415 157.176 114.419 156.954 114.165 156.823L107.731 153.441C107.587 153.378 107.429 153.345 107.269 153.345C107.109 153.345 106.952 153.378 106.808 153.441L100.326 156.823ZM89.0163 162.724C88.766 162.855 88.766 163.081 89.0163 163.208L95.4506 166.59C95.5946 166.654 95.7532 166.688 95.9139 166.688C96.0746 166.688 96.2332 166.654 96.3773 166.59L102.838 163.216C103.106 163.077 103.088 162.863 102.838 162.732L96.4036 159.355C96.2609 159.289 96.1029 159.254 95.9425 159.254C95.7821 159.254 95.624 159.289 95.4813 159.355L89.0163 162.724ZM77.707 168.626C77.4391 168.765 77.4567 168.979 77.707 169.11L84.1412 172.487C84.2839 172.553 84.442 172.588 84.6024 172.588C84.7628 172.588 84.9209 172.553 85.0636 172.487L91.5285 169.118C91.7789 168.987 91.7789 168.761 91.5285 168.634L85.0943 165.252C84.9502 165.188 84.7917 165.154 84.631 165.154C84.4702 165.154 84.3117 165.188 84.1676 165.252L77.707 168.626ZM66.3801 174.535C66.1298 174.666 66.1298 174.888 66.3801 175.019L72.8144 178.401C72.9579 178.464 73.1156 178.497 73.2755 178.497C73.4354 178.497 73.5932 178.464 73.7367 178.401L80.2192 175.019C80.4696 174.888 80.452 174.674 80.2017 174.543L73.7674 171.162C73.6271 171.096 73.4718 171.061 73.3139 171.06C73.156 171.059 73 171.091 72.8583 171.154L66.3801 174.535ZM55.0708 180.432C54.8029 180.575 54.8161 180.79 55.0708 180.921L61.5007 184.298C61.6445 184.365 61.8041 184.401 61.9662 184.401C62.1283 184.401 62.2879 184.365 62.4317 184.298L68.8879 180.929C69.1602 180.79 69.1427 180.571 68.8923 180.444L62.4581 177.063C62.3148 176.996 62.156 176.961 61.9947 176.961C61.8335 176.961 61.6747 176.996 61.5314 177.063L55.0708 180.432ZM43.7439 186.342C43.4936 186.473 43.4892 186.699 43.7395 186.83L50.1738 190.207C50.3178 190.272 50.4764 190.305 50.6371 190.305C50.7978 190.305 50.9564 190.272 51.1005 190.207L57.5786 186.83C57.829 186.699 57.8334 186.473 57.583 186.342L51.1488 182.965C51.0047 182.9 50.8462 182.867 50.6854 182.867C50.5247 182.867 50.3661 182.9 50.2221 182.965L43.7439 186.342ZM55.2816 192.402C55.0313 192.533 55.0093 192.747 55.2816 192.89L61.6939 196.26C61.8385 196.325 61.9979 196.358 62.1594 196.358C62.321 196.358 62.4803 196.325 62.625 196.26L74.1495 190.247C74.413 190.108 74.3999 189.89 74.1495 189.763L67.7329 186.389C67.5903 186.321 67.4311 186.285 67.2695 186.285C67.1079 186.285 66.9487 186.321 66.8062 186.389L55.2816 192.402ZM158.493 150.616C158.247 150.747 158.229 150.961 158.493 151.1L164.914 154.473C165.057 154.539 165.215 154.574 165.375 154.574C165.535 154.574 165.694 154.539 165.836 154.473L182.464 145.798C182.732 145.659 182.732 145.452 182.464 145.314L176.052 141.94C175.909 141.871 175.749 141.834 175.586 141.834C175.424 141.834 175.264 141.871 175.121 141.94L158.493 150.616ZM146.02 157.12C145.774 157.251 145.756 157.466 146.02 157.609L152.441 160.978C152.583 161.044 152.742 161.079 152.902 161.079C153.062 161.079 153.22 161.044 153.363 160.978L159.846 157.597C160.096 157.466 160.096 157.263 159.828 157.12L153.411 153.751C153.272 153.683 153.116 153.647 152.958 153.645C152.799 153.644 152.643 153.678 152.502 153.743L146.02 157.12ZM134.715 163.022C134.447 163.161 134.442 163.367 134.715 163.506L141.127 166.879C141.395 167.018 141.786 167.018 142.058 166.879L148.514 163.506C148.787 163.367 148.787 163.161 148.519 163.022L142.102 159.648C141.959 159.58 141.8 159.544 141.639 159.544C141.477 159.544 141.318 159.58 141.175 159.648L134.715 163.022ZM123.388 168.931C123.138 169.062 123.116 169.276 123.383 169.419L129.8 172.789C129.943 172.856 130.102 172.89 130.263 172.89C130.425 172.89 130.584 172.856 130.727 172.789L137.205 169.407C137.455 169.276 137.477 169.062 137.209 168.923L130.793 165.55C130.649 165.483 130.491 165.448 130.329 165.448C130.168 165.448 130.009 165.483 129.866 165.55L123.388 168.931ZM112.079 174.833C111.824 174.964 111.806 175.178 112.074 175.317L118.491 178.69C118.634 178.757 118.793 178.792 118.954 178.792C119.115 178.792 119.274 178.757 119.418 178.69L125.878 175.317C126.146 175.178 126.15 174.972 125.878 174.833L119.466 171.459C119.323 171.39 119.163 171.353 119 171.353C118.838 171.353 118.678 171.39 118.535 171.459L112.079 174.833ZM100.765 180.734C100.501 180.873 100.497 181.079 100.765 181.218L107.182 184.592C107.445 184.731 107.84 184.731 108.108 184.592L114.569 181.218C114.819 181.087 114.841 180.873 114.569 180.734L108.157 177.361C108.013 177.293 107.853 177.258 107.691 177.258C107.529 177.258 107.369 177.293 107.225 177.361L100.765 180.734ZM89.438 186.643C89.1876 186.774 89.17 186.989 89.438 187.128L95.8502 190.501C95.9941 190.569 96.1537 190.604 96.3158 190.604C96.4778 190.604 96.6375 190.569 96.7813 190.501L103.259 187.12C103.51 186.989 103.51 186.782 103.246 186.643L96.8253 183.27C96.6858 183.202 96.5302 183.166 96.3718 183.165C96.2134 183.163 96.057 183.197 95.9161 183.262L89.438 186.643ZM66.8018 198.454C66.5514 198.585 66.5295 198.8 66.8018 198.938L73.214 202.312C73.3578 202.379 73.5175 202.415 73.6796 202.415C73.8416 202.415 74.0013 202.379 74.1451 202.312L92.1654 192.906C92.4289 192.767 92.4333 192.561 92.1654 192.422L85.7531 189.049C85.61 188.979 85.45 188.943 85.2876 188.943C85.1251 188.943 84.9651 188.979 84.822 189.049L66.8018 198.454ZM169.605 156.45C169.359 156.581 169.341 156.795 169.605 156.934L176.026 160.307C176.168 160.373 176.326 160.408 176.487 160.408C176.647 160.408 176.805 160.373 176.948 160.307L193.576 151.632C193.844 151.493 193.844 151.286 193.576 151.148L187.164 147.774C187.021 147.705 186.861 147.668 186.698 147.668C186.536 147.668 186.376 147.705 186.233 147.774L169.605 156.45ZM171.937 162.923L108.402 196.073C108.257 196.141 108.096 196.177 107.933 196.177C107.769 196.177 107.608 196.141 107.463 196.073L101.055 192.7C100.774 192.573 100.8 192.343 101.055 192.212L164.589 159.061C164.734 158.993 164.895 158.957 165.059 158.957C165.222 158.957 165.384 158.993 165.529 159.061L171.941 162.434C172.218 162.585 172.191 162.796 171.937 162.923Z" fill="#494846"/>
<path d="M57.5746 187.867L51.1008 191.24C50.9574 191.304 50.7996 191.337 50.6397 191.337C50.4797 191.337 50.3219 191.304 50.1785 191.24L43.7311 187.867C43.6125 187.787 43.5554 187.708 43.5554 187.632V186.589C43.5554 186.668 43.6125 186.771 43.7311 186.827L50.1741 190.22C50.4376 190.351 50.8417 190.351 51.0964 190.22L57.5746 186.823C57.7195 186.771 57.7766 186.664 57.7766 186.589V187.609C57.7766 187.712 57.7195 187.791 57.5746 187.867ZM55.0624 181.941C54.9438 181.89 54.8867 181.81 54.8867 181.703V180.687C54.8867 180.767 54.9438 180.846 55.0624 180.921L61.5054 184.291C61.7645 184.422 62.1686 184.449 62.4277 184.291L68.9015 180.921C68.9519 180.9 68.9949 180.866 69.0259 180.824C69.0568 180.782 69.0745 180.734 69.0772 180.683V181.731C69.0772 181.81 69.0201 181.89 68.9015 181.969L62.4277 185.334C62.2843 185.399 62.1265 185.432 61.9666 185.432C61.8066 185.432 61.6488 185.399 61.5054 185.334L55.0624 181.941ZM77.7162 170.134C77.5712 170.083 77.5141 169.976 77.5141 169.9V168.856C77.5141 168.96 77.5712 169.039 77.7162 169.118L84.1328 172.488C84.3963 172.615 84.796 172.615 85.0551 172.488L91.5333 169.114C91.5825 169.094 91.6246 169.061 91.6555 169.021C91.6864 168.98 91.7048 168.933 91.709 168.884L91.7353 169.9C91.7353 170.003 91.6475 170.083 91.5333 170.162L85.0595 173.532C84.9156 173.596 84.757 173.63 84.5962 173.63C84.4354 173.63 84.2768 173.596 84.1328 173.532L77.7162 170.134ZM101.731 175.853L108.179 172.488C108.324 172.432 108.381 172.329 108.381 172.25V173.27C108.381 173.373 108.324 173.452 108.179 173.532L101.731 176.901C101.588 176.965 101.43 176.998 101.27 176.998C101.11 176.998 100.953 176.965 100.809 176.901L94.3925 173.528C94.2475 173.452 94.1904 173.373 94.1904 173.27V172.25C94.1904 172.329 94.2475 172.408 94.3925 172.488L100.805 175.853C101.042 175.984 101.446 176.012 101.731 175.853ZM102.078 199.253L102.109 200.245C102.109 200.352 102.021 200.427 101.907 200.483L85.2616 209.174C85.1182 209.238 84.9604 209.272 84.8004 209.272C84.6404 209.272 84.4826 209.238 84.3392 209.174L77.9182 205.809C77.7733 205.73 77.7162 205.65 77.7162 205.571V204.531C77.7162 204.61 77.7733 204.714 77.9182 204.765L84.3349 208.135C84.5984 208.293 84.998 208.266 85.2572 208.135L101.903 199.463C101.991 199.384 102.078 199.332 102.078 199.253ZM100.317 158.332C100.203 158.28 100.142 158.201 100.142 158.093V157.077C100.142 157.157 100.203 157.236 100.317 157.316L106.76 160.681C107.024 160.812 107.428 160.812 107.687 160.681L114.161 157.312C114.306 157.232 114.363 157.157 114.363 157.054V158.097C114.363 158.177 114.306 158.28 114.161 158.335L107.687 161.729C107.544 161.793 107.386 161.826 107.226 161.826C107.066 161.826 106.908 161.793 106.765 161.729L100.317 158.332ZM66.3893 176.064C66.2443 175.984 66.1872 175.905 66.1872 175.802V174.786C66.1872 174.865 66.2443 174.968 66.3893 175.02L72.8015 178.389C73.0651 178.52 73.4999 178.52 73.7282 178.389L80.2284 175.016C80.2775 174.995 80.3197 174.963 80.3506 174.922C80.3814 174.882 80.3999 174.835 80.404 174.786V175.829C80.404 175.909 80.3469 175.988 80.2284 176.068L73.759 179.433C73.6102 179.497 73.4474 179.531 73.2825 179.531C73.1175 179.531 72.9547 179.497 72.8059 179.433L66.3893 176.064ZM89.4515 188.156C89.3066 188.105 89.2495 187.997 89.2495 187.918V186.902C89.2495 186.981 89.3066 187.061 89.4251 187.14L95.8682 190.506C96.1273 190.637 96.5313 190.637 96.7905 190.506L103.264 187.112C103.383 187.057 103.44 186.981 103.44 186.874V187.922C103.44 188.001 103.383 188.077 103.264 188.156L96.7905 191.526C96.5313 191.657 96.1273 191.684 95.8682 191.526L89.4515 188.156ZM88.8454 163.999L88.8147 162.979C88.8147 163.058 88.9025 163.138 89.0167 163.217L95.4597 166.582C95.6037 166.647 95.7623 166.681 95.9231 166.681C96.0838 166.681 96.2424 166.647 96.3864 166.582L102.829 163.217C102.974 163.138 103.036 163.058 103.036 162.979V163.999C103.036 164.102 102.974 164.181 102.829 164.261L96.3864 167.63C96.243 167.694 96.0852 167.727 95.9253 167.727C95.7653 167.727 95.6075 167.694 95.4641 167.63L89.0123 164.233C88.9625 164.212 88.9199 164.179 88.889 164.138C88.8581 164.096 88.84 164.048 88.8366 163.999H88.8454ZM78.6121 187.922L85.0595 184.549C85.2045 184.473 85.2616 184.394 85.2616 184.315V185.334C85.2616 185.438 85.2045 185.517 85.0595 185.596L78.6121 188.966C78.4687 189.03 78.3109 189.063 78.151 189.063C77.991 189.063 77.8332 189.03 77.6898 188.966L71.2731 185.592C71.1282 185.517 71.0711 185.438 71.0711 185.334V184.315C71.0711 184.394 71.1282 184.473 71.2731 184.553L77.6854 187.922C77.9182 188.049 78.3222 188.049 78.6121 187.922ZM74.1631 191.288L62.6297 197.296C62.4863 197.36 62.3285 197.393 62.1686 197.393C62.0086 197.393 61.8508 197.36 61.7074 197.296L55.2908 193.927C55.1458 193.847 55.0887 193.768 55.0887 193.689V192.649C55.0887 192.728 55.1458 192.831 55.2908 192.883L61.703 196.252C61.847 196.317 62.0056 196.351 62.1664 196.351C62.3272 196.351 62.4858 196.317 62.6297 196.252L74.1631 190.244C74.2772 190.164 74.3387 190.085 74.3387 190.01V191.03C74.3387 191.133 74.2772 191.212 74.1631 191.288ZM89.2495 182.933L82.8328 179.56C82.6879 179.485 82.6308 179.405 82.6308 179.302V178.282C82.6308 178.361 82.6879 178.441 82.8328 178.52L89.2451 181.89C89.4778 182.017 89.8863 182.017 90.1718 181.89L96.6192 178.516C96.7641 178.469 96.8212 178.361 96.8212 178.282V179.302C96.8212 179.405 96.7641 179.485 96.6192 179.564L90.1718 182.933C90.0284 182.997 89.8706 183.031 89.7106 183.031C89.5507 183.031 89.3929 182.997 89.2495 182.933ZM92.1657 193.954L74.1323 203.352C73.9039 203.483 73.4999 203.483 73.21 203.352L66.7933 199.959C66.6791 199.908 66.6176 199.828 66.6176 199.721V198.705C66.6176 198.784 66.6791 198.864 66.7933 198.943L73.2056 202.309C73.4999 202.44 73.9039 202.44 74.1323 202.309L92.1657 192.907C92.3107 192.827 92.3678 192.748 92.3678 192.673V193.693C92.3678 193.772 92.3107 193.875 92.1657 193.954ZM107.195 185.624L100.783 182.251C100.633 182.171 100.576 182.096 100.576 182.017V180.973C100.576 181.052 100.633 181.155 100.752 181.211L107.195 184.576C107.459 184.735 107.832 184.735 108.117 184.576L114.565 181.207C114.71 181.155 114.767 181.048 114.767 180.973V182.017C114.767 182.096 114.71 182.175 114.565 182.255L108.122 185.62C107.978 185.684 107.821 185.718 107.661 185.718C107.501 185.718 107.343 185.684 107.199 185.62L107.195 185.624ZM122.975 146.529C122.83 146.477 122.773 146.37 122.773 146.29V145.247C122.773 145.354 122.83 145.429 122.975 145.509L129.388 148.878C129.651 149.009 130.086 149.009 130.314 148.878L136.788 145.509C136.933 145.429 136.99 145.35 136.99 145.275V146.294C136.99 146.398 136.933 146.477 136.814 146.529L130.314 149.922C130.171 149.986 130.013 150.019 129.853 150.019C129.693 150.019 129.535 149.986 129.392 149.922L122.975 146.529ZM141.123 167.916L134.711 164.546C134.592 164.467 134.504 164.388 134.504 164.312V163.269C134.504 163.348 134.592 163.451 134.711 163.503L141.123 166.872C141.387 167.031 141.791 167.031 142.045 166.872L148.523 163.503C148.638 163.451 148.726 163.344 148.726 163.265V164.285C148.726 164.392 148.668 164.467 148.523 164.546L142.05 167.916C141.906 167.98 141.749 168.013 141.589 168.013C141.429 168.013 141.266 167.98 141.123 167.916ZM118.496 179.719L112.083 176.353C111.934 176.274 111.877 176.195 111.877 176.115V175.071C111.877 175.175 111.934 175.254 112.079 175.31L118.496 178.703C118.759 178.834 119.159 178.834 119.418 178.703L125.896 175.306C125.984 175.254 126.067 175.175 126.067 175.099L126.098 176.115C126.098 176.195 126.01 176.274 125.896 176.353L119.422 179.719C119.278 179.783 119.12 179.817 118.959 179.817C118.798 179.817 118.64 179.783 118.496 179.719ZM124.824 163.816L131.298 160.423C131.443 160.367 131.5 160.264 131.5 160.185V161.205C131.5 161.308 131.443 161.387 131.298 161.467L124.824 164.836C124.681 164.9 124.523 164.934 124.363 164.934C124.203 164.934 124.045 164.9 123.902 164.836L117.485 161.463C117.367 161.415 117.283 161.308 117.283 161.229V160.185C117.283 160.292 117.34 160.367 117.485 160.447L123.898 163.816C124.161 163.947 124.565 163.947 124.824 163.816ZM113.265 169.849L119.739 166.455C119.883 166.4 119.941 166.297 119.941 166.217V167.237C119.941 167.34 119.883 167.42 119.739 167.499L113.265 170.869C113.121 170.933 112.964 170.966 112.804 170.966C112.644 170.966 112.486 170.933 112.342 170.869L105.926 167.495C105.807 167.42 105.724 167.34 105.724 167.265V166.217C105.724 166.324 105.781 166.4 105.926 166.479L112.338 169.849C112.602 169.98 113.006 169.98 113.265 169.849ZM129.796 173.817L123.384 170.448C123.265 170.369 123.208 170.289 123.208 170.214L123.177 169.17C123.177 169.273 123.265 169.353 123.379 169.432L129.792 172.801C130.055 172.928 130.49 172.928 130.718 172.801L137.192 169.404C137.337 169.353 137.394 169.245 137.394 169.166V170.19C137.394 170.293 137.337 170.373 137.223 170.448L130.723 173.821C130.49 173.948 130.086 173.944 129.796 173.817ZM134.302 140.627C134.157 140.548 134.1 140.468 134.1 140.389V139.345C134.1 139.425 134.157 139.528 134.276 139.583L140.719 142.977C140.982 143.108 141.387 143.108 141.641 142.977L148.119 139.607C148.234 139.528 148.295 139.448 148.295 139.345V140.389C148.292 140.439 148.275 140.488 148.244 140.53C148.213 140.572 148.17 140.606 148.119 140.627L141.646 143.997C141.382 144.151 140.978 144.124 140.723 143.997L134.302 140.627ZM111.644 152.43C111.594 152.408 111.552 152.374 111.522 152.332C111.492 152.29 111.475 152.242 111.473 152.192V151.152C111.473 151.255 111.53 151.335 111.649 151.41L118.092 154.783C118.355 154.91 118.755 154.91 119.014 154.783L125.488 151.41C125.606 151.331 125.663 151.251 125.663 151.176V152.196C125.66 152.246 125.642 152.294 125.611 152.335C125.58 152.376 125.537 152.409 125.488 152.43L119.014 155.799C118.755 155.958 118.355 155.93 118.092 155.799L111.644 152.43ZM136.384 157.784L142.858 154.387C142.946 154.335 143.034 154.283 143.034 154.204L143.06 155.196C143.06 155.276 143.003 155.355 142.858 155.434L136.384 158.804C136.241 158.868 136.083 158.901 135.923 158.901C135.763 158.901 135.605 158.868 135.462 158.804L129.045 155.43C128.927 155.383 128.843 155.276 128.843 155.196V154.152C128.843 154.26 128.9 154.335 129.045 154.414L135.457 157.784C135.721 157.915 136.125 157.915 136.384 157.784ZM145.432 134.488L145.401 133.444C145.401 133.547 145.489 133.626 145.603 133.682L152.05 137.075C152.194 137.139 152.351 137.173 152.511 137.173C152.671 137.173 152.829 137.139 152.973 137.075L159.42 133.702C159.565 133.626 159.622 133.547 159.622 133.444V134.488C159.622 134.567 159.565 134.67 159.42 134.726L152.973 138.091C152.829 138.155 152.671 138.189 152.511 138.189C152.351 138.189 152.194 138.155 152.05 138.091L145.603 134.726C145.489 134.646 145.432 134.567 145.432 134.488ZM147.021 152.767L140.605 149.402C140.491 149.346 140.403 149.243 140.403 149.164V148.148C140.403 148.227 140.46 148.307 140.605 148.382L147.017 151.751C147.281 151.882 147.685 151.882 147.944 151.751L154.417 148.382C154.536 148.303 154.593 148.223 154.593 148.12L154.62 149.164C154.62 149.243 154.532 149.346 154.417 149.402L147.944 152.767C147.8 152.831 147.643 152.865 147.483 152.865C147.323 152.865 147.165 152.831 147.021 152.767ZM171.933 162.927C172.078 162.848 172.135 162.769 172.135 162.665V163.713C172.135 163.792 172.078 163.896 171.933 163.947L108.407 197.114C108.264 197.178 108.106 197.211 107.946 197.211C107.786 197.211 107.628 197.178 107.485 197.114L101.042 193.74C100.923 193.665 100.866 193.585 100.866 193.482V192.466C100.866 192.546 100.923 192.649 101.042 192.7L107.454 196.07C107.601 196.141 107.764 196.178 107.931 196.178C108.097 196.178 108.261 196.141 108.407 196.07L171.933 162.927ZM152.454 162.01L146.038 158.645C145.893 158.566 145.836 158.486 145.836 158.407V157.367C145.836 157.446 145.893 157.55 146.011 157.601L152.454 160.971C152.713 161.129 153.117 161.102 153.377 160.971L159.85 157.597C159.969 157.522 160.026 157.443 160.026 157.367V158.411C160.026 158.49 159.969 158.57 159.85 158.617L153.377 162.014C153.233 162.078 153.075 162.112 152.915 162.112C152.755 162.112 152.598 162.078 152.454 162.014V162.01ZM159.446 145.743L170.953 139.738C171.063 139.687 171.151 139.579 171.151 139.5V140.548C171.151 140.627 171.094 140.707 170.949 140.786L159.446 146.791C159.156 146.922 158.752 146.922 158.524 146.791L152.107 143.417C151.962 143.342 151.905 143.262 151.905 143.159V142.139C151.905 142.219 151.962 142.322 152.081 142.377L158.524 145.743C158.752 145.874 159.156 145.902 159.446 145.743ZM165.832 154.47L182.451 145.798C182.596 145.719 182.653 145.64 182.653 145.56L182.684 146.58C182.684 146.683 182.596 146.763 182.482 146.842L165.837 155.51C165.693 155.574 165.534 155.608 165.373 155.608C165.212 155.608 165.054 155.574 164.91 155.51L158.498 152.144C158.379 152.065 158.291 151.986 158.291 151.882V150.862C158.291 150.942 158.379 151.021 158.493 151.101L164.906 154.466C165.169 154.625 165.604 154.601 165.832 154.47ZM193.783 151.386V152.43C193.783 152.509 193.721 152.589 193.581 152.668L176.961 161.336C176.818 161.4 176.66 161.433 176.5 161.433C176.34 161.433 176.183 161.4 176.039 161.336L169.618 157.966C169.478 157.887 169.416 157.808 169.416 157.728V156.688C169.416 156.792 169.478 156.871 169.618 156.946L176.035 160.32C176.298 160.447 176.702 160.447 176.957 160.32L193.581 151.62C193.721 151.569 193.783 151.466 193.783 151.386Z" fill="#21201F"/>
<path d="M77.9136 204.289C77.6633 204.42 77.6457 204.634 77.9136 204.773L84.3259 208.147C84.4697 208.214 84.6294 208.249 84.7915 208.249C84.9535 208.249 85.1132 208.214 85.257 208.147L101.903 199.463C102.149 199.332 102.166 199.118 101.903 198.975L95.4815 195.606C95.3388 195.539 95.1807 195.505 95.0203 195.505C94.86 195.505 94.7019 195.539 94.5592 195.606L77.9136 204.289Z" fill="#494846"/>
<path d="M147.658 123.911C150.052 122.668 153.939 122.668 156.315 123.911L205.917 149.961C208.294 151.207 208.28 153.247 205.891 154.493L89.6884 215.119C87.2948 216.365 83.4079 216.365 81.0319 215.119L31.429 189.069C29.0529 187.822 29.0661 185.787 31.4553 184.54L147.658 123.911ZM82.9819 214.103C84.2907 214.79 86.4296 214.79 87.7472 214.103L203.954 153.477C205.272 152.791 205.276 151.672 203.967 150.985L154.365 124.931C153.056 124.244 150.917 124.244 149.599 124.931L33.3922 185.556C32.0746 186.243 32.0702 187.362 33.379 188.053L82.9819 214.103ZM174.036 197.693L149.81 210.404C149.171 210.746 148.443 210.928 147.701 210.932C146.959 210.936 146.229 210.762 145.585 210.428L130.143 202.36C129.821 202.196 129.553 201.959 129.365 201.672C129.176 201.385 129.075 201.059 129.07 200.725C129.065 200.392 129.157 200.063 129.337 199.772C129.517 199.481 129.778 199.237 130.095 199.066L154.347 186.354C154.985 186.013 155.712 185.832 156.454 185.827C157.195 185.823 157.925 185.997 158.568 186.33L174.036 194.399C174.355 194.566 174.62 194.806 174.804 195.095C174.988 195.385 175.085 195.712 175.085 196.046C175.085 196.379 174.988 196.707 174.804 196.996C174.62 197.285 174.355 197.525 174.036 197.693Z" fill="#A0A8AA"/>
<path d="M35.8691 176.233C36.1239 176.098 36.4708 176.118 36.8661 176.317C37.2921 176.572 37.6453 176.915 37.8971 177.317C38.149 177.719 38.2923 178.169 38.3155 178.63L152.722 118.846C152.722 118.005 152.094 116.957 151.281 116.54C150.886 116.33 150.53 116.318 150.271 116.457L35.8691 176.233Z" fill="#21201F"/>
<path d="M36.8705 176.321C36.0624 175.9 35.4211 176.281 35.4211 177.119L38.3155 178.627C38.2913 178.166 38.1474 177.718 37.8956 177.317C37.6438 176.917 37.2911 176.575 36.8661 176.321H36.8705Z" fill="#383736"/>
<path d="M152.948 24.4541L152.924 24.4778V24.466L152.948 24.4541Z" fill="white"/>
<path d="M155.353 24.463V20.6689L13.1541 94.816L13.1804 103.797L155.37 29.6501L155.353 24.463Z" fill="white"/>
<path d="M13.1804 103.798L13.4 180.171L13.4264 184.049L17.2825 181.934L155.625 109.775L155.37 29.6509L13.1804 103.798Z" fill="#3F9AE0"/>
<path d="M130.283 65.8729C133.059 64.4244 135.308 65.5832 135.316 68.4685C135.325 71.3497 133.09 74.8501 130.314 76.2987L45.0396 120.788C42.2638 122.232 40.0152 121.073 40.0064 118.192C39.9976 115.311 42.2331 111.811 45.0088 110.362L130.283 65.8729Z" fill="#0074D1"/>
<path d="M181.094 151.374L99.8472 194.054C96.259 195.935 91.3268 195.681 85.8588 192.839C75.0502 187.204 66.2399 173.452 66.2794 162.213L66.3629 136.488C66.4024 128.046 59.8364 117.799 51.7596 113.6L49.1508 112.235L130.437 69.5557L133.046 70.9169C141.127 75.1237 147.689 85.363 147.649 93.7687L147.57 119.533C147.526 130.773 156.297 144.52 167.145 150.16C172.613 152.997 177.546 153.255 181.094 151.374Z" fill="#F2F2F2"/>
<path d="M183.527 155.132L102.232 197.819C106.369 195.644 108.943 191.033 108.96 184.476L190.247 141.789C190.229 148.341 187.656 152.957 183.518 155.132H183.527Z" fill="#D6D4D2"/>
<path d="M108.969 183.583L190.256 140.9V141.789L108.96 184.476L108.969 183.583Z" fill="#D6D4D2"/>
<path d="M113.805 174.004L195.091 131.316C192.118 132.88 190.269 136.19 190.26 140.901L108.965 183.584C108.978 178.877 110.831 175.567 113.805 174.004Z" fill="#D6D4D2"/>
<path d="M172.846 238.225L254.132 195.538L254.119 199.074L172.833 241.761L172.846 238.225Z" fill="#C4C2C0"/>
<path d="M51.7507 113.592C59.8495 117.815 66.3935 128.058 66.3671 136.472L66.2881 162.213C66.2529 173.456 75.0281 187.196 85.8587 192.847C96.6893 198.494 105.526 193.946 105.561 182.699V181.81C105.601 170.372 114.617 165.729 125.632 171.476C136.678 177.238 145.607 191.244 145.572 202.681L145.532 215.52C145.519 220.171 149.156 225.866 153.636 228.204L172.846 238.225L172.833 241.761L153.627 231.74C147.276 228.426 142.107 220.338 142.129 213.742L142.168 200.903C142.199 191.41 134.768 179.814 125.624 175.043C116.479 170.273 109 174.091 108.969 183.584V184.477C108.925 197.665 98.5515 203.011 85.8499 196.383C73.1483 189.755 62.8404 173.623 62.8799 160.435L62.9634 134.694C62.9853 128.225 57.9697 120.375 51.7375 117.128L49.1331 115.767L49.1418 112.231L51.7507 113.592Z" fill="#B2B0AF"/>
<path d="M111.411 170.233L192.697 127.546C196.343 125.637 201.376 125.895 206.919 128.788C217.964 134.551 226.898 148.56 226.858 159.994L145.572 202.681C145.607 191.244 136.678 177.238 125.632 171.476C120.089 168.578 115.052 168.32 111.411 170.233Z" fill="#F2F2F2"/>
<path d="M192.697 127.546L111.411 170.233C112.962 169.444 114.712 169.03 116.492 169.031L197.779 126.343C195.899 126.371 194.178 126.772 192.697 127.546Z" fill="#D6D4D2"/>
<path d="M254.146 195.53L172.855 238.209L153.644 228.22C149.16 225.863 145.528 220.187 145.528 215.504L145.572 202.681C145.611 191.252 136.678 177.25 125.624 171.464C122.36 169.769 119.22 168.995 116.488 169.031L197.779 126.352C200.511 126.312 203.651 127.086 206.915 128.784C217.965 134.531 226.898 148.576 226.858 160.002L226.815 172.825C226.815 177.468 230.447 183.183 234.935 185.505L254.146 195.53Z" fill="#F2F2F2"/>
<path d="M244.804 194.902L171.673 233.307L168.292 231.573L241.418 193.132L244.804 194.902ZM231.347 187.79L158.089 226.267L155.687 225.012C155.383 224.853 155.096 224.669 154.83 224.461L228.734 185.651C229.551 186.461 230.403 187.159 231.347 187.79ZM223.635 177.69L149.687 216.539C149.648 216.174 149.608 215.841 149.608 215.507V213.039L222.862 174.562C222.985 175.594 223.27 176.666 223.635 177.698V177.69ZM222.778 160.478V163.982L149.652 202.383C149.652 201.28 149.564 200.172 149.362 199.029L222.778 160.478ZM220.903 150.822L146.793 189.743C146.422 188.769 145.973 187.82 145.449 186.905L219.682 147.948C220.13 148.905 220.538 149.865 220.903 150.822ZM189.246 153.219L140.31 178.944C139.654 178.129 138.974 177.33 138.272 176.547L187.129 150.826C187.906 151.6 188.596 152.373 189.246 153.219ZM178.6 144.666L130.521 169.951C129.604 169.339 128.651 168.774 127.666 168.256C127.582 168.216 127.459 168.181 127.38 168.109L174.401 143.38C175.745 143.603 177.172 144.003 178.6 144.666ZM138.598 80.7941L64.3645 119.79C63.7585 118.925 63.1047 118.088 62.4056 117.282L136.516 78.3613C137.249 79.1352 137.947 79.9488 138.598 80.7941ZM143.53 102.983V106.483L70.399 144.888L70.4429 141.388L143.53 102.983ZM153.442 143.781L79.2884 182.702C78.5767 181.91 77.9098 181.086 77.29 180.234L151.444 141.313C152.094 142.162 152.748 143.007 153.442 143.781ZM146.67 133.169L72.5599 172.09C72.1277 171.132 71.7739 170.146 71.5014 169.141L145.528 130.292C145.853 131.252 146.222 132.209 146.67 133.169ZM143.53 120.636L70.3595 159.077L70.399 155.54L143.49 117.135V119.533C143.49 119.902 143.486 120.267 143.53 120.636ZM143.49 92.3668L69.749 131.066C69.5031 130.073 69.2176 129.042 68.8487 128.045L142.88 89.1601C143.205 90.2674 143.407 91.335 143.49 92.3668Z" fill="#D6D4D2"/>
<path d="M214.46 140.022L195.113 150.186C191.24 144.952 186.386 141.598 180.268 140.344L199.611 130.184C205.729 131.434 210.626 134.788 214.456 140.026L214.46 140.022Z" fill="#E19CBD"/>
<path d="M39.2377 85.6692C39.2816 87.1455 38.1397 88.9513 36.7079 89.6855C35.2806 90.4236 34.1782 89.7966 34.1386 88.3242C34.1386 86.8479 35.2806 85.1175 36.7079 84.3436C38.1353 83.6054 39.2377 84.1968 39.2377 85.6692ZM31.2839 89.8363C31.2839 91.3087 30.142 93.1144 28.7146 93.8526C27.2872 94.5908 26.1848 93.9637 26.1848 92.4874C26.1409 91.0507 27.2828 89.2807 28.7146 88.5425C30.142 87.7726 31.2443 88.3599 31.2839 89.8363ZM23.2905 93.9994C23.2905 95.4718 22.1486 97.2815 20.7212 98.0157C19.3333 98.7539 18.1914 98.1626 18.1914 96.6902C18.1914 95.2139 19.2894 93.4478 20.7212 92.7096C22.1486 91.9714 23.2905 92.5231 23.2905 93.9994Z" fill="#F25A5A"/>
<path d="M151.321 84.7947L145.721 81.8579L145.633 54.5811L151.233 57.5179L151.321 84.7947Z" fill="#D1A60C"/>
<path d="M151.233 57.5181L145.638 54.5813L245.586 2.42871L251.181 5.36554L151.233 57.5181Z" fill="#FFE177"/>
<path d="M151.233 57.5181L145.638 54.5813L225.664 12.8267L231.268 15.7635L151.233 57.5181Z" fill="#FBD85D"/>
<path d="M151.233 57.5181L145.638 54.5812L205.742 23.2246L211.337 26.1614L151.233 57.5181Z" fill="#FFE177"/>
<path d="M151.233 57.5179L145.638 54.5811L185.253 33.9082L190.853 36.849L151.233 57.5179Z" fill="#FBD85D"/>
<path d="M151.233 57.5182L145.638 54.5813L165.889 44.0127L171.489 46.9495L151.233 57.5182Z" fill="#FFE177"/>
<path d="M251.185 5.37354L251.273 32.6504L151.321 84.799L151.233 57.5182L251.185 5.37354Z" fill="#FFC701"/>
<path d="M160.456 75.0027C160.131 75.1724 159.968 75.074 159.968 74.7073V58.4823C159.968 58.1156 160.131 57.8474 160.456 57.6777L162.184 56.7753C162.509 56.6056 162.672 56.704 162.672 57.0707V71.3457L169.254 67.9093C169.579 67.7396 169.741 67.8381 169.741 68.2048V69.6048C169.741 69.9714 169.579 70.2396 169.254 70.4093L160.456 75.0027ZM172.339 68.7984C172.014 68.9681 171.852 68.8696 171.852 68.503V52.278C171.852 51.9113 172.014 51.6431 172.339 51.4734L174.068 50.5709C174.393 50.4012 174.555 50.4997 174.555 50.8664V67.0914C174.555 67.4581 174.393 67.7262 174.068 67.8959L172.339 68.7984ZM182.244 64.0521C181.594 64.3915 180.922 64.6758 180.228 64.905C179.548 65.1265 178.942 65.2678 178.41 65.3288C178.174 65.3689 178.019 65.3499 177.945 65.2718C177.871 65.1937 177.834 65.0296 177.834 64.7796V63.5546C177.834 63.4046 177.864 63.2725 177.923 63.1583C177.982 63.0275 178.063 62.935 178.167 62.8811C178.314 62.8039 178.565 62.7311 178.92 62.6627C179.393 62.5658 179.939 62.4138 180.56 62.2065C181.18 61.9825 181.742 61.7394 182.244 61.4771C183.293 60.9294 184.098 60.3007 184.66 59.5909C185.221 58.8645 185.502 58.1013 185.502 57.3013C185.502 56.7346 185.332 56.3566 184.992 56.1674C184.652 55.9781 184.054 55.9239 183.197 56.0046L181.225 56.1843C179.984 56.299 179.083 56.1361 178.521 55.6959C177.96 55.239 177.679 54.4523 177.679 53.3356C177.679 51.7856 178.159 50.3099 179.119 48.9085C180.095 47.4828 181.402 46.3418 183.042 45.4856C184.15 44.9071 185.339 44.5028 186.61 44.2728C186.846 44.2327 187.002 44.2517 187.075 44.3298C187.149 44.4079 187.186 44.5719 187.186 44.8219V46.0219C187.186 46.1719 187.157 46.3124 187.098 46.4432C187.038 46.5574 186.957 46.6415 186.854 46.6955C186.721 46.7649 186.47 46.8377 186.1 46.9139C185.081 47.1461 184.135 47.4898 183.264 47.9449C181.299 48.9708 180.316 50.2254 180.316 51.7087C180.316 52.2754 180.493 52.6495 180.848 52.831C181.203 53.0126 181.831 53.0514 182.732 52.9476L184.616 52.7391C185.857 52.6078 186.75 52.7661 187.297 53.2141C187.858 53.6543 188.139 54.4411 188.139 55.5744C188.139 57.2577 187.615 58.8566 186.566 60.3709C185.517 61.8686 184.076 63.0956 182.244 64.0521ZM194.857 57.0419C194.532 57.2116 194.37 57.1131 194.37 56.7464V42.4714L190.048 44.7276C189.723 44.8973 189.561 44.7988 189.561 44.4322V43.0322C189.561 42.6655 189.723 42.3973 190.048 42.2276L201.395 36.3036C201.72 36.1339 201.883 36.2324 201.883 36.5991V37.9991C201.883 38.3657 201.72 38.6339 201.395 38.8036L197.074 41.0598V55.3348C197.074 55.7015 196.911 55.9697 196.586 56.1394L194.857 57.0419ZM210.509 42.2953L208.182 35.5102L205.877 44.7135L210.509 42.2953ZM201.689 53.4753C201.57 53.537 201.474 53.5622 201.401 53.5507C201.341 53.5149 201.312 53.447 201.312 53.347C201.312 53.2803 201.356 53.0822 201.445 52.7526L206.608 34.1317C206.668 33.9008 206.749 33.7168 206.852 33.5794C206.956 33.4421 207.096 33.3272 207.273 33.2346L209.223 32.2164C209.401 32.1238 209.541 32.0922 209.645 32.1216C209.748 32.1509 209.829 32.2501 209.888 32.4193L215.03 45.66C215.118 45.897 215.163 46.0489 215.163 46.1156C215.163 46.2156 215.126 46.3182 215.052 46.4234C214.993 46.5043 214.904 46.5755 214.786 46.6372L212.858 47.6439C212.695 47.7287 212.57 47.7609 212.481 47.7406C212.407 47.6958 212.341 47.5972 212.282 47.4447L211.129 44.1964L205.234 47.2741L204.104 51.7141C204.045 51.945 203.971 52.1169 203.883 52.2299C203.809 52.3351 203.691 52.4301 203.528 52.515L201.689 53.4753ZM217.764 45.0826C217.439 45.2523 217.276 45.1538 217.276 44.7871V28.5621C217.276 28.1955 217.439 27.9273 217.764 27.7576L222.528 25.27C224.804 24.0821 226.54 23.9174 227.736 24.7759C228.948 25.6267 229.554 27.4438 229.554 30.2272C229.554 33.0272 228.94 35.4973 227.714 37.6375C226.503 39.77 224.767 41.4263 222.506 42.6065L217.764 45.0826ZM219.98 41.5255L222.218 40.3569C225.276 38.7602 226.806 35.9619 226.806 31.9619V31.4119C226.806 27.4285 225.276 26.2352 222.218 27.8319L219.98 29.0005V41.5255ZM239.204 31.7635C240.697 30.9845 241.834 29.8405 242.617 28.3317C243.4 26.8062 243.792 24.9768 243.792 22.8435C243.792 20.7102 243.4 19.2979 242.617 18.6067C241.834 17.8989 240.697 17.9345 239.204 18.7135C237.712 19.4926 236.575 20.6449 235.792 22.1704C235.008 23.6792 234.617 25.5003 234.617 27.6336C234.617 29.7669 235.008 31.1875 235.792 31.8954C236.575 32.5866 237.712 32.5426 239.204 31.7635ZM239.204 34.3135C237.683 35.108 236.368 35.4279 235.26 35.2731C234.152 35.1016 233.309 34.4829 232.733 33.4171C232.157 32.3512 231.869 30.9017 231.869 29.0683C231.869 27.185 232.172 25.4019 232.778 23.7189C233.383 22.036 234.233 20.5508 235.326 19.2634C236.434 17.9682 237.727 16.9349 239.204 16.1635C240.726 15.369 242.041 15.0575 243.149 15.229C244.257 15.3838 245.099 15.9942 245.676 17.06C246.252 18.1258 246.54 19.5754 246.54 21.4088C246.54 23.2921 246.237 25.0752 245.631 26.7581C245.025 28.4411 244.169 29.9301 243.06 31.2253C241.967 32.5128 240.682 33.5422 239.204 34.3135Z" fill="white"/>
<path d="M352.046 182.196L391.351 164.079V154.745L351.788 136.624L312.482 154.745V164.079L352.046 182.196Z" fill="#E4E8F4"/>
<path d="M391.358 161.734L391.351 164.075L352.045 182.197V179.85L391.358 161.734Z" fill="#E5A03C"/>
<path d="M352.052 179.85L352.046 182.201L312.482 164.08L312.489 161.729L352.052 179.85Z" fill="#EFAC41"/>
<path d="M391.358 161.734L352.053 179.85L312.489 161.734L351.795 143.612L391.358 161.734Z" fill="#F9BB4A"/>
<path d="M391.358 159.403L391.351 161.75L352.045 179.871V177.52L391.358 159.403Z" fill="#E63044"/>
<path d="M352.052 177.525L352.046 179.871L312.482 161.75L312.489 159.403L352.052 177.525Z" fill="#ED435C"/>
<path d="M391.358 159.403L352.053 177.525L312.489 159.403L351.795 141.282L391.358 159.403Z" fill="#F25574"/>
<path d="M391.358 157.073L391.351 159.424L352.045 177.541V175.194L391.358 157.073Z" fill="#65AA65"/>
<path d="M352.052 175.194L352.046 177.545L312.482 159.418L312.489 157.077L352.052 175.194Z" fill="#6EBA6E"/>
<path d="M391.358 157.071L352.053 175.193L312.489 157.076L351.795 138.955L391.358 157.071Z" fill="#75CA75"/>
<path d="M391.358 154.746L391.351 157.092L352.045 175.213V172.862L391.358 154.746Z" fill="#9F14E1"/>
<path d="M352.052 172.867L352.046 175.213L312.482 157.092L312.489 154.746L352.052 172.867Z" fill="#B945EF"/>
<path d="M391.358 154.745L352.053 172.867L312.489 154.745L351.795 136.624L391.358 154.745Z" fill="#EA74FD"/>
<path d="M360.416 144.748L358.025 145.847L348.869 141.655L351.253 140.551L360.416 144.748ZM377.394 158.049L374.978 159.163L365.79 154.956L368.206 153.842L377.394 158.049ZM354.404 147.518L351.988 148.633L342.825 144.436L345.241 143.321L354.404 147.518ZM348.36 150.299L345.976 151.403L336.813 147.212L339.204 146.107L348.36 150.299ZM365.912 152.789L363.496 153.903L354.307 149.696L356.724 148.582L365.912 152.789ZM342.348 153.075L339.932 154.189L330.775 149.992L333.192 148.878L342.348 153.075ZM359.868 155.575L357.484 156.674L348.295 152.467L350.686 151.367L359.868 155.575ZM353.856 158.345L351.44 159.46L342.258 155.252L344.674 154.138L353.856 158.345ZM369.192 148.766L366.808 149.87L360.351 146.91L362.735 145.811L369.192 148.766ZM380.358 153.877L377.961 154.982L371.827 152.17L374.218 151.066L380.358 153.877ZM365.345 163.605L362.922 164.72L353.74 160.513L356.157 159.398L365.345 163.605ZM371.357 160.83L368.966 161.934L359.778 157.727L362.168 156.622L371.357 160.83Z" fill="#B945EF"/>
<path d="M523.74 302.957L563.045 284.841V275.507L523.482 257.385L484.176 275.507V284.841L523.74 302.957Z" fill="#E4E8F4"/>
<path d="M563.052 282.495L563.045 284.836L523.74 302.957V300.611L563.052 282.495Z" fill="#E5A03C"/>
<path d="M523.746 300.612L523.74 302.964L484.176 284.842L484.183 282.491L523.746 300.612Z" fill="#EFAC41"/>
<path d="M563.052 282.495L523.747 300.611L484.183 282.495L523.489 264.374L563.052 282.495Z" fill="#F9BB4A"/>
<path d="M563.052 280.163L563.045 282.509L523.74 300.631V298.279L563.052 280.163Z" fill="#E63044"/>
<path d="M523.746 298.285L523.74 300.631L484.176 282.509L484.183 280.163L523.746 298.285Z" fill="#ED435C"/>
<path d="M563.052 280.164L523.747 298.285L484.183 280.164L523.489 262.042L563.052 280.164Z" fill="#F25574"/>
<path d="M563.052 277.833L563.045 280.184L523.74 298.3V295.954L563.052 277.833Z" fill="#65AA65"/>
<path d="M523.746 295.954L523.74 298.305L484.176 280.179L484.183 277.837L523.746 295.954Z" fill="#6EBA6E"/>
<path d="M563.052 277.832L523.747 295.954L484.183 277.837L523.489 259.716L563.052 277.832Z" fill="#75CA75"/>
<path d="M563.052 275.507L563.045 277.854L523.74 295.975V293.624L563.052 275.507Z" fill="#9F14E1"/>
<path d="M523.746 293.629L523.74 295.975L484.176 277.854L484.183 275.507L523.746 293.629Z" fill="#B945EF"/>
<path d="M563.052 275.507L523.746 293.628L484.183 275.507L523.489 257.385L563.052 275.507Z" fill="#EA74FD"/>
<path d="M532.11 265.508L529.719 266.607L520.563 262.415L522.947 261.311L532.11 265.508ZM549.089 278.809L546.672 279.923L537.484 275.716L539.9 274.602L549.089 278.809ZM526.098 268.278L523.682 269.393L514.519 265.196L516.935 264.082L526.098 268.278ZM520.054 271.059L517.67 272.164L508.507 267.972L510.898 266.868L520.054 271.059ZM537.606 273.549L535.19 274.663L526.001 270.456L528.418 269.342L537.606 273.549ZM514.042 273.835L511.626 274.949L502.469 270.753L504.886 269.638L514.042 273.835ZM531.562 276.335L529.178 277.434L519.989 273.227L522.38 272.128L531.562 276.335ZM525.55 279.105L523.134 280.22L513.952 276.013L516.368 274.898L525.55 279.105ZM540.886 269.526L538.502 270.63L532.045 267.67L534.429 266.571L540.886 269.526ZM552.053 274.638L549.656 275.742L543.521 272.93L545.912 271.826L552.053 274.638ZM537.039 284.365L534.616 285.48L525.434 281.273L527.851 280.158L537.039 284.365ZM543.051 281.59L540.66 282.694L531.472 278.487L533.862 277.383L543.051 281.59Z" fill="#B945EF"/>
<path d="M513.451 191.911L513.419 196.409C513.419 197.406 512.581 198.429 510.874 199.231L490.229 208.754C486.814 210.303 481.317 210.303 477.934 208.754L421.876 183.093C420.175 182.296 419.298 181.273 419.298 180.22L419.337 175.722C419.337 176.77 420.175 177.792 421.882 178.589L477.941 204.251C481.35 205.8 486.852 205.8 490.229 204.251L510.913 194.722C512.614 193.92 513.451 192.903 513.451 191.911Z" fill="#474B59"/>
<path d="M510.893 189.064C514.289 190.623 514.308 193.149 510.906 194.713L490.235 204.246C486.833 205.816 481.343 205.816 477.941 204.257L421.895 178.585C418.493 177.031 418.454 174.495 421.856 172.926L442.527 163.392C445.93 161.828 451.445 161.838 454.847 163.392L510.893 189.064Z" fill="#5B5E71"/>
<path d="M494.765 164.497L494.752 192.72L487.052 196.272L487.065 168.05L494.765 164.497Z" fill="#BAC1CE"/>
<path d="M487.065 168.049L487.052 196.267L439.305 174.398L439.312 146.176L487.065 168.049Z" fill="#D4DAE8"/>
<path d="M567.332 194.892L567.268 213.443C567.288 213.87 567.187 214.294 566.972 214.686C566.398 215.693 565.006 215.948 563.376 215.197L385.296 133.637C383.704 132.911 382.319 131.383 381.752 129.854C381.548 129.362 381.439 128.849 381.43 128.331L381.494 109.785L567.332 194.892Z" fill="#E4E8F4"/>
<path d="M580.851 188.676L580.786 207.227C580.786 207.682 580.657 208.137 580.464 208.443C580.313 208.768 580.018 209.037 579.633 209.2L566.159 215.436C566.482 215.283 566.797 215.027 566.991 214.67C567.184 214.285 567.272 213.872 567.248 213.458L567.313 194.912L580.851 188.676Z" fill="#BAC1CE"/>
<path d="M560.902 96.8504L560.579 185.582L388.331 106.686L388.653 17.9541L560.902 96.8504Z" fill="#E4E8F4"/>
<path d="M580.967 95.1385L580.645 188.675L567.107 194.912L567.493 101.37C567.493 97.1679 563.782 92.051 559.181 89.9193L389.999 12.4492C389.055 11.9945 387.977 11.744 386.872 11.7224C385.768 11.7009 384.676 11.9092 383.704 12.3265L397.596 5.76289C399.13 5.05234 401.237 5.15457 403.537 6.22295L572.667 83.6931C577.268 85.8247 580.973 90.9366 580.973 95.1437L580.967 95.1385Z" fill="#3F434F"/>
<path d="M559.374 89.9308C563.982 92.042 567.68 97.164 567.667 101.361L567.332 194.892L381.5 109.78L381.835 16.2485C381.848 12.0466 385.611 10.3443 390.219 12.4555L559.374 89.9308ZM560.586 185.584L560.902 96.8522L388.646 17.9559L388.331 106.687L560.586 185.584Z" fill="#525566"/>
<path d="M463.204 152.33C466.793 153.976 469.622 157.912 469.609 161.133C469.596 164.405 466.748 165.693 463.166 164.047C459.622 162.431 456.742 158.521 456.754 155.244C456.767 152.024 459.673 150.71 463.204 152.33Z" fill="#BAC1CE"/>
<path d="M446.655 73.0247L446.462 126.464L435.154 121.281L435.347 67.8413L446.655 73.0247Z" fill="#37617B"/>
<path d="M468.963 94.812L468.815 136.709L457.474 131.51L457.622 89.6133L468.963 94.812Z" fill="#5B5E71"/>
<path d="M403.526 65.1421L403.378 107.039L392.037 101.84L392.185 59.9434L403.526 65.1421Z" fill="#5B5E71"/>
<path d="M491.489 120.726L491.393 147.445L480.078 142.257L480.168 115.537L491.489 120.726Z" fill="#6EBA6E"/>
<path d="M423.602 89.0948L423.506 115.814L412.191 110.626L412.281 83.9062L423.602 89.0948Z" fill="#6EBA6E"/>
<path d="M513.61 114.048L513.456 157.166L502.141 151.983L502.295 108.864L513.61 114.048Z" fill="#4562EF"/>
<path d="M535.989 107.689L535.776 167.396L524.461 162.212L524.674 102.506L535.989 107.689Z" fill="#EA74FD"/>
<path d="M556.365 103.329L556.108 177.629L544.786 172.441L545.05 98.1401L556.365 103.329Z" fill="#FFC701"/>
<path d="M551.414 77.8329C564.591 83.8661 575.294 98.5427 575.247 110.584C575.206 122.597 564.435 127.467 551.258 121.43C538.081 115.393 527.378 100.687 527.425 88.6786C527.466 76.637 538.237 71.7956 551.414 77.8329ZM551.279 115.657C560.963 120.094 568.885 116.51 568.916 107.681C568.947 98.8273 561.077 88.0146 551.393 83.5774C541.678 79.1319 533.761 82.7114 533.73 91.5652C533.694 100.39 541.564 111.207 551.279 115.657Z" fill="#ED435C"/>
<path d="M551.435 72.0848C568.105 79.7221 581.61 98.2752 581.553 113.471C581.501 128.643 567.908 134.812 551.237 127.179C534.567 119.542 521.062 100.96 521.12 85.7924C521.171 70.5961 534.765 64.4516 551.435 72.0848ZM551.258 121.43C564.435 127.468 575.206 122.597 575.247 110.585C575.294 98.5432 564.591 83.8666 551.414 77.8334C538.237 71.7961 527.466 76.6375 527.425 88.6791C527.378 100.692 538.081 115.393 551.258 121.43Z" fill="#E8F1FA"/>
<path d="M594.122 113.487C594.075 122.589 590.031 129.014 583.491 132.045L577.217 134.94C583.757 131.909 587.806 125.484 587.847 116.341C587.941 97.9572 571.614 75.5484 551.461 66.3028C541.324 61.6428 532.113 61.2222 525.486 64.2945L531.76 61.3995C538.387 58.3314 547.552 58.752 557.735 63.412C577.888 72.6576 594.21 95.0623 594.122 113.483V113.487Z" fill="#F76D8E"/>
<path d="M551.456 66.3102C571.619 75.5475 587.925 97.9523 587.858 116.357C587.79 134.741 571.38 142.16 551.216 132.922C531.022 123.677 514.746 101.284 514.814 82.9003C514.876 64.4957 531.261 57.0605 551.456 66.3102ZM551.237 127.178C567.908 134.811 581.501 128.642 581.553 113.47C581.605 98.2739 568.105 79.7208 551.435 72.0835C534.764 64.4503 521.171 70.5948 521.119 85.7911C521.067 100.959 534.567 119.54 551.237 127.178Z" fill="#ED435C"/>
<path d="M551.372 89.3266C545.15 86.4812 540.051 88.7864 540.03 94.4525C540.015 100.123 545.078 107.059 551.3 109.909C557.517 112.758 562.59 110.465 562.611 104.795C562.632 99.1248 557.595 92.1762 551.372 89.3307V89.3266Z" fill="#ED435C"/>
<path d="M551.393 83.578C561.077 88.0152 568.947 98.8279 568.911 107.682C568.885 116.511 560.963 120.094 551.279 115.657C541.564 111.208 533.694 100.395 533.73 91.5658C533.761 82.712 541.683 79.1325 551.393 83.578ZM551.3 109.909C557.517 112.758 562.59 110.465 562.611 104.795C562.632 99.1248 557.595 92.1761 551.372 89.3307C545.155 86.477 540.051 88.7864 540.03 94.4525C540.015 100.123 545.077 107.059 551.3 109.909Z" fill="#E8F1FA"/>
<path d="M495.846 118.18L500.587 121.578L549.642 99.1033C550.567 98.6826 551.321 99.0497 551.321 99.8662C551.291 100.321 551.124 100.764 550.835 101.158C550.545 101.552 550.142 101.885 549.657 102.13L500.597 124.597L495.898 132.37L477.383 140.849L483.329 131.009L477.331 126.663L495.846 118.18Z" fill="#363A44"/>
<path d="M88.1437 290.509L98.2924 284.101L99.6744 282.237L102.039 279.037L97.7391 279.494L92.1939 280.075L84.2901 285.068L88.1437 290.509Z" fill="#EFC348"/>
<path d="M90.7803 294.23L98.2926 284.1L88.1439 290.508L90.7803 294.23Z" fill="#FFD651"/>
<path d="M84.2901 285.068L92.1935 280.078L81.5465 281.195L84.2901 285.068Z" fill="#DDB040"/>
<path d="M44.8145 313.878C45.5634 314.839 46.1348 315.904 46.5065 317.031L91.4504 288.422C90.7466 286.298 89.3498 284.416 87.4427 283.02L42.4988 311.629C43.3831 312.277 44.1626 313.034 44.8145 313.878Z" fill="#DD4A4A"/>
<path d="M44.7998 323.77L89.697 295.187C91.7733 293.875 92.3522 291.191 91.4503 288.422L46.5063 317.03C47.4105 319.78 46.8475 322.452 44.7998 323.77Z" fill="#F25A5A"/>
<path d="M42.4951 311.628L87.4394 283.016C84.7886 281.083 81.6007 280.55 79.4176 281.934L34.4737 310.543C36.6567 309.158 39.841 309.691 42.4951 311.628Z" fill="#CC4848"/>
<path d="M37.2418 328.58L44.7601 323.799C46.8599 322.473 47.4295 319.742 46.4835 316.942L38.9688 321.723C39.9116 324.52 39.3419 327.25 37.2418 328.58Z" fill="#D6D4D2"/>
<path d="M37.3001 318.656C38.0301 319.593 38.592 320.628 38.9651 321.723L46.4834 316.942C46.1356 315.907 45.5843 314.863 44.8184 313.875C44.1291 312.986 43.3302 312.226 42.4791 311.607L34.9609 316.388C35.8552 317.04 36.6427 317.804 37.3001 318.656Z" fill="#C4C2C0"/>
<path d="M34.9608 316.387L42.4754 311.606C39.8304 309.687 36.6489 309.161 34.4738 310.539L26.9592 315.32C29.1306 313.941 32.3157 314.468 34.9608 316.387Z" fill="#B2B0AF"/>
<path d="M26.9093 325.236C24.076 321.576 24.0929 317.131 26.9558 315.32C29.831 313.497 34.4666 314.998 37.3003 318.655C40.1407 322.316 40.1167 326.76 37.2418 328.58C34.3785 330.394 29.7429 328.893 26.9093 325.236Z" fill="#E9E8E6"/>
<path d="M32.1413 331.025L36.0114 328.573C37.8914 327.382 38.468 325.012 37.7497 322.526L33.8797 324.978C34.5944 327.463 34.0177 329.833 32.1413 331.025Z" fill="#EFC348"/>
<path d="M29.8785 319.517L33.7486 317.065C31.2909 315.331 28.386 314.88 26.38 316.152L22.5099 318.603C24.5156 317.335 27.4209 317.783 29.8785 319.517Z" fill="#CEA03A"/>
<path d="M32.2042 321.744C32.9707 322.723 33.5381 323.818 33.8797 324.978L37.7498 322.526C37.4369 321.441 36.8817 320.334 36.0743 319.293C35.3918 318.408 34.5951 317.662 33.7487 317.066L29.8786 319.517C30.7715 320.151 31.5553 320.902 32.2042 321.744Z" fill="#DDB040"/>
<path d="M22.4859 327.898C19.8114 324.45 19.8317 320.299 22.5064 318.603C25.2079 316.897 29.5301 318.293 32.2006 321.743C34.8595 325.166 34.8396 329.314 32.1413 331.024C29.4631 332.72 25.1448 331.321 22.4859 327.898Z" fill="#FFD651"/>
<path d="M97.7391 279.493L102.039 279.036L99.6744 282.236L97.7391 279.493Z" fill="#434240"/>
</svg>
