<svg width="314" height="322" viewBox="0 0 314 322" fill="none" xmlns="http://www.w3.org/2000/svg">
<path d="M312.691 168.479L312.666 168.454C312.641 168.454 312.641 168.429 312.616 168.429L307.928 165.696C307.452 165.421 306.8 165.471 306.073 165.897L254.33 195.754L243.901 177.68C243.926 177.554 243.976 177.429 243.976 177.303L244.026 169.657L259.244 178.331L272.38 170.76V169.106L269.547 167.476L257.012 174.696L249.266 170.309L260.472 163.841L260.447 162.187L257.639 160.532L245.079 167.777L244.052 167.201L244.102 161.084C244.102 160.657 243.901 160.206 243.575 159.805L248.539 156.922V155.268L245.706 153.613L239.514 157.198L231.818 152.761L236.631 150.003L236.606 148.348L233.773 146.694L227.556 150.304L219.86 145.867L224.698 143.084V141.429L221.865 139.775L215.598 143.41L207.902 138.972L212.765 136.165V134.51L209.932 132.856L203.615 136.516L195.944 132.078L200.857 129.246V127.591L198.024 125.936L195.868 127.19L199.072 94.1782L306.098 156.145C307.051 156.696 307.828 156.521 308.279 155.919C308.179 156.07 308.079 156.245 307.928 156.32L312.691 153.538C313.168 153.262 313.468 152.71 313.468 151.908L313.694 67.3243C313.719 65.6698 312.541 63.6642 311.112 62.8369L203.865 0.940783C203.138 0.514604 202.512 0.464465 202.035 0.740228L197.297 3.49785H197.272C197.272 3.49785 197.272 3.52292 197.247 3.52292C196.796 3.79869 196.495 4.35021 196.495 5.1775L196.294 75.9733L117.777 61.0821L117.627 5.1775C117.627 4.35021 117.326 3.79869 116.875 3.52292H116.85V3.49785H116.825L112.087 0.740228C111.61 0.464465 110.984 0.514604 110.232 0.940783L2.98495 62.8369C1.58107 63.6642 0.402814 65.6698 0.427883 67.3243L0.653507 151.908C0.653507 152.71 0.954339 153.262 1.43066 153.538L6.19383 156.32C6.04341 156.245 5.94313 156.07 5.81779 155.919C6.2941 156.521 7.07125 156.696 8.02389 156.145L113.141 95.4513L117.426 104.327L117.251 131.326L112.212 134.234L109.805 132.856L106.972 134.51V136.165L107.95 136.716L100.304 141.179L97.8974 139.775L95.0646 141.429V143.084L96.0423 143.635L88.3711 148.098L85.9644 146.694L83.1316 148.348V150.003L84.1093 150.554L76.4631 155.017L74.0565 153.613L71.2236 155.268V156.922L72.2013 157.499L69.7195 158.928C68.7418 159.504 68.2655 160.256 68.2404 160.983V161.109L68.2153 164.067L62.1235 160.532L59.2906 162.187V163.841L68.1652 168.955L68.1401 171.638L62.7502 174.696L50.2155 167.476L47.3827 169.106L47.3576 170.76L60.494 178.331L68.1401 173.994L68.09 177.228C68.09 177.83 68.3657 178.407 68.9423 178.933C69.1178 179.108 69.3685 179.259 69.6192 179.409L73.53 181.666L64.0037 198.186L8.04896 165.897C7.32195 165.471 6.67014 165.421 6.19383 165.696L1.50586 168.429C1.48079 168.429 1.48079 168.454 1.45573 168.454L1.43066 168.479C0.954339 168.755 0.678576 169.331 0.653507 170.134L0.427883 254.717C0.427883 256.347 1.58107 258.353 3.01002 259.18L110.257 321.101C111.209 321.653 112.011 321.502 112.463 320.875C112.337 321.026 112.262 321.201 112.112 321.277L116.875 318.519C117.351 318.243 117.627 317.667 117.627 316.864L117.828 245.793L122.967 242.81L137.081 218.342L145.178 223.005L131.465 246.771L118.905 254.041V255.695L121.738 257.325L134.9 249.729L149.039 225.236L152.699 227.342C154.679 228.47 157.989 228.47 159.969 227.342L168.919 222.152H168.944L184.863 249.729L196.32 256.347L196.495 316.864C196.495 317.667 196.771 318.243 197.247 318.519L202.01 321.277C201.86 321.201 201.76 321.026 201.659 320.875C202.111 321.502 202.913 321.653 203.865 321.101L311.112 259.18C312.541 258.353 313.694 256.347 313.694 254.717L313.443 170.134C313.443 169.331 313.168 168.755 312.691 168.479ZM67.8643 200.417L77.3907 183.897L85.4881 188.56L75.9367 205.08L67.8643 200.417ZM79.7973 207.311L89.3237 190.791L97.4211 195.454L87.8947 211.974L79.7973 207.311ZM91.7303 214.206L101.282 197.685L109.354 202.348L99.8277 218.868L91.7303 214.206ZM111.761 225.762L103.663 221.1L113.215 204.554L121.287 209.242L111.761 225.762ZM119.557 239.851L117.828 240.854L117.853 232.28C117.878 230.751 116.875 228.946 115.596 228.044L125.148 211.448L133.245 216.111L119.557 239.851ZM188.272 246.771L172.779 219.896L180.852 215.233H180.877L196.294 241.957L196.32 251.408L188.272 246.771ZM198.826 227.793C197.398 228.62 196.244 230.626 196.269 232.28V233.033L184.712 212.977L192.76 208.289L192.785 208.314L202.737 225.537L198.826 227.793ZM206.573 223.331L196.62 206.058L204.693 201.37L204.718 201.395L214.67 218.643L206.573 223.331ZM218.531 216.437L208.553 199.139L216.601 194.451L216.651 194.476L226.603 211.774L218.531 216.437ZM230.464 209.543L220.461 192.22L228.534 187.532L228.559 187.557L238.561 204.88L230.464 209.543ZM242.397 202.649L232.394 185.301L240.442 180.613L240.492 180.638L250.494 197.986L242.397 202.649Z" fill="white"/>
<path d="M116.87 3.52046C116.396 3.2447 115.742 3.27729 115.022 3.68843L7.77321 65.6147C6.33674 66.4419 5.19107 68.4425 5.19107 70.0946L5.43424 154.658C5.43424 155.483 5.72505 156.047 6.18382 156.323L1.42064 153.55C0.944328 153.275 0.656031 152.71 0.656031 151.898L0.4279 67.3194C0.410351 65.6698 1.57357 63.6668 2.995 62.842L110.242 0.930802C110.979 0.504624 111.62 0.472034 112.094 0.747796L116.87 3.52046Z" fill="#9AD898"/>
<path d="M115.02 3.69518C116.451 2.8679 117.617 3.53223 117.622 5.17929L117.863 89.7507C117.868 91.3877 116.709 93.3932 115.275 94.2205L8.02392 156.142C6.59999 156.964 5.43426 156.3 5.42925 154.663L5.18858 70.0938C5.18357 68.4442 6.34177 66.4387 7.76822 65.6164L115.02 3.69518Z" fill="#75CA75"/>
<path d="M12.1604 70.5079C12.2477 70.3158 12.3663 70.1396 12.5113 69.9864L110.545 13.3975L110.758 89.2572C110.669 89.445 110.55 89.6176 110.407 89.7686L12.376 146.358L12.1604 70.5079Z" fill="white"/>
<path d="M43.9433 119.272C43.9433 120.009 43.4319 120.902 42.7901 121.288L25.7856 131.105C25.1463 131.456 24.6324 131.17 24.6324 130.403L24.4745 100.322C24.4745 99.5878 24.9859 98.6929 25.6276 98.3419L42.5996 88.5223C43.2714 88.1387 43.7828 88.427 43.7828 89.1941L43.9433 119.272ZM74.9766 100.952C74.9766 101.689 74.4652 102.581 73.8234 102.967L56.8214 112.784C56.1796 113.135 55.6682 112.85 55.6682 112.082L55.5078 82.0017C55.5078 81.2672 56.0217 80.3722 56.661 80.0212L73.6329 70.2016C74.3048 69.818 74.8162 70.1063 74.8162 70.8735L74.9766 100.952ZM106.012 82.631C106.012 83.368 105.501 84.263 104.859 84.6465L87.8547 94.4637C87.2155 94.8146 86.7015 94.5289 86.7015 93.7617L86.5436 63.6811C86.5436 62.9465 87.055 62.0516 87.6968 61.7006L104.669 51.8809C105.341 51.4974 105.852 51.7857 105.852 52.5528L106.012 82.631Z" fill="#D4DAE8"/>
<path d="M63.1263 58.5223C63.3519 58.748 63.4522 59.1616 63.4547 59.7633C63.4547 60.3649 63.3594 60.8914 63.1313 61.3802C62.9213 61.85 62.5664 62.2401 62.1185 62.4933C61.6773 62.749 61.3338 62.7766 61.1182 62.5435C60.8876 62.3178 60.7723 61.9142 60.7723 61.3126C60.7698 60.7109 60.8826 60.1744 61.1107 59.6831C61.3152 59.2171 61.6653 58.8301 62.1085 58.58C62.5647 58.3168 62.8931 58.2967 63.1238 58.5223H63.1263ZM62.7227 61.2223C62.8582 60.855 62.9236 60.4656 62.9157 60.0741C62.9157 59.6429 62.848 59.3421 62.7151 59.1541C62.5998 58.9736 62.3892 58.9661 62.1085 59.129C61.8265 59.2974 61.6133 59.5604 61.5068 59.8711C61.3705 60.2313 61.3042 60.6141 61.3112 60.9992C61.3112 61.4329 61.3789 61.7337 61.5118 61.9017C61.6422 62.0897 61.8377 62.1073 62.1185 61.9468C62.3983 61.7828 62.6113 61.5254 62.7201 61.2198" fill="#4C7891"/>
<path d="M61.3513 51.2344C61.2779 51.4579 61.239 51.6912 61.236 51.9264C61.236 52.2347 61.3188 52.4779 61.4541 52.6433C58.4207 54.9622 56.0241 59.1137 55.5403 62.8867C55.2836 62.8572 55.0246 62.9184 54.8083 63.0596C54.6055 63.1801 54.422 63.3305 54.2643 63.5059C54.8007 58.9859 57.6937 53.977 61.3513 51.2344Z" fill="#4562EF"/>
<path d="M60.3562 59.6855V60.2495L58.9773 64.2707L58.3707 64.6216L59.7194 60.6181L58.5411 61.2999V61.8264L58.0523 62.1097L58.0498 61.0192L60.3562 59.6855ZM67.0421 58.1813C67.1725 58.2766 67.2377 58.4446 67.2402 58.6702C67.2366 58.9234 67.1706 59.1718 67.0482 59.3935C66.9258 59.6152 66.7506 59.8033 66.5382 59.9412C66.3252 60.0665 66.1622 60.0841 66.0293 59.9913C65.899 59.8961 65.8163 59.7356 65.8163 59.4924C65.8163 59.2668 65.8965 59.0136 66.0268 58.7654C66.1419 58.538 66.317 58.3464 66.5332 58.2114C66.7288 58.0986 66.9093 58.0861 67.0421 58.1813ZM66.7338 59.2643L66.814 58.9359L66.7313 58.7178H66.5357L66.3377 58.9434L66.2725 59.2443L66.3552 59.4824H66.5533L66.7338 59.2643ZM66.4781 56.1532L67.0848 55.8022L64.6731 60.9816L64.0664 61.3325L66.4781 56.1532ZM64.6505 58.8457C64.4525 58.961 64.2895 58.961 64.1416 58.8757C64.0113 58.783 63.9436 58.6326 63.9411 58.3869C63.9439 58.1249 64.0176 57.8685 64.1542 57.6448C64.2668 57.4196 64.4428 57.2323 64.6606 57.1059C64.8586 56.993 65.0216 56.9755 65.1695 57.0582C65.2998 57.1535 65.3675 57.3214 65.3675 57.5671C65.3675 57.7928 65.3023 58.0359 65.172 58.2816C65.0517 58.5128 64.8716 58.7076 64.6505 58.8457ZM64.45 57.8329L64.3848 58.1337L64.4675 58.3668H64.6656L64.8436 58.1512L64.9263 57.8203L64.8436 57.6047H64.6455L64.45 57.8329Z" fill="#4C7891"/>
<path d="M62.6072 49.5702C67.6637 46.6522 71.8026 49.0087 71.8177 54.8197C71.8352 60.6509 67.7239 67.7555 62.6674 70.6736C57.5933 73.6017 53.472 71.2527 53.4544 65.4241C53.4544 64.7823 53.7853 64.0302 54.2641 63.5063C54.4219 63.3309 54.6053 63.1805 54.8081 63.06C55.0245 62.9188 55.2835 62.8576 55.5402 62.8871C55.9187 62.9522 56.1694 63.3007 56.1719 63.8547C56.1819 67.9561 59.09 69.6106 62.6574 67.5499C66.2247 65.4918 69.1127 60.4904 69.1002 56.3891C69.0901 52.2902 66.1846 50.6532 62.6147 52.7114C62.1309 52.9922 61.7022 52.942 61.454 52.6437C61.3008 52.437 61.2238 52.1837 61.2359 51.9267C61.2359 51.7011 61.276 51.468 61.3512 51.2323C61.5618 50.558 62.0507 49.8936 62.6072 49.5702Z" fill="#576CFB"/>
<path d="M31.406 76.8305C31.6367 77.0561 31.737 77.4697 31.7395 78.0714C31.7395 78.6555 31.6442 79.1995 31.4136 79.6909C31.2036 80.1606 30.8487 80.5507 30.4008 80.804C29.9595 81.0597 29.6161 81.0872 29.403 80.8541C29.1724 80.6285 29.0545 80.2048 29.052 79.6232C29.052 79.0215 29.1648 78.485 29.393 77.9937C29.5969 77.5229 29.9467 77.1301 30.3907 76.8731C30.8495 76.6073 31.1779 76.6048 31.406 76.8305ZM31.0049 79.5129C31.1403 79.1525 31.2058 78.7696 31.198 78.3848C31.198 77.9511 31.1303 77.6502 30.9974 77.4622C30.8846 77.2667 30.6715 77.2767 30.3932 77.4371C30.1118 77.6006 29.897 77.858 29.7866 78.1641C29.6513 78.5307 29.5858 78.9192 29.5935 79.3098C29.5935 79.7235 29.6612 80.0243 29.7941 80.2123C29.9244 80.4003 30.1375 80.4104 30.4008 80.2574C30.6853 80.0908 30.8992 79.8261 31.0024 79.5129" fill="#416E84"/>
<path d="M35.3244 76.4919C35.4547 76.5671 35.5224 76.7351 35.5224 76.9808C35.5193 77.2317 35.452 77.4777 35.3269 77.6952C35.2122 77.9236 35.037 78.1161 34.8205 78.2518C34.6074 78.3771 34.4444 78.3947 34.3116 78.3019C34.1812 78.2066 34.0985 78.0462 34.0985 77.8005C34.0985 77.5749 34.1787 77.3242 34.3091 77.0785C34.4238 76.8502 34.5989 76.6577 34.8155 76.522C35.0286 76.3966 35.1915 76.3966 35.3244 76.4919ZM35.016 77.5749L35.0962 77.244L35.0135 77.0284H34.818L34.6224 77.254L34.5573 77.5548L34.64 77.7905H34.8355L35.016 77.5749Z" fill="#4C7891"/>
<path d="M34.7603 74.4437L35.367 74.0928L32.9553 79.2922L32.3487 79.6431L34.7603 74.4437ZM32.9478 77.1287C32.7372 77.2515 32.5718 77.2716 32.4414 77.1788C32.291 77.0936 32.2258 76.9231 32.2258 76.6975C32.2279 76.4357 32.3007 76.1793 32.4364 75.9554C32.5488 75.7255 32.7245 75.5324 32.9428 75.3989C33.1409 75.2861 33.3038 75.2836 33.4517 75.3688C33.5846 75.4616 33.6498 75.632 33.6523 75.8577C33.6489 76.1109 33.583 76.3594 33.4606 76.5811C33.3381 76.8028 33.1629 76.9909 32.9503 77.1287H32.9478ZM32.7473 76.1134L32.667 76.4443L32.7498 76.6599H32.9478L33.1283 76.4418L33.2085 76.1309L33.1258 75.8953H32.9278L32.7473 76.1134Z" fill="#416E84"/>
<path d="M29.6161 69.5503C29.5439 69.7748 29.5058 70.0089 29.5033 70.2447C29.5033 70.5556 29.5836 70.7962 29.7189 70.9617C26.678 73.2806 24.2789 77.4346 23.7925 81.215C23.5348 81.1878 23.2756 81.2498 23.058 81.3905C22.8552 81.511 22.6718 81.6614 22.514 81.8368C23.053 77.3092 25.951 72.2904 29.6161 69.5503Z" fill="#6EBA6E"/>
<path d="M30.857 67.9003C35.931 64.9697 40.0699 67.3086 40.085 73.1398C40.1025 78.9508 35.9912 86.073 30.9171 89.0011C25.8581 91.9217 21.7217 89.5627 21.7042 83.7516C21.7042 83.1098 22.0351 82.3577 22.5139 81.8363C22.6715 81.6601 22.8549 81.5088 23.0579 81.3876C23.2755 81.2468 23.5347 81.1849 23.7924 81.2121C24.176 81.2722 24.4367 81.6182 24.4392 82.1747C24.4493 86.256 27.3397 87.9407 30.9071 85.88C34.4745 83.8193 37.3625 78.8004 37.3499 74.7191C37.3399 70.6178 34.4344 68.9607 30.867 71.0214C30.3832 71.2997 29.9595 71.2571 29.7188 70.9612C29.5667 70.7541 29.4906 70.5009 29.5032 70.2442C29.5032 70.0211 29.5433 69.7855 29.616 69.5498C29.8241 68.8805 30.2979 68.2212 30.857 67.9003Z" fill="#75CA75"/>
<path d="M98.1706 37.8652C98.3009 37.958 98.3686 38.1259 98.3686 38.3541C98.3665 38.6159 98.2938 38.8722 98.1581 39.0961C98.0449 39.3203 97.8689 39.5067 97.6516 39.6326C97.4536 39.7479 97.2907 39.7655 97.1427 39.6827C97.0124 39.5875 96.9447 39.4195 96.9447 39.1738C96.9447 38.9482 97.0099 38.705 97.1402 38.4594C97.2605 38.2281 97.4406 38.0334 97.6617 37.8953C97.8597 37.78 98.0227 37.78 98.1706 37.8652ZM97.8622 38.9457L97.9274 38.6273L97.8597 38.4017H97.6642L97.4686 38.6273L97.3859 38.9382L97.4686 39.1738H97.6667L97.8622 38.9457ZM97.5915 35.8421L98.1957 35.4937L95.8015 40.6629L95.1949 41.0139L97.5915 35.8421ZM94.2372 38.2137C94.4678 38.4393 94.5832 38.8429 94.5857 39.4446C94.5952 40.0064 94.4787 40.5632 94.2447 41.0741C94.0403 41.54 93.6901 41.9271 93.247 42.1771C92.7907 42.4404 92.4623 42.4604 92.2317 42.2348C92.0186 42.0017 91.9033 41.5955 91.9007 40.9939C91.9007 40.3922 92.0111 39.8557 92.2241 39.3769C92.4341 38.9071 92.789 38.517 93.2369 38.2638C93.6782 38.0081 94.0241 37.9805 94.2372 38.2137ZM93.8511 40.9036C93.9815 40.5652 94.0291 40.1992 94.0266 39.7655C94.0266 39.3343 93.9765 39.0234 93.8461 38.8379C93.7133 38.6674 93.5177 38.6474 93.2395 38.8103C92.954 38.9765 92.7391 39.2413 92.6353 39.5549C92.499 39.9151 92.4327 40.298 92.4397 40.683C92.4397 41.1142 92.5074 41.415 92.6403 41.5855C92.7556 41.781 92.9662 41.7911 93.247 41.6306C93.5255 41.4645 93.7388 41.2079 93.8511 40.9036ZM90.8679 41.42C91.1963 41.4752 91.3442 41.7108 91.3442 42.1245C91.3343 42.4874 91.2222 42.8402 91.0208 43.1423C90.7895 43.4871 90.4814 43.7737 90.1208 43.9796C89.7623 44.1877 89.469 44.2454 89.2359 44.1701C89.0078 44.0774 88.8924 43.8818 88.8899 43.5434C88.8899 43.1273 89.0529 42.7161 89.3637 42.2899C89.1331 42.1972 89.0027 42.0267 89.0002 41.7259C89.0002 41.4451 89.113 41.1342 89.3261 40.8234C89.5392 40.5125 89.7999 40.2669 90.1108 40.0864C90.4367 39.8983 90.6999 39.8407 90.913 39.9059C91.1111 39.9811 91.2264 40.1591 91.2264 40.4423C91.2264 40.7432 91.1136 41.054 90.8679 41.42ZM90.5771 42.9994C90.7192 42.8384 90.8 42.6325 90.8052 42.4178C90.8052 42.2298 90.7225 42.1069 90.5921 42.0894C90.4258 42.0631 90.2556 42.1007 90.1158 42.1947C89.9284 42.3076 89.7669 42.4588 89.642 42.6384C89.5173 42.8002 89.4486 42.9982 89.4465 43.2025C89.4465 43.408 89.5142 43.5208 89.6621 43.5284L90.1208 43.4356L90.5771 42.9994ZM89.7047 40.9813L89.5242 41.4827L89.7047 41.7911L90.1158 41.7234L90.542 41.3097L90.7024 40.8008L90.5395 40.5L90.1133 40.5752L89.7047 40.9813Z" fill="#4C7891"/>
<path d="M93.5554 29.3565C98.6295 26.4284 102.768 28.7849 102.783 34.596C102.801 40.4271 98.6896 47.5317 93.6156 50.4598C88.5591 53.3804 84.4202 51.0389 84.4026 45.2103C84.4026 44.3429 85.0043 43.28 85.7564 42.8463C86.4984 42.4176 87.1352 42.7585 87.1352 43.6309C87.1477 47.7323 90.0558 49.3869 93.6081 47.3362C97.1754 45.278 100.063 40.2767 100.051 36.1753C100.038 32.0765 97.1328 30.437 93.5655 32.4977C92.8084 32.9339 92.2042 32.5578 92.2017 31.703C92.2017 30.8506 92.7958 29.7977 93.5554 29.3565Z" fill="#F9BB4A"/>
<path d="M92.3146 31.0083C92.2423 31.2328 92.2042 31.4669 92.2018 31.7027C92.2018 32.0111 92.282 32.2542 92.4148 32.4197C89.3764 34.7386 86.9748 38.8926 86.491 42.6705C86.2341 42.6439 85.9758 42.7058 85.7589 42.846C85.5635 42.9616 85.3862 43.1052 85.2325 43.2722C85.769 38.7497 88.6544 33.7459 92.3146 31.0083Z" fill="#EFAC41"/>
<path d="M95.7791 38.5295C95.5836 38.6423 95.4031 38.6549 95.2702 38.5596C95.1373 38.4643 95.0747 38.3139 95.0721 38.0708C95.0755 37.8175 95.1414 37.569 95.2638 37.3473C95.3863 37.1256 95.5615 36.9375 95.7741 36.7997C95.9872 36.6744 96.1501 36.6568 96.283 36.7496C96.4134 36.8449 96.4961 37.0028 96.4961 37.2485C96.4961 37.4741 96.4159 37.7273 96.2855 37.973C96.1708 38.2013 95.9956 38.3938 95.7791 38.5295ZM95.5785 37.5142L95.4983 37.8251L95.5811 38.0607H95.7766L95.9746 37.8351L96.0373 37.5142L95.9721 37.2886H95.7766L95.5785 37.5142Z" fill="#4C7891"/>
<path d="M28.3451 78.1489V78.7305L26.9563 79.5328V80.4553C27.0878 80.3059 27.2427 80.1789 27.415 80.0793C27.7259 79.8988 27.9891 79.8411 28.2173 79.9339C28.4479 80.0091 28.5482 80.2347 28.5482 80.6107C28.5482 80.9692 28.4354 81.3377 28.2072 81.7138C27.9791 82.0898 27.6858 82.3731 27.3574 82.5611C26.9162 82.8168 26.5552 82.8544 26.2919 82.6664L26.5852 82.0272L26.6855 82.0823H26.9462L27.3875 81.9219L27.8136 81.5258C27.944 81.3377 28.0092 81.1497 28.0092 80.9417C28.0092 80.7336 27.9415 80.6032 27.7936 80.5756C27.6632 80.538 27.4827 80.5857 27.2872 80.701C27.0574 80.8378 26.8523 81.0124 26.6805 81.2174L26.4524 81.067L26.4474 79.2445L28.3451 78.1489Z" fill="#416E84"/>
<path d="M197.247 3.52046C197.723 3.2447 198.38 3.27729 199.1 3.68843L306.346 65.6147C307.785 66.4419 308.929 68.4425 308.929 70.0946L308.685 154.658C308.685 155.483 308.397 156.047 307.938 156.323L312.701 153.55C313.173 153.275 313.464 152.71 313.464 151.898L313.694 67.3194C313.709 65.6698 312.546 63.6668 311.125 62.842L203.878 0.930802C203.143 0.504624 202.499 0.472034 202.025 0.747796L197.247 3.52046Z" fill="#FCD652"/>
<path d="M199.102 3.69518C197.668 2.8679 196.503 3.53223 196.498 5.17929L196.257 89.7507C196.254 91.3877 197.41 93.3932 198.846 94.2205L306.096 156.142C307.522 156.964 308.685 156.3 308.69 154.663L308.931 70.0938C308.936 68.4442 307.778 66.4387 306.354 65.6164L199.102 3.69518Z" fill="#E4B613"/>
<path d="M301.957 70.5079C301.869 70.3158 301.751 70.1396 301.606 69.9864L203.58 13.3975L203.364 89.2572C203.389 89.3249 203.585 89.6583 203.715 89.7686L301.744 146.358L301.957 70.5079Z" fill="white"/>
<path d="M228.722 41.651C228.714 44.3008 227.045 45.5493 224.866 44.7746L224.761 81.2906V81.5714L222.968 80.536L222.973 79.1898L223.074 43.7393C220.88 41.9894 219.238 38.8307 219.248 36.1784C219.256 33.1751 221.394 31.9567 223.991 33.4558C226.606 34.9675 228.729 38.6452 228.722 41.651ZM223.966 42.3028C225.596 43.2454 226.924 42.4883 226.929 40.6156C226.934 38.7429 225.616 36.4566 223.986 35.5165C222.372 34.5839 221.043 35.341 221.038 37.2137C221.033 39.0864 222.352 41.3727 223.966 42.3028Z" fill="#748BFD"/>
<path d="M251.159 54.6039C251.151 57.2562 249.497 58.5122 247.3 57.7275L247.193 95.5145L247.175 101.739L245.385 100.704L245.408 92.7343L245.508 56.6922C243.332 54.9524 241.675 51.7836 241.682 49.1338C241.692 46.128 243.828 44.9096 246.446 46.4188C249.043 47.9204 251.166 51.5981 251.159 54.6039ZM246.421 55.2657C248.032 56.1983 249.361 55.4412 249.366 53.5685C249.371 51.6959 248.053 49.4095 246.438 48.4795C244.809 47.5369 243.495 48.304 243.49 50.1767C243.485 52.0493 244.791 54.3256 246.421 55.2657Z" fill="#E4E8F4"/>
<path d="M273.608 67.565C273.603 70.2173 271.934 71.4658 269.753 70.6886L269.632 113.281L269.63 114.703L267.837 113.667L267.855 107.558L267.963 69.6533C265.782 67.916 264.127 64.7472 264.135 62.0949C264.145 59.0916 266.265 57.8632 268.88 59.3723C271.495 60.884 273.616 64.5617 273.608 67.565ZM268.855 68.2193C270.485 69.1619 271.796 68.3948 271.803 66.5221C271.808 64.6494 270.505 62.3731 268.875 61.433C267.261 60.5005 265.932 61.2575 265.927 63.1302C265.922 65.0029 267.241 67.2892 268.855 68.2193Z" fill="#F9607F"/>
<path d="M296.045 80.5179C296.038 83.1702 294.371 84.4187 292.19 83.6415L292.069 125.916L292.059 129.699L290.267 128.664L290.272 126.748L290.397 82.6112C288.221 80.8714 286.562 77.7026 286.572 75.0503C286.579 72.047 288.718 70.8286 291.332 72.3378C293.932 73.8394 296.055 77.5146 296.045 80.5179ZM291.307 81.1822C292.922 82.1148 294.25 81.3577 294.255 79.485C294.26 77.6124 292.942 75.326 291.327 74.396C289.698 73.4533 288.369 74.2104 288.364 76.0831C288.357 77.9558 289.678 80.2421 291.307 81.1822Z" fill="#9AD898"/>
<path d="M298.74 139.544L205.721 85.8502C206.523 83.594 207.358 73.4936 208.16 71.2373C208.716 69.693 209.303 68.056 210.446 67.161C212.239 65.7697 215.112 66.5418 217.924 68.1789C218.727 68.6426 219.529 69.1691 220.271 69.7256C225.924 73.8947 231.209 80.3525 234.914 87.4572C235.904 89.4652 237.015 91.719 238.591 92.802C238.684 92.8646 238.747 92.8947 238.807 92.9574C240.261 93.7922 241.527 93.2031 242.638 92.6164C244.337 91.6287 246.067 90.7011 247.737 89.6507C248.539 89.187 249.374 88.7558 250.454 88.9413C250.948 89.0014 251.442 89.1869 251.908 89.4677C254.192 90.7964 256.386 94.1306 257.652 97.2192C259.198 100.99 259.971 104.82 261.979 108.403C262.35 109.177 262.844 109.887 263.4 110.225C263.493 110.258 263.553 110.318 263.646 110.35C264.358 110.689 264.819 110.195 265.19 109.671C266.366 108.094 267.509 106.487 268.682 104.913C269.239 104.171 269.886 103.369 270.783 103.276C271.37 103.243 271.986 103.461 272.606 103.802C273.563 104.356 274.521 105.314 275.323 106.395C276.684 108.187 277.579 110.318 278.507 112.328C279.896 115.447 281.224 118.536 282.676 121.687C283.263 122.985 284.005 124.56 285.18 125.364C286.476 126.107 287.404 124.931 287.775 123.665C288.051 122.336 288.113 120.639 289.041 119.957C289.658 119.526 290.523 119.681 291.45 120.205C292.345 120.732 293.273 121.627 293.982 122.644C295.466 124.715 296.271 127.157 296.888 129.473C297.414 131.82 297.813 137.227 298.74 139.544Z" fill="#F6BDFF"/>
<path d="M272.383 169.111L269.55 167.466L257.007 174.709L259.84 176.353L272.383 169.111Z" fill="#E4E8F4"/>
<path d="M259.838 176.353L257.005 174.709L240.973 165.571L243.806 167.215L259.838 176.353Z" fill="#666970"/>
<path d="M236.957 171.171L234.124 169.524L234.129 171.176L236.962 172.821L236.957 171.171Z" fill="#9CA0AB"/>
<path d="M243.806 167.215L240.973 165.571L234.124 169.524L236.957 171.171L243.806 167.215Z" fill="#E4E8F4"/>
<path d="M236.957 171.171L236.96 172.821L243.219 169.208L259.254 178.344L272.387 170.76L272.382 169.111L259.838 176.353L243.806 167.215L236.957 171.171Z" fill="#CAD0DD"/>
<path d="M260.459 162.191L257.627 160.544L245.084 167.787L247.917 169.432L260.459 162.191Z" fill="#E4E8F4"/>
<path d="M247.915 169.432L245.082 167.787L229.05 158.649L231.883 160.296L247.915 169.432Z" fill="#666970"/>
<path d="M225.034 164.248L222.201 162.603L222.206 164.255L225.039 165.9L225.034 164.248Z" fill="#9CA0AB"/>
<path d="M231.883 160.296L229.05 158.649L222.201 162.603L225.034 164.25L231.883 160.296Z" fill="#E4E8F4"/>
<path d="M225.034 164.247L225.039 165.902L231.296 162.287L247.331 171.425L260.464 163.841L260.459 162.189L247.915 169.434L231.883 160.296L225.034 164.247Z" fill="#CAD0DD"/>
<path d="M248.539 155.27L245.706 153.623L233.161 160.868L235.994 162.512L248.539 155.27Z" fill="#E4E8F4"/>
<path d="M235.994 162.512L233.161 160.865L217.127 151.728L219.96 153.375L235.994 162.512Z" fill="#666970"/>
<path d="M213.111 157.328L210.278 155.683L210.283 157.333L213.116 158.98L213.111 157.328Z" fill="#9CA0AB"/>
<path d="M219.96 153.375L217.127 151.728L210.278 155.683L213.111 157.328L219.96 153.375Z" fill="#E4E8F4"/>
<path d="M213.111 157.327L213.116 158.98L219.376 155.365L235.408 164.502L248.544 156.919L248.536 155.269L235.994 162.512L219.96 153.374L213.111 157.327Z" fill="#CAD0DD"/>
<path d="M236.616 148.348L233.783 146.704L221.239 153.944L224.071 155.591L236.616 148.348Z" fill="#E4E8F4"/>
<path d="M224.071 155.591L221.238 153.944L205.207 144.809L208.039 146.453L224.071 155.591Z" fill="#666970"/>
<path d="M201.188 150.409L198.355 148.762L198.36 150.414L201.193 152.058L201.188 150.409Z" fill="#9CA0AB"/>
<path d="M208.037 146.453L205.204 144.809L198.358 148.762L201.191 150.409L208.037 146.453Z" fill="#E4E8F4"/>
<path d="M201.188 150.409L201.193 152.059L207.453 148.446L223.485 157.581L236.621 149.998L236.616 148.348L224.071 155.591L208.037 146.453L201.188 150.409Z" fill="#CAD0DD"/>
<path d="M224.693 141.426L221.86 139.782L209.315 147.024L212.148 148.669L224.693 141.426Z" fill="#E4E8F4"/>
<path d="M212.148 148.669L209.315 147.024L193.284 137.887L196.116 139.531L212.148 148.669Z" fill="#666970"/>
<path d="M189.265 143.487L186.432 141.84L186.44 143.492L189.273 145.136L189.265 143.487Z" fill="#9CA0AB"/>
<path d="M196.114 139.531L193.281 137.887L186.435 141.84L189.268 143.487L196.114 139.531Z" fill="#E4E8F4"/>
<path d="M189.265 143.487L189.27 145.137L195.53 141.524L211.564 150.66L224.698 143.079L224.693 141.426L212.148 148.672L196.114 139.531L189.265 143.487Z" fill="#CAD0DD"/>
<path d="M212.77 134.507L209.937 132.86L197.395 140.105L200.228 141.747L212.77 134.507Z" fill="#E4E8F4"/>
<path d="M200.225 141.748L197.393 140.103L181.361 130.965L184.194 132.612L200.225 141.748Z" fill="#666970"/>
<path d="M177.342 136.565L174.509 134.921L174.517 136.57L177.35 138.218L177.342 136.565Z" fill="#9CA0AB"/>
<path d="M184.193 132.61L181.361 130.965L174.512 134.921L177.345 136.566L184.193 132.61Z" fill="#E4E8F4"/>
<path d="M177.342 136.565L177.347 138.217L183.607 134.602L199.641 143.74L212.775 136.157L212.77 134.507L200.225 141.747L184.193 132.612L177.342 136.565Z" fill="#CAD0DD"/>
<path d="M200.847 127.586L198.014 125.939L185.472 133.184L188.305 134.829L200.847 127.586Z" fill="#E4E8F4"/>
<path d="M188.302 134.828L185.47 133.181L169.438 124.045L172.271 125.69L188.302 134.828Z" fill="#666970"/>
<path d="M165.422 129.644L162.589 127.999L162.594 129.651L165.427 131.296L165.422 129.644Z" fill="#9CA0AB"/>
<path d="M172.271 125.69L169.438 124.045L162.589 127.999L165.422 129.643L172.271 125.69Z" fill="#E4E8F4"/>
<path d="M165.422 129.643L165.427 131.295L171.684 127.68L187.718 136.818L200.852 129.235L200.847 127.585L188.302 134.828L172.271 125.69L165.422 129.643Z" fill="#CAD0DD"/>
<path d="M244.099 161.063L243.966 177.296C243.966 178.088 243.505 178.815 242.512 179.409L159.966 227.354C157.986 228.477 154.682 228.477 152.701 227.354L69.6191 179.409C68.5662 178.815 68.1024 178.023 68.1024 177.228L68.2353 160.996C68.2353 161.788 68.6965 162.58 69.7545 163.109H242.645C243.635 162.582 244.099 161.79 244.099 161.063Z" fill="#416E84"/>
<path d="M162.699 216.897L165.532 215.253L172.378 219.206L169.546 220.851L162.699 216.897Z" fill="#E4E8F4"/>
<path d="M169.546 220.854L172.378 219.207L188.282 246.783L185.45 248.427L169.546 220.854Z" fill="#D4DAE8"/>
<path d="M198.019 255.685L200.852 254.041L200.847 255.69L198.014 257.335L198.019 255.685Z" fill="#9CA0AB"/>
<path d="M185.45 248.43L188.282 246.783L200.852 254.04L198.019 255.685L185.45 248.43Z" fill="#E4E8F4"/>
<path d="M169.546 220.853L185.45 248.43L198.019 255.685L198.017 257.334L184.855 249.738L168.951 222.162L162.694 218.547L162.699 216.897L169.546 220.853Z" fill="#CAD0DD"/>
<path d="M47.3726 169.111L50.2055 167.466L62.7476 174.709L59.9148 176.353L47.3726 169.111Z" fill="#E4E8F4"/>
<path d="M59.9174 176.353L62.7503 174.709L78.7821 165.571L75.9493 167.215L59.9174 176.353Z" fill="#666970"/>
<path d="M82.7982 171.171L85.631 169.524L85.626 171.176L82.7932 172.821L82.7982 171.171Z" fill="#9CA0AB"/>
<path d="M75.9493 167.215L78.7821 165.571L85.6311 169.524L82.7982 171.171L75.9493 167.215Z" fill="#E4E8F4"/>
<path d="M82.7981 171.171L82.7956 172.821L76.5358 169.208L60.5015 178.344L47.3676 170.76L47.3727 169.111L59.9173 176.353L75.9492 167.215L82.7981 171.171Z" fill="#CAD0DD"/>
<path d="M174.62 209.976L177.452 208.331L184.301 212.284L181.468 213.932L174.62 209.976Z" fill="#E4E8F4"/>
<path d="M181.468 213.932L184.301 212.285L200.205 239.861L197.372 241.505L181.468 213.932Z" fill="#D4DAE8"/>
<path d="M209.942 248.763L212.775 247.119L212.77 248.768L209.937 250.415L209.942 248.763Z" fill="#9CA0AB"/>
<path d="M197.373 241.505L200.205 239.861L212.775 247.118L209.942 248.763L197.373 241.505Z" fill="#E4E8F4"/>
<path d="M181.469 213.933L197.373 241.509L209.942 248.764L209.937 250.416L196.778 242.817L180.874 215.241L174.615 211.629L174.62 209.977L181.469 213.933Z" fill="#CAD0DD"/>
<path d="M59.2957 162.191L62.1285 160.544L74.6707 167.787L71.8378 169.432L59.2957 162.191Z" fill="#E4E8F4"/>
<path d="M71.8404 169.432L74.6732 167.787L90.7051 158.649L87.8722 160.296L71.8404 169.432Z" fill="#666970"/>
<path d="M94.7211 164.248L97.554 162.603L97.549 164.255L94.7161 165.9L94.7211 164.248Z" fill="#9CA0AB"/>
<path d="M87.8723 160.296L90.7051 158.649L97.554 162.603L94.7212 164.25L87.8723 160.296Z" fill="#E4E8F4"/>
<path d="M94.7211 164.247L94.7161 165.902L88.4588 162.287L72.4245 171.425L59.2906 163.841L59.2957 162.189L71.8404 169.434L87.8722 160.296L94.7211 164.247Z" fill="#CAD0DD"/>
<path d="M186.543 203.055L189.375 201.41L196.224 205.366L193.391 207.011L186.543 203.055Z" fill="#E4E8F4"/>
<path d="M193.391 207.01L196.224 205.366L212.128 232.942L209.295 234.587L193.391 207.01Z" fill="#D4DAE8"/>
<path d="M221.865 241.844L224.698 240.197L224.693 241.849L221.86 243.494L221.865 241.844Z" fill="#9CA0AB"/>
<path d="M209.295 234.587L212.128 232.94L224.698 240.198L221.865 241.845L209.295 234.587Z" fill="#E4E8F4"/>
<path d="M193.391 207.01L209.295 234.586L221.865 241.844L221.86 243.493L208.699 235.897L192.797 208.321L186.538 204.706L186.543 203.057L193.391 207.01Z" fill="#CAD0DD"/>
<path d="M71.2187 155.27L74.0515 153.623L86.5937 160.868L83.7609 162.512L71.2187 155.27Z" fill="#E4E8F4"/>
<path d="M83.7608 162.512L86.5936 160.865L102.625 151.728L99.7926 153.375L83.7608 162.512Z" fill="#666970"/>
<path d="M106.644 157.328L109.477 155.683L109.472 157.333L106.639 158.98L106.644 157.328Z" fill="#9CA0AB"/>
<path d="M99.7951 153.375L102.628 151.728L109.477 155.683L106.644 157.328L99.7951 153.375Z" fill="#E4E8F4"/>
<path d="M106.644 157.327L106.639 158.98L100.379 155.365L84.3474 164.502L71.2111 156.919L71.2186 155.269L83.7608 162.512L99.7951 153.374L106.644 157.327Z" fill="#CAD0DD"/>
<path d="M198.466 196.135L201.298 194.488L208.147 198.444L205.315 200.089L198.466 196.135Z" fill="#E4E8F4"/>
<path d="M205.314 200.089L208.147 198.444L224.049 226.021L221.216 227.665L205.314 200.089Z" fill="#D4DAE8"/>
<path d="M233.788 234.922L236.621 233.275L236.616 234.927L233.783 236.572L233.788 234.922Z" fill="#9CA0AB"/>
<path d="M221.219 227.665L224.051 226.021L236.619 233.276L233.786 234.923L221.219 227.665Z" fill="#E4E8F4"/>
<path d="M205.315 200.089L221.218 227.665L233.788 234.923L233.783 236.572L220.622 228.976L204.72 201.4L198.461 197.785L198.466 196.135L205.315 200.089Z" fill="#CAD0DD"/>
<path d="M83.1391 148.348L85.9719 146.704L98.5166 153.944L95.6838 155.591L83.1391 148.348Z" fill="#E4E8F4"/>
<path d="M95.6838 155.591L98.5167 153.944L114.549 144.809L111.716 146.453L95.6838 155.591Z" fill="#666970"/>
<path d="M118.567 150.409L121.4 148.762L121.395 150.414L118.562 152.058L118.567 150.409Z" fill="#9CA0AB"/>
<path d="M111.718 146.453L114.551 144.809L121.397 148.762L118.565 150.409L111.718 146.453Z" fill="#E4E8F4"/>
<path d="M118.567 150.409L118.562 152.059L112.302 148.446L96.2704 157.581L83.1341 149.998L83.1391 148.348L95.6838 155.591L111.718 146.453L118.567 150.409Z" fill="#CAD0DD"/>
<path d="M210.389 189.216L213.221 187.569L220.068 191.522L217.235 193.169L210.389 189.216Z" fill="#E4E8F4"/>
<path d="M217.237 193.17L220.07 191.522L235.972 219.099L233.139 220.743L217.237 193.17Z" fill="#D4DAE8"/>
<path d="M245.711 228L248.544 226.356L248.536 228.006L245.704 229.653L245.711 228Z" fill="#9CA0AB"/>
<path d="M233.141 220.743L235.974 219.099L248.541 226.356L245.709 228.001L233.141 220.743Z" fill="#E4E8F4"/>
<path d="M217.237 193.169L233.141 220.746L245.711 228.001L245.706 229.653L232.545 222.054L216.643 194.478L210.383 190.865L210.388 189.213L217.237 193.169Z" fill="#CAD0DD"/>
<path d="M95.0645 141.426L97.8948 139.782L110.44 147.024L107.607 148.669L95.0645 141.426Z" fill="#E4E8F4"/>
<path d="M107.607 148.669L110.439 147.024L126.471 137.887L123.638 139.531L107.607 148.669Z" fill="#666970"/>
<path d="M130.488 143.487L133.32 141.84L133.315 143.492L130.483 145.136L130.488 143.487Z" fill="#9CA0AB"/>
<path d="M123.641 139.531L126.474 137.887L133.32 141.84L130.488 143.487L123.641 139.531Z" fill="#E4E8F4"/>
<path d="M130.488 143.487L130.485 145.137L124.225 141.524L108.191 150.66L95.0571 143.079L95.0621 141.426L107.607 148.672L123.641 139.531L130.488 143.487Z" fill="#CAD0DD"/>
<path d="M222.311 182.295L225.144 180.647L231.991 184.601L229.158 186.248L222.311 182.295Z" fill="#E4E8F4"/>
<path d="M229.16 186.248L231.993 184.601L247.895 212.177L245.062 213.824L229.16 186.248Z" fill="#D4DAE8"/>
<path d="M257.632 221.079L260.464 219.435L260.459 221.084L257.627 222.731L257.632 221.079Z" fill="#9CA0AB"/>
<path d="M245.062 213.824L247.895 212.177L260.464 219.434L257.632 221.079L245.062 213.824Z" fill="#E4E8F4"/>
<path d="M229.16 186.248L245.062 213.824L257.632 221.079L257.629 222.731L244.468 215.135L228.564 187.559L222.306 183.944L222.311 182.294L229.16 186.248Z" fill="#CAD0DD"/>
<path d="M106.985 134.507L109.818 132.86L122.36 140.105L119.527 141.747L106.985 134.507Z" fill="#E4E8F4"/>
<path d="M119.53 141.748L122.363 140.103L138.395 130.965L135.562 132.612L119.53 141.748Z" fill="#666970"/>
<path d="M142.411 136.565L145.243 134.921L145.238 136.57L142.406 138.218L142.411 136.565Z" fill="#9CA0AB"/>
<path d="M135.562 132.61L138.394 130.965L145.243 134.921L142.41 136.566L135.562 132.61Z" fill="#E4E8F4"/>
<path d="M142.41 136.565L142.408 138.217L136.148 134.602L120.114 143.74L106.98 136.157L106.985 134.507L119.53 141.747L135.561 132.612L142.41 136.565Z" fill="#CAD0DD"/>
<path d="M234.232 175.373L237.065 173.726L243.914 177.682L241.081 179.326L234.232 175.373Z" fill="#E4E8F4"/>
<path d="M241.083 179.326L243.916 177.682L259.818 205.258L256.985 206.902L241.083 179.326Z" fill="#D4DAE8"/>
<path d="M269.555 214.16L272.387 212.513L272.382 214.165L269.55 215.81L269.555 214.16Z" fill="#9CA0AB"/>
<path d="M256.987 206.902L259.818 205.258L272.387 212.513L269.555 214.16L256.987 206.902Z" fill="#E4E8F4"/>
<path d="M241.083 179.326L256.985 206.903L269.555 214.16L269.55 215.81L256.391 208.214L240.487 180.638L234.229 177.023L234.232 175.373L241.083 179.326Z" fill="#CAD0DD"/>
<path d="M118.906 127.586L121.738 125.939L134.283 133.184L131.45 134.829L118.906 127.586Z" fill="#E4E8F4"/>
<path d="M131.453 134.828L134.286 133.181L150.317 124.045L147.485 125.69L131.453 134.828Z" fill="#666970"/>
<path d="M154.333 129.644L157.166 127.999L157.161 129.651L154.328 131.296L154.333 129.644Z" fill="#9CA0AB"/>
<path d="M147.485 125.69L150.317 124.045L157.166 127.999L154.334 129.643L147.485 125.69Z" fill="#E4E8F4"/>
<path d="M154.333 129.643L154.328 131.295L148.071 127.68L132.037 136.818L118.903 129.235L118.908 127.585L131.453 134.828L147.484 125.69L154.333 129.643Z" fill="#CAD0DD"/>
<path d="M242.58 163.206L160.077 211.126C158.041 212.242 154.79 212.242 152.802 211.126L69.7195 163.206C67.7315 161.993 67.7315 160.103 69.7195 158.937L152.273 110.969C154.261 109.803 157.462 109.803 159.498 111.064L242.535 158.937C244.621 160.15 244.621 161.995 242.585 163.206H242.58Z" fill="#4C7891"/>
<path d="M123.664 194.288L69.7545 163.109C68.6965 162.58 68.2353 161.788 68.2353 160.996L68.1024 177.231C68.1024 178.023 68.5637 178.815 69.6216 179.409L123.664 210.595V194.288Z" fill="#416E84"/>
<path d="M157.056 216.897L154.223 215.253L147.377 219.206L150.209 220.851L157.056 216.897Z" fill="#E4E8F4"/>
<path d="M150.207 220.854L147.374 219.207L131.473 246.783L134.306 248.427L150.207 220.854Z" fill="#D4DAE8"/>
<path d="M121.736 255.685L118.903 254.041L118.908 255.69L121.741 257.335L121.736 255.685Z" fill="#9CA0AB"/>
<path d="M134.306 248.43L131.473 246.783L118.903 254.04L121.736 255.685L134.306 248.43Z" fill="#E4E8F4"/>
<path d="M150.207 220.853L134.306 248.43L121.736 255.685L121.738 257.334L134.9 249.738L150.804 222.162L157.061 218.547L157.056 216.897L150.207 220.853Z" fill="#CAD0DD"/>
<path d="M145.136 209.976L142.303 208.331L135.454 212.284L138.287 213.932L145.136 209.976Z" fill="#E4E8F4"/>
<path d="M138.284 213.932L135.454 212.285L119.55 239.861L122.383 241.505L138.284 213.932Z" fill="#D4DAE8"/>
<path d="M109.813 248.763L106.98 247.119L106.985 248.768L109.818 250.415L109.813 248.763Z" fill="#9CA0AB"/>
<path d="M122.383 241.505L119.55 239.861L106.98 247.118L109.813 248.763L122.383 241.505Z" fill="#E4E8F4"/>
<path d="M138.284 213.933L122.383 241.509L109.813 248.764L109.818 250.416L122.977 242.817L138.881 215.241L145.138 211.629L145.135 209.977L138.284 213.933Z" fill="#CAD0DD"/>
<path d="M133.213 203.055L130.38 201.41L123.531 205.366L126.364 207.011L133.213 203.055Z" fill="#E4E8F4"/>
<path d="M126.364 207.01L123.531 205.366L107.627 232.942L110.46 234.587L126.364 207.01Z" fill="#D4DAE8"/>
<path d="M97.89 241.844L95.0571 240.197L95.0621 241.849L97.895 243.494L97.89 241.844Z" fill="#9CA0AB"/>
<path d="M110.457 234.587L107.627 232.94L95.0571 240.198L97.89 241.845L110.457 234.587Z" fill="#E4E8F4"/>
<path d="M126.364 207.01L110.46 234.586L97.89 241.844L97.895 243.493L111.056 235.897L126.958 208.321L133.218 204.706L133.213 203.057L126.364 207.01Z" fill="#CAD0DD"/>
<path d="M121.29 196.135L118.457 194.488L111.608 198.444L114.441 200.089L121.29 196.135Z" fill="#E4E8F4"/>
<path d="M114.441 200.089L111.608 198.444L95.7063 226.021L98.5391 227.665L114.441 200.089Z" fill="#D4DAE8"/>
<path d="M85.9669 234.922L83.1341 233.275L83.1391 234.927L85.9719 236.572L85.9669 234.922Z" fill="#9CA0AB"/>
<path d="M98.5368 227.665L95.704 226.021L83.1367 233.276L85.9695 234.923L98.5368 227.665Z" fill="#E4E8F4"/>
<path d="M114.441 200.089L98.5366 227.665L85.9668 234.923L85.9718 236.572L99.1332 228.976L115.035 201.4L121.294 197.785L121.289 196.135L114.441 200.089Z" fill="#CAD0DD"/>
<path d="M109.366 189.216L106.534 187.569L99.6872 191.522L102.52 193.169L109.366 189.216Z" fill="#E4E8F4"/>
<path d="M102.518 193.17L99.6849 191.522L83.7835 219.099L86.6163 220.743L102.518 193.17Z" fill="#D4DAE8"/>
<path d="M74.0439 228L71.2111 226.356L71.2186 228.006L74.0514 229.653L74.0439 228Z" fill="#9CA0AB"/>
<path d="M86.6163 220.743L83.7834 219.099L71.2137 226.356L74.0465 228.001L86.6163 220.743Z" fill="#E4E8F4"/>
<path d="M102.518 193.169L86.6137 220.746L74.0439 228.001L74.049 229.653L87.2104 222.054L103.112 194.478L109.372 190.865L109.367 189.213L102.518 193.169Z" fill="#CAD0DD"/>
<path d="M97.4462 182.295L94.6133 180.647L87.7644 184.601L90.5972 186.248L97.4462 182.295Z" fill="#E4E8F4"/>
<path d="M90.5948 186.248L87.7619 184.601L71.8605 212.177L74.6933 213.824L90.5948 186.248Z" fill="#D4DAE8"/>
<path d="M62.1235 221.079L59.2906 219.435L59.2957 221.084L62.1285 222.731L62.1235 221.079Z" fill="#9CA0AB"/>
<path d="M74.6907 213.824L71.8579 212.177L59.2906 219.434L62.1235 221.079L74.6907 213.824Z" fill="#E4E8F4"/>
<path d="M90.5948 186.248L74.6908 213.824L62.1236 221.079L62.1261 222.731L75.2875 215.135L91.1889 187.559L97.4487 183.944L97.4437 182.294L90.5948 186.248Z" fill="#CAD0DD"/>
<path d="M85.5233 175.373L82.6905 173.726L75.8416 177.682L78.6744 179.326L85.5233 175.373Z" fill="#E4E8F4"/>
<path d="M78.6717 179.326L75.8389 177.682L59.9374 205.258L62.7703 206.902L78.6717 179.326Z" fill="#D4DAE8"/>
<path d="M50.2005 214.16L47.3676 212.513L47.3727 214.165L50.2055 215.81L50.2005 214.16Z" fill="#9CA0AB"/>
<path d="M62.7702 206.902L59.9374 205.258L47.3676 212.513L50.2005 214.16L62.7702 206.902Z" fill="#E4E8F4"/>
<path d="M78.6718 179.326L62.7703 206.903L50.2005 214.16L50.2055 215.81L63.3644 208.214L79.2684 180.638L85.5257 177.023L85.5232 175.373L78.6718 179.326Z" fill="#CAD0DD"/>
<path d="M183.735 145.177C168.267 136.223 143.546 136.37 128.447 145.177C120.156 149.991 116.456 156.428 117.416 162.721C118.306 157.835 122.006 153.024 128.447 149.249C143.546 140.442 168.264 140.294 183.735 149.249C190.32 153.097 194.021 157.91 194.911 162.941C195.871 156.576 192.171 149.991 183.735 145.177Z" fill="#31323D"/>
<path d="M183.735 149.248C168.267 140.293 143.546 140.441 128.447 149.248C122.007 153.024 118.306 157.834 117.416 162.72V162.796C117.567 163.46 117.715 164.049 117.863 164.643C119.121 169.158 122.821 173.45 128.963 177.002C144.138 185.737 168.56 185.737 183.66 177.002C189.506 173.6 193.136 169.306 194.464 164.866C194.69 164.275 194.835 163.608 194.911 162.941C194.021 157.91 190.323 153.096 183.735 149.248Z" fill="#464957"/>
<path d="M195.287 96.5099L194.866 161.016C194.818 166.782 191.022 172.598 183.426 177.003C168.38 185.722 143.907 185.722 128.765 177.003C120.939 172.455 117.045 166.596 117.045 160.783L117.469 96.2793C117.469 102.09 121.36 107.949 129.189 112.449C144.331 121.216 168.798 121.216 183.85 112.449C191.444 108.092 195.242 102.276 195.287 96.5099Z" fill="#CAD0DD" fill-opacity="0.25098"/>
<path d="M1.41824 168.484C1.89205 168.208 2.54887 168.238 3.26836 168.649L110.515 230.576C111.954 231.403 113.1 233.403 113.1 235.053L112.854 319.619C112.854 320.444 112.566 321.008 112.107 321.284L116.87 318.511C117.341 318.235 117.632 317.669 117.632 316.859L117.863 232.28C117.878 230.631 116.715 228.628 115.293 227.803L8.04908 165.892C7.31455 165.466 6.67027 165.433 6.19896 165.709L1.41824 168.484Z" fill="#EA74FD"/>
<path d="M3.27076 168.66C1.8368 167.83 0.671076 168.494 0.666062 170.141L0.427903 254.713C0.422889 256.35 1.58109 258.355 3.01506 259.183L110.264 321.104C111.691 321.926 112.854 321.262 112.859 319.625L113.099 235.056C113.104 233.406 111.946 231.401 110.522 230.578L3.27076 168.66Z" fill="#B945EF"/>
<path d="M106.125 235.469C106.038 235.277 105.919 235.1 105.774 234.947L7.74807 178.361L7.53247 254.221C7.55754 254.288 7.75308 254.622 7.88595 254.732L105.912 311.321L106.125 235.469Z" fill="white"/>
<path d="M21.5715 200.741L21.4486 253.863L14.8178 250.035L14.9406 196.91L21.5715 200.741Z" fill="#5B5E71"/>
<path d="M36.9715 222.383L36.8837 262.777L30.2504 258.946L30.3381 218.555L36.9715 222.383Z" fill="#3E60DD"/>
<path d="M52.4417 218.563L52.3164 271.687L45.6855 267.859L45.8109 214.732L52.4417 218.563Z" fill="#75CA75"/>
<path d="M67.8042 252.925L67.7541 280.599L61.1208 276.768L61.1709 249.094L67.8042 252.925Z" fill="#F9607F"/>
<path d="M83.3122 236.384L83.1868 289.509L76.556 285.681L76.6788 232.556L83.3122 236.384Z" fill="#EFAC41"/>
<path d="M98.7095 258.028L98.6218 298.42L91.991 294.592L92.0762 254.2L98.7095 258.028Z" fill="#AFB5BF"/>
<path d="M312.701 168.484C312.228 168.208 311.573 168.238 310.854 168.649L203.605 230.576C202.166 231.403 201.023 233.403 201.023 235.053L201.266 319.619C201.266 320.444 201.557 321.008 202.013 321.284L197.25 318.511C196.778 318.235 196.488 317.669 196.488 316.859L196.257 232.28C196.242 230.631 197.405 228.628 198.827 227.803L306.073 165.892C306.808 165.466 307.452 165.433 307.926 165.709L312.701 168.484Z" fill="#5B5E71"/>
<path d="M310.849 168.66C312.283 167.83 313.448 168.494 313.453 170.141L313.694 254.713C313.697 256.35 312.541 258.355 311.104 259.183L203.855 321.104C202.429 321.926 201.266 321.262 201.261 319.625L201.02 235.056C201.015 233.406 202.173 231.401 203.6 230.578L310.849 168.66Z" fill="#474B59"/>
<path d="M207.994 235.469C208.082 235.277 208.2 235.1 208.345 234.947L306.374 178.361L306.587 254.221C306.497 254.408 306.379 254.581 306.236 254.732L208.207 311.321L207.994 235.469Z" fill="white"/>
<path d="M277.243 205.433C289.728 198.226 299.888 204.015 299.928 218.359L277.318 231.413L277.243 205.433Z" fill="#F9BB4A"/>
<path d="M273.343 212.217L273.418 238.171L296.025 225.117C296.065 239.462 285.972 256.943 273.488 264.15C261.006 271.358 250.848 265.569 250.808 251.225C250.768 236.88 260.861 219.424 273.343 212.217Z" fill="#6EBA6E"/>
<path d="M240.743 281.564C240.743 282.298 240.229 283.193 239.589 283.579L216.109 297.142C215.468 297.493 214.956 297.207 214.956 296.44L214.798 241.32C214.798 240.585 215.31 239.69 215.949 239.34L239.396 225.774C240.068 225.391 240.58 225.679 240.58 226.446L240.743 281.564Z" fill="#748BFD"/>
<path d="M237.047 269.684L237.052 270.869L218.549 281.554L218.544 280.368L237.047 269.684ZM237.022 260.225L237.025 261.436L218.521 272.118L218.518 270.909L237.022 260.225ZM236.982 246.051L236.985 247.262L218.481 257.944L218.478 256.735L236.982 246.051ZM236.957 236.617V237.803L218.456 248.485L218.451 247.302L236.957 236.617ZM236.942 231.876L236.944 233.085L218.441 243.769L218.438 242.559L236.942 231.876ZM237.075 279.117L237.08 280.328L218.574 291.01L218.571 289.802L237.075 279.117ZM237.062 274.402L237.065 275.61L218.564 286.294L218.559 285.084L237.062 274.402ZM237.035 264.943L237.037 266.154L218.536 276.836L218.531 275.627L237.035 264.943ZM237.007 255.509L237.012 256.718L218.508 267.402L218.503 266.191L237.007 255.509ZM236.995 250.769L236.997 251.977L218.496 262.662L218.491 261.451L236.995 250.769ZM236.967 241.335L236.972 242.543L218.468 253.228L218.463 252.017L236.967 241.335Z" fill="white"/>
<path d="M143.869 51.4899C124.875 48.8259 130.262 37.5255 126.756 35.4091C123.251 33.2927 113.388 32.7217 107.046 39.0138L109.436 53.4847L133.901 67.4122L154.449 58.5307L143.869 51.4899Z" fill="#242424"/>
<path d="M206.75 86.924C189.838 76.1357 178.636 32.7425 167.96 31.2452C157.284 29.7478 143.259 42.6313 143.237 46.7227C143.216 50.8142 145.88 58.6944 145.88 58.6944L198.409 100.052L206.75 86.924Z" fill="#454A51"/>
<path d="M242.917 120.756C240.803 135.83 212.676 148.003 188.743 144.646C141.354 137.999 159.138 124.961 140.04 119.098C120.975 113.239 90.3302 116.025 82.5814 100.608C84.5615 86.4897 92.855 85.2807 92.855 85.2807L95.7558 64.5979C97.5124 52.0734 102.052 43.8062 107.009 39.0422C119.98 40.8614 108.66 51.1347 124.739 58.3618C136.841 63.8286 153.011 54.8854 160.399 57.3514C167.787 59.8175 189.32 92.5711 194.427 92.995C198.569 93.3485 204.266 89.3382 206.718 86.9198C207.958 88.0362 209.244 89.0615 210.553 89.9274C228.177 101.661 245.035 105.65 242.917 120.756Z" fill="#FAF5CA"/>
<path d="M157.695 56.939C149.543 56.6731 135.556 63.2578 124.767 58.3975C108.692 51.1386 120.007 40.8971 107.037 39.0779C102.719 43.2168 98.7135 49.999 96.6044 59.9393L102.181 60.7215C102.181 60.7215 172.975 95.3474 155.962 69.7592L157.695 56.939ZM210.58 89.9631L192.31 101.601C183.193 101.037 178.555 95.6427 175.397 99.3917C172.24 103.141 177.971 114.408 188.141 119.279L216.393 126.134L242.917 120.755C245.036 105.649 228.177 101.66 210.58 89.9631Z" fill="#EBE4D6"/>
<path d="M188.743 144.646C212.676 148.003 240.794 135.893 242.912 120.787C243.869 113.967 240.936 109.397 235.805 105.427C227.948 124.148 197.226 119.839 188.123 119.407C179.02 118.975 171.286 128.939 171.286 128.939L169.632 140.731C174.401 142.179 180.616 143.506 188.743 144.646ZM127.031 102.032C127.031 102.032 100.978 74.1689 100.194 48.9398C98.2391 53.15 96.664 58.3559 95.788 64.6022L92.8871 85.2851C92.8871 85.2851 84.5936 86.494 82.6135 100.612C86.9546 109.28 98.5399 112.172 111.265 114.119L127.031 102.032Z" fill="#394343"/>
<path d="M234.434 133.507C223.883 141.776 205.315 146.97 188.775 144.65C141.386 138.004 159.17 124.965 140.072 119.102C121.007 113.244 90.3623 116.03 82.6135 100.612C84.5936 86.4943 92.8871 85.2853 92.8871 85.2853L92.8915 85.2534C103.467 99.0526 128.53 101.073 137.884 105.277C161.96 116.193 177.23 150.505 224.81 132.157L234.434 133.507Z" fill="#DBC5A8"/>
<path d="M242.917 120.756C241.639 129.87 230.891 137.917 217.304 142.12C224.085 138.717 228.406 121.808 230.368 119.873C232.333 117.907 235.912 114.866 237.591 114.94C239.248 114.944 242.917 120.756 242.917 120.756Z" fill="#C58550"/>
<path d="M210.585 89.9318C209.277 89.0659 207.991 88.0406 206.75 86.9242C204.303 89.3107 198.602 93.3529 194.459 92.9994C189.352 92.5755 167.819 59.8219 160.431 57.3558C155.339 55.6667 146.078 59.3722 136.818 60.0557C127.558 60.7393 142.904 67.8635 145.759 69.9861C148.613 72.1087 155.641 68.8049 159.516 69.9009C163.356 71.0243 185.384 99.7855 192.278 101.597C199.173 103.409 204.751 100.942 213.507 91.8039C212.613 91.2237 211.565 90.5892 210.585 89.9318Z" fill="#1B2123"/>
<path d="M157.326 61.7859L158.716 64.6877L183.527 52.8033L182.137 49.9014L157.326 61.7859ZM168.918 71.0963L170.611 73.8327L188.725 62.6269L187.033 59.8906L168.918 71.0963ZM177.468 81.6256L179.282 84.2815L194.899 73.6123L193.084 70.9564L177.468 81.6256ZM185.624 90.0188L187.388 92.7131L201.937 83.19L200.174 80.4958L185.624 90.0188Z" fill="#E8DCD0"/>
<path d="M115.527 73.7292C115.527 73.7292 140.251 98.6134 156.312 97.5734C161.582 97.2322 162.226 89.3597 162.226 89.3597C164.934 91.3644 170.298 102.028 162.226 104.801C145.09 110.689 115.527 73.7292 115.527 73.7292Z" fill="#434246"/>
</svg>
