<svg width="300" height="301" viewBox="0 0 300 301" fill="none" xmlns="http://www.w3.org/2000/svg">
<path d="M200.825 23.6855L200.735 56.0254L199.011 57.0272L199.103 24.6894L200.825 23.6855Z" fill="#3F434F"/>
<path d="M199.104 24.6899L199.011 57.0277L197.294 56.0366L197.386 23.6968L199.104 24.6899Z" fill="#525566"/>
<path d="M200.826 23.6873L199.104 24.6912L197.386 23.698L199.11 22.6963L200.826 23.6873Z" fill="#5FA05F"/>
<path d="M81.108 182.994L81.1015 184.901C81.0973 186.079 80.3245 187.253 78.7833 188.147C75.6686 189.953 70.5985 189.94 67.471 188.126C65.8954 187.212 65.1098 186.017 65.1141 184.824L65.1227 182.917C65.1162 184.11 65.9019 185.305 67.4774 186.219C70.6071 188.033 75.6772 188.046 78.7897 186.24C80.3331 185.346 81.1037 184.172 81.108 182.994Z" fill="#474B59"/>
<path d="M78.7466 179.68C81.8762 181.494 81.902 184.435 78.7895 186.241C75.677 188.047 70.6069 188.034 67.4772 186.219C64.3476 184.405 64.3347 181.473 67.4493 179.665C70.5618 177.859 75.6169 177.866 78.7466 179.68Z" fill="#5B5E71"/>
<path d="M77.7956 137.716L77.5037 182.842C77.4994 183.498 77.0744 184.151 76.2158 184.648C74.4642 185.667 71.5749 185.648 69.8126 184.627C68.9261 184.111 68.4818 183.436 68.4861 182.761L68.778 137.639C68.7758 138.312 69.218 138.987 70.1045 139.502C71.8669 140.524 74.7561 140.543 76.5098 139.524C77.3684 139.025 77.7935 138.374 77.7956 137.718V137.716Z" fill="#D4DAE8"/>
<path d="M76.4457 134.234C78.208 135.255 78.2659 136.917 76.5101 137.934C74.7585 138.953 71.8692 138.933 70.1069 137.912C68.3446 136.889 68.336 135.23 70.0898 134.211C71.8435 133.194 74.6834 133.211 76.4435 134.232L76.4457 134.234Z" fill="#576CFB"/>
<path d="M144.864 146.133L144.858 148.04C144.852 149.218 144.081 150.392 142.538 151.286C139.425 153.094 134.355 153.079 131.225 151.264C129.652 150.353 128.864 149.158 128.871 147.962L128.877 146.056C128.873 147.249 129.658 148.446 131.234 149.358C134.364 151.172 139.434 151.187 142.546 149.379C144.09 148.485 144.86 147.311 144.864 146.133Z" fill="#474B59"/>
<path d="M142.503 142.819C145.631 144.633 145.659 147.574 142.546 149.382C139.434 151.187 134.363 151.172 131.234 149.36C128.104 147.544 128.091 144.612 131.204 142.804C134.316 140.998 139.373 141.004 142.503 142.819Z" fill="#5B5E71"/>
<path d="M141.537 112.932L141.258 145.979C141.258 146.635 140.831 147.288 139.972 147.785C138.219 148.804 135.332 148.787 133.569 147.763C132.681 147.25 132.238 146.575 132.241 145.9L132.52 112.853C132.515 113.525 132.96 114.203 133.846 114.716C135.608 115.74 138.498 115.757 140.251 114.738C141.11 114.241 141.533 113.588 141.537 112.932Z" fill="#D4DAE8"/>
<path d="M140.185 109.449C141.95 110.472 142.008 112.132 140.254 113.151C138.5 114.168 135.611 114.151 133.849 113.129C132.086 112.106 132.078 110.444 133.831 109.428C135.585 108.409 138.425 108.428 140.185 109.449Z" fill="#576CFB"/>
<path d="M208.621 109.273L208.612 111.18C208.608 112.358 207.838 113.532 206.294 114.426C203.182 116.232 198.112 116.219 194.982 114.404C193.406 113.491 192.621 112.296 192.627 111.103L192.634 109.196C192.629 110.389 193.415 111.584 194.988 112.498C198.118 114.312 203.188 114.325 206.301 112.519C207.846 111.625 208.619 110.451 208.621 109.273Z" fill="#474B59"/>
<path d="M206.258 105.955C209.387 107.771 209.413 110.712 206.301 112.518C203.188 114.323 198.118 114.311 194.988 112.496C191.861 110.682 191.848 107.75 194.96 105.942C198.073 104.136 203.128 104.143 206.258 105.957V105.955Z" fill="#5B5E71"/>
<path d="M196.167 67.1411L195.997 109.038C195.995 109.713 196.437 110.391 197.324 110.904C199.086 111.926 201.975 111.945 203.729 110.926C204.588 110.427 205.013 109.776 205.015 109.12L205.186 67.1411H196.167Z" fill="#D4DAE8"/>
<path d="M142.587 216.404L142.578 218.311C142.574 219.487 141.801 220.661 140.26 221.557C137.145 223.363 132.077 223.35 128.948 221.536C127.372 220.622 126.587 219.425 126.591 218.231L126.599 216.325C126.595 217.518 127.381 218.715 128.954 219.629C132.084 221.443 137.154 221.456 140.266 219.65C141.81 218.754 142.583 217.58 142.587 216.404Z" fill="#474B59"/>
<path d="M140.224 213.09C143.353 214.904 143.379 217.842 140.267 219.65C137.154 221.456 132.084 221.443 128.954 219.629C125.825 217.812 125.812 214.882 128.926 213.074C132.039 211.269 137.094 211.273 140.224 213.09Z" fill="#5B5E71"/>
<path d="M139.32 132.481L138.981 216.25C138.979 216.908 138.551 217.561 137.693 218.058C135.941 219.077 133.052 219.058 131.29 218.036C130.403 217.521 129.959 216.846 129.963 216.171L130.302 132.399C130.3 133.074 130.742 133.752 131.629 134.265C133.391 135.286 136.28 135.306 138.034 134.287C138.893 133.79 139.316 133.137 139.32 132.481Z" fill="#D4DAE8"/>
<path d="M137.97 128.995C139.732 130.016 139.79 131.678 138.036 132.695C136.283 133.714 133.393 133.694 131.631 132.673C129.869 131.652 129.862 129.99 131.616 128.971C133.37 127.955 136.208 127.974 137.97 128.995Z" fill="#576CFB"/>
<path d="M206.342 179.543L206.335 181.449C206.331 182.628 205.558 183.801 204.017 184.696C200.902 186.503 195.832 186.488 192.705 184.674C191.129 183.76 190.343 182.565 190.348 181.372L190.356 179.465C190.35 180.658 191.135 181.854 192.711 182.767C195.841 184.582 200.911 184.597 204.023 182.789C205.567 181.894 206.337 180.721 206.342 179.543Z" fill="#474B59"/>
<path d="M203.98 176.225C207.108 178.04 207.136 180.981 204.023 182.788C200.911 184.594 195.84 184.579 192.711 182.767C189.581 180.95 189.568 178.018 192.683 176.21C195.795 174.405 200.853 174.411 203.98 176.225Z" fill="#5B5E71"/>
<path d="M203.076 95.6168L202.735 179.388C202.735 180.044 202.31 180.697 201.451 181.194C199.698 182.213 196.808 182.195 195.046 181.172C194.158 180.656 193.715 179.981 193.72 179.308L194.059 95.5352C194.057 96.2123 194.499 96.8895 195.385 97.4011C197.148 98.4243 200.037 98.4415 201.791 97.4226C202.649 96.926 203.074 96.2725 203.076 95.6168Z" fill="#D4DAE8"/>
<path d="M201.726 92.1333C203.487 93.1565 203.547 94.8161 201.791 95.835C200.039 96.8518 197.15 96.8346 195.388 95.8135C193.625 94.7903 193.617 93.1286 195.37 92.1118C197.124 91.0928 199.966 91.1122 201.726 92.1333Z" fill="#576CFB"/>
<path d="M270.098 142.681L270.089 144.587C270.085 145.763 269.315 146.937 267.771 147.833C264.659 149.639 259.589 149.626 256.459 147.812C254.883 146.898 254.098 145.701 254.104 144.508L254.111 142.601C254.106 143.794 254.892 144.992 256.468 145.905C259.597 147.719 264.665 147.732 267.78 145.927C269.321 145.03 270.094 143.856 270.098 142.681Z" fill="#474B59"/>
<path d="M267.734 139.363C270.864 141.18 270.892 144.119 267.777 145.926C264.665 147.732 259.597 147.719 256.465 145.905C253.338 144.089 253.325 141.158 256.437 139.351C259.55 137.545 264.605 137.549 267.734 139.363Z" fill="#5B5E71"/>
<path d="M257.708 85.2236L257.474 142.448C257.472 143.121 257.914 143.796 258.801 144.312C260.565 145.333 263.452 145.352 265.206 144.334C266.065 143.835 266.49 143.183 266.494 142.528L266.724 85.2344L257.708 85.2236Z" fill="#D4DAE8"/>
<path d="M223.585 44.7699C222.106 43.923 220.047 44.0261 217.828 45.3439L69.3405 130.994C67.121 132.26 65.1119 134.476 63.6307 137.013C62.2011 139.552 61.2996 142.353 61.2953 144.892C61.2932 147.428 62.1883 149.23 63.6672 150.077L60.3938 148.221C58.9706 147.374 58.0755 145.575 58.024 143.036C58.0283 140.446 58.9298 137.643 60.4109 135.106C61.892 132.57 63.9012 130.351 66.1207 129.087L214.608 43.4371C216.827 42.1688 218.888 42.014 220.311 42.8632L223.585 44.7699Z" fill="#F3D848"/>
<path d="M217.84 45.3203C222.275 42.7621 225.907 44.843 225.916 49.9421C225.924 55.0583 222.303 61.3204 217.87 63.8764L69.3619 149.546C64.9271 152.104 61.2952 150.023 61.2866 144.907C61.2823 142.357 62.1753 139.528 63.6392 136.991C65.1053 134.457 67.1166 132.266 69.3319 130.99L217.84 45.3203Z" fill="#F9EA60"/>
<path d="M273.595 79.6004C272.436 78.9491 270.952 78.9018 269.282 79.5531C268.958 79.738 268.587 79.8756 268.216 80.1099L266.593 81.0385L260.1 84.8005L257.455 86.3332L250.962 90.05L248.364 91.5828L241.873 95.2974L239.229 96.8301L232.735 100.592L230.091 102.08L223.6 105.842L220.955 107.374L214.462 111.089L211.865 112.624L205.324 116.386L202.727 117.871L196.281 121.633L193.638 123.121L187.145 126.883L184.5 128.415L178.007 132.13L175.363 133.663L168.871 137.425L166.274 138.912L159.781 142.674L157.136 144.207L150.69 147.924L148.001 149.457L141.552 153.219L138.863 154.704L132.417 158.466L129.727 159.999L125.552 162.415C124.857 162.787 124.206 163.296 123.603 163.9C122.908 164.459 122.304 165.108 121.748 165.852C120.355 167.531 119.314 169.473 118.687 171.564C118.373 172.447 118.185 173.369 118.129 174.305C118.039 174.677 118.039 175.049 118.039 175.42C118.039 177.789 118.874 179.462 120.218 180.251L67.3465 149.362C66.0006 148.62 65.1656 146.948 65.1656 144.579C65.1656 144.299 65.1656 144.02 65.2128 143.698C65.2579 142.814 65.4446 141.885 65.7687 140.957C66.3268 138.912 67.3465 136.915 68.6902 135.196C69.2483 134.454 69.8965 133.755 70.5448 133.246C71.1952 132.549 71.9379 131.99 72.6785 131.573L76.6217 129.297L79.3113 127.764L85.7574 124.002L88.4491 122.469L94.8952 118.755L97.5848 117.222L104.031 113.46L106.628 111.973L113.169 108.211L115.766 106.725L122.259 102.963L124.902 101.428L131.395 97.7136L134.04 96.1809L140.533 92.419L143.175 90.8863L149.623 87.1694L152.221 85.684L158.759 81.9221L161.356 80.3872L167.85 76.6725L170.494 75.1398L176.988 71.3779L179.63 69.8451L186.078 66.1283L188.768 64.5956L195.214 60.8809L197.858 59.3482L204.352 55.5863L206.994 54.0987L213.487 50.3367L215.342 49.2683L216.179 48.8513C217.939 48.0602 219.564 48.0602 220.723 48.7567L273.595 79.6004Z" fill="#AAAAAA"/>
<path d="M268.22 80.1171C272.384 77.718 275.754 79.6441 275.76 84.4336C275.767 89.2016 272.412 95.0101 268.248 97.4091L125.567 179.718C121.42 182.109 118.035 180.189 118.028 175.419C118.02 170.634 121.394 164.817 125.541 162.426L268.22 80.1171Z" fill="#F34858"/>
<path d="M272.644 79.6542C277.079 77.0961 280.71 79.177 280.719 84.2761C280.728 89.3923 277.106 95.6544 272.674 98.2103L124.165 183.88C119.731 186.438 116.099 184.357 116.09 179.241C116.086 176.691 116.979 173.862 118.443 171.325C119.907 168.789 121.92 166.6 124.135 165.324L272.644 79.6542Z" fill="#F9EA60"/>
<path d="M200.761 28.7503L206.144 25.6182L206.204 4.32129L200.823 7.45338L200.761 28.7503Z" fill="#BAC1CE"/>
<path d="M200.823 7.45608L206.204 4.32184L198.751 0.0117188L193.368 3.14596L200.823 7.45608Z" fill="#D4DAE8"/>
<path d="M193.368 3.146L193.308 24.4408L200.76 28.7509L200.823 7.45397L193.368 3.146Z" fill="#CAD0DD"/>
<path d="M195.115 6.44189L195.104 10.5628L199.049 12.8415L199.062 8.72056L195.115 6.44189Z" fill="#EFAC41"/>
<path d="M195.1 12.7686L195.087 16.8895L199.031 19.1703L199.044 15.0494L195.1 12.7686Z" fill="#4C7891"/>
<path d="M195.081 19.0537L195.07 23.1768L199.014 25.4555L199.025 21.3345L195.081 19.0537Z" fill="#6EBA6E"/>
<path d="M133.406 173.199C132.028 173.199 131.874 171.604 131.872 170.92C131.865 168.233 133.829 164.828 136.16 163.478C136.74 163.145 137.289 162.968 137.755 162.968C139.14 162.968 139.292 164.593 139.294 165.292C139.303 167.956 137.352 171.339 135.033 172.678C134.445 173.02 133.881 173.199 133.406 173.199ZM164.825 155.032C163.445 155.032 163.29 153.439 163.288 152.753C163.282 150.07 165.246 146.661 167.581 145.313C168.159 144.978 168.708 144.801 169.172 144.801C170.556 144.801 170.711 146.429 170.713 147.127C170.72 149.789 168.768 153.172 166.452 154.514C165.864 154.853 165.3 155.032 164.825 155.032ZM196.212 136.884C194.836 136.884 194.681 135.289 194.679 134.605C194.673 131.918 196.635 128.513 198.968 127.163C199.546 126.83 200.095 126.654 200.563 126.654C201.945 126.654 202.1 128.279 202.102 128.978C202.109 131.641 200.157 135.025 197.841 136.364C197.251 136.706 196.688 136.884 196.212 136.884ZM227.631 118.717C226.253 118.717 226.098 117.124 226.096 116.438C226.09 113.756 228.054 110.346 230.389 108.998C230.964 108.665 231.516 108.487 231.98 108.487C233.364 108.487 233.517 110.114 233.519 110.813C233.527 113.474 231.576 116.858 229.26 118.199C228.672 118.539 228.107 118.717 227.631 118.717ZM259.018 100.569C257.64 100.569 257.487 98.9722 257.485 98.2886C257.476 95.6058 259.441 92.1985 261.776 90.8507C262.356 90.5132 262.914 90.3369 263.386 90.3369C264.781 90.3369 264.936 91.9492 264.938 92.6435C264.944 95.3091 262.98 98.7013 260.647 100.051C260.059 100.391 259.492 100.569 259.018 100.569Z" fill="white"/>
<path d="M269.282 79.5519C268.958 79.7368 268.587 79.8744 268.216 80.1087L266.593 81.0373L213.487 50.3355L215.342 49.2671L216.179 48.8501L269.282 79.5519ZM250.962 90.0467L248.364 91.5816L195.216 60.8797L197.856 59.347L250.962 90.0467ZM241.873 95.2962L239.229 96.8289L186.078 66.1271L188.768 64.5944L241.873 95.2962ZM232.735 100.591L230.091 102.078L176.985 71.3767L179.63 69.8439L232.735 100.591ZM223.6 105.84L220.955 107.373L167.85 76.6713L170.494 75.1386L223.6 105.84ZM205.324 116.385L202.727 117.87L149.621 87.1682L152.219 85.6828L205.324 116.385ZM187.145 126.882L184.5 128.414L131.395 97.7125L134.04 96.1797L187.145 126.882ZM150.69 147.923L148.001 149.455L94.8952 118.754L97.5848 117.221L150.69 147.923ZM141.552 153.217L138.863 154.703L85.7573 124.001L88.4491 122.468L141.552 153.217ZM132.415 158.465L129.727 159.997L76.6217 129.296L79.3113 127.763L132.415 158.465ZM123.603 163.899C122.908 164.458 122.304 165.107 121.748 165.851L68.6902 135.197C69.2483 134.453 69.8965 133.756 70.5448 133.245L123.603 163.899ZM115.895 169.948C115.58 170.831 115.392 171.754 115.337 172.689L65.2128 143.694C65.2579 142.813 65.4446 141.884 65.7687 140.956L115.895 169.948ZM159.781 142.673L157.136 144.206L104.031 113.457L106.628 111.971L159.781 142.673ZM168.871 137.426L166.274 138.911L113.169 108.209L115.766 106.724L168.871 137.426ZM178.007 132.129L175.363 133.662L122.257 102.96L124.902 101.427L178.007 132.129ZM196.281 121.632L193.638 123.12L140.533 92.4178L143.175 90.8851L196.281 121.632ZM214.462 111.088L211.865 112.623L158.759 81.9209L161.356 80.386L214.462 111.088ZM260.1 84.8014L257.455 86.332L204.35 55.5851L206.994 54.0975L260.1 84.8014Z" fill="#858585"/>
<path d="M278.388 79.1054C276.909 78.2584 274.851 78.3616 272.631 79.6793L124.144 165.329C121.924 166.595 119.915 168.812 118.434 171.348C117.004 173.887 116.103 176.688 116.099 179.227C116.096 181.764 116.992 183.565 118.468 184.412L115.197 182.557C113.774 181.71 112.879 179.911 112.827 177.372C112.832 174.781 113.733 171.978 115.214 169.442C116.695 166.905 118.705 164.686 120.924 163.422L269.411 77.7726C271.631 76.5043 273.691 76.3495 275.115 77.1986L278.388 79.1054Z" fill="#F3D848"/>
<path d="M186.529 34.7104C186.299 34.848 186.162 35.1253 186.162 35.4929L186.069 63.456L152.032 83.2632L152.122 55.3023C152.122 54.9325 152.261 54.6574 152.491 54.5176L186.529 34.7104Z" fill="#748BFD" fill-opacity="0.376471"/>
<path d="M95.7523 52.6581L111.879 89.5301L142.182 74.9696L142.159 46.0786L95.7523 52.6581Z" fill="#C78C61"/>
<path d="M120.945 73.8813L115.405 76.3277V84.5302L120.945 82.0188V73.8813Z" fill="#FFE1B4" fill-opacity="0.7"/>
<path d="M111.006 31.7053C111.557 31.4403 112.2 31.4424 112.75 31.711L142.159 46.0786L111.879 60.4081V89.5305L81.5766 74.97V45.8462L111.006 31.7053Z" fill="#E6A475"/>
<path d="M111.879 60.4076V89.53L81.5765 74.9695V45.8457L111.879 60.4076Z" fill="#A06841"/>
<path d="M101.748 36.1667L131.87 50.942L121.673 55.7477L92.3732 40.6712H92.3717" fill="#FFCC80"/>
<path d="M92.2256 62.286L96.7565 59.603L101.432 66.6975L97.9898 65.0482V77.0673L95.5946 75.916V63.9004L92.2256 62.286Z" fill="#7D5133"/>
<path d="M122.245 61.026V63.3707L135.795 56.8579V54.5146L122.245 61.026Z" fill="#A06841"/>
<path d="M122.245 66.8621V69.2068L135.795 62.6953V60.3521L122.245 66.8621Z" fill="#A06841"/>
<path d="M99.7272 29.7523L111.87 57.5154L134.687 46.5519L134.961 25.0547L99.7272 29.7523Z" fill="#C78C61"/>
<path d="M118.697 45.73L114.525 47.572V53.7481L118.697 51.8571V45.73Z" fill="#FFE1B4" fill-opacity="0.7"/>
<path d="M110.992 14.08C111.546 13.8138 112.192 13.8172 112.743 14.0893L134.961 25.0546L111.87 35.5862V57.5141L89.0532 46.5506V24.6217L110.992 14.08Z" fill="#E6AB75"/>
<path d="M111.87 35.5861V57.514L89.0535 46.5506V24.6216L111.87 35.5861Z" fill="#A07441"/>
<path d="M104.311 17.292L127.508 28.4425L120.193 31.8351L97.2521 20.6837H97.2509" fill="#FDD498"/>
<path d="M97.0717 37.0002L100.483 34.98L104.004 40.3218L101.412 39.08V48.1298L99.6084 47.263V38.2157L97.0717 37.0002Z" fill="#7D5133"/>
<path d="M119.675 36.0525V37.8182L129.878 32.9135V31.1489L119.675 36.0525Z" fill="#A06841"/>
<path d="M119.675 40.4479V42.2137L129.878 37.31V35.5454L119.675 40.4479Z" fill="#A06841"/>
<path d="M103.086 11.8987L112.056 32.4059L128.909 24.3077L128.963 8.23291L103.086 11.8987Z" fill="#C78C61"/>
<path d="M117.099 23.7012L114.017 25.0618V29.6238L117.099 28.227V23.7012Z" fill="#FFE1B4" fill-opacity="0.7"/>
<path d="M112.055 0.0117188L128.963 8.23388L112.055 16.2088V32.4058L95.2019 24.3077V8.10986L112.055 0.0117188Z" fill="#E6AB75"/>
<path d="M112.056 16.2097V32.4068L95.2023 24.3086V8.11084L112.056 16.2097Z" fill="#A07441"/>
<path d="M106.472 2.69531L123.564 10.6359L117.566 13.6394L101.258 5.2006" fill="#FDD498"/>
<path d="M101.125 17.2534L103.645 15.7612L106.245 19.707L104.331 18.7897V25.4743L102.999 24.834V18.1513L101.125 17.2534Z" fill="#7D5133"/>
<path d="M117.821 16.5531V17.8574L125.357 14.2346V12.9312L117.821 16.5531Z" fill="#A06841"/>
<path d="M117.821 19.8004V21.1047L125.357 17.4826V16.1792L117.821 19.8004Z" fill="#A06841"/>
<path d="M14.1758 89.9007L30.3024 126.773L60.6051 112.212L60.5826 83.3213L14.1758 89.9007Z" fill="#C78C61"/>
<path d="M39.369 111.125L33.8287 113.571V121.773L39.369 119.262V111.125Z" fill="#FFE1B4" fill-opacity="0.7"/>
<path d="M29.4292 68.9475C29.9809 68.6825 30.6235 68.6846 31.1734 68.9532L60.5825 83.3208L30.3027 97.6503V126.773L3.8147e-06 112.212V83.0884L29.4292 68.9475Z" fill="#E6A475"/>
<path d="M30.3028 97.6503V126.773L7.82013e-05 112.212V83.0884L30.3028 97.6503Z" fill="#A06841"/>
<path d="M20.1716 73.4118L50.2937 88.1872L40.0966 92.9928L10.7967 77.9163H10.7953" fill="#FFCC80"/>
<path d="M10.6491 99.5317L15.18 96.8486L19.8554 103.943L16.4134 102.294V114.313L14.0182 113.162V101.146L10.6491 99.5317Z" fill="#7D5133"/>
<path d="M40.6682 98.2692V100.614L54.2187 94.101V91.7578L40.6682 98.2692Z" fill="#A06841"/>
<path d="M40.6682 104.108V106.452L54.2187 99.9409V97.5977L40.6682 104.108Z" fill="#A06841"/>
<path d="M18.1509 66.9949L30.2935 94.7581L53.1102 83.7946L53.3846 62.2974L18.1509 66.9949Z" fill="#C78C61"/>
<path d="M37.1202 82.9746L32.9487 84.8166V90.9928L37.1202 89.1017V82.9746Z" fill="#FFE1B4" fill-opacity="0.7"/>
<path d="M29.4155 51.3227C29.9697 51.0564 30.6155 51.0598 31.1669 51.3319L53.385 62.2973L30.2934 72.8288V94.7568L7.47682 83.7933V61.8643L29.4155 51.3227Z" fill="#E6AB75"/>
<path d="M30.2938 72.8312V94.7592L7.47719 83.7957V61.8667L30.2938 72.8312Z" fill="#A07441"/>
<path d="M22.7346 54.5342L45.9319 65.6847L38.6167 69.0773L15.6757 57.9259H15.6746" fill="#FDD498"/>
<path d="M15.4954 74.2453L18.9069 72.2251L22.4273 77.567L19.8356 76.3251V85.3749L18.0321 84.5081V75.4608L15.4954 74.2453Z" fill="#7D5133"/>
<path d="M38.0984 73.2951V75.0609L48.3013 70.1562V68.3916L38.0984 73.2951Z" fill="#A06841"/>
<path d="M38.0982 77.6906V79.4563L48.3012 74.5527V72.7881L38.0982 77.6906Z" fill="#A06841"/>
<path d="M21.5101 49.1438L30.4792 69.651L47.3327 61.5528L47.3866 45.478L21.5101 49.1438Z" fill="#C78C61"/>
<path d="M35.5226 60.9463L32.4404 62.3069V66.8689L35.5226 65.4721V60.9463Z" fill="#FFE1B4" fill-opacity="0.7"/>
<path d="M30.479 37.2568L47.3864 45.479L30.479 53.4539V69.6509L13.6256 61.5528V45.355L30.479 37.2568Z" fill="#E6AB75"/>
<path d="M30.4794 53.4524V69.6495L13.6259 61.5513V45.3535L30.4794 53.4524Z" fill="#A07441"/>
<path d="M24.8957 39.9404L41.9879 47.881L35.9897 50.8845L19.6817 42.4457" fill="#FDD498"/>
<path d="M19.5485 54.4981L22.0684 53.0059L24.6687 56.9516L22.7543 56.0343V62.719L21.4222 62.0787V55.3959L19.5485 54.4981Z" fill="#7D5133"/>
<path d="M36.2443 53.7958V55.1001L43.7807 51.4773V50.1738L36.2443 53.7958Z" fill="#A06841"/>
<path d="M36.2443 57.0431V58.3474L43.7807 54.7253V53.4219L36.2443 57.0431Z" fill="#A06841"/>
<path d="M87.7505 115.673L87.8052 133.036L124.671 154.488L124.616 137.125L87.7505 115.673Z" fill="#CD8852"/>
<path d="M110.744 131.304V134.05L110.758 134.329V137.012L122.86 144.062V143.05L122.844 142.331V140.023L122.828 139.29V138.354L110.744 131.304Z" fill="#BF9F85" fill-opacity="0.7"/>
<path d="M88.4685 125.471V128.216L88.4822 128.495V131.178L100.585 138.228V137.217L100.569 136.497V134.189L100.552 133.456V132.521L88.4685 125.471Z" fill="#BF9F85" fill-opacity="0.7"/>
<path d="M124.619 137.123L124.674 154.489L140.474 145.352L140.419 127.986L124.619 137.123Z" fill="#B38251"/>
<path d="M87.7484 115.684L124.619 137.135L131.52 133.132L133.519 132.002L133.56 131.98L140.423 127.999L103.551 106.547L96.6508 110.529L96.6289 110.548L94.6519 111.68L87.7484 115.684Z" fill="#EEBB87"/>
<path d="M94.6513 111.683L131.52 133.132L133.519 132.003L133.56 131.981L96.6502 110.529L96.6284 110.548L94.6513 111.683Z" fill="#FFE0B2"/>
<path d="M131.519 133.132L131.538 139.703L133.56 138.546L133.54 131.978L131.519 133.132Z" fill="#BF9F85"/>
<path d="M121.123 146.83L120.577 147.869L120.916 148.06L121.659 148.487L121.123 146.83Z" fill="#3F434F"/>
<path d="M120.916 148.06L120.911 150.111L121.315 150.346L121.323 148.295L120.916 148.06ZM118.895 149.129V149.566L121.703 151.191V150.753L118.895 149.129ZM115.913 143.818L115.911 145.278C115.918 145.521 115.977 145.76 116.084 145.979C116.19 146.197 116.341 146.391 116.528 146.547L116.525 147.863C116.279 147.75 116.088 147.761 116.088 147.898L117.183 148.53C117.183 148.393 116.998 148.166 116.749 147.994L116.755 146.678C116.916 146.741 117.055 146.728 117.164 146.659C117.292 146.564 117.377 146.383 117.377 146.126L117.383 144.666L115.913 143.818ZM119.289 147.121L119.283 149.173L119.693 149.405L119.696 147.354L119.289 147.121ZM119.493 145.888L118.953 146.927L119.289 147.121L120.031 147.545L119.493 145.888Z" fill="#3F434F"/>
<path d="M128.627 92.7485L128.682 110.112L165.547 131.563L165.493 114.2L128.627 92.7485Z" fill="#CD8852"/>
<path d="M151.621 108.379V111.125L151.634 111.404V114.087L163.737 121.137V120.125L163.721 119.406V117.098L163.704 116.365V115.43L151.621 108.379Z" fill="#BF9F85" fill-opacity="0.7"/>
<path d="M129.345 102.546V105.292L129.359 105.571V108.254L141.462 115.304V114.292L141.445 113.573V111.265L141.429 110.532V109.597L129.345 102.546Z" fill="#BF9F85" fill-opacity="0.7"/>
<path d="M165.496 114.198L165.55 131.564L181.351 122.427L181.296 105.062L165.496 114.198Z" fill="#B38251"/>
<path d="M128.625 92.7595L165.496 114.211L172.397 110.207L174.396 109.078L174.437 109.056L181.299 105.074L144.428 83.6226L137.527 87.6044L137.505 87.6235L135.528 88.7557L128.625 92.7595Z" fill="#EEBB87"/>
<path d="M135.528 88.7591L172.396 110.208L174.395 109.079L174.436 109.057L137.527 87.605L137.505 87.6241L135.528 88.7591Z" fill="#FFE0B2"/>
<path d="M172.396 110.207L172.415 116.779L174.436 115.622L174.417 109.053L172.396 110.207Z" fill="#BF9F85"/>
<path d="M162 123.905L161.454 124.944L161.792 125.136L162.535 125.563L162 123.905Z" fill="#3F434F"/>
<path d="M161.793 125.135L161.787 127.186L162.192 127.421L162.2 125.37L161.793 125.135ZM159.772 126.205V126.642L162.579 128.267V127.829L159.772 126.205ZM156.79 120.894L156.787 122.354C156.795 122.597 156.854 122.836 156.96 123.054C157.067 123.273 157.218 123.467 157.404 123.623L157.402 124.938C157.156 124.826 156.965 124.837 156.965 124.974L158.06 125.606C158.06 125.469 157.874 125.242 157.626 125.07L157.631 123.754C157.792 123.817 157.932 123.803 158.041 123.735C158.169 123.639 158.254 123.459 158.254 123.202L158.259 121.741L156.79 120.894ZM160.165 124.197L160.16 126.248L160.569 126.481L160.572 124.43L160.165 124.197ZM160.37 122.964L159.829 124.003L160.165 124.197L160.908 124.621L160.37 122.964Z" fill="#3F434F"/>
<path d="M164.598 70.3687L164.653 87.7318L201.519 109.183L201.464 91.8203L164.598 70.3687Z" fill="#CD8852"/>
<path d="M187.592 86V88.7457L187.605 89.0247V91.7075L199.708 98.7578V97.7459L199.692 97.0267V94.7185L199.675 93.9856V93.0503L187.592 86Z" fill="#BF9F85" fill-opacity="0.7"/>
<path d="M165.316 80.1665V82.9122L165.33 83.1912V85.874L177.433 92.9243V91.9124L177.416 91.1932V88.885L177.4 88.1521V87.2168L165.316 80.1665Z" fill="#BF9F85" fill-opacity="0.7"/>
<path d="M201.467 91.821L201.522 109.187L217.322 100.05L217.267 82.6841L201.467 91.821Z" fill="#B38251"/>
<path d="M164.596 70.3796L201.467 91.8312L208.368 87.8275L210.367 86.698L210.408 86.6762L217.27 82.6943L180.399 61.2427L173.499 65.2245L173.477 65.2437L171.5 66.3759L164.596 70.3796Z" fill="#EEBB87"/>
<path d="M171.499 66.3792L208.367 87.8281L210.366 86.6986L210.407 86.6767L173.498 65.2251L173.476 65.2442L171.499 66.3792Z" fill="#FFE0B2"/>
<path d="M208.367 87.8279L208.386 94.3996L210.407 93.2428L210.388 86.6738L208.367 87.8279Z" fill="#BF9F85"/>
<path d="M197.971 101.526L197.425 102.565L197.763 102.757L198.506 103.183L197.971 101.526Z" fill="#3F434F"/>
<path d="M197.764 102.758L197.759 104.809L198.163 105.045L198.171 102.993L197.764 102.758ZM195.743 103.828V104.265L198.55 105.89V105.452L195.743 103.828ZM192.761 98.5166L192.759 99.977C192.766 100.22 192.825 100.459 192.932 100.678C193.038 100.896 193.189 101.09 193.376 101.246L193.373 102.561C193.127 102.449 192.936 102.46 192.936 102.597L194.031 103.229C194.031 103.092 193.845 102.865 193.597 102.693L193.602 101.377C193.763 101.44 193.903 101.426 194.012 101.358C194.14 101.262 194.225 101.082 194.225 100.825L194.23 99.3644L192.761 98.5166ZM196.136 101.82L196.131 103.871L196.541 104.104L196.543 102.053L196.136 101.82ZM196.341 100.587L195.801 101.626L196.136 101.82L196.879 102.244L196.341 100.587Z" fill="#3F434F"/>
<path d="M204.385 48.5371L204.44 65.9003L241.305 87.3519L241.251 69.9887L204.385 48.5371Z" fill="#CD8852"/>
<path d="M227.378 64.1685V66.9142L227.392 67.1931V69.876L239.495 76.9262V75.9143L239.479 75.1951V72.887L239.462 72.154V71.2187L227.378 64.1685Z" fill="#BF9F85" fill-opacity="0.7"/>
<path d="M205.103 58.3325V61.0783L205.117 61.3572V64.04L217.219 71.0903V70.0784L217.203 69.3592V67.051L217.187 66.3181V65.3828L205.103 58.3325Z" fill="#BF9F85" fill-opacity="0.7"/>
<path d="M241.254 69.987L241.308 87.3529L257.109 78.216L257.054 60.8501L241.254 69.987Z" fill="#B38251"/>
<path d="M204.383 48.5476L241.254 69.9992L248.154 65.9955L250.153 64.866L250.194 64.8441L257.057 60.8623L220.186 39.4106L213.285 43.3925L213.263 43.4116L211.286 44.5438L204.383 48.5476Z" fill="#EEBB87"/>
<path d="M211.286 44.5447L248.154 65.9936L250.153 64.8641L250.194 64.8423L213.285 43.3906L213.263 43.4098L211.286 44.5447Z" fill="#FFE0B2"/>
<path d="M248.154 65.9959L248.173 72.5676L250.194 71.4107L250.175 64.8418L248.154 65.9959Z" fill="#BF9F85"/>
<path d="M237.758 79.6938L237.211 80.7331L237.55 80.9245L238.293 81.3511L237.758 79.6938Z" fill="#3F434F"/>
<path d="M237.551 80.9243L237.545 82.9753L237.949 83.2105L237.958 81.1595L237.551 80.9243ZM235.53 81.9936V82.4311L238.337 84.0556V83.618L235.53 81.9936ZM232.548 76.6826L232.545 78.143C232.553 78.3861 232.612 78.6248 232.718 78.8435C232.825 79.0622 232.976 79.2559 233.162 79.4119L233.16 80.7274C232.914 80.6152 232.723 80.6262 232.723 80.7629L233.818 81.3946C233.818 81.2579 233.632 81.0309 233.384 80.8586L233.389 79.5432C233.55 79.6061 233.689 79.5924 233.799 79.5241C233.927 79.4283 234.012 79.2478 234.012 78.9908L234.017 77.5304L232.548 76.6826ZM235.923 79.9862L235.918 82.0373L236.327 82.2698L236.33 80.2187L235.923 79.9862ZM236.128 78.7528L235.587 79.7921L235.923 79.9862L236.666 80.4101L236.128 78.7528Z" fill="#3F434F"/>
<path d="M243.612 68.3833L243.52 96.3464L209.482 116.154L209.574 88.1926C209.574 86.3031 208.241 83.9535 206.539 82.9861L153.365 52.538C152.721 52.1704 152.077 52.0779 151.57 52.1704L185.241 32.5437C185.793 32.2213 186.576 32.2686 187.403 32.7308L240.579 63.1767C242.281 64.1441 243.614 66.4937 243.614 68.3811L243.612 68.3833Z" fill="#748BFD" fill-opacity="0.380392"/>
<path d="M153.352 52.5438C151.697 51.585 150.327 52.3481 150.323 54.2528L150.244 82.2331L152.047 83.2735L152.124 55.2954C152.126 54.5279 152.682 54.2313 153.347 54.6161L206.549 85.0663C207.23 85.4597 207.764 86.3863 207.762 87.1515L207.683 115.132L209.486 116.174L209.563 88.1941C209.57 86.2895 208.226 83.9593 206.554 82.9919L153.352 52.5438Z" fill="#576CFB" fill-opacity="0.376471"/>
<path d="M289.09 281.647C289.09 281.647 290.058 291.386 288.659 292.122C287.26 292.858 282.201 293.757 280.909 292.122C279.618 290.487 278.433 287.576 278.218 286.175C278.003 284.773 279.51 283.48 280.909 281.647C282.308 279.815 289.09 281.647 289.09 281.647ZM269.349 288.165C269.349 288.165 269.859 297.448 269.349 298.811C268.839 300.174 263.906 300.344 262.29 299.492C260.674 298.64 252.34 294.382 250.555 292.849C248.769 291.316 252.425 290.464 254.381 290.72C256.338 290.975 261.185 289.698 261.61 289.272C262.035 288.846 269.349 288.165 269.349 288.165Z" fill="#3E3E3E"/>
<path d="M235.974 148.512C235.974 148.512 238.131 142.979 237.532 141.778C236.861 140.434 235.362 144.365 234.532 144.181C233.49 143.949 234.127 141.532 232.733 140.577C229.259 138.198 222.536 142.979 229.712 151.094L235.974 148.512Z" fill="#E4AF9A"/>
<path d="M296.424 145.716C296.424 145.716 300.748 172.876 299.887 176.326C299.025 179.775 286.864 189.836 286.864 189.836C286.864 189.836 278.072 162.819 277.785 161.021C277.498 159.222 296.424 145.716 296.424 145.716Z" fill="#B08B07"/>
<path d="M293.342 197.828C293.342 197.828 290.882 231.435 290.658 237.932C290.434 244.429 291.553 280.949 289.315 282.965C287.078 284.981 281.712 283.861 280.145 280.949C278.577 278.036 276.145 243.477 276.593 240.564C277.04 237.652 274.721 213.063 276.034 204.101C277.347 195.139 289.986 196.035 293.342 197.828Z" fill="#7D5133"/>
<path d="M261.539 197.587C261.539 197.587 256.666 238.792 256.666 243.671C256.666 248.55 257.478 289.755 261.539 291.382C265.599 293.008 268.577 291.924 270.2 288.4C271.572 285.423 272.947 260.005 270.483 247.936C269.76 244.389 270.144 240.741 271.883 237.567C276.332 229.448 283.414 213.497 278.996 200.568C272.789 182.406 261.539 197.587 261.539 197.587Z" fill="#A06841"/>
<path d="M264.934 125.977C265.151 128.994 264.685 137.558 268.669 140.953C272.653 144.347 281.866 136.759 283.61 131.168C285.353 125.578 283.365 117.191 276.017 116.592C268.669 115.992 264.677 122.4 264.934 125.977Z" fill="#E4AF9A"/>
<path d="M266.186 119.257C265.456 120.374 263.149 119.677 263.463 121.774C263.777 123.871 269.745 125.758 270.06 128.694C270.374 131.63 270.164 137.949 274.143 139.77C278.121 141.591 281.576 137.292 282.728 136.243C283.879 135.195 287.229 125.025 285.973 121.984C284.716 118.943 281.68 115.483 279.168 114.854C276.655 114.225 267.966 116.531 266.186 119.257Z" fill="#846E63"/>
<path d="M266.186 119.257C265.456 120.374 260.011 117.456 260.325 119.553C260.639 121.651 269.745 125.758 270.06 128.694C270.06 128.694 290.807 133.685 285.973 121.984C284.716 118.943 281.68 115.483 279.168 114.854C276.655 114.225 267.966 116.531 266.186 119.257Z" fill="#B08B07"/>
<path d="M265.869 120.015C265.668 122.296 266.94 128.4 270.491 131.352C273.974 134.304 283.286 135.042 283.286 135.042C283.486 134.841 283.822 134.506 284.223 134.036L284.29 133.969C284.625 133.566 284.96 133.03 285.362 132.426C285.807 131.677 286.188 130.892 286.5 130.078C288.175 126.12 288.778 120.619 283.62 116.46C282.213 115.252 280.673 114.514 279.265 114.178C277.323 113.642 275.448 113.709 273.706 114.178C271.227 114.715 269.151 116.057 267.744 117.332C266.606 118.404 265.869 119.411 265.869 120.015Z" fill="#FFC701"/>
<path d="M265.869 120.015C265.668 122.296 266.94 128.4 270.491 131.352C273.974 134.304 283.286 135.042 283.286 135.042C283.755 134.64 284.559 133.7 285.362 132.426C280.338 131.822 269.084 129.138 267.744 117.332C266.606 118.404 265.869 119.411 265.869 120.015Z" fill="#FFC701"/>
<path d="M284.577 140.149C284.577 140.149 282.127 137.634 277.148 137.563C272.169 137.491 268.53 142.864 268.53 142.864L284.08 142.312L284.577 140.149Z" fill="#EBB12A"/>
<path d="M292.845 140.265C289.571 139.166 281.093 139.982 276.423 140.355C271.752 140.729 258.085 145.026 256.503 149.778C253.979 157.364 261.545 175.026 261.736 178.925C261.926 182.823 258.157 200.267 260.038 205.405C263.261 214.202 291.514 206.228 294.022 200.45C296.53 194.671 294.721 173.487 295.545 169.413C296.368 165.339 299.799 142.6 292.845 140.265Z" fill="#FFC701"/>
<path d="M264.76 156.25C266.356 161.723 255.772 180.238 250.495 181.067C243.176 182.217 226.946 152.933 229.43 149.284C231.914 145.635 234.729 145.967 236.22 147.293C237.711 148.62 247.569 163.78 248.894 168.258C251.566 168.09 254.545 146.613 258.909 147.957C263.518 149.377 264.088 153.945 264.76 156.25Z" fill="#B08B07"/>
</svg>
