<svg width="51" height="51" viewBox="0 0 51 51" fill="none" xmlns="http://www.w3.org/2000/svg">
<path d="M25.3333 0.0117188C39.1412 0.0117188 50.3334 11.2055 50.3334 25.0118C50.3334 38.8197 39.1412 50.0117 25.3333 50.0117C11.5254 50.0117 0.333374 38.8195 0.333374 25.0118C0.333374 11.2055 11.5256 0.0117188 25.3333 0.0117188Z" fill="#916834"/>
<path d="M28.9613 16.0117C27.1077 16.0117 25.2957 16.5614 23.7544 17.5912C22.2132 18.621 21.0119 20.0847 20.3026 21.7973C19.5932 23.5098 19.4076 25.3942 19.7693 27.2122C20.1309 29.0302 21.0235 30.7002 22.3342 32.0109C23.6449 33.3216 25.3149 34.2142 27.1329 34.5758C28.9509 34.9374 30.8353 34.7518 32.5478 34.0425C34.2604 33.3331 35.7241 32.1319 36.7539 30.5907C37.7837 29.0494 38.3334 27.2374 38.3334 25.3838C38.3302 22.8992 37.3417 20.5172 35.5848 18.7603C33.8279 17.0034 31.4459 16.0149 28.9613 16.0117ZM32.0208 28.4433C31.8508 28.6132 31.6202 28.7086 31.3799 28.7086C31.1395 28.7086 30.909 28.6132 30.739 28.4433L28.3204 26.0247C28.1502 25.8548 28.0545 25.6243 28.0543 25.3838V20.5466C28.0543 20.3061 28.1499 20.0754 28.32 19.9053C28.49 19.7352 28.7207 19.6396 28.9613 19.6396C29.2018 19.6396 29.4325 19.7352 29.6026 19.9053C29.7727 20.0754 29.8683 20.3061 29.8683 20.5466V25.0089L32.0208 27.1615C32.1907 27.3315 32.2861 27.5621 32.2861 27.8024C32.2861 28.0428 32.1907 28.2733 32.0208 28.4433Z" fill="white"/>
<path d="M20.4962 19.035H16.8683C16.6277 19.035 16.397 18.9394 16.2269 18.7693C16.0568 18.5992 15.9613 18.3685 15.9613 18.128C15.9613 17.8875 16.0568 17.6568 16.2269 17.4867C16.397 17.3166 16.6277 17.221 16.8683 17.221H20.4962C20.7367 17.221 20.9674 17.3166 21.1375 17.4867C21.3076 17.6568 21.4031 17.8875 21.4031 18.128C21.4031 18.3685 21.3076 18.5992 21.1375 18.7693C20.9674 18.9394 20.7367 19.035 20.4962 19.035ZM18.0776 22.6629H14.4497C14.2091 22.6629 13.9784 22.5673 13.8083 22.3972C13.6382 22.2271 13.5427 21.9964 13.5427 21.7559C13.5427 21.5154 13.6382 21.2847 13.8083 21.1146C13.9784 20.9445 14.2091 20.8489 14.4497 20.8489H18.0776C18.3181 20.8489 18.5488 20.9445 18.7189 21.1146C18.889 21.2847 18.9845 21.5154 18.9845 21.7559C18.9845 21.9964 18.889 22.2271 18.7189 22.3972C18.5488 22.5673 18.3181 22.6629 18.0776 22.6629ZM18.0776 29.9187H14.4497C14.2091 29.9187 13.9784 29.8231 13.8083 29.653C13.6382 29.483 13.5427 29.2523 13.5427 29.0117C13.5427 28.7712 13.6382 28.5405 13.8083 28.3704C13.9784 28.2003 14.2091 28.1047 14.4497 28.1047H18.0776C18.3181 28.1047 18.5488 28.2003 18.7189 28.3704C18.889 28.5405 18.9845 28.7712 18.9845 29.0117C18.9845 29.2523 18.889 29.483 18.7189 29.653C18.5488 29.8231 18.3181 29.9187 18.0776 29.9187ZM18.0776 26.2908H13.2404C12.9998 26.2908 12.7691 26.1952 12.599 26.0251C12.4289 25.855 12.3334 25.6244 12.3334 25.3838C12.3334 25.1433 12.4289 24.9126 12.599 24.7425C12.7691 24.5724 12.9998 24.4768 13.2404 24.4768H18.0776C18.3181 24.4768 18.5488 24.5724 18.7189 24.7425C18.889 24.9126 18.9845 25.1433 18.9845 25.3838C18.9845 25.6244 18.889 25.855 18.7189 26.0251C18.5488 26.1952 18.3181 26.2908 18.0776 26.2908ZM20.4962 33.5466H16.8683C16.6277 33.5466 16.397 33.451 16.2269 33.281C16.0568 33.1109 15.9613 32.8802 15.9613 32.6396C15.9613 32.3991 16.0568 32.1684 16.2269 31.9983C16.397 31.8282 16.6277 31.7326 16.8683 31.7326H20.4962C20.7367 31.7326 20.9674 31.8282 21.1375 31.9983C21.3076 32.1684 21.4031 32.3991 21.4031 32.6396C21.4031 32.8802 21.3076 33.1109 21.1375 33.281C20.9674 33.451 20.7367 33.5466 20.4962 33.5466Z" fill="white"/>
</svg>
