<svg width="300" height="301" viewBox="0 0 300 301" fill="none" xmlns="http://www.w3.org/2000/svg">
<path d="M136.58 18.4557L135.197 94.0664L135.301 84.1382L136.685 0.0117188L136.58 18.4557ZM33.6171 58.2059L33.9356 132.589L67.683 133.07L67.7433 58.4451L33.6171 58.2059Z" fill="#83929B"/>
<path d="M299.621 139.025C299.559 138.979 299.467 138.994 299.359 139.042L297.261 140.258L296.72 139.951L298.818 138.732C298.911 138.669 299.02 138.669 299.08 138.7L299.621 139.025ZM294.589 141.802C294.481 141.869 294.39 141.962 294.326 142.072C294.262 142.182 294.226 142.307 294.221 142.434L294.252 151.225C294.252 151.349 294.298 151.426 294.358 151.474L293.819 151.162C293.742 151.118 293.711 151.039 293.711 150.917L293.68 142.126C293.686 141.997 293.723 141.871 293.788 141.758C293.852 141.645 293.942 141.549 294.05 141.477L296.164 140.258L296.705 140.583L294.589 141.802Z" fill="#3F434F"/>
<path d="M296.705 140.577L296.164 140.261L296.148 135.069L296.691 135.383L296.705 140.577Z" fill="#474B59"/>
<path d="M296.083 134.93L296.629 135.246C296.666 135.269 296.691 135.317 296.691 135.383L296.148 135.069C296.148 135.001 296.123 134.953 296.085 134.93H296.083Z" fill="#474B59"/>
<path d="M296.472 134.626C296.897 134.382 297.242 134.59 297.242 135.064L297.257 140.258L299.357 139.048C299.565 138.929 299.732 139.012 299.732 139.262L299.756 148.055C299.756 148.292 299.59 148.581 299.384 148.699L294.624 151.445C294.418 151.566 294.25 151.47 294.25 151.233L294.225 142.44C294.225 142.191 294.391 141.914 294.599 141.796L296.706 140.577L296.691 135.383C296.691 135.248 296.593 135.191 296.475 135.258L289.01 139.47V138.836L296.472 134.626Z" fill="#5B5E71"/>
<path d="M289.012 139.47L288.466 139.154V138.522L289.008 138.836L289.012 139.47Z" fill="#FFCF24"/>
<path d="M296.92 134.536C296.797 134.507 296.643 134.536 296.473 134.63L289.006 138.842L288.464 138.518L295.934 134.305C296.133 134.181 296.335 134.181 296.475 134.26L296.92 134.536Z" fill="#474B59"/>
<path d="M117.607 157.914C117.578 161.561 116.343 164.115 114.333 165.292L100.144 173.502C102.154 172.354 102.872 169.933 102.872 166.287C102.901 159.254 98.7934 150.651 93.0203 147.321C90.2046 145.713 87.6781 145.569 85.7822 146.661L99.9421 138.451C101.836 137.33 104.396 137.473 107.18 139.081C112.953 142.412 117.636 150.852 117.607 157.914Z" fill="#3F434F"/>
<path d="M146.047 174.276C146.018 177.922 144.782 180.477 142.771 181.654L128.582 189.864C130.593 188.716 131.313 186.295 131.313 182.646C131.342 175.616 127.234 167.013 121.461 163.682C118.645 162.074 116.116 161.931 114.223 163.023L128.383 154.813C130.276 153.692 132.834 153.835 135.621 155.443C141.394 158.773 146.074 167.214 146.047 174.276Z" fill="#3F434F"/>
<path d="M229.75 222.409C229.721 226.056 228.487 228.61 226.476 229.787L212.287 237.997C214.297 236.849 215.015 234.428 215.015 230.782C215.045 223.749 210.936 215.146 205.163 211.816C202.35 210.208 199.821 210.064 197.925 211.156L212.085 202.946C213.981 201.825 216.539 201.969 219.323 203.576C225.096 206.907 229.779 215.348 229.75 222.409Z" fill="#363A44"/>
<path d="M67.4786 144.703L191.091 215.892L192.096 216.474L212.416 228.164V226.787C211.833 222.927 211.305 220.281 209.611 217.691C209.328 217.243 209.01 216.819 208.66 216.422C208.66 216.368 208.605 216.314 208.553 216.262C208.235 215.892 207.867 215.522 207.494 215.151C205.484 213.142 202.574 210.972 198.181 208.225C197.795 207.946 197.388 207.698 196.964 207.482C194.002 205.631 190.404 203.515 186.117 201.03L180.931 198.014L71.6055 134.919L67.5327 132.589L67.4786 144.703Z" fill="#474B59"/>
<path d="M71.5867 134.925L140.436 94.9336L249.791 158.039L180.941 198.028L71.5867 134.925Z" fill="#4562EF"/>
<path d="M180.941 198.028L249.791 158.039L254.989 161.036L186.14 201.028L180.941 198.028Z" fill="#5B5E71"/>
<path d="M254.989 161.036C278.533 174.625 279.669 176.491 281.257 186.808L212.407 226.799C210.82 216.482 209.683 214.614 186.14 201.027L254.989 161.036Z" fill="#4562EF"/>
<path d="M181.151 123.89L250.001 83.8982L249.793 158.038L180.939 198.028L181.151 123.89Z" fill="#CAD0DD"/>
<path d="M186.058 155.301L254.91 115.312L256.263 115.017L187.415 155.008L186.058 155.301Z" fill="#FFE99C"/>
<path d="M181.151 123.89L180.943 198.028L71.5845 134.927L67.5305 132.587L67.7386 58.4468L181.151 123.89Z" fill="#D4DAE8"/>
<path d="M67.7428 58.445L136.59 18.4556L249.999 83.8988L181.149 123.89L67.7428 58.445Z" fill="#E4E8F4"/>
<path d="M187.416 155.008L256.265 115.017L282.668 130.253L213.819 170.245L187.416 155.008Z" fill="#FFE99C"/>
<path d="M213.819 170.245L282.669 130.253C283.917 130.973 285.162 132.051 286.094 133.546L217.244 173.538C216.39 172.176 215.213 171.045 213.819 170.245Z" fill="#FFE99C"/>
<path d="M186.065 195.054C186.065 197.115 186.117 199.126 186.117 201.03C190.404 203.515 194.002 205.631 196.963 207.482C197.388 207.694 197.81 207.96 198.181 208.223C202.572 210.972 205.486 213.142 207.494 215.151C207.864 215.522 208.235 215.892 208.553 216.262C208.605 216.314 208.657 216.366 208.657 216.42C209.03 216.844 209.346 217.267 209.61 217.689C211.304 220.281 211.833 222.927 212.416 226.787V226.999C212.416 227.37 212.312 227.74 212.416 228.164L218.13 231.388L219.19 231.971L224.057 234.721V237.629L230.355 241.279C230.407 240.961 231.148 235.355 231.148 226.629V226.151C231.148 224.882 231.096 223.561 230.99 222.132C230.936 221.604 230.936 221.021 230.883 220.441L230.725 218.061C230.671 217.479 230.619 216.896 230.565 216.262V216.104C230.407 214.517 230.195 212.93 229.982 211.237C229.982 211.078 229.93 210.972 229.93 210.868C229.647 208.672 229.295 206.484 228.873 204.31C227.972 199.813 226.861 195.212 225.327 190.717C225.177 190.273 225.018 189.832 224.85 189.394C223.829 186.415 222.627 183.501 221.252 180.668H221.2C221.032 180.207 220.82 179.764 220.565 179.345C220.459 179.133 220.353 178.923 220.301 178.71C219.876 178.024 219.506 177.336 219.136 176.647C219.044 176.435 218.919 176.238 218.765 176.065C218.273 175.207 217.762 174.361 217.231 173.527C216.332 172.046 215.061 170.989 213.791 170.249L187.438 155.016L186.065 155.281C185.111 159.724 185.746 179.293 186.065 195.052V195.054Z" fill="#FFDD64"/>
<path d="M217.244 173.538L286.094 133.546C296.772 149.991 299.833 172.207 300 186.653C299.975 195.368 299.267 200.98 299.23 201.276L230.38 241.267C230.418 240.972 231.125 235.36 231.15 226.644C230.984 212.198 227.922 189.983 217.244 173.538Z" fill="#5B5E71"/>
<path d="M299.958 186.36L231.088 226.228C230.925 211.745 227.833 189.777 217.248 173.505L286.119 133.472C296.701 149.908 299.796 171.876 299.958 186.36Z" fill="#FFE99C"/>
<path d="M284.371 136.479L285.632 135.751C294.096 149.583 296.866 166.669 297.842 177.571L232.066 215.65C231.983 214.825 231.866 213.916 231.76 213.036L295.422 176.183C294.493 165.822 291.884 149.908 284.371 136.479Z" fill="#FFDD64"/>
<path d="M295.411 176.163L274.696 188.186L268.458 191.805L263.724 194.476L243.454 206.22L231.76 213.009C230.424 201.933 227.36 186.794 219.508 173.993L251.695 155.402L272.021 143.657L276.643 140.933L282.937 137.313L284.383 136.477C291.902 149.894 294.518 165.808 295.411 176.163Z" fill="#A2ADFF"/>
<path d="M222.412 205.296C221.142 204.081 196.96 181.022 195.211 178.588C193.52 176.208 193.465 168.961 193.465 165.999C193.465 165.095 193.642 164.573 193.88 164.252C193.318 164.242 192.625 164.597 192.625 166.44C192.625 169.402 192.679 176.647 194.373 179.029C196.119 181.463 220.301 204.52 221.571 205.737C221.571 205.737 221.993 206.055 222.47 206.372C223.134 206.725 223.835 206.91 223.998 206.209C223.759 206.143 223.529 206.05 223.311 205.933C222.834 205.614 222.412 205.296 222.412 205.296Z" fill="#FFE99C"/>
<path d="M218.289 181.833C218.237 181.618 216.968 177.442 214.585 175.961L194.585 164.431C194.365 164.322 194.124 164.261 193.878 164.252C193.643 164.572 193.466 165.094 193.466 165.999C193.466 168.961 193.52 176.208 195.214 178.588C196.958 181.022 221.14 204.081 222.412 205.296C222.412 205.296 222.834 205.614 223.311 205.932C223.542 206.055 223.775 206.149 223.998 206.209C224.029 206.072 224.075 205.955 224.058 205.737C223.846 203.463 218.554 182.891 218.289 181.833Z" fill="#A2ADFF"/>
<path d="M224.934 220.175C226.844 221.278 230.936 226.374 231.15 226.644C231.125 235.36 230.417 240.972 230.38 241.267L224.039 237.606L224.047 234.742C224.026 234.097 223.666 221.845 224.089 220.177C224.203 219.894 224.509 219.93 224.934 220.175Z" fill="#525566"/>
<path d="M191.091 215.892L192.096 216.475L212.416 228.165L218.131 231.389L219.19 231.971C219.242 231.547 219.242 231.125 219.242 230.648C219.242 228.321 218.872 225.889 218.077 223.51C216.172 217.321 211.939 211.503 206.965 208.595C204.849 207.376 202.732 206.744 200.668 206.744C199.399 206.744 198.181 207.006 196.964 207.483C194.106 208.699 191.777 211.449 191.091 215.892Z" fill="#FFCF24"/>
<path d="M205.134 211.811C210.912 215.145 215.571 223.571 215.55 230.627C215.53 237.683 210.839 240.692 205.062 237.358C199.284 234.024 194.587 225.597 194.608 218.542C194.629 211.486 199.357 208.478 205.134 211.811Z" fill="#5B5E71"/>
<path d="M205.108 214.553C209.927 217.336 213.827 224.088 213.813 229.623C213.798 235.177 209.871 237.396 205.051 234.615C200.231 231.834 196.331 225.097 196.346 219.545C196.363 214.008 200.288 211.772 205.108 214.553Z" fill="#CAD0DD"/>
<path d="M202.437 225.458C202.384 225.427 202.326 225.405 202.265 225.392L198.727 224.63C199.429 226.596 200.483 228.418 201.838 230.005L202.954 226.584C203.074 226.23 202.791 225.662 202.437 225.458ZM198.325 218.155C198.076 218.906 197.955 219.694 197.967 220.485C197.963 221.367 198.082 222.284 198.313 223.218L201.601 223.141C202 223.137 202.003 222.488 201.605 222.022L198.325 218.155ZM201.88 215.447C201.246 215.435 200.621 215.594 200.07 215.907C199.519 216.22 199.062 216.675 198.748 217.225L202.277 220.539C202.329 220.589 202.387 220.633 202.45 220.67C202.804 220.874 203.091 220.635 202.97 220.144L201.88 215.447ZM205.101 216.42C204.418 216.011 203.673 215.716 202.895 215.547L204.602 220.316C204.687 220.574 204.858 220.794 205.087 220.94C205.28 221.051 205.474 221.049 205.576 220.878L207.303 218.091C206.638 217.449 205.899 216.888 205.101 216.42ZM207.701 228.495C207.347 228.291 207.068 228.535 207.18 229.021L208.281 233.722C208.913 233.73 209.535 233.57 210.084 233.258C210.634 232.946 211.09 232.494 211.407 231.948L207.871 228.626C207.82 228.576 207.762 228.532 207.701 228.495ZM205.068 228.235C204.874 228.125 204.681 228.125 204.579 228.291L202.852 231.079C203.543 231.736 204.283 232.304 205.053 232.749C205.823 233.192 206.562 233.479 207.259 233.621L205.553 228.853C205.466 228.598 205.295 228.38 205.068 228.235ZM208.321 219.164L207.197 222.582C207.085 222.939 207.361 223.503 207.713 223.705C207.767 223.737 207.825 223.76 207.886 223.773L211.428 224.543C210.733 222.574 209.679 220.75 208.321 219.164ZM211.848 225.96L208.548 226.03C208.158 226.039 208.156 226.69 208.546 227.147L211.834 231.02C212.063 230.353 212.19 229.577 212.194 228.691C212.188 227.77 212.072 226.853 211.848 225.96Z" fill="#525566"/>
<path d="M107.387 167.686L108.394 168.269L128.712 179.957L134.429 183.256L135.486 183.838C135.538 183.414 135.538 182.992 135.538 182.515C135.538 180.188 135.167 177.756 134.374 175.374C132.47 169.186 128.235 163.37 123.261 160.46C121.145 159.243 119.028 158.609 116.966 158.609C115.696 158.609 114.479 158.873 113.262 159.349C110.404 160.566 108.075 163.243 107.387 167.686Z" fill="#363A44"/>
<path d="M121.429 163.678C127.207 167.012 131.866 175.439 131.848 182.494C131.829 189.55 127.134 192.56 121.359 189.225C115.582 185.893 110.884 177.464 110.903 170.409C110.922 163.353 115.654 160.346 121.429 163.678Z" fill="#5B5E71"/>
<path d="M121.405 166.419C126.225 169.201 130.125 175.955 130.11 181.49C130.094 187.043 126.169 189.263 121.349 186.482C116.527 183.699 112.627 176.963 112.641 171.412C112.658 165.874 116.587 163.638 121.405 166.419Z" fill="#CAD0DD"/>
<path d="M118.735 177.325C118.68 177.293 118.621 177.271 118.56 177.258L115.022 176.497C115.724 178.463 116.778 180.284 118.133 181.872L119.249 178.45C119.369 178.097 119.088 177.531 118.732 177.327L118.735 177.325ZM114.622 170.022C114.372 170.773 114.251 171.56 114.262 172.352C114.26 173.234 114.379 174.151 114.608 175.083L117.896 175.008C118.297 175.004 118.3 174.353 117.9 173.889L114.622 170.022ZM118.175 167.314C117.541 167.302 116.916 167.46 116.365 167.773C115.813 168.086 115.357 168.542 115.043 169.092L118.574 172.404C118.626 172.455 118.684 172.499 118.747 172.537C119.101 172.741 119.386 172.501 119.267 172.01L118.175 167.314ZM121.398 168.287C120.715 167.878 119.97 167.583 119.192 167.413L120.899 172.181C120.984 172.438 121.155 172.659 121.384 172.805C121.575 172.917 121.769 172.915 121.871 172.743L123.598 169.957C122.933 169.315 122.196 168.755 121.398 168.287ZM123.996 180.362C123.642 180.158 123.363 180.401 123.475 180.888L124.578 185.589C125.21 185.597 125.832 185.437 126.382 185.125C126.931 184.813 127.387 184.361 127.704 183.815L124.166 180.493C124.115 180.443 124.057 180.399 123.996 180.362ZM121.363 180.102C121.169 179.992 120.978 179.992 120.874 180.156L119.147 182.943C119.838 183.603 120.58 184.171 121.35 184.616C122.12 185.059 122.857 185.346 123.556 185.487L121.85 180.72C121.763 180.464 121.591 180.246 121.363 180.102ZM124.618 171.031L123.494 174.448C123.38 174.806 123.656 175.37 124.01 175.572C124.063 175.603 124.121 175.627 124.181 175.64L127.725 176.41C127.03 174.441 125.976 172.617 124.618 171.031ZM128.143 177.826L124.845 177.895C124.453 177.905 124.451 178.556 124.841 179.014L128.129 182.887C128.358 182.217 128.487 181.444 128.489 180.557C128.483 179.637 128.367 178.72 128.143 177.826Z" fill="#525566"/>
<path d="M78.9475 151.397L79.9526 151.98L100.273 163.67L105.987 166.894L107.045 167.476C107.099 167.052 107.099 166.63 107.099 166.153C107.099 163.826 106.728 161.394 105.933 159.014C104.029 152.826 99.794 147.008 94.8202 144.1C92.7057 142.881 90.5892 142.249 88.5248 142.249C87.2553 142.249 86.0378 142.511 84.8204 142.987C81.963 144.204 79.6342 146.954 78.9475 151.397Z" fill="#363A44"/>
<path d="M92.9908 147.317C98.7659 150.652 103.428 159.078 103.407 166.134C103.386 173.189 98.6931 176.199 92.918 172.865C87.1429 169.53 82.4437 161.104 82.4645 154.048C82.4854 146.993 87.2137 143.985 92.9908 147.317Z" fill="#5B5E71"/>
<path d="M92.964 150.058C97.7839 152.841 101.684 159.593 101.669 165.128C101.653 170.682 97.7277 172.901 92.9078 170.12C88.088 167.339 84.1879 160.602 84.2025 155.05C84.2171 149.513 88.1441 147.277 92.964 150.058Z" fill="#CAD0DD"/>
<path d="M90.294 160.964C90.2398 160.932 90.1807 160.91 90.1192 160.897L86.5813 160.136C87.2831 162.101 88.3374 163.923 89.6926 165.511L90.8081 162.089C90.9308 161.735 90.6478 161.168 90.294 160.964ZM86.1817 153.663C85.9322 154.412 85.8105 155.198 85.8217 155.988C85.8217 156.872 85.9382 157.789 86.1672 158.723L89.4574 158.646C89.857 158.642 89.8591 157.993 89.4616 157.527L86.1817 153.663ZM89.7342 150.952C89.1005 150.94 88.4752 151.099 87.9241 151.412C87.3729 151.725 86.9163 152.181 86.6021 152.731L90.1338 156.044C90.186 156.095 90.244 156.139 90.3065 156.175C90.6603 156.379 90.9454 156.14 90.8268 155.649L89.7342 150.952ZM92.9558 151.926C92.2734 151.517 91.5291 151.222 90.7519 151.052L92.4584 155.822C92.5439 156.079 92.715 156.299 92.9433 156.446C93.1368 156.556 93.3283 156.554 93.4323 156.383L95.1597 153.596C94.4939 152.954 93.7541 152.393 92.9558 151.926ZM95.6862 163.88C95.3324 163.676 95.0535 163.917 95.1659 164.406L96.2689 169.107C96.9007 169.115 97.5232 168.954 98.0725 168.642C98.6218 168.33 99.0781 167.877 99.3947 167.331L95.8568 164.011C95.8053 163.961 95.748 163.917 95.6862 163.88ZM92.9225 163.741C92.731 163.63 92.5375 163.63 92.4355 163.797L90.7082 166.584C91.3991 167.243 92.14 167.809 92.91 168.254C93.68 168.697 94.4188 168.984 95.116 169.126L93.4094 164.358C93.3223 164.103 93.1505 163.885 92.9225 163.741ZM96.3084 154.549L95.1846 157.964C95.0702 158.324 95.347 158.888 95.7008 159.09C95.7542 159.122 95.8126 159.145 95.8735 159.158L99.4156 159.928C98.7204 157.959 97.667 156.135 96.3084 154.549ZM99.8339 161.344L96.5353 161.413C96.144 161.423 96.144 162.072 96.5311 162.532L99.8193 166.403C100.048 165.735 100.177 164.962 100.179 164.075C100.174 163.154 100.058 162.238 99.8339 161.344ZM215.675 187.418C215.598 187.372 215.505 187.389 215.398 187.449L213.299 188.668L212.743 188.344L214.857 187.127C214.965 187.064 215.057 187.064 215.134 187.096L215.675 187.418ZM210.645 190.195C210.537 190.267 210.447 190.363 210.383 190.476C210.319 190.588 210.282 190.714 210.275 190.844L210.289 199.634C210.289 199.759 210.335 199.834 210.397 199.865L209.856 199.557C209.794 199.512 209.75 199.433 209.75 199.31L209.734 190.519C209.732 190.39 209.766 190.263 209.831 190.152C209.897 190.041 209.991 189.949 210.104 189.887L212.204 188.668L212.745 188.976L210.645 190.195Z" fill="#525566"/>
<path d="M217.296 180.269V180.903L213.494 183.098C213.432 183.139 213.38 183.194 213.343 183.26C213.305 183.325 213.284 183.397 213.28 183.472L213.294 188.666L215.403 187.449C215.619 187.324 215.777 187.414 215.777 187.663L215.802 196.456C215.802 196.693 215.646 196.976 215.43 197.101L210.67 199.846C210.462 199.967 210.296 199.871 210.296 199.632L210.271 190.842C210.271 190.592 210.437 190.313 210.645 190.195L212.743 188.984L212.726 183.79C212.726 183.314 213.07 182.709 213.494 182.463L217.296 180.269Z" fill="#5B5E71"/>
<path d="M217.296 180.262L213.5 182.467C213.276 182.612 213.089 182.808 212.955 183.038C212.821 183.269 212.743 183.528 212.728 183.794L212.742 188.976L212.201 188.668L212.187 183.47C212.187 182.992 212.526 182.39 212.944 182.145L216.755 179.955L217.296 180.262Z" fill="#525566"/>
<path d="M136.684 0.0117188L140.193 20.5337L136.593 18.4536L136.684 0.0117188Z" fill="#4C7891"/>
<path d="M243.47 221.642L243.491 228.206L234.428 233.436L234.409 226.871L243.47 221.642Z" fill="#FED57A"/>
<path d="M239.57 231.553L239.577 233.752L234.436 236.718L234.432 234.517L239.57 231.553ZM296.976 198.426L296.982 200.626L291.842 203.591L291.838 201.392L296.976 198.426Z" fill="#E4E8F4"/>
<path d="M296.953 190.777L296.974 197.344L287.911 202.571L287.894 196.007L296.953 190.777Z" fill="#FED57A"/>
<path d="M285.461 197.411L285.488 207.258L245.961 230.068L245.934 220.221L285.461 197.411Z" fill="#BAC1CE"/>
<path d="M272.021 143.657L263.724 194.473L243.454 206.22L251.695 155.403L272.021 143.657ZM282.935 137.313L274.693 188.185L268.458 191.805L276.643 140.93L282.935 137.313Z" fill="white"/>
<path d="M88.3375 97.8797C89.3635 99.5853 89.8734 101.378 89.8671 103.325C89.863 105.239 89.3739 106.487 88.3417 107.04C87.3386 107.577 85.7944 107.242 83.705 106.038L80.1025 103.958L80.1379 91.5105L83.861 93.6592C85.7986 94.7783 87.2803 96.1907 88.3354 97.8797H88.3375ZM86.9848 104.9C87.682 104.571 88.017 103.685 88.0212 102.294C88.0295 99.4439 86.6102 97.1974 83.7965 95.5729L81.9485 94.5058L81.9235 103.059L83.9526 104.23C85.2845 105 86.2855 105.193 86.9848 104.9ZM99.8752 102.901L99.8711 104.883L94.0876 101.547L94.0793 104.85L99.2551 107.837L99.2509 109.713L94.0731 106.726L94.0648 110.065L100.027 113.505L100.023 115.454L92.2126 110.947L92.2459 98.4995L99.8752 102.901ZM104.204 105.399L104.175 115.864L109.14 118.73L109.134 120.713L102.354 116.798L102.389 104.351L104.204 105.399ZM112.984 110.466L112.949 122.913L111.132 121.865L111.167 109.418L112.984 110.466ZM125.304 117.576L120.911 127.508L118.851 126.318L114.558 111.373L116.587 112.544L119.889 123.785L123.246 116.388L125.304 117.576ZM134.478 122.87L134.472 124.85L128.659 121.497L128.651 124.8L133.858 127.804L133.852 129.682L128.645 126.676L128.636 130.015L134.63 133.474L134.624 135.421L126.813 130.913L126.849 118.466L134.478 122.87ZM143.264 135.881L146.097 142.042L143.766 140.696L141.206 135.038L138.784 133.642L138.771 137.815L136.955 136.767L136.99 124.319L141.017 126.643C142.682 127.602 143.862 128.631 144.555 129.659C145.281 130.741 145.641 131.958 145.637 133.382C145.631 135.435 144.84 136.267 143.264 135.881ZM141.09 133.058C142.12 133.651 142.817 133.879 143.181 133.707C143.577 133.586 143.758 133.099 143.76 132.265C143.762 131.465 143.552 130.789 143.19 130.264C142.796 129.759 142.132 129.201 141.133 128.625L138.803 127.279L138.788 131.731L141.09 133.058ZM156.365 135.5L152.317 140.721L152.305 145.624L150.428 144.542L150.44 139.637L146.436 129.769L148.434 130.922L151.385 138.302L154.367 134.345L156.365 135.5Z" fill="#5B5E71"/>
<path d="M154.217 142.644L173.984 166.933L154.144 168.327L154.167 159.917L77.653 115.762L77.6779 106.859L154.194 151.015L154.217 142.644Z" fill="#5B5E71"/>
<path d="M25.3556 192.478C25.3556 192.478 20.236 194.842 18.2516 199.306L23.2454 201.747L25.3556 192.478Z" fill="#B08B07"/>
<path d="M22.0593 279.374C22.0593 279.374 18.5004 283.272 14.1042 283.834C14.1042 283.834 10.8941 285.093 14.1042 285.86C17.3142 286.627 21.2917 286.279 23.7341 284.884H25.6879V285.855H29.8049V281.605L22.0593 279.374ZM42.5051 288.999C42.5051 288.999 40.4117 299.251 44.3194 299.949C48.2274 300.647 49.3438 295.415 47.1804 288.999H42.5051Z" fill="#3E3E3E"/>
<path d="M19.905 224.833C19.905 224.833 16.9831 246.873 19.905 260.125C22.8272 273.377 21.0129 279.236 21.0129 279.236C21.0129 279.236 25.8103 284.815 29.9012 282.862C29.9012 282.862 32.1078 256.681 28.898 246.219L28.2699 224.833H19.905Z" fill="#7D5133"/>
<path d="M24.4138 225.513C24.2966 225.03 26.2359 254.624 36.1546 266.786C36.1546 266.786 39.6088 285.826 42.33 290.43C42.33 290.43 46.9355 292.208 48.8196 290.43C48.8196 290.43 48.4008 267.204 45.1561 260.508C45.1561 260.508 43.6909 246.594 43.9002 240.108C44.1094 233.621 43.5862 225.864 41.6496 224.564C39.7134 223.264 24.4138 225.513 24.4138 225.513Z" fill="#A06841"/>
<path d="M24.4122 192.983C17.1578 200.48 22.304 212.864 19.22 228.247C25.8757 235.113 43.6813 232.938 43.1989 226.115C42.5931 217.544 48.0515 207.319 46.2858 199.52C45.2594 194.986 41.8429 192.753 37.0878 191.736C33.4478 190.959 27.1245 190.179 24.4122 192.983Z" fill="#FFC701"/>
<path d="M37.7399 187.49C37.4977 188.586 37.7645 190.457 37.9792 191.567C38.1441 192.494 33.0977 195.537 32.1868 195.149C29.0605 193.818 29.5777 192.682 29.5777 192.682C29.8945 191.649 30.0623 188.533 29.8997 187L37.7399 187.49Z" fill="#E3AF8A"/>
<path d="M41.1034 180.716C41.1034 180.716 41.4937 188.914 33.6472 190.35C32.571 190.549 31.4592 190.38 30.4914 189.869C29.5235 189.358 28.756 188.537 28.3129 187.537C27.5521 185.831 26.9463 183.24 27.1212 179.378C27.1212 179.378 28.2963 173.104 34.7296 174.293C41.1629 175.483 41.1034 180.716 41.1034 180.716Z" fill="#ECB68F"/>
<path d="M26.8204 180.203C26.8204 180.203 29.2374 178.818 35.1835 181.28C35.5612 181.437 36.145 182.965 36.4392 182.819C41.272 180.418 38.3642 188.005 38.3642 188.005C38.3642 188.005 40.3929 188.017 41.0087 182.287C41.6248 176.556 39.3868 171.027 31.8671 172.993C25.7074 174.603 26.8204 180.203 26.8204 180.203Z" fill="#484848"/>
<path d="M40.7664 177.195C40.7664 177.195 40.9436 175.634 38.5761 173.47C37.8839 172.837 35.3915 171.962 34.0995 171.536C33.5913 171.368 33.0396 171.385 32.5433 171.586C31.3866 172.053 29.2435 172.965 28.4127 173.626C26.6169 175.054 26.3173 177.486 26.0454 180.987C26.0454 180.987 31.9773 181.522 34.1023 181.369C34.1023 181.369 39.3955 179.989 40.7664 177.195Z" fill="#FFC701"/>
<path d="M26.2906 178.496C26.2906 178.496 33.0941 181.137 33.9873 180.837C34.8804 180.538 30.1771 185.636 28.1724 185.315C26.1673 184.994 25.9338 182.863 22.2359 182.836L26.2906 178.496Z" fill="#B08B07"/>
<path d="M15.29 198.108L1.58651 205.641C1.28701 205.829 1.20031 206.109 1.20294 206.515L1.22921 207.022L15.6972 214.933L30.1311 207.148C30.1311 207.148 30.1468 207.07 30.1468 206.795C30.1468 206.795 30.1337 206.434 30.0575 206.266C29.9734 206.075 29.7948 205.904 29.6792 205.801C29.3718 205.529 29.0644 205.288 28.5416 204.974C21.0462 200.455 16.1176 198.127 16.1176 198.127C15.7997 198.001 15.537 197.957 15.29 198.108Z" fill="#DEA66C"/>
<path d="M1.41871 223.69C2.21738 224.254 3.67548 224.993 5.14934 225.845C8.57521 227.823 12.9048 230.226 15.0591 231.17C15.3508 231.299 15.5242 231.361 15.7264 231.372C15.8762 231.38 16.1232 231.274 16.1232 231.274C16.1232 231.274 15.7212 215.813 15.6976 214.93C15.6739 214.068 15.335 213.782 15.0355 213.574C14.5679 213.255 13.5538 212.756 13.5538 212.756C13.5538 212.756 10.0018 210.874 6.45506 208.89C4.76839 207.946 3.34445 206.98 1.81279 206.184C1.53168 206.041 1.20065 206.221 1.20065 206.557V223.309C1.20065 223.469 1.29261 223.604 1.41871 223.69Z" fill="#B38251"/>
<path d="M29.7506 223.788L16.1522 231.265C15.9341 231.386 15.674 231.218 15.674 230.954L15.6977 214.936C15.6977 214.781 15.653 214.443 15.6083 214.308C15.4849 213.916 15.7528 213.759 15.8737 213.695L29.3617 206.288C29.719 206.091 30.1473 206.369 30.1473 206.797V223.099C30.1473 223.388 29.9949 223.654 29.7506 223.788Z" fill="#966239"/>
<path opacity="0.5" d="M23.6763 210.084C23.6763 210.084 16.2229 214.149 16.1021 214.494C15.9812 214.835 21.9502 211.776 22.6491 211.392C23.4398 210.958 29.6506 207.417 29.6506 207.028C29.6532 206.708 23.6763 210.084 23.6763 210.084Z" fill="#212121"/>
<g opacity="0.5">
<path d="M2.22444 222.764C3.19388 223.285 4.15544 223.823 5.35344 224.475V223.977C4.16069 223.327 3.19651 222.792 2.22444 222.265V222.764Z" fill="#212121"/>
<path d="M4.26651 222.99C4.53974 223.138 4.67635 223.214 4.93382 223.354C4.93645 222.485 4.93645 222.051 4.93907 221.183C4.68161 221.043 4.54762 220.97 4.27702 220.821C4.27176 221.69 4.26914 222.121 4.26651 222.99Z" fill="#212121"/>
<path d="M2.56982 222.06C2.79576 222.183 2.92187 222.253 3.17934 222.393L3.19247 220.23C2.93238 220.087 2.80627 220.02 2.57771 219.891C2.57508 220.76 2.57245 221.194 2.56982 222.06Z" fill="#212121"/>
<path d="M3.83792 220.841C4.46057 221.18 4.7916 221.362 5.34068 221.659C5.06745 221.13 4.9177 220.861 4.6182 220.317C4.31082 220.53 4.15056 220.634 3.83792 220.841Z" fill="#212121"/>
<path d="M2.22443 219.959C2.68944 220.216 3.00208 220.387 3.61684 220.723C3.31209 220.177 3.15971 219.905 2.8786 219.37C2.59223 219.592 2.45825 219.707 2.22443 219.959Z" fill="#212121"/>
</g>
<g opacity="0.5">
<path d="M7.2172 225.158C7.43525 225.279 7.54823 225.343 7.76628 225.463C7.75052 224.432 7.74264 223.917 7.72425 222.886C7.51407 222.768 7.40898 222.71 7.19881 222.595C7.20669 223.62 7.20932 224.133 7.2172 225.158Z" fill="#212121"/>
<path d="M6.4155 224.976C7.21417 225.424 7.83419 225.76 8.60133 226.197C8.59608 225.903 8.38327 225.547 8.09428 225.382C7.6424 225.127 7.38493 224.987 6.9278 224.732C6.63355 224.572 6.4155 224.687 6.4155 224.976Z" fill="#212121"/>
<path d="M7.93664 222.065L8.27292 222.824C8.16784 223.062 8.11266 223.183 8.00232 223.418C8.0969 223.41 8.14419 223.407 8.23877 223.398C8.36488 223.219 8.42793 223.129 8.54878 222.95C8.43844 222.673 8.38064 222.533 8.26504 222.255C8.58556 222.443 8.74319 222.538 9.03481 222.72C9.03481 223.723 8.42005 224.166 7.49527 223.65C6.5705 223.138 5.95836 221.992 5.95836 220.986C6.64669 221.353 7.10907 221.594 7.93664 222.065Z" fill="#212121"/>
</g>
<path d="M25.3264 208.374C25.195 208.27 11.0896 200.412 11.0896 200.412L6.71263 202.824L21.1754 210.778L21.1833 210.786L25.4157 208.475C25.4157 208.475 25.4078 208.452 25.3842 208.424C25.3658 208.408 25.3342 208.382 25.3264 208.374Z" fill="#FFE0B2"/>
<path d="M25.3953 208.442C22.9993 209.7 21.1761 210.778 21.1761 210.778C21.2365 210.843 21.2391 210.927 21.2391 210.969C21.2312 211.294 21.226 211.551 21.2181 211.874C21.1813 213.541 21.1603 215.21 21.1077 216.877C22.3269 216.363 24.1086 215.33 25.5293 214.714C25.5293 214.714 25.4794 209.63 25.461 208.775C25.4558 208.473 25.3953 208.442 25.3953 208.442Z" fill="#BF9F85"/>
<path d="M29.5996 217.238L27.0215 218.747V223.542L29.5996 222.034V217.238Z" fill="#BF9F85"/>
<path d="M20.2988 214.516L16.6638 216.475V223.043L20.2988 221.032V214.516Z" fill="#BF9F85"/>
<path d="M37.3711 203.547C37.3711 203.547 32.2409 212.452 28.6512 214.846C25.0612 217.241 19.7197 218.285 19.7197 218.285C19.7197 218.285 21.271 222.195 23.5602 222.181C25.8494 222.168 34.7308 218.108 35.6597 217.397C36.5889 216.686 42.8441 212.985 43.7772 206.201L37.3711 203.547Z" fill="#ECB68F"/>
<path d="M19.9015 217.086C19.0304 216.78 18.1329 216.78 16.2314 216.124C15.5959 215.903 14.5712 217.029 16.2594 217.868C16.5916 218.035 16.9319 217.977 17.3441 218.293C17.6106 218.499 17.9805 218.619 17.8648 218.763C18.8391 218.487 19.5021 217.829 19.9015 217.086Z" fill="#ECB68F"/>
<path d="M25.149 221.431C24.8294 222.458 24.0846 221.657 22.019 223.398C21.1044 224.165 17.2087 224.826 16.2979 224.429C15.7938 224.442 15.3267 224.126 15.1648 223.64C14.7717 223.498 14.4924 223.161 14.4192 222.781C14.1165 222.57 13.93 222.233 13.9152 221.834C12.9202 221.332 13.0732 219.839 14.2628 219.61L15.4885 219.428C15.8001 219.318 17.6679 219.018 17.866 218.76C18.8372 218.489 19.5019 217.828 19.9025 217.087C20.2135 217.196 20.5154 217.338 20.8602 217.567C21.4103 217.931 22.5142 217.882 23.1309 217.468C23.1311 217.469 25.7102 218.671 25.149 221.431Z" fill="#ECB68F"/>
<path d="M35.7719 204.836C37.3906 207.626 39.8794 208.518 43.4154 209.219C43.4154 209.219 49.1937 201.819 44.78 197.448C42.174 194.867 37.9701 196.571 35.7719 204.836Z" fill="#B08B07"/>
<path d="M2.88526 214.963C2.90156 215.129 2.85152 215.294 2.74608 215.423C2.64064 215.552 2.48839 215.634 2.32261 215.651L1.11183 215.773C0.945984 215.789 0.78046 215.739 0.651412 215.634C0.522365 215.528 0.440284 215.376 0.423098 215.21C0.406952 215.045 0.457048 214.879 0.562457 214.75C0.667866 214.621 0.820028 214.539 0.985744 214.522L2.19681 214.4C2.36264 214.384 2.52809 214.434 2.65706 214.54C2.78604 214.645 2.86807 214.797 2.88526 214.963ZM3.04994 213.867C2.95978 214.067 2.79399 214.223 2.5888 214.302C2.38362 214.38 2.15572 214.374 1.95494 214.285L0.489997 213.631C0.289686 213.541 0.133214 213.375 0.0547831 213.17C-0.0236482 212.965 -0.0176609 212.737 0.071439 212.536C0.161596 212.336 0.327389 212.18 0.532574 212.101C0.73776 212.023 0.96565 212.029 1.16643 212.118L2.63109 212.772C2.83146 212.862 2.98799 213.028 3.06648 213.233C3.14497 213.438 3.13902 213.666 3.04994 213.867Z" fill="#ECB68F"/>
<path d="M2.94777 214.185C2.9299 214.383 2.8344 214.565 2.68214 214.693C2.52989 214.821 2.33326 214.883 2.13525 214.866L0.689169 214.74C0.491245 214.722 0.308449 214.626 0.180731 214.474C0.0530128 214.322 -0.00924058 214.125 0.00758417 213.927C0.025459 213.73 0.120961 213.547 0.273215 213.419C0.42547 213.292 0.622097 213.229 0.820113 213.246L2.26619 213.373C2.46411 213.391 2.64691 213.486 2.77463 213.638C2.90235 213.79 2.9646 213.987 2.94777 214.185ZM3.39177 212.958C3.25839 213.132 3.06137 213.247 2.84374 213.277C2.62611 213.306 2.40553 213.249 2.23016 213.117L0.952483 212.147C0.77802 212.013 0.663411 211.816 0.633682 211.599C0.603953 211.381 0.661517 211.161 0.793807 210.986C0.927137 210.811 1.12413 210.697 1.34173 210.667C1.55934 210.637 1.77987 210.695 1.95513 210.827L3.23281 211.797C3.40745 211.93 3.52221 212.127 3.552 212.345C3.58179 212.562 3.52418 212.783 3.39177 212.958Z" fill="#ECB68F"/>
</svg>
