<svg width="50" height="51" viewBox="0 0 50 51" fill="none" xmlns="http://www.w3.org/2000/svg">
<path d="M24.9999 0.0117188C38.8078 0.0117188 50 11.2055 50 25.0118C50 38.8197 38.8078 50.0117 24.9999 50.0117C11.192 50.0117 0 38.8195 0 25.0118C0 11.2055 11.1922 0.0117188 24.9999 0.0117188Z" fill="#916834"/>
<path d="M25.106 12.0117L14 16.0506V25.0279C14 35.1714 24.7774 37.9312 24.8857 37.959L25.106 38.0117L25.3262 37.959C25.4345 37.9312 36.2119 35.1714 36.2119 25.0279V16.0506L25.106 12.0117ZM23.255 30.0386L18.8987 25.6822L20.2073 24.3736L23.255 27.4213L30.0046 20.6716L31.3133 21.9803L23.255 30.0386Z" fill="white"/>
</svg>
