<svg width="50" height="50" viewBox="0 0 50 50" fill="none" xmlns="http://www.w3.org/2000/svg">
<rect x="1" y="1" width="48" height="48" stroke="#433601" stroke-width="2"/>
<path d="M17.2418 38.1593C14.545 40.1542 12.2778 40.6489 10.6931 40.6489C10.4475 40.6488 10.2021 40.6364 9.95768 40.6117L10.2618 41.0222C10.3563 41.1502 10.4769 41.2566 10.6158 41.3342C10.7546 41.4118 10.9084 41.4589 11.0669 41.4722C13.8026 41.6659 16.5134 40.8422 18.6791 39.1591L26.1565 33.6294C26.2333 32.144 26.5151 30.6765 26.9941 29.2684C24.8779 30.5358 23.0064 32.1729 21.4687 34.102C20.239 35.6296 18.8185 36.9932 17.2418 38.1593Z" fill="#433601"/>
<path d="M32.1259 9.21551C31.9273 9.07528 31.6902 9 31.4471 9C31.204 9 30.9668 9.07528 30.7682 9.21551C30.6121 9.33219 30.4897 9.48816 30.4134 9.66756C30.3371 9.84696 30.3098 10.0434 30.3341 10.2368C30.4937 11.6883 30.4896 14.3283 28.6705 15.6753C27.6287 16.4399 26.4081 16.9241 25.1256 17.0815L21.2232 28.264C21.0169 28.8541 20.6911 29.3953 20.2661 29.8536C19.8411 30.312 19.3261 30.6777 18.7534 30.9278L13.5292 33.1991L9.97045 36.2427C9.54779 36.6094 9.24398 37.0938 9.09779 37.6341C8.9516 38.1743 8.96966 38.7458 9.14968 39.2758C10.0645 39.5457 12.8147 39.9893 16.5511 37.2262C18.0555 36.1108 19.4112 34.8076 20.5853 33.3484C22.044 31.6356 23.5572 29.8647 27.6988 27.4988C29.2827 24.1115 31.9771 21.3679 35.3347 19.7233C35.3533 19.3044 35.465 18.8948 35.6616 18.5245C35.8582 18.1541 36.1347 17.8322 36.4712 17.582L38.3502 16.1932C36.7632 13.4741 34.6467 11.1013 32.1259 9.21551Z" fill="#433601"/>
<path d="M18.592 27.9963L15.4198 28.9027L14.3012 31.5973L18.2901 29.863C18.7162 29.6772 19.0992 29.4054 19.4152 29.0646C19.7313 28.7238 19.9735 28.3214 20.1267 27.8825L23.8683 17.157C23.3934 17.1534 22.9195 17.1146 22.4503 17.0409C22.3072 17.0167 22.1624 17.0041 22.0173 17.0032C21.4862 17.0008 20.9684 17.1689 20.54 17.4827C20.1812 17.7485 19.9017 18.107 19.7314 18.5197L19.4818 19.1212L20.6973 18.7729C20.8454 18.7307 21.0042 18.7492 21.1387 18.8242C21.2731 18.8991 21.3724 19.0245 21.4145 19.1726C21.4566 19.3207 21.4381 19.4795 21.3632 19.6141C21.2882 19.7486 21.1629 19.8478 21.0148 19.8899L18.9147 20.4897L18.3192 21.9244L19.8905 21.4756C19.9638 21.4546 20.0405 21.4484 20.1163 21.4571C20.192 21.4658 20.2653 21.4894 20.332 21.5265C20.3986 21.5635 20.4573 21.6134 20.5047 21.6731C20.5521 21.7329 20.5873 21.8014 20.6082 21.8747C20.6291 21.9481 20.6354 22.0248 20.6267 22.1006C20.6179 22.1764 20.5944 22.2497 20.5573 22.3164C20.5203 22.383 20.4704 22.4417 20.4107 22.4891C20.351 22.5365 20.2825 22.5717 20.2091 22.5927L17.7503 23.2946L17.1536 24.7281L19.0813 24.1783C19.2294 24.136 19.3882 24.1543 19.5228 24.2292C19.6574 24.304 19.7568 24.4293 19.799 24.5774C19.8413 24.7256 19.823 24.8844 19.7482 25.0191C19.6733 25.1537 19.5481 25.2531 19.4 25.2954L16.5848 26.0983L15.9892 27.5324L18.2762 26.8798C18.4235 26.8398 18.5807 26.8595 18.7136 26.9345C18.8465 27.0095 18.9446 27.1339 18.9865 27.2808C19.0284 27.4276 19.0108 27.585 18.9375 27.7189C18.8642 27.8529 18.7411 27.9525 18.5949 27.9963H18.592ZM19.7744 13.2321C19.6562 13.2401 19.5452 13.2916 19.4628 13.3766C19.3803 13.4616 19.3323 13.5742 19.328 13.6926L19.0378 17.3968C19.2615 17.072 19.5359 16.7853 19.8504 16.5474C20.4782 16.0844 21.2384 15.8361 22.0184 15.8391C22.2254 15.8397 22.432 15.8574 22.636 15.8919C22.9551 15.941 23.2765 15.9727 23.599 15.9871C23.4089 15.3749 23.1119 14.8011 22.7219 14.2923C21.9958 13.3134 20.7176 13.1799 19.7744 13.2321ZM41.1921 19.8789C40.1944 19.2288 39.3979 18.3131 38.8923 17.2348L37.1614 18.5156C36.8613 18.7384 36.6441 19.055 36.5442 19.4152C36.4443 19.7754 36.4675 20.1586 36.61 20.5042L38.3142 24.6312C39.9319 23.3997 41.1068 21.9337 41.4649 20.683C41.5125 20.5375 41.5117 20.3805 41.4625 20.2355C41.4133 20.0905 41.3184 19.9654 41.1921 19.8789ZM35.5315 20.9281C33.299 22.062 31.3842 23.7347 29.9603 25.7948C28.5364 27.8549 27.6482 30.2374 27.376 32.7271L37.3547 25.347L35.5367 20.9461C35.5344 20.9402 35.5338 20.9339 35.5315 20.9281ZM32.2902 27.6544C32.257 27.6596 32.2234 27.6623 32.1898 27.6625C32.0532 27.6625 31.9209 27.6143 31.8163 27.5263C31.7118 27.4384 31.6415 27.3164 31.618 27.1818L31.4009 25.9398C31.3878 25.8647 31.3896 25.7877 31.4063 25.7133C31.4229 25.6388 31.454 25.5684 31.4979 25.506C31.5417 25.4436 31.5974 25.3904 31.6618 25.3496C31.7262 25.3087 31.798 25.2809 31.8731 25.2678C31.9483 25.2547 32.0252 25.2565 32.0997 25.2731C32.1741 25.2898 32.2445 25.3209 32.3069 25.3648C32.3693 25.4086 32.4224 25.4643 32.4633 25.5287C32.5041 25.5931 32.5319 25.665 32.545 25.7401L32.7621 26.982C32.7753 27.0572 32.7736 27.1342 32.757 27.2086C32.7404 27.2831 32.7093 27.3536 32.6655 27.416C32.6216 27.4785 32.5659 27.5317 32.5015 27.5725C32.4372 27.6134 32.3653 27.6412 32.2902 27.6544ZM34.554 25.9776C34.5208 25.9833 34.4872 25.9862 34.4536 25.9863C34.317 25.9861 34.1848 25.9378 34.0803 25.8497C33.9758 25.7617 33.9058 25.6396 33.8824 25.505L33.6682 24.2636C33.644 24.113 33.6802 23.9588 33.7687 23.8346C33.8573 23.7103 33.9912 23.626 34.1415 23.5997C34.2918 23.5735 34.4463 23.6075 34.5718 23.6943C34.6972 23.7812 34.7834 23.914 34.8117 24.0639L35.0282 25.3064C35.0545 25.458 35.0196 25.6138 34.9311 25.7397C34.8426 25.8655 34.7078 25.9511 34.5563 25.9776H34.554Z" fill="#433601"/>
</svg>
