<svg width="50" height="50" viewBox="0 0 50 50" fill="none" xmlns="http://www.w3.org/2000/svg">
<rect x="1" y="1" width="48" height="48" stroke="#433601" stroke-width="2"/>
<path d="M29.9963 30.6021H9.41291C9.12718 30.6028 8.85275 30.4826 8.64939 30.2675C8.44603 30.0525 8.33023 29.76 8.32721 29.4539C8.32517 29.2513 8.37268 29.0517 8.465 28.8748L18.7567 9.1432C18.827 9.00827 18.9217 8.88974 19.0353 8.79457C19.149 8.6994 19.2792 8.62949 19.4184 8.58897C19.5576 8.54844 19.7029 8.5381 19.8459 8.55855C19.9888 8.57901 20.1265 8.62985 20.2509 8.70809C20.4172 8.81264 20.5544 8.96285 20.6484 9.1432L30.9401 28.8748C31.0322 29.0514 31.0797 29.2506 31.0778 29.4528C31.076 29.6551 31.0248 29.8533 30.9295 30.0278C30.8341 30.2024 30.6978 30.3472 30.5341 30.4479C30.3705 30.5486 30.185 30.6018 29.9963 30.6021Z" fill="#433601"/>
<path d="M29.9963 17.8345C29.2554 17.8344 28.5165 17.9151 27.791 18.0754L32.8332 27.7432C33.1096 28.2731 33.2518 28.8712 33.2458 29.4782C33.2398 30.0852 33.0858 30.68 32.7991 31.2035C32.5123 31.7271 32.1028 32.1613 31.6112 32.4629C31.1196 32.7646 30.5628 32.9234 29.9963 32.9234H19.6592C20.2598 34.9698 21.378 36.7977 22.8896 38.2044C24.4012 39.6111 26.2471 40.5414 28.2223 40.892C30.1975 41.2429 32.2249 41.0004 34.0793 40.1915C35.9336 39.3825 37.5425 38.0388 38.7272 36.3095C39.9119 34.5802 40.6261 32.5329 40.7906 30.395C40.955 28.2571 40.5632 26.1122 39.6586 24.1984C38.7542 22.2847 37.3725 20.6769 35.6669 19.5535C33.9612 18.4301 31.9984 17.8351 29.9963 17.8345Z" fill="#433601"/>
</svg>
