<svg width="39" height="38" viewBox="0 0 39 38" fill="none" xmlns="http://www.w3.org/2000/svg">
<rect x="0.958496" width="38" height="38" rx="19" fill="#916834" fill-opacity="0.9"/>
<path d="M28.2254 11.2451C28.6091 11.3497 28.8882 11.6637 28.8882 12.0474C28.8882 21.0119 21.6328 28.2324 12.7031 28.2324C12.2845 28.2324 11.9706 27.9883 11.866 27.6046L11.0288 23.9769C10.959 23.5932 11.1335 23.1746 11.5172 23.0002L15.4239 21.3259C15.7727 21.1863 16.1564 21.291 16.4006 21.57L18.1447 23.6978C20.8654 22.4072 23.063 20.1748 24.3187 17.5238L22.1909 15.7797C21.9119 15.5355 21.8072 15.1518 21.9467 14.803L23.6211 10.8963C23.7955 10.5126 24.2141 10.3033 24.5977 10.4079L28.2254 11.2451Z" fill="white"/>
</svg>
