<svg width="37" height="36" viewBox="0 0 37 36" fill="none" xmlns="http://www.w3.org/2000/svg">
<rect x="0.875" width="36" height="36" rx="18" fill="#916834" fill-opacity="0.9"/>
<path d="M24.875 15.5147C24.8194 13.923 24.2361 12.5923 23.125 11.5225C21.9861 10.4788 20.5694 9.93085 18.875 9.87867C17.1806 9.93085 15.7639 10.4788 14.625 11.5225C13.5139 12.5923 12.9306 13.923 12.875 15.5147C12.875 16.0104 13.0833 16.7541 13.5 17.7456C13.9722 18.7371 14.5694 19.7808 15.2917 20.8767C15.9028 21.79 16.5139 22.6641 17.125 23.499C17.7639 24.334 18.3472 25.0646 18.875 25.6908C19.4028 25.0646 19.9861 24.334 20.625 23.499C21.2639 22.6641 21.875 21.79 22.4583 20.8767C23.1806 19.7808 23.7778 18.7371 24.25 17.7456C24.6667 16.7541 24.875 16.0104 24.875 15.5147ZM26.875 15.5147C26.8194 16.6888 26.375 18.0457 25.5417 19.5851C24.6806 21.1246 23.7083 22.6119 22.625 24.047C21.5417 25.5082 20.625 26.6693 19.875 27.5303C19.5972 27.8434 19.2639 28 18.875 28C18.4861 28 18.1528 27.8434 17.875 27.5303C17.125 26.6693 16.2083 25.5082 15.125 24.047C14.0417 22.6119 13.0694 21.1246 12.2083 19.5851C11.375 18.0457 10.9306 16.6888 10.875 15.5147C10.9306 13.3751 11.7083 11.6008 13.2083 10.1918C14.7083 8.78278 16.5972 8.05219 18.875 8C21.1528 8.05219 23.0417 8.78278 24.5417 10.1918C26.0417 11.6008 26.8194 13.3751 26.875 15.5147ZM20.2083 15.5147C20.2083 15.1494 20.0833 14.8493 19.8333 14.6145C19.5833 14.3796 19.2639 14.2622 18.875 14.2622C18.4861 14.2622 18.1667 14.3796 17.9167 14.6145C17.6667 14.8493 17.5417 15.1494 17.5417 15.5147C17.5417 15.88 17.6667 16.18 17.9167 16.4149C18.1667 16.6497 18.4861 16.7671 18.875 16.7671C19.2639 16.7671 19.5833 16.6497 19.8333 16.4149C20.0833 16.18 20.2083 15.88 20.2083 15.5147ZM15.5417 15.5147C15.5694 14.3405 16.125 13.4403 17.2083 12.8141C18.3194 12.2401 19.4306 12.2401 20.5417 12.8141C21.625 13.4403 22.1806 14.3405 22.2083 15.5147C22.1806 16.6888 21.625 17.589 20.5417 18.2153C19.4306 18.7893 18.3194 18.7893 17.2083 18.2153C16.125 17.589 15.5694 16.6888 15.5417 15.5147Z" fill="white"/>
</svg>
