<svg width="100" height="100" viewBox="0 0 100 100" fill="none" xmlns="http://www.w3.org/2000/svg">
<path d="M31.0734 44.1609L38.4628 40.9327L49.6417 38.4218L70.8626 33.7587L79.5783 36.2696L89.2413 43.0848L97.1992 50.0795L99.2834 55.6393L98.1465 65.5035L96.2518 80.7483L93.2203 84.694L75.2204 92.0473L51.7259 98.6832L47.368 94.3788L45.6628 75.3678L31.8313 54.5632L31.0734 44.1609Z" fill="#FFC701"/>
<path d="M52.1227 53.7316C52.0414 53.7508 51.8178 53.9047 51.6348 54.0491C51.2485 54.3762 50.7505 54.4147 49.9576 54.1838C49.3172 54.001 49.1139 54.1068 48.9614 54.6745C48.8293 55.1652 48.6768 55.2711 47.9856 55.3577C47.0809 55.4635 46.9792 55.6175 47.3757 56.2525C47.6298 56.6855 47.579 56.8491 47.0606 57.1666C46.5523 57.4745 46.6133 57.8016 47.2435 58.1673C47.8026 58.4944 48.0161 58.8408 47.8534 59.1391C47.5383 59.6875 47.8636 59.9858 49.0122 60.1975C49.5103 60.2937 49.6323 60.3611 49.7746 60.6016C49.8661 60.7652 50.0287 61.025 50.1406 61.1982L50.354 61.4965H51.3807H52.4175L53.0274 61.9102C53.3629 62.1315 53.7085 62.3143 53.7898 62.3143C53.8711 62.3143 54.1557 62.1604 54.42 61.9583C54.9689 61.5734 55.1621 61.5446 56.0363 61.7563C56.8393 61.9487 57.0426 61.8717 57.1849 61.3233C57.3374 60.7748 57.4594 60.6786 58.2421 60.6016C58.852 60.5343 58.8825 60.5246 58.913 60.2552C58.9333 60.1013 58.8723 59.8319 58.7707 59.6587C58.547 59.2738 58.6385 59.0429 59.1366 58.735C59.6449 58.4078 59.594 58.1961 58.913 57.7728C58.2624 57.3686 58.1608 57.1666 58.3234 56.6855C58.4962 56.1851 58.3437 56.0023 57.6423 55.8772C56.636 55.6944 56.5649 55.6559 56.2599 55.1171C55.8635 54.4243 55.6093 54.2704 55.0299 54.4147C54.1557 54.6168 53.8406 54.559 53.1392 54.0395C52.7631 53.7604 52.3667 53.645 52.1227 53.7316ZM54.6843 55.3961C55.1824 55.5212 55.2536 55.781 55.0198 56.57C54.9283 56.8972 54.786 57.4649 54.7047 57.8401C54.4607 59.014 54.2371 59.7068 54.0541 59.8607C53.9118 59.9858 53.8 59.9858 53.0986 59.8607C52.2549 59.7068 51.34 59.4855 50.8826 59.3123C50.5573 59.1968 50.4963 58.8601 50.7505 58.658C50.8724 58.5618 51.0961 58.5714 51.8686 58.7061C52.6412 58.8504 52.8546 58.8601 52.9766 58.7542C53.1494 58.6291 53.3425 58.0518 53.5967 56.8779C53.7796 56.0697 54.0846 55.2903 54.2269 55.2903C54.2676 55.2903 54.481 55.3384 54.6843 55.3961Z" fill="#513109"/>
<path d="M79.433 66.4391C78.093 66.8743 77.8959 67.0733 77.5675 68.4039C77.4624 68.8516 77.2784 69.5232 77.1733 69.8962C76.6347 71.7119 75.7413 75.0198 75.5705 75.7411C75.4786 76.1888 75.2946 76.7857 75.1895 77.0593C75.0713 77.3453 74.9136 77.9049 74.8348 78.3029C74.7428 78.6884 74.6115 79.0366 74.5326 79.0615C74.3619 79.1112 73.9546 77.8427 73.9546 77.2956C73.9546 77.109 73.8626 76.4624 73.7575 75.8779C73.5342 74.597 73.3897 73.6767 73.0349 71.202C72.7328 69.1501 72.6277 68.9511 71.9182 69.1003C71.3927 69.1998 70.3286 69.5107 69.698 69.7594C69.2907 69.9087 69.1199 70.0828 68.8834 70.5802C68.7126 70.916 68.5418 71.4507 68.4893 71.7616C68.4499 72.0725 68.2922 72.6819 68.1477 73.1171C67.8587 73.9752 67.793 74.199 66.7551 78.0417C66.0457 80.6284 65.6778 81.7103 65.4676 81.7476C65.3362 81.7725 65.1129 80.6035 64.8896 78.85C64.8239 78.2656 64.6662 77.2085 64.5611 76.4872C64.456 75.766 64.2984 74.7089 64.2327 74.1244C64.1538 73.5399 64.0619 72.7067 64.0093 72.259C63.8648 71.1771 63.6546 71.1025 62.0518 71.5751C60.3045 72.0849 60.16 72.172 60.16 72.7316C60.16 72.9803 60.3439 74.0001 60.5541 74.9949C60.7774 75.9898 61.0139 77.0717 61.0928 77.4199C61.1584 77.7557 61.2898 78.4024 61.3949 78.85C61.9336 81.2253 62.0387 81.6979 62.1306 82.2077C62.1832 82.5186 62.2883 83.0161 62.3671 83.3269C62.7481 84.8566 62.9189 85.6524 62.9189 85.8763C62.9189 86.5851 63.6283 86.8712 64.5217 86.5105C64.7582 86.4235 65.3362 86.2245 65.8092 86.0877C66.3478 85.9385 66.742 85.7395 66.8996 85.5405C67.031 85.3789 67.4251 84.1601 67.7799 82.8544C68.1346 81.5362 68.4893 80.3672 68.555 80.2429C68.6207 80.1309 68.7126 79.7827 68.7652 79.4718C68.8046 79.1609 68.9885 78.4894 69.1593 77.9795C69.3301 77.4697 69.5009 76.8479 69.5534 76.6116C69.7111 75.7784 70.1578 74.6467 70.3548 74.5721C70.5913 74.4851 70.6045 74.5224 70.7884 75.8033C71.1037 77.8925 71.8 82.3694 71.9576 83.3145C72.0759 84.0234 72.3255 84.1726 73.0612 83.9736C75.715 83.2275 75.6494 83.2648 76.0566 82.4067C76.2405 81.9839 76.569 81.1382 76.7661 80.5289C76.9763 79.9071 77.3047 78.9371 77.5018 78.3526C77.8565 77.308 78.7499 74.6467 79.4987 72.3834C79.7089 71.7367 79.9717 70.9782 80.0768 70.6921C80.8388 68.6402 81.5219 66.2898 81.4037 66.1779C81.1803 65.9665 80.6811 66.0287 79.433 66.4391Z" fill="#513109"/>
<path d="M88.5375 67.5952C86.6588 67.9807 84.5305 69.3487 83.4663 70.8534C82.6781 71.9602 82.389 72.582 82.0212 73.9997C81.7059 75.1686 81.6796 75.4671 81.7453 76.835C81.811 78.1906 81.8635 78.4268 82.192 78.9864C83.3087 80.9513 85.726 80.9762 89.825 79.0611C90.298 78.8497 90.9154 78.4641 91.1913 78.2154C91.6643 77.7926 91.6906 77.7304 91.6906 76.9967C91.6906 76.4371 91.638 76.2133 91.5066 76.1635C91.4015 76.1262 90.7052 76.3749 89.9564 76.7231C89.2075 77.0713 88.4981 77.3574 88.3798 77.3574C88.2747 77.3574 87.9463 77.4444 87.6704 77.5563C87.3288 77.6931 86.9216 77.7429 86.3829 77.7056C85.7129 77.6558 85.5552 77.5936 85.2399 77.2579C84.9246 76.9345 84.8589 76.7356 84.8589 76.2506C84.8589 75.5542 84.9772 75.4298 85.8574 75.1935C86.2121 75.094 87.0924 74.8453 87.8149 74.6215C88.5375 74.4101 89.3652 74.1738 89.6542 74.1116C89.9432 74.037 90.2323 73.9375 90.3111 73.8629C90.3768 73.8007 90.5476 73.751 90.7052 73.751C90.8497 73.751 91.2176 73.639 91.5066 73.5147L92.0584 73.2784L92.2818 72.0721C92.6496 70.1694 92.3869 68.6771 91.5855 67.9932C90.9286 67.4336 89.9695 67.3092 88.5375 67.5952ZM89.0105 69.9953C89.5622 70.3311 89.8119 71.7985 89.3783 72.097C89.0761 72.3084 85.7917 73.3033 85.4633 73.2784C85.0691 73.2535 84.9903 73.0919 85.1348 72.5944C85.2925 72.0473 85.7523 71.3508 86.2647 70.8534C87.0004 70.1694 88.5244 69.6844 89.0105 69.9953Z" fill="#513109"/>
<path fill-rule="evenodd" clip-rule="evenodd" d="M65.2895 33.9413C65.0375 33.9797 64.7896 34.0203 64.5223 34.0641C64.2336 34.1114 63.9221 34.1624 63.5584 34.2184C62.9892 34.305 61.932 34.507 60.7122 34.7476C60.265 34.8438 59.6957 34.9497 59.4416 34.9881C59.1875 35.0266 58.7809 35.1036 58.5267 35.1613C58.3893 35.1926 58.1746 35.2379 57.9436 35.2866C57.7475 35.3279 57.5398 35.3717 57.3578 35.4115C56.9297 35.4962 56.6264 35.5562 56.3235 35.6179C55.5256 35.7802 54.7302 35.9544 51.6654 36.6239C50.2219 36.9318 48.1584 37.4225 47.5993 37.5861C47.4639 37.6341 47.0888 37.7223 46.7088 37.8115C46.6325 37.8294 46.556 37.8474 46.4812 37.8651C46.0339 37.9709 45.3935 38.1249 45.0581 38.2115C44.9501 38.2394 44.8253 38.2722 44.6962 38.3062C44.4241 38.3778 44.1329 38.4545 43.9399 38.5002C43.1572 38.7022 39.5487 39.7606 38.8574 39.9916C38.522 40.107 38.1154 40.2321 37.9426 40.2802C35.5335 40.9345 31.5488 42.5991 30.7051 43.3015C29.8207 44.0424 29.3023 45.4664 28.4993 49.4692C28.0825 51.5283 27.9605 52.3654 27.8386 53.8664C27.7267 55.2712 27.5743 55.5887 26.9339 55.6946C26.4561 55.7716 25.7954 55.5984 25.4599 55.3097C25.0432 54.9537 24.8399 54.4052 24.7992 53.4912C24.7281 51.9805 25.0127 50.1908 25.5718 48.6513C26.0089 47.4774 27.2287 44.7352 27.8589 43.5517C28.3875 42.5414 28.3875 42.5414 28.3875 41.6273C28.3875 40.617 28.2045 40.0974 27.6556 39.5778C26.8119 38.7984 23.366 35.9407 22.4409 35.2768C22.1868 35.094 21.3533 34.3723 20.5807 33.6699C19.2999 32.4961 18.2936 31.7071 15.4372 29.6383C13.0485 27.9064 11.605 26.7614 10.6089 25.8088C9.80004 25.0432 8.96233 24.3439 8.1269 23.6466C6.89663 22.6197 5.67131 21.5969 4.55051 20.3724C3.80846 19.5738 2.90378 18.9195 2.52767 18.9195C2.15157 18.9195 2.1414 19.2274 2.47685 20.8439C3.22443 24.4387 4.2077 27.8603 6.46153 30.8988C6.63434 31.1394 6.78681 31.4088 6.78681 31.4954C6.78681 31.7839 3.46637 30.707 2.97493 30.4658C2.42602 30.206 1.67381 29.8885 1.2977 29.773C0.636978 29.5806 0.596318 29.571 0.332028 29.7346C0.189718 29.8212 0.0372423 29.9655 0.00674728 30.0425C-0.0644078 30.2349 0.443843 31.2644 0.748793 31.5339C1.02739 31.7773 1.2655 32.1866 1.49947 32.5887C1.67027 32.8823 1.83887 33.1721 2.01942 33.3909C3.60568 35.4555 5.95162 38.4156 8.12859 39.8087C9.10444 40.4438 9.13493 40.819 8.20991 40.7132L8.12982 40.7041C7.82135 40.6689 7.14333 40.5917 6.53269 40.5304C6.21151 40.4935 5.70807 40.35 5.13257 40.1859C3.73044 39.7861 1.90056 39.2643 1.23671 39.8665C1.06391 40.03 1.05374 40.3187 1.21638 40.5977C1.69414 41.4733 3.60516 43.3208 4.89612 44.1771C6.99509 45.5512 9.48112 46.6173 11.8418 47.6297C12.0383 47.714 12.2339 47.7979 12.4284 47.8816C12.7638 48.0355 13.1806 48.1895 13.3432 48.2279C13.6584 48.2953 14.004 48.5262 14.004 48.6609C14.004 48.709 13.4652 48.8919 12.8147 49.0843C12.1539 49.2671 11.2696 49.5365 10.8528 49.6712C10.4361 49.806 9.63302 49.9984 9.08411 50.0946C8.5352 50.2004 8.02694 50.3255 7.96595 50.3833C7.82364 50.518 8.12859 50.7681 8.92147 51.1723C10.5234 51.981 11.7971 52.345 13.5465 52.6829C14.0548 52.7791 14.7867 52.8946 15.1729 52.9235C16.5554 53.0485 16.9518 53.1736 17.1958 53.5489C17.4093 53.876 18.1716 55.5021 18.1716 55.6272C18.1716 55.7523 18.7409 56.8011 19.0662 57.2918C19.4524 57.8499 20.3571 58.5234 21.2313 58.8891C21.6989 59.0815 22.0242 59.12 23.305 59.1777C24.1487 59.2162 25.338 59.2451 25.9479 59.2451C26.7204 59.2451 27.1372 59.2932 27.2795 59.3798C27.4926 59.5143 27.4929 59.5433 27.5536 64.7144L27.5539 64.7392C27.6149 70.9454 27.7572 72.8313 28.296 74.4863C28.4891 75.0636 29.404 76.8629 29.9122 77.6615C30.1155 77.979 30.4815 78.5852 30.7254 79.0086C30.9694 79.4416 31.2947 79.9996 31.4573 80.2594C31.5273 80.383 31.6058 80.5167 31.6771 80.6383C31.7613 80.7817 31.8356 80.9082 31.8741 80.9811C31.9452 81.1158 32.3417 81.7508 32.7584 82.3763C32.9017 82.6 33.1345 82.9623 33.4183 83.4038C33.9399 84.2154 34.6336 85.2947 35.259 86.2732C38.2882 91.0072 39.752 92.9508 42.5982 96.0587C43.4825 97.0209 45.6578 98.8587 46.6133 99.4552C47.2842 99.869 47.4164 99.9171 48.1584 99.9748C49.2054 100.061 49.9983 99.946 52.8852 99.2917C55.2638 98.7528 55.5382 98.6758 57.1545 98.1948C57.4614 98.1018 57.9054 97.9738 58.3388 97.8488C58.6232 97.7668 58.9031 97.6861 59.1366 97.6174C59.7262 97.4539 60.6207 97.1941 61.1188 97.0401C61.6271 96.8862 62.4911 96.6264 63.0502 96.4628C63.6092 96.3089 64.2496 96.1068 64.4733 96.0298C64.7071 95.9528 64.951 95.8951 65.0222 95.8951C65.0933 95.8951 65.2966 95.8374 65.4694 95.7604C65.6524 95.693 66.0895 95.5487 66.4453 95.4525C67.2788 95.2216 75.3295 92.6621 76.6205 92.2099C77.149 92.0271 78.0029 91.7384 78.501 91.5749C79.0092 91.4017 80.0156 91.036 80.7373 90.757C81.4692 90.478 82.5162 90.0835 83.0752 89.8814C83.6343 89.6697 84.7017 89.256 85.4539 88.9481C86.2061 88.6402 86.8566 88.39 86.9075 88.39C86.9481 88.39 87.4157 88.1975 87.9341 87.9666C88.4424 87.7261 89.1031 87.447 89.3776 87.3412C89.9976 87.1103 93.2403 85.5804 94.3381 85.0031C95.1818 84.5604 95.8222 84.0312 96.178 83.4828C96.6456 82.79 97.3164 79.99 97.8654 76.478C98.0382 75.4003 98.211 74.3419 98.2618 74.1206C98.3126 73.8993 98.4041 73.2643 98.4753 72.7062C98.5464 72.1481 98.7599 70.5028 98.953 69.0499C99.8069 62.6994 100 60.2843 100 56.2527C100 53.1736 99.9187 52.5578 99.3494 51.4032C98.9327 50.5468 98.3736 49.8925 96.7065 48.3145C93.3724 45.1682 88.971 41.6369 85.3116 39.1833C85.1638 39.0797 84.9541 38.937 84.7444 38.7943C84.5647 38.672 84.385 38.5497 84.2442 38.452C83.9393 38.2404 83.5225 37.9902 83.3192 37.8843C83.1261 37.7785 82.9025 37.6246 82.8211 37.538C82.75 37.461 82.2722 37.1531 81.764 36.8548C81.2557 36.5661 80.4019 36.0754 79.8733 35.7675C78.6535 35.0747 77.7285 34.5648 76.7323 34.0741C74.6866 33.349 72.7127 33.2631 70.5166 33.4024C70.184 33.2705 69.853 33.0353 69.6973 32.8043C69.4444 32.4321 69.497 31.7822 69.6973 31.1124C70.0249 30.0045 70.7176 28.7944 71.5727 27.8407C72.2337 27.1165 73.9415 25.4799 74.7642 24.8024L74.7654 24.8014C75.4588 24.2214 75.4591 24.2212 75.6928 23.5631C75.9512 22.8353 75.933 22.4101 75.613 21.8834C75.1161 21.0876 73.0035 18.072 72.4099 17.3368C72.247 17.1346 71.7436 16.3832 71.2858 15.6626C70.5291 14.4613 69.9005 13.6134 68.0725 11.3299C66.5443 9.41876 65.6461 8.19307 65.0677 7.23019C64.5961 6.454 64.0836 5.71757 63.5724 4.98314L63.5724 4.98303L63.5723 4.98295C62.8197 3.90159 62.0702 2.82456 61.4585 1.63133C61.0505 0.849936 60.4713 0.127355 60.161 0.0228912C59.8506 -0.0815723 59.7636 0.137456 59.6269 1.39506C59.3244 4.19221 59.2605 6.93003 60.3432 9.74482C60.4243 9.96609 60.4812 10.2025 60.4591 10.2649C60.3853 10.4727 57.9209 8.77478 57.577 8.46453C57.1905 8.12493 56.6511 7.6873 56.3703 7.49966C55.8743 7.17752 55.843 7.15927 55.5831 7.2037C55.4435 7.22655 55.2807 7.28817 55.2359 7.33515C55.128 7.45401 55.284 8.33676 55.4667 8.61554C55.6344 8.86828 55.7262 9.22928 55.8165 9.58402C55.8824 9.84294 55.9474 10.0985 56.0404 10.3062C56.8214 12.234 58 15.0179 59.4401 16.6261C60.083 17.3546 60.0122 17.6334 59.276 17.3003L59.2103 17.2706C58.9638 17.1592 58.4257 16.9159 57.9388 16.7027C57.6832 16.587 57.3045 16.3437 56.8716 16.0657L56.8715 16.0657C55.8167 15.3882 54.4402 14.5041 53.7383 14.7535C53.5539 14.8234 53.4717 15.0284 53.5345 15.2746C53.7048 16.038 54.8091 17.8996 55.6554 18.875C57.036 20.4478 58.8147 21.9062 60.5038 23.2911L60.5049 23.292C60.6452 23.407 60.7848 23.5215 60.9236 23.6356C61.161 23.8396 61.4658 24.0664 61.5902 24.1393C61.833 24.2753 62.059 24.5376 62.0245 24.6347C62.0122 24.6693 61.5208 24.6513 60.9348 24.6092C60.3428 24.5574 59.5442 24.506 59.1658 24.4872C58.7875 24.4685 58.0754 24.384 57.5979 24.3009C57.1178 24.2246 56.6666 24.1736 56.6015 24.1983C56.4496 24.2558 56.6373 24.5207 57.1882 25.032C58.3033 26.0596 59.2612 26.6755 60.6184 27.4048C61.0132 27.6153 61.5876 27.9018 61.899 28.0299C63.0078 28.5039 63.3029 28.7041 63.4082 29.0422C63.5007 29.3372 63.7139 30.7202 63.682 30.8104C63.65 30.9005 63.8514 31.814 63.9943 32.2579C64.1625 32.7446 64.6946 33.4389 65.2895 33.9413ZM75.604 35.7868C75.3498 35.7194 74.7806 35.5943 74.3333 35.5173C73.0627 35.296 69.7692 35.3826 67.2178 35.7098C61.993 36.3737 55.9042 37.6823 55.5281 38.2211C55.1926 38.7118 55.3959 39.1544 56.3514 39.9531C57.3883 40.7998 59.4721 42.7338 65.9167 48.7956C76.3151 58.5625 76.3169 58.5633 76.8946 58.8221L76.9153 58.8313C77.4337 59.0623 77.4947 59.0623 78.1351 58.9564C78.501 58.8891 79.1312 58.7351 79.5175 58.61C79.8101 58.5177 80.3465 58.3572 80.8648 58.2021C81.0487 58.1471 81.2303 58.0927 81.398 58.0423C81.4996 58.0118 81.6038 57.9805 81.7083 57.9492C82.2619 57.7831 82.8224 57.6149 83.0448 57.542C83.7868 57.3111 84.4475 57.5324 84.0104 57.8691C83.7157 58.1001 80.8186 59.4087 79.9038 59.7262C79.7548 59.7791 79.5141 59.8663 79.2374 59.9665C78.91 60.0851 78.5321 60.222 78.196 60.342C76.9153 60.8231 76.1935 61.0636 75.4007 61.2849C75.0957 61.3715 74.4452 61.5544 73.9471 61.6891C71.6599 62.3337 68.5901 62.988 67.8379 62.988C67.4415 62.988 67.167 62.8629 67.167 62.6801C67.167 62.4203 68.0514 61.9681 69.1492 61.6506C69.1905 61.6385 69.2326 61.6263 69.275 61.614C69.6401 61.5078 70.0333 61.3934 70.2063 61.333C70.38 61.2811 70.866 61.1592 71.3243 61.0442L71.477 61.0059C73.6726 60.4863 74.9737 60.0245 75.1567 59.7069C75.3905 59.3124 75.3193 59.0719 74.8009 58.4946C73.6015 57.1475 60.0413 44.4754 56.1888 41.0885C55.2841 40.2898 53.9017 39.4046 53.1393 39.1352C51.889 38.683 50.8013 38.7888 47.2944 39.6837C45.0683 40.2514 43.3402 40.7132 42.9234 40.8479C42.7608 40.896 42.2322 41.05 41.7545 41.1751C37.0582 42.474 33.5411 43.8019 32.5145 44.6678L32.0469 45.0719V45.7455C32.0469 46.342 32.0977 46.496 32.484 47.2369C32.9516 48.1029 34.1409 49.6905 35.1269 50.7585C35.8384 51.5379 40.9718 56.6953 41.6935 57.3592C42.405 58.0231 45.1699 60.8808 45.7798 61.5928C48.4329 64.6622 49.5714 66.5674 49.9271 68.5207C50.1101 69.531 50.1304 71.4265 49.9881 74.6787C49.8357 78.0079 49.551 82.5783 49.3782 84.4931C49.3172 85.0704 49.2257 87.2738 49.1546 89.3907C49.0326 93.4704 49.0529 93.7687 49.49 94.8944C49.9068 95.9336 50.8725 96.8573 51.7365 97.0497C52.3769 97.1844 53.4036 97.1652 53.9931 97.0016C55.9855 96.4436 57.8457 95.9047 60.3564 95.1542L60.5686 95.0915C61.4959 94.8171 62.5333 94.5102 62.9485 94.3941C63.6702 94.1824 65.6727 93.5666 66.5063 93.2972C66.6791 93.2394 67.7464 92.8931 68.8951 92.5274C70.0437 92.1618 71.4363 91.7096 71.9954 91.5171C72.5545 91.3247 73.1745 91.1226 73.3677 91.0649C73.5608 91.0168 73.8657 90.9206 74.0284 90.8436C74.2012 90.7762 74.8111 90.5549 75.4007 90.3625C75.655 90.2753 75.97 90.1684 76.2883 90.0604C76.7078 89.918 77.1331 89.7736 77.4337 89.6697C77.8548 89.524 78.2889 89.3784 78.5199 89.3009C78.5788 89.2811 78.6245 89.2657 78.6535 89.256C78.7958 89.2175 79.0906 89.102 79.3142 89.0058C79.5378 88.9192 80.2697 88.6594 80.9406 88.4381C81.6115 88.2072 83.1261 87.6491 84.2951 87.1969C85.4742 86.735 87.1108 86.1 87.9341 85.7824C91.8578 84.291 93.3114 83.2807 94.3279 81.3371C95.07 79.9419 95.2834 79.4512 95.5579 78.5756C95.8832 77.5364 96.2999 75.6601 96.4931 74.2938C96.5583 73.8228 96.6629 73.1474 96.7436 72.6255C96.7635 72.497 96.782 72.3778 96.798 72.2732C97.1233 70.32 97.164 70.0409 97.2555 69.2423C97.2872 68.9594 97.3429 68.4394 97.4025 67.8823C97.4382 67.5488 97.4753 67.202 97.5096 66.8849C97.5417 66.5877 97.5763 66.2584 97.6104 65.9346C97.6733 65.336 97.7343 64.756 97.7739 64.4313C97.9365 62.9976 98.1703 59.6396 98.2415 57.8403C98.2923 56.3104 98.2821 56.1661 98.089 55.7427C97.9467 55.4444 97.784 55.2616 97.6112 55.1942C97.2554 55.0692 96.0255 55.0692 95.6697 55.2039C95.5071 55.252 95.0293 55.3097 94.5922 55.3193C93.9722 55.3386 93.7689 55.3001 93.6367 55.175C93.4741 55.021 93.4741 55.0018 93.6367 54.7613C93.8095 54.5111 94.2669 54.2128 95.5782 53.5104C96.5236 52.9908 96.737 52.6444 96.5744 51.8939C96.4321 51.2492 96.0051 50.5661 95.1106 49.5654C94.1856 48.5262 91.5834 46.1785 90.8108 45.6781C90.6889 45.6012 90.4042 45.3798 90.1806 45.197C89.1946 44.3888 85.7893 41.9544 84.3052 41.0019C83.8173 40.6843 83.1261 40.2321 82.7601 39.9916C80.0257 38.1634 76.3562 36.0177 75.604 35.7868Z" fill="#513109"/>
</svg>
