<svg width="224" height="80" viewBox="0 0 224 80" fill="none" xmlns="http://www.w3.org/2000/svg">
<path d="M24.8587 35.3288L30.7702 32.7462L39.7133 30.7375L56.6901 27.007L63.6626 29.0157L71.3931 34.4679L77.7594 40.0636L79.4267 44.5115L78.5173 52.4029L77.0015 64.5987L74.5762 67.7553L60.1763 73.6379L41.3807 78.9467L37.8944 75.5032L36.5302 60.2943L25.465 43.6506L24.8587 35.3288Z" fill="#FFC701"/>
<path d="M41.6982 42.9853C41.6331 43.0007 41.4542 43.1239 41.3078 43.2393C40.9988 43.501 40.6004 43.5318 39.9661 43.3471C39.4537 43.2008 39.2911 43.2855 39.1691 43.7397C39.0634 44.1322 38.9414 44.2169 38.3885 44.2862C37.6647 44.3709 37.5834 44.494 37.9005 45.0021C38.1038 45.3485 38.0632 45.4793 37.6484 45.7333C37.2418 45.9797 37.2906 46.2414 37.7948 46.5339C38.2421 46.7956 38.4128 47.0727 38.2827 47.3113C38.0306 47.7501 38.2909 47.9887 39.2098 48.1581C39.6083 48.235 39.7058 48.2889 39.8197 48.4814C39.8929 48.6122 40.023 48.8201 40.1124 48.9586L40.2832 49.1972H41.1045H41.934L42.4219 49.5282C42.6903 49.7053 42.9668 49.8515 43.0318 49.8515C43.0969 49.8515 43.3246 49.7284 43.536 49.5667C43.9752 49.2588 44.1297 49.2357 44.829 49.4051C45.4714 49.559 45.6341 49.4975 45.7479 49.0587C45.8699 48.6199 45.9675 48.543 46.5937 48.4814C47.0816 48.4275 47.106 48.4198 47.1304 48.2043C47.1466 48.0811 47.0978 47.8656 47.0165 47.727C46.8376 47.4191 46.9108 47.2344 47.3093 46.988C47.7159 46.7263 47.6752 46.557 47.1304 46.2183C46.6099 45.895 46.5286 45.7333 46.6587 45.3485C46.797 44.9482 46.675 44.8019 46.1139 44.7019C45.3088 44.5556 45.2519 44.5248 45.0079 44.0938C44.6908 43.5395 44.4875 43.4164 44.0239 43.5318C43.3246 43.6935 43.0725 43.6473 42.5114 43.2316C42.2105 43.0084 41.8934 42.916 41.6982 42.9853ZM43.7475 44.317C44.1459 44.4171 44.2028 44.6249 44.0158 45.2561C43.9426 45.5178 43.8288 45.972 43.7637 46.2722C43.5686 47.2113 43.3896 47.7655 43.2433 47.8887C43.1294 47.9887 43.04 47.9887 42.4789 47.8887C41.8039 47.7655 41.072 47.5885 40.7061 47.4499C40.4459 47.3575 40.3971 47.0881 40.6004 46.9265C40.6979 46.8495 40.8769 46.8572 41.4949 46.965C42.1129 47.0804 42.2837 47.0881 42.3813 47.0034C42.5195 46.9034 42.674 46.4415 42.8773 45.5024C43.0237 44.8558 43.2677 44.2323 43.3815 44.2323C43.414 44.2323 43.5848 44.2708 43.7475 44.317Z" fill="#513109"/>
<path d="M63.5463 53.1513C62.4743 53.4995 62.3166 53.6587 62.0539 54.7232C61.9698 55.0813 61.8227 55.6186 61.7386 55.917C61.3077 57.3695 60.593 60.0159 60.4563 60.5929C60.3828 60.9511 60.2356 61.4286 60.1515 61.6475C60.057 61.8763 59.9308 62.324 59.8678 62.6424C59.7942 62.9508 59.6891 63.2293 59.626 63.2492C59.4894 63.289 59.1636 62.2743 59.1636 61.8365C59.1636 61.6873 59.09 61.1699 59.0059 60.7024C58.8273 59.6776 58.7116 58.9414 58.4279 56.9617C58.1861 55.3201 58.1021 55.1609 57.5345 55.2803C57.1141 55.3599 56.2628 55.6086 55.7583 55.8076C55.4325 55.927 55.2958 56.0663 55.1067 56.4642C54.97 56.7328 54.8334 57.1606 54.7913 57.4093C54.7598 57.6581 54.6337 58.1455 54.5181 58.4937C54.2869 59.1802 54.2343 59.3593 53.404 62.4334C52.8365 64.5028 52.5422 65.3683 52.374 65.3981C52.2689 65.418 52.0902 64.4829 51.9116 63.0801C51.859 62.6125 51.7329 61.7669 51.6488 61.1898C51.5647 60.6128 51.4386 59.7672 51.386 59.2996C51.323 58.832 51.2494 58.1654 51.2074 57.8073C51.0918 56.9418 50.9236 56.8821 49.6414 57.2601C48.2435 57.668 48.1279 57.7376 48.1279 58.1853C48.1279 58.3843 48.275 59.2001 48.4432 59.996C48.6219 60.7919 48.811 61.6574 48.8741 61.936C48.9267 62.2046 49.0318 62.7219 49.1158 63.0801C49.5468 64.9803 49.6308 65.3583 49.7044 65.7662C49.7465 66.015 49.8305 66.4129 49.8936 66.6616C50.1984 67.8853 50.335 68.522 50.335 68.7011C50.335 69.2682 50.9026 69.497 51.6173 69.2085C51.8065 69.1388 52.2689 68.9797 52.6473 68.8702C53.0782 68.7508 53.3935 68.5917 53.5196 68.4325C53.6247 68.3032 53.94 67.3282 54.2238 66.2836C54.5076 65.229 54.7913 64.2938 54.8439 64.1943C54.8964 64.1048 54.97 63.8262 55.0121 63.5775C55.0436 63.3288 55.1907 62.7916 55.3274 62.3837C55.464 61.9758 55.6006 61.4784 55.6427 61.2893C55.7688 60.6228 56.1261 59.7174 56.2838 59.6577C56.473 59.5881 56.4835 59.618 56.6306 60.6427C56.8829 62.314 57.4399 65.8956 57.566 66.6517C57.6606 67.2188 57.8603 67.3381 58.4489 67.179C60.572 66.582 60.5194 66.6119 60.8452 65.9254C60.9924 65.5872 61.2551 64.9107 61.4128 64.4232C61.5809 63.9257 61.8437 63.1497 62.0013 62.6821C62.2851 61.8465 62.9998 59.7174 63.5989 57.9068C63.7671 57.3894 63.9773 56.7826 64.0613 56.5538C64.6709 54.9122 65.2175 53.0319 65.1229 52.9424C64.9442 52.7733 64.5448 52.823 63.5463 53.1513Z" fill="#513109"/>
<path d="M70.83 54.0763C69.3271 54.3847 67.6244 55.479 66.7731 56.6828C66.1425 57.5682 65.9113 58.0657 65.617 59.1998C65.3647 60.135 65.3437 60.3738 65.3963 61.4681C65.4488 62.5525 65.4909 62.7416 65.7536 63.1893C66.647 64.7611 68.5809 64.781 71.86 63.2489C72.2384 63.0798 72.7324 62.7714 72.9531 62.5724C73.3315 62.2342 73.3525 62.1844 73.3525 61.5975C73.3525 61.1498 73.3104 60.9707 73.2053 60.9309C73.1213 60.9011 72.5642 61.1 71.9651 61.3786C71.3661 61.6572 70.7985 61.886 70.7039 61.886C70.6198 61.886 70.3571 61.9556 70.1364 62.0452C69.8631 62.1546 69.5373 62.1944 69.1064 62.1645C68.5703 62.1247 68.4442 62.075 68.192 61.8064C67.9397 61.5477 67.8872 61.3885 67.8872 61.0005C67.8872 60.4434 67.9818 60.3439 68.686 60.1549C68.9697 60.0753 69.6739 59.8763 70.252 59.6973C70.83 59.5281 71.4922 59.3391 71.7234 59.2894C71.9546 59.2297 72.1859 59.1501 72.2489 59.0904C72.3015 59.0406 72.4381 59.0009 72.5642 59.0009C72.6798 59.0009 72.9741 58.9113 73.2053 58.8118L73.6468 58.6228L73.8254 57.6578C74.1197 56.1356 73.9095 54.9418 73.2684 54.3946C72.7429 53.9469 71.9756 53.8474 70.83 54.0763ZM71.2084 55.9964C71.6498 56.265 71.8495 57.4389 71.5027 57.6777C71.261 57.8468 68.6334 58.6427 68.3706 58.6228C68.0553 58.6029 67.9923 58.4736 68.1079 58.0756C68.234 57.6379 68.6019 57.0808 69.0118 56.6828C69.6003 56.1356 70.8195 55.7476 71.2084 55.9964Z" fill="#513109"/>
<path fill-rule="evenodd" clip-rule="evenodd" d="M52.2317 27.1531C52.0301 27.1838 51.8318 27.2163 51.6179 27.2513C51.3869 27.2892 51.1378 27.33 50.8468 27.3747C50.3914 27.444 49.5457 27.6057 48.5698 27.7981C48.212 27.8751 47.7566 27.9598 47.5533 27.9906C47.35 28.0213 47.0248 28.0829 46.8215 28.1291C46.7115 28.1541 46.5398 28.1903 46.3551 28.2293C46.1982 28.2624 46.0319 28.2974 45.8863 28.3292C45.5439 28.397 45.3012 28.445 45.0588 28.4943C44.4206 28.6242 43.7842 28.7635 41.3323 29.2991C40.1776 29.5455 38.5268 29.938 38.0795 30.0689C37.9712 30.1074 37.671 30.1779 37.367 30.2493C37.306 30.2636 37.2448 30.278 37.185 30.2921C36.8272 30.3768 36.3149 30.5 36.0465 30.5692C35.9602 30.5915 35.8603 30.6178 35.757 30.645C35.5394 30.7023 35.3064 30.7636 35.152 30.8002C34.5258 30.9618 31.639 31.8086 31.086 31.9933C30.8176 32.0857 30.4924 32.1857 30.3541 32.2242C28.4268 32.7477 25.2391 34.0793 24.5641 34.6413C23.8566 35.234 23.4419 36.3732 22.7995 39.5754C22.466 41.2227 22.3685 41.8924 22.2709 43.0932C22.1814 44.217 22.0594 44.4711 21.5471 44.5557C21.1649 44.6173 20.6363 44.4788 20.368 44.2478C20.0346 43.963 19.8719 43.5243 19.8394 42.793C19.7825 41.5845 20.0102 40.1527 20.4574 38.9211C20.8071 37.982 21.783 35.7882 22.2871 34.8414C22.71 34.0331 22.71 34.0331 22.71 33.3019C22.71 32.4936 22.5636 32.078 22.1245 31.6623C21.4495 31.0388 18.6928 28.7526 17.9528 28.2215C17.7495 28.0752 17.0826 27.4979 16.4646 26.936C15.44 25.9969 14.6349 25.3657 12.3498 23.7107C10.4388 22.3251 9.28404 21.4091 8.4871 20.6471C7.84004 20.0346 7.16987 19.4752 6.50153 18.9173C5.51731 18.0958 4.53705 17.2775 3.64041 16.2979C3.04678 15.659 2.32302 15.1356 2.02214 15.1356C1.72125 15.1356 1.71312 15.3819 1.98148 16.6751C2.57954 19.551 3.36616 22.2883 5.16923 24.7191C5.30748 24.9115 5.42946 25.1271 5.42946 25.1963C5.42946 25.4272 2.7731 24.5657 2.37995 24.3727C1.94082 24.1649 1.33905 23.9108 1.03816 23.8185C0.509583 23.6645 0.477055 23.6568 0.265623 23.7877C0.151774 23.857 0.0297939 23.9724 0.00539783 24.034C-0.0515263 24.188 0.355075 25.0116 0.599036 25.2271C0.821915 25.4219 1.0124 25.7493 1.19958 26.071C1.33622 26.3059 1.4711 26.5377 1.61554 26.7128C2.88454 28.3644 4.76131 30.7325 6.50288 31.847C7.28356 32.3551 7.30796 32.6553 6.56794 32.5706L6.50427 32.5634C6.25768 32.5353 5.71494 32.4734 5.22616 32.4244C4.96922 32.3949 4.56646 32.28 4.10605 32.1487C2.98435 31.8289 1.52045 31.4115 0.989373 31.8932C0.851128 32.0241 0.842996 32.255 0.973109 32.4782C1.35531 33.1787 2.88413 34.6567 3.9169 35.3417C5.59606 36.441 7.58487 37.2939 9.4734 38.1038C9.63062 38.1712 9.78714 38.2384 9.94273 38.3053C10.2111 38.4285 10.5445 38.5516 10.6746 38.5824C10.9267 38.6363 11.2032 38.821 11.2032 38.9288C11.2032 38.9673 10.7722 39.1135 10.2517 39.2675C9.72317 39.4138 9.01568 39.6293 8.68227 39.7371C8.34886 39.8448 7.70642 39.9988 7.26729 40.0757C6.82817 40.1604 6.42156 40.2605 6.37277 40.3067C6.25892 40.4144 6.50288 40.6146 7.13718 40.9379C8.41877 41.5849 9.43766 41.876 10.8373 42.1464C11.2439 42.2234 11.8294 42.3157 12.1384 42.3388C13.2443 42.4389 13.5615 42.539 13.7566 42.8392C13.9274 43.1009 14.5373 44.4018 14.5373 44.5019C14.5373 44.6019 14.9927 45.441 15.2529 45.8335C15.562 46.28 16.2857 46.8188 16.9851 47.1113C17.3591 47.2653 17.6194 47.2961 18.644 47.3423C19.319 47.373 20.2704 47.3961 20.7583 47.3961C21.3764 47.3961 21.7098 47.4346 21.8236 47.5039C21.9941 47.6115 21.9944 47.6347 22.043 51.7717L22.0432 51.7915C22.092 56.7564 22.2058 58.2651 22.6368 59.5891C22.7913 60.0509 23.5232 61.4904 23.9298 62.1293C24.0925 62.3833 24.3852 62.8683 24.5804 63.207C24.7755 63.5533 25.0358 63.9998 25.1659 64.2076C25.2218 64.3065 25.2846 64.4135 25.3417 64.5107C25.4091 64.6255 25.4685 64.7266 25.4993 64.785C25.5562 64.8927 25.8734 65.4008 26.2068 65.9011C26.3213 66.0799 26.5073 66.3693 26.734 66.7221C27.1513 67.3715 27.7066 68.2355 28.2073 69.0186C30.6306 72.8058 31.8016 74.3607 34.0786 76.8471C34.7861 77.6168 36.5263 79.0871 37.2907 79.5643C37.8274 79.8953 37.9332 79.9338 38.5268 79.98C39.3644 80.0492 39.9987 79.9569 42.3082 79.4334C44.2111 79.0024 44.4306 78.9408 45.7236 78.5559C45.9691 78.4816 46.3242 78.3792 46.6709 78.2792C46.8985 78.2136 47.1225 78.149 47.3094 78.0941C47.781 77.9632 48.4967 77.7554 48.8951 77.6322C49.3017 77.509 49.9929 77.3012 50.4402 77.1704C50.8875 77.0472 51.3998 76.8855 51.5787 76.824C51.7657 76.7624 51.9609 76.7162 52.0178 76.7162C52.0747 76.7162 52.2374 76.67 52.3756 76.6084C52.522 76.5546 52.8717 76.4391 53.1563 76.3621C53.8231 76.1774 60.2637 74.1298 61.2965 73.768C61.7193 73.6218 62.4024 73.3908 62.8009 73.26C63.2075 73.1214 64.0126 72.8289 64.5899 72.6057C65.1754 72.3825 66.013 72.0669 66.4603 71.9052C66.9076 71.7359 67.7614 71.4049 68.3632 71.1585C68.965 70.9122 69.4854 70.7121 69.5261 70.7121C69.5586 70.7121 69.9327 70.5581 70.3474 70.3734C70.754 70.181 71.2826 69.9577 71.5022 69.8731C71.9982 69.6883 74.5923 68.4644 75.4706 68.0025C76.1455 67.6485 76.6579 67.2251 76.9425 66.7863C77.3166 66.2321 77.8533 63.9921 78.2924 61.1825C78.4306 60.3204 78.5689 59.4736 78.6095 59.2966C78.6502 59.1195 78.7234 58.6115 78.7803 58.165C78.8372 57.7186 79.008 56.4023 79.1625 55.24C79.8456 50.1596 80.0001 48.2275 80.0001 45.0022C80.0001 42.539 79.9351 42.0463 79.4797 41.1226C79.1463 40.4375 78.699 39.9141 77.3653 38.6517C74.698 36.1346 71.1769 33.3096 68.2493 31.3467C68.1311 31.2638 67.9632 31.1495 67.7954 31.0353C67.6517 30.9376 67.508 30.8398 67.3955 30.7617C67.1515 30.5923 66.8181 30.3922 66.6555 30.3075C66.501 30.2228 66.3221 30.0997 66.257 30.0304C66.2001 29.9688 65.8179 29.7225 65.4113 29.4839C65.0047 29.253 64.3216 28.8604 63.8987 28.6141C62.9229 28.0598 62.1829 27.6519 61.3859 27.2593C59.7494 26.6793 58.1702 26.6105 56.4134 26.7219C56.1473 26.6164 55.8825 26.4283 55.7579 26.2435C55.5556 25.9457 55.5977 25.4258 55.7579 24.89C56.02 24.0036 56.5742 23.0355 57.2583 22.2726C57.787 21.6932 59.1533 20.3839 59.8115 19.8419L59.8124 19.8411C60.3672 19.3772 60.3674 19.377 60.5543 18.8505C60.7611 18.2683 60.7465 17.9281 60.4905 17.5067C60.093 16.8701 58.4029 14.4576 57.9281 13.8695C57.7977 13.7077 57.395 13.1065 57.0287 12.5301C56.4234 11.569 55.9205 10.8907 54.4581 9.0639C53.2355 7.53502 52.517 6.55446 52.0543 5.78416C51.6769 5.16318 51.2669 4.574 50.858 3.98643C50.2559 3.12132 49.6562 2.25968 49.1669 1.30506C48.8405 0.67995 48.3771 0.101884 48.1289 0.018313C47.8806 -0.065258 47.8109 0.109965 47.7016 1.11605C47.4596 3.35378 47.4085 5.54403 48.2747 7.79586C48.3395 7.97288 48.3851 8.16201 48.3674 8.21192C48.3083 8.3782 46.3368 7.01983 46.0617 6.77164C45.7525 6.49995 45.321 6.14985 45.0963 5.99974C44.6995 5.74202 44.6745 5.72743 44.4665 5.76297C44.3549 5.78125 44.2247 5.83054 44.1888 5.86813C44.1024 5.96321 44.2273 6.66942 44.3735 6.89244C44.5076 7.09464 44.5811 7.38344 44.6533 7.66723C44.706 7.87436 44.758 8.07883 44.8324 8.245C45.4572 9.78724 46.4001 12.0143 47.5522 13.3009C48.0665 13.8837 48.0099 14.1068 47.4209 13.8402L47.3683 13.8165C47.1711 13.7273 46.7407 13.5328 46.3511 13.3622C46.1466 13.2696 45.8437 13.075 45.4974 12.8526L45.4973 12.8526C44.6535 12.3106 43.5522 11.6033 42.9908 11.8028C42.8432 11.8587 42.7774 12.0228 42.8277 12.2197C42.9639 12.8305 43.8474 14.3197 44.5244 15.1C45.6289 16.3582 47.0519 17.525 48.4031 18.6329C48.5156 18.7252 48.6277 18.817 48.7389 18.9085C48.9289 19.0717 49.1727 19.2532 49.2722 19.3115C49.4665 19.4203 49.6473 19.6301 49.6197 19.7078C49.6099 19.7355 49.2168 19.7211 48.7479 19.6874C48.2743 19.646 47.6355 19.6048 47.3328 19.5898C47.0301 19.5748 46.4604 19.5072 46.0784 19.4407C45.6944 19.3797 45.3334 19.3389 45.2813 19.3586C45.1598 19.4047 45.3099 19.6166 45.7506 20.0257C46.6427 20.8477 47.409 21.3404 48.4948 21.9239C48.8107 22.0923 49.2702 22.3215 49.5193 22.4239C50.4063 22.8032 50.6424 22.9634 50.7267 23.2338C50.8007 23.4698 50.9713 24.5762 50.9457 24.6483C50.9201 24.7204 51.0812 25.4513 51.1955 25.8063C51.3301 26.1957 51.7558 26.7512 52.2317 27.1531ZM60.4833 28.6295C60.28 28.5756 59.8246 28.4755 59.4668 28.4139C58.4502 28.2369 55.8155 28.3062 53.7743 28.5679C49.5945 29.099 44.7234 30.1459 44.4225 30.5769C44.1542 30.9695 44.3168 31.3236 45.0812 31.9625C45.9107 32.6399 47.5777 34.1871 52.7334 39.0366C61.0522 46.85 61.0536 46.8507 61.5158 47.0577L61.5323 47.0651C61.947 47.2499 61.9958 47.2499 62.5081 47.1652C62.8009 47.1113 63.3051 46.9882 63.6141 46.8881C63.8482 46.8142 64.2774 46.6858 64.6922 46.5617C64.8392 46.5177 64.9844 46.4742 65.1185 46.4339C65.2004 46.4093 65.2844 46.3841 65.3685 46.3589C65.8108 46.2261 66.2583 46.0919 66.4359 46.0337C67.0295 45.8489 67.5581 46.026 67.2084 46.2954C66.9726 46.4801 64.655 47.527 63.9231 47.781C63.804 47.8233 63.6117 47.893 63.3906 47.9731C63.1285 48.068 62.826 48.1776 62.5569 48.2737C61.5323 48.6585 60.9549 48.851 60.3206 49.028C60.0767 49.0973 59.5562 49.2436 59.1577 49.3513C57.328 49.8671 54.8722 50.3905 54.2704 50.3905C53.9532 50.3905 53.7337 50.2904 53.7337 50.1442C53.7337 49.9363 54.4412 49.5746 55.3194 49.3205C55.3525 49.3109 55.3862 49.3011 55.4202 49.2912C55.7122 49.2063 56.0268 49.1148 56.1652 49.0665C56.3041 49.025 56.693 48.9274 57.0597 48.8354L57.1817 48.8048C58.9382 48.3891 59.9791 48.0196 60.1254 47.7656C60.3125 47.45 60.2556 47.2576 59.8408 46.7957C58.8812 45.7181 48.0331 35.5804 44.9511 32.8708C44.2273 32.2319 43.1214 31.5237 42.5115 31.3082C41.5112 30.9464 40.6411 31.0311 37.8356 31.747C36.0547 32.2011 34.6722 32.5706 34.3388 32.6784C34.2087 32.7169 33.7858 32.84 33.4036 32.9401C29.6466 33.9793 26.8329 35.0415 26.0116 35.7343L25.6375 36.0576V36.5964C25.6375 37.0737 25.6782 37.1969 25.9872 37.7896C26.3613 38.4823 27.3127 39.7524 28.1015 40.6069C28.6708 41.2304 32.7775 45.3563 33.3548 45.8874C33.9241 46.4185 36.136 48.7047 36.6239 49.2743C38.7464 51.7299 39.6571 53.254 39.9418 54.8166C40.0881 55.6248 40.1044 57.1413 39.9906 59.743C39.8686 62.4064 39.6409 66.0628 39.5026 67.5946C39.4538 68.0564 39.3807 69.8192 39.3237 71.5126C39.2261 74.7764 39.2424 75.015 39.5921 75.9156C39.9255 76.747 40.698 77.486 41.3893 77.6399C41.9016 77.7477 42.7229 77.7323 43.1946 77.6014C44.7885 77.155 46.2766 76.7239 48.2852 76.1235L48.4541 76.0735C49.1962 75.854 50.0266 75.6083 50.3589 75.5154C50.9363 75.346 52.5383 74.8534 53.2051 74.6378C53.3433 74.5917 54.1972 74.3146 55.1161 74.022C56.035 73.7295 57.1491 73.3678 57.5964 73.2138C58.0437 73.0598 58.5397 72.8982 58.6942 72.852C58.8487 72.8135 59.0927 72.7365 59.2228 72.675C59.361 72.6211 59.849 72.444 60.3206 72.2901C60.5242 72.2203 60.7762 72.1348 61.031 72.0483C61.3665 71.9345 61.7067 71.819 61.947 71.7359C62.2838 71.6194 62.631 71.5029 62.8158 71.4408C62.8631 71.425 62.8997 71.4127 62.9229 71.4049C63.0367 71.3741 63.2725 71.2817 63.4514 71.2047C63.6304 71.1355 64.2159 70.9276 64.7526 70.7506C65.2893 70.5658 66.501 70.1194 67.4361 69.7576C68.3795 69.3881 69.6887 68.8801 70.3474 68.626C73.4864 67.4329 74.6492 66.6247 75.4624 65.0698C76.0561 63.9536 76.2269 63.561 76.4464 62.8606C76.7066 62.0292 77.0401 60.5282 77.1946 59.4351C77.2467 59.0585 77.3303 58.5183 77.395 58.1008C77.4109 57.9979 77.4257 57.9024 77.4385 57.8187C77.6988 56.256 77.7313 56.0328 77.8045 55.3939C77.8299 55.1678 77.8743 54.7523 77.922 54.3071C77.9506 54.04 77.9803 53.7621 78.0078 53.508C78.0335 53.2702 78.0612 53.0067 78.0884 52.7477C78.1388 52.2688 78.1875 51.8049 78.2192 51.5451C78.3493 50.3982 78.5363 47.7117 78.5933 46.2723C78.6339 45.0484 78.6258 44.9329 78.4713 44.5942C78.3575 44.3556 78.2273 44.2093 78.0891 44.1555C77.8045 44.0554 76.8205 44.0554 76.5359 44.1632C76.4058 44.2016 76.0236 44.2478 75.6739 44.2555C75.1778 44.2709 75.0152 44.2401 74.9095 44.1401C74.7794 44.0169 74.7794 44.0015 74.9095 43.8091C75.0477 43.6089 75.4137 43.3703 76.4627 42.8084C77.219 42.3927 77.3897 42.1156 77.2596 41.5152C77.1458 40.9995 76.8042 40.4529 76.0886 39.6524C75.3486 38.821 73.2668 36.9428 72.6488 36.5426C72.5512 36.481 72.3235 36.3039 72.1446 36.1577C71.3558 35.5111 68.6315 33.5636 67.4443 32.8015C67.0539 32.5475 66.501 32.1857 66.2082 31.9933C64.0207 30.5308 61.085 28.8142 60.4833 28.6295Z" fill="#513109"/>
<path d="M207.359 80.0001C207.056 80.0001 206.835 79.9289 206.695 79.7866C206.555 79.6679 206.485 79.4425 206.485 79.1102V55.3683C206.485 55.0361 206.555 54.8107 206.695 54.692C206.835 54.5496 207.056 54.4785 207.359 54.4785H209.876C210.412 54.4785 210.739 54.7395 210.855 55.2616L211.1 56.187C211.799 55.4989 212.638 54.9531 213.617 54.5496C214.619 54.1462 215.633 53.9445 216.659 53.9445C218.919 53.9445 220.702 54.7869 222.007 56.4718C223.336 58.1566 224 60.4347 224 63.306C224 65.2756 223.674 66.9961 223.021 68.4673C222.369 69.9386 221.483 71.0776 220.364 71.8845C219.246 72.6675 217.964 73.0591 216.519 73.0591C215.563 73.0591 214.654 72.9048 213.792 72.5963C212.93 72.2879 212.195 71.8607 211.589 71.3149V79.1102C211.589 79.4425 211.519 79.6679 211.38 79.7866C211.263 79.9289 211.042 80.0001 210.715 80.0001H207.359ZM215.015 69.1436C216.321 69.1436 217.276 68.6928 217.882 67.791C218.511 66.8893 218.826 65.4655 218.826 63.5196C218.826 61.55 218.523 60.1143 217.917 59.2126C217.311 58.3109 216.344 57.86 215.015 57.86C213.803 57.86 212.661 58.1803 211.589 58.8211V68.1826C212.615 68.8233 213.757 69.1436 215.015 69.1436Z" fill="#513109"/>
<path d="M195.752 73.2015C192.792 73.2015 190.532 72.3828 188.97 70.7454C187.432 69.108 186.663 66.7113 186.663 63.5552C186.663 60.5178 187.432 58.1566 188.97 56.4718C190.508 54.7869 192.641 53.9445 195.368 53.9445C197.675 53.9445 199.446 54.5971 200.681 55.9023C201.94 57.1837 202.569 59.0228 202.569 61.4195C202.569 62.1551 202.511 62.9975 202.394 63.9468C202.348 64.3027 202.255 64.54 202.115 64.6586C201.975 64.7773 201.765 64.8366 201.486 64.8366H191.382C191.475 66.4028 191.942 67.5419 192.781 68.2538C193.62 68.9419 194.936 69.286 196.731 69.286C198.013 69.286 199.505 69.0606 201.206 68.6097C201.276 68.586 201.346 68.5741 201.416 68.5741C201.486 68.5504 201.544 68.5385 201.59 68.5385C201.987 68.5385 202.185 68.8114 202.185 69.3572V70.9946C202.185 71.3743 202.126 71.6471 202.01 71.8133C201.917 71.9556 201.719 72.0862 201.416 72.2048C199.644 72.8692 197.757 73.2015 195.752 73.2015ZM198.199 61.6331V61.0279C198.199 58.7024 197.197 57.5396 195.193 57.5396C194.051 57.5396 193.142 57.8956 192.466 58.6075C191.813 59.2957 191.441 60.3042 191.347 61.6331H198.199Z" fill="#513109"/>
<path d="M174.278 72.6675C173.975 72.6675 173.753 72.5963 173.613 72.454C173.474 72.3116 173.404 72.0862 173.404 71.7777V55.3683C173.404 55.0361 173.474 54.8107 173.613 54.692C173.753 54.5496 173.975 54.4785 174.278 54.4785H176.795C177.331 54.4785 177.657 54.7395 177.774 55.2616L178.228 57.1837C179.16 56.1396 180.034 55.4039 180.85 54.9768C181.689 54.5259 182.575 54.3005 183.507 54.3005H183.996C184.323 54.3005 184.556 54.3717 184.696 54.5141C184.835 54.6327 184.905 54.8581 184.905 55.1904V58.1803C184.905 58.4888 184.835 58.7143 184.696 58.8567C184.579 58.999 184.358 59.0702 184.031 59.0702C183.868 59.0702 183.658 59.0584 183.402 59.0346C183.146 59.0109 182.819 58.999 182.423 58.999C181.887 58.999 181.235 59.0821 180.465 59.2482C179.696 59.3906 179.044 59.5804 178.508 59.8177V71.7777C178.508 72.0862 178.438 72.3116 178.298 72.454C178.181 72.5963 177.96 72.6675 177.634 72.6675H174.278Z" fill="#513109"/>
<path d="M152.982 72.6675C152.679 72.6675 152.458 72.5963 152.318 72.4539C152.178 72.3116 152.108 72.0861 152.108 71.7776V48.89C152.108 48.5578 152.178 48.3323 152.318 48.2137C152.458 48.0713 152.679 48.0001 152.982 48.0001H161.373C163.89 48.0001 165.882 48.7002 167.351 50.1002C168.819 51.5003 169.553 53.4106 169.553 55.831C169.553 58.2515 168.819 60.1618 167.351 61.5618C165.882 62.9619 163.89 63.662 161.373 63.662H157.212V71.7776C157.212 72.0861 157.143 72.3116 157.003 72.4539C156.886 72.5963 156.665 72.6675 156.338 72.6675H152.982ZM160.778 59.6753C161.944 59.6753 162.829 59.3549 163.435 58.7142C164.064 58.0498 164.379 57.0887 164.379 55.831C164.379 54.5733 164.064 53.6241 163.435 52.9834C162.829 52.319 161.944 51.9868 160.778 51.9868H157.212V59.6753H160.778Z" fill="#513109"/>
<path d="M138.466 73.2015C135.506 73.2015 133.245 72.3828 131.684 70.7454C130.145 69.108 129.376 66.7113 129.376 63.5552C129.376 60.5178 130.145 58.1566 131.684 56.4718C133.222 54.7869 135.354 53.9445 138.081 53.9445C140.388 53.9445 142.16 54.5971 143.395 55.9023C144.654 57.1837 145.283 59.0228 145.283 61.4195C145.283 62.1551 145.225 62.9975 145.108 63.9468C145.061 64.3027 144.968 64.54 144.828 64.6586C144.688 64.7773 144.479 64.8366 144.199 64.8366H134.096C134.189 66.4028 134.655 67.5419 135.494 68.2538C136.333 68.9419 137.65 69.286 139.445 69.286C140.726 69.286 142.218 69.0606 143.919 68.6097C143.989 68.586 144.059 68.5741 144.129 68.5741C144.199 68.5504 144.257 68.5385 144.304 68.5385C144.7 68.5385 144.898 68.8114 144.898 69.3572V70.9946C144.898 71.3743 144.84 71.6471 144.723 71.8133C144.63 71.9556 144.432 72.0862 144.129 72.2048C142.358 72.8692 140.47 73.2015 138.466 73.2015ZM140.913 61.6331V61.0279C140.913 58.7024 139.911 57.5396 137.906 57.5396C136.764 57.5396 135.855 57.8956 135.18 58.6075C134.527 59.2957 134.154 60.3042 134.061 61.6331H140.913Z" fill="#FFC701"/>
<path d="M103.516 72.6675C103.143 72.6675 102.864 72.5963 102.677 72.4539C102.514 72.3116 102.386 72.0743 102.293 71.742L96.1748 49.4239C96.0583 49.068 96 48.7832 96 48.5696C96 48.19 96.2331 48.0001 96.6992 48.0001H100.72C101.046 48.0001 101.291 48.0713 101.454 48.2137C101.64 48.3561 101.768 48.5934 101.838 48.9256L105.509 66.8655L109.145 49.5307C109.215 49.1985 109.343 48.9612 109.529 48.8188C109.716 48.6764 109.995 48.6052 110.368 48.6052H113.864C114.237 48.6052 114.517 48.6764 114.703 48.8188C114.89 48.9612 115.018 49.1985 115.088 49.5307L118.794 66.7943L122.429 48.9256C122.499 48.5934 122.616 48.3561 122.779 48.2137C122.965 48.0713 123.222 48.0001 123.548 48.0001H127.394C127.86 48.0001 128.093 48.19 128.093 48.5696C128.093 48.7832 128.034 49.068 127.918 49.4239L121.8 71.742C121.707 72.0743 121.567 72.3116 121.381 72.4539C121.217 72.5963 120.949 72.6675 120.576 72.6675H116.836C116.463 72.6675 116.183 72.5963 115.997 72.4539C115.81 72.3116 115.682 72.0743 115.612 71.742L111.976 55.2615L108.481 71.742C108.411 72.0743 108.282 72.3116 108.096 72.4539C107.91 72.5963 107.63 72.6675 107.257 72.6675H103.516Z" fill="#FFC701"/>
</svg>
