<svg width="35" height="35" viewBox="0 0 35 35" fill="none" xmlns="http://www.w3.org/2000/svg">
<path d="M0.74724 17.348C0.746185 20.2984 1.52057 23.179 2.99304 25.7184L0.606187 34.3944L9.52449 32.0663C11.9817 33.3994 14.7482 34.1031 17.5637 34.104H17.571C26.8429 34.104 34.3899 26.5927 34.3939 17.3611C34.3957 12.8873 32.6473 8.68116 29.4708 5.51612C26.2949 2.35153 22.0711 0.607785 17.5702 0.605684C8.29779 0.605684 0.751259 8.11591 0.74724 17.348ZM17.571 34.104C17.5708 34.104 17.5706 34.104 17.571 34.104Z" fill="url(#paint0_linear_329_3147)"/>
<path d="M0.146378 17.343C0.145323 20.3995 0.947538 23.3835 2.47245 26.0135L0 35L9.23829 32.5885C11.7837 33.9704 14.6493 34.6987 17.5659 34.6999H17.5733C27.1773 34.6999 34.996 26.9186 35 17.3565C35.0016 12.7219 33.1903 8.36442 29.9004 5.08637C26.6099 1.80831 22.2349 0.00200034 17.5733 0C7.96731 0 0.150397 7.78037 0.146378 17.343ZM5.64756 25.5603L5.30271 25.0151C3.8526 22.7199 3.08725 20.0672 3.08831 17.3438C3.09147 9.3959 9.58891 2.9293 17.5784 2.9293C21.4474 2.9308 25.0837 4.43241 27.8188 7.15682C30.5537 9.88143 32.0586 13.5034 32.0575 17.3551C32.054 25.3034 25.5564 31.7705 17.5729 31.7705H17.5673C14.9678 31.769 12.4184 31.0743 10.1951 29.7609L9.66597 29.4487L4.18358 30.8796L5.64756 25.5603ZM17.5733 34.6999C17.5731 34.6999 17.5729 34.6999 17.5733 34.6999Z" fill="url(#paint1_linear_329_3147)"/>
<path fill-rule="evenodd" clip-rule="evenodd" d="M13.2178 10.0917C12.8916 9.36977 12.5483 9.35532 12.238 9.34262C11.9841 9.33187 11.6937 9.33257 11.4036 9.33257C11.1131 9.33257 10.6414 9.44107 10.2425 9.87486C9.84324 10.3087 8.71833 11.3573 8.71833 13.49C8.71833 15.6229 10.2789 17.6838 10.4963 17.9733C10.7141 18.2623 13.5087 22.779 17.9342 24.5165C21.6125 25.9604 22.3611 25.6732 23.1594 25.6009C23.9578 25.5287 25.7357 24.5526 26.0984 23.5403C26.4613 22.5282 26.4613 21.6606 26.3525 21.4794C26.2437 21.2988 25.9533 21.1903 25.5179 20.9737C25.0823 20.7568 22.9416 19.708 22.5425 19.5634C22.1433 19.4189 21.853 19.3467 21.5626 19.7807C21.2723 20.2142 20.4384 21.1903 20.1842 21.4794C19.9303 21.7691 19.6762 21.8053 19.2408 21.5885C18.8052 21.3709 17.4027 20.9137 15.7391 19.4371C14.4446 18.2881 13.5707 16.8691 13.3166 16.4351C13.0627 16.0016 13.2895 15.7668 13.5078 15.5507C13.7035 15.3565 13.9434 15.0446 14.1612 14.7916C14.3785 14.5384 14.4509 14.3578 14.5961 14.0686C14.7414 13.7793 14.6687 13.5261 14.5599 13.3093C14.4509 13.0924 13.605 10.9489 13.2178 10.0917Z" fill="white"/>
<defs>
<linearGradient id="paint0_linear_329_3147" x1="17.5002" y1="34.9964" x2="17.5002" y2="-0.00367791" gradientUnits="userSpaceOnUse">
<stop stop-color="#20B038"/>
<stop offset="1" stop-color="#60D66A"/>
</linearGradient>
<linearGradient id="paint1_linear_329_3147" x1="17.5002" y1="35.001" x2="17.5002" y2="0.00105142" gradientUnits="userSpaceOnUse">
<stop stop-color="#F9F9F9"/>
<stop offset="1" stop-color="white"/>
</linearGradient>
</defs>
</svg>
